<svg xmlns="http://www.w3.org/2000/svg" xml:space="preserve" width="4015" height="1989" overflow="hidden"><path fill="none" stroke="#000" stroke-linejoin="round" stroke-miterlimit="10" stroke-width="4.583" d="M1578.5 24.5v489M1931.12 24.5v1698.78M1222.5 147.805h710.91M1222.5 268.819h710.91M1222.5 389.832h710.91"/><path fill="none" stroke="#000" stroke-linejoin="round" stroke-miterlimit="10" stroke-width="2.292" d="M1222 509h710.91"/><path fill="none" stroke="#000" stroke-linejoin="round" stroke-miterlimit="10" stroke-width="4.583" d="M1224.79 24.5v1698.78M1222.5 26.792h710.91"/><text fill="#fff" font-family="Arial,Arial_MSFontService,sans-serif" font-size="73" font-weight="700" transform="translate(1349.67 114)">AH</text><text fill="#fff" font-family="Arial,Arial_MSFontService,sans-serif" font-size="73" font-weight="700" transform="translate(1706.85 114)">AL</text><text fill="#fff" font-family="Arial,Arial_MSFontService,sans-serif" font-size="73" font-weight="700" transform="translate(1348.57 236)">BH</text><text fill="#fff" font-family="Arial,Arial_MSFontService,sans-serif" font-size="73" font-weight="700" transform="translate(1705.75 236)">BL</text><text fill="#fff" font-family="Arial,Arial_MSFontService,sans-serif" font-size="73" font-weight="700" transform="translate(1348.57 357)">CH</text><text fill="#fff" font-family="Arial,Arial_MSFontService,sans-serif" font-size="73" font-weight="700" transform="translate(1705.75 357)">CL</text><text fill="#fff" font-family="Arial,Arial_MSFontService,sans-serif" font-size="73" font-weight="700" transform="translate(1348.57 478)">DH</text><text fill="#fff" font-family="Arial,Arial_MSFontService,sans-serif" font-size="73" font-weight="700" transform="translate(1705.75 478)">DL</text><text fill="#fff" font-family="Arial,Arial_MSFontService,sans-serif" font-size="73" font-weight="700" transform="translate(1528.88 598)">SP</text><text fill="#fff" font-family="Arial,Arial_MSFontService,sans-serif" font-size="73" font-weight="700" transform="translate(1527.23 720)">BP</text><text fill="#fff" font-family="Arial,Arial_MSFontService,sans-serif" font-size="73" font-weight="700" transform="translate(1543.18 841)">SI</text><text fill="#fff" font-family="Arial,Arial_MSFontService,sans-serif" font-size="73" font-weight="700" transform="translate(1541.53 962)">DI</text><text fill="#fff" font-family="Arial,Arial_MSFontService,sans-serif" font-size="73" font-weight="700" transform="translate(1543.18 1083)">IP</text><text fill="#fff" font-family="Arial,Arial_MSFontService,sans-serif" font-size="73" font-weight="700" transform="translate(1455.18 1204)">FLAGS</text><text fill="#fff" font-family="Arial,Arial_MSFontService,sans-serif" font-size="73" font-weight="700" transform="translate(1527.23 1325)">CS</text><text fill="#fff" font-family="Arial,Arial_MSFontService,sans-serif" font-size="73" font-weight="700" transform="translate(1527.23 1446)">DS</text><text fill="#fff" font-family="Arial,Arial_MSFontService,sans-serif" font-size="73" font-weight="700" transform="translate(1528.88 1567)">ES</text><text fill="#fff" font-family="Arial,Arial_MSFontService,sans-serif" font-size="73" font-weight="700" transform="translate(1528.88 1688)">SS</text><path fill="#f79546" fill-rule="evenodd" d="M1222.91 27H516v121h706.91z"/><path fill="#4f81bc" fill-rule="evenodd" d="M1928.91 27H1223v121h705.91z"/><path fill="#f79546" fill-rule="evenodd" d="M1222.91 148H516v121h706.91z"/><path fill="#4f81bc" fill-rule="evenodd" d="M1928.91 148H1223v120.995h705.91z"/><path fill="#f79546" fill-rule="evenodd" d="M1222.91 269H516v121h706.91z"/><path fill="#4f81bc" fill-rule="evenodd" d="M1928.91 269H1223v121h705.91z"/><path fill="#f79546" fill-rule="evenodd" d="M1222.91 390H516v121h706.91z"/><path fill="#4f81bc" fill-rule="evenodd" d="M1928.91 390H1223v120.995h705.91z"/><path fill="#f79546" fill-rule="evenodd" d="M1222.91 511H516v121h706.91z"/><path fill="#4f81bc" fill-rule="evenodd" d="M1928.91 511H1223v121h705.91z"/><path fill="#f79546" fill-rule="evenodd" d="M1222.91 632H516v121h706.91z"/><path fill="#4f81bc" fill-rule="evenodd" d="M1928.91 632H1223v121h705.91z"/><path fill="#f79546" fill-rule="evenodd" d="M1222.91 753H516v121h706.91z"/><path fill="#4f81bc" fill-rule="evenodd" d="M1928.91 753H1223v121h705.91z"/><path fill="#f79546" fill-rule="evenodd" d="M1222.91 874H516v121h706.91z"/><path fill="#4f81bc" fill-rule="evenodd" d="M1928.91 874H1223v121h705.91z"/><path fill="#f79546" fill-rule="evenodd" d="M1222.91 995H516v121h706.91z"/><path fill="#4f81bc" fill-rule="evenodd" d="M1928.91 995H1223v121h705.91z"/><path fill="#f79546" fill-rule="evenodd" d="M1222.91 1116H516v121h706.91z"/><path fill="#4f81bc" fill-rule="evenodd" d="M1928.91 1599.83H1223v120.95h705.91zM1928.91 1116H1223v483.82h705.91V1116"/><path fill="#f79546" fill-rule="evenodd" d="M1928.91 1721H1223v241.99h705.91V1721"/><path fill="none" stroke="#000" stroke-linejoin="round" stroke-miterlimit="10" stroke-width="4.583" d="M516.791 24.5v1214.7M1223.41 24.5v1940.78M1576.72 24.5v488.631M1930.03 24.5v1940.78M514.5 147.803h1417.82M514.5 268.815h1417.82M514.5 389.827h1417.82M514.5 510.839h1417.82M514.5 631.85h1417.82M514.5 752.86h1417.82M514.5 873.87h1417.82M514.5 994.89h1417.82M514.5 1115.9h1417.82M514.5 1236.91h1417.82M1221.12 1357.92h711.2M1221.12 1478.93h711.2M1221.12 1599.94h711.2M1221.12 1720.96h711.2M1221.12 1841.98h711.2M514.5 26.792h1417.82M1221.12 1962.99h711.2"/><text fill="#fff" font-family="Arial,Arial_MSFontService,sans-serif" font-size="73" font-weight="700" transform="translate(1347.79 112)">AH</text><text fill="#fff" font-family="Arial,Arial_MSFontService,sans-serif" font-size="73" font-weight="700" transform="translate(1704.97 112)">AL</text><text fill="#fff" font-family="Arial,Arial_MSFontService,sans-serif" font-size="73" font-weight="700" transform="translate(1346.69 233)">BH</text><text fill="#fff" font-family="Arial,Arial_MSFontService,sans-serif" font-size="73" font-weight="700" transform="translate(1703.87 233)">BL</text><text fill="#fff" font-family="Arial,Arial_MSFontService,sans-serif" font-size="73" font-weight="700" transform="translate(1346.69 354)">CH</text><text fill="#fff" font-family="Arial,Arial_MSFontService,sans-serif" font-size="73" font-weight="700" transform="translate(1703.87 354)">CL</text><text fill="#fff" font-family="Arial,Arial_MSFontService,sans-serif" font-size="73" font-weight="700" transform="translate(1346.69 475)">DH</text><text fill="#fff" font-family="Arial,Arial_MSFontService,sans-serif" font-size="73" font-weight="700" transform="translate(1703.87 475)">DL</text><text fill="#375f92" font-family="Arial,Arial_MSFontService,sans-serif" font-size="73" font-weight="700" transform="translate(1962.51 99)">AX</text><text fill="#375f92" font-family="Arial,Arial_MSFontService,sans-serif" font-size="73" font-weight="700" transform="translate(1962.51 221)">BX</text><text fill="#375f92" font-family="Arial,Arial_MSFontService,sans-serif" font-size="73" font-weight="700" transform="translate(1962.51 342)">CX</text><text fill="#375f92" font-family="Arial,Arial_MSFontService,sans-serif" font-size="73" font-weight="700" transform="translate(1962.51 463)">DX</text><text fill="#fff" font-family="Arial,Arial_MSFontService,sans-serif" font-size="73" font-weight="700" transform="translate(1527 596)">SP</text><text fill="#fff" font-family="Arial,Arial_MSFontService,sans-serif" font-size="73" font-weight="700" transform="translate(1525.35 717)">BP</text><text fill="#fff" font-family="Arial,Arial_MSFontService,sans-serif" font-size="73" font-weight="700" transform="translate(1541.3 838)">SI</text><text font-family="Arial,Arial_MSFontService,sans-serif" font-size="73" font-weight="700" transform="translate(334.235 99)">EAX</text><text font-family="Arial,Arial_MSFontService,sans-serif" font-size="73" font-weight="700" transform="translate(332.172 221)">EBX</text><text font-family="Arial,Arial_MSFontService,sans-serif" font-size="73" font-weight="700" transform="translate(332.172 342)">ECX</text><text font-family="Arial,Arial_MSFontService,sans-serif" font-size="73" font-weight="700" transform="translate(332.172 463)">EDX</text><text font-family="Arial,Arial_MSFontService,sans-serif" font-size="73" font-weight="700" transform="translate(332.172 585)">ESP</text><text font-family="Arial,Arial_MSFontService,sans-serif" font-size="73" font-weight="700" transform="translate(332.172 706)">EBP</text><text font-family="Arial,Arial_MSFontService,sans-serif" font-size="73" font-weight="700" transform="translate(332.172 828)">ESI</text><text font-family="Arial,Arial_MSFontService,sans-serif" font-size="73" font-weight="700" transform="translate(332.172 949)">EDI</text><text fill="#fff" font-family="Arial,Arial_MSFontService,sans-serif" font-size="73" font-weight="700" transform="translate(1539.65 959)">DI</text><text font-family="Arial,Arial_MSFontService,sans-serif" font-size="73" font-weight="700" transform="translate(364.622 1080)">EIP</text><text fill="#fff" font-family="Arial,Arial_MSFontService,sans-serif" font-size="73" font-weight="700" transform="translate(1541.3 1080)">IP</text><text font-family="Arial,Arial_MSFontService,sans-serif" font-size="73" font-weight="700" transform="translate(188.622 1202)">EFLAGS</text><text fill="#fff" font-family="Arial,Arial_MSFontService,sans-serif" font-size="73" font-weight="700" transform="translate(1453.3 1202)">FLAGS</text><text fill="#fff" font-family="Arial,Arial_MSFontService,sans-serif" font-size="73" font-weight="700" transform="translate(1525.35 1323)">CS</text><text fill="#fff" font-family="Arial,Arial_MSFontService,sans-serif" font-size="73" font-weight="700" transform="translate(1525.35 1444)">DS</text><text fill="#fff" font-family="Arial,Arial_MSFontService,sans-serif" font-size="73" font-weight="700" transform="translate(1527 1565)">ES</text><text fill="#fff" font-family="Arial,Arial_MSFontService,sans-serif" font-size="73" font-weight="700" transform="translate(1527 1686)">SS</text><text fill="#fff" font-family="Arial,Arial_MSFontService,sans-serif" font-size="73" font-weight="700" transform="translate(1529.2 1807)">FS</text><text fill="#fff" font-family="Arial,Arial_MSFontService,sans-serif" font-size="73" font-weight="700" transform="translate(1523.15 1928)">GS</text><path fill="#f79546" fill-rule="evenodd" d="M3305.91 1407H2522v143h783.91z"/><path fill="#4f81bc" fill-rule="evenodd" d="M4013.95 1407H3306v143h707.95z"/><text font-family="Lantinghei SC,Lantinghei SC_MSFontService,sans-serif" font-size="92" font-weight="900" transform="translate(3176.36 1357)">说明</text><text font-family="Lantinghei SC,Lantinghei SC_MSFontService,sans-serif" font-size="92" font-weight="200" transform="translate(2574.98 1650)">代表</text><text font-family="Arial,Arial_MSFontService,sans-serif" font-size="92" font-weight="400" transform="translate(2758.31 1650)">IA</text><text font-family="Arial,Arial_MSFontService,sans-serif" font-size="92" font-weight="400" transform="translate(2843.91 1650)">-</text><text font-family="Arial,Arial_MSFontService,sans-serif" font-size="92" font-weight="400" transform="translate(2873.81 1650)">32</text><text font-family="Lantinghei SC,Lantinghei SC_MSFontService,sans-serif" font-size="92" font-weight="200" transform="translate(2975.79 1650)">寄存器</text><text font-family="Lantinghei SC,Lantinghei SC_MSFontService,sans-serif" font-size="92" font-weight="200" transform="translate(2592.63 1759)">模型的新增部分</text><text font-family="Lantinghei SC,Lantinghei SC_MSFontService,sans-serif" font-size="92" font-weight="200" transform="translate(3419.96 1650)">代表</text><text font-family="Arial,Arial_MSFontService,sans-serif" font-size="92" font-weight="400" transform="translate(3603.3 1650)">8086</text><text font-family="Lantinghei SC,Lantinghei SC_MSFontService,sans-serif" font-size="92" font-weight="200" transform="translate(3807.26 1650)">的</text><text font-family="Lantinghei SC,Lantinghei SC_MSFontService,sans-serif" font-size="92" font-weight="200" transform="translate(3430.51 1759)">寄存器模型</text><path fill="none" stroke="#c0504d" stroke-dasharray="31.35 10.45" stroke-linecap="square" stroke-linejoin="round" stroke-miterlimit="10" stroke-width="10.45" d="m244 90.8 2.278-16.964 6.429-15.242 9.974-12.911 12.91-9.975 15.24-6.43L307.794 27H2155.07l16.96 2.278 15.24 6.43 12.91 9.975 9.98 12.911 6.42 15.242 2.28 16.964v821.15l-2.28 16.96-6.42 15.25-9.98 12.91-12.91 9.97-15.24 6.43-16.96 2.28H307.794l-16.963-2.28-15.24-6.43-12.91-9.97-9.974-12.91-6.429-15.25L244 911.95zM1101.37 1309.6l2.18-16.22 6.16-14.58 9.55-12.36 12.36-9.55 14.57-6.16 16.22-2.18h761.13l16.22 2.18 14.58 6.16 12.35 9.55 9.55 12.36 6.16 14.58 2.18 16.22v592.33l-2.18 16.23-6.16 14.59-9.55 12.36-12.35 9.55-14.58 6.16-16.22 2.18h-761.13l-16.22-2.18-14.57-6.16-12.36-9.55-9.55-12.36-6.16-14.59-2.18-16.23z"/><path fill="#c0504d" fill-rule="evenodd" d="M3143.03 105h-967.2l-16.17 2.174-14.52 6.134-12.32 9.512-9.51 12.311-6.14 14.526-2.17 16.161V409.09l2.17 16.162 6.14 14.526 9.51 12.31 12.32 9.513 14.52 6.134 16.17 2.174h967.2l16.17-2.174 14.53-6.134 12.31-9.513 9.51-12.31 6.14-14.526 2.17-16.162V165.818l-2.17-16.161-6.14-14.526-9.51-12.311-12.31-9.512-14.53-6.134z"/><path fill="none" stroke="#fff" stroke-linejoin="round" stroke-miterlimit="10" stroke-width="13.75" d="m2115 165.818 2.17-16.161 6.14-14.526 9.51-12.311 12.32-9.512 14.52-6.134 16.17-2.174h967.2l16.17 2.174 14.53 6.134 12.31 9.512 9.51 12.311 6.14 14.526 2.17 16.161V409.09l-2.17 16.162-6.14 14.526-9.51 12.31-12.31 9.513-14.53 6.134-16.17 2.174h-967.2l-16.17-2.174-14.52-6.134-12.32-9.513-9.51-12.31-6.14-14.526-2.17-16.162z"/><text fill="#fff" font-family="Lantinghei SC,Lantinghei SC_MSFontService,sans-serif" font-size="110" font-weight="200" transform="translate(2385.51 254)">通用寄存器</text><text fill="#fff" font-family="Lantinghei SC,Lantinghei SC_MSFontService,sans-serif" font-size="110" font-weight="200" transform="translate(2220.51 386)">（多功能寄存器</text><text fill="#fff" font-family="Lantinghei SC,Lantinghei SC_MSFontService,sans-serif" font-size="110" font-weight="200" transform="translate(2990.51 386)">）</text><path fill="#c0504d" fill-rule="evenodd" d="M1146.3 1716H371.519l-12.655 2.55-10.338 6.97-6.97 10.33L339 1748.5v130l2.556 12.65 6.97 10.33 10.338 6.97 12.655 2.55H1146.3l12.65-2.55 10.34-6.97 6.97-10.33 2.56-12.65v-130l-2.56-12.65-6.97-10.33-10.34-6.97z"/><path fill="none" stroke="#fff" stroke-linejoin="round" stroke-miterlimit="10" stroke-width="13.75" d="m339 1748.5 2.556-12.65 6.97-10.33 10.338-6.97 12.655-2.55H1146.3l12.65 2.55 10.34 6.97 6.97 10.33 2.56 12.65v130l-2.56 12.65-6.97 10.33-10.34 6.97-12.65 2.55H371.519l-12.655-2.55-10.338-6.97-6.97-10.33L339 1878.5z"/><text fill="#fff" font-family="Lantinghei SC,Lantinghei SC_MSFontService,sans-serif" font-size="110" font-weight="200" transform="translate(538.744 1846)">段寄存器</text><path fill="#c0504d" fill-rule="evenodd" d="M3394.31 821h-981.62l-15.06 3.04-12.3 8.29-8.29 12.28-3.04 15.05v154.64l3.04 15.04 8.29 12.29 12.3 8.29 15.06 3.03h981.62l15.06-3.03 12.29-8.29 8.3-12.29 3.04-15.04V859.66l-3.04-15.05-8.3-12.28-12.29-8.29z"/><path fill="none" stroke="#fff" stroke-linejoin="round" stroke-miterlimit="10" stroke-width="13.75" d="m2374 859.66 3.04-15.05 8.29-12.28 12.3-8.29 15.06-3.04h981.62l15.06 3.04 12.29 8.29 8.3 12.28 3.04 15.05v154.64l-3.04 15.04-8.3 12.29-12.29 8.29-15.06 3.03h-981.62l-15.06-3.03-12.3-8.29-8.29-12.29-3.04-15.04z"/><text fill="#fff" font-family="Lantinghei SC,Lantinghei SC_MSFontService,sans-serif" font-size="110" font-weight="200" transform="translate(2518.97 969)">指令指针寄存器</text><path fill="none" stroke="#c0504d" stroke-dasharray="31.35 10.45" stroke-linecap="square" stroke-linejoin="round" stroke-miterlimit="10" stroke-width="10.45" d="M2374.86 976 2219 1053.82"/><path fill="#c0504d" fill-rule="evenodd" d="M858.3 1326H43.654l-13.488 2.72-11.016 7.42-7.427 11L9 1360.64v138.54l2.723 13.49 7.427 11.01 11.016 7.42 13.488 2.72H858.3l13.5-2.72 11.01-7.42 7.42-11.01 2.72-13.49v-138.54l-2.72-13.5-7.42-11-11.01-7.42z"/><path fill="none" stroke="#fff" stroke-linejoin="round" stroke-miterlimit="10" stroke-width="13.75" d="m9 1360.64 2.723-13.5 7.427-11 11.016-7.42 13.488-2.72H858.3l13.5 2.72 11.01 7.42 7.42 11 2.72 13.5v138.54l-2.72 13.49-7.42 11.01-11.01 7.42-13.5 2.72H43.654l-13.488-2.72-11.016-7.42-7.427-11.01L9 1499.18z"/><text fill="#fff" font-family="Lantinghei SC,Lantinghei SC_MSFontService,sans-serif" font-size="110" font-weight="200" transform="translate(175.881 1463)">标志寄存器</text><path fill="none" stroke="#c0504d" stroke-dasharray="31.35 10.45" stroke-linecap="square" stroke-linejoin="round" stroke-miterlimit="10" stroke-width="10.45" d="m758.736 1248.34-424.593 119.57M243.376 1009.65l1.698-8.43 4.633-6.88 6.877-4.64 8.429-1.7H2197.18l8.43 1.7 6.87 4.64 4.64 6.88 1.7 8.43v86.59l-1.7 8.44-4.64 6.88-6.87 4.63-8.43 1.7H265.013l-8.429-1.7-6.877-4.63-4.633-6.88-1.698-8.44z"/><path fill="none" stroke="#c0504d" stroke-dasharray="31.35 10.45" stroke-linecap="square" stroke-linejoin="round" stroke-miterlimit="10" stroke-width="10.45" d="m113 1138.44 1.7-8.43 4.637-6.88 6.877-4.64 8.423-1.7H2066.8l8.43 1.7 6.88 4.64 4.63 6.88 1.7 8.43v86.6l-1.7 8.43-4.63 6.88-6.88 4.64-8.43 1.69H134.637l-8.423-1.69-6.877-4.64-4.637-6.88-1.7-8.43z"/></svg>