<svg xmlns="http://www.w3.org/2000/svg" xml:space="preserve" width="3433" height="1517" overflow="hidden"><text font-family="Arial,Arial_MSFontService,sans-serif" font-size="110" font-weight="400" transform="translate(68.69 144)">15</text><text font-family="Arial,Arial_MSFontService,sans-serif" font-size="110" font-weight="400" transform="translate(234.49 144)">14</text><text font-family="Arial,Arial_MSFontService,sans-serif" font-size="110" font-weight="400" transform="translate(400.52 144)">13</text><text font-family="Arial,Arial_MSFontService,sans-serif" font-size="110" font-weight="400" transform="translate(566.32 144)">12</text><text font-family="Arial,Arial_MSFontService,sans-serif" font-size="110" font-weight="400" transform="translate(741.98 144)">11</text><text font-family="Arial,Arial_MSFontService,sans-serif" font-size="110" font-weight="400" transform="translate(905.61 144)">10</text><text font-family="Arial,Arial_MSFontService,sans-serif" font-size="110" font-weight="400" transform="translate(1103.38 144)">9</text><text font-family="Arial,Arial_MSFontService,sans-serif" font-size="110" font-weight="400" transform="translate(1270.67 144)">8</text><text font-family="Arial,Arial_MSFontService,sans-serif" font-size="110" font-weight="400" transform="translate(1438.19 144)">7</text><text font-family="Arial,Arial_MSFontService,sans-serif" font-size="110" font-weight="400" transform="translate(1605.48 144)">6</text><text font-family="Arial,Arial_MSFontService,sans-serif" font-size="110" font-weight="400" transform="translate(1773 144)">5</text><text font-family="Arial,Arial_MSFontService,sans-serif" font-size="110" font-weight="400" transform="translate(1940.52 144)">4</text><text font-family="Arial,Arial_MSFontService,sans-serif" font-size="110" font-weight="400" transform="translate(2107.81 144)">3</text><text font-family="Arial,Arial_MSFontService,sans-serif" font-size="110" font-weight="400" transform="translate(2275.11 144)">2</text><text font-family="Arial,Arial_MSFontService,sans-serif" font-size="110" font-weight="400" transform="translate(2442.63 144)">1</text><text font-family="Arial,Arial_MSFontService,sans-serif" font-size="110" font-weight="400" transform="translate(2609.92 144)">0</text><path fill="#7e7e7e" fill-rule="evenodd" d="M43.79 169.111h167.29v187.23H43.79Zm167.29 0h167.3v187.23h-167.3Zm167.3 0h167.29v187.23H378.38Zm167.29 0h167.29v187.23H545.67Z"/><path fill="#c0504d" fill-rule="evenodd" d="M712.96 169.111h167.29v187.23H712.96Z"/><path fill="#6f2f9f" fill-rule="evenodd" d="M880.25 169.111h167.29v187.23H880.25Zm167.29 0h167.29v187.23h-167.29Zm167.29 0h167.3v187.23h-167.3Z"/><path fill="#c0504d" fill-rule="evenodd" d="M1382.13 169.111h167.29v187.23h-167.29Zm167.29 0h167.29v187.23h-167.29Z"/><path fill="#4f81bc" fill-rule="evenodd" d="M1716.71 169.111H1884v187.23h-167.29Z"/><path fill="#c0504d" fill-rule="evenodd" d="M1884 169.111h167.29v187.23H1884Z"/><path fill="#4f81bc" fill-rule="evenodd" d="M2051.29 169.111h167.29v187.23h-167.29Z"/><path fill="#c0504d" fill-rule="evenodd" d="M2218.58 169.111h167.3v187.23h-167.3Z"/><path fill="#4f81bc" fill-rule="evenodd" d="M2385.88 169.111h167.29v187.23h-167.29Z"/><path fill="#c0504d" fill-rule="evenodd" d="M2553.17 169.111h167.29v187.23h-167.29Z"/><path fill="none" stroke="#000" stroke-linejoin="round" stroke-miterlimit="10" stroke-width="4.583" d="M211.08 166.82v191.812m167.3-191.812v191.812M545.67 166.82v191.812M712.96 166.82v191.812M880.25 166.82v191.812m167.29-191.812v191.812m167.29-191.812v191.812m167.3-191.812v191.812m167.29-191.812v191.812m167.29-191.812v191.812M1884 166.82v191.812m167.29-191.812v191.812m167.29-191.812v191.812m167.3-191.812v191.812m167.29-191.812v191.812M43.79 166.82v191.812M2720.46 166.82v191.812M41.5 169.111h2681.25M41.5 356.341h2681.25"/><text fill="#fff" font-family="Arial,Arial_MSFontService,sans-serif" font-size="110" font-weight="400" transform="translate(2563.94 301)">CF</text><text fill="#fff" font-family="Arial,Arial_MSFontService,sans-serif" font-size="110" font-weight="400" transform="translate(2231.88 301)">PF</text><text fill="#fff" font-family="Arial,Arial_MSFontService,sans-serif" font-size="110" font-weight="400" transform="translate(1897.52 301)">AF</text><text fill="#fff" font-family="Arial,Arial_MSFontService,sans-serif" font-size="110" font-weight="400" transform="translate(1566.15 301)">ZF</text><text fill="#fff" font-family="Arial,Arial_MSFontService,sans-serif" font-size="110" font-weight="400" transform="translate(1395.42 301)">SF</text><text fill="#fff" font-family="Arial,Arial_MSFontService,sans-serif" font-size="110" font-weight="400" transform="translate(1231.56 301)">TF</text><text fill="#fff" font-family="Arial,Arial_MSFontService,sans-serif" font-size="110" font-weight="400" transform="translate(1082.38 301)">IF</text><text fill="#fff" font-family="Arial,Arial_MSFontService,sans-serif" font-size="110" font-weight="400" transform="translate(890.79 301)">DF</text><text fill="#fff" font-family="Arial,Arial_MSFontService,sans-serif" font-size="110" font-weight="400" transform="translate(720.06 301)">OF</text><path fill="#c0504d" fill-rule="evenodd" d="M3293.95 51h-322.08l-17.24 2.322-15.5 6.551L2926 70.036l-10.14 13.152-6.54 15.523-2.32 17.274v259.939l2.32 17.273 6.54 15.523 10.14 13.152 13.13 10.163 15.5 6.555 17.24 2.32h322.08l17.24-2.32 15.49-6.555 13.13-10.163 10.15-13.152 6.54-15.523 2.32-17.273V115.985l-2.32-17.274-6.54-15.523-10.15-13.152-13.13-10.163-15.49-6.551z"/><path fill="none" stroke="#fff" stroke-linejoin="round" stroke-miterlimit="10" stroke-width="13.75" d="m2907 115.985 2.32-17.274 6.54-15.523L2926 70.036l13.13-10.163 15.5-6.551L2971.87 51h322.08l17.24 2.322 15.49 6.551 13.13 10.163 10.15 13.152 6.54 15.523 2.32 17.274v259.939l-2.32 17.273-6.54 15.523-10.15 13.152-13.13 10.163-15.49 6.555-17.24 2.32h-322.08l-17.24-2.32-15.5-6.555-13.13-10.163-10.14-13.152-6.54-15.523-2.32-17.273z"/><path fill="#6f2f9f" fill-rule="evenodd" d="M649.8 1079H327.02l-17.29 2.32-15.53 6.55-13.16 10.17-10.16 13.15-6.56 15.52-2.32 17.27v259.94l2.32 17.28 6.56 15.52 10.16 13.15 13.16 10.16 15.53 6.56 17.29 2.32H649.8l17.28-2.32 15.53-6.56 13.16-10.16 10.17-13.15 6.55-15.52 2.33-17.28v-259.94l-2.33-17.27-6.55-15.52-10.17-13.15-13.16-10.17-15.53-6.55z"/><path fill="none" stroke="#fff" stroke-linejoin="round" stroke-miterlimit="10" stroke-width="13.75" d="m262 1143.98 2.32-17.27 6.56-15.52 10.16-13.15 13.16-10.17 15.53-6.55 17.29-2.32H649.8l17.28 2.32 15.53 6.55 13.16 10.17 10.17 13.15 6.55 15.52 2.33 17.27v259.94l-2.33 17.28-6.55 15.52-10.17 13.15-13.16 10.16-15.53 6.56-17.28 2.32H327.02l-17.29-2.32-15.53-6.56-13.16-10.16-10.16-13.15-6.56-15.52-2.32-17.28z"/><text fill="#fff" font-family="Lantinghei SC,Lantinghei SC_MSFontService,sans-serif" font-size="128" font-weight="200" transform="translate(3007.97 205)">状态</text><text fill="#fff" font-family="Lantinghei SC,Lantinghei SC_MSFontService,sans-serif" font-size="128" font-weight="200" transform="translate(3007.97 359)">标志</text><text font-family="Lantinghei SC,Lantinghei SC_MSFontService,sans-serif" font-size="110" font-weight="200" transform="translate(2871.62 556)">进位标志</text><text font-family="Lantinghei SC,Lantinghei SC_MSFontService,sans-serif" font-size="110" font-weight="200" transform="translate(2871.73 729)">奇偶标志</text><text font-family="Lantinghei SC,Lantinghei SC_MSFontService,sans-serif" font-size="110" font-weight="200" transform="translate(2816.5 902)">半进位标志</text><text font-family="Lantinghei SC,Lantinghei SC_MSFontService,sans-serif" font-size="110" font-weight="200" transform="translate(2926.73 1075)">零标志</text><text font-family="Lantinghei SC,Lantinghei SC_MSFontService,sans-serif" font-size="110" font-weight="200" transform="translate(2871.73 1248)">符号标志</text><text font-family="Lantinghei SC,Lantinghei SC_MSFontService,sans-serif" font-size="110" font-weight="200" transform="translate(2871.73 1420)">溢出标志</text><text font-family="Lantinghei SC,Lantinghei SC_MSFontService,sans-serif" font-size="110" font-weight="200" transform="translate(225.66 609)">方向标志</text><text font-family="Lantinghei SC,Lantinghei SC_MSFontService,sans-serif" font-size="110" font-weight="200" transform="translate(225.66 782)">中断标志</text><text font-family="Lantinghei SC,Lantinghei SC_MSFontService,sans-serif" font-size="110" font-weight="200" transform="translate(225.66 955)">跟踪标志</text><text fill="#fff" font-family="Lantinghei SC,Lantinghei SC_MSFontService,sans-serif" font-size="128" font-weight="200" transform="translate(359.03 1232)">控制</text><text fill="#fff" font-family="Lantinghei SC,Lantinghei SC_MSFontService,sans-serif" font-size="128" font-weight="200" transform="translate(359.03 1386)">标志</text><path fill-rule="evenodd" d="m2790.17 884.48-8.02-4.68-26.97-15.72-2.24-1.28-2.85.73-1.33 2.25-1.28 2.24.73 2.84 2.25 1.29 13.12 7.65h-786.3V375.109l-2.11-2.109h-3.94v7.98l-3.3-3.304V887.09l2.11 2.06h793.54l8.02-4.67-23.39 13.66-.73 2.84 1.28 2.25 1.33 2.2 2.85.78 29.21-17.06z"/><path fill-rule="evenodd" d="m2842.02 1248.35-8.03-4.67-29.2-17.01-2.89.73-1.28 2.25-1.28 2.2.73 2.89 2.25 1.28 13.12 7.66H1476.5V382.351h.64V373h-7.93l-2.07 2.109v875.861l2.07 2.06h1346.23l-13.12 7.65-2.25 1.29-.73 2.89 1.28 2.24 1.28 2.2 2.89.78 2.2-1.33 27-15.72zm0-532.79-8.02-4.68-29.21-17.05-2.84.78-1.33 2.2-1.28 2.25.73 2.89 2.25 1.28 13.12 7.65h-501.16V375.109l-2.11-2.109h-3.11v8.801l-4.13-4.125V718.13l2.06 2.11h508.45l-13.12 7.65-2.25 1.29-.73 2.89 1.28 2.19 1.33 2.25 2.84.74 2.25-1.29 26.96-15.72z"/><path fill-rule="evenodd" d="m2842.12 1417.32-8.02-4.68-29.21-17.05-2.85.78-1.33 2.2-1.28 2.25.73 2.84 23.39 13.66-8.02-4.68H810.52V954.15h498.39l2.11-2.1V377.676l-1.1 1.1V373h-6.19l-2.06 2.109V944.8H810.52V772.22h333.28l2.11-2.11V377.676l-1.14 1.146V373h-6.15l-2.06 2.109V762.87H810.52V590.28h151.49l2.11-2.11V377.676l-1.33 1.329V373h-5.92l-2.11 2.109V580.93H810.52V375.109L808.41 373h-3.08v8.847l-4.17-4.171V580.93h-60.63l13.13-7.66 2.25-1.28.73-2.89-1.28-2.2-1.29-2.24-2.89-.78-2.2 1.33L714 585.6l37.18 21.69 2.89-.74 1.29-2.24 1.28-2.2-.73-2.89-2.25-1.29-13.13-7.65h60.63v172.59h-60.63l13.13-7.66 2.25-1.28.73-2.89-1.28-2.25-1.29-2.2-2.89-.77-2.2 1.32-34.98 20.4 37.18 21.68 2.89-.73 1.29-2.25 1.28-2.2-.73-2.88-2.25-1.29-13.13-7.65h60.63V944.8h-60.63l13.13-7.65 2.25-1.29.73-2.88-1.28-2.25-1.29-2.2-2.89-.78-2.2 1.33-34.98 20.4 37.18 21.68 2.89-.73 1.29-2.25 1.28-2.2-.73-2.89-2.25-1.28-13.13-7.66h60.63v465.73l2.07 2.11h2012.3l-13.12 7.66-2.25 1.28-.73 2.84 1.28 2.25 1.33 2.25 2.85.73 2.24-1.28 26.97-15.73z"/><path fill-rule="evenodd" d="m2842.3 1079.43-8.02-4.67-29.21-17.05-2.89.78-1.28 2.2-1.29 2.24.74 2.84 23.38 13.66-8.01-4.67H1641.88V375.109l-2.11-2.109h-6.37v5.547l-.87-.871V1082l2.06 2.11h1181.13l-13.13 7.66-2.24 1.28-.74 2.89 1.29 2.2 1.28 2.24 2.89.74 2.25-1.29 26.96-15.72zm12.56-545.81-8.02-4.67-26.96-15.73-2.2-1.33-2.89.78-1.28 2.25-1.33 2.2.78 2.89 2.24 1.28 13.12 7.66h-180.06V377.676l-1.38 1.379V373h-5.87l-2.1 2.109V536.19l2.1 2.11h187.31l-13.12 7.65-2.24 1.29-.78 2.88 1.33 2.2 1.28 2.25 2.89.73 29.16-17z"/></svg>