<svg xmlns="http://www.w3.org/2000/svg" xml:space="preserve" width="1013" height="1856" overflow="hidden"><text fill="#375f92" font-family="Arial,Arial_MSFontService,sans-serif" font-size="73" font-weight="700" transform="translate(868.035 211)">AX</text><text fill="#375f92" font-family="Arial,Arial_MSFontService,sans-serif" font-size="73" font-weight="700" transform="translate(868.035 333)">BX</text><text fill="#375f92" font-family="Arial,Arial_MSFontService,sans-serif" font-size="73" font-weight="700" transform="translate(868.035 454)">CX</text><text fill="#375f92" font-family="Arial,Arial_MSFontService,sans-serif" font-size="73" font-weight="700" transform="translate(868.035 575)">DX</text><path fill="#4f81bc" fill-rule="evenodd" d="M125.581 136.411h353.375v121H125.581ZM478.956 136.411H832.33v121H478.956ZM125.581 257.411h353.375v120.771H125.581ZM478.956 257.411H832.33v120.771H478.956ZM125.581 378.182h353.375v121H125.581ZM478.956 378.182H832.33v121H478.956ZM125.581 499.182h353.375v120.771H125.581ZM478.956 499.182H832.33v120.771H478.956ZM125.581 619.953H832.33V740.72H125.581ZM125.581 740.72H832.33v121H125.581ZM125.581 861.72H832.33v120.77H125.581ZM125.581 982.49H832.33v121H125.581ZM125.581 1103.49H832.33v121H125.581ZM125.581 1224.49H832.33v121H125.581ZM125.581 1345.49H832.33v120.78H125.581ZM125.581 1466.27H832.33v121H125.581ZM125.581 1587.27H832.33v120.77H125.581ZM125.581 1708.04H832.33v121H125.581Z"/><path fill="none" stroke="#000" stroke-linejoin="round" stroke-miterlimit="10" stroke-width="4.583" d="M478.956 134.12v488.125M123.289 257.411h711.333M123.289 378.182h711.333M123.289 499.182h711.333M123.289 619.953h711.333M123.289 740.72h711.333M123.289 861.72h711.333M123.289 982.49h711.333M123.289 1103.49h711.333M123.289 1224.49h711.333M123.289 1345.49h711.333M125.581 1466.27h709.041M125.581 1587.27h709.041M125.581 1708.04h709.041M125.581 134.12v1213.67M832.33 134.12v1697.21M123.289 136.411h711.333M125.581 1829.04h709.041"/><text fill="#fff" font-family="Arial,Arial_MSFontService,sans-serif" font-size="73" font-weight="700" transform="translate(608.091 222)">AL</text><text fill="#fff" font-family="Arial,Arial_MSFontService,sans-serif" font-size="73" font-weight="700" transform="translate(250.706 222)">AH</text><text fill="#fff" font-family="Arial,Arial_MSFontService,sans-serif" font-size="73" font-weight="700" transform="translate(608.32 343)">BL</text><text fill="#fff" font-family="Arial,Arial_MSFontService,sans-serif" font-size="73" font-weight="700" transform="translate(251.164 343)">BH</text><text fill="#fff" font-family="Arial,Arial_MSFontService,sans-serif" font-size="73" font-weight="700" transform="translate(608.32 464)">CL</text><text fill="#fff" font-family="Arial,Arial_MSFontService,sans-serif" font-size="73" font-weight="700" transform="translate(251.164 464)">CH</text><text fill="#fff" font-family="Arial,Arial_MSFontService,sans-serif" font-size="73" font-weight="700" transform="translate(608.32 585)">DL</text><text fill="#fff" font-family="Arial,Arial_MSFontService,sans-serif" font-size="73" font-weight="700" transform="translate(251.164 585)">DH</text><text fill="#fff" font-family="Arial,Arial_MSFontService,sans-serif" font-size="73" font-weight="700" transform="translate(431.632 706)">SP</text><text fill="#fff" font-family="Arial,Arial_MSFontService,sans-serif" font-size="73" font-weight="700" transform="translate(429.857 827)">BP</text><text fill="#fff" font-family="Arial,Arial_MSFontService,sans-serif" font-size="73" font-weight="700" transform="translate(445.784 948)">SI</text><text fill="#fff" font-family="Arial,Arial_MSFontService,sans-serif" font-size="73" font-weight="700" transform="translate(444.007 1069)">DI</text><text fill="#fff" font-family="Arial,Arial_MSFontService,sans-serif" font-size="73" font-weight="700" transform="translate(445.669 1189)">IP</text><text fill="#fff" font-family="Arial,Arial_MSFontService,sans-serif" font-size="73" font-weight="700" transform="translate(356.352 1310)">FLAGS</text><text fill="#fff" font-family="Arial,Arial_MSFontService,sans-serif" font-size="73" font-weight="700" transform="translate(429.857 1432)">CS</text><text fill="#fff" font-family="Arial,Arial_MSFontService,sans-serif" font-size="73" font-weight="700" transform="translate(429.857 1552)">DS</text><text fill="#fff" font-family="Arial,Arial_MSFontService,sans-serif" font-size="73" font-weight="700" transform="translate(431.632 1673)">ES</text><text fill="#fff" font-family="Arial,Arial_MSFontService,sans-serif" font-size="73" font-weight="700" transform="translate(431.632 1794)">SS</text><text font-family="Arial,Arial_MSFontService,sans-serif" font-size="83" font-weight="400" transform="translate(51.422 107)">16</text><text font-family="Lantinghei SC,Lantinghei SC_MSFontService,sans-serif" font-size="83" font-weight="200" transform="translate(142.172 107)">位</text><text font-family="Arial,Arial_MSFontService,sans-serif" font-size="83" font-weight="400" transform="translate(405.073 107)">8</text><text font-family="Lantinghei SC,Lantinghei SC_MSFontService,sans-serif" font-size="83" font-weight="200" transform="translate(450.448 107)">位</text></svg>