<svg xmlns="http://www.w3.org/2000/svg" xml:space="preserve" width="2741" height="2452" overflow="hidden"><path fill="#4472c4" stroke="#2f528f" stroke-miterlimit="8" stroke-width="4.583" d="M1607.5 1754.5h675v460h-675z"/><path fill="none" stroke="#4472c4" stroke-miterlimit="8" stroke-width="2.292" d="M1141 5v2442.8"/><text font-family="DengXian,DengXian_MSFontService,sans-serif" font-size="83" font-weight="400" transform="translate(337.023 558)">演变</text><text font-family="DengXian,DengXian_MSFontService,sans-serif" font-size="83" font-weight="400" transform="translate(502.023 558)">1</text><path fill="#4472c4" stroke="#2f528f" stroke-miterlimit="8" stroke-width="4.583" d="M66.5 750.5h330v217h-330z"/><text fill="#fff" font-family="DengXian,DengXian_MSFontService,sans-serif" font-size="83" font-weight="400" transform="translate(155.716 886)">CPU</text><path fill-rule="evenodd" stroke="#000" stroke-miterlimit="8" stroke-width="4.583" d="M23.5 728c0-40.041 37.832-72.5 84.5-72.5s84.5 32.459 84.5 72.5-37.832 72.5-84.5 72.5-84.5-32.459-84.5-72.5Z"/><text fill="#fff" font-family="DengXian,DengXian_MSFontService,sans-serif" font-size="41" font-weight="400" transform="translate(81.309 742)">CA</text><path fill-rule="evenodd" stroke="#000" stroke-miterlimit="8" stroke-width="4.583" d="M256.5 739c0-40.041 37.832-72.5 84.5-72.5s84.5 32.459 84.5 72.5-37.832 72.5-84.5 72.5-84.5-32.459-84.5-72.5Z"/><text fill="#fff" font-family="DengXian,DengXian_MSFontService,sans-serif" font-size="41" font-weight="400" transform="translate(315.176 752)">CC</text><path fill="#4472c4" stroke="#2f528f" stroke-miterlimit="8" stroke-width="4.583" d="M66.5 1169.5h330v151h-330z"/><text fill="#fff" font-family="DengXian,DengXian_MSFontService,sans-serif" font-size="83" font-weight="400" transform="translate(148.841 1272)">北桥</text><path fill="#4472c4" stroke="#2f528f" stroke-miterlimit="8" stroke-width="4.583" d="M737.5 750.5h330v674h-330z"/><text fill="#fff" font-family="DengXian,DengXian_MSFontService,sans-serif" font-size="83" font-weight="400" transform="translate(819.52 1114)">主存</text><path fill="#4472c4" stroke="#2f528f" stroke-miterlimit="8" stroke-width="4.583" d="M742.5 1632.5h330v217h-330z"/><text fill="#fff" font-family="DengXian,DengXian_MSFontService,sans-serif" font-size="83" font-weight="400" transform="translate(824.87 1768)">南桥</text><path fill="#4472c4" stroke="#2f528f" stroke-miterlimit="8" stroke-width="4.583" d="M66.5 1632.5h330v217h-330z"/><text fill="#fff" font-family="DengXian,DengXian_MSFontService,sans-serif" font-size="83" font-weight="400" transform="translate(148.841 1768)">显卡</text><path fill-rule="evenodd" stroke="#000" stroke-miterlimit="8" stroke-width="4.583" d="M24.5 1849.5c0-39.76 37.832-72 84.5-72s84.5 32.24 84.5 72-37.832 72-84.5 72-84.5-32.24-84.5-72Z"/><text fill="#fff" font-family="DengXian,DengXian_MSFontService,sans-serif" font-size="41" font-weight="400" transform="translate(82.554 1863)">CA</text><path fill-rule="evenodd" stroke="#000" stroke-miterlimit="8" stroke-width="4.583" d="M288.5 1849.5c0-39.76 37.832-72 84.5-72s84.5 32.24 84.5 72-37.832 72-84.5 72-84.5-32.24-84.5-72Z"/><text fill="#fff" font-family="DengXian,DengXian_MSFontService,sans-serif" font-size="41" font-weight="400" transform="translate(347.132 1863)">CC</text><path fill-rule="evenodd" stroke="#000" stroke-miterlimit="8" stroke-width="4.583" d="M5.5 1632c0-40.04 37.832-72.5 84.5-72.5s84.5 32.46 84.5 72.5-37.832 72.5-84.5 72.5-84.5-32.46-84.5-72.5Z"/><text fill="#fff" font-family="DengXian,DengXian_MSFontService,sans-serif" font-size="41" font-weight="400" transform="translate(68.858 1646)">IO</text><path fill="#70ad47" fill-rule="evenodd" stroke="#507e32" stroke-miterlimit="8" stroke-width="4.583" d="m431.5 1279.5 52-52v26h158v-26l52 52-52 52v-26h-158v26ZM399.992 1419.86l73.653-7.04-16.656 20.18 213.9 176.62 16.651-20.17 7.03 73.65-73.647 7.03 16.655-20.17-213.9-176.62-16.655 20.17ZM201.5 1017l43.5-43.5 43.5 43.5h-21.75v112h21.75l-43.5 43.5-43.5-43.5h21.75v-112Z"/><path fill="#4472c4" stroke="#2f528f" stroke-miterlimit="8" stroke-width="4.583" d="M562.5 1911.5h189v117h-189z"/><text fill="#fff" font-family="DengXian,DengXian_MSFontService,sans-serif" font-size="55" font-weight="400" transform="translate(599.101 1987)">BIOS</text><path fill="none" stroke="#4472c4" stroke-miterlimit="8" stroke-width="2.292" d="m907.58 1849-156.581 120.275"/><path fill="#4472c4" stroke="#2f528f" stroke-miterlimit="8" stroke-width="4.583" d="M562.5 2056.5h189v118h-189z"/><text fill="#fff" font-family="DengXian,DengXian_MSFontService,sans-serif" font-size="55" font-weight="400" transform="translate(601.392 2133)">硬盘</text><path fill="#4472c4" stroke="#2f528f" stroke-miterlimit="8" stroke-width="4.583" d="M562.5 2214.5h189v117h-189z"/><text fill="#fff" font-family="DengXian,DengXian_MSFontService,sans-serif" font-size="55" font-weight="400" transform="translate(601.392 2290)">鼠标</text><path fill="none" stroke="#4472c4" stroke-miterlimit="8" stroke-width="2.292" d="m907.58 1849-156.582 265.869M907.58 1849l-156.582 423.361"/><path fill="#ed7d31" stroke="#ae5a21" stroke-miterlimit="8" stroke-width="4.583" d="M67.5 1324.5h329v92h-329z"/><text fill="#fff" font-family="DengXian,DengXian_MSFontService,sans-serif" font-size="41" font-weight="400" transform="translate(149.361 1384)">集成显卡</text><path fill="#70ad47" fill-rule="evenodd" stroke="#507e32" stroke-miterlimit="8" stroke-width="4.583" d="m203.5 1460.5 44-44 44 44h-22v128h22l-44 44-44-44h22v-128Z"/><path fill="#4472c4" stroke="#2f528f" stroke-miterlimit="8" stroke-width="4.583" d="M1607.5 687.5h677v576h-677z"/><text font-family="DengXian,DengXian_MSFontService,sans-serif" font-size="83" font-weight="400" transform="translate(1888.2 560)">演变</text><text font-family="DengXian,DengXian_MSFontService,sans-serif" font-size="83" font-weight="400" transform="translate(2053.2 560)">2</text><path fill="#4472c4" stroke="#2f528f" stroke-miterlimit="8" stroke-width="4.583" d="M1609.5 690.5h675v184h-675z"/><text fill="#fff" font-family="DengXian,DengXian_MSFontService,sans-serif" font-size="83" font-weight="400" transform="translate(1870.71 809)">CPU</text><path fill="#4472c4" stroke="#2f528f" stroke-miterlimit="8" stroke-width="4.583" d="M2472.5 908.5h265v156h-265z"/><text fill="#fff" font-family="DengXian,DengXian_MSFontService,sans-serif" font-size="83" font-weight="400" transform="translate(2521.8 1013)">主存</text><path fill="#4472c4" stroke="#2f528f" stroke-miterlimit="8" stroke-width="4.583" d="M1610.5 1762.5h672v149h-672z"/><text fill="#fff" font-family="DengXian,DengXian_MSFontService,sans-serif" font-size="83" font-weight="400" transform="translate(1868.97 1864)">PCH</text><path fill="#4472c4" stroke="#2f528f" stroke-miterlimit="8" stroke-width="4.583" d="M2548.5 1973.5h189v118h-189z"/><text fill="#fff" font-family="DengXian,DengXian_MSFontService,sans-serif" font-size="55" font-weight="400" transform="translate(2587.41 2050)">硬盘</text><path fill="#4472c4" stroke="#2f528f" stroke-miterlimit="8" stroke-width="4.583" d="M2548.5 2131.5h189v117h-189z"/><text fill="#fff" font-family="DengXian,DengXian_MSFontService,sans-serif" font-size="55" font-weight="400" transform="translate(2587.41 2208)">鼠标</text><path fill="#ed7d31" stroke="#ae5a21" stroke-miterlimit="8" stroke-width="4.583" d="M1607.5 1115.5h675v148h-675z"/><text fill="#fff" font-family="DengXian,DengXian_MSFontService,sans-serif" font-size="64" font-weight="400" transform="translate(1671.4 1210)">集成显卡</text><text fill="#fff" font-family="DengXian,DengXian_MSFontService,sans-serif" font-size="64" font-weight="400" transform="translate(1928.07 1210)">-</text><text fill="#fff" font-family="DengXian,DengXian_MSFontService,sans-serif" font-size="64" font-weight="400" transform="translate(1960.15 1210)">图形部分</text><path fill="#ed7d31" stroke="#ae5a21" stroke-miterlimit="8" stroke-width="4.583" d="M1622.5 897.5h283v177h-283z"/><text fill="#fff" font-family="DengXian,DengXian_MSFontService,sans-serif" font-size="55" font-weight="400" transform="translate(1710.65 971)">PCIe</text><text fill="#fff" font-family="DengXian,DengXian_MSFontService,sans-serif" font-size="55" font-weight="400" transform="translate(1681.43 1037)">控制器</text><path fill="#ed7d31" stroke="#ae5a21" stroke-miterlimit="8" stroke-width="4.583" d="M1978.5 897.5h266v184h-266z"/><text fill="#fff" font-family="DengXian,DengXian_MSFontService,sans-serif" font-size="55" font-weight="400" transform="translate(2028.13 974)">主存控</text><text fill="#fff" font-family="DengXian,DengXian_MSFontService,sans-serif" font-size="55" font-weight="400" transform="translate(2055.63 1040)">制器</text><path fill="#4472c4" stroke="#2f528f" stroke-miterlimit="8" stroke-width="4.583" d="M1264.5 873.5h265v225h-265z"/><text fill="#fff" font-family="DengXian,DengXian_MSFontService,sans-serif" font-size="83" font-weight="400" transform="translate(1316.41 964)">PCIe</text><text fill="#fff" font-family="DengXian,DengXian_MSFontService,sans-serif" font-size="83" font-weight="400" transform="translate(1313.55 1063)">显卡</text><path fill="#4472c4" stroke="#2f528f" stroke-miterlimit="8" stroke-width="4.583" d="M1231.5 1228.5h327v155h-327z"/><text fill="#fff" font-family="DengXian,DengXian_MSFontService,sans-serif" font-size="83" font-weight="400" transform="translate(1270.8 1333)">显示器</text><path fill="none" stroke="#262626" stroke-miterlimit="8" stroke-width="13.75" d="m2244 989.39 228.207-3.386M1529 986h93.94M1396.5 1098l-1.501 129.138"/><path fill="none" stroke="#262626" stroke-dasharray="13.75 13.75" stroke-miterlimit="8" stroke-width="13.75" d="m1395 1383 212 609.73"/><path fill="#ed7d31" stroke="#ae5a21" stroke-miterlimit="8" stroke-width="4.583" d="M1607.5 1919.5h671v148h-671z"/><text fill="#fff" font-family="DengXian,DengXian_MSFontService,sans-serif" font-size="64" font-weight="400" transform="translate(1669.76 2015)">集成显卡</text><text fill="#fff" font-family="DengXian,DengXian_MSFontService,sans-serif" font-size="64" font-weight="400" transform="translate(1926.43 2015)">-</text><text fill="#fff" font-family="DengXian,DengXian_MSFontService,sans-serif" font-size="64" font-weight="400" transform="translate(1958.51 2015)">图形部分</text><path fill="#ed7d31" stroke="#ae5a21" stroke-miterlimit="8" stroke-width="4.583" d="M1610.5 2093.5h295v121h-295z"/><text fill="#fff" font-family="DengXian,DengXian_MSFontService,sans-serif" font-size="64" font-weight="400" transform="translate(1735.24 2175)">…</text><path fill="#ed7d31" stroke="#ae5a21" stroke-miterlimit="8" stroke-width="4.583" d="M1986.5 2092.5h296v121h-296z"/><text fill="#fff" font-family="DengXian,DengXian_MSFontService,sans-serif" font-size="64" font-weight="400" transform="translate(2089.5 2174)">I/O</text><path fill="#4472c4" stroke="#2f528f" stroke-miterlimit="8" stroke-width="4.583" d="M2318.5 2274.5h188v117h-188z"/><text fill="#fff" font-family="DengXian,DengXian_MSFontService,sans-serif" font-size="55" font-weight="400" transform="translate(2357.01 2351)">网络</text><path fill="#4472c4" stroke="#2f528f" stroke-miterlimit="8" stroke-width="4.583" d="M1978.5 2320.5h227v117h-227z"/><text fill="#fff" font-family="DengXian,DengXian_MSFontService,sans-serif" font-size="55" font-weight="400" transform="translate(2024.61 2396)">PCI</text><text fill="#fff" font-family="DengXian,DengXian_MSFontService,sans-serif" font-size="55" font-weight="400" transform="translate(2103.1 2396)">卡</text><path fill="none" stroke="#262626" stroke-miterlimit="8" stroke-width="13.75" d="m2282 2152.69 266.348-120.687M2282 2153l266.35 36.81M2282 2153l130.34 121.34M2133.54 2213l-42.545 106.712"/></svg>