<svg xmlns="http://www.w3.org/2000/svg" xml:space="preserve" width="908" height="385" overflow="hidden"><path fill="none" stroke="#000" stroke-linejoin="round" stroke-miterlimit="10" stroke-width="20.473" d="M159 117h304.417M159 267.98h304.417M767.822 192.49H463.417"/><path fill="#fff" fill-rule="evenodd" d="M384.453 41H266l10.971 15.28 9.753 15.5 8.534 15.7 7.314 15.87 6.095 16.01 4.877 16.13 3.657 16.21 2.438 16.29 1.219 16.32v16.34l-1.219 16.33-2.438 16.28-3.657 16.22-4.877 16.13-6.095 16.01-7.314 15.87-8.534 15.69-9.752 15.51L266 343.97h118.453l20.855-3.76 20.381-4.4 19.877-5.02 19.338-5.63 18.768-6.22 18.164-6.8 17.528-7.35 16.86-7.88 16.158-8.41 15.424-8.9 14.657-9.39 13.857-9.85 13.026-10.3 12.16-10.72 11.263-11.14 10.332-11.53 9.37-11.91 8.373-12.26-8.248-12.32-9.264-11.95-10.247-11.58-11.196-11.18-12.111-10.77-12.993-10.33-13.84-9.88-14.653-9.4-15.433-8.92-16.179-8.41-16.891-7.88-17.57-7.34-18.214-6.78-18.825-6.19-19.401-5.59-19.944-4.97-20.453-4.33z"/><path fill="none" stroke="#000" stroke-linejoin="round" stroke-miterlimit="10" stroke-width="20.454" d="m660.844 192.5-8.373 12.26-9.37 11.91-10.332 11.53-11.263 11.14-12.16 10.72-13.026 10.3-13.857 9.85-14.657 9.39-15.424 8.9-16.158 8.41-16.86 7.88-17.528 7.35-18.164 6.8-18.768 6.22-19.338 5.63-19.877 5.02-20.381 4.4-20.855 3.76H266l10.972-15.28 9.752-15.51 8.534-15.69 7.314-15.87 6.095-16.01 4.877-16.13 3.657-16.22 2.438-16.28 1.219-16.33v-16.34l-1.219-16.32-2.438-16.29-3.657-16.21-4.877-16.13-6.095-16.01-7.314-15.87-8.534-15.7-9.753-15.5L266 41h118.453l20.929 3.68 20.453 4.33 19.944 4.97 19.401 5.59 18.825 6.19 18.214 6.78 17.57 7.34 16.891 7.88 16.179 8.41 15.433 8.92 14.653 9.4 13.84 9.88 12.993 10.33 12.111 10.77 11.196 11.18 10.247 11.58 9.264 11.95z"/><text font-family="Arial,Arial_MSFontService,sans-serif" font-size="108" font-weight="700" transform="translate(69.419 140)">A </text><text font-family="Arial,Arial_MSFontService,sans-serif" font-size="108" font-weight="700" transform="translate(69.419 292)">B</text><text font-family="Arial,Arial_MSFontService,sans-serif" font-size="108" font-weight="700" transform="translate(769.676 216)">Y</text></svg>