<svg xmlns="http://www.w3.org/2000/svg" xml:space="preserve" width="903" height="381" overflow="hidden"><path fill="none" stroke="#000" stroke-linejoin="round" stroke-miterlimit="10" stroke-width="20.473" d="M158 116h303.918M158 266.983h303.918M765.822 191.489H461.918"/><path fill="#fff" fill-rule="evenodd" d="M382.753 40H264l10.999 15.229 9.777 15.451 8.555 15.645 7.333 15.815 6.111 15.958 4.889 16.075 3.666 16.167 2.445 16.231 1.221 16.27v16.283l-1.198 15.964-.023.306-2.445 16.232-3.666 16.166-4.889 16.075-6.111 15.958-7.333 15.815-8.555 15.646-9.777 15.45L264 341.966h118.753l20.907-3.741 20.433-4.384 19.927-5.007 19.387-5.614 18.815-6.202 18.211-6.772 17.573-7.325 16.902-7.859 16.199-8.376 15.463-8.875 14.694-9.356 13.892-9.819 13.059-10.264 12.191-10.691 11.291-11.101 10.358-11.492 9.394-11.866L659.844 191l-8.269-12.275-9.288-11.918-10.273-11.539-11.224-11.145-12.142-10.729-13.025-10.297-13.875-9.847-14.691-9.376-15.472-8.888-16.22-8.382-16.934-7.857-17.614-7.313-18.26-6.752-18.873-6.171-19.45-5.572-19.995-4.955-20.505-4.319z"/><path fill="none" stroke="#000" stroke-linejoin="round" stroke-miterlimit="10" stroke-width="20.454" d="m659.844 191-8.395 12.222-9.393 11.866-10.359 11.492-11.291 11.101-12.191 10.691-13.059 10.264-13.892 9.819-14.694 9.356-15.463 8.875-16.199 8.376-16.902 7.859-17.573 7.325-18.211 6.772-18.815 6.202-19.387 5.614-19.927 5.007-20.433 4.384-20.907 3.741H264l10.999-15.23 9.777-15.45 8.555-15.646 7.333-15.815 6.111-15.958 4.889-16.075 3.666-16.166 2.445-16.232 1.221-16.27v-16.283l-1.221-16.27-2.445-16.231-3.666-16.167-4.889-16.075-6.111-15.958-7.333-15.815-8.555-15.645-9.777-15.451L264 40h118.753l20.981 3.665 20.505 4.319 19.995 4.955 19.45 5.572 18.873 6.171 18.26 6.752 17.614 7.313 16.934 7.857 16.22 8.382 15.472 8.888 14.691 9.376 13.875 9.847 13.025 10.297 12.142 10.729 11.224 11.145 10.273 11.539 9.288 11.918z"/><path fill="#fff" fill-rule="evenodd" d="M507.59 40H264v301.966h243.595l17.757-1.016 17.156-2.971 16.438-4.815 15.609-6.544 14.663-8.161 13.606-9.663 12.431-11.052 11.145-12.329 9.743-13.492 8.228-14.542 6.598-15.478 4.854-16.302 2.997-17.011 1.024-17.608-1.024-17.607-2.997-17.012-4.854-16.301-6.598-15.478-8.228-14.542-9.744-13.491-11.144-12.329-12.432-11.053-13.606-9.663-14.664-8.16-15.609-6.544-16.439-4.815-17.156-2.971z"/><path fill="none" stroke="#000" stroke-linejoin="round" stroke-miterlimit="10" stroke-width="20.454" d="M507.59 341.966H264V40h243.59l17.759 1.016 17.156 2.971 16.439 4.815 15.609 6.544 14.664 8.16 13.606 9.663 12.432 11.053 11.144 12.329 9.744 13.491 8.228 14.542 6.598 15.478 4.854 16.301 2.997 17.012 1.024 17.607-1.024 17.608-2.997 17.011-4.854 16.302-6.598 15.478-8.228 14.542-9.743 13.492-11.145 12.329-12.431 11.052-13.606 9.663-14.663 8.161-15.609 6.544-16.438 4.815-17.156 2.971-17.757 1.016Z"/><text font-family="Arial,Arial_MSFontService,sans-serif" font-size="108" font-weight="700" transform="translate(67.83 138)">A </text><text font-family="Arial,Arial_MSFontService,sans-serif" font-size="108" font-weight="700" transform="translate(67.83 290)">B</text><text font-family="Arial,Arial_MSFontService,sans-serif" font-size="108" font-weight="700" transform="translate(768.088 218)">Y</text></svg>