<svg xmlns="http://www.w3.org/2000/svg" xml:space="preserve" width="917" height="385" overflow="hidden"><path fill="none" stroke="#000" stroke-linejoin="round" stroke-miterlimit="10" stroke-width="20.47" d="M155 121h304.425M155 271.98h304.425M763.842 196.49H459.425"/><path fill="#fff" fill-rule="evenodd" d="M380.476 46H262l10.973 15.23 9.754 15.45 8.535 15.65 7.316 15.81 6.096 15.96 4.877 16.07 3.658 16.17 2.438 16.23 1.22 16.27v16.28l-1.196 15.97-2.462 16.54-3.658 16.16-4.877 16.08-6.096 15.96-7.316 15.81-8.535 15.65-9.754 15.45L262 347.97h118.476l20.859-3.75 20.386-4.38 19.881-5.01 19.344-5.61 18.772-6.2 18.169-6.77 17.534-7.33 16.863-7.86 16.163-8.37 15.428-8.88 14.661-9.35 13.862-9.82 13.029-10.27 12.163-10.69 11.266-11.1 10.335-11.49 9.372-11.87 8.376-12.22-8.257-12.28-9.271-11.91-10.254-11.54-11.201-11.15-12.116-10.73-12.996-10.29-13.843-9.85-14.657-9.38-15.435-8.88-16.181-8.39-16.894-7.85-17.571-7.32-18.217-6.75-18.827-6.17-19.404-5.57-19.948-4.96-20.458-4.32z"/><path fill="none" stroke="#000" stroke-linejoin="round" stroke-miterlimit="10" stroke-width="20.47" d="m656.818 197-8.383 12.22-9.38 11.87-10.345 11.49-11.275 11.1-12.175 10.69-13.04 10.27-13.874 9.82-14.674 9.35-15.442 8.88-16.177 8.37-16.879 7.86-17.549 7.33-18.185 6.77-18.789 6.2-19.361 5.61-19.898 5.01-20.405 4.38-20.878 3.75H261.528l10.983-15.23 9.764-15.45 8.542-15.65 7.322-15.81 6.102-15.96 4.881-16.08 3.661-16.16 2.441-16.24 1.22-16.27v-16.28l-1.22-16.27-2.441-16.23-3.661-16.17-4.881-16.07-6.102-15.96-7.322-15.81-8.543-15.65-9.763-15.45L261.528 46h118.581l20.952 3.66 20.476 4.32 19.966 4.96 19.421 5.57 18.844 6.17 18.233 6.75 17.587 7.32 16.908 7.85 16.196 8.39 15.449 8.88 14.669 9.38 13.856 9.85 13.008 10.29 12.126 10.73 11.211 11.15 10.263 11.54 9.28 11.91 8.264 12.28"/><path fill="none" stroke="#000" stroke-linejoin="round" stroke-miterlimit="10" stroke-width="20.47" d="m222 347.97 10.984-15.23 9.763-15.45 8.543-15.65 7.323-15.81 6.102-15.96 4.882-16.08 3.661-16.16 2.441-16.24 1.22-16.27v-16.28l-1.22-16.27-2.441-16.23-3.661-16.17-4.882-16.07-6.102-15.96-7.323-15.81-8.543-15.65-9.763-15.45L222 46"/><text font-family="Arial,Arial_MSFontService,sans-serif" font-size="108" font-weight="700" transform="translate(66.259 142)">A </text><text font-family="Arial,Arial_MSFontService,sans-serif" font-size="108" font-weight="700" transform="translate(66.259 294)">B</text><text font-family="Arial,Arial_MSFontService,sans-serif" font-size="108" font-weight="700" transform="translate(783.02 226)">Y</text></svg>