<svg xmlns="http://www.w3.org/2000/svg" xml:space="preserve" width="1600" height="1471" overflow="hidden"><path fill="#ffc000" stroke="#767171" stroke-miterlimit="8" stroke-width="27.5" d="M284 624h1086v578H284z"/><path fill="#ffc000" stroke="#767171" stroke-miterlimit="8" stroke-width="27.5" d="M350 628h278v186H350zM1017 628h279v186h-279z"/><path stroke="#000" stroke-miterlimit="8" stroke-width="4.583" d="M350.5 513.5h97v97h-97z"/><path fill="none" stroke="#000" stroke-miterlimit="8" stroke-width="20.625" d="M398.456 513.383V410.501H149.5"/><path stroke="#000" stroke-miterlimit="8" stroke-width="4.583" d="M1188.5 512.5h97v97h-97z"/><path fill="none" stroke="#0d0d0d" stroke-miterlimit="8" stroke-width="20.625" d="M1237.5 513.039V427.5h301.31"/><path fill="red" stroke="#2f528f" stroke-miterlimit="8" stroke-width="4.583" d="M532.5 552.5h567v58h-567z"/><path fill="#262626" stroke="#2f528f" stroke-miterlimit="8" stroke-width="4.583" d="M530.5 489.5h567v58h-567z"/><path fill="#ff424e" fill-rule="evenodd" d="M399 684c0-13.255 10.745-24 24-24s24 10.745 24 24-10.745 24-24 24-24-10.745-24-24M399 761c0-13.255 10.745-24 24-24s24 10.745 24 24-10.745 24-24 24-24-10.745-24-24M548 677.5c0-13.531 10.745-24.5 24-24.5s24 10.969 24 24.5-10.745 24.5-24 24.5-24-10.969-24-24.5M474 761c0-13.255 10.969-24 24.5-24s24.5 10.745 24.5 24-10.969 24-24.5 24-24.5-10.745-24.5-24M548 755c0-13.255 10.745-24 24-24s24 10.745 24 24-10.745 24-24 24-24-10.745-24-24M1041 684c0-13.255 10.75-24 24-24s24 10.745 24 24-10.75 24-24 24-24-10.745-24-24M1120 687c0-13.255 10.75-24 24-24s24 10.745 24 24-10.75 24-24 24-24-10.745-24-24M1199 687c0-13.255 10.75-24 24-24s24 10.745 24 24-10.75 24-24 24-24-10.745-24-24M1040 768c0-13.255 10.75-24 24-24s24 10.745 24 24-10.75 24-24 24-24-10.745-24-24M1205 764.5c0-13.531 10.97-24.5 24.5-24.5s24.5 10.969 24.5 24.5-10.97 24.5-24.5 24.5-24.5-10.969-24.5-24.5"/><path fill="#404040" fill-rule="evenodd" d="M680 684c0-13.255 10.745-24 24-24s24 10.745 24 24-10.745 24-24 24-24-10.745-24-24M352 880c0-13.26 10.969-24 24.5-24s24.5 10.74 24.5 24c0 13.25-10.969 24-24.5 24S352 893.25 352 880M350 965.5c0-13.53 10.969-24.5 24.5-24.5s24.5 10.97 24.5 24.5-10.969 24.5-24.5 24.5-24.5-10.97-24.5-24.5M532 879c0-13.25 10.969-24 24.5-24s24.5 10.75 24.5 24-10.969 24-24.5 24-24.5-10.75-24.5-24M769 684c0-13.255 10.969-24 24.5-24s24.5 10.745 24.5 24-10.969 24-24.5 24-24.5-10.745-24.5-24M937 687c0-13.255 10.75-24 24-24s24 10.745 24 24-10.75 24-24 24-24-10.745-24-24M679 779c0-13.255 10.745-24 24-24s24 10.745 24 24-10.745 24-24 24-24-10.745-24-24"/><path fill="#ff424e" fill-rule="evenodd" d="M1305 1118c0-13.25 10.75-24 24-24s24 10.75 24 24-10.75 24-24 24-24-10.75-24-24M673 880c0-13.26 10.969-24 24.5-24s24.5 10.74 24.5 24c0 13.25-10.969 24-24.5 24S673 893.25 673 880M761 778c0-13.255 10.745-24 24-24s24 10.745 24 24-10.745 24-24 24-24-10.745-24-24"/><path fill="#404040" fill-rule="evenodd" d="M846 770.5c0-13.531 10.969-24.5 24.5-24.5 13.53 0 24.5 10.969 24.5 24.5S884.03 795 870.5 795c-13.531 0-24.5-10.969-24.5-24.5M931 768c0-13.255 10.97-24 24.5-24s24.5 10.745 24.5 24-10.97 24-24.5 24-24.5-10.745-24.5-24M605 880c0-13.26 10.969-24 24.5-24s24.5 10.74 24.5 24c0 13.25-10.969 24-24.5 24S605 893.25 605 880M671 979c0-13.25 10.969-24 24.5-24s24.5 10.75 24.5 24-10.969 24-24.5 24-24.5-10.75-24.5-24M755 878.5c0-13.53 10.745-24.5 24-24.5s24 10.97 24 24.5-10.745 24.5-24 24.5-24-10.97-24-24.5M904 878.5c0-13.53 10.75-24.5 24-24.5s24 10.97 24 24.5-10.75 24.5-24 24.5-24-10.97-24-24.5M1012 878.5c0-13.53 10.75-24.5 24-24.5s24 10.97 24 24.5-10.75 24.5-24 24.5-24-10.97-24-24.5M1304 878.5c0-13.53 10.75-24.5 24-24.5s24 10.97 24 24.5-10.75 24.5-24 24.5-24-10.97-24-24.5M1210 878.5c0-13.53 10.75-24.5 24-24.5s24 10.97 24 24.5-10.75 24.5-24 24.5-24-10.97-24-24.5M350 1042c0-13.25 10.745-24 24-24s24 10.75 24 24-10.745 24-24 24-24-10.75-24-24M352 1118c0-13.25 10.745-24 24-24s24 10.75 24 24-10.745 24-24 24-24-10.75-24-24M435 1041.5c0-13.53 10.969-24.5 24.5-24.5s24.5 10.97 24.5 24.5-10.969 24.5-24.5 24.5-24.5-10.97-24.5-24.5M527 1037c0-13.25 10.745-24 24-24s24 10.75 24 24-10.745 24-24 24-24-10.75-24-24M532 959.5c0-13.53 10.969-24.5 24.5-24.5s24.5 10.97 24.5 24.5-10.969 24.5-24.5 24.5-24.5-10.97-24.5-24.5"/><path fill="#ff424e" fill-rule="evenodd" d="M604 1043c0-13.25 10.969-24 24.5-24s24.5 10.75 24.5 24-10.969 24-24.5 24-24.5-10.75-24.5-24"/><path fill="#404040" fill-rule="evenodd" d="M671 1042c0-13.25 10.969-24 24.5-24s24.5 10.75 24.5 24-10.969 24-24.5 24-24.5-10.75-24.5-24M676 1116.5c0-13.53 10.745-24.5 24-24.5s24 10.97 24 24.5-10.745 24.5-24 24.5-24-10.97-24-24.5M748 1116c0-13.25 10.745-24 24-24s24 10.75 24 24-10.745 24-24 24-24-10.75-24-24"/><path fill="#ff424e" fill-rule="evenodd" d="M744 1040.5c0-13.53 10.745-24.5 24-24.5s24 10.97 24 24.5-10.745 24.5-24 24.5-24-10.97-24-24.5M818 962c0-13.25 10.745-24 24-24s24 10.75 24 24-10.745 24-24 24-24-10.75-24-24"/><path fill="#404040" fill-rule="evenodd" d="M817 1116c0-13.25 10.969-24 24.5-24s24.5 10.75 24.5 24-10.969 24-24.5 24-24.5-10.75-24.5-24M606 1159c0-13.25 10.969-24 24.5-24s24.5 10.75 24.5 24-10.969 24-24.5 24-24.5-10.75-24.5-24"/><path fill="none" stroke="#000" stroke-miterlimit="8" stroke-width="20.625" d="M814.488 489.649 813.5 166.5"/><path fill="#404040" fill-rule="evenodd" d="M814 1037c0-13.25 10.745-24 24-24s24 10.75 24 24-10.745 24-24 24-24-10.75-24-24M901 1037c0-13.25 10.75-24 24-24s24 10.75 24 24-10.75 24-24 24-24-10.75-24-24M1011 1040.5c0-13.53 10.97-24.5 24.5-24.5s24.5 10.97 24.5 24.5-10.97 24.5-24.5 24.5-24.5-10.97-24.5-24.5M1145 1040.5c0-13.53 10.97-24.5 24.5-24.5s24.5 10.97 24.5 24.5-10.97 24.5-24.5 24.5-24.5-10.97-24.5-24.5M1229 1040c0-13.25 10.97-24 24.5-24s24.5 10.75 24.5 24-10.97 24-24.5 24-24.5-10.75-24.5-24"/><path fill="#ff424e" fill-rule="evenodd" d="M1012 966.5c0-13.53 10.75-24.5 24-24.5s24 10.97 24 24.5-10.75 24.5-24 24.5-24-10.97-24-24.5M1142 962c0-13.25 10.75-24 24-24s24 10.75 24 24-10.75 24-24 24-24-10.75-24-24M1081 1044.5c0-13.53 10.97-24.5 24.5-24.5s24.5 10.97 24.5 24.5-10.97 24.5-24.5 24.5-24.5-10.97-24.5-24.5"/><path fill="#404040" fill-rule="evenodd" d="M1077 1116c0-13.25 10.97-24 24.5-24s24.5 10.75 24.5 24-10.97 24-24.5 24-24.5-10.75-24.5-24M1011 1116c0-13.25 10.75-24 24-24s24 10.75 24 24-10.75 24-24 24-24-10.75-24-24M1309 1039.5c0-13.53 10.75-24.5 24-24.5s24 10.97 24 24.5-10.75 24.5-24 24.5-24-10.97-24-24.5M1148 1116c0-13.25 10.75-24 24-24s24 10.75 24 24-10.75 24-24 24-24-10.75-24-24M1215 1119.5c0-13.53 10.97-24.5 24.5-24.5s24.5 10.97 24.5 24.5-10.97 24.5-24.5 24.5-24.5-10.97-24.5-24.5"/><text fill="#c00000" font-family="DengXian,DengXian_MSFontService,sans-serif" font-size="83" font-weight="400" transform="translate(688.1 104)">Gate</text><path fill="#404040" fill-rule="evenodd" d="M901 1118c0-13.25 10.75-24 24-24s24 10.75 24 24-10.75 24-24 24-24-10.75-24-24"/><text fill="#c00000" font-family="DengXian,DengXian_MSFontService,sans-serif" font-size="83" font-weight="400" transform="translate(1359.3 361)">Drain</text><text fill="#c00000" font-family="DengXian,DengXian_MSFontService,sans-serif" font-size="83" font-weight="400" transform="translate(52.335 327)">Source</text><path fill="#4472c4" fill-rule="evenodd" stroke="#2f528f" stroke-miterlimit="8" stroke-width="4.583" d="M257.5 1349.5c0-12.15 9.85-22 22-22h58.667l153.226-189.31-32.226 189.31H719.5c12.15 0 22 9.85 22 22v88c0 12.15-9.85 22-22 22h-440c-12.15 0-22-9.85-22-22v-88Z"/><text fill="#fff" font-family="DengXian,DengXian_MSFontService,sans-serif" font-size="55" font-weight="400" transform="translate(306.183 1411)">掺杂硼的晶体硅</text><path fill="#4472c4" fill-rule="evenodd" stroke="#2f528f" stroke-miterlimit="8" stroke-width="4.583" d="M838.5 1357.5c0-12.15 9.85-22 22-22h259.75l199.77-193.2-79.02 193.2h58.5c12.15 0 22 9.85 22 22v88c0 12.15-9.85 22-22 22h-439c-12.15 0-22-9.85-22-22v-88Z"/><text fill="#fff" font-family="DengXian,DengXian_MSFontService,sans-serif" font-size="55" font-weight="400" transform="translate(914.63 1419)">红点表示电子</text></svg>