<svg xmlns="http://www.w3.org/2000/svg" xml:space="preserve" width="1600" height="1471" overflow="hidden"><path fill="#ffc000" stroke="#767171" stroke-miterlimit="8" stroke-width="27.5" d="M284 624h1086v578H284z"/><path fill="#ffc000" stroke="#767171" stroke-miterlimit="8" stroke-width="27.5" d="M350 628h278v186H350zm667 0h279v186h-279z"/><path stroke="#000" stroke-miterlimit="8" stroke-width="4.583" d="M350.5 513.5h97v97h-97z"/><path fill="none" stroke="#000" stroke-miterlimit="8" stroke-width="20.625" d="M398.456 513.383V410.501H149.5"/><path stroke="#000" stroke-miterlimit="8" stroke-width="4.583" d="M1188.5 512.5h97v97h-97z"/><path fill="none" stroke="#0d0d0d" stroke-miterlimit="8" stroke-width="20.625" d="M1237.5 513.039V427.5h301.31"/><path fill="red" stroke="#2f528f" stroke-miterlimit="8" stroke-width="4.583" d="M532.5 552.5h567v58h-567z"/><path fill="#262626" stroke="#2f528f" stroke-miterlimit="8" stroke-width="4.583" d="M530.5 489.5h567v58h-567z"/><path fill="#ff424e" fill-rule="evenodd" d="M399 684c0-13.255 10.745-24 24-24s24 10.745 24 24-10.745 24-24 24-24-10.745-24-24m0 77c0-13.255 10.745-24 24-24s24 10.745 24 24-10.745 24-24 24-24-10.745-24-24m149-83.5c0-13.531 10.745-24.5 24-24.5s24 10.969 24 24.5-10.745 24.5-24 24.5-24-10.969-24-24.5M474 761c0-13.255 10.969-24 24.5-24s24.5 10.745 24.5 24-10.969 24-24.5 24-24.5-10.745-24.5-24m74-6c0-13.255 10.745-24 24-24s24 10.745 24 24-10.745 24-24 24-24-10.745-24-24m493-71c0-13.255 10.75-24 24-24s24 10.745 24 24-10.75 24-24 24-24-10.745-24-24m79 3c0-13.255 10.75-24 24-24s24 10.745 24 24-10.75 24-24 24-24-10.745-24-24m79 0c0-13.255 10.75-24 24-24s24 10.745 24 24-10.75 24-24 24-24-10.745-24-24m-159 81c0-13.255 10.75-24 24-24s24 10.745 24 24-10.75 24-24 24-24-10.745-24-24m165-3.5c0-13.531 10.97-24.5 24.5-24.5s24.5 10.969 24.5 24.5-10.97 24.5-24.5 24.5-24.5-10.969-24.5-24.5"/><path fill="#404040" fill-rule="evenodd" d="M680 684c0-13.255 10.745-24 24-24s24 10.745 24 24-10.745 24-24 24-24-10.745-24-24M352 880c0-13.26 10.969-24 24.5-24s24.5 10.74 24.5 24c0 13.25-10.969 24-24.5 24S352 893.25 352 880m-2 85.5c0-13.53 10.969-24.5 24.5-24.5s24.5 10.97 24.5 24.5-10.969 24.5-24.5 24.5-24.5-10.97-24.5-24.5M532 879c0-13.25 10.969-24 24.5-24s24.5 10.75 24.5 24-10.969 24-24.5 24-24.5-10.75-24.5-24m237-195c0-13.255 10.969-24 24.5-24s24.5 10.745 24.5 24-10.969 24-24.5 24-24.5-10.745-24.5-24m168 3c0-13.255 10.75-24 24-24s24 10.745 24 24-10.75 24-24 24-24-10.745-24-24m-258 92c0-13.255 10.745-24 24-24s24 10.745 24 24-10.745 24-24 24-24-10.745-24-24"/><path fill="#ff424e" fill-rule="evenodd" d="M1305 1118c0-13.25 10.75-24 24-24s24 10.75 24 24-10.75 24-24 24-24-10.75-24-24M673 880c0-13.26 10.969-24 24.5-24s24.5 10.74 24.5 24c0 13.25-10.969 24-24.5 24S673 893.25 673 880m88-102c0-13.255 10.745-24 24-24s24 10.745 24 24-10.745 24-24 24-24-10.745-24-24"/><path fill="#404040" fill-rule="evenodd" d="M846 770.5c0-13.531 10.969-24.5 24.5-24.5 13.53 0 24.5 10.969 24.5 24.5S884.03 795 870.5 795c-13.531 0-24.5-10.969-24.5-24.5m85-2.5c0-13.255 10.97-24 24.5-24s24.5 10.745 24.5 24-10.97 24-24.5 24-24.5-10.745-24.5-24M605 880c0-13.26 10.969-24 24.5-24s24.5 10.74 24.5 24c0 13.25-10.969 24-24.5 24S605 893.25 605 880m66 99c0-13.25 10.969-24 24.5-24s24.5 10.75 24.5 24-10.969 24-24.5 24-24.5-10.75-24.5-24m84-100.5c0-13.53 10.745-24.5 24-24.5s24 10.97 24 24.5-10.745 24.5-24 24.5-24-10.97-24-24.5m149 0c0-13.53 10.75-24.5 24-24.5s24 10.97 24 24.5-10.75 24.5-24 24.5-24-10.97-24-24.5m108 0c0-13.53 10.75-24.5 24-24.5s24 10.97 24 24.5-10.75 24.5-24 24.5-24-10.97-24-24.5m292 0c0-13.53 10.75-24.5 24-24.5s24 10.97 24 24.5-10.75 24.5-24 24.5-24-10.97-24-24.5m-94 0c0-13.53 10.75-24.5 24-24.5s24 10.97 24 24.5-10.75 24.5-24 24.5-24-10.97-24-24.5M350 1042c0-13.25 10.745-24 24-24s24 10.75 24 24-10.745 24-24 24-24-10.75-24-24m2 76c0-13.25 10.745-24 24-24s24 10.75 24 24-10.745 24-24 24-24-10.75-24-24m83-76.5c0-13.53 10.969-24.5 24.5-24.5s24.5 10.97 24.5 24.5-10.969 24.5-24.5 24.5-24.5-10.97-24.5-24.5m92-4.5c0-13.25 10.745-24 24-24s24 10.75 24 24-10.745 24-24 24-24-10.75-24-24m5-77.5c0-13.53 10.969-24.5 24.5-24.5s24.5 10.97 24.5 24.5-10.969 24.5-24.5 24.5-24.5-10.97-24.5-24.5"/><path fill="#ff424e" fill-rule="evenodd" d="M604 1043c0-13.25 10.969-24 24.5-24s24.5 10.75 24.5 24-10.969 24-24.5 24-24.5-10.75-24.5-24"/><path fill="#404040" fill-rule="evenodd" d="M671 1042c0-13.25 10.969-24 24.5-24s24.5 10.75 24.5 24-10.969 24-24.5 24-24.5-10.75-24.5-24m5 74.5c0-13.53 10.745-24.5 24-24.5s24 10.97 24 24.5-10.745 24.5-24 24.5-24-10.97-24-24.5m72-.5c0-13.25 10.745-24 24-24s24 10.75 24 24-10.745 24-24 24-24-10.75-24-24"/><path fill="#ff424e" fill-rule="evenodd" d="M744 1040.5c0-13.53 10.745-24.5 24-24.5s24 10.97 24 24.5-10.745 24.5-24 24.5-24-10.97-24-24.5m74-78.5c0-13.25 10.745-24 24-24s24 10.75 24 24-10.745 24-24 24-24-10.75-24-24"/><path fill="#404040" fill-rule="evenodd" d="M817 1116c0-13.25 10.969-24 24.5-24s24.5 10.75 24.5 24-10.969 24-24.5 24-24.5-10.75-24.5-24m-211 43c0-13.25 10.969-24 24.5-24s24.5 10.75 24.5 24-10.969 24-24.5 24-24.5-10.75-24.5-24"/><path fill="none" stroke="#000" stroke-miterlimit="8" stroke-width="20.625" d="M814.488 489.649 813.5 166.5"/><path fill="#404040" fill-rule="evenodd" d="M814 1037c0-13.25 10.745-24 24-24s24 10.75 24 24-10.745 24-24 24-24-10.75-24-24m87 0c0-13.25 10.75-24 24-24s24 10.75 24 24-10.75 24-24 24-24-10.75-24-24m110 3.5c0-13.53 10.97-24.5 24.5-24.5s24.5 10.97 24.5 24.5-10.97 24.5-24.5 24.5-24.5-10.97-24.5-24.5m134 0c0-13.53 10.97-24.5 24.5-24.5s24.5 10.97 24.5 24.5-10.97 24.5-24.5 24.5-24.5-10.97-24.5-24.5m84-.5c0-13.25 10.97-24 24.5-24s24.5 10.75 24.5 24-10.97 24-24.5 24-24.5-10.75-24.5-24"/><path fill="#ff424e" fill-rule="evenodd" d="M1012 966.5c0-13.53 10.75-24.5 24-24.5s24 10.97 24 24.5-10.75 24.5-24 24.5-24-10.97-24-24.5m130-4.5c0-13.25 10.75-24 24-24s24 10.75 24 24-10.75 24-24 24-24-10.75-24-24m-61 82.5c0-13.53 10.97-24.5 24.5-24.5s24.5 10.97 24.5 24.5-10.97 24.5-24.5 24.5-24.5-10.97-24.5-24.5"/><path fill="#404040" fill-rule="evenodd" d="M1077 1116c0-13.25 10.97-24 24.5-24s24.5 10.75 24.5 24-10.97 24-24.5 24-24.5-10.75-24.5-24m-66 0c0-13.25 10.75-24 24-24s24 10.75 24 24-10.75 24-24 24-24-10.75-24-24m298-76.5c0-13.53 10.75-24.5 24-24.5s24 10.97 24 24.5-10.75 24.5-24 24.5-24-10.97-24-24.5m-161 76.5c0-13.25 10.75-24 24-24s24 10.75 24 24-10.75 24-24 24-24-10.75-24-24m67 3.5c0-13.53 10.97-24.5 24.5-24.5s24.5 10.97 24.5 24.5-10.97 24.5-24.5 24.5-24.5-10.97-24.5-24.5"/><text fill="#c00000" font-family="DengXian,DengXian_MSFontService,sans-serif" font-size="83" font-weight="400" transform="translate(688.1 104)">Gate</text><path fill="#404040" fill-rule="evenodd" d="M901 1118c0-13.25 10.75-24 24-24s24 10.75 24 24-10.75 24-24 24-24-10.75-24-24"/><text fill="#c00000" font-family="DengXian,DengXian_MSFontService,sans-serif" font-size="83" font-weight="400" transform="translate(1359.3 361)">Drain</text><text fill="#c00000" font-family="DengXian,DengXian_MSFontService,sans-serif" font-size="83" font-weight="400" transform="translate(52.335 327)">Source</text><path fill="#4472c4" fill-rule="evenodd" stroke="#2f528f" stroke-miterlimit="8" stroke-width="4.583" d="M257.5 1349.5c0-12.15 9.85-22 22-22h58.667l153.226-189.31-32.226 189.31H719.5c12.15 0 22 9.85 22 22v88c0 12.15-9.85 22-22 22h-440c-12.15 0-22-9.85-22-22z"/><text fill="#fff" font-family="DengXian,DengXian_MSFontService,sans-serif" font-size="55" font-weight="400" transform="translate(306.183 1411)">掺杂硼的晶体硅</text><path fill="#4472c4" fill-rule="evenodd" stroke="#2f528f" stroke-miterlimit="8" stroke-width="4.583" d="M838.5 1357.5c0-12.15 9.85-22 22-22h259.75l199.77-193.2-79.02 193.2h58.5c12.15 0 22 9.85 22 22v88c0 12.15-9.85 22-22 22h-439c-12.15 0-22-9.85-22-22z"/><text fill="#fff" font-family="DengXian,DengXian_MSFontService,sans-serif" font-size="55" font-weight="400" transform="translate(914.63 1419)">红点表示电子</text></svg>