<svg width="1600" height="1242" xmlns="http://www.w3.org/2000/svg" xmlns:xlink="http://www.w3.org/1999/xlink" xml:space="preserve" overflow="hidden"><g transform="translate(-132 -128)"><g><rect x="416" y="775" width="1086" height="578" stroke="#767171" stroke-width="27.5" stroke-linecap="butt" stroke-linejoin="miter" stroke-miterlimit="8" stroke-opacity="1" fill="#FFC000" fill-opacity="1"/><rect x="482" y="779" width="278" height="186" stroke="#767171" stroke-width="27.5" stroke-linecap="butt" stroke-linejoin="miter" stroke-miterlimit="8" stroke-opacity="1" fill="#FFC000" fill-opacity="1"/><rect x="1149" y="779" width="279" height="186" stroke="#767171" stroke-width="27.5" stroke-linecap="butt" stroke-linejoin="miter" stroke-miterlimit="8" stroke-opacity="1" fill="#FFC000" fill-opacity="1"/><rect x="482.5" y="664.5" width="96.9999" height="96.9999" stroke="#000000" stroke-width="4.58333" stroke-linecap="butt" stroke-linejoin="miter" stroke-miterlimit="8" stroke-opacity="1" fill="#000000" fill-opacity="1"/><path d="M0 0 102.882 0 102.882 248.956" stroke="#000000" stroke-width="20.625" stroke-linecap="butt" stroke-linejoin="miter" stroke-miterlimit="8" stroke-opacity="1" fill="none" fill-rule="evenodd" transform="matrix(-1.83697e-16 -1 -1 1.83697e-16 530.456 664.383)"/><rect x="1320.5" y="663.5" width="97.0002" height="96.9999" stroke="#000000" stroke-width="4.58333" stroke-linecap="butt" stroke-linejoin="miter" stroke-miterlimit="8" stroke-opacity="1" fill="#000000" fill-opacity="1"/><path d="M1369.5 664.039 1369.5 578.5 1670.81 578.5" stroke="#0D0D0D" stroke-width="20.625" stroke-linecap="butt" stroke-linejoin="miter" stroke-miterlimit="8" stroke-opacity="1" fill="none" fill-rule="evenodd"/><rect x="664.5" y="703.5" width="567" height="57.9998" stroke="#2F528F" stroke-width="4.58333" stroke-linecap="butt" stroke-linejoin="miter" stroke-miterlimit="8" stroke-opacity="1" fill="#FF0000" fill-opacity="1"/><rect x="662.5" y="640.5" width="567" height="58.0001" stroke="#2F528F" stroke-width="4.58333" stroke-linecap="butt" stroke-linejoin="miter" stroke-miterlimit="8" stroke-opacity="1" fill="#262626" fill-opacity="1"/><path d="M531 835C531 821.745 541.745 811 555 811 568.255 811 579 821.745 579 835 579 848.255 568.255 859 555 859 541.745 859 531 848.255 531 835Z" fill="#FF424E" fill-rule="evenodd" fill-opacity="1"/><path d="M531 912C531 898.745 541.745 888 555 888 568.255 888 579 898.745 579 912 579 925.255 568.255 936 555 936 541.745 936 531 925.255 531 912Z" fill="#FF424E" fill-rule="evenodd" fill-opacity="1"/><path d="M680 828.5C680 814.969 690.745 804 704 804 717.255 804 728 814.969 728 828.5 728 842.031 717.255 853 704 853 690.745 853 680 842.031 680 828.5Z" fill="#FF424E" fill-rule="evenodd" fill-opacity="1"/><path d="M606 912C606 898.745 616.969 888 630.5 888 644.031 888 655 898.745 655 912 655 925.255 644.031 936 630.5 936 616.969 936 606 925.255 606 912Z" fill="#FF424E" fill-rule="evenodd" fill-opacity="1"/><path d="M680 906C680 892.745 690.745 882 704 882 717.255 882 728 892.745 728 906 728 919.255 717.255 930 704 930 690.745 930 680 919.255 680 906Z" fill="#FF424E" fill-rule="evenodd" fill-opacity="1"/><path d="M1173 835C1173 821.745 1183.75 811 1197 811 1210.25 811 1221 821.745 1221 835 1221 848.255 1210.25 859 1197 859 1183.75 859 1173 848.255 1173 835Z" fill="#FF424E" fill-rule="evenodd" fill-opacity="1"/><path d="M1252 838C1252 824.745 1262.75 814 1276 814 1289.25 814 1300 824.745 1300 838 1300 851.255 1289.25 862 1276 862 1262.75 862 1252 851.255 1252 838Z" fill="#FF424E" fill-rule="evenodd" fill-opacity="1"/><path d="M1331 838C1331 824.745 1341.75 814 1355 814 1368.25 814 1379 824.745 1379 838 1379 851.255 1368.25 862 1355 862 1341.75 862 1331 851.255 1331 838Z" fill="#FF424E" fill-rule="evenodd" fill-opacity="1"/><path d="M1172 919C1172 905.745 1182.75 895 1196 895 1209.25 895 1220 905.745 1220 919 1220 932.255 1209.25 943 1196 943 1182.75 943 1172 932.255 1172 919Z" fill="#FF424E" fill-rule="evenodd" fill-opacity="1"/><path d="M1337 915.5C1337 901.969 1347.97 891 1361.5 891 1375.03 891 1386 901.969 1386 915.5 1386 929.031 1375.03 940 1361.5 940 1347.97 940 1337 929.031 1337 915.5Z" fill="#FF424E" fill-rule="evenodd" fill-opacity="1"/><path d="M812 835C812 821.745 822.745 811 836 811 849.255 811 860 821.745 860 835 860 848.255 849.255 859 836 859 822.745 859 812 848.255 812 835Z" fill="#FF424E" fill-rule="evenodd" fill-opacity="1"/><path d="M484 1031C484 1017.74 494.969 1007 508.5 1007 522.031 1007 533 1017.74 533 1031 533 1044.25 522.031 1055 508.5 1055 494.969 1055 484 1044.25 484 1031Z" fill="#404040" fill-rule="evenodd" fill-opacity="1"/><path d="M482 1116.5C482 1102.97 492.969 1092 506.5 1092 520.031 1092 531 1102.97 531 1116.5 531 1130.03 520.031 1141 506.5 1141 492.969 1141 482 1130.03 482 1116.5Z" fill="#404040" fill-rule="evenodd" fill-opacity="1"/><path d="M664 1030C664 1016.75 674.969 1006 688.5 1006 702.031 1006 713 1016.75 713 1030 713 1043.25 702.031 1054 688.5 1054 674.969 1054 664 1043.25 664 1030Z" fill="#404040" fill-rule="evenodd" fill-opacity="1"/><path d="M901 835C901 821.745 911.969 811 925.5 811 939.031 811 950 821.745 950 835 950 848.255 939.031 859 925.5 859 911.969 859 901 848.255 901 835Z" fill="#FF424E" fill-rule="evenodd" fill-opacity="1"/><path d="M1069 838C1069 824.745 1079.75 814 1093 814 1106.25 814 1117 824.745 1117 838 1117 851.255 1106.25 862 1093 862 1079.75 862 1069 851.255 1069 838Z" fill="#FF424E" fill-rule="evenodd" fill-opacity="1"/><path d="M811 930C811 916.745 821.745 906 835 906 848.255 906 859 916.745 859 930 859 943.255 848.255 954 835 954 821.745 954 811 943.255 811 930Z" fill="#FF424E" fill-rule="evenodd" fill-opacity="1"/><path d="M1437 1269C1437 1255.75 1447.75 1245 1461 1245 1474.25 1245 1485 1255.75 1485 1269 1485 1282.25 1474.25 1293 1461 1293 1447.75 1293 1437 1282.25 1437 1269Z" fill="#FF424E" fill-rule="evenodd" fill-opacity="1"/><path d="M805 1031C805 1017.74 815.969 1007 829.5 1007 843.031 1007 854 1017.74 854 1031 854 1044.25 843.031 1055 829.5 1055 815.969 1055 805 1044.25 805 1031Z" fill="#FF424E" fill-rule="evenodd" fill-opacity="1"/><path d="M893 929C893 915.745 903.745 905 917 905 930.255 905 941 915.745 941 929 941 942.255 930.255 953 917 953 903.745 953 893 942.255 893 929Z" fill="#FF424E" fill-rule="evenodd" fill-opacity="1"/><path d="M978 921.5C978 907.969 988.969 897 1002.5 897 1016.03 897 1027 907.969 1027 921.5 1027 935.031 1016.03 946 1002.5 946 988.969 946 978 935.031 978 921.5Z" fill="#FF424E" fill-rule="evenodd" fill-opacity="1"/><path d="M1063 919C1063 905.745 1073.97 895 1087.5 895 1101.03 895 1112 905.745 1112 919 1112 932.255 1101.03 943 1087.5 943 1073.97 943 1063 932.255 1063 919Z" fill="#FF424E" fill-rule="evenodd" fill-opacity="1"/><path d="M737 1031C737 1017.74 747.969 1007 761.5 1007 775.031 1007 786 1017.74 786 1031 786 1044.25 775.031 1055 761.5 1055 747.969 1055 737 1044.25 737 1031Z" fill="#404040" fill-rule="evenodd" fill-opacity="1"/><path d="M803 1130C803 1116.75 813.969 1106 827.5 1106 841.031 1106 852 1116.75 852 1130 852 1143.25 841.031 1154 827.5 1154 813.969 1154 803 1143.25 803 1130Z" fill="#404040" fill-rule="evenodd" fill-opacity="1"/><path d="M887 1029.5C887 1015.97 897.745 1005 911 1005 924.255 1005 935 1015.97 935 1029.5 935 1043.03 924.255 1054 911 1054 897.745 1054 887 1043.03 887 1029.5Z" fill="#404040" fill-rule="evenodd" fill-opacity="1"/><path d="M1036 1029.5C1036 1015.97 1046.75 1005 1060 1005 1073.25 1005 1084 1015.97 1084 1029.5 1084 1043.03 1073.25 1054 1060 1054 1046.75 1054 1036 1043.03 1036 1029.5Z" fill="#404040" fill-rule="evenodd" fill-opacity="1"/><path d="M1144 1029.5C1144 1015.97 1154.75 1005 1168 1005 1181.25 1005 1192 1015.97 1192 1029.5 1192 1043.03 1181.25 1054 1168 1054 1154.75 1054 1144 1043.03 1144 1029.5Z" fill="#404040" fill-rule="evenodd" fill-opacity="1"/><path d="M1436 1029.5C1436 1015.97 1446.75 1005 1460 1005 1473.25 1005 1484 1015.97 1484 1029.5 1484 1043.03 1473.25 1054 1460 1054 1446.75 1054 1436 1043.03 1436 1029.5Z" fill="#404040" fill-rule="evenodd" fill-opacity="1"/><path d="M1342 1029.5C1342 1015.97 1352.75 1005 1366 1005 1379.25 1005 1390 1015.97 1390 1029.5 1390 1043.03 1379.25 1054 1366 1054 1352.75 1054 1342 1043.03 1342 1029.5Z" fill="#404040" fill-rule="evenodd" fill-opacity="1"/><path d="M482 1193C482 1179.75 492.745 1169 506 1169 519.255 1169 530 1179.75 530 1193 530 1206.25 519.255 1217 506 1217 492.745 1217 482 1206.25 482 1193Z" fill="#404040" fill-rule="evenodd" fill-opacity="1"/><path d="M484 1269C484 1255.75 494.745 1245 508 1245 521.255 1245 532 1255.75 532 1269 532 1282.25 521.255 1293 508 1293 494.745 1293 484 1282.25 484 1269Z" fill="#404040" fill-rule="evenodd" fill-opacity="1"/><path d="M567 1192.5C567 1178.97 577.969 1168 591.5 1168 605.031 1168 616 1178.97 616 1192.5 616 1206.03 605.031 1217 591.5 1217 577.969 1217 567 1206.03 567 1192.5Z" fill="#404040" fill-rule="evenodd" fill-opacity="1"/><path d="M659 1188C659 1174.75 669.745 1164 683 1164 696.255 1164 707 1174.75 707 1188 707 1201.25 696.255 1212 683 1212 669.745 1212 659 1201.25 659 1188Z" fill="#404040" fill-rule="evenodd" fill-opacity="1"/><path d="M664 1110.5C664 1096.97 674.969 1086 688.5 1086 702.031 1086 713 1096.97 713 1110.5 713 1124.03 702.031 1135 688.5 1135 674.969 1135 664 1124.03 664 1110.5Z" fill="#404040" fill-rule="evenodd" fill-opacity="1"/><path d="M736 1194C736 1180.75 746.969 1170 760.5 1170 774.031 1170 785 1180.75 785 1194 785 1207.25 774.031 1218 760.5 1218 746.969 1218 736 1207.25 736 1194Z" fill="#404040" fill-rule="evenodd" fill-opacity="1"/><path d="M803 1193C803 1179.75 813.969 1169 827.5 1169 841.031 1169 852 1179.75 852 1193 852 1206.25 841.031 1217 827.5 1217 813.969 1217 803 1206.25 803 1193Z" fill="#404040" fill-rule="evenodd" fill-opacity="1"/><path d="M808 1267.5C808 1253.97 818.745 1243 832 1243 845.255 1243 856 1253.97 856 1267.5 856 1281.03 845.255 1292 832 1292 818.745 1292 808 1281.03 808 1267.5Z" fill="#404040" fill-rule="evenodd" fill-opacity="1"/><path d="M880 1267C880 1253.75 890.745 1243 904 1243 917.255 1243 928 1253.75 928 1267 928 1280.25 917.255 1291 904 1291 890.745 1291 880 1280.25 880 1267Z" fill="#404040" fill-rule="evenodd" fill-opacity="1"/><path d="M876 1191.5C876 1177.97 886.745 1167 900 1167 913.255 1167 924 1177.97 924 1191.5 924 1205.03 913.255 1216 900 1216 886.745 1216 876 1205.03 876 1191.5Z" fill="#404040" fill-rule="evenodd" fill-opacity="1"/><path d="M950 1113C950 1099.75 960.745 1089 974 1089 987.255 1089 998 1099.75 998 1113 998 1126.25 987.255 1137 974 1137 960.745 1137 950 1126.25 950 1113Z" fill="#404040" fill-rule="evenodd" fill-opacity="1"/><path d="M949 1267C949 1253.75 959.969 1243 973.5 1243 987.031 1243 998 1253.75 998 1267 998 1280.25 987.031 1291 973.5 1291 959.969 1291 949 1280.25 949 1267Z" fill="#404040" fill-rule="evenodd" fill-opacity="1"/><path d="M738 1310C738 1296.75 748.969 1286 762.5 1286 776.031 1286 787 1296.75 787 1310 787 1323.25 776.031 1334 762.5 1334 748.969 1334 738 1323.25 738 1310Z" fill="#404040" fill-rule="evenodd" fill-opacity="1"/><path d="M946.488 640.649 945.5 317.5" stroke="#000000" stroke-width="20.625" stroke-linecap="butt" stroke-linejoin="miter" stroke-miterlimit="8" stroke-opacity="1" fill="none" fill-rule="evenodd"/><path d="M946 1188C946 1174.75 956.745 1164 970 1164 983.255 1164 994 1174.75 994 1188 994 1201.25 983.255 1212 970 1212 956.745 1212 946 1201.25 946 1188Z" fill="#404040" fill-rule="evenodd" fill-opacity="1"/><path d="M1033 1188C1033 1174.75 1043.75 1164 1057 1164 1070.25 1164 1081 1174.75 1081 1188 1081 1201.25 1070.25 1212 1057 1212 1043.75 1212 1033 1201.25 1033 1188Z" fill="#404040" fill-rule="evenodd" fill-opacity="1"/><path d="M1143 1191.5C1143 1177.97 1153.97 1167 1167.5 1167 1181.03 1167 1192 1177.97 1192 1191.5 1192 1205.03 1181.03 1216 1167.5 1216 1153.97 1216 1143 1205.03 1143 1191.5Z" fill="#404040" fill-rule="evenodd" fill-opacity="1"/><path d="M1277 1191.5C1277 1177.97 1287.97 1167 1301.5 1167 1315.03 1167 1326 1177.97 1326 1191.5 1326 1205.03 1315.03 1216 1301.5 1216 1287.97 1216 1277 1205.03 1277 1191.5Z" fill="#404040" fill-rule="evenodd" fill-opacity="1"/><path d="M1361 1191C1361 1177.75 1371.97 1167 1385.5 1167 1399.03 1167 1410 1177.75 1410 1191 1410 1204.25 1399.03 1215 1385.5 1215 1371.97 1215 1361 1204.25 1361 1191Z" fill="#404040" fill-rule="evenodd" fill-opacity="1"/><path d="M1144 1117.5C1144 1103.97 1154.75 1093 1168 1093 1181.25 1093 1192 1103.97 1192 1117.5 1192 1131.03 1181.25 1142 1168 1142 1154.75 1142 1144 1131.03 1144 1117.5Z" fill="#404040" fill-rule="evenodd" fill-opacity="1"/><path d="M1274 1113C1274 1099.75 1284.75 1089 1298 1089 1311.25 1089 1322 1099.75 1322 1113 1322 1126.25 1311.25 1137 1298 1137 1284.75 1137 1274 1126.25 1274 1113Z" fill="#404040" fill-rule="evenodd" fill-opacity="1"/><path d="M1213 1195.5C1213 1181.97 1223.97 1171 1237.5 1171 1251.03 1171 1262 1181.97 1262 1195.5 1262 1209.03 1251.03 1220 1237.5 1220 1223.97 1220 1213 1209.03 1213 1195.5Z" fill="#404040" fill-rule="evenodd" fill-opacity="1"/><path d="M1209 1267C1209 1253.75 1219.97 1243 1233.5 1243 1247.03 1243 1258 1253.75 1258 1267 1258 1280.25 1247.03 1291 1233.5 1291 1219.97 1291 1209 1280.25 1209 1267Z" fill="#404040" fill-rule="evenodd" fill-opacity="1"/><path d="M1143 1267C1143 1253.75 1153.75 1243 1167 1243 1180.25 1243 1191 1253.75 1191 1267 1191 1280.25 1180.25 1291 1167 1291 1153.75 1291 1143 1280.25 1143 1267Z" fill="#404040" fill-rule="evenodd" fill-opacity="1"/><path d="M1441 1190.5C1441 1176.97 1451.75 1166 1465 1166 1478.25 1166 1489 1176.97 1489 1190.5 1489 1204.03 1478.25 1215 1465 1215 1451.75 1215 1441 1204.03 1441 1190.5Z" fill="#404040" fill-rule="evenodd" fill-opacity="1"/><path d="M1280 1267C1280 1253.75 1290.75 1243 1304 1243 1317.25 1243 1328 1253.75 1328 1267 1328 1280.25 1317.25 1291 1304 1291 1290.75 1291 1280 1280.25 1280 1267Z" fill="#404040" fill-rule="evenodd" fill-opacity="1"/><path d="M1347 1270.5C1347 1256.97 1357.97 1246 1371.5 1246 1385.03 1246 1396 1256.97 1396 1270.5 1396 1284.03 1385.03 1295 1371.5 1295 1357.97 1295 1347 1284.03 1347 1270.5Z" fill="#404040" fill-rule="evenodd" fill-opacity="1"/><text fill="#C00000" fill-opacity="1" font-family="DengXian,DengXian_MSFontService,sans-serif" font-style="normal" font-variant="normal" font-weight="400" font-stretch="normal" font-size="83" text-anchor="start" direction="ltr" writing-mode="lr-tb" unicode-bidi="normal" text-decoration="none" transform="matrix(1 0 0 1 820.1 255)">Gate</text><path d="M1033 1269C1033 1255.75 1043.75 1245 1057 1245 1070.25 1245 1081 1255.75 1081 1269 1081 1282.25 1070.25 1293 1057 1293 1043.75 1293 1033 1282.25 1033 1269Z" fill="#404040" fill-rule="evenodd" fill-opacity="1"/><text fill="#C00000" fill-opacity="1" font-family="DengXian,DengXian_MSFontService,sans-serif" font-style="normal" font-variant="normal" font-weight="400" font-stretch="normal" font-size="83" text-anchor="start" direction="ltr" writing-mode="lr-tb" unicode-bidi="normal" text-decoration="none" transform="matrix(1 0 0 1 1491.3 512)">Drain</text><text fill="#C00000" fill-opacity="1" font-family="DengXian,DengXian_MSFontService,sans-serif" font-style="normal" font-variant="normal" font-weight="400" font-stretch="normal" font-size="83" text-anchor="start" direction="ltr" writing-mode="lr-tb" unicode-bidi="normal" text-decoration="none" transform="matrix(1 0 0 1 184.335 478)">Source</text><path d="M983 830C983 816.745 993.745 806 1007 806 1020.25 806 1031 816.745 1031 830 1031 843.255 1020.25 854 1007 854 993.745 854 983 843.255 983 830Z" fill="#FF424E" fill-rule="evenodd" fill-opacity="1"/><path d="M1052.5 154.834C1052.5 143.604 1061.6 134.5 1072.83 134.5L1135.67 134.5 1260.42 134.5 1531.17 134.5C1542.4 134.5 1551.5 143.604 1551.5 154.834L1551.5 205.667 1551.5 236.167 1551.5 236.166C1551.5 247.396 1542.4 256.5 1531.17 256.5L1260.42 256.5 979.636 395.178 1135.67 256.5 1072.83 256.5C1061.6 256.5 1052.5 247.396 1052.5 236.166L1052.5 236.167 1052.5 205.667Z" stroke="#2F528F" stroke-width="4.58333" stroke-linecap="butt" stroke-linejoin="miter" stroke-miterlimit="8" stroke-opacity="1" fill="#4472C4" fill-rule="evenodd" fill-opacity="1"/><text fill="#FFFFFF" fill-opacity="1" font-family="DengXian,DengXian_MSFontService,sans-serif" font-style="normal" font-variant="normal" font-weight="400" font-stretch="normal" font-size="55" text-anchor="start" direction="ltr" writing-mode="lr-tb" unicode-bidi="normal" text-decoration="none" transform="matrix(1 0 0 1 1191.67 213)">加上电压</text><path d="M1181.5 327.334C1181.5 313.618 1192.62 302.5 1206.33 302.5L1266.5 302.5 1394 302.5 1666.67 302.5C1680.38 302.5 1691.5 313.618 1691.5 327.334L1691.5 389.417 1691.5 426.667 1691.5 426.666C1691.5 440.381 1680.38 451.5 1666.67 451.5L1394 451.5 964.612 867.977 1266.5 451.5 1206.33 451.5C1192.62 451.5 1181.5 440.381 1181.5 426.666L1181.5 426.667 1181.5 389.417Z" stroke="#2F528F" stroke-width="4.58333" stroke-linecap="butt" stroke-linejoin="miter" stroke-miterlimit="8" stroke-opacity="1" fill="#4472C4" fill-rule="evenodd" fill-opacity="1"/><text fill="#FFFFFF" fill-opacity="1" font-family="DengXian,DengXian_MSFontService,sans-serif" font-style="normal" font-variant="normal" font-weight="400" font-stretch="normal" font-size="55" text-anchor="start" direction="ltr" writing-mode="lr-tb" unicode-bidi="normal" text-decoration="none" transform="matrix(1 0 0 1 1243.4 362)">电子被吸引过来</text><text fill="#FFFFFF" fill-opacity="1" font-family="DengXian,DengXian_MSFontService,sans-serif" font-style="normal" font-variant="normal" font-weight="400" font-stretch="normal" font-size="55" text-anchor="start" direction="ltr" writing-mode="lr-tb" unicode-bidi="normal" text-decoration="none" transform="matrix(1 0 0 1 1325.9 428)">形成导体</text></g></g></svg>