<svg xmlns="http://www.w3.org/2000/svg" xml:space="preserve" width="1600" height="1242" overflow="hidden"><path fill="#ffc000" stroke="#767171" stroke-miterlimit="8" stroke-width="27.5" d="M284 647h1086v578H284z"/><path fill="#ffc000" stroke="#767171" stroke-miterlimit="8" stroke-width="27.5" d="M350 651h278v186H350zm667 0h279v186h-279z"/><path stroke="#000" stroke-miterlimit="8" stroke-width="4.583" d="M350.5 536.5h97v97h-97z"/><path fill="none" stroke="#000" stroke-miterlimit="8" stroke-width="20.625" d="M398.456 536.383V433.501H149.5"/><path stroke="#000" stroke-miterlimit="8" stroke-width="4.583" d="M1188.5 535.5h97v97h-97z"/><path fill="none" stroke="#0d0d0d" stroke-miterlimit="8" stroke-width="20.625" d="M1237.5 536.039V450.5h301.31"/><path fill="red" stroke="#2f528f" stroke-miterlimit="8" stroke-width="4.583" d="M532.5 575.5h567v58h-567z"/><path fill="#262626" stroke="#2f528f" stroke-miterlimit="8" stroke-width="4.583" d="M530.5 512.5h567v58h-567z"/><path fill="#ff424e" fill-rule="evenodd" d="M399 707c0-13.255 10.745-24 24-24s24 10.745 24 24-10.745 24-24 24-24-10.745-24-24m0 77c0-13.255 10.745-24 24-24s24 10.745 24 24-10.745 24-24 24-24-10.745-24-24m149-83.5c0-13.531 10.745-24.5 24-24.5s24 10.969 24 24.5-10.745 24.5-24 24.5-24-10.969-24-24.5M474 784c0-13.255 10.969-24 24.5-24s24.5 10.745 24.5 24-10.969 24-24.5 24-24.5-10.745-24.5-24m74-6c0-13.255 10.745-24 24-24s24 10.745 24 24-10.745 24-24 24-24-10.745-24-24m493-71c0-13.255 10.75-24 24-24s24 10.745 24 24-10.75 24-24 24-24-10.745-24-24m79 3c0-13.255 10.75-24 24-24s24 10.745 24 24-10.75 24-24 24-24-10.745-24-24m79 0c0-13.255 10.75-24 24-24s24 10.745 24 24-10.75 24-24 24-24-10.745-24-24m-159 81c0-13.255 10.75-24 24-24s24 10.745 24 24-10.75 24-24 24-24-10.745-24-24m165-3.5c0-13.531 10.97-24.5 24.5-24.5s24.5 10.969 24.5 24.5-10.97 24.5-24.5 24.5-24.5-10.969-24.5-24.5M680 707c0-13.255 10.745-24 24-24s24 10.745 24 24-10.745 24-24 24-24-10.745-24-24"/><path fill="#404040" fill-rule="evenodd" d="M352 903c0-13.26 10.969-24 24.5-24s24.5 10.74 24.5 24c0 13.25-10.969 24-24.5 24S352 916.25 352 903m-2 85.5c0-13.53 10.969-24.5 24.5-24.5s24.5 10.97 24.5 24.5-10.969 24.5-24.5 24.5-24.5-10.97-24.5-24.5M532 902c0-13.25 10.969-24 24.5-24s24.5 10.75 24.5 24-10.969 24-24.5 24-24.5-10.75-24.5-24"/><path fill="#ff424e" fill-rule="evenodd" d="M769 707c0-13.255 10.969-24 24.5-24s24.5 10.745 24.5 24-10.969 24-24.5 24-24.5-10.745-24.5-24m168 3c0-13.255 10.75-24 24-24s24 10.745 24 24-10.75 24-24 24-24-10.745-24-24m-258 92c0-13.255 10.745-24 24-24s24 10.745 24 24-10.745 24-24 24-24-10.745-24-24m626 339c0-13.25 10.75-24 24-24s24 10.75 24 24-10.75 24-24 24-24-10.75-24-24M673 903c0-13.26 10.969-24 24.5-24s24.5 10.74 24.5 24c0 13.25-10.969 24-24.5 24S673 916.25 673 903m88-102c0-13.255 10.745-24 24-24s24 10.745 24 24-10.745 24-24 24-24-10.745-24-24m85-7.5c0-13.531 10.969-24.5 24.5-24.5 13.53 0 24.5 10.969 24.5 24.5S884.03 818 870.5 818c-13.531 0-24.5-10.969-24.5-24.5m85-2.5c0-13.255 10.97-24 24.5-24s24.5 10.745 24.5 24-10.97 24-24.5 24-24.5-10.745-24.5-24"/><path fill="#404040" fill-rule="evenodd" d="M605 903c0-13.26 10.969-24 24.5-24s24.5 10.74 24.5 24c0 13.25-10.969 24-24.5 24S605 916.25 605 903m66 99c0-13.25 10.969-24 24.5-24s24.5 10.75 24.5 24-10.969 24-24.5 24-24.5-10.75-24.5-24m84-100.5c0-13.53 10.745-24.5 24-24.5s24 10.97 24 24.5-10.745 24.5-24 24.5-24-10.97-24-24.5m149 0c0-13.53 10.75-24.5 24-24.5s24 10.97 24 24.5-10.75 24.5-24 24.5-24-10.97-24-24.5m108 0c0-13.53 10.75-24.5 24-24.5s24 10.97 24 24.5-10.75 24.5-24 24.5-24-10.97-24-24.5m292 0c0-13.53 10.75-24.5 24-24.5s24 10.97 24 24.5-10.75 24.5-24 24.5-24-10.97-24-24.5m-94 0c0-13.53 10.75-24.5 24-24.5s24 10.97 24 24.5-10.75 24.5-24 24.5-24-10.97-24-24.5M350 1065c0-13.25 10.745-24 24-24s24 10.75 24 24-10.745 24-24 24-24-10.75-24-24m2 76c0-13.25 10.745-24 24-24s24 10.75 24 24-10.745 24-24 24-24-10.75-24-24m83-76.5c0-13.53 10.969-24.5 24.5-24.5s24.5 10.97 24.5 24.5-10.969 24.5-24.5 24.5-24.5-10.97-24.5-24.5m92-4.5c0-13.25 10.745-24 24-24s24 10.75 24 24-10.745 24-24 24-24-10.75-24-24m5-77.5c0-13.53 10.969-24.5 24.5-24.5s24.5 10.97 24.5 24.5-10.969 24.5-24.5 24.5-24.5-10.97-24.5-24.5m72 83.5c0-13.25 10.969-24 24.5-24s24.5 10.75 24.5 24-10.969 24-24.5 24-24.5-10.75-24.5-24m67-1c0-13.25 10.969-24 24.5-24s24.5 10.75 24.5 24-10.969 24-24.5 24-24.5-10.75-24.5-24m5 74.5c0-13.53 10.745-24.5 24-24.5s24 10.97 24 24.5-10.745 24.5-24 24.5-24-10.97-24-24.5m72-.5c0-13.25 10.745-24 24-24s24 10.75 24 24-10.745 24-24 24-24-10.75-24-24m-4-75.5c0-13.53 10.745-24.5 24-24.5s24 10.97 24 24.5-10.745 24.5-24 24.5-24-10.97-24-24.5m74-78.5c0-13.25 10.745-24 24-24s24 10.75 24 24-10.745 24-24 24-24-10.75-24-24m-1 154c0-13.25 10.969-24 24.5-24s24.5 10.75 24.5 24-10.969 24-24.5 24-24.5-10.75-24.5-24m-211 43c0-13.25 10.969-24 24.5-24s24.5 10.75 24.5 24-10.969 24-24.5 24-24.5-10.75-24.5-24"/><path fill="none" stroke="#000" stroke-miterlimit="8" stroke-width="20.625" d="M814.488 512.649 813.5 189.5"/><path fill="#404040" fill-rule="evenodd" d="M814 1060c0-13.25 10.745-24 24-24s24 10.75 24 24-10.745 24-24 24-24-10.75-24-24m87 0c0-13.25 10.75-24 24-24s24 10.75 24 24-10.75 24-24 24-24-10.75-24-24m110 3.5c0-13.53 10.97-24.5 24.5-24.5s24.5 10.97 24.5 24.5-10.97 24.5-24.5 24.5-24.5-10.97-24.5-24.5m134 0c0-13.53 10.97-24.5 24.5-24.5s24.5 10.97 24.5 24.5-10.97 24.5-24.5 24.5-24.5-10.97-24.5-24.5m84-.5c0-13.25 10.97-24 24.5-24s24.5 10.75 24.5 24-10.97 24-24.5 24-24.5-10.75-24.5-24m-217-73.5c0-13.53 10.75-24.5 24-24.5s24 10.97 24 24.5-10.75 24.5-24 24.5-24-10.97-24-24.5m130-4.5c0-13.25 10.75-24 24-24s24 10.75 24 24-10.75 24-24 24-24-10.75-24-24m-61 82.5c0-13.53 10.97-24.5 24.5-24.5s24.5 10.97 24.5 24.5-10.97 24.5-24.5 24.5-24.5-10.97-24.5-24.5m-4 71.5c0-13.25 10.97-24 24.5-24s24.5 10.75 24.5 24-10.97 24-24.5 24-24.5-10.75-24.5-24m-66 0c0-13.25 10.75-24 24-24s24 10.75 24 24-10.75 24-24 24-24-10.75-24-24m298-76.5c0-13.53 10.75-24.5 24-24.5s24 10.97 24 24.5-10.75 24.5-24 24.5-24-10.97-24-24.5m-161 76.5c0-13.25 10.75-24 24-24s24 10.75 24 24-10.75 24-24 24-24-10.75-24-24m67 3.5c0-13.53 10.97-24.5 24.5-24.5s24.5 10.97 24.5 24.5-10.97 24.5-24.5 24.5-24.5-10.97-24.5-24.5"/><text fill="#c00000" font-family="DengXian,DengXian_MSFontService,sans-serif" font-size="83" font-weight="400" transform="translate(688.1 127)">Gate</text><path fill="#404040" fill-rule="evenodd" d="M901 1141c0-13.25 10.75-24 24-24s24 10.75 24 24-10.75 24-24 24-24-10.75-24-24"/><text fill="#c00000" font-family="DengXian,DengXian_MSFontService,sans-serif" font-size="83" font-weight="400" transform="translate(1359.3 384)">Drain</text><text fill="#c00000" font-family="DengXian,DengXian_MSFontService,sans-serif" font-size="83" font-weight="400" transform="translate(52.335 350)">Source</text><path fill="#ff424e" fill-rule="evenodd" d="M851 702c0-13.255 10.745-24 24-24 13.25 0 24 10.745 24 24s-10.75 24-24 24c-13.255 0-24-10.745-24-24"/><path fill="#4472c4" fill-rule="evenodd" stroke="#2f528f" stroke-miterlimit="8" stroke-width="4.583" d="M920.5 26.834c0-11.23 9.1-20.334 20.33-20.334h458.34c11.23 0 20.33 9.104 20.33 20.334v81.333-.001c0 11.23-9.1 20.334-20.33 20.334h-270.75L847.636 267.178 1003.67 128.5h-62.84c-11.23 0-20.33-9.104-20.33-20.334v.001-30.5Z"/><text fill="#fff" font-family="DengXian,DengXian_MSFontService,sans-serif" font-size="55" font-weight="400" transform="translate(1059.67 85)">加上电压</text><path fill="#4472c4" fill-rule="evenodd" stroke="#2f528f" stroke-miterlimit="8" stroke-width="4.583" d="M1049.5 199.334c0-13.716 11.12-24.834 24.83-24.834h460.34c13.71 0 24.83 11.118 24.83 24.834v99.333-.001c0 13.715-11.12 24.834-24.83 24.834H1262L832.612 739.977 1134.5 323.5h-60.17c-13.71 0-24.83-11.119-24.83-24.834v.001-37.25Z"/><text fill="#fff" font-family="DengXian,DengXian_MSFontService,sans-serif" font-size="55" font-weight="400" transform="translate(1111.4 234)">电子被吸引过来</text><text fill="#fff" font-family="DengXian,DengXian_MSFontService,sans-serif" font-size="55" font-weight="400" transform="translate(1193.9 300)">形成导体</text></svg>