<svg xmlns="http://www.w3.org/2000/svg" xml:space="preserve" width="4153" height="1897" overflow="hidden"><text font-family="Lantinghei SC,Lantinghei SC_MSFontService,sans-serif" font-size="83" font-weight="200" transform="translate(270.48 106)">时间</text><text font-family="Lantinghei SC,Lantinghei SC_MSFontService,sans-serif" font-size="83" font-weight="200" transform="translate(435.48 106)">（</text><text font-family="Courier New,Courier New_MSFontService,sans-serif" font-size="83" font-weight="400" transform="translate(517.063 106)">ps</text><text font-family="Lantinghei SC,Lantinghei SC_MSFontService,sans-serif" font-size="83" font-weight="200" transform="translate(613.771 106)">）</text><text font-family="Courier New,Courier New_MSFontService,sans-serif" font-size="83" font-weight="400" transform="translate(695.355 104)">0</text><text font-family="Courier New,Courier New_MSFontService,sans-serif" font-size="83" font-weight="400" transform="translate(898.17 104)">200</text><text font-family="Courier New,Courier New_MSFontService,sans-serif" font-size="83" font-weight="400" transform="translate(1158.04 104)">400</text><text font-family="Courier New,Courier New_MSFontService,sans-serif" font-size="83" font-weight="400" transform="translate(1417.92 104)">600</text><text font-family="Courier New,Courier New_MSFontService,sans-serif" font-size="83" font-weight="400" transform="translate(1677.79 104)">800</text><text font-family="Courier New,Courier New_MSFontService,sans-serif" font-size="83" font-weight="400" transform="translate(1913.64 103)">1000</text><text font-family="Courier New,Courier New_MSFontService,sans-serif" font-size="83" font-weight="400" transform="translate(2171.64 103)">1200</text><text font-family="Courier New,Courier New_MSFontService,sans-serif" font-size="83" font-weight="400" transform="translate(2429.91 103)">1400</text><text font-family="Courier New,Courier New_MSFontService,sans-serif" font-size="83" font-weight="400" transform="translate(2687.9 103)">1600</text><text font-family="Courier New,Courier New_MSFontService,sans-serif" font-size="83" font-weight="400" transform="translate(2946.17 103)">1800</text><text font-family="Courier New,Courier New_MSFontService,sans-serif" font-size="83" font-weight="400" transform="translate(3203.76 103)">2000</text><text font-family="Courier New,Courier New_MSFontService,sans-serif" font-size="83" font-weight="400" transform="translate(3462.03 103)">2200</text><text font-family="Courier New,Courier New_MSFontService,sans-serif" font-size="83" font-weight="400" transform="translate(3719.84 103)">2400</text><path fill="none" stroke="#000" stroke-linejoin="round" stroke-miterlimit="10" stroke-width="4.583" d="M974.63 156.5v57.862M1234.52 156.5v57.862M1494.36 156.5v57.862M1754.2 156.5v57.862M2014.04 156.5v57.862M2273.93 156.5v57.862M2533.77 156.5v57.862M2793.61 156.5v57.862M3053.5 156.5v57.862M3313.34 156.5v57.862M3573.18 156.5v57.862M714.792 156.5v57.862M3833.03 156.5v57.862M712.5 158.793h3122.82"/><path fill="#c0504d" fill-rule="evenodd" d="M707.95 475.112h259.87v133.605H707.95ZM967.82 475.112h259.88v133.605H967.82ZM1227.7 475.112h259.87v133.605H1227.7Z"/><path fill="#c0504d" fill-rule="evenodd" d="M1487.57 475.112h259.88v133.605h-259.88ZM1747.45 475.112h259.87v133.605h-259.87Z"/><path fill="none" stroke="#000" stroke-linejoin="round" stroke-miterlimit="10" stroke-width="4.583" d="M967.82 472.821v138.187M1227.7 472.821v138.187M1487.57 472.821v138.187M1747.45 472.821v138.187M707.95 472.821v138.187M2007.32 472.821v138.187M705.658 475.112H2009.62M705.658 608.717H2009.62"/><text fill="#fff" font-family="Arial,Arial_MSFontService,sans-serif" font-size="83" font-weight="700" transform="translate(1808.64 570)">WB</text><text fill="#fff" font-family="Arial,Arial_MSFontService,sans-serif" font-size="83" font-weight="700" transform="translate(1521.26 570)">MEM</text><text fill="#fff" font-family="Arial,Arial_MSFontService,sans-serif" font-size="83" font-weight="700" transform="translate(1302.87 570)">EX</text><text fill="#fff" font-family="Arial,Arial_MSFontService,sans-serif" font-size="83" font-weight="700" transform="translate(1057.89 570)">ID</text><text fill="#fff" font-family="Arial,Arial_MSFontService,sans-serif" font-size="83" font-weight="700" transform="translate(802.481 570)">IF</text><path fill="#c00000" fill-rule="evenodd" d="m730.468 668-1.695 1L696 687.95l32.773 18.96 1.695 1 2.201-.55 1.008-1.72 1.008-1.69-.596-2.18-1.696-.95-16.108-9.32h-13.18v-7.09h13.18l16.108-9.32 1.696-.95.596-2.19-1.008-1.68-1.008-1.72z"/><path fill="#c00000" fill-rule="evenodd" d="M716.285 684.41h-13.18v7.09h13.18l-.864-.5h-10.529v-6.09h10.529z"/><path fill="#c00000" fill-rule="evenodd" d="M724.556 684.41h-8.271l-6.129 3.54 6.129 3.55h8.271zM753.157 684.41h-21.451v7.09h21.451zM704.892 684.91V691l5.264-3.05z"/><path fill="#c00000" fill-rule="evenodd" d="m710.156 687.95-5.264 3.05h10.529zM715.421 684.91h-10.529l5.264 3.04zM781.758 684.41h-21.451v7.09h21.451zM810.36 684.41h-21.451v7.09h21.451zM838.961 684.41H817.51v7.09h21.451zM867.56 684.41h-21.45v7.09h21.45zM896.16 684.41h-21.45v7.09h21.45zM924.77 684.41h-21.46v7.09h21.46zM953.37 684.41h-21.45v7.09h21.45zM981.97 684.41h-21.45v7.09h21.45zM1010.57 684.41h-21.45v7.09h21.45zM1039.17 684.41h-21.45v7.09h21.45zM1067.77 684.41h-21.45v7.09h21.45zM1096.37 684.41h-21.45v7.09h21.45zM1124.97 684.41h-21.45v7.09h21.45zM1153.58 684.41h-21.45v7.09h21.45zM1182.18 684.41h-21.45v7.09h21.45zM1210.78 684.41h-21.45v7.09h21.45zM1239.38 684.41h-21.45v7.09h21.45zM1267.98 684.41h-21.45v7.09h21.45zM1296.58 684.41h-21.45v7.09h21.45zM1325.18 684.41h-21.45v7.09h21.45zM1353.79 684.41h-21.46v7.09h21.46zM1382.39 684.41h-21.45v7.09h21.45zM1410.99 684.41h-21.45v7.09h21.45zM1439.59 684.41h-21.45v7.09h21.45zM1468.19 684.41h-21.45v7.09h21.45zM1496.79 684.41h-21.45v7.09h21.45zM1525.39 684.41h-21.45v7.09h21.45zM1554 684.41h-21.46v7.09H1554zM1582.6 684.41h-21.45v7.09h21.45zM1611.2 684.41h-21.45v7.09h21.45zM1639.8 684.41h-21.45v7.09h21.45zM1668.4 684.41h-21.45v7.09h21.45zM1697 684.41h-21.45v7.09H1697zM1725.6 684.41h-21.45v7.09h21.45zM1754.21 684.41h-21.46v7.09h21.46zM1782.81 684.41h-21.45v7.09h21.45zM1811.41 684.41h-21.45v7.09h21.45zM1840.01 684.41h-21.45v7.09h21.45zM1868.61 684.41h-21.45v7.09h21.45zM1897.21 684.41h-21.45v7.09h21.45zM1925.81 684.41h-21.45v7.09h21.45zM1954.41 684.41h-21.45v7.09h21.45zM1983.02 691.25l-16.55 9.57-1.7.95-.59 2.18 1.01 1.69 1 1.72 2.2.55 1.7-1 26.64-15.41h-13.71zM1982.58 684.41h-21.01v7.09h21.01l.44-.25v-6.59z"/><path fill="#c00000" fill-rule="evenodd" d="m1988.71 687.95-5.69 3.3v.25h7.15v-2.7zM1990.17 688.8v2.7h5.63v-.5h-1.83z"/><path fill="#c00000" fill-rule="evenodd" d="M1996.73 684.41h-.93v7.09h.93l6.13-3.55zM1993.97 684.91l-3.8 2.2v1.69l3.8 2.2zM1995.8 684.91h-1.83V691h1.83zM1990.17 687.11l-1.46.84 1.46.85zM1990.17 684.41h-7.15v.25l5.69 3.29 1.46-.84z"/><path fill="#c00000" fill-rule="evenodd" d="M1995.8 684.41h-5.63v2.7l3.8-2.2h1.83z"/><path fill="#c00000" fill-rule="evenodd" d="m1968.39 668-2.2.55-1 1.72-1.01 1.68.59 2.19 1.7.95 16.55 9.57v-.25h13.71L1970.09 669z"/><path fill="#f8f8f8" d="M1194 621h378v133h-378z"/><text fill="#c00000" font-family="Arial,Arial_MSFontService,sans-serif" font-size="83" font-weight="400" transform="translate(1248.23 715)">1000ps</text><text font-family="Courier New,Courier New_MSFontService,sans-serif" font-size="83" font-weight="400" transform="translate(166.268 571)">$1,100($0)</text><text font-family="Courier New,Courier New_MSFontService,sans-serif" font-size="83" font-weight="400" transform="translate(18.799 571)">lw</text><text font-family="Courier New,Courier New_MSFontService,sans-serif" font-size="83" font-weight="400" transform="translate(166.268 730)">$2,100($0)</text><text font-family="Courier New,Courier New_MSFontService,sans-serif" font-size="83" font-weight="400" transform="translate(18.799 730)">lw</text><text font-family="Courier New,Courier New_MSFontService,sans-serif" font-size="83" font-weight="400" transform="translate(166.268 894)">$3,100($0)</text><text font-family="Courier New,Courier New_MSFontService,sans-serif" font-size="83" font-weight="400" transform="translate(18.799 894)">lw</text><text font-family="Courier New,Courier New_MSFontService,sans-serif" font-size="83" font-weight="400" transform="translate(167.987 1303)">$1,100($0)</text><text font-family="Courier New,Courier New_MSFontService,sans-serif" font-size="83" font-weight="400" transform="translate(20.679 1303)">lw</text><text font-family="Courier New,Courier New_MSFontService,sans-serif" font-size="83" font-weight="400" transform="translate(167.987 1470)">$2,100($0)</text><text font-family="Courier New,Courier New_MSFontService,sans-serif" font-size="83" font-weight="400" transform="translate(20.748 1470)">lw</text><text font-family="Courier New,Courier New_MSFontService,sans-serif" font-size="83" font-weight="400" transform="translate(167.987 1640)">$3,100($0)</text><text font-family="Courier New,Courier New_MSFontService,sans-serif" font-size="83" font-weight="400" transform="translate(20.748 1640)">lw</text><path fill="#1f487c" fill-rule="evenodd" d="m758.346 1400-1.689 1.02L724 1420.45l32.657 19.43 1.689 1.03 2.193-.56 1.005-1.77 1.005-1.73-.594-2.23-1.69-.98-16.051-9.55h-13.181v-7.27h13.181l16.051-9.55 1.69-.98.594-2.24-1.005-1.72-1.005-1.77z"/><path fill="#1f487c" fill-rule="evenodd" d="M744.214 1416.82h-13.181v7.27h13.181l-.862-.52H732.86v-6.24h10.492z"/><path fill="#1f487c" fill-rule="evenodd" d="M752.409 1416.82h-8.195l-6.108 3.63 6.108 3.64h8.195zM780.909 1416.82h-21.375v7.27h21.375zM732.86 1417.33v6.24l5.246-3.12z"/><path fill="#1f487c" fill-rule="evenodd" d="m738.106 1420.45-5.246 3.12h10.492zM743.352 1417.33H732.86l5.246 3.12zM809.41 1416.82h-21.375v7.27h21.375zM837.911 1416.82h-21.376v7.27h21.376zM866.41 1416.82h-21.37v7.27h21.37zM894.91 1416.82h-21.37v7.27h21.37zM936.8 1420.45l-22.16 13.19-1.69.98-.59 2.23 1 1.73 1.01 1.77 2.19.56 1.69-1.03 26.55-15.79h-.93v-.52h-1.82zM923.41 1416.82h-21.37v7.27h21.37z"/><path fill="#1f487c" fill-rule="evenodd" d="M930.69 1416.82h-.15v7.27h.15l6.11-3.64zM944.8 1416.82h-.93v7.27h.93l6.11-3.64z"/><path fill="#1f487c" fill-rule="evenodd" d="m942.05 1417.33-5.25 3.12 5.25 3.12zM943.87 1417.33h-1.82v6.24h1.82z"/><path fill="#1f487c" fill-rule="evenodd" d="m916.56 1400-2.19.56-1.01 1.77-1 1.72.59 2.24 1.69.98 22.16 13.18 5.25-3.12h1.82v-.51h.93l-26.55-15.8z"/><path fill="#c0504d" fill-rule="evenodd" d="M2013.88 636.31h259.87v133.6h-259.87ZM2273.75 636.31h259.88v133.6h-259.88ZM2533.63 636.31h259.87v133.6h-259.87ZM2793.5 636.31h259.88v133.6H2793.5ZM3053.38 636.31h259.87v133.6h-259.87Z"/><path fill="none" stroke="#000" stroke-linejoin="round" stroke-miterlimit="10" stroke-width="4.583" d="M2273.75 634.02V772.2M2533.63 634.02V772.2M2793.5 634.02V772.2M3053.38 634.02V772.2M2013.88 634.02V772.2M3313.25 634.02V772.2M2011.59 636.31h1303.95M2011.59 769.91h1303.95"/><text fill="#fff" font-family="Arial,Arial_MSFontService,sans-serif" font-size="83" font-weight="700" transform="translate(3114.79 732)">WB</text><text fill="#fff" font-family="Arial,Arial_MSFontService,sans-serif" font-size="83" font-weight="700" transform="translate(2827.42 732)">MEM</text><text fill="#fff" font-family="Arial,Arial_MSFontService,sans-serif" font-size="83" font-weight="700" transform="translate(2608.8 732)">EX</text><text fill="#fff" font-family="Arial,Arial_MSFontService,sans-serif" font-size="83" font-weight="700" transform="translate(2364.05 732)">ID</text><text fill="#fff" font-family="Arial,Arial_MSFontService,sans-serif" font-size="83" font-weight="700" transform="translate(2108.52 732)">IF</text><text fill="#c00000" font-family="Lantinghei SC,Lantinghei SC_MSFontService,sans-serif" font-size="110" font-weight="200" transform="translate(1477.86 404)">单周期处理器</text><text fill="#c00000" font-family="Lantinghei SC,Lantinghei SC_MSFontService,sans-serif" font-size="92" font-weight="200" transform="translate(2136.48 404)">（时钟周期</text><text fill="#c00000" font-family="Lantinghei SC,Lantinghei SC_MSFontService,sans-serif" font-size="92" font-weight="200" transform="translate(2594.82 404)">1000ps</text><text fill="#c00000" font-family="Lantinghei SC,Lantinghei SC_MSFontService,sans-serif" font-size="92" font-weight="200" transform="translate(2912.9 404)">）</text><text fill="#4f81bc" font-family="Lantinghei SC,Lantinghei SC_MSFontService,sans-serif" font-size="110" font-weight="200" transform="translate(1477.86 1141)">流水线处理器</text><text fill="#4f81bc" font-family="Lantinghei SC,Lantinghei SC_MSFontService,sans-serif" font-size="92" font-weight="200" transform="translate(2136.48 1141)">（时钟周期</text><text fill="#4f81bc" font-family="Lantinghei SC,Lantinghei SC_MSFontService,sans-serif" font-size="92" font-weight="200" transform="translate(2594.82 1141)">200ps</text><text fill="#4f81bc" font-family="Lantinghei SC,Lantinghei SC_MSFontService,sans-serif" font-size="92" font-weight="200" transform="translate(2861.8 1141)">）</text><path fill="#c00000" fill-rule="evenodd" d="m2051.47 840-1.7 1.03-32.77 19.42 32.77 19.43 1.7 1.03 2.2-.56 1.01-1.77 1.01-1.73-.6-2.23-1.7-.98-16.1-9.55h-13.19v-7.27h13.19l16.1-9.55 1.7-.98.6-2.24-1.01-1.72-1.01-1.77z"/><path fill="#c00000" fill-rule="evenodd" d="M2037.29 856.82h-13.19v7.27h13.19l-.87-.52h-10.53v-6.24h10.53z"/><path fill="#c00000" fill-rule="evenodd" d="M2045.56 856.82h-8.27l-6.13 3.63 6.13 3.64h8.27zM2074.16 856.82h-21.45v7.27h21.45z"/><path fill="#c00000" fill-rule="evenodd" d="M2025.89 857.33v6.24l5.27-3.12z"/><path fill="#c00000" fill-rule="evenodd" d="m2031.16 860.45-5.27 3.12h10.53zM2036.42 857.33h-10.53l5.27 3.12zM2102.76 856.82h-21.45v7.27h21.45zM2131.36 856.82h-21.45v7.27h21.45zM2159.96 856.82h-21.45v7.27h21.45zM2188.56 856.82h-21.45v7.27h21.45zM2217.16 856.82h-21.45v7.27h21.45zM2245.77 856.82h-21.46v7.27h21.46zM2274.37 856.82h-21.45v7.27h21.45zM2302.97 856.82h-21.45v7.27h21.45zM2331.57 856.82h-21.45v7.27h21.45zM2360.17 856.82h-21.45v7.27h21.45zM2388.77 856.82h-21.45v7.27h21.45zM2417.37 856.82h-21.45v7.27h21.45zM2445.97 856.82h-21.45v7.27h21.45zM2474.58 856.82h-21.45v7.27h21.45zM2503.18 856.82h-21.45v7.27h21.45zM2531.78 856.82h-21.45v7.27h21.45zM2560.38 856.82h-21.45v7.27h21.45zM2588.98 856.82h-21.45v7.27h21.45zM2617.58 856.82h-21.45v7.27h21.45zM2646.18 856.82h-21.45v7.27h21.45zM2674.79 856.82h-21.46v7.27h21.46zM2703.39 856.82h-21.45v7.27h21.45zM2731.99 856.82h-21.45v7.27h21.45zM2760.59 856.82h-21.45v7.27h21.45zM2789.19 856.82h-21.45v7.27h21.45zM2817.79 856.82h-21.45v7.27h21.45zM2846.39 856.82h-21.45v7.27h21.45zM2875 856.82h-21.46v7.27H2875zM2903.6 856.82h-21.45v7.27h21.45zM2932.2 856.82h-21.45v7.27h21.45zM2960.8 856.82h-21.45v7.27h21.45zM2989.4 856.82h-21.45v7.27h21.45zM3018 856.82h-21.45v7.27H3018zM3046.6 856.82h-21.45v7.27h21.45zM3075.2 856.82h-21.45v7.27h21.45zM3103.81 856.82h-21.45v7.27h21.45zM3132.41 856.82h-21.45v7.27h21.45zM3161.01 856.82h-21.45v7.27h21.45zM3189.61 856.82h-21.45v7.27h21.45zM3218.21 856.82h-21.45v7.27h21.45zM3246.81 856.82h-21.45v7.27h21.45zM3275.41 856.82h-21.45v7.27h21.45zM3304.02 863.83l-16.55 9.81-1.7.98-.59 2.23 1.01 1.73 1 1.77 2.2.56 1.7-1.03 26.64-15.79h-13.71zM3303.58 856.82h-21.02v7.27h21.02l.44-.26v-6.75z"/><path fill="#c00000" fill-rule="evenodd" d="m3309.71 860.45-5.69 3.38v.26h7.15v-2.77zM3311.17 861.32v2.77h5.59v-.52h-1.79zM3317.73 856.82h-.97v7.27h.97l6.13-3.64z"/><path fill="#c00000" fill-rule="evenodd" d="m3314.97 857.33-3.8 2.26v1.73l3.8 2.25zM3316.76 857.33h-1.79v6.24h1.79z"/><path fill="#c00000" fill-rule="evenodd" d="m3311.17 859.59-1.46.86 1.46.87z"/><path fill="#c00000" fill-rule="evenodd" d="M3311.17 856.82h-7.15v.26l5.69 3.37 1.46-.86zM3316.76 856.82h-5.59v2.77l3.8-2.26h1.79z"/><path fill="#c00000" fill-rule="evenodd" d="m3289.39 840-2.2.56-1 1.77-1.01 1.72.59 2.24 1.7.98 16.55 9.81v-.26h13.71l-26.64-15.79z"/><path fill="#f8f8f8" d="M2528 794h365v133h-365z"/><text fill="#c00000" font-family="Arial,Arial_MSFontService,sans-serif" font-size="83" font-weight="400" transform="translate(2576.35 888)">1000ps</text><path fill="#c0504d" fill-rule="evenodd" d="M3321.23 792.05h259.87v133.6h-259.87ZM3581.1 792.05h259.88v133.6H3581.1Z"/><path fill="none" stroke="#000" stroke-linejoin="round" stroke-miterlimit="10" stroke-width="4.583" d="M3581.1 789.76v138.19M3321.23 789.76v138.19M3840.98 789.76v138.19M3318.94 792.05h524.33M3318.94 925.65h524.33"/><text fill="#fff" font-family="Arial,Arial_MSFontService,sans-serif" font-size="83" font-weight="700" transform="translate(3671.51 887)">ID</text><text fill="#fff" font-family="Arial,Arial_MSFontService,sans-serif" font-size="83" font-weight="700" transform="translate(3416.1 887)">IF</text><path fill="#c00000" fill-rule="evenodd" d="m3359.47 996-1.7 1-32.77 18.95 32.77 18.96 1.7 1 2.2-.55 1.01-1.72.96-1.69-.55-2.18-1.7-.95-16.11-9.32h-13.22v-7.09h13.22l16.11-9.32 1.7-.95.55-2.19-.96-1.68-1.01-1.72z"/><path fill="#c00000" fill-rule="evenodd" d="M3345.28 1012.41h-13.22v7.09h13.22l-.86-.5h-10.53v-6.09h10.53z"/><path fill="#c00000" fill-rule="evenodd" d="M3353.51 1012.41h-8.23l-6.12 3.54 6.12 3.55h8.23zM3382.11 1012.41h-21.45v7.09h21.45zM3333.89 1012.91v6.09l5.27-3.05z"/><path fill="#c00000" fill-rule="evenodd" d="m3339.16 1015.95-5.27 3.05h10.53zM3344.42 1012.91h-10.53l5.27 3.04zM3410.71 1012.41h-21.45v7.09h21.45zM3439.31 1012.41h-21.45v7.09h21.45zM3467.91 1012.41h-21.45v7.09h21.45zM3496.51 1012.41h-21.45v7.09h21.45zM3525.11 1012.41h-21.45v7.09h21.45zM3553.71 1012.41h-21.45v7.09h21.45zM3582.31 1012.41h-21.45v7.09h21.45zM3610.91 1012.41h-21.45v7.09h21.45zM3639.51 1012.41h-21.45v7.09h21.45zM3668.11 1012.41h-21.45v7.09h21.45zM3696.71 1012.41h-21.45v7.09h21.45zM3725.31 1012.41h-21.45v7.09h21.45zM3753.91 1012.41h-21.45v7.09h21.45zM3782.51 1012.41h-21.45v7.09h21.45zM3811.11 1012.41h-21.45v7.09h21.45zM3839.71 1012.41h-21.45v7.09h21.45zM3868.31 1012.41h-21.45v7.09h21.45zM3896.91 1012.41h-21.45v7.09h21.45zM3925.51 1012.41h-21.45v7.09h21.45zM3954.11 1012.41h-21.45v7.09h21.45zM3982.71 1012.41h-21.45v7.09h21.45zM4011.31 1012.41h-21.45v7.09h21.45zM4039.91 1012.41h-21.45v7.09h21.45zM4068.51 1012.41h-21.45v7.09h21.45zM4097.11 1012.41h-21.45v7.09h21.45zM4132.86 1017.68l-19.25 11.14-1.7.95-.59 2.18 1.01 1.69 1 1.72 2.2.55 1.7-1 26.64-15.41h-11.01zM4125.71 1012.41h-21.45v7.09h21.45z"/><path fill="#c00000" fill-rule="evenodd" d="m4135.84 1015.95-2.98 1.73v1.82h10.08v-.5h-1.83z"/><path fill="#c00000" fill-rule="evenodd" d="M4143.87 1012.41h-.93v7.09h.93l6.13-3.55zM4141.11 1012.91l-5.27 3.04 5.27 3.05zM4142.94 1012.91h-1.83v6.09h1.83zM4132.86 1014.23v3.45l2.98-1.73z"/><path fill="#c00000" fill-rule="evenodd" d="M4142.94 1012.41h-10.08v1.82l2.98 1.72 5.27-3.04h1.83z"/><path fill="#c00000" fill-rule="evenodd" d="m4115.53 996-2.2.55-1 1.72-1.01 1.68.59 2.19 1.7.95 19.25 11.14v-1.82h11.01L4117.23 997z"/><path fill="#f8f8f8" d="M3581 949h362v133h-362z"/><text fill="#c00000" font-family="Arial,Arial_MSFontService,sans-serif" font-size="83" font-weight="400" transform="translate(3627.44 1044)">1000ps</text><path fill="#4f81bc" fill-rule="evenodd" d="M711.8 1217.57h259.87v133.6H711.8ZM971.67 1217.57h259.88v133.6H971.67ZM1231.55 1217.57h259.87v133.6h-259.87ZM1491.42 1217.57h259.88v133.6h-259.88Z"/><path fill="#4f81bc" fill-rule="evenodd" d="M1751.3 1217.57h259.87v133.6H1751.3Z"/><path fill="none" stroke="#fff" stroke-linejoin="round" stroke-miterlimit="10" stroke-width="4.583" d="M971.67 1215.27v142.78M1231.55 1215.27v142.78M1491.42 1215.27v142.78M1751.3 1215.27v142.78M711.8 1215.27v142.78M2011.17 1215.27v142.78M709.508 1217.57H2013.47"/><path fill="none" stroke="#fff" stroke-linejoin="round" stroke-miterlimit="10" stroke-width="13.75" d="M709.508 1351.17H2013.47"/><text fill="#fff" font-family="Arial,Arial_MSFontService,sans-serif" font-size="83" font-weight="700" transform="translate(1812.72 1313)">WB</text><text fill="#fff" font-family="Arial,Arial_MSFontService,sans-serif" font-size="83" font-weight="700" transform="translate(1525.34 1313)">MEM</text><text fill="#fff" font-family="Arial,Arial_MSFontService,sans-serif" font-size="83" font-weight="700" transform="translate(1306.49 1313)">EX</text><text fill="#fff" font-family="Arial,Arial_MSFontService,sans-serif" font-size="83" font-weight="700" transform="translate(1061.85 1313)">ID</text><text fill="#fff" font-family="Arial,Arial_MSFontService,sans-serif" font-size="83" font-weight="700" transform="translate(806.216 1313)">IF</text><path fill="#4f81bc" fill-rule="evenodd" d="M969.25 1380.73h259.87v133.84H969.25ZM1229.12 1380.73H1489v133.84h-259.88ZM1489 1380.73h259.87v133.84H1489ZM1748.87 1380.73h259.88v133.84h-259.88ZM2008.75 1380.73h259.87v133.84h-259.87Z"/><path fill="none" stroke="#fff" stroke-linejoin="round" stroke-miterlimit="10" stroke-width="4.583" d="M1229.12 1378.44v143M1489 1378.44v143M1748.87 1378.44v143M2008.75 1378.44v143M969.25 1378.44v143M2268.62 1378.44v143M966.95 1380.73h1303.96"/><path fill="none" stroke="#fff" stroke-linejoin="round" stroke-miterlimit="10" stroke-width="13.75" d="M966.95 1514.57h1303.96"/><text fill="#fff" font-family="Arial,Arial_MSFontService,sans-serif" font-size="83" font-weight="700" transform="translate(2070.16 1476)">WB</text><text fill="#fff" font-family="Arial,Arial_MSFontService,sans-serif" font-size="83" font-weight="700" transform="translate(1782.79 1476)">MEM</text><text fill="#fff" font-family="Arial,Arial_MSFontService,sans-serif" font-size="83" font-weight="700" transform="translate(1563.93 1476)">EX</text><text fill="#fff" font-family="Arial,Arial_MSFontService,sans-serif" font-size="83" font-weight="700" transform="translate(1319.3 1476)">ID</text><text fill="#fff" font-family="Arial,Arial_MSFontService,sans-serif" font-size="83" font-weight="700" transform="translate(1063.78 1476)">IF</text><path fill="#4f81bc" fill-rule="evenodd" d="M1231.6 1546.7h259.87v133.6H1231.6ZM1491.47 1546.7h259.88v133.6h-259.88ZM1751.35 1546.7h259.87v133.6h-259.87ZM2011.22 1546.7h259.88v133.6h-259.88ZM2271.1 1546.7h259.87v133.6H2271.1Z"/><path fill="none" stroke="#fff" stroke-linejoin="round" stroke-miterlimit="10" stroke-width="4.583" d="M1491.47 1544.4v142.77M1751.35 1544.4v142.77M2011.22 1544.4v142.77M2271.1 1544.4v142.77M1231.6 1544.4v142.77M2530.97 1544.4v142.77M1229.3 1546.7h1303.96"/><path fill="none" stroke="#fff" stroke-linejoin="round" stroke-miterlimit="10" stroke-width="13.75" d="M1229.3 1680.3h1303.96"/><text fill="#fff" font-family="Arial,Arial_MSFontService,sans-serif" font-size="83" font-weight="700" transform="translate(2332.51 1642)">WB</text><text fill="#fff" font-family="Arial,Arial_MSFontService,sans-serif" font-size="83" font-weight="700" transform="translate(2045.14 1642)">MEM</text><text fill="#fff" font-family="Arial,Arial_MSFontService,sans-serif" font-size="83" font-weight="700" transform="translate(1826.51 1642)">EX</text><text fill="#fff" font-family="Arial,Arial_MSFontService,sans-serif" font-size="83" font-weight="700" transform="translate(1581.65 1642)">ID</text><text fill="#fff" font-family="Arial,Arial_MSFontService,sans-serif" font-size="83" font-weight="700" transform="translate(1326.24 1642)">IF</text><path fill="#1f487c" fill-rule="evenodd" d="m1023.5 1552-1.7 1-32.8 18.95 32.8 18.96 1.7 1 2.2-.55 1.01-1.72 1.01-1.69-.6-2.18-1.69-.95-16.13-9.32h-13.24v-7.09h13.24l16.13-9.32 1.69-.95.6-2.19-1.01-1.68-1.01-1.73z"/><path fill="#1f487c" fill-rule="evenodd" d="M1009.3 1568.41h-13.24v7.09h13.24l-.86-.5H997.9v-6.09h10.54z"/><path fill="#1f487c" fill-rule="evenodd" d="M1017.53 1568.41h-8.23l-6.13 3.54 6.13 3.55h8.23zM1046.16 1568.41h-21.47v7.09h21.47zM997.9 1568.91v6.09l5.27-3.05z"/><path fill="#1f487c" fill-rule="evenodd" d="m1003.17 1571.95-5.27 3.05h10.54zM1008.44 1568.91H997.9l5.27 3.04zM1074.79 1568.41h-21.47v7.09h21.47zM1103.41 1568.41h-21.47v7.09h21.47zM1132.04 1568.41h-21.47v7.09h21.47zM1160.67 1568.41h-21.47v7.09h21.47zM1202.74 1571.95l-22.26 12.87-1.69.95-.6 2.18 1.01 1.69 1.01 1.72 2.2.55 1.7-1 26.66-15.41h-.93v-.5h-1.83zM1189.29 1568.41h-21.47v7.09h21.47z"/><path fill="#1f487c" fill-rule="evenodd" d="M1196.61 1568.41h-.16v7.09h.16l6.13-3.55zM1210.77 1568.41h-.93v7.09h.93l6.14-3.55zM1208.01 1568.91l-5.27 3.04 5.27 3.05zM1209.84 1568.91h-1.83v6.09h1.83z"/><path fill="#1f487c" fill-rule="evenodd" d="m1182.41 1552-2.2.54-1.01 1.73-1.01 1.68.6 2.19 1.69.95 22.26 12.86 5.27-3.04h1.83v-.5h.93l-26.66-15.41zM1285.5 1712l-34.5 19.96 34.5 19.96 2.2-.57 2.02-3.39-.6-2.17-17.79-10.29h-13.27v-7.09h13.27l17.79-10.28.6-2.18-2.02-3.38z"/><path fill="#1f487c" fill-rule="evenodd" d="M1271.33 1728.41h-13.27v7.09h13.27l-.83-.48h-10.6v-6.12h10.6z"/><path fill="#1f487c" fill-rule="evenodd" d="M1279.53 1728.41h-8.2l-6.13 3.55 6.13 3.54h8.2zM1308.16 1728.41h-21.47v7.09h21.47z"/><path fill="#1f487c" fill-rule="evenodd" d="M1259.9 1728.9v6.12l5.3-3.06z"/><path fill="#1f487c" fill-rule="evenodd" d="m1265.2 1731.96-5.3 3.06h10.6zM1270.5 1728.9h-10.6l5.3 3.06zM1336.79 1728.41h-21.47v7.09h21.47zM1365.41 1728.41h-21.47v7.09h21.47zM1394.04 1728.41h-21.47v7.09h21.47zM1422.67 1728.41h-21.47v7.09h21.47zM1464.71 1731.96l-23.92 13.83-.6 2.17 2.02 3.39 2.2.57 28.37-16.42h-.94v-.48h-1.83zM1451.29 1728.41h-21.47v7.09h21.47zM1458.58 1728.41h-.13v7.09h.13l6.13-3.54z"/><path fill="#1f487c" fill-rule="evenodd" d="M1472.78 1728.41h-.94v7.09h.94l6.13-3.54zM1470.01 1728.9l-5.3 3.06 5.3 3.06zM1471.84 1728.9h-1.83v6.12h1.83z"/><path fill="#1f487c" fill-rule="evenodd" d="m1444.41 1712-2.2.57-2.02 3.38.6 2.18 23.92 13.83 5.3-3.06h1.83v-.49h.94zM1539.35 1712l-34.35 19.96 34.35 19.96 2.19-.57 2.01-3.39-.59-2.17-17.72-10.29h-13.21v-7.09h13.21l17.72-10.28.59-2.18-2.01-3.38z"/><path fill="#1f487c" fill-rule="evenodd" d="M1525.24 1728.41h-13.21v7.09h13.21l-.83-.48h-10.55v-6.12h10.55z"/><path fill="#1f487c" fill-rule="evenodd" d="M1533.41 1728.41h-8.17l-6.1 3.55 6.1 3.54h8.17zM1561.91 1728.41h-21.38v7.09h21.38zM1513.86 1728.9v6.12l5.28-3.06zM1519.14 1731.96l-5.28 3.06h10.55z"/><path fill="#1f487c" fill-rule="evenodd" d="M1524.41 1728.9h-10.55l5.28 3.06zM1590.41 1728.41h-21.38v7.09h21.38zM1618.91 1728.41h-21.37v7.09h21.37zM1647.41 1728.41h-21.37v7.09h21.37zM1675.91 1728.41h-21.37v7.09h21.37zM1717.77 1731.96l-23.82 13.83-.59 2.17 2.01 3.39 2.19.57 28.25-16.42h-.94v-.48h-1.82zM1704.41 1728.41h-21.37v7.09h21.37zM1711.67 1728.41h-.13v7.09h.13l6.1-3.54z"/><path fill="#1f487c" fill-rule="evenodd" d="M1725.81 1728.41h-.94v7.09h.94l6.1-3.54zM1723.05 1728.9l-5.28 3.06 5.28 3.06zM1724.87 1728.9h-1.82v6.12h1.82z"/><path fill="#1f487c" fill-rule="evenodd" d="m1697.56 1712-2.19.57-2.01 3.38.59 2.18 23.82 13.83 5.28-3.06h1.82v-.49h.94zM1800.5 1712l-34.5 19.96 34.5 19.96 2.2-.57 2.02-3.39-.6-2.17-17.79-10.29h-13.27v-7.09h13.27l17.79-10.28.6-2.18-2.02-3.38z"/><path fill="#1f487c" fill-rule="evenodd" d="M1786.33 1728.41h-13.27v7.09h13.27l-.83-.48h-10.6v-6.12h10.6z"/><path fill="#1f487c" fill-rule="evenodd" d="M1794.53 1728.41h-8.2l-6.13 3.55 6.13 3.54h8.2zM1823.16 1728.41h-21.47v7.09h21.47z"/><path fill="#1f487c" fill-rule="evenodd" d="M1774.9 1728.9v6.12l5.3-3.06z"/><path fill="#1f487c" fill-rule="evenodd" d="m1780.2 1731.96-5.3 3.06h10.6zM1785.5 1728.9h-10.6l5.3 3.06zM1851.79 1728.41h-21.47v7.09h21.47zM1880.41 1728.41h-21.47v7.09h21.47zM1909.04 1728.41h-21.47v7.09h21.47zM1937.67 1728.41h-21.47v7.09h21.47zM1979.71 1731.96l-23.92 13.83-.6 2.17 2.02 3.39 2.2.57 28.37-16.42h-.94v-.48h-1.83zM1966.29 1728.41h-21.47v7.09h21.47zM1973.58 1728.41h-.13v7.09h.13l6.13-3.54z"/><path fill="#1f487c" fill-rule="evenodd" d="M1987.78 1728.41h-.94v7.09h.94l6.13-3.54zM1985.01 1728.9l-5.3 3.06 5.3 3.06zM1986.84 1728.9h-1.83v6.12h1.83z"/><path fill="#1f487c" fill-rule="evenodd" d="m1959.41 1712-2.2.57-2.02 3.38.6 2.18 23.92 13.83 5.3-3.06h1.83v-.49h.94zM2053.5 1712l-34.5 19.96 34.5 19.96 2.2-.57 2.02-3.39-.6-2.17-17.79-10.29h-13.27v-7.09h13.27l17.79-10.28.6-2.18-2.02-3.38z"/><path fill="#1f487c" fill-rule="evenodd" d="M2039.33 1728.41h-13.27v7.09h13.27l-.83-.48h-10.6v-6.12h10.6z"/><path fill="#1f487c" fill-rule="evenodd" d="M2047.53 1728.41h-8.2l-6.13 3.55 6.13 3.54h8.2zM2076.16 1728.41h-21.47v7.09h21.47z"/><path fill="#1f487c" fill-rule="evenodd" d="M2027.9 1728.9v6.12l5.3-3.06z"/><path fill="#1f487c" fill-rule="evenodd" d="m2033.2 1731.96-5.3 3.06h10.6zM2038.5 1728.9h-10.6l5.3 3.06zM2104.79 1728.41h-21.47v7.09h21.47zM2133.41 1728.41h-21.47v7.09h21.47zM2162.04 1728.41h-21.47v7.09h21.47zM2190.66 1728.41h-21.46v7.09h21.46zM2232.71 1731.96l-23.92 13.83-.6 2.17 2.02 3.39 2.2.57 28.37-16.42h-.94v-.48h-1.83zM2219.29 1728.41h-21.47v7.09h21.47zM2226.58 1728.41h-.13v7.09h.13l6.13-3.54z"/><path fill="#1f487c" fill-rule="evenodd" d="M2240.78 1728.41h-.94v7.09h.94l6.13-3.54zM2238.01 1728.9l-5.3 3.06 5.3 3.06zM2239.84 1728.9h-1.83v6.12h1.83z"/><path fill="#1f487c" fill-rule="evenodd" d="m2212.41 1712-2.2.57-2.02 3.38.6 2.18 23.92 13.83 5.3-3.06h1.83v-.49h.94zM2315.35 1712l-34.35 19.96 34.35 19.96 2.19-.57 2.01-3.39-.59-2.17-17.72-10.29h-13.21v-7.09h13.21l17.72-10.28.59-2.18-2.01-3.38z"/><path fill="#1f487c" fill-rule="evenodd" d="M2301.24 1728.41h-13.21v7.09h13.21l-.83-.48h-10.55v-6.12h10.55z"/><path fill="#1f487c" fill-rule="evenodd" d="M2309.41 1728.41h-8.17l-6.1 3.55 6.1 3.54h8.17zM2337.91 1728.41h-21.38v7.09h21.38z"/><path fill="#1f487c" fill-rule="evenodd" d="M2289.86 1728.9v6.12l5.28-3.06z"/><path fill="#1f487c" fill-rule="evenodd" d="m2295.14 1731.96-5.28 3.06h10.55zM2300.41 1728.9h-10.55l5.28 3.06zM2366.41 1728.41h-21.37v7.09h21.37zM2394.91 1728.41h-21.37v7.09h21.37zM2423.41 1728.41h-21.37v7.09h21.37zM2451.91 1728.41h-21.37v7.09h21.37zM2493.77 1731.96l-23.82 13.83-.59 2.17 2.01 3.39 2.19.57 28.25-16.42h-.94v-.48h-1.82zM2480.41 1728.41h-21.37v7.09h21.37zM2487.67 1728.41h-.13v7.09h.13l6.1-3.54z"/><path fill="#1f487c" fill-rule="evenodd" d="M2501.81 1728.41h-.94v7.09h.94l6.1-3.54zM2499.05 1728.9l-5.28 3.06 5.28 3.06z"/><path fill="#1f487c" fill-rule="evenodd" d="M2500.87 1728.9h-1.82v6.12h1.82z"/><path fill="#1f487c" fill-rule="evenodd" d="m2473.56 1712-2.19.57-2.01 3.38.59 2.18 23.82 13.83 5.28-3.06h1.82v-.49h.94z"/><text fill="#1f487c" font-family="Arial,Arial_MSFontService,sans-serif" font-size="83" font-weight="400" transform="translate(725.458 1519)">200ps</text><text fill="#1f487c" font-family="Arial,Arial_MSFontService,sans-serif" font-size="83" font-weight="400" transform="translate(991.06 1673)">200ps</text><text fill="#1f487c" font-family="Arial,Arial_MSFontService,sans-serif" font-size="83" font-weight="400" transform="translate(1253 1827)">200ps</text><text fill="#1f487c" font-family="Arial,Arial_MSFontService,sans-serif" font-size="83" font-weight="400" transform="translate(1505.08 1827)">200ps</text><text fill="#1f487c" font-family="Arial,Arial_MSFontService,sans-serif" font-size="83" font-weight="400" transform="translate(1765.19 1827)">200ps</text><text fill="#1f487c" font-family="Arial,Arial_MSFontService,sans-serif" font-size="83" font-weight="400" transform="translate(2017.27 1827)">200ps</text><text fill="#1f487c" font-family="Arial,Arial_MSFontService,sans-serif" font-size="83" font-weight="400" transform="translate(2277.38 1827)">200ps</text></svg>