<svg xmlns="http://www.w3.org/2000/svg" xml:space="preserve" width="4111" height="2113" overflow="hidden"><text font-family="Arial,Arial_MSFontService,sans-serif" font-size="73" font-weight="700" transform="translate(2337.49 238)">EAX</text><text font-family="Arial,Arial_MSFontService,sans-serif" font-size="73" font-weight="700" transform="translate(2335.29 359)">EBX</text><text font-family="Arial,Arial_MSFontService,sans-serif" font-size="73" font-weight="700" transform="translate(2335.29 480)">ECX</text><text font-family="Arial,Arial_MSFontService,sans-serif" font-size="73" font-weight="700" transform="translate(2335.29 601)">EDX</text><text fill="#375f92" font-family="Arial,Arial_MSFontService,sans-serif" font-size="73" font-weight="700" transform="translate(3965.72 223)">AX</text><text fill="#375f92" font-family="Arial,Arial_MSFontService,sans-serif" font-size="73" font-weight="700" transform="translate(3965.72 345)">BX</text><text fill="#375f92" font-family="Arial,Arial_MSFontService,sans-serif" font-size="73" font-weight="700" transform="translate(3965.72 466)">CX</text><text fill="#375f92" font-family="Arial,Arial_MSFontService,sans-serif" font-size="73" font-weight="700" transform="translate(3965.72 587)">DX</text><text font-family="Arial,Arial_MSFontService,sans-serif" font-size="73" font-weight="700" transform="translate(2339.14 722)">ESP</text><text font-family="Arial,Arial_MSFontService,sans-serif" font-size="73" font-weight="700" transform="translate(2335.29 843)">EBP</text><text font-family="Arial,Arial_MSFontService,sans-serif" font-size="73" font-weight="700" transform="translate(2367.74 964)">ESI</text><text font-family="Arial,Arial_MSFontService,sans-serif" font-size="73" font-weight="700" transform="translate(2363.89 1085)">EDI</text><text font-family="Arial,Arial_MSFontService,sans-serif" font-size="73" font-weight="700" transform="translate(2367.74 1207)">EIP</text><text font-family="Arial,Arial_MSFontService,sans-serif" font-size="73" font-weight="700" transform="translate(2191.74 1328)">EFLAGS</text><text font-family="Arial,Arial_MSFontService,sans-serif" font-size="83" font-weight="400" transform="translate(1076.48 111)">64</text><text font-family="Lantinghei SC,Lantinghei SC_MSFontService,sans-serif" font-size="83" font-weight="200" transform="translate(1167.23 111)">位</text><text font-family="Arial,Arial_MSFontService,sans-serif" font-size="83" font-weight="400" transform="translate(2476.32 111)">32</text><text font-family="Lantinghei SC,Lantinghei SC_MSFontService,sans-serif" font-size="83" font-weight="200" transform="translate(2567.07 111)">位</text><text font-family="Arial,Arial_MSFontService,sans-serif" font-size="83" font-weight="400" transform="translate(3170.56 111)">16</text><text font-family="Lantinghei SC,Lantinghei SC_MSFontService,sans-serif" font-size="83" font-weight="200" transform="translate(3261.31 111)">位</text><text font-family="Arial,Arial_MSFontService,sans-serif" font-size="83" font-weight="400" transform="translate(3551.8 111)">8</text><text font-family="Lantinghei SC,Lantinghei SC_MSFontService,sans-serif" font-size="83" font-weight="200" transform="translate(3597.17 111)">位</text><path fill="#9bba58" fill-rule="evenodd" d="M6.486 284.733h641.896v120.771H6.486Z"/><path fill="#f79546" fill-rule="evenodd" d="M6.486 614.504h641.896V735.28H6.486Z"/><path fill="#4f81bc" fill-rule="evenodd" d="M6.486 944.28h641.896v120.77H6.486Z"/><path fill="none" stroke="#000" stroke-dasharray="4.58333 4.58333" stroke-linejoin="round" stroke-miterlimit="10" stroke-width="4.583" d="M6.486 150.442V1276.11M648.382 150.442V1276.11M4.194 152.733h646.479M4.194 1273.82h646.479"/><text font-family="Lantinghei SC,Lantinghei SC_MSFontService,sans-serif" font-size="83" font-weight="900" transform="translate(246.08 238)">说明</text><text font-family="Lantinghei SC,Lantinghei SC_MSFontService,sans-serif" font-size="73" font-weight="200" transform="translate(32.611 489)">代表</text><text font-family="Arial,Arial_MSFontService,sans-serif" font-size="73" font-weight="400" transform="translate(176.528 489)">x86</text><text font-family="Arial,Arial_MSFontService,sans-serif" font-size="73" font-weight="400" transform="translate(293.173 489)">-</text><text font-family="Arial,Arial_MSFontService,sans-serif" font-size="73" font-weight="400" transform="translate(317.35 489)">64</text><text font-family="Lantinghei SC,Lantinghei SC_MSFontService,sans-serif" font-size="73" font-weight="200" transform="translate(397.788 489)">寄存器</text><text font-family="Lantinghei SC,Lantinghei SC_MSFontService,sans-serif" font-size="73" font-weight="200" transform="translate(71.111 576)">模型的新增部分</text><text font-family="Lantinghei SC,Lantinghei SC_MSFontService,sans-serif" font-size="73" font-weight="200" transform="translate(56.673 818)">代表</text><text font-family="Arial,Arial_MSFontService,sans-serif" font-size="73" font-weight="400" transform="translate(201.048 818)">IA</text><text font-family="Arial,Arial_MSFontService,sans-serif" font-size="73" font-weight="400" transform="translate(268.538 818)">-</text><text font-family="Arial,Arial_MSFontService,sans-serif" font-size="73" font-weight="400" transform="translate(292.257 818)">32</text><text font-family="Lantinghei SC,Lantinghei SC_MSFontService,sans-serif" font-size="73" font-weight="200" transform="translate(372.694 818)">寄存器</text><text font-family="Lantinghei SC,Lantinghei SC_MSFontService,sans-serif" font-size="73" font-weight="200" transform="translate(71.111 905)">模型的新增部分</text><text font-family="Lantinghei SC,Lantinghei SC_MSFontService,sans-serif" font-size="73" font-weight="200" transform="translate(135.965 1148)">代表</text><text font-family="Arial,Arial_MSFontService,sans-serif" font-size="73" font-weight="400" transform="translate(280.34 1148)">8086</text><text font-family="Lantinghei SC,Lantinghei SC_MSFontService,sans-serif" font-size="73" font-weight="200" transform="translate(441.215 1148)">的</text><text font-family="Lantinghei SC,Lantinghei SC_MSFontService,sans-serif" font-size="73" font-weight="200" transform="translate(144.215 1235)">寄存器模型</text><text font-family="Arial,Arial_MSFontService,sans-serif" font-size="73" font-weight="700" transform="translate(931.14 223)">RAX</text><text font-family="Arial,Arial_MSFontService,sans-serif" font-size="73" font-weight="700" transform="translate(929.08 345)">RBX</text><text font-family="Arial,Arial_MSFontService,sans-serif" font-size="73" font-weight="700" transform="translate(929.08 466)">RCX</text><text font-family="Arial,Arial_MSFontService,sans-serif" font-size="73" font-weight="700" transform="translate(929.08 587)">RDX</text><text font-family="Arial,Arial_MSFontService,sans-serif" font-size="73" font-weight="700" transform="translate(929.08 709)">RSP</text><text font-family="Arial,Arial_MSFontService,sans-serif" font-size="73" font-weight="700" transform="translate(929.08 830)">RBP</text><text font-family="Arial,Arial_MSFontService,sans-serif" font-size="73" font-weight="700" transform="translate(929.08 952)">RSI</text><text font-family="Arial,Arial_MSFontService,sans-serif" font-size="73" font-weight="700" transform="translate(929.08 1073)">RDI</text><text font-family="Arial,Arial_MSFontService,sans-serif" font-size="73" font-weight="700" transform="translate(929.08 1195)">RIP</text><text font-family="Arial,Arial_MSFontService,sans-serif" font-size="73" font-weight="700" transform="translate(785.62 1328)">RFLAGS</text><path fill="#9bba58" fill-rule="evenodd" d="M227.435 1564.81H1598.77v121H227.435ZM1598.77 1564.81h722.56v121h-722.56ZM2321.33 1564.81h381.1v121h-381.1ZM2702.43 1564.81h369.65v121h-369.65ZM227.435 1685.81H1598.77v120.77H227.435ZM1598.77 1685.81h722.56v120.77h-722.56ZM2321.33 1685.81h381.1v120.77h-381.1ZM2702.43 1685.81h369.65v120.77h-369.65ZM227.435 1806.58H1598.77v121H227.435ZM1598.77 1806.58h722.56v121h-722.56ZM2321.33 1806.58h381.1v121h-381.1ZM2702.43 1806.58h369.65v121h-369.65ZM227.435 1927.58H1598.77v121H227.435ZM1598.77 1927.58h722.56v121h-722.56ZM2321.33 1927.58h381.1v121h-381.1ZM2702.43 1927.58h369.65v121h-369.65Z"/><path fill="none" stroke="#000" stroke-linejoin="round" stroke-miterlimit="10" stroke-width="4.583" d="M1598.77 1562.52v488.36M2321.33 1562.52v488.36M2702.43 1562.52v488.36M225.143 1685.81H3074.37M225.143 1806.58H3074.37M225.143 1927.58H3074.37M227.435 1562.52v488.36M3072.08 1562.52v488.36M225.143 1564.81H3074.37M225.143 2048.58H3074.37"/><text font-family="Arial,Arial_MSFontService,sans-serif" font-size="83" font-weight="400" transform="translate(148.785 1522)">64</text><text font-family="Lantinghei SC,Lantinghei SC_MSFontService,sans-serif" font-size="83" font-weight="200" transform="translate(239.535 1522)">位</text><text font-family="Arial,Arial_MSFontService,sans-serif" font-size="73" font-weight="700" transform="translate(102.722 1640)">R8 </text><text font-family="Arial,Arial_MSFontService,sans-serif" font-size="73" font-weight="700" transform="translate(102.722 1761)">R9</text><text font-family="Arial,Arial_MSFontService,sans-serif" font-size="73" font-weight="700" transform="translate(135.264 1895)">...</text><text font-family="Arial,Arial_MSFontService,sans-serif" font-size="73" font-weight="700" transform="translate(62.16 2015)">R15</text><path fill="#9bba58" fill-rule="evenodd" d="M1114.47 148.058H2517.2v121H1114.47Z"/><path fill="#f79546" fill-rule="evenodd" d="M2517.2 148.058h706.07v121H2517.2Z"/><path fill="#4f81bc" fill-rule="evenodd" d="M3223.27 148.058h353.37v121h-353.37ZM3576.64 148.058h353.38v121h-353.38Z"/><path fill="#9bba58" fill-rule="evenodd" d="M1114.47 269.058H2517.2v120.771H1114.47Z"/><path fill="#f79546" fill-rule="evenodd" d="M2517.2 269.058h706.07v120.771H2517.2Z"/><path fill="#4f81bc" fill-rule="evenodd" d="M3223.27 269.058h353.37v120.771h-353.37ZM3576.64 269.058h353.38v120.771h-353.38Z"/><path fill="#9bba58" fill-rule="evenodd" d="M1114.47 389.829H2517.2V510.6H1114.47Z"/><path fill="#f79546" fill-rule="evenodd" d="M2517.2 389.829h706.07V510.6H2517.2Z"/><path fill="#4f81bc" fill-rule="evenodd" d="M3223.27 389.829h353.37V510.6h-353.37ZM3576.64 389.829h353.38V510.6h-353.38Z"/><path fill="#9bba58" fill-rule="evenodd" d="M1114.47 510.6H2517.2v121H1114.47Z"/><path fill="#f79546" fill-rule="evenodd" d="M2517.2 510.6h706.07v121H2517.2Z"/><path fill="#4f81bc" fill-rule="evenodd" d="M3223.27 510.6h353.37v121h-353.37ZM3576.64 510.6h353.38v121h-353.38Z"/><path fill="#9bba58" fill-rule="evenodd" d="M1114.47 631.6H2517.2v120.77H1114.47Z"/><path fill="#f79546" fill-rule="evenodd" d="M2517.2 631.6h706.07v120.77H2517.2Z"/><path fill="#4f81bc" fill-rule="evenodd" d="M3223.27 631.6h706.75v120.77h-706.75Z"/><path fill="#9bba58" fill-rule="evenodd" d="M1114.47 752.37H2517.2v121H1114.47Z"/><path fill="#f79546" fill-rule="evenodd" d="M2517.2 752.37h706.07v121H2517.2Z"/><path fill="#4f81bc" fill-rule="evenodd" d="M3223.27 752.37h706.75v121h-706.75Z"/><path fill="#9bba58" fill-rule="evenodd" d="M1114.47 873.37H2517.2v120.77H1114.47Z"/><path fill="#f79546" fill-rule="evenodd" d="M2517.2 873.37h706.07v120.77H2517.2Z"/><path fill="#4f81bc" fill-rule="evenodd" d="M3223.27 873.37h706.75v120.77h-706.75Z"/><path fill="#9bba58" fill-rule="evenodd" d="M1114.47 994.14H2517.2v121H1114.47Z"/><path fill="#f79546" fill-rule="evenodd" d="M2517.2 994.14h706.07v121H2517.2Z"/><path fill="#4f81bc" fill-rule="evenodd" d="M3223.27 994.14h706.75v121h-706.75Z"/><path fill="#9bba58" fill-rule="evenodd" d="M1114.47 1115.14H2517.2v121H1114.47Z"/><path fill="#f79546" fill-rule="evenodd" d="M2517.2 1115.14h706.07v121H2517.2Z"/><path fill="#4f81bc" fill-rule="evenodd" d="M3223.27 1115.14h706.75v121h-706.75Z"/><path fill="#9bba58" fill-rule="evenodd" d="M1114.47 1236.14H2517.2v120.77H1114.47Z"/><path fill="#f79546" fill-rule="evenodd" d="M2517.2 1236.14h706.07v120.77H2517.2Z"/><path fill="#4f81bc" fill-rule="evenodd" d="M3223.27 1236.14h706.75v120.77h-706.75ZM3223.27 1356.91h706.75v121h-706.75ZM3223.27 1477.91h706.75v121h-706.75ZM3223.27 1598.91h706.75v121h-706.75ZM3223.27 1719.91h706.75v121h-706.75Z"/><path fill="#f79546" fill-rule="evenodd" d="M3223.27 1840.91h706.75v121h-706.75ZM3223.27 1961.91h706.75v121h-706.75Z"/><path fill="none" stroke="#000" stroke-linejoin="round" stroke-miterlimit="10" stroke-width="6.875" d="M2517.2 145.766V1359.2"/><path fill="none" stroke="#000" stroke-linejoin="round" stroke-miterlimit="10" stroke-width="4.583" d="M3223.27 145.766V2085.2M3576.64 145.766v488.125M1112.18 269.058h2820.13M1112.18 389.829h2820.13M1112.18 510.6h2820.13M1112.18 631.6h2820.13M1112.18 752.37h2820.13M1112.18 873.37h2820.13M1112.18 994.14h2820.13M1112.18 1115.14h2820.13M1112.18 1236.14h2820.13M1112.18 1356.91h2820.13M3220.97 1477.91h711.34M3220.97 1598.91h711.34M3220.97 1719.91h711.34M3220.97 1840.91h711.34M3220.97 1961.91h711.34M1114.47 145.766V1359.2M3930.02 145.766V2085.2M1112.18 148.058h2820.13M3220.97 2082.91h711.34"/><text fill="#fff" font-family="Arial,Arial_MSFontService,sans-serif" font-size="73" font-weight="700" transform="translate(3705.78 234)">AL</text><text fill="#fff" font-family="Arial,Arial_MSFontService,sans-serif" font-size="73" font-weight="700" transform="translate(3348.39 234)">AH</text><text fill="#fff" font-family="Arial,Arial_MSFontService,sans-serif" font-size="73" font-weight="700" transform="translate(3706.12 355)">BL</text><text fill="#fff" font-family="Arial,Arial_MSFontService,sans-serif" font-size="73" font-weight="700" transform="translate(3348.85 355)">BH</text><text fill="#fff" font-family="Arial,Arial_MSFontService,sans-serif" font-size="73" font-weight="700" transform="translate(3706.12 476)">CL</text><text fill="#fff" font-family="Arial,Arial_MSFontService,sans-serif" font-size="73" font-weight="700" transform="translate(3348.85 476)">CH</text><text fill="#fff" font-family="Arial,Arial_MSFontService,sans-serif" font-size="73" font-weight="700" transform="translate(3706.12 596)">DL</text><text fill="#fff" font-family="Arial,Arial_MSFontService,sans-serif" font-size="73" font-weight="700" transform="translate(3348.85 596)">DH</text><text fill="#fff" font-family="Arial,Arial_MSFontService,sans-serif" font-size="73" font-weight="700" transform="translate(3529.43 717)">SP</text><text fill="#fff" font-family="Arial,Arial_MSFontService,sans-serif" font-size="73" font-weight="700" transform="translate(3527.54 838)">BP</text><text fill="#fff" font-family="Arial,Arial_MSFontService,sans-serif" font-size="73" font-weight="700" transform="translate(3543.47 959)">SI</text><text fill="#fff" font-family="Arial,Arial_MSFontService,sans-serif" font-size="73" font-weight="700" transform="translate(3541.69 1080)">DI</text><text fill="#fff" font-family="Arial,Arial_MSFontService,sans-serif" font-size="73" font-weight="700" transform="translate(3543.35 1201)">IP</text><text fill="#fff" font-family="Arial,Arial_MSFontService,sans-serif" font-size="73" font-weight="700" transform="translate(3454.27 1322)">FLAGS</text><text fill="#fff" font-family="Arial,Arial_MSFontService,sans-serif" font-size="73" font-weight="700" transform="translate(3527.54 1443)">CS</text><text font-family="Arial,Arial_MSFontService,sans-serif" font-size="83" font-weight="400" transform="translate(1549.32 1518)">32</text><text font-family="Lantinghei SC,Lantinghei SC_MSFontService,sans-serif" font-size="83" font-weight="200" transform="translate(1640.07 1518)">位</text><text font-family="Arial,Arial_MSFontService,sans-serif" font-size="83" font-weight="400" transform="translate(2243.46 1518)">16</text><text font-family="Lantinghei SC,Lantinghei SC_MSFontService,sans-serif" font-size="83" font-weight="200" transform="translate(2334.21 1518)">位</text><text font-family="Arial,Arial_MSFontService,sans-serif" font-size="83" font-weight="400" transform="translate(2624.57 1518)">8</text><text font-family="Lantinghei SC,Lantinghei SC_MSFontService,sans-serif" font-size="83" font-weight="200" transform="translate(2669.94 1518)">位</text><text fill="#fff" font-family="Arial,Arial_MSFontService,sans-serif" font-size="73" font-weight="700" transform="translate(3527.54 1564)">DS</text><text fill="#fff" font-family="Arial,Arial_MSFontService,sans-serif" font-size="73" font-weight="700" transform="translate(3529.43 1685)">ES</text><text fill="#fff" font-family="Arial,Arial_MSFontService,sans-serif" font-size="73" font-weight="700" transform="translate(3529.43 1806)">SS</text><text fill="#fff" font-family="Arial,Arial_MSFontService,sans-serif" font-size="73" font-weight="700" transform="translate(3531.21 1927)">FS</text><text fill="#fff" font-family="Arial,Arial_MSFontService,sans-serif" font-size="73" font-weight="700" transform="translate(3524.91 2048)">GS</text></svg>