<svg xmlns="http://www.w3.org/2000/svg" xml:space="preserve" width="4248" height="2086" overflow="hidden"><path d="M1205.5 1437.19h562.91v20.62H1205.5Zm552.6-20.63 61.87 30.94-61.87 30.94Z"/><path fill="#ff0" fill-rule="evenodd" d="M1785.64 1768.19h660v217h-660Z"/><text fill="red" font-family="Microsoft YaHei,Microsoft YaHei_MSFontService,sans-serif" font-size="165" font-weight="700" transform="translate(1785.64 1946)">演化模型</text><path fill="#ed7d31" fill-rule="evenodd" stroke="#fff" stroke-miterlimit="8" stroke-width="4.583" d="M48.5 40.7c0-15.574 12.626-28.2 28.2-28.2h834.6c15.575 0 28.201 12.626 28.201 28.2v225.6c0 15.574-12.626 28.2-28.201 28.2H76.7c-15.574 0-28.2-12.626-28.2-28.2Z"/><text fill="#fff" font-family="DengXian,DengXian_MSFontService,sans-serif" font-size="142" font-weight="400" transform="translate(98.452 187)">需求</text><path fill="#ed7d31" fill-rule="evenodd" stroke="#fff" stroke-miterlimit="8" stroke-width="4.583" d="M114.5 361.8c0-15.63 12.67-28.3 28.3-28.3h834.4c15.63 0 28.3 12.67 28.3 28.3v226.4c0 15.63-12.67 28.3-28.3 28.3H142.8c-15.63 0-28.3-12.67-28.3-28.3Z"/><text fill="#fff" font-family="DengXian,DengXian_MSFontService,sans-serif" font-size="142" font-weight="400" transform="translate(164.989 508)">设计</text><path fill="#ed7d31" fill-rule="evenodd" stroke="#fff" stroke-miterlimit="8" stroke-width="4.583" d="M181.5 683.701c0-15.575 12.626-28.201 28.2-28.201h834.6c15.57 0 28.2 12.626 28.2 28.201V909.3c0 15.58-12.63 28.2-28.2 28.2H209.7c-15.574 0-28.2-12.62-28.2-28.2Z"/><text fill="#fff" font-family="DengXian,DengXian_MSFontService,sans-serif" font-size="142" font-weight="400" transform="translate(231.527 830)">编码</text><path fill="#ed7d31" fill-rule="evenodd" stroke="#fff" stroke-miterlimit="8" stroke-width="4.583" d="M247.5 1005.7c0-15.57 12.626-28.2 28.2-28.2h834.6c15.57 0 28.2 12.63 28.2 28.2v225.6c0 15.58-12.63 28.2-28.2 28.2H275.7c-15.574 0-28.2-12.62-28.2-28.2Z"/><text fill="#fff" font-family="DengXian,DengXian_MSFontService,sans-serif" font-size="142" font-weight="400" transform="translate(298.065 1152)">测试</text><path fill="#ed7d31" fill-rule="evenodd" stroke="#fff" stroke-miterlimit="8" stroke-width="4.583" d="M314.5 1326.8c0-15.63 12.67-28.3 28.3-28.3h834.4c15.63 0 28.3 12.67 28.3 28.3v226.4c0 15.63-12.67 28.3-28.3 28.3H342.8c-15.63 0-28.3-12.67-28.3-28.3Z"/><text fill="#fff" font-family="DengXian,DengXian_MSFontService,sans-serif" font-size="142" font-weight="400" transform="translate(364.602 1474)">集成</text><path fill="#f8d7cd" fill-opacity=".902" fill-rule="evenodd" stroke="#f8d7cd" stroke-miterlimit="8" stroke-opacity=".902" stroke-width="4.583" d="M755.5 319.15h41.4V218.5h101.2v100.65h41.4l-92 82.35Zm67 322h41.175V540.5h100.65v100.65h41.175L914 723.5Zm66 317h41.4V857.5h101.2v100.65h41.4l-92 82.35Zm67 325h41.18V1181.5h100.64v101.65h41.18l-91.5 82.35Z"/><path fill="#ed7d31" stroke="#172c51" stroke-miterlimit="8" stroke-width="4.583" d="M1370.5 12.5h256v1569h-256z"/><text fill="#fff" font-family="Microsoft YaHei,Microsoft YaHei_MSFontService,sans-serif" font-size="147" font-weight="700" transform="translate(1424.44 409)">开</text><text fill="#fff" font-family="Microsoft YaHei,Microsoft YaHei_MSFontService,sans-serif" font-size="147" font-weight="700" transform="translate(1424.44 1289)">发</text><path d="M1829.813 1447.35V218.06h-20.625v1229.29Zm20.625-1218.97L1819.5 166.5l-30.937 61.88Z"/><path fill="#4472c4" fill-rule="evenodd" stroke="#fff" stroke-miterlimit="8" stroke-width="4.583" d="M2116.5 40.7c0-15.574 12.63-28.2 28.2-28.2h834.6c15.57 0 28.2 12.626 28.2 28.2v225.6c0 15.574-12.63 28.2-28.2 28.2h-834.6c-15.57 0-28.2-12.626-28.2-28.2Z"/><text fill="#fff" font-family="DengXian,DengXian_MSFontService,sans-serif" font-size="142" font-weight="400" transform="translate(2166.54 187)">需求</text><path fill="#4472c4" fill-rule="evenodd" stroke="#fff" stroke-miterlimit="8" stroke-width="4.583" d="M2182.5 361.8c0-15.63 12.67-28.3 28.3-28.3h834.4c15.63 0 28.3 12.67 28.3 28.3v226.4c0 15.63-12.67 28.3-28.3 28.3h-834.4c-15.63 0-28.3-12.67-28.3-28.3Z"/><text fill="#fff" font-family="DengXian,DengXian_MSFontService,sans-serif" font-size="142" font-weight="400" transform="translate(2233.08 508)">设计</text><path fill="#4472c4" fill-rule="evenodd" stroke="#fff" stroke-miterlimit="8" stroke-width="4.583" d="M2249.5 683.701c0-15.575 12.63-28.201 28.2-28.201h834.6c15.57 0 28.2 12.626 28.2 28.201V909.3c0 15.58-12.63 28.2-28.2 28.2h-834.6c-15.57 0-28.2-12.62-28.2-28.2Z"/><text fill="#fff" font-family="DengXian,DengXian_MSFontService,sans-serif" font-size="142" font-weight="400" transform="translate(2299.61 830)">编码</text><path fill="#4472c4" fill-rule="evenodd" stroke="#fff" stroke-miterlimit="8" stroke-width="4.583" d="M2315.5 1005.7c0-15.57 12.63-28.2 28.2-28.2h834.6c15.57 0 28.2 12.63 28.2 28.2v225.6c0 15.58-12.63 28.2-28.2 28.2h-834.6c-15.57 0-28.2-12.62-28.2-28.2Z"/><text fill="#fff" font-family="DengXian,DengXian_MSFontService,sans-serif" font-size="142" font-weight="400" transform="translate(2366.15 1152)">测试</text><path fill="#4472c4" fill-rule="evenodd" stroke="#fff" stroke-miterlimit="8" stroke-width="4.583" d="M2382.5 1326.8c0-15.63 12.67-28.3 28.3-28.3h834.4c15.63 0 28.3 12.67 28.3 28.3v226.4c0 15.63-12.67 28.3-28.3 28.3h-834.4c-15.63 0-28.3-12.67-28.3-28.3Z"/><text fill="#fff" font-family="DengXian,DengXian_MSFontService,sans-serif" font-size="142" font-weight="400" transform="translate(2432.69 1474)">集成</text><path fill="#cfd5ea" fill-opacity=".902" fill-rule="evenodd" stroke="#cfd5ea" stroke-miterlimit="8" stroke-opacity=".902" stroke-width="4.583" d="M2823.5 319.15h41.4V218.5h101.2v100.65h41.4l-92 82.35Zm67 322h41.18V540.5h100.64v100.65h41.18L2982 723.5Zm66 317h41.4V857.5h101.2v100.65h41.4l-92 82.35Zm67 325h41.18V1181.5h100.64v101.65h41.18l-91.5 82.35Z"/><path d="m1819.5 156.187 244.88.001v20.625l-244.88-.001Zm234.57-20.624 61.87 30.937-61.87 30.938ZM3273.5 1437.19h562.91v20.62H3273.5Zm552.6-20.63 61.87 30.94-61.87 30.94Z"/><path fill="#4472c4" stroke="#4472c4" stroke-miterlimit="8" stroke-width="4.583" d="M3438.5 12.5h256v1569h-256z"/><text fill="#fff" font-family="Microsoft YaHei,Microsoft YaHei_MSFontService,sans-serif" font-size="147" font-weight="700" transform="translate(3492.44 409)">开</text><text fill="#fff" font-family="Microsoft YaHei,Microsoft YaHei_MSFontService,sans-serif" font-size="147" font-weight="700" transform="translate(3492.44 1289)">发</text><path d="M3897.813 1447.35V218.06h-20.625v1229.29Zm20.625-1218.97L3887.5 166.5l-30.937 61.88Z"/><path d="m3887.5 156.187 244.88.001v20.625l-244.88-.001Zm234.57-20.624 61.87 30.937-61.87 30.938Z"/><text font-family="DengXian,DengXian_MSFontService,sans-serif" font-size="128" font-weight="700" transform="translate(1849.33 770)">反</text><text font-family="DengXian,DengXian_MSFontService,sans-serif" font-size="128" font-weight="700" transform="translate(1849.33 924)">馈</text><text font-family="DengXian,DengXian_MSFontService,sans-serif" font-size="128" font-weight="700" transform="translate(3932.67 760)">反</text><text font-family="DengXian,DengXian_MSFontService,sans-serif" font-size="128" font-weight="700" transform="translate(3932.67 914)">馈</text></svg>