<svg xmlns="http://www.w3.org/2000/svg" xml:space="preserve" width="540" height="2007" overflow="hidden"><path fill="#a5a5a5" fill-rule="evenodd" stroke="#fff" stroke-miterlimit="8" stroke-width="4.583" d="M72.5 24.5c0-11.046 8.954-20 20-20h360c11.046 0 20 8.954 20 20v160c0 11.046-8.954 20-20 20h-360c-11.046 0-20-8.954-20-20Z"/><text fill="#fff" font-family="DengXian,DengXian_MSFontService,sans-serif" font-size="83" font-weight="400" transform="translate(106.581 123)">系统需求</text><path fill="#a5a5a5" fill-rule="evenodd" d="M298.2 216v37.5H316L271.5 291 227 253.5h17.8V216Z"/><path fill="#b09151" fill-rule="evenodd" stroke="#fff" stroke-miterlimit="8" stroke-width="4.583" d="M72.5 323.5c0-11.046 8.954-20 20-20h360c11.046 0 20 8.954 20 20v160c0 11.046-8.954 20-20 20h-360c-11.046 0-20-8.954-20-20Z"/><text fill="#fff" font-family="DengXian,DengXian_MSFontService,sans-serif" font-size="83" font-weight="400" transform="translate(106.581 422)">软件需求</text><path fill="#ae8b45" fill-rule="evenodd" d="M298.2 515v37.5H316L271.5 590 227 552.5h17.8V515Z"/><path fill="#ac770d" fill-rule="evenodd" stroke="#fff" stroke-miterlimit="8" stroke-width="4.583" d="M72.5 622.5c0-11.046 8.954-20 20-20h360c11.046 0 20 8.954 20 20v160c0 11.046-8.954 20-20 20h-360c-11.046 0-20-8.954-20-20Z"/><text fill="#fff" font-family="DengXian,DengXian_MSFontService,sans-serif" font-size="83" font-weight="400" transform="translate(106.581 721)">需求分析</text><path fill="#ab6e00" fill-rule="evenodd" d="M298.2 814v37.5H316L271.5 889 227 851.5h17.8V814Z"/><path fill="#ad6300" fill-rule="evenodd" stroke="#fff" stroke-miterlimit="8" stroke-width="4.583" d="M72.5 921.5c0-11.05 8.954-20 20-20h360c11.046 0 20 8.95 20 20v160c0 11.05-8.954 20-20 20h-360c-11.046 0-20-8.95-20-20Z"/><text fill="#fff" font-family="DengXian,DengXian_MSFontService,sans-serif" font-size="83" font-weight="400" transform="translate(189.081 1020)">设计</text><path fill="#ae5800" fill-rule="evenodd" d="M298.2 1113v37.5H316l-44.5 37.5-44.5-37.5h17.8V1113Z"/><path fill="#af5200" fill-rule="evenodd" stroke="#fff" stroke-miterlimit="8" stroke-width="4.583" d="M72.5 1220.5c0-11.05 8.954-20 20-20h360c11.046 0 20 8.95 20 20v160c0 11.05-8.954 20-20 20h-360c-11.046 0-20-8.95-20-20Z"/><text fill="#fff" font-family="DengXian,DengXian_MSFontService,sans-serif" font-size="83" font-weight="400" transform="translate(189.081 1319)">编码</text><path fill="#b14500" fill-rule="evenodd" d="M298.2 1412v37.5H316l-44.5 37.5-44.5-37.5h17.8V1412Z"/><path fill="#b14300" fill-rule="evenodd" stroke="#fff" stroke-miterlimit="8" stroke-width="4.583" d="M72.5 1520.4c0-10.99 8.909-19.9 19.9-19.9h360.2c10.991 0 19.9 8.91 19.9 19.9v159.2c0 10.99-8.909 19.9-19.9 19.9H92.4c-10.991 0-19.9-8.91-19.9-19.9Z"/><text fill="#fff" font-family="DengXian,DengXian_MSFontService,sans-serif" font-size="83" font-weight="400" transform="translate(189.081 1619)">测试</text><path fill="#b43500" fill-rule="evenodd" d="M298.2 1711v37.5H316l-44.5 37.5-44.5-37.5h17.8V1711Z"/><path fill="#b43500" fill-rule="evenodd" stroke="#fff" stroke-miterlimit="8" stroke-width="4.583" d="M72.5 1819.4c0-10.99 8.909-19.9 19.9-19.9h360.2c10.991 0 19.9 8.91 19.9 19.9v159.2c0 10.99-8.909 19.9-19.9 19.9H92.4c-10.991 0-19.9-8.91-19.9-19.9Z"/><text fill="#fff" font-family="DengXian,DengXian_MSFontService,sans-serif" font-size="83" font-weight="400" transform="translate(189.081 1918)">运行</text></svg>