<svg xmlns="http://www.w3.org/2000/svg" xml:space="preserve" width="3511" height="1307" overflow="hidden"><path fill="#f8d7cd" fill-opacity=".902" fill-rule="evenodd" stroke="#f8d7cd" stroke-miterlimit="8" stroke-opacity=".902" stroke-width="4.583" d="M1730.5 168.17v118.66c0 16.39-13.28 29.67-29.67 29.67H627.5v-178h1073.33c16.39 0 29.67 13.28 29.67 29.67Z"/><text font-family="DengXian,DengXian_MSFontService,sans-serif" font-size="101" font-weight="400" transform="translate(657.01 251)">•</text><text font-family="DengXian,DengXian_MSFontService,sans-serif" font-size="101" font-weight="400" transform="translate(739.51 251)">{1,2,5,9}</text><path fill="#ed7d31" fill-rule="evenodd" stroke="#fff" stroke-miterlimit="8" stroke-width="4.583" d="M6.5 153.5c0-20.43 16.566-37 37-37h547c20.43 0 37 16.57 37 37v148c0 20.43-16.57 37-37 37h-547c-20.434 0-37-16.57-37-37Z"/><text fill="#fff" font-family="DengXian,DengXian_MSFontService,sans-serif" font-size="128" font-weight="400" transform="translate(154.442 258)">增量</text><text fill="#fff" font-family="DengXian,DengXian_MSFontService,sans-serif" font-size="128" font-weight="400" transform="translate(411.109 258)">1</text><path fill="#e1e1e1" fill-opacity=".902" fill-rule="evenodd" stroke="#e1e1e1" stroke-miterlimit="8" stroke-opacity=".902" stroke-width="4.583" d="M1730.5 401v118c0 16.29-13.21 29.5-29.5 29.5H627.5v-177H1701c16.29 0 29.5 13.21 29.5 29.5Z"/><text font-family="DengXian,DengXian_MSFontService,sans-serif" font-size="101" font-weight="400" transform="translate(657.01 483)">•</text><text font-family="DengXian,DengXian_MSFontService,sans-serif" font-size="101" font-weight="400" transform="translate(739.51 483)">{3,6,7,4,10,11}</text><path fill="#a5a5a5" fill-rule="evenodd" stroke="#fff" stroke-miterlimit="8" stroke-width="4.583" d="M6.5 386.33c0-20.34 16.491-36.83 36.834-36.83H590.67c20.34 0 36.83 16.49 36.83 36.83v147.34c0 20.34-16.49 36.83-36.83 36.83H43.334C22.991 570.5 6.5 554.01 6.5 533.67Z"/><text fill="#fff" font-family="DengXian,DengXian_MSFontService,sans-serif" font-size="128" font-weight="400" transform="translate(154.442 490)">增量</text><text fill="#fff" font-family="DengXian,DengXian_MSFontService,sans-serif" font-size="128" font-weight="400" transform="translate(411.109 490)">2</text><path fill="#ffe8cb" fill-opacity=".902" fill-rule="evenodd" stroke="#ffe8cb" stroke-miterlimit="8" stroke-opacity=".902" stroke-width="4.583" d="M1730.5 634v118c0 16.29-13.21 29.5-29.5 29.5H627.5v-177H1701c16.29 0 29.5 13.21 29.5 29.5Z"/><text font-family="DengXian,DengXian_MSFontService,sans-serif" font-size="101" font-weight="400" transform="translate(657.01 716)">•</text><text font-family="DengXian,DengXian_MSFontService,sans-serif" font-size="101" font-weight="400" transform="translate(739.51 716)">{8,12,13}</text><path fill="#ffc000" fill-rule="evenodd" stroke="#fff" stroke-miterlimit="8" stroke-width="4.583" d="M6.5 619.33c0-20.34 16.491-36.83 36.834-36.83H590.67c20.34 0 36.83 16.49 36.83 36.83v147.34c0 20.34-16.49 36.83-36.83 36.83H43.334C22.991 803.5 6.5 787.01 6.5 766.67Z"/><text fill="#fff" font-family="DengXian,DengXian_MSFontService,sans-serif" font-size="128" font-weight="400" transform="translate(154.442 723)">增量</text><text fill="#fff" font-family="DengXian,DengXian_MSFontService,sans-serif" font-size="128" font-weight="400" transform="translate(411.109 723)">3</text><path fill="#fff" stroke="#70ad47" stroke-miterlimit="8" stroke-width="4.583" d="M1949.5 6.5h1555v1059h-1555z"/><path fill="#ff0" fill-rule="evenodd" d="M277.408 1034.16H951.16v172H277.408Z"/><text fill="red" font-family="DengXian Light,DengXian Light_MSFontService,sans-serif" font-size="165" font-weight="700" transform="translate(277.408 1162)">增量模型</text><path fill="#4472c4" stroke="#172c51" stroke-miterlimit="8" stroke-width="4.583" d="M2133.5 91.5h375v191h-375z"/><text fill="#fff" font-family="DengXian,DengXian_MSFontService,sans-serif" font-size="83" font-weight="400" transform="translate(2237.98 214)">管理</text><path fill="#4472c4" stroke="#172c51" stroke-miterlimit="8" stroke-width="4.583" d="M2133.5 310.5h456v191h-456z"/><text fill="#fff" font-family="DengXian,DengXian_MSFontService,sans-serif" font-size="83" font-weight="400" transform="translate(2195.87 433)">增量规约</text><path fill="#4472c4" stroke="#172c51" stroke-miterlimit="8" stroke-width="4.583" d="M2675.5 515.5h455v191h-455z"/><text fill="#fff" font-family="DengXian,DengXian_MSFontService,sans-serif" font-size="83" font-weight="400" transform="translate(2737.48 638)">增量设计</text><path fill="#4472c4" stroke="#172c51" stroke-miterlimit="8" stroke-width="4.583" d="M2894.5 803.5h456v191h-456z"/><text fill="#fff" font-family="DengXian,DengXian_MSFontService,sans-serif" font-size="83" font-weight="400" transform="translate(2956.96 926)">增量实现</text><path fill="#4472c4" stroke="#172c51" stroke-miterlimit="8" stroke-width="4.583" d="M2133.5 803.5h456v191h-456z"/><text fill="#fff" font-family="DengXian,DengXian_MSFontService,sans-serif" font-size="73" font-weight="400" transform="translate(2177.53 923)">纠错性分析</text><path fill="#4472c4" d="m2590.63 403.26 292.22 102.22-2.27 6.49-292.22-102.23Zm291.3 90.97 21.41 22.06-30.49 3.9ZM2903.89 703.36l198.52 87.87-2.78 6.29-198.52-87.88Zm198.51 76.59 19.58 23.7-30.71 1.44ZM2888.255 896.063h-291.946v6.875h291.946Zm-25.77 22.448 32.59-19.011-32.59-19.01a3.438 3.438 0 0 0-3.463 5.938l27.5 16.041v-5.938l-27.5 16.042a3.437 3.437 0 1 0 3.464 5.938m-240.408-38.022-32.59 19.011 32.59 19.011a3.438 3.438 0 0 0 3.465-5.938l-27.5-16.042v5.939l27.5-16.042a3.439 3.439 0 0 0-3.465-5.939M2364.94 508.31v288.71h-6.88V508.31Zm-22.45 25.76 19.01-32.59 19.01 32.59c.96 1.64.4 3.75-1.24 4.71-1.64.95-3.74.4-4.7-1.24l-16.04-27.5h5.94l-16.04 27.5a3.443 3.443 0 0 1-4.7 1.24 3.446 3.446 0 0 1-1.24-4.71m38.02 237.18-19.01 32.59-19.01-32.59c-.96-1.64-.4-3.75 1.24-4.7 1.64-.96 3.74-.41 4.7 1.23l16.04 27.5h-5.94l16.04-27.5a3.43 3.43 0 0 1 4.7-1.23c1.64.95 2.2 3.06 1.24 4.7"/><path fill="#4472c4" d="M2667.743 612.128 2365.5 797.542l3.595 5.86 302.242-185.414Zm-10.228 32.61 17.839-33.246-37.72.837a3.437 3.437 0 1 0 .152 6.873l31.829-.706-3.106-5.062-15.052 28.053a3.438 3.438 0 1 0 6.058 3.251M2379.32 770.794l-17.838 33.246 37.72-.837a3.437 3.437 0 1 0-.152-6.873l-31.829.706 3.105 5.062 15.052-28.053a3.438 3.438 0 0 0-6.058-3.251"/><path fill="red" d="m1731.15 183.12 196.87 37.71-1.29 6.75-196.88-37.7Zm194.31 26.72 24.42 18.68-29.59 8.33ZM1731.15 485.12l196.87 37.71-1.29 6.75-196.88-37.7Zm194.31 26.72 24.42 18.68-29.59 8.33ZM1735.15 682.12l196.87 37.71-1.29 6.75-196.88-37.7Zm194.31 26.72 24.42 18.68-29.59 8.33Z"/></svg>