<svg xmlns="http://www.w3.org/2000/svg" xml:space="preserve" width="1677" height="1953" overflow="hidden"><path fill="#fff" stroke="#000" stroke-miterlimit="8" stroke-width="10.313" d="M575 8h836v287H575z"/><path fill="none" stroke="#000" stroke-miterlimit="8" stroke-width="10.313" d="M575 539h836"/><text font-family="DengXian,DengXian_MSFontService,sans-serif" font-size="83" font-weight="400" transform="translate(329.76 161)">模块：</text><text font-family="DengXian,DengXian_MSFontService,sans-serif" font-size="83" font-weight="400" transform="translate(328.84 572)">调用：</text><path fill="#fff" stroke="#000" stroke-miterlimit="8" stroke-width="10.313" d="M593 978h494v144H593z"/><text font-family="DengXian,DengXian_MSFontService,sans-serif" font-size="83" font-weight="400" transform="translate(674.88 1077)">主控模块</text><path fill="#fff" stroke="#000" stroke-miterlimit="8" stroke-width="10.313" d="M8 1533h493v143H8z"/><text font-family="DengXian,DengXian_MSFontService,sans-serif" font-size="83" font-weight="400" transform="translate(151.08 1632)">取得</text><text font-family="DengXian,DengXian_MSFontService,sans-serif" font-size="83" font-weight="400" transform="translate(316.08 1632)">a</text><path fill="#fff" stroke="#000" stroke-miterlimit="8" stroke-width="10.313" d="M593 1533h494v143H593z"/><text font-family="DengXian,DengXian_MSFontService,sans-serif" font-size="83" font-weight="400" transform="translate(671.73 1632)">a</text><text font-family="DengXian,DengXian_MSFontService,sans-serif" font-size="83" font-weight="400" transform="translate(712.98 1632)">变换成</text><text font-family="DengXian,DengXian_MSFontService,sans-serif" font-size="83" font-weight="400" transform="translate(960.48 1632)">b</text><path fill="#fff" stroke="#000" stroke-miterlimit="8" stroke-width="10.313" d="M1179 1533h493v143h-493z"/><text font-family="DengXian,DengXian_MSFontService,sans-serif" font-size="83" font-weight="400" transform="translate(1319.28 1632)">输出</text><text font-family="DengXian,DengXian_MSFontService,sans-serif" font-size="83" font-weight="400" transform="translate(1484.28 1632)">b</text><path d="m828.362 1123.645-577.32 405.278 5.925 8.44 577.32-405.277Zm-7.305 38.92 18.643-40.579-44.499 3.746a5.156 5.156 0 0 0 .865 10.277l35.69-3.005-5.117-7.29-14.953 32.545a5.156 5.156 0 1 0 9.371 4.305"/><path d="M845.16 1132.21v390.72h-10.32v-390.72Zm-27.66 28.34 22.5-38.57 22.5 38.57c1.44 2.46.6 5.62-1.85 7.05-2.46 1.44-5.62.6-7.06-1.86l-18.04-30.93h8.9l-18.04 30.93c-1.44 2.46-4.6 3.3-7.06 1.86a5.155 5.155 0 0 1-1.85-7.05m45 334.04-22.5 38.58-22.5-38.58c-1.44-2.46-.6-5.61 1.86-7.05a5.16 5.16 0 0 1 7.05 1.86l18.04 30.94h-8.9l18.04-30.94a5.17 5.17 0 0 1 7.06-1.86c2.45 1.44 3.29 4.59 1.85 7.05"/><path d="m842.96 1117.78 564.58 396.33-5.93 8.44-564.57-396.33Zm566.28 384.93 16.44 30.43-34.21-5.11Z"/><path fill="#ff0" fill-rule="evenodd" d="M769.74 1774.37h222.29v121H769.74Z"/><text fill="red" font-family="Microsoft YaHei,Microsoft YaHei_MSFontService,sans-serif" font-size="92" font-weight="700" transform="translate(769.74 1873)">MSD</text></svg>