<svg xmlns="http://www.w3.org/2000/svg" xml:space="preserve" width="4097" height="2012" overflow="hidden"><path fill="none" stroke="#000" stroke-miterlimit="8" stroke-width="10.313" d="M1694 127h839v352h-839z"/><text font-family="Microsoft YaHei,Microsoft YaHei_MSFontService,sans-serif" font-size="92" font-weight="400" transform="translate(1785.66 281)">&lt;&lt;interface&gt;&gt;</text><text font-family="Microsoft YaHei,Microsoft YaHei_MSFontService,sans-serif" font-size="92" font-weight="400" transform="translate(1847.03 391)">Comparable</text><path fill="none" stroke="#000" stroke-miterlimit="8" stroke-width="10.313" d="M1694 479h839v464h-839z"/><text font-family="Microsoft YaHei,Microsoft YaHei_MSFontService,sans-serif" font-size="83" font-weight="400" transform="translate(1727.44 691)">isEqual</text><text font-family="Microsoft YaHei,Microsoft YaHei_MSFontService,sans-serif" font-size="83" font-weight="400" transform="translate(2004.16 691)">(String):bool</text><text font-family="Microsoft YaHei,Microsoft YaHei_MSFontService,sans-serif" font-size="83" font-weight="400" transform="translate(1727.44 790)">hash():Integer</text><path fill="none" stroke="#000" stroke-miterlimit="8" stroke-width="10.313" d="M26 7h839v352H26z"/><text font-family="Microsoft YaHei,Microsoft YaHei_MSFontService,sans-serif" font-size="92" font-weight="400" transform="translate(315.969 216)">String</text><path fill="none" stroke="#000" stroke-miterlimit="8" stroke-width="10.313" d="M26 359h839v352H26z"/><text font-family="Microsoft YaHei,Microsoft YaHei_MSFontService,sans-serif" font-size="92" font-weight="400" transform="translate(58.796 513)">…</text><text font-family="Microsoft YaHei,Microsoft YaHei_MSFontService,sans-serif" font-size="92" font-weight="400" transform="translate(58.796 623)">…</text><path fill="none" stroke="#000" stroke-miterlimit="8" stroke-width="10.313" d="M26 711h839v465H26z"/><text font-family="Microsoft YaHei,Microsoft YaHei_MSFontService,sans-serif" font-size="83" font-weight="400" transform="translate(58.796 874)">isEqual</text><text font-family="Microsoft YaHei,Microsoft YaHei_MSFontService,sans-serif" font-size="83" font-weight="400" transform="translate(335.515 874)">(String):bool</text><text font-family="Microsoft YaHei,Microsoft YaHei_MSFontService,sans-serif" font-size="83" font-weight="400" transform="translate(58.796 973)">hash():Integer</text><text font-family="Microsoft YaHei,Microsoft YaHei_MSFontService,sans-serif" font-size="83" font-weight="400" transform="translate(58.796 1072)">…</text><path fill="none" stroke="#000" stroke-miterlimit="8" stroke-width="10.313" d="M3251 359h839v352h-839z"/><text font-family="Microsoft YaHei,Microsoft YaHei_MSFontService,sans-serif" font-size="92" font-weight="400" transform="translate(3446.5 568)">HashTable</text><path d="M3250.8 540.156h-41.25v-10.312h41.25Zm-72.19 0h-41.25v-10.312h41.25Zm-72.19 0h-41.25v-10.312h41.25Zm-72.19 0h-41.25v-10.312h41.25Zm-72.18 0h-41.25v-10.312h41.25Zm-72.19 0h-41.25v-10.312h41.25Zm-72.19 0h-41.25v-10.312h41.25Zm-72.19 0h-41.25v-10.312h41.25Zm-72.18 0h-41.25v-10.312h41.25Zm-72.19 0h-41.25v-10.312h41.25Zm-13.59 25.133L2533 535l54.52-30.289a5.167 5.167 0 0 1 7.02 2.004 5.16 5.16 0 0 1-2.01 7.011l-46.4 25.781v-9.015l46.4 25.782a5.16 5.16 0 0 1 2.01 7.011 5.167 5.167 0 0 1-7.02 2.004"/><text font-family="DengXian,DengXian_MSFontService,sans-serif" font-size="83" font-weight="400" transform="translate(2734.52 452)">&lt;&lt;use&gt;&gt;</text><path fill="none" stroke="#000" stroke-dasharray="41.25 30.9375" stroke-miterlimit="8" stroke-width="10.313" d="M865 535h829.661"/><path fill="#fff" fill-rule="evenodd" stroke="#000" stroke-miterlimit="8" stroke-width="10.313" d="m1611 479 83 56-83 56Z"/><path fill="#fff" stroke="#70ad47" stroke-miterlimit="8" stroke-width="4.583" d="M1228.5 1545.5h830v458h-830z"/><path fill="none" stroke="#70ad47" stroke-miterlimit="8" stroke-width="4.583" d="M1159.34 1631.37 1050.33 585.72"/><path fill-rule="evenodd" stroke="#000" stroke-linejoin="round" stroke-miterlimit="10" stroke-width="3" d="M1647.75 1750.32c2.48.32 5 .49 7.54.49h58.03c2.19 0 4.76-.17 7.7-.49v5.47c-2.43-.32-5-.49-7.7-.49h-57.71c-2.81 0-5.43.17-7.86.49Zm-217.63-4.74q-.57 3.645-.57 5.91c-13.08 3.6-22.21 6.5-27.4 8.72l-3.08-6.16c10.41-1.49 20.75-4.31 31.05-8.47Zm61.83-3.81c6.48 4.59 12 9.71 16.53 15.36l-3.6 4.21c-3.08-4.91-8.26-10.28-15.52-16.09Zm450.76-1.1c10.13 6.76 18.71 12.69 25.73 17.8l-3.65 4.82c-7.18-6.38-15.54-12.55-25.08-18.52Zm-116.26-.73v5.56h17.59v-5.56Zm-486.05-4.21c2.76 4.08 5.46 8.52 8.11 13.33l-4.3 2.92c-2.75-5.48-5.36-10.02-7.82-13.62Zm41.59-.85 4.74 3.08c.54.32.78.6.73.83-.06.23-.45.45-1.18.67-1.21.11-2.7 1.74-4.46 4.9-1.16 1.92-2.77 4.35-4.82 7.3-1.43-1.11-2.76-1.92-3.97-2.44 4.24-5.51 7.23-10.29 8.96-14.34Zm195.62-2.31c2.59.32 4.89.48 6.89.48h36.92c2.16 0 4.27-.16 6.32-.48v5.15c-2.05-.36-4.16-.53-6.32-.53h-16.41v19.78h25.12c2.44 0 4.87-.17 7.3-.49v5.15c-2.54-.35-4.97-.53-7.3-.53h-56.69c-2.03 0-4.33.18-6.89.53v-5.15c2.72.32 5.02.49 6.89.49h26.91v-19.78h-15.85c-2.05 0-4.35.17-6.89.53Zm-227.36-.85 5.68 1.01q1.41.24 1.5.57c.1.21-.18.63-.86 1.25-1 .79-1.44 2.19-1.33 4.22v19.37h9.97v-17.71c-.06-1.86-.22-4.43-.49-7.7l6.48.89c.49.11.76.29.82.53 0 .27-.22.57-.65.89-1.22.78-1.77 2.34-1.66 4.66v18.44h16.08c1.6-.08 3.73-.26 6.41-.53v4.99c-2.38-.27-4.49-.43-6.32-.49h-47.3c-1.4.06-3.54.22-6.4.49v-4.99c3.32.36 5.48.53 6.48.53h12.12v-19.01c-.06-1.67-.23-4.14-.53-7.41Zm476.2-1.58v5.67h17.59v-5.67Zm30.51-1.06 6.41.81c.65.06.97.29.97.69 0 .33-.32.79-.97 1.38-.84.73-1.26 2.09-1.26 4.09v10.38c-.05 2.16.11 4.35.49 6.56h-5.64c.41-2.32.59-4.51.53-6.56v-10.38c0-2.21-.17-4.54-.53-6.97Zm-83.83-.93v10.54h19.53v-10.54Zm-22.66 0v10.54h18.04v-10.54Zm70.83-2.63c1.97.37 3.82.54 5.55.48h16.58c1.78.06 3.7-.11 5.75-.48-.4 1.86-.58 3.9-.52 6.12v25.41c.13 2.91-.56 4.71-2.07 5.39-1.32.89-4.92 1.44-10.78 1.66-.33-2.16-.91-4.15-1.74-5.96 3.05.41 5.32.61 6.81.61.67 0 1.17-.04 1.49-.12 1.22-.11 1.77-.92 1.67-2.43v-6.53h-17.59v9.44c-.06 1.44.11 3.37.48 5.8h-5.63c.38-1.92.54-3.85.49-5.8v-28.12c.05-1.38-.11-3.2-.49-5.47Zm50.38-2.76 6.64.85c.65.11.98.35.98.73-.06.43-.41.85-1.06 1.26-.84.48-1.26 1.94-1.26 4.37v26.75c.17 3.43-.64 5.53-2.43 6.28-1.37.95-5.74 1.76-13.09 2.44-.4-2.49-1.19-4.65-2.35-6.49 3.84.33 6.45.49 7.82.49 1.6.05 2.76-.03 3.49-.25q1.98-.24 1.74-3.72v-25.66q0-3.165-.48-7.05Zm-212.18-.73c2.27.33 4.49.49 6.65.49h34.69c2.95 0 5.63-.16 8.07-.49v5.63c-3-.32-5.72-.48-8.15-.48h-34.37c-2.32 0-4.62.16-6.89.48Zm113.63-8.14v10.29h19.53v-10.29Zm-22.66 0v10.29h18.04v-10.29Zm-158.43-2.23 5.47 3.24c.46.27.66.48.61.65-.11.21-.48.35-1.1.4-.94.06-2.42 1-4.41 2.84-4.52 4.08-10.73 8.62-18.65 13.62-1.4-1.68-3.12-3.12-5.14-4.34q14.415-4.98 23.22-16.41Zm18.92-.08c8.87 5.29 16.84 10.6 23.92 15.92l-3.08 4.3c-7.08-5.65-15.08-11.01-24-16.09Zm-256.94-1.67 6.04 1.06c.68.11 1.01.28 1.01.52.06.17-.25.49-.93.98-.65.62-.97 1.33-.97 2.14v2.52l12.28-1.26c1.92-.22 4.09-.66 6.52-1.34l.45 4.91c-1.95 0-4.19.11-6.73.32l-12.52 1.18v1.42c-.14 2.05.27 3.21 1.21 3.48.63.43 3.1.62 7.42.57 6.08 0 9.78-.45 11.11-1.34 1.59-.65 2.59-2.77 2.99-6.36 1.33 1.16 2.87 2.04 4.62 2.63-.81 3.38-2.08 5.59-3.81 6.65-1.48 1.11-4.63 1.82-9.44 2.15-2.27.19-5.15.24-8.63.16-.73-.06-1.28-.08-1.66-.08-3.49-.06-5.76-.49-6.81-1.3-1.16-.78-1.72-2.36-1.66-4.74v-2.92l-10.7 1.26c-2.11.27-4.43.77-6.97 1.5l-.69-5.15c.94.03 1.86.04 2.75.04.92 0 1.8-.01 2.64-.04l12.97-1.09v-1.42c-.06-1.49-.22-3.64-.49-6.45Zm553.27-.69q9.84 5.31 17.34 10.38l-3.24 4.58c-4.81-3.95-10.4-7.48-16.78-10.62Zm-46.15-2.95 5.63 3.72c.33.22.46.44.41.65-.11.22-.41.38-.89.49-1.06.35-1.92.82-2.6 1.42-1.54 1.43-3.02 2.79-4.46 4.09h22.98c1.6.06 3.42-.12 5.47-.53v5.15c-2.05-.38-3.87-.54-5.47-.49h-62.94c-1.37-.05-3.25.11-5.63.49v-5.15c2.27.41 4.18.59 5.72.53h17.38a56 56 0 0 0-7.74-6.08l3.24-3.73c2.76 1.89 6.03 4.38 9.81 7.46l-2.27 2.35h13.54c3.32-3.43 5.93-6.89 7.82-10.37Zm-291.84-5.84c2.7.32 5.08.49 7.13.49h50.38c2.43 0 5.01-.17 7.74-.49a43 43 0 0 0-.53 6.73v1.74c0 2.16.18 4.35.53 6.57h-5.67c.35-2.38.52-4.57.52-6.57v-3.81h-54.95v4.3c0 2.32.16 4.56.49 6.72h-5.64c.33-2.32.49-4.56.49-6.72v-2.15c0-1.89-.16-4.16-.49-6.81Zm186.24-1.13c-2.49 3.13-5.55 6.49-9.2 10.09 1.84.35 4.08.52 6.73.52h18.23c3.43-3.27 6.49-6.81 9.16-10.61Zm-102.08-2.92q2.835.48 7.38.48h46.97c2.32 0 4.65-.16 6.97-.48v5.63c-2.38-.32-4.67-.49-6.89-.49h-46.97c-2.76 0-5.24.17-7.46.49Zm259.78-4.18c6.33 3.68 12.05 7.23 17.19 10.66l-3.33 4.46q-7.29-6.195-16.41-10.86Zm-458.48-1.29q6.81 4.86 12.12 9.36l-3.25 3.97c-3.48-3.19-7.44-6.34-11.87-9.44Zm482.31-2.84 6.49.93c.54.06.84.19.89.41.05.21-.11.54-.49.97-.83.84-1.25 2.39-1.25 4.66-.22 16.37-1.35 28.41-3.41 36.11h21.24c2.21-.05 4.43-.27 6.65-.65v5.47c-2.33-.35-4.54-.58-6.65-.69h-22.41c-5.51 13.46-17.51 23.06-35.99 28.82-1.16-2.11-2.69-4.07-4.58-5.88 16.89-2.21 28.58-9.86 35.1-22.94h-30.03c-2 .06-4.3.29-6.89.69v-5.47c2.59.38 4.86.6 6.8.65h31.62c1.48-4.16 2.54-10.63 3.16-19.41.24-4.03.36-7.73.36-11.11 0-4.46-.2-8.64-.61-12.56Zm-339.4-.08c4.11 2.94 7.88 5.82 11.31 8.63l-3.89 3.89c-2.95-2.59-6.69-5.52-11.23-8.79Zm-183.24 0 5.72 3.4c.78.49 1.15.83 1.09 1.02 0 .27-.47.51-1.42.73-.94.27-1.91 1.18-2.91 2.75-1 1.65-2.54 4.22-4.62 7.7-2.52 4.16-4.41 7.28-5.68 9.36 4.84.3 8.85.45 12.04.45 3.05-4.49 5.35-8.7 6.89-12.65l5.55 3.25c.89.51 1.31.87 1.26 1.09 0 .22-.5.46-1.5.73-1 .35-1.96 1.22-2.88 2.59-5.59 8.41-11.58 16.96-17.95 25.66 7.43-.62 13.24-1.52 17.42-2.68-.65 1.79-1.1 3.56-1.37 5.31-9.3 1.16-17.05 2.38-23.27 3.65l-2.06-4.9c2.43-1.33 4.22-2.54 5.39-3.65 2.75-2.92 6.21-7.78 10.37-14.59-5.48 0-10.21.44-14.18 1.34l-2.44-5.07c1.25-.46 2.33-1.51 3.25-3.16 4.75-7.7 8.52-15.14 11.3-22.33Zm-61.26 0 6.57 1.01c.73.11 1.09.24 1.09.41q.165.15-.69.81c-1 .83-1.5 1.94-1.5 3.32v2.35h18.77c1.83-.08 4.02-.26 6.56-.53v4.83c-2.59-.27-4.78-.44-6.56-.49h-18.77v5.63h25.66c2.48 0 5.14-.19 7.98-.56-.95 1.81-2.5 4.56-4.66 8.26-.6 1.17-1.07 2.03-1.42 2.6-1.43-.33-3.07-.52-4.9-.57l3.56-5.75h-51.51v12.11c.06 11.62-.58 20.23-1.9 25.82-1.22 5.75-3.72 11.35-7.5 16.78a11.6 11.6 0 0 0-5.63-2.47c7.13-6.27 10.53-18.09 10.21-35.47v-13.94c-.05-1.78-.22-4.21-.49-7.29 3.38.27 6 .43 7.87.48h17.75v-10.61c-.06-1.73-.22-3.98-.49-6.73Zm88.58-.16 6.81.89c.7.05 1.08.25 1.13.61 0 .32-.32.73-.97 1.21-.78.68-1.23 1.88-1.34 3.61-.11 2.54-.16 5.17-.16 7.9 0 2.76.05 5.59.16 8.51l13.21-2.15c2.14-.4 4.73-1.01 7.79-1.82l.4 5.63c-2.43 0-4.97.22-7.62.65l-13.53 2.11c.05 2.65.39 6.74 1.01 12.28l16.09-3a39.6 39.6 0 0 0 7.29-1.99l.77 5.64c-2.94.21-5.47.52-7.58.93l-16 2.8c.59 4.7 1.75 9.26 3.48 13.69 4.65-4.91 8.22-9.86 10.7-14.83l5.31 3.89c.57.38.85.68.85.91s-.31.46-.93.67c-1.76.49-3.39 1.79-4.9 3.89-1.87 2.43-4.8 5.76-8.8 9.97 3.38 5.03 6.94 8.15 10.7 9.36q3.24-.315 4.5-9.03a16.8 16.8 0 0 0 5.23 3.32c-2.6 8.29-5.66 12.2-9.2 11.71-4.38 0-9.37-3.93-14.96-11.79-5.37 4.38-12.1 8.1-20.18 11.18a34.8 34.8 0 0 0-4.13-5.47c9.29-1.81 16.57-5.21 21.84-10.21q-2.925-7.86-4.17-16.41l-7.06 1.42c-2 .43-4.32 1.04-6.97 1.82l-.89-5.76c2.81-.05 5.16-.24 7.05-.56l7.3-1.18c-.49-3.97-.88-8.17-1.18-12.6l-4.46.89c-2.48.51-5.12 1.19-7.9 2.03l-.73-6.16c2.38 0 4.97-.17 7.78-.49l5.07-.69c-.11-4.46-.16-9.08-.16-13.86 0-2.7-.22-5.88-.65-9.52Zm415.3-.33 5.55 2.07c.46.16.69.32.69.49 0 .16-.25.35-.73.56-.52.25-.99.69-1.42 1.34-.11.22-.31.53-.61.93-.54.89-.92 1.5-1.13 1.83h20.91c1.43.05 3.23-.11 5.39-.49v5.15c-2.22-.35-4.01-.53-5.39-.53h-11.23c1.73 2.05 3.53 4.48 5.39 7.29l-3.89 2.92c-2.97-4.59-5.32-8-7.05-10.21h-6.04c-1.62 3.43-3.7 7.12-6.24 11.06-2.27-1-4.32-1.67-6.16-2.02 5.11-4.19 9.09-10.99 11.96-20.39Zm-30.44 0 6.73 2.31c.27.11.4.27.4.49-.05.24-.25.42-.61.53-.75.32-1.36.72-1.82 1.21-.7.95-1.5 2-2.39 3.16h15.2c1.54.06 3.36-.11 5.47-.48v5.14c-2.27-.38-4.09-.54-5.47-.48h-6.41c1.38 1.59 2.85 3.52 4.42 5.79l-4.17 2.84c-1.54-2.95-3.5-5.82-5.88-8.63h-5.47c-3.11 4.64-6.3 8.87-9.56 12.68-1.65-1.32-3.56-2.27-5.72-2.84 6.86-5.07 11.96-12.32 15.28-21.72Zm-69.57-.61 5.71 2.84c.79.38 1.15.69 1.1.93 0 .17-.42.35-1.26.57-.81.16-1.61.74-2.39 1.74-.22.22-.38.57-.49 1.06-.05.56-.23.98-.52 1.25h23.42q4.215 0 7.98-.48c-1.72 2.54-5.49 6.97-11.3 13.29-.79.76-1.37 1.36-1.75 1.82h13.54c2.65.06 4.89-.12 6.73-.52a44.6 44.6 0 0 0-.53 6.97v37.61c.14 3.64-.71 5.94-2.55 6.89-1.33 1.05-5.28 1.71-11.88 1.98-.32-2.48-1.01-4.7-2.06-6.64 2.4.43 4.48.64 6.24.64 2.06 0 3.59.07 4.58.19l1.23.51-.07-.58c-.05-.67-.07-1.8-.07-3.4 0-.24-.01-.46-.04-.65v-10.21h-19.53v6.97c0 2.54.17 4.78.52 6.73h-5.67c.35-2.06.53-4.35.53-6.89v-6.81h-18.52c-1.27 7.78-5.03 14.86-11.27 21.24-1.68-1.6-3.62-2.87-5.84-3.81 9.03-6.49 13.35-16.04 12.97-28.66v-15.11c0-2.03-.17-3.99-.52-5.88-1.71 1.59-3.83 3.36-6.37 5.31q-1.98-2.55-5.31-4.38c10.22-5.21 18.01-13.38 23.39-24.52Z"/><text x="1460.32" y="1810.62" fill-opacity="0" font-family="Arial,Arial_MSFontService,sans-serif" font-size="78.542" transform="translate(-142 -55)">虚线、空三角箭头</text><path fill-rule="evenodd" stroke="#000" stroke-linejoin="round" stroke-miterlimit="10" stroke-width="3" d="M1622.76 1839.96c7.24 6.91 13.1 13.18 17.59 18.8l-4.06 3.77c-4.32-6.21-10.18-12.49-17.59-18.84Zm-20.1-.29 5.99 3.61c.33.22.46.43.41.65-.05.27-.3.46-.73.57-1 .27-1.97 1.16-2.92 2.67-3.16 5.4-7.51 10.88-13.05 16.41-2.08-1.43-4.06-2.62-5.96-3.56 7.3-4.65 12.72-11.43 16.26-20.35Zm251.43-3.89c-1.3 2.16-2.99 4.8-5.07 7.91 5.03 1.54 9.34 2.99 12.93 4.37 3.59-3.7 5.67-7.79 6.24-12.28Zm-399.17-7.86c6.11 5.65 12 11.51 17.67 17.59l-4.21 4.05c-6.3-7.45-12.08-13.48-17.35-18.07Zm-35.5-.93 6.36 3.24q.765.33.69.57c0 .11-.34.28-1.01.53q-1.665.315-4.14 4.29c-4.43 6.54-8.67 12.05-12.72 16.54-1.27-.95-3.31-2-6.12-3.17 7.86-4.91 13.51-12.25 16.94-22Zm435.48-3.41 4.98 2.23c.73.35 1.12.64 1.18.85.05.27-.23.46-.85.57q-1.755.525-2.31 1.5c-.27.51-.67 1.2-1.18 2.07-.27.46-.46.8-.57 1.01h24.16c2.38 0 4.56-.16 6.56-.48v4.94c-2.67-.32-5.01-.49-7.01-.49h-6.52c-.95 5.33-3.14 9.97-6.57 13.94 5.92 2.68 11.42 5.48 16.5 8.39l-2.72 4.83c-5.48-3.95-11.21-7.14-17.18-9.57-6.81 4.54-14.84 7.95-24.08 10.21-.72-2.16-1.72-3.95-2.99-5.39 9.29-1.32 16.63-3.64 22-6.97-.16-.05-.52-.16-1.09-.32-9-2.89-14.08-4.5-15.24-4.82 2.97-3.97 5.29-7.41 6.97-10.3h-7.5c-1.97 0-3.96.17-5.96.49v-4.94q3.495.48 6.57.48h8.88c1.59-2.89 2.91-5.63 3.97-8.23Zm-345.52-.56q3.885.48 6.48.48h32.26c2.16.06 4.46-.1 6.89-.48v5.14c-2.54-.4-4.84-.58-6.89-.52h-14.18v9.4h8.95c2 0 4.27-.16 6.81-.49v4.99c-2.43-.35-4.7-.53-6.81-.53h-8.95v11.79c3.32.63 7.22.91 11.71.86 4.48-.14 8.44-.59 11.87-1.34-1.16 2.05-1.88 4.12-2.15 6.2-2.05.19-4.29.28-6.72.28-2.06 0-4.22-.06-6.49-.2-10.62-.16-19.25-3.57-25.89-10.21-2.11 4.59-5.46 9.08-10.06 13.45-1.37-1.48-3.14-2.65-5.3-3.48 8.72-4.57 13.09-12.5 13.09-23.79 0-.89-.02-1.62-.04-2.19l6.11 1.01c.63.11.94.27.94.49.05.21-.21.53-.77.93-.76.49-1.26 1.47-1.5 2.96-.33 2.16-.65 4.11-.98 5.83 3.17 3.6 7.02 6.25 11.56 7.95v-23.91h-13.46c-1.95 0-4.11.17-6.48.52Zm-108.08-9.12c2.84.32 5.06.48 6.65.48h57.79q2.55-.075 7.38-.48v5.15c-2.95-.3-5.41-.48-7.38-.53h-24.44v34.77c.06.43.08.76.08.97q0 6.525-12.36 6.69c-.27-2-1.32-4.32-3.16-6.97 2.92.81 5.15 1.22 6.69 1.22q1.17 0 1.86-.33c1.46-.43 2.17-2.07 2.11-4.9v-31.45h-28.57c-1.59 0-3.81.17-6.65.53Zm203.63-2.84v19.5h15.76v-19.5Zm-85.91-5.92v7.91h23.55v-7.91Zm330.33-1.29c3.32 2.86 6.14 6.24 8.47 10.13l-4.1 3.12c-3.02-4.7-5.85-8.04-8.47-10.01Zm20.34-.16 5.15 2.39q.81.405.81.75t-.81.66c-1.16.55-2.06 1.34-2.68 2.4-1.32 2.59-2.98 5.39-4.98 8.39h7.21c1.78 0 3.97-.17 6.57-.49v4.98c-2.49-.35-4.68-.52-6.57-.52h-26.54c-1.95 0-4.08.17-6.41.52v-4.98c2.22.32 4.3.49 6.24.49h14.67c3.33-5.44 5.77-10.3 7.34-14.59Zm42.05-.94v40.33h40.94v-40.33Zm-5.31-4.82c3.44.35 6.6.53 9.49.53h33.19c2.81 0 5.77-.18 8.88-.53-.33 2.89-.49 5.66-.49 8.31v41.01c0 2.49.16 5.03.49 7.62h-5.8c.32-2.75.49-5.24.49-7.46h-40.94v1.42c0 2.38.17 4.87.49 7.46h-5.8c.33-2.43.49-4.92.49-7.46v-42.59c0-2.49-.16-5.26-.49-8.31Zm-65.96-.24c2.22.32 4.23.48 6.04.48h29.79c2.45 0 4.64-.16 6.56-.48v4.98c-2.43-.32-4.62-.48-6.56-.48h-29.79c-1.7 0-3.72.16-6.04.48Zm-321.45-4.38v7.86h23.55v-7.86Zm134.85-.85c2.59.38 4.89.54 6.89.49h47.05c2.32.05 4.82-.11 7.5-.49-9.7 11.18-18.86 19.21-27.48 24.07v34.61c.16 4.43-.76 7.23-2.76 8.39-1.7 1.33-6.21 2.2-13.53 2.64-.06-1.71-.93-4.14-2.64-7.3 3.65.79 6.54 1.18 8.68 1.18q1.695 0 2.67-.33 2.925-.84 2.76-5.31v-36.43c8.51-4.59 15.45-10.16 20.83-16.7h-42.92c-1.76-.05-4.11.11-7.05.49Zm-243.08-.73c2.81.27 5.16.43 7.05.49h39.43c1.22 0 3.26-.17 6.12-.49v5.15c-2.65-.35-4.69-.53-6.12-.53h-39.43c-1.68.05-4.03.23-7.05.53Zm340.53-1.74 6.29.89c.62.11.98.28 1.09.51.11.22-.05.5-.49.83-1.1.94-1.69 2.63-1.74 5.06v15.69h4.38c1.67 0 3.92-.17 6.72-.49v5.15c-2.97-.35-5.21-.53-6.72-.53h-4.38v30.64c4.81-1.43 8.74-2.99 11.79-4.66-.29 2.32-.41 4.37-.36 6.16-18.18 5.13-29.91 8.73-35.18 10.78l-3.4-6.36c2.48-.19 4.78-.5 6.89-.94v-42.43c-.06-2.08-.22-4.67-.49-7.78l6.12 1.01c.78.11 1.18.27 1.18.49.1.16-.14.43-.73.81-.9.78-1.37 2.45-1.42 4.99v42.27c3.75-.9 7.4-1.87 10.94-2.92v-51.23c-.05-2.97-.22-5.62-.49-7.94Zm-131.16-1.18 6.41.85c.67.06 1.01.17 1.01.33.05.16-.2.48-.77.97q-1.665.855-1.5 6v9.93h4.99c2.62 0 4.91-.17 6.89-.49v5.15c-1.98-.33-4.27-.49-6.89-.49h-4.99v19.5h8.55c2.89 0 5.11-.17 6.65-.49v5.15c-1.81-.33-4.03-.49-6.65-.49h-41.5c-2.7 0-4.97.16-6.81.49v-5.15c1.11.32 3.38.49 6.81.49h7.9v-19.5h-5.22c-2.65 0-4.84.16-6.57.49v-5.15c1.54.32 3.73.49 6.57.49h5.22v-10.26c0-2.67-.16-4.99-.48-6.97l6.36.73c.68.06 1.01.19 1.01.41.06.16-.23.5-.85 1.01-.97.7-1.43 2.72-1.37 6.04v9.04h15.76v-11.11c0-3.16-.17-5.48-.53-6.97Zm-106.29-.16c2.81.32 5.14.49 6.97.49h19.42c2.27 0 4.75-.17 7.45-.49-.32 2.65-.48 5.03-.48 7.13v14.19q0 3.315.48 7.74c-2.86-.35-5.37-.53-7.53-.53h-18.93c-2.11 0-4.57.18-7.38.53.33-3.11.49-5.69.49-7.74v-14.19c.05-1.75-.11-4.13-.49-7.13Zm258.28-1.01 6.57 1.01c.54.05.81.19.81.41.05.21-.13.49-.57.85-1.05.81-1.6 2.5-1.66 5.06v26.47c8.67-5.7 14.62-10.91 17.83-15.61l4.75 4.75q.645.555.48.81c-.11.16-.53.29-1.25.4-1.17.24-2.73 1.16-4.71 2.76-5.64 4.48-11.34 8.66-17.1 12.52v23.26c-.11 3.08.45 4.91 1.66 5.47.81.63 3.04.94 6.69.94.81 0 1.65-.02 2.51-.04 4.16 0 6.72-.5 7.66-1.5 1.16-.81 1.93-3.17 2.31-7.06 0-.21.03-.54.08-.97.17-1.67.3-3.39.41-5.15 1.05.84 3.16 1.77 6.32 2.8-1 4.65-1.74 7.73-2.23 9.24-1.51 4.86-5.04 7.32-10.58 7.38-1.75.1-4.05.16-6.89.16-5.18.05-8.6-.61-10.25-1.99-1.67-1.05-2.46-3.56-2.35-7.53v-56.05c0-1.76-.16-4.56-.49-8.39Zm52.11-.65 6.56.81c.68.13.99.31.94.53.05.21-.23.56-.85 1.05-1.06.89-1.56 2.44-1.5 4.66v11.47h3.24c1.78 0 3.5-.18 5.15-.53v5.15c-1.54-.32-3.26-.49-5.15-.49h-3.24V1828c.89-.51 2.41-1.38 4.58-2.59 1.1-.6 1.93-1.07 2.47-1.42 0 .3-.03.69-.08 1.17-.17 1.65-.3 3.15-.41 4.5-1.32.54-3.12 1.34-5.39 2.39-.49.22-.88.38-1.17.49v23.59c.05 2.65-.72 4.44-2.31 5.39-1.38 1-4.6 1.74-9.65 2.23-.76-2.81-1.39-4.72-1.9-5.72q3.36.45 5.1.45c1.27 0 2.12-.15 2.56-.45 1.1-.38 1.63-1.78 1.58-4.21v-18.77c-1.95 1-4.92 2.69-8.92 5.07q-1.38-3-3.12-5.07c4.65-1.73 8.66-3.33 12.04-4.82v-20.59h-5.43c-1.76 0-3.58.17-5.48.49v-5.15c1.41.35 3.21.53 5.39.53h5.52v-10.74c-.11-3.19-.29-5.78-.53-7.78Zm-472.43-.25 6.65 1.06c.67.13 1.04.34 1.09.61.06.21-.2.51-.77.89-1.37.67-1.98 2.23-1.82 4.66v2.39h22.25c3.11 0 5.38-.16 6.81-.49v5.15c-1.7-.27-3.97-.43-6.81-.49h-22.25v7.46h18.28c3.16 0 5.4-.16 6.73-.49v5.15c-1.68-.32-3.92-.48-6.73-.48h-18.28v8.34h27.72q4.665 0 6.81-.48v5.14c-1.6-.32-3.86-.48-6.81-.48h-23.71c1.06 4.86 3.23 9.62 6.53 14.26q7.815-5.46 13.29-12.36l4.05 3.98c.84.83 1.2 1.41 1.1 1.74-.11.27-.77.4-1.99.4-1.27.14-2.54.66-3.81 1.58-.4.35-1.04.88-1.9 1.58-2.73 2.27-5.31 4.35-7.74 6.25 5.75 6.13 12.75 10.17 20.99 12.11-1.97 1.76-3.51 3.47-4.62 5.15-17.56-7.54-27.75-19.1-30.56-34.69h-2.59c-1.54 2.32-4.06 5.39-7.54 9.2v21.6c7.29-3.49 12.63-6.54 16.01-9.16l-.57 6.57q-14.19 6.555-19.17 10.29c-1.11-2.11-2.16-3.82-3.16-5.15 1-.54 1.61-1.12 1.82-1.74.27-.73.41-1.97.41-3.73v-14.43c-5.4 4.97-12.01 9.62-19.82 13.95-1.49-2-3.15-3.64-4.98-4.91 12.4-4 22.72-11.49 30.96-22.49h-22.41c-2.7 0-4.95.16-6.73.48v-5.14c1.32.32 3.57.48 6.73.48h27.07v-8.34h-17.18q-4.335 0-6.81.48v-5.15c1.75.33 4.02.49 6.81.49h17.18v-7.46h-21.6c-2.87 0-5.13.17-6.81.49v-5.15c1.62.33 3.89.49 6.81.49h21.6v-2.07c0-3.02-.18-5.54-.53-7.54Zm230.24-.08 6.73 2.8c.27.14.4.28.4.45 0 .02-.04.11-.12.26s-.31.3-.69.47c-1 .32-1.69 1.04-2.07 2.14q-1.98 5.52-5.22 11.55v51.23c0 3.19.16 5.78.48 7.78h-5.63c.32-2.48.48-5.08.48-7.78v-41.86c-.1.18-.24.44-.4.77-2.16 4.08-4.27 7.48-6.32 10.21-1.76-1-4.06-2.16-6.89-3.49 8.64-6.64 15.06-18.15 19.25-34.53Zm-88.7-.93 6.48.85c.65.06 1 .22 1.06.49.05.27-.22.66-.82 1.17-1.05.87-1.58 2.64-1.58 5.31v10.14h3.41c1.75 0 3.79-.18 6.12-.53v5.15c-2.27-.33-4.31-.49-6.12-.49h-3.41v15.28c2.6-1.54 5.16-3.31 7.7-5.31-.48 2.21-.7 4.34-.64 6.36a122 122 0 0 0-7.06 4.09v25.5c.11 2.75-.6 4.55-2.14 5.39-1.3.94-4.6 1.63-9.89 2.06 0-2.27-.84-4.35-2.51-6.24 2.4.27 4.32.41 5.75.41q1.905 0 2.55-.33c1.16-.32 1.69-1.56 1.58-3.72v-20.51c-3.37 1.89-6.2 3.81-8.47 5.75-.94-1.78-2.43-3.58-4.45-5.39 3.48-1.16 7.79-3.1 12.92-5.83v-17.51h-6.89c-1.59 0-3.58.16-5.95.49v-5.15c2.32.35 4.31.53 5.95.53h6.89v-10.54c0-2.06-.16-4.53-.48-7.42Zm363.68-.32c3.32 2.43 6.59 5.09 9.8 7.98l-3.48 4.05c-2.65-2.86-5.92-5.63-9.81-8.3Z"/><text x="1458.74" y="1908.95" fill-opacity="0" font-family="Arial,Arial_MSFontService,sans-serif" font-size="78.339" transform="translate(-142 -55)">表示提供了此接口</text><path fill="#fff" stroke="#70ad47" stroke-miterlimit="8" stroke-width="4.583" d="M2978.5 1547.5h830v459h-830z"/><path fill="none" stroke="#70ad47" stroke-miterlimit="8" stroke-width="4.583" d="M2909.34 1633.56 2800.33 585.625"/><path fill-rule="evenodd" stroke="#000" stroke-linejoin="round" stroke-miterlimit="10" stroke-width="3" d="M3303.61 1748.38c-.37 2.43-.56 4.4-.56 5.92-13.08 3.59-22.21 6.49-27.4 8.71l-3.08-6.16c10.4-1.49 20.75-4.31 31.04-8.47Zm61.83-3.81c6.49 4.59 12 9.71 16.54 15.36l-3.61 4.21c-3.08-4.91-8.25-10.28-15.52-16.09Zm203.26-1.1c10.13 6.76 18.71 12.69 25.74 17.8l-3.65 4.82c-7.19-6.38-15.55-12.55-25.09-18.52Zm-116.26-.72v5.55h17.59v-5.55Zm-238.54-4.22c2.76 4.08 5.46 8.52 8.11 13.33l-4.3 2.92c-2.76-5.48-5.36-10.02-7.82-13.62Zm41.58-.85 4.74 3.08c.54.32.79.6.73.83-.05.23-.44.45-1.17.67-1.22.11-2.71 1.74-4.46 4.9-1.16 1.92-2.77 4.35-4.82 7.3-1.44-1.11-2.76-1.92-3.98-2.43 4.25-5.52 7.23-10.3 8.96-14.35Zm-31.73-3.16 5.67 1.01q1.425.24 1.5.57c.11.21-.17.63-.85 1.25-1 .79-1.45 2.19-1.34 4.22v19.37h9.97v-17.71c-.05-1.86-.21-4.43-.48-7.7l6.48.89c.49.11.76.29.81.53 0 .27-.21.57-.65.89-1.21.78-1.77 2.34-1.66 4.66v18.44h16.09c1.59-.08 3.73-.25 6.4-.52v4.98c-2.37-.27-4.48-.43-6.32-.49h-47.29c-1.41.06-3.54.22-6.41.49v-4.98c3.33.35 5.49.52 6.49.52h12.11v-19.01c-.05-1.67-.22-4.14-.52-7.41Zm228.69-1.58v5.67h17.59v-5.67Zm30.52-1.06 6.4.81c.65.06.98.29.98.69 0 .33-.33.79-.98 1.38-.83.73-1.25 2.1-1.25 4.09v10.38c-.06 2.16.11 4.35.48 6.56h-5.63c.41-2.32.58-4.51.53-6.56v-10.38c0-2.21-.18-4.53-.53-6.97Zm-35.66-3.56q2.955.57 5.55.48h16.57q2.685.09 5.76-.48c-.41 1.86-.58 3.9-.53 6.12v25.41c.14 2.92-.55 4.71-2.06 5.39-1.33.89-4.92 1.44-10.78 1.66-.33-2.16-.91-4.15-1.75-5.96 3.06.41 5.33.61 6.81.61q1.02 0 1.5-.12c1.22-.11 1.77-.92 1.66-2.43v-6.53h-17.59v9.44c-.05 1.44.11 3.37.49 5.8h-5.63c.37-1.92.54-3.85.48-5.8v-28.12c.06-1.38-.11-3.2-.48-5.47Zm50.37-2.76 6.65.85c.65.11.97.35.97.73q-.075.645-1.05 1.26-1.26.72-1.26 4.38v26.74c.16 3.43-.65 5.53-2.43 6.29-1.38.94-5.74 1.75-13.09 2.43-.41-2.49-1.19-4.65-2.35-6.49 3.84.33 6.44.49 7.82.49 1.59.05 2.76-.03 3.49-.24 1.32-.17 1.9-1.41 1.74-3.73v-25.66c0-2.1-.16-4.45-.49-7.05Zm-270.15-12.85 6.04 1.06c.67.11 1.01.28 1.01.52.05.17-.26.49-.93.98-.65.62-.98 1.33-.98 2.15v2.51l12.28-1.26c1.92-.21 4.1-.66 6.53-1.34l.44 4.91c-1.94 0-4.18.11-6.72.32l-12.53 1.18v1.42c-.13 2.05.27 3.21 1.22 3.48.62.43 3.09.62 7.42.57 6.08 0 9.78-.45 11.1-1.34q2.385-.975 3-6.36c1.32 1.16 2.86 2.04 4.62 2.63-.81 3.38-2.08 5.6-3.81 6.65-1.49 1.11-4.63 1.82-9.44 2.15-2.27.19-5.15.24-8.63.16-.73-.05-1.29-.08-1.67-.08-3.48-.06-5.75-.49-6.8-1.3-1.17-.78-1.72-2.36-1.67-4.74v-2.92l-10.7 1.26c-2.1.27-4.43.77-6.97 1.5l-.69-5.15c.95.03 1.87.04 2.76.04.92 0 1.8-.01 2.63-.04l12.97-1.09v-1.42q-.075-2.235-.48-6.45Zm305.76-.68c6.57 3.53 12.35 6.99 17.35 10.37l-3.24 4.58c-4.81-3.94-10.41-7.48-16.78-10.62Zm-46.15-2.96 5.64 3.73c.32.21.46.43.4.64-.1.22-.4.38-.89.49-1.05.35-1.92.82-2.59 1.42-1.54 1.43-3.03 2.8-4.46 4.09h22.98c1.59.06 3.42-.12 5.47-.52v5.14c-2.05-.38-3.88-.54-5.47-.48h-62.94c-1.38-.06-3.26.1-5.63.48v-5.14c2.27.4 4.17.58 5.71.52h17.39a56 56 0 0 0-7.74-6.08l3.24-3.73c2.75 1.9 6.02 4.38 9.81 7.46l-2.27 2.35h13.53c3.33-3.43 5.93-6.89 7.82-10.37Zm52.11-14.07c6.32 3.68 12.05 7.23 17.18 10.66l-3.32 4.46q-7.29-6.195-16.41-10.86Zm-210.99-1.29q6.81 4.86 12.12 9.36l-3.24 3.97c-3.49-3.19-7.44-6.34-11.87-9.44Zm234.82-2.84 6.48.93c.54.06.84.19.9.41.05.21-.11.54-.49.97-.84.84-1.26 2.39-1.26 4.66-.21 16.37-1.35 28.41-3.4 36.11h21.23c2.22-.05 4.44-.27 6.65-.65v5.47a69 69 0 0 0-6.65-.69h-22.41c-5.51 13.46-17.5 23.06-35.99 28.82-1.16-2.11-2.68-4.07-4.57-5.88 16.88-2.21 28.58-9.86 35.09-22.94h-30.03c-2 .06-4.29.29-6.89.69v-5.47c2.6.38 4.86.6 6.81.65h31.61c1.49-4.16 2.54-10.63 3.16-19.41.25-4.03.37-7.73.37-11.11 0-4.45-.21-8.64-.61-12.56Zm-275.14-.08 5.71 3.4c.79.49 1.15.83 1.1 1.02 0 .27-.47.51-1.42.73-.95.27-1.92 1.18-2.92 2.75-1 1.65-2.54 4.22-4.62 7.7q-3.765 6.24-5.67 9.36c4.83.3 8.85.45 12.03.45 3.06-4.49 5.35-8.7 6.89-12.64l5.56 3.24c.89.51 1.31.88 1.25 1.09 0 .22-.5.46-1.5.73-1 .35-1.96 1.22-2.87 2.59-5.6 8.41-11.58 16.96-17.96 25.66 7.43-.62 13.24-1.51 17.43-2.68q-.975 2.685-1.38 5.31c-9.29 1.16-17.05 2.38-23.26 3.65l-2.07-4.9c2.43-1.33 4.23-2.54 5.39-3.65 2.76-2.92 6.22-7.78 10.38-14.59-5.49 0-10.22.45-14.19 1.34l-2.43-5.07c1.24-.46 2.32-1.51 3.24-3.16 4.76-7.7 8.53-15.14 11.31-22.33Zm-61.26 0 6.56 1.01c.73.11 1.1.25 1.1.41q.15.165-.69.81c-1 .84-1.5 1.94-1.5 3.32v2.35h18.76c1.84-.08 4.03-.25 6.57-.52v4.82c-2.6-.27-4.79-.43-6.57-.49h-18.76v5.63h25.65c2.49 0 5.15-.18 7.98-.56-.94 1.81-2.49 4.56-4.66 8.26-.59 1.17-1.06 2.03-1.41 2.6-1.44-.33-3.07-.51-4.91-.57l3.57-5.75h-51.51v12.11c.05 11.62-.58 20.23-1.91 25.82-1.21 5.75-3.71 11.35-7.49 16.78a11.6 11.6 0 0 0-5.64-2.47c7.14-6.27 10.54-18.09 10.22-35.47v-13.94c-.06-1.78-.22-4.21-.49-7.29q5.07.405 7.86.48h17.75v-10.61c-.05-1.73-.21-3.98-.48-6.73Zm88.58-.16 6.8.89c.71.05 1.08.26 1.14.61 0 .32-.33.73-.97 1.21-.79.68-1.23 1.88-1.34 3.61-.11 2.54-.16 5.17-.16 7.9 0 2.76.05 5.59.16 8.51l13.21-2.15c2.13-.4 4.73-1.01 7.78-1.82l.41 5.63c-2.43 0-4.97.22-7.62.65l-13.54 2.11c.06 2.65.39 6.74 1.01 12.28l16.09-3c2.49-.43 4.92-1.09 7.3-1.98l.77 5.63c-2.95.21-5.47.53-7.58.93l-16.01 2.8c.6 4.7 1.76 9.26 3.49 13.7 4.64-4.92 8.21-9.87 10.7-14.84l5.31 3.89c.56.38.85.69.85.91 0 .23-.31.46-.94.67-1.75.49-3.39 1.79-4.9 3.89-1.86 2.44-4.79 5.76-8.79 9.97 3.37 5.03 6.94 8.15 10.7 9.37 2.16-.22 3.66-3.23 4.49-9.04 1.54 1.43 3.29 2.54 5.23 3.32-2.59 8.3-5.66 12.2-9.2 11.71-4.37 0-9.36-3.93-14.95-11.79-5.38 4.38-12.11 8.11-20.18 11.19a34.4 34.4 0 0 0-4.14-5.48c9.3-1.81 16.58-5.21 21.85-10.21-1.95-5.24-3.34-10.71-4.18-16.41l-7.05 1.42c-2 .43-4.32 1.04-6.97 1.82l-.89-5.75q4.215-.09 7.05-.57l7.29-1.18q-.72-5.955-1.17-12.6l-4.46.89c-2.48.51-5.12 1.19-7.9 2.03l-.73-6.16c2.38 0 4.97-.17 7.78-.49l5.07-.69c-.11-4.46-.17-9.08-.17-13.86 0-2.7-.21-5.88-.64-9.52Zm167.79-.33 5.55 2.07c.46.16.69.32.69.49 0 .16-.24.35-.73.56-.51.25-.98.69-1.42 1.34-.1.22-.31.53-.6.93q-.81 1.335-1.14 1.83h20.91c1.44.05 3.23-.11 5.39-.49v5.15c-2.21-.35-4.01-.53-5.39-.53h-11.22c1.73 2.05 3.52 4.49 5.39 7.3l-3.89 2.91c-2.97-4.59-5.32-7.99-7.05-10.21h-6.04c-1.62 3.43-3.7 7.12-6.24 11.06-2.27-1-4.33-1.67-6.16-2.02 5.1-4.19 9.09-10.98 11.95-20.39Zm-30.43 0 6.72 2.31c.27.11.41.27.41.49-.06.24-.26.42-.61.53-.76.32-1.36.73-1.82 1.21-.71.95-1.5 2-2.39 3.16h15.19c1.54.06 3.37-.11 5.47-.48v5.14c-2.27-.37-4.09-.54-5.47-.48h-6.4c1.38 1.59 2.85 3.52 4.42 5.79l-4.18 2.84c-1.54-2.95-3.5-5.82-5.87-8.63h-5.47c-3.11 4.64-6.3 8.87-9.57 12.68-1.65-1.32-3.55-2.27-5.71-2.83 6.86-5.08 11.95-12.32 15.28-21.73Z"/><text x="3333.81" y="1813.5" fill-opacity="0" font-family="Arial,Arial_MSFontService,sans-serif" font-size="77.934" transform="translate(-142 -55)">虚线、箭头</text><path fill-rule="evenodd" stroke="#000" stroke-linejoin="round" stroke-miterlimit="10" stroke-width="3" d="M3603.83 1838.58c-1.29 2.17-2.98 4.8-5.06 7.91 5.02 1.54 9.33 3 12.93 4.37 3.59-3.7 5.67-7.79 6.24-12.28Zm-399.16-7.86a345 345 0 0 1 17.67 17.59l-4.22 4.05c-6.29-7.45-12.08-13.48-17.34-18.07Zm-35.51-.93 6.37 3.24q.765.33.69.57c0 .11-.34.28-1.02.53-1.1.21-2.48 1.64-4.13 4.29-4.43 6.54-8.67 12.05-12.73 16.54-1.27-.95-3.31-2-6.12-3.16 7.87-4.92 13.51-12.26 16.94-22.01Zm435.48-3.4 4.99 2.22c.73.36 1.12.64 1.17.86.06.27-.23.45-.85.56q-1.74.525-2.31 1.5c-.27.52-.66 1.2-1.17 2.07-.27.46-.46.8-.57 1.01h24.15q3.57 0 6.57-.48v4.94c-2.68-.32-5.01-.49-7.01-.49h-6.53c-.94 5.33-3.13 9.97-6.56 13.95 5.92 2.67 11.41 5.47 16.49 8.38l-2.71 4.83q-8.235-5.925-17.19-9.57c-6.8 4.54-14.83 7.95-24.07 10.22-.73-2.17-1.73-3.96-3-5.39 9.3-1.33 16.63-3.65 22.01-6.98-.16-.05-.53-.16-1.1-.32-8.99-2.89-14.07-4.5-15.23-4.82 2.97-3.97 5.29-7.41 6.97-10.3h-7.5c-1.97 0-3.96.17-5.96.49v-4.94q3.48.48 6.57.48h8.87c1.6-2.89 2.92-5.63 3.97-8.22Zm-247.09-8.31v14.22h21.07v-14.22Zm-25.82 0v14.22h21v-14.22Zm-49.02-.25v11.47h14.1v-11.47Zm-18.77 0v11.47h14.11v-11.47Zm-112.89-1.13c2.84.32 5.05.49 6.65.49h57.79c1.7-.06 4.16-.22 7.37-.49v5.15c-2.94-.3-5.4-.48-7.37-.53h-24.44v34.77c.05.43.08.76.08.97q0 6.525-12.36 6.69c-.27-2-1.32-4.32-3.16-6.97 2.92.81 5.15 1.22 6.69 1.22q1.17 0 1.86-.33c1.46-.43 2.16-2.06 2.11-4.9v-31.45h-28.57c-1.6 0-3.81.17-6.65.53Zm448.04-10.05c3.32 2.86 6.15 6.24 8.47 10.13l-4.09 3.12c-3.03-4.7-5.85-8.04-8.47-10.01Zm20.35-.16 5.14 2.39q.81.405.81.75c0 .23-.27.45-.81.67-1.16.54-2.05 1.33-2.67 2.39-1.33 2.59-2.99 5.39-4.99 8.39h7.22c1.78 0 3.97-.17 6.56-.49v4.98c-2.48-.35-4.67-.52-6.56-.52h-26.55c-1.94 0-4.08.17-6.4.52v-4.98c2.21.32 4.29.49 6.24.49h14.67c3.32-5.43 5.77-10.3 7.34-14.59Zm42.05-.94v40.33h40.93v-40.33Zm-5.31-4.82c3.43.35 6.59.53 9.48.53h33.2c2.81 0 5.76-.18 8.87-.53q-.48 4.335-.48 8.31v41.01q0 3.735.48 7.62h-5.79c.32-2.75.48-5.24.48-7.45h-40.93v1.41c0 2.38.16 4.87.49 7.46h-5.8c.32-2.43.49-4.92.49-7.46v-42.59c0-2.49-.17-5.26-.49-8.31Zm-65.96-.24q3.315.48 6.03.48h29.79q3.69 0 6.57-.48v4.98q-3.645-.48-6.57-.48h-29.79q-2.55 0-6.03.48Zm-232.67-3.16v16.61h21.07v-16.61Zm-25.82 0v16.61h21v-16.61Zm71.88-2.07c2.6.38 4.89.54 6.89.49h47.06c2.32.05 4.82-.11 7.49-.49-9.7 11.19-18.85 19.21-27.47 24.07v34.61c.16 4.43-.76 7.23-2.76 8.39-1.7 1.33-6.21 2.21-13.54 2.64-.05-1.7-.93-4.14-2.63-7.3 3.65.79 6.54 1.18 8.67 1.18 1.14 0 2.03-.11 2.68-.33 1.94-.56 2.86-2.33 2.75-5.31v-36.43c8.51-4.59 15.46-10.16 20.83-16.7h-42.91c-1.76-.05-4.11.11-7.06.49Zm-243.08-.73c2.81.27 5.16.43 7.05.49h39.44c1.21 0 3.25-.17 6.12-.49v5.15c-2.65-.35-4.69-.53-6.12-.53h-39.44c-1.67.05-4.02.23-7.05.53Zm340.54-1.74 6.28.89c.62.11.99.28 1.1.51.1.23-.06.5-.49.83-1.11.94-1.69 2.63-1.74 5.06v15.69h4.37c1.68 0 3.92-.17 6.73-.49v5.15c-2.97-.35-5.21-.53-6.73-.53h-4.37v30.64c4.81-1.43 8.74-2.99 11.79-4.66-.3 2.32-.42 4.38-.36 6.16-18.19 5.13-29.91 8.73-35.18 10.78l-3.41-6.36c2.49-.19 4.79-.5 6.89-.94v-42.43c-.05-2.08-.21-4.67-.48-7.78l6.12 1.01c.78.11 1.17.27 1.17.49.11.16-.13.43-.73.81-.89.78-1.36 2.45-1.42 4.99v42.27c3.76-.9 7.41-1.87 10.95-2.92v-51.23c-.06-2.97-.22-5.62-.49-7.94Zm-174.48-.08q4.005.48 7.74.48h41.82q3.405 0 7.62-.48c-.32 3.19-.49 5.83-.49 7.94v55.81c.06 2.91-.82 4.87-2.63 5.87-1.73 1.06-5.39 1.72-10.98 1.99q-.405-3.165-2.31-6.24c2.89.4 5.16.61 6.81.61 1.05 0 1.82-.09 2.31-.25 1.51-.35 2.22-1.48 2.14-3.4v-18.6h-21.07v15.11c0 1.87.17 4.11.53 6.73h-5.84c.32-2.73.49-4.97.49-6.73v-15.11h-21.08c-.32 10.88-3.63 20.79-9.93 29.7-1.56-1.43-3.59-2.56-6.08-3.4 7.97-6.35 11.8-17.6 11.47-33.76v-28.49c0-2.22-.17-4.81-.52-7.78Zm195.31-2.27 6.57 1.01c.54.05.81.19.81.41.05.21-.14.5-.57.85-1.05.81-1.61 2.5-1.66 5.06v26.47c8.67-5.7 14.61-10.9 17.83-15.61l4.74 4.75c.43.37.6.64.49.81-.11.16-.53.29-1.26.4-1.16.24-2.73 1.16-4.7 2.76-5.65 4.48-11.35 8.66-17.1 12.52v23.26c-.11 3.08.44 4.91 1.66 5.47.81.63 3.04.94 6.69.94.81 0 1.64-.02 2.51-.04 4.16 0 6.71-.5 7.66-1.5 1.16-.81 1.93-3.16 2.31-7.06 0-.21.03-.54.08-.97.16-1.67.3-3.39.4-5.14q1.59 1.245 6.33 2.79c-1 4.65-1.75 7.73-2.23 9.24-1.52 4.87-5.04 7.32-10.58 7.38-1.76.11-4.05.16-6.89.16-5.19.05-8.6-.61-10.25-1.99-1.68-1.05-2.46-3.56-2.35-7.53v-56.05c0-1.76-.17-4.56-.49-8.39Zm-273.07-.57 6.56 2.59c.54.22.79.41.73.57q-.075.24-1.05.81c-1 .52-1.87 1.8-2.59 3.85-1.17 3.08-2.41 6.2-3.73 9.36v51.23c.05 1.86.21 4.43.48 7.7h-5.47c.33-3.59.49-6.16.49-7.7v-41.78c-2.97 5.32-5.43 9.59-7.38 12.8-1.65-.83-3.97-1.67-6.97-2.51 9.13-9.19 15.44-21.49 18.93-36.92Zm325.17-.08 6.57.81c.68.13.99.31.93.53.06.21-.23.56-.85 1.05-1.05.89-1.55 2.45-1.5 4.66v11.47h3.24c1.79 0 3.5-.18 5.15-.53v5.15c-1.54-.32-3.25-.49-5.15-.49h-3.24v18.36c.89-.51 2.42-1.38 4.58-2.59 1.11-.6 1.93-1.07 2.47-1.42 0 .3-.02.69-.08 1.18-.16 1.64-.29 3.14-.4 4.49-1.33.54-3.12 1.34-5.39 2.4-.49.21-.88.37-1.18.48v23.59c.06 2.65-.71 4.44-2.31 5.39-1.38 1-4.59 1.74-9.64 2.23-.76-2.81-1.4-4.72-1.91-5.72 2.24.3 3.95.45 5.11.45q1.905 0 2.55-.45c1.11-.37 1.64-1.78 1.58-4.21v-18.77c-1.94 1-4.92 2.69-8.91 5.07q-1.38-3-3.12-5.07c4.64-1.72 8.65-3.33 12.03-4.82v-20.59h-5.43c-1.76 0-3.58.17-5.47.49v-5.15c1.4.35 3.2.53 5.39.53h5.51v-10.74c-.11-3.19-.28-5.78-.53-7.78Zm-472.42-.24 6.65 1.05c.67.13 1.04.34 1.09.61.05.21-.2.51-.77.89-1.38.67-1.99 2.23-1.82 4.66v2.39h22.25c3.1 0 5.37-.16 6.8-.49v5.15c-1.7-.27-3.97-.43-6.8-.48h-22.25v7.45H3125c3.16 0 5.41-.16 6.73-.48v5.14c-1.67-.32-3.92-.48-6.73-.48h-18.27v8.35h27.72c3.1 0 5.37-.17 6.8-.49v5.15c-1.59-.33-3.86-.49-6.8-.49h-23.71c1.05 4.86 3.23 9.62 6.52 14.27 5.22-3.65 9.65-7.77 13.3-12.37l4.05 3.98c.84.83 1.2 1.41 1.09 1.74-.11.27-.77.4-1.98.4-1.27.14-2.54.67-3.81 1.58-.41.36-1.04.88-1.91 1.59-2.73 2.26-5.31 4.35-7.74 6.24 5.76 6.13 12.75 10.17 20.99 12.11-1.97 1.76-3.51 3.48-4.62 5.15-17.56-7.54-27.74-19.1-30.55-34.69h-2.6c-1.54 2.32-4.05 5.39-7.53 9.2v21.6c7.29-3.49 12.63-6.54 16-9.16l-.56 6.57q-14.19 6.555-19.17 10.29c-1.11-2.11-2.16-3.82-3.16-5.15 1-.54 1.6-1.12 1.82-1.74.27-.73.4-1.97.4-3.73v-14.43c-5.4 4.98-12 9.62-19.81 13.95-1.49-2-3.15-3.64-4.99-4.91 12.4-4 22.72-11.49 30.96-22.49h-22.41c-2.7 0-4.94.16-6.72.49v-5.15c1.32.32 3.56.49 6.72.49h27.08v-8.35h-17.19q-4.335 0-6.81.48v-5.14q2.64.48 6.81.48h17.19v-7.45h-21.61c-2.86 0-5.13.16-6.8.48v-5.15c1.62.33 3.89.49 6.8.49h21.61v-2.07c0-3.02-.18-5.53-.53-7.53Zm175.98-.09 6.36.82c.57.05.86.16.86.32.05.19-.18.53-.69 1.01-.92.89-1.38 2.69-1.38 5.39v3.97h16.9c1.57-.05 3.9-.21 7.01-.48v5.15c-2.89-.27-5.23-.44-7.01-.49h-16.9v8.55h11.51c1.84-.05 4.42-.22 7.74-.49-.27 3.25-.43 5.73-.49 7.46v6.12c.06 1.62.22 4.01.49 7.17-3.49-.29-6.04-.47-7.66-.52h-11.59c-.41 5.21-1.77 10.44-4.09 15.68 8.48 6.22 18.19 9.65 29.13 10.3-2.1 1.89-3.62 3.94-4.53 6.16-10.76-3.11-19.81-7.35-27.16-12.73-5.1 5.21-11.58 9.67-19.41 13.37-1.22-2.16-2.88-3.9-4.99-5.22q13.785-3 20.67-11.55c-3.16-3.35-5.9-7.19-8.22-11.51 2.05-.68 3.58-1.29 4.58-1.83 1.32 3.54 3.39 6.77 6.2 9.69q2.595-5.07 3-12.36h-11.03c-1.89.05-4.52.23-7.9.52.27-3.1.43-5.66.49-7.66v-5.22c-.06-1.9-.22-4.52-.49-7.87 3.54.27 6.28.44 8.23.49h10.86v-8.55h-17.27c-1.59.05-3.73.22-6.4.49v-5.15c2.94.32 5.08.48 6.4.48h17.27v-3.8c-.06-1.87-.22-4.44-.49-7.71Zm329.23-1.25q4.98 3.645 9.81 7.98l-3.49 4.06c-2.64-2.87-5.91-5.64-9.8-8.31Z"/><text x="3208.48" y="1911.76" fill-opacity="0" font-family="Arial,Arial_MSFontService,sans-serif" font-size="78.339" transform="translate(-142 -55)">表示使用了此接口</text></svg>