<svg xmlns="http://www.w3.org/2000/svg" xml:space="preserve" width="4097" height="2475" overflow="hidden"><path fill="none" stroke="#000" stroke-miterlimit="8" stroke-width="10.313" d="M1694 127h839v352h-839z"/><text font-family="DengXian,DengXian_MSFontService,sans-serif" font-size="92" font-weight="400" transform="translate(1821.74 279)">&lt;&lt;interface&gt;&gt;</text><text font-family="DengXian,DengXian_MSFontService,sans-serif" font-size="92" font-weight="400" transform="translate(1872.73 389)">Comparable</text><path fill="none" stroke="#000" stroke-miterlimit="8" stroke-width="10.313" d="M1694 479h839v464h-839z"/><text font-family="DengXian,DengXian_MSFontService,sans-serif" font-size="83" font-weight="400" transform="translate(1727.44 689)">isEqual</text><text font-family="DengXian,DengXian_MSFontService,sans-serif" font-size="83" font-weight="400" transform="translate(1973.22 689)">(String):bool</text><text font-family="DengXian,DengXian_MSFontService,sans-serif" font-size="83" font-weight="400" transform="translate(1727.44 788)">hash():Integer</text><path fill="none" stroke="#000" stroke-miterlimit="8" stroke-width="10.313" d="M26 7h839v352H26z"/><text font-family="DengXian,DengXian_MSFontService,sans-serif" font-size="92" font-weight="400" transform="translate(329.845 214)">String</text><path fill="none" stroke="#000" stroke-miterlimit="8" stroke-width="10.313" d="M26 359h839v352H26z"/><text font-family="DengXian,DengXian_MSFontService,sans-serif" font-size="92" font-weight="400" transform="translate(58.796 511)">…</text><text font-family="DengXian,DengXian_MSFontService,sans-serif" font-size="92" font-weight="400" transform="translate(58.796 621)">…</text><path fill="none" stroke="#000" stroke-miterlimit="8" stroke-width="10.313" d="M26 711h839v465H26z"/><text font-family="DengXian,DengXian_MSFontService,sans-serif" font-size="83" font-weight="400" transform="translate(58.796 872)">isEqual</text><text font-family="DengXian,DengXian_MSFontService,sans-serif" font-size="83" font-weight="400" transform="translate(304.577 872)">(String):bool</text><text font-family="DengXian,DengXian_MSFontService,sans-serif" font-size="83" font-weight="400" transform="translate(58.796 971)">hash():Integer</text><text font-family="DengXian,DengXian_MSFontService,sans-serif" font-size="83" font-weight="400" transform="translate(58.796 1070)">…</text><path fill="none" stroke="#000" stroke-miterlimit="8" stroke-width="10.313" d="M3251 359h839v352h-839z"/><text font-family="DengXian,DengXian_MSFontService,sans-serif" font-size="92" font-weight="400" transform="translate(3465.32 566)">HashTable</text><path d="M3250.8 540.156h-41.25v-10.312h41.25Zm-72.19 0h-41.25v-10.312h41.25Zm-72.19 0h-41.25v-10.312h41.25Zm-72.19 0h-41.25v-10.312h41.25Zm-72.18 0h-41.25v-10.312h41.25Zm-72.19 0h-41.25v-10.312h41.25Zm-72.19 0h-41.25v-10.312h41.25Zm-72.19 0h-41.25v-10.312h41.25Zm-72.18 0h-41.25v-10.312h41.25Zm-72.19 0h-41.25v-10.312h41.25Zm-13.59 25.133L2533 535l54.52-30.289a5.167 5.167 0 0 1 7.02 2.004 5.16 5.16 0 0 1-2.01 7.011l-46.4 25.781v-9.015l46.4 25.782a5.16 5.16 0 0 1 2.01 7.011 5.167 5.167 0 0 1-7.02 2.004"/><text font-family="DengXian,DengXian_MSFontService,sans-serif" font-size="83" font-weight="400" transform="translate(2734.52 452)">&lt;&lt;use&gt;&gt;</text><path fill="none" stroke="#000" stroke-dasharray="41.25 30.9375" stroke-miterlimit="8" stroke-width="10.313" d="M865 535h829.661"/><path fill="#fff" fill-rule="evenodd" stroke="#000" stroke-miterlimit="8" stroke-width="10.313" d="m1611 479 83 56-83 56Z"/><path fill="#ff0" fill-rule="evenodd" d="M1727.47 2226.81h600.99v157h-600.99Z"/><text fill="red" font-family="DengXian,DengXian_MSFontService,sans-serif" font-size="151" font-weight="700" transform="translate(1727.47 2344)">interface</text><path fill="none" stroke="#00b050" stroke-miterlimit="8" stroke-width="4.583" d="M1583.5 1424.5h797v462h-797z"/><text font-family="DengXian,DengXian_MSFontService,sans-serif" font-size="83" font-weight="700" transform="translate(1651.33 1633)">虚线、空三角箭头</text><text font-family="DengXian,DengXian_MSFontService,sans-serif" font-size="83" font-weight="700" transform="translate(1651.33 1732)">表示提供了此接口</text><path fill="none" stroke="#00b050" stroke-miterlimit="8" stroke-width="4.583" d="M1582.82 1655.72 1361.5 611.5M3113.5 1423.5h797v461h-797z"/><text font-family="DengXian,DengXian_MSFontService,sans-serif" font-size="83" font-weight="700" transform="translate(3305.46 1632)">虚线、箭头</text><text font-family="DengXian,DengXian_MSFontService,sans-serif" font-size="83" font-weight="700" transform="translate(3181.71 1731)">表示使用了此接口</text><path fill="none" stroke="#00b050" stroke-miterlimit="8" stroke-width="4.583" d="M3113.13 1654.32 2892.5 611.5"/></svg>