<svg xmlns="http://www.w3.org/2000/svg" xml:space="preserve" width="4097" height="1183" overflow="hidden"><path fill="none" stroke="#172c51" stroke-miterlimit="8" stroke-width="10.313" d="M1770 540c0-189.986 154.01-344 344-344s344 154.014 344 344-154.01 344-344 344-344-154.014-344-344Z"/><path fill="#fff" d="M1455 57h746v1004h-746z"/><path fill="none" stroke="#000" stroke-miterlimit="8" stroke-width="10.313" d="M1893 535c0-122.055 98.95-221 221-221s221 98.945 221 221-98.95 221-221 221-221-98.945-221-221ZM2458 540.594 3251.306 535M26 6h839v353H26z"/><text font-family="Microsoft YaHei,Microsoft YaHei_MSFontService,sans-serif" font-size="92" font-weight="400" transform="translate(315.969 215)">String</text><path fill="none" stroke="#000" stroke-miterlimit="8" stroke-width="10.313" d="M26 359h839v352H26z"/><text font-family="Microsoft YaHei,Microsoft YaHei_MSFontService,sans-serif" font-size="92" font-weight="400" transform="translate(58.796 513)">…</text><text font-family="Microsoft YaHei,Microsoft YaHei_MSFontService,sans-serif" font-size="92" font-weight="400" transform="translate(58.796 623)">…</text><path fill="none" stroke="#000" stroke-miterlimit="8" stroke-width="10.313" d="M26 711h839v464H26z"/><text font-family="Microsoft YaHei,Microsoft YaHei_MSFontService,sans-serif" font-size="83" font-weight="400" transform="translate(58.796 874)">isEqual</text><text font-family="Microsoft YaHei,Microsoft YaHei_MSFontService,sans-serif" font-size="83" font-weight="400" transform="translate(335.515 874)">(String):bool</text><text font-family="Microsoft YaHei,Microsoft YaHei_MSFontService,sans-serif" font-size="83" font-weight="400" transform="translate(58.796 973)">hash():Integer</text><text font-family="Microsoft YaHei,Microsoft YaHei_MSFontService,sans-serif" font-size="83" font-weight="400" transform="translate(58.796 1072)">…</text><path fill="none" stroke="#000" stroke-miterlimit="8" stroke-width="10.313" d="M3251 359h839v352h-839z"/><text font-family="Microsoft YaHei,Microsoft YaHei_MSFontService,sans-serif" font-size="92" font-weight="400" transform="translate(3446.5 568)">HashTable</text><path fill="none" stroke="#000" stroke-miterlimit="8" stroke-width="10.313" d="m865 535 1028.22 5.594"/></svg>