<svg xmlns="http://www.w3.org/2000/svg" xml:space="preserve" width="2003" height="1985" overflow="hidden"><path fill="#fff" fill-rule="evenodd" stroke="#000" stroke-dasharray="41.25 30.9375" stroke-miterlimit="8" stroke-width="10.313" d="M6 380C6 174.55 451.7 8 1001.5 8S1997 174.55 1997 380s-445.7 372-995.5 372S6 585.45 6 380Z"/><text font-family="DengXian,DengXian_MSFontService,sans-serif" font-size="202" font-weight="400" transform="translate(598.226 447)">销售商品</text><path fill="#fff" fill-rule="evenodd" stroke="#000" stroke-dasharray="41.25 30.9375" stroke-miterlimit="8" stroke-width="10.313" d="M6 1605c0-205.45 445.7-372 995.5-372s995.5 166.55 995.5 372-445.7 372-995.5 372S6 1810.45 6 1605Z"/><text font-family="DengXian,DengXian_MSFontService,sans-serif" font-size="202" font-weight="400" transform="translate(598.226 1430)">销售商品</text><path fill="none" stroke="#000" stroke-miterlimit="8" stroke-width="10.313" d="M202 1496h1646.27"/><path fill="#fff" stroke="#000" stroke-miterlimit="8" stroke-width="10.313" d="M246 1563h554v241H246z"/><text font-family="DengXian,DengXian_MSFontService,sans-serif" font-size="128" font-weight="400" transform="translate(330.839 1726)">购买者</text><path fill="#fff" stroke="#000" stroke-miterlimit="8" stroke-width="10.313" d="M1202 1563h554v241h-554z"/><text font-family="DengXian,DengXian_MSFontService,sans-serif" font-size="128" font-weight="400" transform="translate(1286.35 1726)">销售者</text><path fill="none" stroke="#000" stroke-miterlimit="8" stroke-width="10.313" d="M800 1683h401.78"/></svg>