<svg xmlns="http://www.w3.org/2000/svg" xml:space="preserve" width="2613" height="1109" overflow="hidden"><path fill="#fff" stroke="#000" stroke-miterlimit="8" stroke-width="10.313" d="M19 729h923v362H19z"/><text font-family="DengXian,DengXian_MSFontService,sans-serif" font-size="83" font-weight="400" transform="translate(51.695 838)">+Window</text><text font-family="DengXian,DengXian_MSFontService,sans-serif" font-size="83" font-weight="400" transform="translate(51.695 937)">+Form</text><text font-family="DengXian,DengXian_MSFontService,sans-serif" font-size="83" font-weight="400" transform="translate(51.695 1036)">#</text><text font-family="DengXian,DengXian_MSFontService,sans-serif" font-size="83" font-weight="400" transform="translate(100.965 1036)">EventHandler</text><path fill="#fff" stroke="#000" stroke-miterlimit="8" stroke-width="10.313" d="M19 566h475v163H19z"/><text font-family="DengXian,DengXian_MSFontService,sans-serif" font-size="110" font-weight="700" transform="translate(163.307 684)">GUI</text><path fill="#fff" stroke="#000" stroke-miterlimit="8" stroke-width="10.313" d="M1685 182h922v362h-922z"/><text font-family="DengXian,DengXian_MSFontService,sans-serif" font-size="83" font-weight="400" transform="translate(1717.54 341)">+</text><text font-family="DengXian,DengXian_MSFontService,sans-serif" font-size="83" font-weight="400" transform="translate(1772.54 341)">OrderRules</text><text font-family="DengXian,DengXian_MSFontService,sans-serif" font-size="83" font-weight="400" transform="translate(1717.54 440)">-</text><text font-family="DengXian,DengXian_MSFontService,sans-serif" font-size="83" font-weight="400" transform="translate(1758.79 440)">GUI::Window</text><path fill="#fff" stroke="#000" stroke-miterlimit="8" stroke-width="10.313" d="M1685 20h475v162h-475z"/><text font-family="DengXian,DengXian_MSFontService,sans-serif" font-size="110" font-weight="700" transform="translate(1735.48 138)">Policies</text><path d="M2151.56 544v82.5h-10.31V544Zm0 113.44v82.5h-10.31v-82.5Zm0 113.44v82.5h-10.31v-82.5Zm0 113.43v30.04h-62.77v-10.32h57.62l-5.16 5.16v-24.88Zm-93.71 30.04h-82.5v-10.32h82.5Zm-113.44 0h-82.5v-10.32h82.5Zm-113.44 0h-82.5v-10.32h82.5Zm-113.43 0h-82.5v-10.32h82.5Zm-113.44 0h-82.5v-10.32h82.5Zm-113.44 0h-82.5v-10.32h82.5Zm-113.44 0h-82.5v-10.32h82.5Zm-113.43 0h-82.5v-10.32h82.5Zm-113.44 0h-82.5v-10.32h82.5Zm-113.44 0h-82.5v-10.32h82.5Zm-40.39 25.13L942 909.19l54.52-30.29a5.17 5.17 0 0 1 7.02 2.01 5.16 5.16 0 0 1-2.01 7.01l-46.4 25.78v-9.02l46.4 25.79a5.16 5.16 0 0 1 2.01 7.01 5.17 5.17 0 0 1-7.02 2"/><path fill="#ff0" fill-rule="evenodd" d="M962.69 56.861h151.25v200H962.69Z"/><text fill="red" font-family="Microsoft YaHei,Microsoft YaHei_MSFontService,sans-serif" font-size="151" font-weight="700" transform="translate(962.69 221)">包</text></svg>