<svg xmlns="http://www.w3.org/2000/svg" xml:space="preserve" width="2585" height="1906" overflow="hidden"><path fill="none" stroke="#000" stroke-miterlimit="8" stroke-width="10.313" d="M25 773h839v353H25z"/><text font-family="Microsoft YaHei,Microsoft YaHei_MSFontService,sans-serif" font-size="92" font-weight="400" transform="translate(179.96 927)">&lt;&lt;signal&gt;&gt;</text><text font-family="Microsoft YaHei,Microsoft YaHei_MSFontService,sans-serif" font-size="92" font-weight="400" transform="translate(257.01 1037)">Collision</text><path fill="none" stroke="#000" stroke-miterlimit="8" stroke-width="10.313" d="M25 1126h839v352H25z"/><text font-family="Microsoft YaHei,Microsoft YaHei_MSFontService,sans-serif" font-size="92" font-weight="400" transform="translate(58.44 1335)">force:Float</text><path fill="none" stroke="#000" stroke-miterlimit="8" stroke-width="10.313" d="M1738 8h839v352h-839z"/><text font-family="Microsoft YaHei,Microsoft YaHei_MSFontService,sans-serif" font-size="92" font-weight="400" transform="translate(1786.16 217)">MovementAgent</text><path fill="none" stroke="#000" stroke-miterlimit="8" stroke-width="10.313" d="M1738 360h839v352h-839z"/><text font-family="Microsoft YaHei,Microsoft YaHei_MSFontService,sans-serif" font-size="92" font-weight="400" transform="translate(1771.21 514)">position</text><text font-family="Microsoft YaHei,Microsoft YaHei_MSFontService,sans-serif" font-size="92" font-weight="400" transform="translate(1771.21 624)">velocity</text><path fill="none" stroke="#000" stroke-miterlimit="8" stroke-width="10.313" d="M1738 711h839v464h-839z"/><text font-family="Microsoft YaHei,Microsoft YaHei_MSFontService,sans-serif" font-size="83" font-weight="400" transform="translate(1771.21 973)">moveTo</text><text font-family="Microsoft YaHei,Microsoft YaHei_MSFontService,sans-serif" font-size="83" font-weight="400" transform="translate(2082.32 973)">()</text><path d="m1737.744 937.844-82.498.576.072 10.312 82.498-.576Zm-113.435.792-82.498.576.072 10.312 82.498-.576Zm-113.434.792-82.498.576.072 10.312 82.498-.576Zm-113.435.792-82.498.576.072 10.313 82.498-.577Zm-113.435.792-82.498.576.072 10.313 82.498-.576Zm-113.435.792-82.498.577.072 10.312 82.498-.576Zm-113.434.793-82.498.576.072 10.312 82.498-.576Zm-113.435.792-69.118.482.072 10.313 69.118-.483Zm-25.391-24.956-54.307 30.669 54.73 29.907a5.156 5.156 0 0 0 4.945-9.05l-46.585-25.456.063 9.014 46.225-26.105a5.157 5.157 0 0 0-5.071-8.979"/><text font-family="DengXian,DengXian_MSFontService,sans-serif" font-size="83" font-weight="400" transform="translate(1148.53 904)">&lt;&lt;send&gt;&gt;</text><path fill="#fff" stroke="#70ad47" stroke-miterlimit="8" stroke-width="4.583" d="M218.5 429.5h454v171h-454z"/><path fill="none" stroke="#70ad47" stroke-miterlimit="8" stroke-width="4.583" d="M180.67 461.563 88.53 868.53"/><text font-family="DengXian,DengXian_MSFontService,sans-serif" font-size="83" font-weight="400" transform="translate(362.43 542)">信号</text><path fill="#fff" stroke="#70ad47" stroke-miterlimit="8" stroke-width="4.583" d="M1075.5 1307.5h453v171h-453z"/><path fill="none" stroke="#70ad47" stroke-miterlimit="8" stroke-width="4.583" d="m1037.75 1339.56-333.73-11.46"/><text font-family="DengXian,DengXian_MSFontService,sans-serif" font-size="83" font-weight="400" transform="translate(1218.82 1420)">参数</text><path fill="#ff0" fill-rule="evenodd" d="M1020.85 1629.87h284.16v188h-284.16Z"/><text fill="red" font-family="Microsoft YaHei,Microsoft YaHei_MSFontService,sans-serif" font-size="142" font-weight="700" transform="translate(1020.85 1784)">信号</text><path fill="#fff" stroke="#70ad47" stroke-miterlimit="8" stroke-width="4.583" d="M1182.5 395.5h453v171h-453z"/><path fill="none" stroke="#70ad47" stroke-miterlimit="8" stroke-width="4.583" d="M1355.77 594.935 1241.86 790.49"/><text font-family="DengXian,DengXian_MSFontService,sans-serif" font-size="83" font-weight="400" transform="translate(1243.43 508)">发送依赖</text></svg>