<svg xmlns="http://www.w3.org/2000/svg" xml:space="preserve" width="2255" height="1669" overflow="hidden"><text font-family="DengXian,DengXian_MSFontService,sans-serif" font-size="110" font-weight="700" transform="translate(1054 139)">伙伴系统</text><text font-family="DengXian,DengXian_MSFontService,sans-serif" font-size="110" font-weight="700" transform="translate(833.997 271)">（如何分配内存）</text><path fill="none" stroke="#41709c" stroke-linejoin="round" stroke-miterlimit="10" stroke-width="4.583" d="M298.5 336.5h1952v80h-1952z"/><text font-family="Arial,Arial_MSFontService,sans-serif" font-size="46" font-weight="700" transform="translate(1243.35 390)">1M</text><text font-family="Arial,Arial_MSFontService,sans-serif" font-size="46" font-weight="700" transform="translate(32.363 381)">1</text><text font-family="Arial,Arial_MSFontService,sans-serif" font-size="46" font-weight="700" transform="translate(65.363 381)">MB</text><text font-family="Lantinghei SC,Lantinghei SC_MSFontService,sans-serif" font-size="46" font-weight="900" transform="translate(141.103 381)">内存</text><text font-family="Arial,Arial_MSFontService,sans-serif" font-size="46" font-weight="700" transform="translate(30.603 516)">A</text><text font-family="Lantinghei SC,Lantinghei SC_MSFontService,sans-serif" font-size="46" font-weight="900" transform="translate(57.645 516)">申请</text><text font-family="Arial,Arial_MSFontService,sans-serif" font-size="46" font-weight="700" transform="translate(159.051 516)">100K</text><text font-family="Arial,Arial_MSFontService,sans-serif" font-size="46" font-weight="700" transform="translate(32.207 621)">B</text><text font-family="Lantinghei SC,Lantinghei SC_MSFontService,sans-serif" font-size="46" font-weight="900" transform="translate(57.645 621)">申请</text><text font-family="Arial,Arial_MSFontService,sans-serif" font-size="46" font-weight="700" transform="translate(159.051 621)">240K</text><text font-family="Arial,Arial_MSFontService,sans-serif" font-size="46" font-weight="700" transform="translate(32.207 729)">C</text><text font-family="Lantinghei SC,Lantinghei SC_MSFontService,sans-serif" font-size="46" font-weight="900" transform="translate(55.811 729)">申请</text><text font-family="Arial,Arial_MSFontService,sans-serif" font-size="46" font-weight="700" transform="translate(157.218 729)">64K </text><text font-family="Arial,Arial_MSFontService,sans-serif" font-size="46" font-weight="700" transform="translate(32.207 854)">D</text><text font-family="Lantinghei SC,Lantinghei SC_MSFontService,sans-serif" font-size="46" font-weight="900" transform="translate(60.211 854)">申请</text><text font-family="Arial,Arial_MSFontService,sans-serif" font-size="46" font-weight="700" transform="translate(161.618 854)">256K</text><text font-family="Lantinghei SC,Lantinghei SC_MSFontService,sans-serif" font-size="46" font-weight="900" transform="translate(32.207 1000)">释放</text><text font-family="Arial,Arial_MSFontService,sans-serif" font-size="46" font-weight="700" transform="translate(133.041 1000)">B</text><text font-family="Lantinghei SC,Lantinghei SC_MSFontService,sans-serif" font-size="46" font-weight="900" transform="translate(32.207 1129)">释放</text><text font-family="Arial,Arial_MSFontService,sans-serif" font-size="46" font-weight="700" transform="translate(133.041 1129)">A</text><text font-family="Arial,Arial_MSFontService,sans-serif" font-size="46" font-weight="700" transform="translate(32.207 1257)">E</text><text font-family="Lantinghei SC,Lantinghei SC_MSFontService,sans-serif" font-size="46" font-weight="900" transform="translate(53.634 1257)">申请</text><text font-family="Arial,Arial_MSFontService,sans-serif" font-size="46" font-weight="700" transform="translate(155.728 1257)">75K</text><text font-family="Lantinghei SC,Lantinghei SC_MSFontService,sans-serif" font-size="46" font-weight="900" transform="translate(32.207 1385)">释放</text><text font-family="Arial,Arial_MSFontService,sans-serif" font-size="46" font-weight="700" transform="translate(132.582 1385)">C</text><text font-family="Lantinghei SC,Lantinghei SC_MSFontService,sans-serif" font-size="46" font-weight="900" transform="translate(32.207 1514)">释放</text><text font-family="Arial,Arial_MSFontService,sans-serif" font-size="46" font-weight="700" transform="translate(133.041 1514)">E</text><path fill="#ffc000" fill-rule="evenodd" d="M295.685 574.052h240.854v77H295.685Zm240.854 0h255.75v77h-255.75Z"/><path fill="#6fac46" fill-rule="evenodd" d="M792.289 574.052h463.141v77H792.289Z"/><path fill="#5b9bd4" fill-rule="evenodd" d="M1255.43 574.052h992.75v77h-992.75Z"/><path fill="none" stroke="#bb8b00" stroke-linejoin="round" stroke-miterlimit="10" stroke-width="4.583" d="M536.539 571.761v81.583m255.75-81.583v81.583"/><path fill="none" stroke="#507d31" stroke-linejoin="round" stroke-miterlimit="10" stroke-width="4.583" d="M1255.43 571.761v81.583"/><path fill="none" stroke="#bb8b00" stroke-linejoin="round" stroke-miterlimit="10" stroke-width="4.583" d="M295.685 571.761v81.583"/><path fill="none" stroke="#41709c" stroke-linejoin="round" stroke-miterlimit="10" stroke-width="4.583" d="M2248.18 571.761v81.583"/><path fill="none" stroke="#bb8b00" stroke-linejoin="round" stroke-miterlimit="10" stroke-width="4.583" d="M293.393 574.052h498.896"/><path fill="none" stroke="#507d31" stroke-linejoin="round" stroke-miterlimit="10" stroke-width="4.583" d="M792.289 574.052h463.141"/><path fill="none" stroke="#41709c" stroke-linejoin="round" stroke-miterlimit="10" stroke-width="4.583" d="M1255.43 574.052h995.05"/><path fill="none" stroke="#bb8b00" stroke-linejoin="round" stroke-miterlimit="10" stroke-width="4.583" d="M293.393 651.052h498.896"/><path fill="none" stroke="#507d31" stroke-linejoin="round" stroke-miterlimit="10" stroke-width="4.583" d="M792.289 651.052h463.141"/><path fill="none" stroke="#41709c" stroke-linejoin="round" stroke-miterlimit="10" stroke-width="4.583" d="M1255.43 651.052h995.05"/><text font-family="Arial,Arial_MSFontService,sans-serif" font-size="46" font-weight="700" transform="translate(1699.56 627)">512K</text><text fill="red" font-family="Arial,Arial_MSFontService,sans-serif" font-size="46" font-weight="700" transform="translate(940.96 627)">B=256K</text><text font-family="Arial,Arial_MSFontService,sans-serif" font-size="46" font-weight="700" transform="translate(618.81 627)">128k</text><text font-family="Arial,Arial_MSFontService,sans-serif" font-size="46" font-weight="700" transform="translate(343.81 627)">A=128K</text><path fill="#ffc000" fill-rule="evenodd" d="M295.685 699.59h240.854v77H295.685Z"/><path fill="#a4a4a4" fill-rule="evenodd" d="M536.539 699.59h127.875v77H536.539Zm127.875 0h127.875v77H664.414Z"/><path fill="#6fac46" fill-rule="evenodd" d="M792.289 699.59h463.141v77H792.289Z"/><path fill="#5b9bd4" fill-rule="evenodd" d="M1255.43 699.59h992.75v77h-992.75Z"/><path fill="none" stroke="#787878" stroke-linejoin="round" stroke-miterlimit="10" stroke-width="4.583" d="M536.539 697.298v81.584m127.875-81.584v81.584m127.875-81.584v81.584"/><path fill="none" stroke="#507d31" stroke-linejoin="round" stroke-miterlimit="10" stroke-width="4.583" d="M1255.43 697.298v81.584"/><path fill="none" stroke="#bb8b00" stroke-linejoin="round" stroke-miterlimit="10" stroke-width="4.583" d="M295.685 697.298v81.584"/><path fill="none" stroke="#41709c" stroke-linejoin="round" stroke-miterlimit="10" stroke-width="4.583" d="M2248.18 697.298v81.584"/><path fill="none" stroke="#bb8b00" stroke-linejoin="round" stroke-miterlimit="10" stroke-width="4.583" d="M293.393 699.59h243.146"/><path fill="none" stroke="#787878" stroke-linejoin="round" stroke-miterlimit="10" stroke-width="4.583" d="M536.539 699.59h255.75"/><path fill="none" stroke="#507d31" stroke-linejoin="round" stroke-miterlimit="10" stroke-width="4.583" d="M792.289 699.59h463.141"/><path fill="none" stroke="#41709c" stroke-linejoin="round" stroke-miterlimit="10" stroke-width="4.583" d="M1255.43 699.59h995.05"/><path fill="none" stroke="#bb8b00" stroke-linejoin="round" stroke-miterlimit="10" stroke-width="4.583" d="M293.393 776.59h243.146"/><path fill="none" stroke="#787878" stroke-linejoin="round" stroke-miterlimit="10" stroke-width="4.583" d="M536.539 776.59h255.75"/><path fill="none" stroke="#507d31" stroke-linejoin="round" stroke-miterlimit="10" stroke-width="4.583" d="M792.289 776.59h463.141"/><path fill="none" stroke="#41709c" stroke-linejoin="round" stroke-miterlimit="10" stroke-width="4.583" d="M1255.43 776.59h995.05"/><text font-family="Arial,Arial_MSFontService,sans-serif" font-size="46" font-weight="700" transform="translate(1699.56 753)">512K</text><text font-family="Arial,Arial_MSFontService,sans-serif" font-size="46" font-weight="700" transform="translate(941.07 753)">B=256K</text><text font-family="Arial,Arial_MSFontService,sans-serif" font-size="41" font-weight="700" transform="translate(695.58 751)">64K</text><text fill="red" font-family="Arial,Arial_MSFontService,sans-serif" font-size="37" font-weight="700" transform="translate(577.972 724)">C=</text><text fill="red" font-family="Arial,Arial_MSFontService,sans-serif" font-size="37" font-weight="700" transform="translate(568.393 765)">64K</text><text font-family="Arial,Arial_MSFontService,sans-serif" font-size="46" font-weight="700" transform="translate(343.81 753)">A=128K</text><path fill="#ffc000" fill-rule="evenodd" d="M295.685 824.974h240.854v76.546H295.685Z"/><path fill="#a4a4a4" fill-rule="evenodd" d="M536.539 824.974h127.875v76.546H536.539Zm127.875 0h127.875v76.546H664.414Z"/><path fill="#6fac46" fill-rule="evenodd" d="M792.289 824.974h463.141v76.546H792.289Zm463.141 0h500.27v76.546h-500.27Zm500.27 0h492.94v76.546H1755.7Z"/><path fill="none" stroke="#787878" stroke-linejoin="round" stroke-miterlimit="10" stroke-width="4.583" d="M536.539 822.682v81.128m127.875-81.128v81.128m127.875-81.128v81.128"/><path fill="none" stroke="#507d31" stroke-linejoin="round" stroke-miterlimit="10" stroke-width="4.583" d="M1255.43 822.682v81.128m500.27-81.128v81.128"/><path fill="none" stroke="#bb8b00" stroke-linejoin="round" stroke-miterlimit="10" stroke-width="4.583" d="M295.685 822.682v81.128"/><path fill="none" stroke="#507d31" stroke-linejoin="round" stroke-miterlimit="10" stroke-width="4.583" d="M2248.64 822.682v81.128"/><path fill="none" stroke="#bb8b00" stroke-linejoin="round" stroke-miterlimit="10" stroke-width="4.583" d="M293.393 824.974h243.146"/><path fill="none" stroke="#787878" stroke-linejoin="round" stroke-miterlimit="10" stroke-width="4.583" d="M536.539 824.974h255.75"/><path fill="none" stroke="#507d31" stroke-linejoin="round" stroke-miterlimit="10" stroke-width="4.583" d="M792.289 824.974H2250.93"/><path fill="none" stroke="#bb8b00" stroke-linejoin="round" stroke-miterlimit="10" stroke-width="4.583" d="M293.393 901.52h243.146"/><path fill="none" stroke="#787878" stroke-linejoin="round" stroke-miterlimit="10" stroke-width="4.583" d="M536.539 901.52h255.75"/><path fill="none" stroke="#507d31" stroke-linejoin="round" stroke-miterlimit="10" stroke-width="4.583" d="M792.289 901.52H2250.93"/><text font-family="Arial,Arial_MSFontService,sans-serif" font-size="46" font-weight="700" transform="translate(1949.92 878)">256K</text><text fill="red" font-family="Arial,Arial_MSFontService,sans-serif" font-size="46" font-weight="700" transform="translate(1422.55 878)">D=256K</text><text font-family="Arial,Arial_MSFontService,sans-serif" font-size="46" font-weight="700" transform="translate(940.96 878)">B=256K</text><text font-family="Arial,Arial_MSFontService,sans-serif" font-size="41" font-weight="700" transform="translate(695.58 876)">64K</text><text font-family="Arial,Arial_MSFontService,sans-serif" font-size="37" font-weight="700" transform="translate(581.685 854)">C=</text><text font-family="Arial,Arial_MSFontService,sans-serif" font-size="37" font-weight="700" transform="translate(571.372 889)">64K</text><text font-family="Arial,Arial_MSFontService,sans-serif" font-size="46" font-weight="700" transform="translate(343.81 878)">A=128K</text><path fill="#ffc000" fill-rule="evenodd" d="M295.685 950.71h240.854v76.77H295.685Z"/><path fill="#a4a4a4" fill-rule="evenodd" d="M536.539 950.71h127.875v76.77H536.539Zm127.875 0h127.875v76.77H664.414Z"/><path fill="#6fac46" fill-rule="evenodd" d="M792.289 950.71h463.141v76.77H792.289Zm463.141 0h500.27v76.77h-500.27Zm500.27 0h492.94v76.77H1755.7Z"/><path fill="none" stroke="#787878" stroke-linejoin="round" stroke-miterlimit="10" stroke-width="4.583" d="M536.539 948.41v81.36m127.875-81.36v81.36m127.875-81.36v81.36"/><path fill="none" stroke="#507d31" stroke-linejoin="round" stroke-miterlimit="10" stroke-width="4.583" d="M1255.43 948.41v81.36m500.27-81.36v81.36"/><path fill="none" stroke="#bb8b00" stroke-linejoin="round" stroke-miterlimit="10" stroke-width="4.583" d="M295.685 948.41v81.36"/><path fill="none" stroke="#507d31" stroke-linejoin="round" stroke-miterlimit="10" stroke-width="4.583" d="M2248.64 948.41v81.36"/><path fill="none" stroke="#bb8b00" stroke-linejoin="round" stroke-miterlimit="10" stroke-width="4.583" d="M293.393 950.71h243.146"/><path fill="none" stroke="#787878" stroke-linejoin="round" stroke-miterlimit="10" stroke-width="4.583" d="M536.539 950.71h255.75"/><path fill="none" stroke="#507d31" stroke-linejoin="round" stroke-miterlimit="10" stroke-width="4.583" d="M792.289 950.71H2250.93"/><path fill="none" stroke="#bb8b00" stroke-linejoin="round" stroke-miterlimit="10" stroke-width="4.583" d="M293.393 1027.48h243.146"/><path fill="none" stroke="#787878" stroke-linejoin="round" stroke-miterlimit="10" stroke-width="4.583" d="M536.539 1027.48h255.75"/><path fill="none" stroke="#507d31" stroke-linejoin="round" stroke-miterlimit="10" stroke-width="4.583" d="M792.289 1027.48H2250.93"/><text font-family="Arial,Arial_MSFontService,sans-serif" font-size="46" font-weight="700" transform="translate(1949.92 1004)">256K</text><text font-family="Arial,Arial_MSFontService,sans-serif" font-size="46" font-weight="700" transform="translate(1422.55 1004)">D=256K</text><text font-family="Arial,Arial_MSFontService,sans-serif" font-size="46" font-weight="700" transform="translate(971.5 1004)">256K</text><text font-family="Arial,Arial_MSFontService,sans-serif" font-size="41" font-weight="700" transform="translate(695.58 1002)">64K</text><text font-family="Arial,Arial_MSFontService,sans-serif" font-size="37" font-weight="700" transform="translate(581.685 980)">C=</text><text font-family="Arial,Arial_MSFontService,sans-serif" font-size="37" font-weight="700" transform="translate(571.372 1015)">64K</text><text font-family="Arial,Arial_MSFontService,sans-serif" font-size="46" font-weight="700" transform="translate(343.81 1004)">A=128K</text><path fill="#ffc000" fill-rule="evenodd" d="M295.685 1072.97h240.854v76.55H295.685Z"/><path fill="#a4a4a4" fill-rule="evenodd" d="M536.539 1072.97h127.875v76.55H536.539Zm127.875 0h127.875v76.55H664.414Z"/><path fill="#6fac46" fill-rule="evenodd" d="M792.289 1072.97h463.141v76.55H792.289Zm463.141 0h500.27v76.55h-500.27Zm500.27 0h492.94v76.55H1755.7Z"/><path fill="none" stroke="#787878" stroke-linejoin="round" stroke-miterlimit="10" stroke-width="4.583" d="M536.539 1070.68v81.13m127.875-81.13v81.13m127.875-81.13v81.13"/><path fill="none" stroke="#507d31" stroke-linejoin="round" stroke-miterlimit="10" stroke-width="4.583" d="M1255.43 1070.68v81.13m500.27-81.13v81.13"/><path fill="none" stroke="#bb8b00" stroke-linejoin="round" stroke-miterlimit="10" stroke-width="4.583" d="M295.685 1070.68v81.13"/><path fill="none" stroke="#507d31" stroke-linejoin="round" stroke-miterlimit="10" stroke-width="4.583" d="M2248.64 1070.68v81.13"/><path fill="none" stroke="#bb8b00" stroke-linejoin="round" stroke-miterlimit="10" stroke-width="4.583" d="M293.393 1072.97h243.146"/><path fill="none" stroke="#787878" stroke-linejoin="round" stroke-miterlimit="10" stroke-width="4.583" d="M536.539 1072.97h255.75"/><path fill="none" stroke="#507d31" stroke-linejoin="round" stroke-miterlimit="10" stroke-width="4.583" d="M792.289 1072.97H2250.93"/><path fill="none" stroke="#bb8b00" stroke-linejoin="round" stroke-miterlimit="10" stroke-width="4.583" d="M293.393 1149.52h243.146"/><path fill="none" stroke="#787878" stroke-linejoin="round" stroke-miterlimit="10" stroke-width="4.583" d="M536.539 1149.52h255.75"/><path fill="none" stroke="#507d31" stroke-linejoin="round" stroke-miterlimit="10" stroke-width="4.583" d="M792.289 1149.52H2250.93"/><text font-family="Arial,Arial_MSFontService,sans-serif" font-size="46" font-weight="700" transform="translate(1949.92 1126)">256K</text><text font-family="Arial,Arial_MSFontService,sans-serif" font-size="46" font-weight="700" transform="translate(1422.55 1126)">D=256K</text><text font-family="Arial,Arial_MSFontService,sans-serif" font-size="46" font-weight="700" transform="translate(971.5 1126)">256K</text><text font-family="Arial,Arial_MSFontService,sans-serif" font-size="41" font-weight="700" transform="translate(695.58 1124)">64K</text><text font-family="Arial,Arial_MSFontService,sans-serif" font-size="37" font-weight="700" transform="translate(581.685 1102)">C=</text><text font-family="Arial,Arial_MSFontService,sans-serif" font-size="37" font-weight="700" transform="translate(571.372 1137)">64K</text><text font-family="Arial,Arial_MSFontService,sans-serif" font-size="46" font-weight="700" transform="translate(369.018 1126)">128K</text><path fill="#ffc000" fill-rule="evenodd" d="M295.685 1201.24h240.854v76.31H295.685Z"/><path fill="#a4a4a4" fill-rule="evenodd" d="M536.539 1201.24h127.875v76.31H536.539Zm127.875 0h127.875v76.31H664.414Z"/><path fill="#6fac46" fill-rule="evenodd" d="M792.289 1201.24h463.141v76.31H792.289Zm463.141 0h500.27v76.31h-500.27Zm500.27 0h492.94v76.31H1755.7Z"/><path fill="none" stroke="#787878" stroke-linejoin="round" stroke-miterlimit="10" stroke-width="4.583" d="M536.539 1198.94v80.9m127.875-80.9v80.9m127.875-80.9v80.9"/><path fill="none" stroke="#507d31" stroke-linejoin="round" stroke-miterlimit="10" stroke-width="4.583" d="M1255.43 1198.94v80.9m500.27-80.9v80.9"/><path fill="none" stroke="#bb8b00" stroke-linejoin="round" stroke-miterlimit="10" stroke-width="4.583" d="M295.685 1198.94v80.9"/><path fill="none" stroke="#507d31" stroke-linejoin="round" stroke-miterlimit="10" stroke-width="4.583" d="M2248.64 1198.94v80.9"/><path fill="none" stroke="#bb8b00" stroke-linejoin="round" stroke-miterlimit="10" stroke-width="4.583" d="M293.393 1201.24h243.146"/><path fill="none" stroke="#787878" stroke-linejoin="round" stroke-miterlimit="10" stroke-width="4.583" d="M536.539 1201.24h255.75"/><path fill="none" stroke="#507d31" stroke-linejoin="round" stroke-miterlimit="10" stroke-width="4.583" d="M792.289 1201.24H2250.93"/><path fill="none" stroke="#bb8b00" stroke-linejoin="round" stroke-miterlimit="10" stroke-width="4.583" d="M293.393 1277.55h243.146"/><path fill="none" stroke="#787878" stroke-linejoin="round" stroke-miterlimit="10" stroke-width="4.583" d="M536.539 1277.55h255.75"/><path fill="none" stroke="#507d31" stroke-linejoin="round" stroke-miterlimit="10" stroke-width="4.583" d="M792.289 1277.55H2250.93"/><text font-family="Arial,Arial_MSFontService,sans-serif" font-size="46" font-weight="700" transform="translate(1949.92 1254)">256K</text><text font-family="Arial,Arial_MSFontService,sans-serif" font-size="46" font-weight="700" transform="translate(1422.55 1255)">D=256K</text><text font-family="Arial,Arial_MSFontService,sans-serif" font-size="46" font-weight="700" transform="translate(971.5 1254)">256K</text><text font-family="Arial,Arial_MSFontService,sans-serif" font-size="41" font-weight="700" transform="translate(695.58 1252)">64K</text><text font-family="Arial,Arial_MSFontService,sans-serif" font-size="37" font-weight="700" transform="translate(581.685 1230)">C=</text><text font-family="Arial,Arial_MSFontService,sans-serif" font-size="37" font-weight="700" transform="translate(571.372 1267)">64K</text><text fill="red" font-family="Arial,Arial_MSFontService,sans-serif" font-size="46" font-weight="700" transform="translate(346.56 1254)">E=128K</text><path fill="#ffc000" fill-rule="evenodd" d="M295.685 1325.76h240.854v76.77H295.685Zm240.854 0h255.75v76.77h-255.75Z"/><path fill="#6fac46" fill-rule="evenodd" d="M792.289 1325.76h463.141v76.77H792.289Zm463.141 0h500.27v76.77h-500.27Zm500.27 0h492.94v76.77H1755.7Z"/><path fill="none" stroke="#bb8b00" stroke-linejoin="round" stroke-miterlimit="10" stroke-width="4.583" d="M536.539 1323.46v81.36m255.75-81.36v81.36"/><path fill="none" stroke="#507d31" stroke-linejoin="round" stroke-miterlimit="10" stroke-width="4.583" d="M1255.43 1323.46v81.36m500.27-81.36v81.36"/><path fill="none" stroke="#bb8b00" stroke-linejoin="round" stroke-miterlimit="10" stroke-width="4.583" d="M295.685 1323.46v81.36"/><path fill="none" stroke="#507d31" stroke-linejoin="round" stroke-miterlimit="10" stroke-width="4.583" d="M2248.64 1323.46v81.36"/><path fill="none" stroke="#bb8b00" stroke-linejoin="round" stroke-miterlimit="10" stroke-width="4.583" d="M293.393 1325.76h498.896"/><path fill="none" stroke="#507d31" stroke-linejoin="round" stroke-miterlimit="10" stroke-width="4.583" d="M792.289 1325.76H2250.93"/><path fill="none" stroke="#bb8b00" stroke-linejoin="round" stroke-miterlimit="10" stroke-width="4.583" d="M293.393 1402.53h498.896"/><path fill="none" stroke="#507d31" stroke-linejoin="round" stroke-miterlimit="10" stroke-width="4.583" d="M792.289 1402.53H2250.93"/><text font-family="Arial,Arial_MSFontService,sans-serif" font-size="46" font-weight="700" transform="translate(1949.92 1379)">256K</text><text font-family="Arial,Arial_MSFontService,sans-serif" font-size="46" font-weight="700" transform="translate(1422.55 1379)">D=256K</text><text font-family="Arial,Arial_MSFontService,sans-serif" font-size="46" font-weight="700" transform="translate(971.5 1379)">256K</text><text font-family="Arial,Arial_MSFontService,sans-serif" font-size="46" font-weight="700" transform="translate(618.81 1380)">128k</text><text font-family="Arial,Arial_MSFontService,sans-serif" font-size="46" font-weight="700" transform="translate(346.56 1380)">E=128K</text><path fill="#5b9bd4" fill-rule="evenodd" d="M295.685 1450.82h959.295v76.77H295.685Z"/><path fill="#6fac46" fill-rule="evenodd" d="M1254.98 1450.82h500.04v76.77h-500.04Zm500.04 0h492.71v76.77h-492.71Z"/><path fill="none" stroke="#41709c" stroke-linejoin="round" stroke-miterlimit="10" stroke-width="4.583" d="M1254.98 1448.53v81.36"/><path fill="none" stroke="#507d31" stroke-linejoin="round" stroke-miterlimit="10" stroke-width="4.583" d="M1755.02 1448.53v81.36"/><path fill="none" stroke="#41709c" stroke-linejoin="round" stroke-miterlimit="10" stroke-width="4.583" d="M295.685 1448.53v81.36"/><path fill="none" stroke="#507d31" stroke-linejoin="round" stroke-miterlimit="10" stroke-width="4.583" d="M2247.73 1448.53v81.36"/><path fill="none" stroke="#41709c" stroke-linejoin="round" stroke-miterlimit="10" stroke-width="4.583" d="M293.393 1450.82h961.587"/><path fill="none" stroke="#507d31" stroke-linejoin="round" stroke-miterlimit="10" stroke-width="4.583" d="M1254.98 1450.82h995.04"/><path fill="none" stroke="#41709c" stroke-linejoin="round" stroke-miterlimit="10" stroke-width="4.583" d="M293.393 1527.59h961.587"/><path fill="none" stroke="#507d31" stroke-linejoin="round" stroke-miterlimit="10" stroke-width="4.583" d="M1254.98 1527.59h995.04"/><text font-family="Arial,Arial_MSFontService,sans-serif" font-size="46" font-weight="700" transform="translate(1949.12 1504)">256K</text><text font-family="Arial,Arial_MSFontService,sans-serif" font-size="46" font-weight="700" transform="translate(1421.98 1504)">D=256K</text><text font-family="Arial,Arial_MSFontService,sans-serif" font-size="46" font-weight="700" transform="translate(722.737 1504)">512K</text><path fill="none" stroke="#41709c" stroke-linejoin="round" stroke-miterlimit="10" stroke-width="4.583" d="M298.5 1576.5h1952v80h-1952z"/><text font-family="Arial,Arial_MSFontService,sans-serif" font-size="46" font-weight="700" transform="translate(1243.35 1631)">1M</text><text font-family="Lantinghei SC,Lantinghei SC_MSFontService,sans-serif" font-size="46" font-weight="900" transform="translate(32.363 1622)">释放</text><text font-family="Arial,Arial_MSFontService,sans-serif" font-size="46" font-weight="700" transform="translate(133.197 1622)">D</text><text font-family="Arial,Arial_MSFontService,sans-serif" font-size="46" font-weight="700" transform="translate(776.638 511)">2K</text><text font-family="Arial,Arial_MSFontService,sans-serif" font-size="46" font-weight="700" transform="translate(521.211 511)">56K</text><text font-family="Arial,Arial_MSFontService,sans-serif" font-size="46" font-weight="700" transform="translate(730.211 511)">51</text><text font-family="Arial,Arial_MSFontService,sans-serif" font-size="46" font-weight="700" transform="translate(498.112 511)">2</text><text font-family="Arial,Arial_MSFontService,sans-serif" font-size="46" font-weight="700" transform="translate(372.043 512)">128K</text><path fill="#ffc000" fill-rule="evenodd" d="M294.498 456.833H535.81v77H294.498Zm241.312 0h254.834v77H535.81Z"/><path fill="#6fac46" fill-rule="evenodd" d="M790.644 456.833h463.836v77H790.644Z"/><path fill="#5b9bd4" fill-rule="evenodd" d="M1254.48 456.833H2247v77h-992.52Z"/><path fill="none" stroke="#bb8b00" stroke-linejoin="round" stroke-miterlimit="10" stroke-width="6.875" d="M535.81 454.542v82.729m254.834-82.729v82.729"/><path fill="none" stroke="#507d31" stroke-linejoin="round" stroke-miterlimit="10" stroke-width="4.583" d="M1254.48 454.542v81.583"/><path fill="none" stroke="#bb8b00" stroke-linejoin="round" stroke-miterlimit="10" stroke-width="6.875" d="M294.498 454.542v82.729"/><path fill="none" stroke="#41709c" stroke-linejoin="round" stroke-miterlimit="10" stroke-width="4.583" d="M2247 454.542v81.583"/><path fill="none" stroke="#bb8b00" stroke-linejoin="round" stroke-miterlimit="10" stroke-width="4.583" d="M291.06 456.833h499.584"/><path fill="none" stroke="#507d31" stroke-linejoin="round" stroke-miterlimit="10" stroke-width="4.583" d="M790.644 456.833h463.836"/><path fill="none" stroke="#41709c" stroke-linejoin="round" stroke-miterlimit="10" stroke-width="4.583" d="M1254.48 456.833h994.81"/><path fill="none" stroke="#bb8b00" stroke-linejoin="round" stroke-miterlimit="10" stroke-width="6.875" d="M291.06 533.833h503.021"/><path fill="none" stroke="#507d31" stroke-linejoin="round" stroke-miterlimit="10" stroke-width="4.583" d="M794.081 533.833h460.399"/><path fill="none" stroke="#41709c" stroke-linejoin="round" stroke-miterlimit="10" stroke-width="4.583" d="M1254.48 533.833h994.81"/><text font-family="Arial,Arial_MSFontService,sans-serif" font-size="46" font-weight="700" transform="translate(1698.49 510)">512K</text><text font-family="Arial,Arial_MSFontService,sans-serif" font-size="46" font-weight="700" transform="translate(970.54 510)">256K</text><text font-family="Arial,Arial_MSFontService,sans-serif" font-size="46" font-weight="700" transform="translate(618.31 511)">128k</text><text fill="red" font-family="Arial,Arial_MSFontService,sans-serif" font-size="46" font-weight="700" transform="translate(342.164 511)">A=128K</text></svg>