<svg xmlns="http://www.w3.org/2000/svg" xml:space="preserve" width="3304" height="963" overflow="hidden"><path fill="#dee7c5" stroke="#000" stroke-miterlimit="8" stroke-width="2.292" d="M17 227h416v133H17z"/><text font-family="DengXian,DengXian_MSFontService,sans-serif" font-size="83" font-weight="400" transform="translate(50.716 321)">T1.read(x)</text><path fill="#dee7c5" stroke="#000" stroke-miterlimit="8" stroke-width="2.292" d="M433 227h519v133H433z"/><text font-family="DengXian,DengXian_MSFontService,sans-serif" font-size="83" font-weight="400" transform="translate(516.784 321)">x </text><text font-family="DengXian,DengXian_MSFontService,sans-serif" font-size="83" font-weight="400" transform="translate(575.221 321)">-</text><text font-family="DengXian,DengXian_MSFontService,sans-serif" font-size="83" font-weight="400" transform="translate(616.471 321)">= 1000</text><path fill="#dee7c5" stroke="#000" stroke-miterlimit="8" stroke-width="2.292" d="M952 227h416v133H952z"/><text font-family="DengXian,DengXian_MSFontService,sans-serif" font-size="83" font-weight="400" transform="translate(978.84 321)">T1.write(x)</text><path fill="#f2cefe" stroke="#000" stroke-miterlimit="8" stroke-width="2.292" d="M1368 227h415v133h-415z"/><text font-family="DengXian,DengXian_MSFontService,sans-serif" font-size="83" font-weight="400" transform="translate(1401.13 321)">T2.read(x)</text><path fill="#f2cefe" stroke="#000" stroke-miterlimit="8" stroke-width="2.292" d="M1783 227h520v133h-520z"/><text font-family="DengXian,DengXian_MSFontService,sans-serif" font-size="83" font-weight="400" transform="translate(1867.2 321)">x </text><text font-family="DengXian,DengXian_MSFontService,sans-serif" font-size="83" font-weight="400" transform="translate(1925.63 321)">-</text><text font-family="DengXian,DengXian_MSFontService,sans-serif" font-size="83" font-weight="400" transform="translate(1966.88 321)">= 2000</text><path fill="#f2cefe" stroke="#000" stroke-miterlimit="8" stroke-width="2.292" d="M2303 227h415v133h-415z"/><text font-family="DengXian,DengXian_MSFontService,sans-serif" font-size="83" font-weight="400" transform="translate(2329.25 321)">T2.write(x)</text><path fill="none" stroke="#000" stroke-linejoin="round" stroke-miterlimit="10" stroke-width="3.438" d="M2888.5 227.5c43.54-18.31 115.02 17.92 193.8 0s138.91 11.711 186.2 0c1.69 30.71-15.78 86.287 0 133-80.58 4.936-143.93-15.326-182.4 0-38.47 15.325-109.03-20.441-197.6 0-12.78-50.138 15.47-96.143 0-133Z"/><text fill="#0070c0" font-family="DengXian,DengXian_MSFontService,sans-serif" font-size="83" font-weight="400" transform="translate(2921.18 321)">x = 2000</text><text font-family="DengXian,DengXian_MSFontService,sans-serif" font-size="83" font-weight="400" transform="translate(2921.18 107)">运行结果</text><path fill="#dee7c5" stroke="#000" stroke-miterlimit="8" stroke-width="2.292" d="M17 511h416v133H17z"/><text font-family="DengXian,DengXian_MSFontService,sans-serif" font-size="83" font-weight="400" transform="translate(50.716 605)">T1.read(x)</text><path fill="#dee7c5" stroke="#000" stroke-miterlimit="8" stroke-width="2.292" d="M848 511h520v133H848z"/><text font-family="DengXian,DengXian_MSFontService,sans-serif" font-size="83" font-weight="400" transform="translate(932.2 605)">x </text><text font-family="DengXian,DengXian_MSFontService,sans-serif" font-size="83" font-weight="400" transform="translate(990.63 605)">-</text><text font-family="DengXian,DengXian_MSFontService,sans-serif" font-size="83" font-weight="400" transform="translate(1031.88 605)">= 1000</text><path fill="#dee7c5" stroke="#000" stroke-miterlimit="8" stroke-width="2.292" d="M1368 511h415v133h-415z"/><text font-family="DengXian,DengXian_MSFontService,sans-serif" font-size="83" font-weight="400" transform="translate(1394.25 605)">T1.write(x)</text><path fill="#f2cefe" stroke="#000" stroke-miterlimit="8" stroke-width="2.292" d="M433 511h415v133H433z"/><text font-family="DengXian,DengXian_MSFontService,sans-serif" font-size="83" font-weight="400" transform="translate(466.127 605)">T2.read(x)</text><path fill="#f2cefe" stroke="#000" stroke-miterlimit="8" stroke-width="2.292" d="M1783 511h520v133h-520z"/><text font-family="DengXian,DengXian_MSFontService,sans-serif" font-size="83" font-weight="400" transform="translate(1867.2 605)">x </text><text font-family="DengXian,DengXian_MSFontService,sans-serif" font-size="83" font-weight="400" transform="translate(1925.63 605)">-</text><text font-family="DengXian,DengXian_MSFontService,sans-serif" font-size="83" font-weight="400" transform="translate(1966.88 605)">= 2000</text><path fill="#f2cefe" stroke="#000" stroke-miterlimit="8" stroke-width="2.292" d="M2303 511h415v133h-415z"/><text font-family="DengXian,DengXian_MSFontService,sans-serif" font-size="83" font-weight="400" transform="translate(2329.25 605)">T2.write(x)</text><path fill="none" stroke="#000" stroke-linejoin="round" stroke-miterlimit="10" stroke-width="3.438" d="M2888.5 511.5c43.54-18.309 115.02 17.92 193.8 0s138.91 11.711 186.2 0c1.69 30.71-15.78 86.287 0 133-80.58 4.937-143.93-15.325-182.4 0-38.47 15.326-109.03-20.441-197.6 0-12.78-50.138 15.47-96.143 0-133Z"/><text fill="#0070c0" font-family="DengXian,DengXian_MSFontService,sans-serif" font-size="83" font-weight="400" transform="translate(2921.18 605)">x = 3000</text><path fill="#dee7c5" stroke="#000" stroke-miterlimit="8" stroke-width="2.292" d="M17 795h416v133H17z"/><text font-family="DengXian,DengXian_MSFontService,sans-serif" font-size="83" font-weight="400" transform="translate(50.716 889)">T1.read(x)</text><path fill="#dee7c5" stroke="#000" stroke-miterlimit="8" stroke-width="2.292" d="M848 795h520v133H848z"/><text font-family="DengXian,DengXian_MSFontService,sans-serif" font-size="83" font-weight="400" transform="translate(932.2 889)">x </text><text font-family="DengXian,DengXian_MSFontService,sans-serif" font-size="83" font-weight="400" transform="translate(990.63 889)">-</text><text font-family="DengXian,DengXian_MSFontService,sans-serif" font-size="83" font-weight="400" transform="translate(1031.88 889)">= 1000</text><path fill="#dee7c5" stroke="#000" stroke-miterlimit="8" stroke-width="2.292" d="M2303 795h415v133h-415z"/><text font-family="DengXian,DengXian_MSFontService,sans-serif" font-size="83" font-weight="400" transform="translate(2329.25 889)">T1.write(x)</text><path fill="#f2cefe" stroke="#000" stroke-miterlimit="8" stroke-width="2.292" d="M433 795h415v133H433z"/><text font-family="DengXian,DengXian_MSFontService,sans-serif" font-size="83" font-weight="400" transform="translate(466.127 889)">T2.read(x)</text><path fill="#f2cefe" stroke="#000" stroke-miterlimit="8" stroke-width="2.292" d="M1783 795h520v133h-520z"/><text font-family="DengXian,DengXian_MSFontService,sans-serif" font-size="83" font-weight="400" transform="translate(1867.2 889)">x </text><text font-family="DengXian,DengXian_MSFontService,sans-serif" font-size="83" font-weight="400" transform="translate(1925.63 889)">-</text><text font-family="DengXian,DengXian_MSFontService,sans-serif" font-size="83" font-weight="400" transform="translate(1966.88 889)">= 2000</text><path fill="#f2cefe" stroke="#000" stroke-miterlimit="8" stroke-width="2.292" d="M1368 795h415v133h-415z"/><text font-family="DengXian,DengXian_MSFontService,sans-serif" font-size="83" font-weight="400" transform="translate(1394.25 889)">T2.write(x)</text><path fill="none" stroke="#000" stroke-linejoin="round" stroke-miterlimit="10" stroke-width="3.438" d="M2888.5 795.5c43.54-18.309 115.02 17.92 193.8 0s138.91 11.711 186.2 0c1.69 30.71-15.78 86.29 0 133-80.58 4.94-143.93-15.33-182.4 0s-109.03-20.44-197.6 0c-12.78-50.14 15.47-96.14 0-133Z"/><text fill="#0070c0" font-family="DengXian,DengXian_MSFontService,sans-serif" font-size="83" font-weight="400" transform="translate(2921.18 889)">x = 4000</text></svg>