<svg xmlns="http://www.w3.org/2000/svg" xml:space="preserve" width="1481" height="816" overflow="hidden"><path fill="#e8e9fd" stroke="#172c51" stroke-dasharray="36.6667 13.75 4.58333 13.75 4.58333 13.75" stroke-miterlimit="8" stroke-width="4.583" d="M796.5 5.5h679v804h-679zM3.5 5.5h679v804H3.5z"/><path fill="#dee7c5" stroke="#000" stroke-miterlimit="8" stroke-width="2.292" d="M102 254h481v133H102z"/><text font-family="DengXian,DengXian_MSFontService,sans-serif" font-size="83" font-weight="400" transform="translate(134.878 348)">read(x)</text><path fill="#dee7c5" stroke="#000" stroke-miterlimit="8" stroke-width="2.292" d="M102 431h481v133H102z"/><text font-family="DengXian,DengXian_MSFontService,sans-serif" font-size="83" font-weight="400" transform="translate(134.878 525)">x </text><text font-family="DengXian,DengXian_MSFontService,sans-serif" font-size="83" font-weight="400" transform="translate(193.316 525)">-</text><text font-family="DengXian,DengXian_MSFontService,sans-serif" font-size="83" font-weight="400" transform="translate(234.566 525)">= 1000</text><path fill="#dee7c5" stroke="#000" stroke-miterlimit="8" stroke-width="2.292" d="M102 610h481v134H102z"/><text font-family="DengXian,DengXian_MSFontService,sans-serif" font-size="83" font-weight="400" transform="translate(134.878 704)">write(x)</text><path fill="#f2cefe" stroke="#000" stroke-miterlimit="8" stroke-width="2.292" d="M895 254h481v133H895z"/><text font-family="DengXian,DengXian_MSFontService,sans-serif" font-size="83" font-weight="400" transform="translate(927.88 348)">read(x)</text><path fill="#f2cefe" stroke="#000" stroke-miterlimit="8" stroke-width="2.292" d="M895 431h481v133H895z"/><text font-family="DengXian,DengXian_MSFontService,sans-serif" font-size="83" font-weight="400" transform="translate(927.88 525)">x </text><text font-family="DengXian,DengXian_MSFontService,sans-serif" font-size="83" font-weight="400" transform="translate(986.32 525)">-</text><text font-family="DengXian,DengXian_MSFontService,sans-serif" font-size="83" font-weight="400" transform="translate(1027.57 525)">= 2000</text><path fill="#f2cefe" stroke="#000" stroke-miterlimit="8" stroke-width="2.292" d="M895 610h481v134H895z"/><text font-family="DengXian,DengXian_MSFontService,sans-serif" font-size="83" font-weight="400" transform="translate(927.88 704)">write(x)</text><text font-family="DengXian,DengXian_MSFontService,sans-serif" font-size="83" font-weight="700" transform="translate(298.439 167)">T1</text><text font-family="DengXian,DengXian_MSFontService,sans-serif" font-size="83" font-weight="700" transform="translate(1089.13 167)">T2</text></svg>