<svg xmlns="http://www.w3.org/2000/svg" xml:space="preserve" width="2607" height="2471" overflow="hidden"><path fill="#4472c4" fill-rule="evenodd" d="M6.111 443.722h675.278v207.166H6.111ZM681.389 443.722h675.281v207.166H681.389Z"/><path fill="#cfd5ea" fill-rule="evenodd" d="M6.111 650.888h675.278v207.167H6.111ZM681.389 650.888h675.281v207.167H681.389Z"/><path fill="#e9ebf5" fill-rule="evenodd" d="M6.111 858.055h675.278v207.165H6.111ZM681.389 858.055h675.281v207.165H681.389Z"/><path fill="#cfd5ea" fill-rule="evenodd" d="M6.111 1065.22h675.278v207.17H6.111ZM681.389 1065.22h675.281v207.17H681.389Z"/><path fill="#e9ebf5" fill-rule="evenodd" d="M6.111 1272.39h675.278v207.16H6.111ZM681.389 1272.39h675.281v207.16H681.389Z"/><path fill="none" stroke="#fff" stroke-linejoin="round" stroke-miterlimit="10" stroke-width="4.583" d="M681.389 441.43v1040.42"/><path fill="none" stroke="#fff" stroke-linejoin="round" stroke-miterlimit="10" stroke-width="13.75" d="M3.819 650.888H1358.96"/><path fill="none" stroke="#fff" stroke-linejoin="round" stroke-miterlimit="10" stroke-width="4.583" d="M3.819 858.055H1358.96M3.819 1065.22H1358.96M3.819 1272.39H1358.96M6.111 441.43v1040.42M1356.67 441.43v1040.42M3.819 443.722H1358.96M3.819 1479.55H1358.96"/><text fill="#fff" font-family="DengXian,DengXian_MSFontService,sans-serif" font-size="83" font-weight="700" transform="translate(714.389 537)">index</text><text fill="#fff" font-family="DengXian,DengXian_MSFontService,sans-serif" font-size="83" font-weight="700" transform="translate(39.111 537)">filename/path</text><text font-family="DengXian,DengXian_MSFontService,sans-serif" font-size="83" font-weight="400" transform="translate(714.389 744)">4</text><text font-family="DengXian,DengXian_MSFontService,sans-serif" font-size="83" font-weight="400" transform="translate(39.111 744)">File A</text><text font-family="DengXian,DengXian_MSFontService,sans-serif" font-size="83" font-weight="400" transform="translate(714.389 952)">6</text><text font-family="DengXian,DengXian_MSFontService,sans-serif" font-size="83" font-weight="400" transform="translate(39.111 952)">File B</text><text font-family="DengXian,DengXian_MSFontService,sans-serif" font-size="83" font-weight="400" transform="translate(714.389 1159)">23</text><text font-family="DengXian,DengXian_MSFontService,sans-serif" font-size="83" font-weight="400" transform="translate(39.111 1159)">File C</text><text font-family="DengXian,DengXian_MSFontService,sans-serif" font-size="83" font-weight="400" transform="translate(714.389 1366)">46</text><text font-family="DengXian,DengXian_MSFontService,sans-serif" font-size="83" font-weight="400" transform="translate(39.111 1366)">…</text><path fill="#4472c4" fill-rule="evenodd" d="M1827.22 145.806h383.32V280.7h-383.32ZM2210.54 145.806h383.33V280.7h-383.33Z"/><path fill="#cfd5ea" fill-rule="evenodd" d="M1827.22 280.7h383.32v134.894h-383.32ZM2210.54 280.7h383.33v134.894h-383.33Z"/><path fill="#e9ebf5" fill-rule="evenodd" d="M1827.22 415.594h383.32v134.894h-383.32ZM2210.54 415.594h383.33v134.894h-383.33Z"/><path fill="#cfd5ea" fill-rule="evenodd" d="M1827.22 550.488h383.32v134.894h-383.32ZM2210.54 550.488h383.33v134.894h-383.33Z"/><path fill="#e9ebf5" fill-rule="evenodd" d="M1827.22 685.382h383.32v134.894h-383.32ZM2210.54 685.382h383.33v134.894h-383.33Z"/><path fill="#cfd5ea" fill-rule="evenodd" d="M1827.22 820.276h383.32V955.17h-383.32ZM2210.54 820.276h383.33V955.17h-383.33Z"/><path fill="#e9ebf5" fill-rule="evenodd" d="M1827.22 955.17h383.32v134.89h-383.32ZM2210.54 955.17h383.33v134.89h-383.33Z"/><path fill="#cfd5ea" fill-rule="evenodd" d="M1827.22 1090.06h383.32v134.9h-383.32ZM2210.54 1090.06h383.33v134.9h-383.33Z"/><path fill="#e9ebf5" fill-rule="evenodd" d="M1827.22 1224.96h383.32v134.89h-383.32ZM2210.54 1224.96h383.33v134.89h-383.33Z"/><path fill="#cfd5ea" fill-rule="evenodd" d="M1827.22 1359.85h383.32v134.9h-383.32ZM2210.54 1359.85h383.33v134.9h-383.33Z"/><path fill="#e9ebf5" fill-rule="evenodd" d="M1827.22 1494.75h383.32v134.89h-383.32ZM2210.54 1494.75h383.33v134.89h-383.33Z"/><path fill="#cfd5ea" fill-rule="evenodd" d="M1827.22 1629.64h383.32v134.89h-383.32ZM2210.54 1629.64h383.33v134.89h-383.33Z"/><path fill="#e9ebf5" fill-rule="evenodd" d="M1827.22 1764.53h383.32v134.9h-383.32ZM2210.54 1764.53h383.33v134.9h-383.33Z"/><path fill="#cfd5ea" fill-rule="evenodd" d="M1827.22 1899.43h383.32v134.89h-383.32ZM2210.54 1899.43h383.33v134.89h-383.33Z"/><path fill="#e9ebf5" fill-rule="evenodd" d="M1827.22 2034.32h383.32v134.9h-383.32ZM2210.54 2034.32h383.33v134.9h-383.33Z"/><path fill="#cfd5ea" fill-rule="evenodd" d="M1827.22 2169.22h383.32v134.89h-383.32ZM2210.54 2169.22h383.33v134.89h-383.33Z"/><path fill="#e9ebf5" fill-rule="evenodd" d="M1827.22 2304.11h383.32V2439h-383.32ZM2210.54 2304.11h383.33V2439h-383.33Z"/><path fill="none" stroke="#fff" stroke-linejoin="round" stroke-miterlimit="10" stroke-width="4.583" d="M2210.54 143.514V2441.3"/><path fill="none" stroke="#fff" stroke-linejoin="round" stroke-miterlimit="10" stroke-width="13.75" d="M1824.93 280.7h771.23"/><path fill="none" stroke="#fff" stroke-linejoin="round" stroke-miterlimit="10" stroke-width="4.583" d="M1824.93 415.594h771.23M1824.93 550.488h771.23M1824.93 685.382h771.23M1824.93 820.276h771.23M1824.93 955.17h771.23M1824.93 1090.06h771.23M1824.93 1224.96h771.23M1824.93 1359.85h771.23M1824.93 1494.75h771.23M1824.93 1629.64h771.23M1824.93 1764.53h771.23M1824.93 1899.43h771.23M1824.93 2034.32h771.23M1824.93 2169.22h771.23M1824.93 2304.11h771.23M1827.22 143.514V2441.3M2593.87 143.514V2441.3M1824.93 145.806h771.23M1824.93 2439h771.23"/><text fill="#fff" font-family="DengXian,DengXian_MSFontService,sans-serif" font-size="83" font-weight="700" transform="translate(2243.54 239)">next</text><text fill="#fff" font-family="DengXian,DengXian_MSFontService,sans-serif" font-size="83" font-weight="700" transform="translate(1860.22 239)">index</text><text font-family="DengXian,DengXian_MSFontService,sans-serif" font-size="83" font-weight="400" transform="translate(1860.22 374)">0</text><text font-family="DengXian,DengXian_MSFontService,sans-serif" font-size="83" font-weight="400" transform="translate(1860.22 509)">1</text><text font-family="DengXian,DengXian_MSFontService,sans-serif" font-size="83" font-weight="400" transform="translate(2243.54 644)">10</text><text font-family="DengXian,DengXian_MSFontService,sans-serif" font-size="83" font-weight="400" transform="translate(1860.22 644)">2</text><text font-family="DengXian,DengXian_MSFontService,sans-serif" font-size="83" font-weight="400" transform="translate(2243.54 779)">11</text><text font-family="DengXian,DengXian_MSFontService,sans-serif" font-size="83" font-weight="400" transform="translate(1860.22 779)">3</text><text font-family="DengXian,DengXian_MSFontService,sans-serif" font-size="83" font-weight="400" transform="translate(2243.54 914)">7</text><text font-family="DengXian,DengXian_MSFontService,sans-serif" font-size="83" font-weight="400" transform="translate(1860.22 914)">4</text><text font-family="DengXian,DengXian_MSFontService,sans-serif" font-size="83" font-weight="400" transform="translate(1860.22 1049)">5</text><text font-family="DengXian,DengXian_MSFontService,sans-serif" font-size="83" font-weight="400" transform="translate(2243.54 1184)">3</text><text font-family="DengXian,DengXian_MSFontService,sans-serif" font-size="83" font-weight="400" transform="translate(1860.22 1184)">6</text><text font-family="DengXian,DengXian_MSFontService,sans-serif" font-size="83" font-weight="400" transform="translate(2243.54 1318)">2</text><text font-family="DengXian,DengXian_MSFontService,sans-serif" font-size="83" font-weight="400" transform="translate(1860.22 1318)">7</text><text font-family="DengXian,DengXian_MSFontService,sans-serif" font-size="83" font-weight="400" transform="translate(1860.22 1453)">8</text><text font-family="DengXian,DengXian_MSFontService,sans-serif" font-size="83" font-weight="400" transform="translate(1860.22 1588)">9</text><text font-family="DengXian,DengXian_MSFontService,sans-serif" font-size="83" font-weight="400" transform="translate(2243.54 1723)">12</text><text font-family="DengXian,DengXian_MSFontService,sans-serif" font-size="83" font-weight="400" transform="translate(1860.22 1723)">10</text><text font-family="DengXian,DengXian_MSFontService,sans-serif" font-size="83" font-weight="400" transform="translate(2243.54 1858)">14</text><text font-family="DengXian,DengXian_MSFontService,sans-serif" font-size="83" font-weight="400" transform="translate(1860.22 1858)">11</text><text font-family="DengXian,DengXian_MSFontService,sans-serif" font-size="83" font-weight="400" transform="translate(2243.54 1993)">-</text><text font-family="DengXian,DengXian_MSFontService,sans-serif" font-size="83" font-weight="400" transform="translate(2284.79 1993)">1</text><text font-family="DengXian,DengXian_MSFontService,sans-serif" font-size="83" font-weight="400" transform="translate(1860.22 1993)">12</text><text font-family="DengXian,DengXian_MSFontService,sans-serif" font-size="83" font-weight="400" transform="translate(1860.22 2128)">13</text><text font-family="DengXian,DengXian_MSFontService,sans-serif" font-size="83" font-weight="400" transform="translate(2243.54 2263)">-</text><text font-family="DengXian,DengXian_MSFontService,sans-serif" font-size="83" font-weight="400" transform="translate(2284.79 2263)">1</text><text font-family="DengXian,DengXian_MSFontService,sans-serif" font-size="83" font-weight="400" transform="translate(1860.22 2263)">14</text><text font-family="DengXian,DengXian_MSFontService,sans-serif" font-size="83" font-weight="400" transform="translate(1860.22 2398)">15</text><path fill="#4472c4" d="m1357.09 740.844 22.11.365 22.01 1.067 21.67 1.72 21.15 2.328 20.47 2.89 19.61 3.406 18.59 3.878 17.37 4.3 8.23 2.309 7.84 2.393 7.47 2.482 7.07 2.565 6.66 2.646 6.22 2.723 5.78 2.802 5.3 2.88 4.82 2.963 4.33 3.057 3.81 3.168 3.27 3.305 2.71 3.482 2.08 3.698 1.34 3.933.4 3.517.34 2.966-.24-1.074 1.01 2.961-.39-.86 1.66 2.949-.43-.642 2.28 2.932-.41-.464 2.89 2.908-.37-.335 3.47 2.88-.32-.246 4.02 2.845-.28-.182 4.57 2.804-.24-.138 5.08 2.758-.21-.108 5.57 2.706-.18-.084 6.05 2.647-.16-.068 6.5 2.584-.15-.055 6.93 2.514-.13-.046 7.34 2.44-.12-.039 7.73 2.358-.11-.033 8.1 2.271-.16-.04 17.2 4.258-.18-.042 18.41 3.841-.17-.033 19.44 3.377-.16-.025 20.31 2.867-.16-.02 20.99 2.311-.15-.015 21.51 1.708-.19-.012 18.11.761-.43 10.303-18.21-.764-21.69-1.722-21.15-2.328-20.46-2.889-19.61-3.407-18.59-3.878-17.37-4.3-8.23-2.308-7.85-2.394-7.47-2.481-7.07-2.565-6.65-2.646-6.23-2.724-5.77-2.801-5.3-2.88-4.83-2.964-4.32-3.057-3.81-3.168-3.28-3.305-2.7-3.481-2.08-3.699-1.34-3.933-.4-3.517-.35-2.966.25 1.074-1.01-2.961.38.86-1.65-2.949.42.642-2.28-2.932.41.465-2.88-2.909.36.335-3.46-2.879.32.245-4.02-2.845.27.182-4.56-2.804.24.139-5.08-2.758.21.107-5.58-2.706.19.085-6.05-2.648.16.068-6.5-2.584.14.056-6.93-2.515.13.046-7.34-2.439.12.038-7.73-2.358.12.033-8.1-2.271.15.041-17.2-4.259.19.043-18.41-3.841.17.032-19.45-3.377.17.026-20.31-2.868.16.02-21-2.311.16.015-21.51-1.708.16.01-21.86-1.059.16.006-22.02-.363Zm439.94 115.517 30.53 16.258-31.33 14.67ZM1357.16 936.846l22.18.675 22.15 1.979 21.79 3.192 21.27 4.319 20.58 5.36 19.72 6.318 18.7 7.191 17.46 7.98 8.29 4.29 7.89 4.44 7.51 4.6 7.11 4.76 6.69 4.9 6.24 5.04 5.79 5.18 5.29 5.3 4.79 5.43 4.25 5.54 3.69 5.66 3.1 5.77 2.48 5.88 1.82 5.98 1.11 6.05.36 5.78.35 5.47-.08-.61 1.01 5.46-.14-.56 1.66 5.44-.19-.51 2.28 5.41-.21-.44 2.89 5.37-.23-.38 3.47 5.32-.23-.33 4.03 5.25-.23-.27 4.56 5.17-.21-.23 5.08 5.09-.21-.2 5.57 4.99-.2-.17 6.05 4.88-.19-.14 6.5 4.76-.18-.12 6.93 4.64-.17-.11 7.34 4.49-.16-.09 7.73 4.35-.16-.09 8.09 4.19-.23-.11 17.21 7.85-.29-.12 18.41 7.09-.28-.1 19.44 6.23-.27-.08 20.3 5.29-.27-.06 21 4.26-.28-.05 21.51 3.15-.35-.04 18.13 1.4-.79 10.29-18.31-1.42-21.83-3.2-21.27-4.32-20.58-5.36-19.72-6.31-18.69-7.2-17.46-7.97-8.29-4.29-7.9-4.44-7.51-4.61-7.11-4.75-6.68-4.91-6.25-5.04-5.78-5.17-5.29-5.31-4.79-5.42-4.25-5.55-3.69-5.66-3.1-5.77-2.48-5.88-1.82-5.97-1.12-6.05-.36-5.79-.34-5.47.08.62-1.01-5.47.14.57-1.66-5.44.18.5-2.28-5.41.21.44-2.88-5.37.22.38-3.46-5.31.22.32-4.02-5.25.22.28-4.56-5.18.22.23-5.08-5.08.21.2-5.58-5 .2.17-6.05-4.88.2.15-6.51-4.77.19.13-6.94-4.64.18.11-7.35-4.5.17.1-7.73-4.35.16.08-8.1-4.19.23.11-17.2-7.85.29.12-18.41-7.08.28.09-19.45-6.225.28.08-20.31-5.289.28.063-21-4.262.28.048-21.51-3.15.29.034-21.86-1.953.3.018-22.03-.67Zm440.22 221.804 30.18 16.91-31.64 13.99Z"/><text fill="red" font-family="DengXian,DengXian_MSFontService,sans-serif" font-size="147" font-weight="700" transform="translate(331.067 2007)">FAT 示意图</text><text font-family="DengXian,DengXian_MSFontService,sans-serif" font-size="83" font-weight="400" transform="translate(457.182 283)">目录</text><text font-family="DengXian,DengXian_MSFontService,sans-serif" font-size="83" font-weight="400" transform="translate(622.182 283)">/</text><text font-family="DengXian,DengXian_MSFontService,sans-serif" font-size="83" font-weight="400" transform="translate(653.12 283)">文件夹</text><text font-family="DengXian,DengXian_MSFontService,sans-serif" font-size="83" font-weight="400" transform="translate(2123 106)">FAT</text></svg>