<svg xmlns="http://www.w3.org/2000/svg" xml:space="preserve" width="2306" height="1481" overflow="hidden"><path fill="#ffc000" fill-rule="evenodd" d="M111.576 331.44h352.229v115.958H111.576Zm352.229 0h215.188v115.958H463.805Zm215.188 0h469.567v115.958H678.993Zm469.567 0h469.56v115.958h-469.56Zm469.56 0h469.56v115.958h-469.56Z"/><path fill="none" stroke="#852a49" stroke-linejoin="round" stroke-miterlimit="10" stroke-width="6.875" d="M463.805 328.003v119.395m215.188-119.395v122.833m469.567-122.833v122.833m469.56-122.833v119.395M111.576 328.003v119.395M2087.68 328.003v119.395M108.139 331.44H2091.12M675.555 447.398h476.435"/><text fill="#00c" font-family="Kaiti SC,Kaiti SC_MSFontService,sans-serif" font-size="64" font-weight="900" transform="translate(1771.89 405)">分区</text><text fill="#00c" font-family="Arial,Arial_MSFontService,sans-serif" font-size="64" font-weight="700" transform="translate(1900.22 405)">3</text><text fill="#00c" font-family="Kaiti SC,Kaiti SC_MSFontService,sans-serif" font-size="64" font-weight="900" transform="translate(1302.33 405)">分区</text><text fill="#00c" font-family="Arial,Arial_MSFontService,sans-serif" font-size="64" font-weight="700" transform="translate(1430.66 405)">2</text><text fill="#00c" font-family="Kaiti SC,Kaiti SC_MSFontService,sans-serif" font-size="64" font-weight="900" transform="translate(716.118 405)">分区</text><text fill="#00c" font-family="Arial,Arial_MSFontService,sans-serif" font-size="64" font-weight="700" transform="translate(844.451 405)">1(</text><text fill="#00c" font-family="Kaiti SC,Kaiti SC_MSFontService,sans-serif" font-size="64" font-weight="900" transform="translate(895.21 405)">主分区</text><text fill="#00c" font-family="Arial,Arial_MSFontService,sans-serif" font-size="64" font-weight="700" transform="translate(1087.71 405)">)</text><text fill="#00c" font-family="Kaiti SC,Kaiti SC_MSFontService,sans-serif" font-size="50" font-weight="900" transform="translate(522.128 372)">分区</text><text fill="#00c" font-family="Kaiti SC,Kaiti SC_MSFontService,sans-serif" font-size="50" font-weight="900" transform="translate(547.336 427)">表</text><text fill="#00c" font-family="Kaiti SC,Kaiti SC_MSFontService,sans-serif" font-size="55" font-weight="900" transform="translate(176.431 402)">主引导区</text><path fill="#ffc000" fill-rule="evenodd" d="M33.293 718.18h349.708v115.96H33.293Z"/><path fill="#ffc000" fill-rule="evenodd" d="M383.001 718.18H735.23v115.96H383.001Zm352.229 0h352.23v115.96H735.23Zm352.23 0h349.71v115.96h-349.71Zm349.71 0h352.23v115.96h-352.23Zm352.23 0h393.93v115.96H1789.4Z"/><path fill="none" stroke="#852a49" stroke-linejoin="round" stroke-miterlimit="10" stroke-width="6.875" d="M383.001 714.74v122.84M735.23 714.74v122.84m352.23-122.84v122.84m349.71-122.84v122.84m352.23-119.4v119.4M33.293 718.18v119.4m2150.037-119.4v119.4M379.564 718.18H1440.6M29.856 834.14H2186.77"/><text fill="#00c" font-family="Kaiti SC,Kaiti SC_MSFontService,sans-serif" font-size="50" font-weight="900" transform="translate(1834.31 788)">文件和目录区</text><text fill="#00c" font-family="Kaiti SC,Kaiti SC_MSFontService,sans-serif" font-size="55" font-weight="900" transform="translate(1502.48 789)">根目录区</text><text fill="#00c" font-family="Arial,Arial_MSFontService,sans-serif" font-size="55" font-weight="700" transform="translate(1164.69 790)">I</text><text fill="#00c" font-family="Arial,Arial_MSFontService,sans-serif" font-size="55" font-weight="700" transform="translate(1178.55 790)">-</text><text fill="#00c" font-family="Kaiti SC,Kaiti SC_MSFontService,sans-serif" font-size="55" font-weight="900" transform="translate(1195.28 790)">节点区</text><text fill="#00c" font-family="Kaiti SC,Kaiti SC_MSFontService,sans-serif" font-size="55" font-weight="900" transform="translate(772.813 789)">空闲区管理</text><text fill="#00c" font-family="Kaiti SC,Kaiti SC_MSFontService,sans-serif" font-size="55" font-weight="900" transform="translate(420.585 789)">超级数据块</text><text fill="#00c" font-family="Kaiti SC,Kaiti SC_MSFontService,sans-serif" font-size="55" font-weight="900" transform="translate(125.876 789)">引导区</text><path fill="#b83c68" fill-rule="evenodd" d="m68.829 683.35-3.237.46-1.709 2.29L37 721.8l47.104 6.2 2.59-1.97.456-3.44H48.429l-3.988-9.5 17.576-7.38 10.099-13.41 1.715-2.3-.454-3.21-2.274-1.7z"/><path fill="#b83c68" fill-rule="evenodd" d="m62.017 705.71-17.576 7.38 3.988 9.5 3.937-1.66h-1.81l-3.443-8.21h9.628zm3.992 9.5-17.58 7.38H87.15l.292-2.21-1.99-2.61z"/><path fill="#b83c68" fill-rule="evenodd" d="m47.113 712.72 3.443 8.21 5.315-7.06z"/><path fill="#b83c68" fill-rule="evenodd" d="m55.871 713.87-5.315 7.06h1.81l13.643-5.72z"/><path fill="#b83c68" fill-rule="evenodd" d="M681.011 446 62.017 705.71l-6.146 8.16 10.138 1.34L685 455.499z"/><path fill="#b83c68" fill-rule="evenodd" d="M56.741 712.72h-9.628l8.758 1.15zm2103.629 6.09-16.18 4.53-2.75.73-1.6 2.84.78 2.74.73 2.75 2.89 1.6 37.21-10.39h-2.64z"/><path fill="#b83c68" fill-rule="evenodd" d="m2170.17 716.07-9.8 2.74 18.44 4.8.35-1.32h-2.73z"/><path fill="#b83c68" fill-rule="evenodd" d="M2156.3 687.75h-3.26l-2.01 2.05-2.02 2.02.04 3.25 13.9 13.82 18.43 4.8-2.57 9.92h2.64l8.55-2.37z"/><path fill="#b83c68" fill-rule="evenodd" d="m2178.67 713.69-8.5 2.38 6.26 6.22z"/><path fill="#b83c68" fill-rule="evenodd" d="M2181.38 713.69h-2.71l-2.24 8.6h2.73zM1153.61 446l-2.61 9.974L2160.37 718.81l9.8-2.74-7.22-7.18z"/><path fill="#b83c68" fill-rule="evenodd" d="m2162.95 708.89 7.22 7.18 8.5-2.38h2.71z"/><path fill="none" stroke="#b83c68" stroke-linejoin="round" stroke-miterlimit="10" stroke-width="10.313" d="m135 295.908 1.853-13.587 5.314-12.657 8.408-11.454 11.136-9.98 13.497-8.235 15.491-6.218 17.118-3.93 18.378-1.37h796.085l18.38-1.37 17.12-3.931 15.49-6.22 13.5-8.238 11.13-9.986 8.41-11.462 5.32-12.668 1.85-13.602 1.85 13.602 5.32 12.668 8.41 11.462 11.14 9.986 13.49 8.238 15.5 6.22 17.12 3.931 18.38 1.37h796.04l18.38 1.37 17.12 3.93 15.49 6.218 13.5 8.235 11.14 9.98 8.41 11.454 5.31 12.657 1.86 13.587"/><text fill="#00c" font-family="Kaiti SC,Kaiti SC_MSFontService,sans-serif" font-size="83" font-weight="900" transform="translate(954.02 103)">整块磁盘</text><path fill="none" stroke="#b83c68" stroke-linejoin="round" stroke-miterlimit="10" stroke-width="10.313" d="m37 856 2.581 14.22L46.864 883l11.296 10.83 14.621 8.36 17.257 5.4 19.204 1.91h936.038l19.21 1.91 17.27 5.4 14.62 8.36 11.3 10.83 7.29 12.78 2.58 14.22 2.58-14.22 7.28-12.78 11.3-10.83 14.62-8.36 17.25-5.4 19.19-1.91h924.85l19.21-1.91 17.25-5.4 14.62-8.36 11.29-10.83 7.28-12.78 2.57-14.22"/><text fill="#00c" font-family="Kaiti SC,Kaiti SC_MSFontService,sans-serif" font-size="83" font-weight="900" transform="translate(825.779 1037)">文件卷</text><text fill="#00c" font-family="Arial,Arial_MSFontService,sans-serif" font-size="83" font-weight="700" transform="translate(1073.28 1037)">(</text><text fill="#00c" font-family="Kaiti SC,Kaiti SC_MSFontService,sans-serif" font-size="83" font-weight="900" transform="translate(1098.49 1037)">逻辑分区</text><text fill="#00c" font-family="Arial,Arial_MSFontService,sans-serif" font-size="83" font-weight="700" transform="translate(1428.49 1037)">)</text><path fill="#ffc000" fill-rule="evenodd" d="M7.31 1173.93h367.584v103.81H7.31Zm367.584 0h408.375v103.81H374.894Zm408.375 0h408.371v103.81H783.269Zm408.371 0h347.19v103.81h-347.19Zm347.19 0h755.56v103.81h-755.56Z"/><path fill="none" stroke="#852a49" stroke-linejoin="round" stroke-miterlimit="10" stroke-width="6.875" d="M374.894 1170.49v110.69m408.375-110.69v110.69m408.371-110.69v110.69m347.19-110.69v110.69M7.31 1170.49v110.69m2287.08-110.69v110.69M3.873 1173.93H2297.83M3.873 1277.74H2297.83"/><text fill="#00c" font-family="Kaiti SC,Kaiti SC_MSFontService,sans-serif" font-size="55" font-weight="900" transform="translate(1723.31 1239)">其他目录和文件</text><text fill="#00c" font-family="Kaiti SC,Kaiti SC_MSFontService,sans-serif" font-size="55" font-weight="900" transform="translate(1281.71 1239)">根目录</text><text fill="#00c" font-family="Kaiti SC,Kaiti SC_MSFontService,sans-serif" font-size="55" font-weight="900" transform="translate(835.289 1240)">文件分配表</text><text fill="#00c" font-family="Arial,Arial_MSFontService,sans-serif" font-size="55" font-weight="700" transform="translate(1110.29 1240)">2</text><text fill="#00c" font-family="Kaiti SC,Kaiti SC_MSFontService,sans-serif" font-size="55" font-weight="900" transform="translate(426.685 1240)">文件分配表</text><text fill="#00c" font-family="Arial,Arial_MSFontService,sans-serif" font-size="55" font-weight="700" transform="translate(701.685 1240)">1</text><text fill="#00c" font-family="Kaiti SC,Kaiti SC_MSFontService,sans-serif" font-size="64" font-weight="900" transform="translate(93.706 1241)">引导区</text><text font-family="SimHei,SimHei_MSFontService,sans-serif" font-size="64" font-weight="400" transform="translate(436.02 1430)">Windows </text><text font-family="SimHei,SimHei_MSFontService,sans-serif" font-size="64" font-weight="400" transform="translate(692.687 1430)">的</text><text font-family="SimHei,SimHei_MSFontService,sans-serif" font-size="64" font-weight="400" transform="translate(788.937 1430)">FAT </text><text font-family="SimHei,SimHei_MSFontService,sans-serif" font-size="64" font-weight="400" transform="translate(917.27 1430)">文件系统</text><text font-family="SimHei,SimHei_MSFontService,sans-serif" font-size="64" font-weight="400" transform="translate(1173.94 1430)">布局</text><text font-family="SimHei,SimHei_MSFontService,sans-serif" font-size="64" font-weight="700" transform="translate(436.02 670)">Unix </text><text font-family="SimHei,SimHei_MSFontService,sans-serif" font-size="64" font-weight="700" transform="translate(596.437 670)">文件系统</text><text font-family="SimHei,SimHei_MSFontService,sans-serif" font-size="64" font-weight="700" transform="translate(853.104 670)">布局</text></svg>