<svg width="2607" height="2471" xmlns="http://www.w3.org/2000/svg" xmlns:xlink="http://www.w3.org/1999/xlink" xml:space="preserve" overflow="hidden"><g transform="translate(-110 -36)"><g><path d="M116.111 479.722 791.389 479.722 791.389 686.888 116.111 686.888Z" fill="#4472C4" fill-rule="evenodd" fill-opacity="1"/><path d="M791.389 479.722 1466.67 479.722 1466.67 686.888 791.389 686.888Z" fill="#4472C4" fill-rule="evenodd" fill-opacity="1"/><path d="M116.111 686.888 791.389 686.888 791.389 894.055 116.111 894.055Z" fill="#CFD5EA" fill-rule="evenodd" fill-opacity="1"/><path d="M791.389 686.888 1466.67 686.888 1466.67 894.055 791.389 894.055Z" fill="#CFD5EA" fill-rule="evenodd" fill-opacity="1"/><path d="M116.111 894.055 791.389 894.055 791.389 1101.22 116.111 1101.22Z" fill="#E9EBF5" fill-rule="evenodd" fill-opacity="1"/><path d="M791.389 894.055 1466.67 894.055 1466.67 1101.22 791.389 1101.22Z" fill="#E9EBF5" fill-rule="evenodd" fill-opacity="1"/><path d="M116.111 1101.22 791.389 1101.22 791.389 1308.39 116.111 1308.39Z" fill="#CFD5EA" fill-rule="evenodd" fill-opacity="1"/><path d="M791.389 1101.22 1466.67 1101.22 1466.67 1308.39 791.389 1308.39Z" fill="#CFD5EA" fill-rule="evenodd" fill-opacity="1"/><path d="M116.111 1308.39 791.389 1308.39 791.389 1515.55 116.111 1515.55Z" fill="#E9EBF5" fill-rule="evenodd" fill-opacity="1"/><path d="M791.389 1308.39 1466.67 1308.39 1466.67 1515.55 791.389 1515.55Z" fill="#E9EBF5" fill-rule="evenodd" fill-opacity="1"/><path d="M791.389 477.43 791.389 1517.85" stroke="#FFFFFF" stroke-width="4.58333" stroke-linecap="butt" stroke-linejoin="round" stroke-miterlimit="10" stroke-opacity="1" fill="none" fill-rule="evenodd"/><path d="M113.819 686.888 1468.96 686.888" stroke="#FFFFFF" stroke-width="13.75" stroke-linecap="butt" stroke-linejoin="round" stroke-miterlimit="10" stroke-opacity="1" fill="none" fill-rule="evenodd"/><path d="M113.819 894.055 1468.96 894.055" stroke="#FFFFFF" stroke-width="4.58333" stroke-linecap="butt" stroke-linejoin="round" stroke-miterlimit="10" stroke-opacity="1" fill="none" fill-rule="evenodd"/><path d="M113.819 1101.22 1468.96 1101.22" stroke="#FFFFFF" stroke-width="4.58333" stroke-linecap="butt" stroke-linejoin="round" stroke-miterlimit="10" stroke-opacity="1" fill="none" fill-rule="evenodd"/><path d="M113.819 1308.39 1468.96 1308.39" stroke="#FFFFFF" stroke-width="4.58333" stroke-linecap="butt" stroke-linejoin="round" stroke-miterlimit="10" stroke-opacity="1" fill="none" fill-rule="evenodd"/><path d="M116.111 477.43 116.111 1517.85" stroke="#FFFFFF" stroke-width="4.58333" stroke-linecap="butt" stroke-linejoin="round" stroke-miterlimit="10" stroke-opacity="1" fill="none" fill-rule="evenodd"/><path d="M1466.67 477.43 1466.67 1517.85" stroke="#FFFFFF" stroke-width="4.58333" stroke-linecap="butt" stroke-linejoin="round" stroke-miterlimit="10" stroke-opacity="1" fill="none" fill-rule="evenodd"/><path d="M113.819 479.722 1468.96 479.722" stroke="#FFFFFF" stroke-width="4.58333" stroke-linecap="butt" stroke-linejoin="round" stroke-miterlimit="10" stroke-opacity="1" fill="none" fill-rule="evenodd"/><path d="M113.819 1515.55 1468.96 1515.55" stroke="#FFFFFF" stroke-width="4.58333" stroke-linecap="butt" stroke-linejoin="round" stroke-miterlimit="10" stroke-opacity="1" fill="none" fill-rule="evenodd"/><g><text fill="#FFFFFF" fill-opacity="1" font-family="DengXian,DengXian_MSFontService,sans-serif" font-style="normal" font-variant="normal" font-weight="700" font-stretch="normal" font-size="83" text-anchor="start" direction="ltr" writing-mode="lr-tb" unicode-bidi="normal" text-decoration="none" transform="matrix(1 0 0 1 824.389 573)">index</text></g><g><text fill="#FFFFFF" fill-opacity="1" font-family="DengXian,DengXian_MSFontService,sans-serif" font-style="normal" font-variant="normal" font-weight="700" font-stretch="normal" font-size="83" text-anchor="start" direction="ltr" writing-mode="lr-tb" unicode-bidi="normal" text-decoration="none" transform="matrix(1 0 0 1 149.111 573)">filename/path</text></g><g><text fill="#000000" fill-opacity="1" font-family="DengXian,DengXian_MSFontService,sans-serif" font-style="normal" font-variant="normal" font-weight="400" font-stretch="normal" font-size="83" text-anchor="start" direction="ltr" writing-mode="lr-tb" unicode-bidi="normal" text-decoration="none" transform="matrix(1 0 0 1 824.389 780)">4</text></g><g><text fill="#000000" fill-opacity="1" font-family="DengXian,DengXian_MSFontService,sans-serif" font-style="normal" font-variant="normal" font-weight="400" font-stretch="normal" font-size="83" text-anchor="start" direction="ltr" writing-mode="lr-tb" unicode-bidi="normal" text-decoration="none" transform="matrix(1 0 0 1 149.111 780)">File A</text></g><g><text fill="#000000" fill-opacity="1" font-family="DengXian,DengXian_MSFontService,sans-serif" font-style="normal" font-variant="normal" font-weight="400" font-stretch="normal" font-size="83" text-anchor="start" direction="ltr" writing-mode="lr-tb" unicode-bidi="normal" text-decoration="none" transform="matrix(1 0 0 1 824.389 988)">6</text></g><g><text fill="#000000" fill-opacity="1" font-family="DengXian,DengXian_MSFontService,sans-serif" font-style="normal" font-variant="normal" font-weight="400" font-stretch="normal" font-size="83" text-anchor="start" direction="ltr" writing-mode="lr-tb" unicode-bidi="normal" text-decoration="none" transform="matrix(1 0 0 1 149.111 988)">File B</text></g><g><text fill="#000000" fill-opacity="1" font-family="DengXian,DengXian_MSFontService,sans-serif" font-style="normal" font-variant="normal" font-weight="400" font-stretch="normal" font-size="83" text-anchor="start" direction="ltr" writing-mode="lr-tb" unicode-bidi="normal" text-decoration="none" transform="matrix(1 0 0 1 824.389 1195)">23</text></g><g><text fill="#000000" fill-opacity="1" font-family="DengXian,DengXian_MSFontService,sans-serif" font-style="normal" font-variant="normal" font-weight="400" font-stretch="normal" font-size="83" text-anchor="start" direction="ltr" writing-mode="lr-tb" unicode-bidi="normal" text-decoration="none" transform="matrix(1 0 0 1 149.111 1195)">File C</text></g><g><text fill="#000000" fill-opacity="1" font-family="DengXian,DengXian_MSFontService,sans-serif" font-style="normal" font-variant="normal" font-weight="400" font-stretch="normal" font-size="83" text-anchor="start" direction="ltr" writing-mode="lr-tb" unicode-bidi="normal" text-decoration="none" transform="matrix(1 0 0 1 824.389 1402)">46</text></g><g><text fill="#000000" fill-opacity="1" font-family="DengXian,DengXian_MSFontService,sans-serif" font-style="normal" font-variant="normal" font-weight="400" font-stretch="normal" font-size="83" text-anchor="start" direction="ltr" writing-mode="lr-tb" unicode-bidi="normal" text-decoration="none" transform="matrix(1 0 0 1 149.111 1402)">…</text></g><path d="M1937.22 181.806 2320.54 181.806 2320.54 316.7 1937.22 316.7Z" fill="#4472C4" fill-rule="evenodd" fill-opacity="1"/><path d="M2320.54 181.806 2703.87 181.806 2703.87 316.7 2320.54 316.7Z" fill="#4472C4" fill-rule="evenodd" fill-opacity="1"/><path d="M1937.22 316.7 2320.54 316.7 2320.54 451.594 1937.22 451.594Z" fill="#CFD5EA" fill-rule="evenodd" fill-opacity="1"/><path d="M2320.54 316.7 2703.87 316.7 2703.87 451.594 2320.54 451.594Z" fill="#CFD5EA" fill-rule="evenodd" fill-opacity="1"/><path d="M1937.22 451.594 2320.54 451.594 2320.54 586.488 1937.22 586.488Z" fill="#E9EBF5" fill-rule="evenodd" fill-opacity="1"/><path d="M2320.54 451.594 2703.87 451.594 2703.87 586.488 2320.54 586.488Z" fill="#E9EBF5" fill-rule="evenodd" fill-opacity="1"/><path d="M1937.22 586.488 2320.54 586.488 2320.54 721.382 1937.22 721.382Z" fill="#CFD5EA" fill-rule="evenodd" fill-opacity="1"/><path d="M2320.54 586.488 2703.87 586.488 2703.87 721.382 2320.54 721.382Z" fill="#CFD5EA" fill-rule="evenodd" fill-opacity="1"/><path d="M1937.22 721.382 2320.54 721.382 2320.54 856.276 1937.22 856.276Z" fill="#E9EBF5" fill-rule="evenodd" fill-opacity="1"/><path d="M2320.54 721.382 2703.87 721.382 2703.87 856.276 2320.54 856.276Z" fill="#E9EBF5" fill-rule="evenodd" fill-opacity="1"/><path d="M1937.22 856.276 2320.54 856.276 2320.54 991.17 1937.22 991.17Z" fill="#CFD5EA" fill-rule="evenodd" fill-opacity="1"/><path d="M2320.54 856.276 2703.87 856.276 2703.87 991.17 2320.54 991.17Z" fill="#CFD5EA" fill-rule="evenodd" fill-opacity="1"/><path d="M1937.22 991.17 2320.54 991.17 2320.54 1126.06 1937.22 1126.06Z" fill="#E9EBF5" fill-rule="evenodd" fill-opacity="1"/><path d="M2320.54 991.17 2703.87 991.17 2703.87 1126.06 2320.54 1126.06Z" fill="#E9EBF5" fill-rule="evenodd" fill-opacity="1"/><path d="M1937.22 1126.06 2320.54 1126.06 2320.54 1260.96 1937.22 1260.96Z" fill="#CFD5EA" fill-rule="evenodd" fill-opacity="1"/><path d="M2320.54 1126.06 2703.87 1126.06 2703.87 1260.96 2320.54 1260.96Z" fill="#CFD5EA" fill-rule="evenodd" fill-opacity="1"/><path d="M1937.22 1260.96 2320.54 1260.96 2320.54 1395.85 1937.22 1395.85Z" fill="#E9EBF5" fill-rule="evenodd" fill-opacity="1"/><path d="M2320.54 1260.96 2703.87 1260.96 2703.87 1395.85 2320.54 1395.85Z" fill="#E9EBF5" fill-rule="evenodd" fill-opacity="1"/><path d="M1937.22 1395.85 2320.54 1395.85 2320.54 1530.75 1937.22 1530.75Z" fill="#CFD5EA" fill-rule="evenodd" fill-opacity="1"/><path d="M2320.54 1395.85 2703.87 1395.85 2703.87 1530.75 2320.54 1530.75Z" fill="#CFD5EA" fill-rule="evenodd" fill-opacity="1"/><path d="M1937.22 1530.75 2320.54 1530.75 2320.54 1665.64 1937.22 1665.64Z" fill="#E9EBF5" fill-rule="evenodd" fill-opacity="1"/><path d="M2320.54 1530.75 2703.87 1530.75 2703.87 1665.64 2320.54 1665.64Z" fill="#E9EBF5" fill-rule="evenodd" fill-opacity="1"/><path d="M1937.22 1665.64 2320.54 1665.64 2320.54 1800.53 1937.22 1800.53Z" fill="#CFD5EA" fill-rule="evenodd" fill-opacity="1"/><path d="M2320.54 1665.64 2703.87 1665.64 2703.87 1800.53 2320.54 1800.53Z" fill="#CFD5EA" fill-rule="evenodd" fill-opacity="1"/><path d="M1937.22 1800.53 2320.54 1800.53 2320.54 1935.43 1937.22 1935.43Z" fill="#E9EBF5" fill-rule="evenodd" fill-opacity="1"/><path d="M2320.54 1800.53 2703.87 1800.53 2703.87 1935.43 2320.54 1935.43Z" fill="#E9EBF5" fill-rule="evenodd" fill-opacity="1"/><path d="M1937.22 1935.43 2320.54 1935.43 2320.54 2070.32 1937.22 2070.32Z" fill="#CFD5EA" fill-rule="evenodd" fill-opacity="1"/><path d="M2320.54 1935.43 2703.87 1935.43 2703.87 2070.32 2320.54 2070.32Z" fill="#CFD5EA" fill-rule="evenodd" fill-opacity="1"/><path d="M1937.22 2070.32 2320.54 2070.32 2320.54 2205.22 1937.22 2205.22Z" fill="#E9EBF5" fill-rule="evenodd" fill-opacity="1"/><path d="M2320.54 2070.32 2703.87 2070.32 2703.87 2205.22 2320.54 2205.22Z" fill="#E9EBF5" fill-rule="evenodd" fill-opacity="1"/><path d="M1937.22 2205.22 2320.54 2205.22 2320.54 2340.11 1937.22 2340.11Z" fill="#CFD5EA" fill-rule="evenodd" fill-opacity="1"/><path d="M2320.54 2205.22 2703.87 2205.22 2703.87 2340.11 2320.54 2340.11Z" fill="#CFD5EA" fill-rule="evenodd" fill-opacity="1"/><path d="M1937.22 2340.11 2320.54 2340.11 2320.54 2475 1937.22 2475Z" fill="#E9EBF5" fill-rule="evenodd" fill-opacity="1"/><path d="M2320.54 2340.11 2703.87 2340.11 2703.87 2475 2320.54 2475Z" fill="#E9EBF5" fill-rule="evenodd" fill-opacity="1"/><path d="M2320.54 179.514 2320.54 2477.3" stroke="#FFFFFF" stroke-width="4.58333" stroke-linecap="butt" stroke-linejoin="round" stroke-miterlimit="10" stroke-opacity="1" fill="none" fill-rule="evenodd"/><path d="M1934.93 316.7 2706.16 316.7" stroke="#FFFFFF" stroke-width="13.75" stroke-linecap="butt" stroke-linejoin="round" stroke-miterlimit="10" stroke-opacity="1" fill="none" fill-rule="evenodd"/><path d="M1934.93 451.594 2706.16 451.594" stroke="#FFFFFF" stroke-width="4.58333" stroke-linecap="butt" stroke-linejoin="round" stroke-miterlimit="10" stroke-opacity="1" fill="none" fill-rule="evenodd"/><path d="M1934.93 586.488 2706.16 586.488" stroke="#FFFFFF" stroke-width="4.58333" stroke-linecap="butt" stroke-linejoin="round" stroke-miterlimit="10" stroke-opacity="1" fill="none" fill-rule="evenodd"/><path d="M1934.93 721.382 2706.16 721.382" stroke="#FFFFFF" stroke-width="4.58333" stroke-linecap="butt" stroke-linejoin="round" stroke-miterlimit="10" stroke-opacity="1" fill="none" fill-rule="evenodd"/><path d="M1934.93 856.276 2706.16 856.276" stroke="#FFFFFF" stroke-width="4.58333" stroke-linecap="butt" stroke-linejoin="round" stroke-miterlimit="10" stroke-opacity="1" fill="none" fill-rule="evenodd"/><path d="M1934.93 991.17 2706.16 991.17" stroke="#FFFFFF" stroke-width="4.58333" stroke-linecap="butt" stroke-linejoin="round" stroke-miterlimit="10" stroke-opacity="1" fill="none" fill-rule="evenodd"/><path d="M1934.93 1126.06 2706.16 1126.06" stroke="#FFFFFF" stroke-width="4.58333" stroke-linecap="butt" stroke-linejoin="round" stroke-miterlimit="10" stroke-opacity="1" fill="none" fill-rule="evenodd"/><path d="M1934.93 1260.96 2706.16 1260.96" stroke="#FFFFFF" stroke-width="4.58333" stroke-linecap="butt" stroke-linejoin="round" stroke-miterlimit="10" stroke-opacity="1" fill="none" fill-rule="evenodd"/><path d="M1934.93 1395.85 2706.16 1395.85" stroke="#FFFFFF" stroke-width="4.58333" stroke-linecap="butt" stroke-linejoin="round" stroke-miterlimit="10" stroke-opacity="1" fill="none" fill-rule="evenodd"/><path d="M1934.93 1530.75 2706.16 1530.75" stroke="#FFFFFF" stroke-width="4.58333" stroke-linecap="butt" stroke-linejoin="round" stroke-miterlimit="10" stroke-opacity="1" fill="none" fill-rule="evenodd"/><path d="M1934.93 1665.64 2706.16 1665.64" stroke="#FFFFFF" stroke-width="4.58333" stroke-linecap="butt" stroke-linejoin="round" stroke-miterlimit="10" stroke-opacity="1" fill="none" fill-rule="evenodd"/><path d="M1934.93 1800.53 2706.16 1800.53" stroke="#FFFFFF" stroke-width="4.58333" stroke-linecap="butt" stroke-linejoin="round" stroke-miterlimit="10" stroke-opacity="1" fill="none" fill-rule="evenodd"/><path d="M1934.93 1935.43 2706.16 1935.43" stroke="#FFFFFF" stroke-width="4.58333" stroke-linecap="butt" stroke-linejoin="round" stroke-miterlimit="10" stroke-opacity="1" fill="none" fill-rule="evenodd"/><path d="M1934.93 2070.32 2706.16 2070.32" stroke="#FFFFFF" stroke-width="4.58333" stroke-linecap="butt" stroke-linejoin="round" stroke-miterlimit="10" stroke-opacity="1" fill="none" fill-rule="evenodd"/><path d="M1934.93 2205.22 2706.16 2205.22" stroke="#FFFFFF" stroke-width="4.58333" stroke-linecap="butt" stroke-linejoin="round" stroke-miterlimit="10" stroke-opacity="1" fill="none" fill-rule="evenodd"/><path d="M1934.93 2340.11 2706.16 2340.11" stroke="#FFFFFF" stroke-width="4.58333" stroke-linecap="butt" stroke-linejoin="round" stroke-miterlimit="10" stroke-opacity="1" fill="none" fill-rule="evenodd"/><path d="M1937.22 179.514 1937.22 2477.3" stroke="#FFFFFF" stroke-width="4.58333" stroke-linecap="butt" stroke-linejoin="round" stroke-miterlimit="10" stroke-opacity="1" fill="none" fill-rule="evenodd"/><path d="M2703.87 179.514 2703.87 2477.3" stroke="#FFFFFF" stroke-width="4.58333" stroke-linecap="butt" stroke-linejoin="round" stroke-miterlimit="10" stroke-opacity="1" fill="none" fill-rule="evenodd"/><path d="M1934.93 181.806 2706.16 181.806" stroke="#FFFFFF" stroke-width="4.58333" stroke-linecap="butt" stroke-linejoin="round" stroke-miterlimit="10" stroke-opacity="1" fill="none" fill-rule="evenodd"/><path d="M1934.93 2475 2706.16 2475" stroke="#FFFFFF" stroke-width="4.58333" stroke-linecap="butt" stroke-linejoin="round" stroke-miterlimit="10" stroke-opacity="1" fill="none" fill-rule="evenodd"/><g><text fill="#FFFFFF" fill-opacity="1" font-family="DengXian,DengXian_MSFontService,sans-serif" font-style="normal" font-variant="normal" font-weight="700" font-stretch="normal" font-size="83" text-anchor="start" direction="ltr" writing-mode="lr-tb" unicode-bidi="normal" text-decoration="none" transform="matrix(1 0 0 1 2353.54 275)">next</text></g><g><text fill="#FFFFFF" fill-opacity="1" font-family="DengXian,DengXian_MSFontService,sans-serif" font-style="normal" font-variant="normal" font-weight="700" font-stretch="normal" font-size="83" text-anchor="start" direction="ltr" writing-mode="lr-tb" unicode-bidi="normal" text-decoration="none" transform="matrix(1 0 0 1 1970.22 275)">index</text></g><g><text fill="#000000" fill-opacity="1" font-family="DengXian,DengXian_MSFontService,sans-serif" font-style="normal" font-variant="normal" font-weight="400" font-stretch="normal" font-size="83" text-anchor="start" direction="ltr" writing-mode="lr-tb" unicode-bidi="normal" text-decoration="none" transform="matrix(1 0 0 1 1970.22 410)">0</text></g><g><text fill="#000000" fill-opacity="1" font-family="DengXian,DengXian_MSFontService,sans-serif" font-style="normal" font-variant="normal" font-weight="400" font-stretch="normal" font-size="83" text-anchor="start" direction="ltr" writing-mode="lr-tb" unicode-bidi="normal" text-decoration="none" transform="matrix(1 0 0 1 1970.22 545)">1</text></g><g><text fill="#000000" fill-opacity="1" font-family="DengXian,DengXian_MSFontService,sans-serif" font-style="normal" font-variant="normal" font-weight="400" font-stretch="normal" font-size="83" text-anchor="start" direction="ltr" writing-mode="lr-tb" unicode-bidi="normal" text-decoration="none" transform="matrix(1 0 0 1 2353.54 680)">10</text></g><g><text fill="#000000" fill-opacity="1" font-family="DengXian,DengXian_MSFontService,sans-serif" font-style="normal" font-variant="normal" font-weight="400" font-stretch="normal" font-size="83" text-anchor="start" direction="ltr" writing-mode="lr-tb" unicode-bidi="normal" text-decoration="none" transform="matrix(1 0 0 1 1970.22 680)">2</text></g><g><text fill="#000000" fill-opacity="1" font-family="DengXian,DengXian_MSFontService,sans-serif" font-style="normal" font-variant="normal" font-weight="400" font-stretch="normal" font-size="83" text-anchor="start" direction="ltr" writing-mode="lr-tb" unicode-bidi="normal" text-decoration="none" transform="matrix(1 0 0 1 2353.54 815)">11</text></g><g><text fill="#000000" fill-opacity="1" font-family="DengXian,DengXian_MSFontService,sans-serif" font-style="normal" font-variant="normal" font-weight="400" font-stretch="normal" font-size="83" text-anchor="start" direction="ltr" writing-mode="lr-tb" unicode-bidi="normal" text-decoration="none" transform="matrix(1 0 0 1 1970.22 815)">3</text></g><g><text fill="#000000" fill-opacity="1" font-family="DengXian,DengXian_MSFontService,sans-serif" font-style="normal" font-variant="normal" font-weight="400" font-stretch="normal" font-size="83" text-anchor="start" direction="ltr" writing-mode="lr-tb" unicode-bidi="normal" text-decoration="none" transform="matrix(1 0 0 1 2353.54 950)">7</text></g><g><text fill="#000000" fill-opacity="1" font-family="DengXian,DengXian_MSFontService,sans-serif" font-style="normal" font-variant="normal" font-weight="400" font-stretch="normal" font-size="83" text-anchor="start" direction="ltr" writing-mode="lr-tb" unicode-bidi="normal" text-decoration="none" transform="matrix(1 0 0 1 1970.22 950)">4</text></g><g><text fill="#000000" fill-opacity="1" font-family="DengXian,DengXian_MSFontService,sans-serif" font-style="normal" font-variant="normal" font-weight="400" font-stretch="normal" font-size="83" text-anchor="start" direction="ltr" writing-mode="lr-tb" unicode-bidi="normal" text-decoration="none" transform="matrix(1 0 0 1 1970.22 1085)">5</text></g><g><text fill="#000000" fill-opacity="1" font-family="DengXian,DengXian_MSFontService,sans-serif" font-style="normal" font-variant="normal" font-weight="400" font-stretch="normal" font-size="83" text-anchor="start" direction="ltr" writing-mode="lr-tb" unicode-bidi="normal" text-decoration="none" transform="matrix(1 0 0 1 2353.54 1220)">3</text></g><g><text fill="#000000" fill-opacity="1" font-family="DengXian,DengXian_MSFontService,sans-serif" font-style="normal" font-variant="normal" font-weight="400" font-stretch="normal" font-size="83" text-anchor="start" direction="ltr" writing-mode="lr-tb" unicode-bidi="normal" text-decoration="none" transform="matrix(1 0 0 1 1970.22 1220)">6</text></g><g><text fill="#000000" fill-opacity="1" font-family="DengXian,DengXian_MSFontService,sans-serif" font-style="normal" font-variant="normal" font-weight="400" font-stretch="normal" font-size="83" text-anchor="start" direction="ltr" writing-mode="lr-tb" unicode-bidi="normal" text-decoration="none" transform="matrix(1 0 0 1 2353.54 1354)">2</text></g><g><text fill="#000000" fill-opacity="1" font-family="DengXian,DengXian_MSFontService,sans-serif" font-style="normal" font-variant="normal" font-weight="400" font-stretch="normal" font-size="83" text-anchor="start" direction="ltr" writing-mode="lr-tb" unicode-bidi="normal" text-decoration="none" transform="matrix(1 0 0 1 1970.22 1354)">7</text></g><g><text fill="#000000" fill-opacity="1" font-family="DengXian,DengXian_MSFontService,sans-serif" font-style="normal" font-variant="normal" font-weight="400" font-stretch="normal" font-size="83" text-anchor="start" direction="ltr" writing-mode="lr-tb" unicode-bidi="normal" text-decoration="none" transform="matrix(1 0 0 1 1970.22 1489)">8</text></g><g><text fill="#000000" fill-opacity="1" font-family="DengXian,DengXian_MSFontService,sans-serif" font-style="normal" font-variant="normal" font-weight="400" font-stretch="normal" font-size="83" text-anchor="start" direction="ltr" writing-mode="lr-tb" unicode-bidi="normal" text-decoration="none" transform="matrix(1 0 0 1 1970.22 1624)">9</text></g><g><text fill="#000000" fill-opacity="1" font-family="DengXian,DengXian_MSFontService,sans-serif" font-style="normal" font-variant="normal" font-weight="400" font-stretch="normal" font-size="83" text-anchor="start" direction="ltr" writing-mode="lr-tb" unicode-bidi="normal" text-decoration="none" transform="matrix(1 0 0 1 2353.54 1759)">12</text></g><g><text fill="#000000" fill-opacity="1" font-family="DengXian,DengXian_MSFontService,sans-serif" font-style="normal" font-variant="normal" font-weight="400" font-stretch="normal" font-size="83" text-anchor="start" direction="ltr" writing-mode="lr-tb" unicode-bidi="normal" text-decoration="none" transform="matrix(1 0 0 1 1970.22 1759)">10</text></g><g><text fill="#000000" fill-opacity="1" font-family="DengXian,DengXian_MSFontService,sans-serif" font-style="normal" font-variant="normal" font-weight="400" font-stretch="normal" font-size="83" text-anchor="start" direction="ltr" writing-mode="lr-tb" unicode-bidi="normal" text-decoration="none" transform="matrix(1 0 0 1 2353.54 1894)">14</text></g><g><text fill="#000000" fill-opacity="1" font-family="DengXian,DengXian_MSFontService,sans-serif" font-style="normal" font-variant="normal" font-weight="400" font-stretch="normal" font-size="83" text-anchor="start" direction="ltr" writing-mode="lr-tb" unicode-bidi="normal" text-decoration="none" transform="matrix(1 0 0 1 1970.22 1894)">11</text></g><g><text fill="#000000" fill-opacity="1" font-family="DengXian,DengXian_MSFontService,sans-serif" font-style="normal" font-variant="normal" font-weight="400" font-stretch="normal" font-size="83" text-anchor="start" direction="ltr" writing-mode="lr-tb" unicode-bidi="normal" text-decoration="none" transform="matrix(1 0 0 1 2353.54 2029)">-</text></g><text fill="#000000" fill-opacity="1" font-family="DengXian,DengXian_MSFontService,sans-serif" font-style="normal" font-variant="normal" font-weight="400" font-stretch="normal" font-size="83" text-anchor="start" direction="ltr" writing-mode="lr-tb" unicode-bidi="normal" text-decoration="none" transform="matrix(1 0 0 1 2394.79 2029)">1</text><g><text fill="#000000" fill-opacity="1" font-family="DengXian,DengXian_MSFontService,sans-serif" font-style="normal" font-variant="normal" font-weight="400" font-stretch="normal" font-size="83" text-anchor="start" direction="ltr" writing-mode="lr-tb" unicode-bidi="normal" text-decoration="none" transform="matrix(1 0 0 1 1970.22 2029)">12</text></g><g><text fill="#000000" fill-opacity="1" font-family="DengXian,DengXian_MSFontService,sans-serif" font-style="normal" font-variant="normal" font-weight="400" font-stretch="normal" font-size="83" text-anchor="start" direction="ltr" writing-mode="lr-tb" unicode-bidi="normal" text-decoration="none" transform="matrix(1 0 0 1 1970.22 2164)">13</text></g><g><text fill="#000000" fill-opacity="1" font-family="DengXian,DengXian_MSFontService,sans-serif" font-style="normal" font-variant="normal" font-weight="400" font-stretch="normal" font-size="83" text-anchor="start" direction="ltr" writing-mode="lr-tb" unicode-bidi="normal" text-decoration="none" transform="matrix(1 0 0 1 2353.54 2299)">-</text></g><text fill="#000000" fill-opacity="1" font-family="DengXian,DengXian_MSFontService,sans-serif" font-style="normal" font-variant="normal" font-weight="400" font-stretch="normal" font-size="83" text-anchor="start" direction="ltr" writing-mode="lr-tb" unicode-bidi="normal" text-decoration="none" transform="matrix(1 0 0 1 2394.79 2299)">1</text><g><text fill="#000000" fill-opacity="1" font-family="DengXian,DengXian_MSFontService,sans-serif" font-style="normal" font-variant="normal" font-weight="400" font-stretch="normal" font-size="83" text-anchor="start" direction="ltr" writing-mode="lr-tb" unicode-bidi="normal" text-decoration="none" transform="matrix(1 0 0 1 1970.22 2299)">14</text></g><g><text fill="#000000" fill-opacity="1" font-family="DengXian,DengXian_MSFontService,sans-serif" font-style="normal" font-variant="normal" font-weight="400" font-stretch="normal" font-size="83" text-anchor="start" direction="ltr" writing-mode="lr-tb" unicode-bidi="normal" text-decoration="none" transform="matrix(1 0 0 1 1970.22 2434)">15</text></g><path d="M1467.09 776.844 1489.2 777.209 1511.21 778.276 1532.88 779.996 1554.03 782.324 1574.5 785.214 1594.11 788.62 1612.7 792.498 1630.07 796.798 1638.3 799.107 1646.14 801.5 1653.61 803.982 1660.68 806.547 1667.34 809.193 1673.56 811.916 1679.34 814.718 1684.64 817.598 1689.46 820.561 1693.79 823.618 1697.6 826.786 1700.87 830.091 1703.58 833.573 1705.66 837.271 1707 841.204 1707.4 844.721 1707.74 847.687 1707.5 846.613 1708.51 849.574 1708.12 848.714 1709.78 851.663 1709.35 851.021 1711.63 853.953 1711.22 853.489 1714.11 856.397 1713.74 856.062 1717.21 858.942 1716.89 858.696 1720.91 861.541 1720.63 861.359 1725.2 864.163 1724.96 864.025 1730.04 866.783 1729.83 866.675 1735.4 869.381 1735.22 869.297 1741.27 871.944 1741.11 871.876 1747.61 874.46 1747.46 874.405 1754.39 876.919 1754.26 876.873 1761.6 879.313 1761.48 879.274 1769.21 881.632 1769.1 881.599 1777.2 883.87 1777.04 883.83 1794.24 888.088 1794.06 888.046 1812.47 891.887 1812.3 891.854 1831.74 895.231 1831.58 895.206 1851.89 898.073 1851.73 898.053 1872.72 900.364 1872.57 900.349 1894.08 902.057 1893.89 902.045 1912 902.806 1911.57 913.109 1893.36 912.345 1871.67 910.623 1850.52 908.295 1830.06 905.406 1810.45 901.999 1791.86 898.121 1774.49 893.821 1766.26 891.513 1758.41 889.119 1750.94 886.638 1743.87 884.073 1737.22 881.427 1730.99 878.703 1725.22 875.902 1719.92 873.022 1715.09 870.058 1710.77 867.001 1706.96 863.833 1703.68 860.528 1700.98 857.047 1698.9 853.348 1697.56 849.415 1697.16 845.898 1696.81 842.932 1697.06 844.006 1696.05 841.045 1696.43 841.905 1694.78 838.956 1695.2 839.598 1692.92 836.666 1693.33 837.131 1690.45 834.222 1690.81 834.557 1687.35 831.678 1687.67 831.923 1683.65 829.078 1683.92 829.26 1679.36 826.456 1679.6 826.595 1674.52 823.837 1674.73 823.944 1669.15 821.238 1669.34 821.323 1663.29 818.675 1663.45 818.743 1656.95 816.159 1657.09 816.215 1650.16 813.7 1650.29 813.746 1642.95 811.307 1643.07 811.345 1635.34 808.987 1635.46 809.02 1627.36 806.749 1627.51 806.79 1610.31 802.531 1610.5 802.574 1592.09 798.733 1592.26 798.765 1572.81 795.388 1572.98 795.414 1552.67 792.546 1552.83 792.566 1531.83 790.255 1531.99 790.27 1510.48 788.562 1510.64 788.572 1488.78 787.513 1488.94 787.519 1466.92 787.156ZM1907.03 892.361 1937.56 908.619 1906.23 923.289Z" fill="#4472C4" fill-rule="nonzero" fill-opacity="1"/><path d="M1467.16 972.846 1489.34 973.521 1511.49 975.5 1533.28 978.692 1554.55 983.011 1575.13 988.371 1594.85 994.689 1613.55 1001.88 1631.01 1009.86 1639.3 1014.15 1647.19 1018.59 1654.7 1023.19 1661.81 1027.95 1668.5 1032.85 1674.74 1037.89 1680.53 1043.07 1685.82 1048.37 1690.61 1053.8 1694.86 1059.34 1698.55 1065 1701.65 1070.77 1704.13 1076.65 1705.95 1082.63 1707.06 1088.68 1707.42 1094.46 1707.77 1099.93 1707.69 1099.32 1708.7 1104.78 1708.56 1104.22 1710.22 1109.66 1710.03 1109.15 1712.31 1114.56 1712.1 1114.12 1714.99 1119.49 1714.76 1119.11 1718.23 1124.43 1718 1124.1 1722.03 1129.35 1721.8 1129.08 1726.36 1134.25 1726.15 1134.02 1731.23 1139.11 1731.02 1138.91 1736.59 1143.9 1736.39 1143.73 1742.44 1148.61 1742.25 1148.47 1748.75 1153.23 1748.57 1153.11 1755.5 1157.75 1755.33 1157.64 1762.67 1162.13 1762.51 1162.04 1770.24 1166.39 1770.08 1166.3 1778.17 1170.49 1777.94 1170.38 1795.15 1178.23 1794.86 1178.11 1813.27 1185.2 1812.99 1185.1 1832.43 1191.33 1832.16 1191.25 1852.46 1196.54 1852.19 1196.48 1873.19 1200.74 1872.91 1200.69 1894.42 1203.84 1894.07 1203.8 1912.2 1205.2 1911.41 1215.49 1893.1 1214.07 1871.27 1210.87 1850 1206.55 1829.42 1201.19 1809.7 1194.88 1791.01 1187.68 1773.55 1179.71 1765.26 1175.42 1757.36 1170.98 1749.85 1166.37 1742.74 1161.62 1736.06 1156.71 1729.81 1151.67 1724.03 1146.5 1718.74 1141.19 1713.95 1135.77 1709.7 1130.22 1706.01 1124.56 1702.91 1118.79 1700.43 1112.91 1698.61 1106.94 1697.49 1100.89 1697.13 1095.1 1696.79 1089.63 1696.87 1090.25 1695.86 1084.78 1696 1085.35 1694.34 1079.91 1694.52 1080.41 1692.24 1075 1692.45 1075.44 1689.57 1070.07 1689.79 1070.45 1686.33 1065.14 1686.55 1065.46 1682.53 1060.21 1682.75 1060.49 1678.19 1055.31 1678.41 1055.54 1673.33 1050.46 1673.54 1050.66 1667.96 1045.66 1668.16 1045.83 1662.11 1040.95 1662.31 1041.1 1655.8 1036.33 1655.99 1036.46 1649.05 1031.82 1649.23 1031.93 1641.88 1027.43 1642.05 1027.53 1634.32 1023.18 1634.48 1023.26 1626.38 1019.07 1626.61 1019.18 1609.41 1011.33 1609.7 1011.45 1591.29 1004.37 1591.57 1004.46 1572.12 998.235 1572.4 998.315 1552.09 993.026 1552.37 993.089 1531.37 988.827 1531.65 988.875 1510.14 985.725 1510.43 985.759 1488.57 983.806 1488.87 983.824 1466.84 983.154ZM1907.38 1194.65 1937.56 1211.56 1905.92 1225.55Z" fill="#4472C4" fill-rule="nonzero" fill-opacity="1"/><text fill="#FF0000" fill-opacity="1" font-family="DengXian,DengXian_MSFontService,sans-serif" font-style="normal" font-variant="normal" font-weight="700" font-stretch="normal" font-size="147" text-anchor="start" direction="ltr" writing-mode="lr-tb" unicode-bidi="normal" text-decoration="none" transform="matrix(1 0 0 1 441.067 2043)">FAT</text><text fill="#FF0000" fill-opacity="1" font-family="DengXian,DengXian_MSFontService,sans-serif" font-style="normal" font-variant="normal" font-weight="700" font-stretch="normal" font-size="147" text-anchor="start" direction="ltr" writing-mode="lr-tb" unicode-bidi="normal" text-decoration="none" transform="matrix(1 0 0 1 694.296 2043)">示意图</text><text fill="#000000" fill-opacity="1" font-family="DengXian,DengXian_MSFontService,sans-serif" font-style="normal" font-variant="normal" font-weight="400" font-stretch="normal" font-size="83" text-anchor="start" direction="ltr" writing-mode="lr-tb" unicode-bidi="normal" text-decoration="none" transform="matrix(1 0 0 1 567.182 319)">目录</text><text fill="#000000" fill-opacity="1" font-family="DengXian,DengXian_MSFontService,sans-serif" font-style="normal" font-variant="normal" font-weight="400" font-stretch="normal" font-size="83" text-anchor="start" direction="ltr" writing-mode="lr-tb" unicode-bidi="normal" text-decoration="none" transform="matrix(1 0 0 1 732.182 319)">/</text><text fill="#000000" fill-opacity="1" font-family="DengXian,DengXian_MSFontService,sans-serif" font-style="normal" font-variant="normal" font-weight="400" font-stretch="normal" font-size="83" text-anchor="start" direction="ltr" writing-mode="lr-tb" unicode-bidi="normal" text-decoration="none" transform="matrix(1 0 0 1 763.12 319)">文件夹</text><text fill="#000000" fill-opacity="1" font-family="DengXian,DengXian_MSFontService,sans-serif" font-style="normal" font-variant="normal" font-weight="400" font-stretch="normal" font-size="83" text-anchor="start" direction="ltr" writing-mode="lr-tb" unicode-bidi="normal" text-decoration="none" transform="matrix(1 0 0 1 2233 142)">FAT</text></g></g></svg>