<svg xmlns="http://www.w3.org/2000/svg" xml:space="preserve" width="2274" height="757" overflow="hidden"><path fill="none" stroke="#000" stroke-miterlimit="8" stroke-width="4.583" d="M932.5 163.5h130v130h-130z"/><text font-family="DengXian,DengXian_MSFontService,sans-serif" font-size="83" font-weight="400" transform="translate(974.96 255)">0</text><path fill="none" stroke="#000" stroke-miterlimit="8" stroke-width="4.583" d="M542.5 163.5h130v130h-130z"/><text font-family="DengXian,DengXian_MSFontService,sans-serif" font-size="83" font-weight="400" transform="translate(585.195 255)">0</text><path fill="none" stroke="#000" stroke-miterlimit="8" stroke-width="4.583" d="M802.5 163.5h130v130h-130z"/><text font-family="DengXian,DengXian_MSFontService,sans-serif" font-size="83" font-weight="400" transform="translate(845.04 255)">0</text><path fill="none" stroke="#000" stroke-miterlimit="8" stroke-width="4.583" d="M672.5 163.5h130v130h-130z"/><text font-family="DengXian,DengXian_MSFontService,sans-serif" font-size="83" font-weight="400" transform="translate(715.116 255)">1</text><path fill="none" stroke="#000" stroke-miterlimit="8" stroke-width="4.583" d="M1192.5 163.5h130v130h-130z"/><text font-family="DengXian,DengXian_MSFontService,sans-serif" font-size="83" font-weight="400" transform="translate(1234.8 255)">0</text><path fill="none" stroke="#000" stroke-miterlimit="8" stroke-width="4.583" d="M1062.5 163.5h130v130h-130z"/><text font-family="DengXian,DengXian_MSFontService,sans-serif" font-size="83" font-weight="400" transform="translate(1104.88 255)">0</text><path fill="none" stroke="#000" stroke-miterlimit="8" stroke-width="4.583" d="M1451.5 163.5h130v130h-130z"/><text font-family="DengXian,DengXian_MSFontService,sans-serif" font-size="83" font-weight="400" transform="translate(1494.64 255)">0</text><path fill="none" stroke="#000" stroke-miterlimit="8" stroke-width="4.583" d="M1322.5 163.5h129v130h-129z"/><text font-family="DengXian,DengXian_MSFontService,sans-serif" font-size="83" font-weight="400" transform="translate(1364.72 255)">1</text><path fill="none" stroke="#000" stroke-miterlimit="8" stroke-width="4.583" d="M1711.5 163.5h130v130h-130z"/><text font-family="DengXian,DengXian_MSFontService,sans-serif" font-size="83" font-weight="400" transform="translate(1754.49 255)">0</text><path fill="none" stroke="#000" stroke-miterlimit="8" stroke-width="4.583" d="M1581.5 163.5h130v130h-130z"/><text font-family="DengXian,DengXian_MSFontService,sans-serif" font-size="83" font-weight="400" transform="translate(1624.56 255)">1</text><path fill="none" stroke="#000" stroke-miterlimit="8" stroke-width="4.583" d="M2101.5 163.5h130v130h-130z"/><text font-family="DengXian,DengXian_MSFontService,sans-serif" font-size="83" font-weight="400" transform="translate(2144.25 255)">1</text><path fill="none" stroke="#000" stroke-miterlimit="8" stroke-width="4.583" d="M1841.5 163.5h130v130h-130z"/><text font-family="DengXian,DengXian_MSFontService,sans-serif" font-size="83" font-weight="400" transform="translate(1884.41 255)">2</text><path fill="none" stroke="#000" stroke-miterlimit="8" stroke-width="4.583" d="M1971.5 163.5h130v130h-130z"/><text font-family="DengXian,DengXian_MSFontService,sans-serif" font-size="83" font-weight="400" transform="translate(2014.33 255)">0</text><path fill="none" stroke="#000" stroke-miterlimit="8" stroke-width="4.583" d="M412.5 163.5h130v130h-130z"/><text font-family="DengXian,DengXian_MSFontService,sans-serif" font-size="83" font-weight="400" transform="translate(455.274 255)">1</text><path fill="#dde6c4" stroke="#172c51" stroke-miterlimit="8" stroke-width="4.583" d="M7.5 163.5h380v130H7.5z"/><text font-family="DengXian,DengXian_MSFontService,sans-serif" font-size="55" font-weight="700" transform="translate(59.526 246)">使用中的块</text><path fill="none" stroke="#000" stroke-miterlimit="8" stroke-width="4.583" d="M932.5 330.5h130v130h-130z"/><text font-family="DengXian,DengXian_MSFontService,sans-serif" font-size="83" font-weight="400" transform="translate(974.96 423)">0</text><path fill="none" stroke="#000" stroke-miterlimit="8" stroke-width="4.583" d="M542.5 330.5h130v130h-130z"/><text font-family="DengXian,DengXian_MSFontService,sans-serif" font-size="83" font-weight="400" transform="translate(585.195 423)">1</text><path fill="none" stroke="#000" stroke-miterlimit="8" stroke-width="4.583" d="M802.5 330.5h130v130h-130z"/><text font-family="DengXian,DengXian_MSFontService,sans-serif" font-size="83" font-weight="400" transform="translate(845.04 423)">1</text><path fill="none" stroke="#000" stroke-miterlimit="8" stroke-width="4.583" d="M672.5 330.5h130v130h-130z"/><text font-family="DengXian,DengXian_MSFontService,sans-serif" font-size="83" font-weight="400" transform="translate(715.116 423)">0</text><path fill="none" stroke="#000" stroke-miterlimit="8" stroke-width="4.583" d="M1192.5 330.5h130v130h-130z"/><text font-family="DengXian,DengXian_MSFontService,sans-serif" font-size="83" font-weight="400" transform="translate(1234.8 423)">2</text><path fill="none" stroke="#000" stroke-miterlimit="8" stroke-width="4.583" d="M1062.5 330.5h130v130h-130z"/><text font-family="DengXian,DengXian_MSFontService,sans-serif" font-size="83" font-weight="400" transform="translate(1104.88 423)">1</text><path fill="none" stroke="#000" stroke-miterlimit="8" stroke-width="4.583" d="M1451.5 330.5h130v130h-130z"/><text font-family="DengXian,DengXian_MSFontService,sans-serif" font-size="83" font-weight="400" transform="translate(1494.64 423)">1</text><path fill="none" stroke="#000" stroke-miterlimit="8" stroke-width="4.583" d="M1322.5 330.5h129v130h-129z"/><text font-family="DengXian,DengXian_MSFontService,sans-serif" font-size="83" font-weight="400" transform="translate(1364.72 423)">0</text><path fill="none" stroke="#000" stroke-miterlimit="8" stroke-width="4.583" d="M1711.5 330.5h130v130h-130z"/><text font-family="DengXian,DengXian_MSFontService,sans-serif" font-size="83" font-weight="400" transform="translate(1754.49 423)">1</text><path fill="none" stroke="#000" stroke-miterlimit="8" stroke-width="4.583" d="M1581.5 330.5h130v130h-130z"/><text font-family="DengXian,DengXian_MSFontService,sans-serif" font-size="83" font-weight="400" transform="translate(1624.56 423)">0</text><path fill="none" stroke="#000" stroke-miterlimit="8" stroke-width="4.583" d="M2101.5 330.5h130v130h-130z"/><text font-family="DengXian,DengXian_MSFontService,sans-serif" font-size="83" font-weight="400" transform="translate(2144.25 423)">0</text><path fill="none" stroke="#000" stroke-miterlimit="8" stroke-width="4.583" d="M1841.5 330.5h130v130h-130z"/><text font-family="DengXian,DengXian_MSFontService,sans-serif" font-size="83" font-weight="400" transform="translate(1884.41 423)">0</text><path fill="none" stroke="#000" stroke-miterlimit="8" stroke-width="4.583" d="M1971.5 330.5h130v130h-130z"/><text font-family="DengXian,DengXian_MSFontService,sans-serif" font-size="83" font-weight="400" transform="translate(2014.33 423)">1</text><path fill="none" stroke="#000" stroke-miterlimit="8" stroke-width="4.583" d="M412.5 330.5h130v130h-130z"/><text font-family="DengXian,DengXian_MSFontService,sans-serif" font-size="83" font-weight="400" transform="translate(455.274 423)">0</text><path fill="#dde6c4" stroke="#172c51" stroke-miterlimit="8" stroke-width="4.583" d="M7.5 330.5h380v130H7.5z"/><text font-family="DengXian,DengXian_MSFontService,sans-serif" font-size="55" font-weight="700" transform="translate(114.526 413)">空闲块</text><path fill="#f2cefe" stroke="#000" stroke-miterlimit="8" stroke-width="4.583" d="M412.5 592.5h390v130h-390z"/><text font-family="DengXian,DengXian_MSFontService,sans-serif" font-size="83" font-weight="400" transform="translate(524.466 684)">一致</text><path fill="#0070c0" d="m605.792 593.401-113.801-115 3.257-3.224 113.802 115ZM487.07 489.719 477.5 460.5l29.117 9.875Z"/><path fill="#0070c0" d="M609.792 591.789V483.417h-4.583v108.372ZM621.25 488l-13.75-27.5-13.75 27.5Z"/><path fill="#0070c0" d="M609.129 593.4 722.93 478.402l-3.258-3.224-113.802 115ZM727.85 489.72l9.57-29.219-29.117 9.875Z"/><path fill="#f2cefe" stroke="#000" stroke-miterlimit="8" stroke-width="4.583" d="M898.5 595.5h197v130h-197z"/><text font-family="DengXian,DengXian_MSFontService,sans-serif" font-size="50" font-weight="400" transform="translate(933.14 676)">情况</text><text font-family="DengXian,DengXian_MSFontService,sans-serif" font-size="50" font-weight="400" transform="translate(1033.97 676)">2</text><path fill="#0070c0" d="M999.792 594.684V483.417h-4.583v111.267ZM1011.25 488l-13.75-27.5-13.75 27.5Z"/><path fill="#f2cefe" stroke="#000" stroke-miterlimit="8" stroke-width="4.583" d="M1159.5 595.5h197v130h-197z"/><text font-family="DengXian,DengXian_MSFontService,sans-serif" font-size="50" font-weight="400" transform="translate(1193.81 676)">情况</text><text font-family="DengXian,DengXian_MSFontService,sans-serif" font-size="50" font-weight="400" transform="translate(1294.65 676)">3</text><path fill="#0070c0" d="M1259.792 594.684V483.417h-4.583v111.267ZM1271.25 488l-13.75-27.5-13.75 27.5Z"/><path fill="#f2cefe" stroke="#000" stroke-miterlimit="8" stroke-width="4.583" d="M1808.5 592.5h196v130h-196z"/><text font-family="DengXian,DengXian_MSFontService,sans-serif" font-size="50" font-weight="400" transform="translate(1842.58 673)">情况</text><text font-family="DengXian,DengXian_MSFontService,sans-serif" font-size="50" font-weight="400" transform="translate(1943.42 673)">4</text><path fill="#0070c0" d="M1908.792 591.789V483.417h-4.583v108.372ZM1920.25 488l-13.75-27.5-13.75 27.5Z"/><text font-family="DengXian,DengXian_MSFontService,sans-serif" font-size="83" font-weight="400" transform="translate(974.96 106)">4</text><text font-family="DengXian,DengXian_MSFontService,sans-serif" font-size="83" font-weight="400" transform="translate(585.195 106)">1</text><text font-family="DengXian,DengXian_MSFontService,sans-serif" font-size="83" font-weight="400" transform="translate(845.04 106)">3</text><text font-family="DengXian,DengXian_MSFontService,sans-serif" font-size="83" font-weight="400" transform="translate(715.116 106)">2</text><text font-family="DengXian,DengXian_MSFontService,sans-serif" font-size="83" font-weight="400" transform="translate(1234.8 106)">6</text><text font-family="DengXian,DengXian_MSFontService,sans-serif" font-size="83" font-weight="400" transform="translate(1104.88 106)">5</text><text font-family="DengXian,DengXian_MSFontService,sans-serif" font-size="83" font-weight="400" transform="translate(1494.64 106)">8</text><text font-family="DengXian,DengXian_MSFontService,sans-serif" font-size="83" font-weight="400" transform="translate(1364.72 106)">7</text><text font-family="DengXian,DengXian_MSFontService,sans-serif" font-size="83" font-weight="400" transform="translate(1732.72 106)">10</text><text font-family="DengXian,DengXian_MSFontService,sans-serif" font-size="83" font-weight="400" transform="translate(1624.56 106)">9</text><text font-family="DengXian,DengXian_MSFontService,sans-serif" font-size="83" font-weight="400" transform="translate(2136.41 106)">13</text><text font-family="DengXian,DengXian_MSFontService,sans-serif" font-size="83" font-weight="400" transform="translate(1876.57 106)">11</text><text font-family="DengXian,DengXian_MSFontService,sans-serif" font-size="83" font-weight="400" transform="translate(2006.49 106)">12</text><text font-family="DengXian,DengXian_MSFontService,sans-serif" font-size="83" font-weight="400" transform="translate(455.274 106)">0</text></svg>