<svg xmlns="http://www.w3.org/2000/svg" xml:space="preserve" width="3254" height="1989" overflow="hidden"><text font-family="DengXian Light,DengXian Light_MSFontService,sans-serif" font-size="202" font-weight="300" transform="translate(189.5 253)">文件多级索引结构</text><path fill="#f2cefe" fill-rule="evenodd" stroke="#172c51" stroke-miterlimit="8" stroke-width="4.583" d="M5.5 731.834c0-17.858 14.476-32.334 32.334-32.334h532.332c17.858 0 32.334 14.476 32.334 32.334v129.332c0 17.857-14.476 32.334-32.334 32.334H37.834C19.976 893.5 5.5 879.023 5.5 861.166Z"/><text font-family="DengXian,DengXian_MSFontService,sans-serif" font-size="83" font-weight="400" transform="translate(138.473 823)">多级索引</text><path fill="none" stroke="#f2cefe" stroke-miterlimit="8" stroke-width="20.625" d="M47.5 1164.5h3195.18"/><path fill="#f2cefe" fill-rule="evenodd" stroke="#172c51" stroke-miterlimit="8" stroke-width="4.583" d="M5.5 1428.83c0-17.85 14.476-32.33 32.334-32.33h532.332c17.858 0 32.334 14.48 32.334 32.33v129.34c0 17.85-14.476 32.33-32.334 32.33H37.834c-17.858 0-32.334-14.48-32.334-32.33Z"/><text font-family="DengXian,DengXian_MSFontService,sans-serif" font-size="83" font-weight="400" transform="translate(138.473 1521)">综合模式</text><path fill="#ffc000" fill-rule="evenodd" d="M922.63 920.608h399.67v122.142H922.63Zm399.67 0h412.96v122.142H1322.3Zm412.96 0h377.43v122.142h-377.43Zm377.43 0h379.27v122.142h-379.27Z"/><path fill="none" stroke="#00c" stroke-linejoin="round" stroke-miterlimit="10" stroke-width="4.583" d="M1322.3 918.317v126.733m412.96-126.733v126.733"/><path fill="none" stroke="#00c" stroke-linejoin="round" stroke-miterlimit="10" stroke-width="6.875" d="M2112.69 920.608v124.442"/><path fill="none" stroke="#00c" stroke-linejoin="round" stroke-miterlimit="10" stroke-width="4.583" d="M922.63 918.317v126.733m1569.33-124.442v124.442M920.34 920.608h817.21M920.34 1042.75h1573.92"/><text fill="#00c" font-family="Kaiti SC,Kaiti SC_MSFontService,sans-serif" font-size="73" font-weight="900" transform="translate(2154.63 1000)">物理块</text><text fill="#00c" font-family="Arial,Arial_MSFontService,sans-serif" font-size="73" font-weight="700" transform="translate(2371.88 1000)">15</text><text fill="#00c" font-family="Kaiti SC,Kaiti SC_MSFontService,sans-serif" font-size="73" font-weight="900" transform="translate(1795.3 1000)">物理块</text><text fill="#00c" font-family="Arial,Arial_MSFontService,sans-serif" font-size="73" font-weight="700" transform="translate(2012.55 1000)">8</text><text fill="#00c" font-family="Kaiti SC,Kaiti SC_MSFontService,sans-serif" font-size="73" font-weight="900" transform="translate(1383.49 1000)">物理块</text><text fill="#00c" font-family="Arial,Arial_MSFontService,sans-serif" font-size="73" font-weight="700" transform="translate(1600.74 1000)">50</text><text fill="#00c" font-family="Kaiti SC,Kaiti SC_MSFontService,sans-serif" font-size="73" font-weight="900" transform="translate(984.51 1000)">物理块</text><text fill="#00c" font-family="Arial,Arial_MSFontService,sans-serif" font-size="73" font-weight="700" transform="translate(1201.76 1000)">18</text><path fill="#ffc000" fill-rule="evenodd" d="M1408.89 591H1154v93.968h254.89z"/><path fill="none" stroke="#00c" stroke-linejoin="round" stroke-miterlimit="10" stroke-width="4.583" d="M1154.5 685.468h254.89V591.5H1154.5z"/><path fill="#ffc000" fill-rule="evenodd" d="M1622.89 591H1368v93.968h254.89z"/><path fill="none" stroke="#00c" stroke-linejoin="round" stroke-miterlimit="10" stroke-width="4.583" d="M1368.5 685.468h254.89V591.5H1368.5z"/><path fill="#ffc000" fill-rule="evenodd" d="M1837.89 591H1583v93.968h254.89z"/><path fill="none" stroke="#00c" stroke-linejoin="round" stroke-miterlimit="10" stroke-width="4.583" d="M1583.5 685.468h254.89V591.5H1583.5z"/><path fill="#ffc000" fill-rule="evenodd" d="M2051.89 591H1797v93.968h254.89z"/><path fill="none" stroke="#00c" stroke-linejoin="round" stroke-miterlimit="10" stroke-width="4.583" d="M1797.5 685.468h254.89V591.5H1797.5z"/><text font-family="Kaiti SC,Kaiti SC_MSFontService,sans-serif" font-size="73" font-weight="900" transform="translate(743.162 657)">顶级索引表</text><text font-family="Kaiti SC,Kaiti SC_MSFontService,sans-serif" font-size="73" font-weight="900" transform="translate(665.172 975)">次级</text><text font-family="Kaiti SC,Kaiti SC_MSFontService,sans-serif" font-size="73" font-weight="900" transform="translate(665.172 1063)">索引表</text><text font-family="Kaiti SC,Kaiti SC_MSFontService,sans-serif" font-size="73" font-weight="900" transform="translate(2614.48 981)">次级索引表</text><path fill="#00c" fill-rule="evenodd" d="m1248.01 655.799-8.52-5.826-173.26 253.356-8.51-5.826-4.72 34.313 30.25-16.835-2.28-1.56-6.26-4.28zm1390.81 264.045-.89-.734-25.79-21.285-2.31 10.087L1457.78 643l-2.29 10.046 1152.04 264.907-2.31 10.056z"/><path fill="#ffc000" fill-rule="evenodd" d="M1408.89 1289H1154v93.97h254.89z"/><path fill="none" stroke="#00c" stroke-linejoin="round" stroke-miterlimit="10" stroke-width="4.583" d="M1154.5 1383.47h254.89v-93.97H1154.5z"/><path fill="#ffc000" fill-rule="evenodd" d="M1622.89 1289H1368v93.97h254.89z"/><path fill="none" stroke="#00c" stroke-linejoin="round" stroke-miterlimit="10" stroke-width="4.583" d="M1368.5 1383.47h254.89v-93.97H1368.5z"/><path fill="#ffc000" fill-rule="evenodd" d="M1837.89 1289H1583v93.97h254.89z"/><path fill="none" stroke="#00c" stroke-linejoin="round" stroke-miterlimit="10" stroke-width="4.583" d="M1583.5 1383.47h254.89v-93.97H1583.5z"/><path fill="#ffc000" fill-rule="evenodd" d="M2051.89 1289H1797v93.97h254.89z"/><path fill="none" stroke="#00c" stroke-linejoin="round" stroke-miterlimit="10" stroke-width="4.583" d="M1797.5 1383.47h254.89v-93.97H1797.5z"/><text font-family="Kaiti SC,Kaiti SC_MSFontService,sans-serif" font-size="73" font-weight="900" transform="translate(717.202 1355)">顶级索引表</text><text font-family="Kaiti SC,Kaiti SC_MSFontService,sans-serif" font-size="73" font-weight="900" transform="translate(2580.61 1451)">次级索引表</text><path fill="#00c" fill-rule="evenodd" d="m1247.95 1354.15-8.52-5.83-173.21 253.44-8.5-5.83-4.72 34.31 30.24-16.81-2.29-1.57-6.24-4.28zm268.26 256.69h-10.31v-271.56h-10.31v271.56h-10.31l15.49 30.98 12.87-25.82zm362.87 30.98-1.43-19.57-1.09-14.97-8.86 5.27-163.41-275.88-8.84 5.23 163.4 275.91-8.86 5.27zm701.74-225.35-28.68-19.37-1.34 10.25-637.31-83.35-1.37 10.28 637.35 83.3-1.32 10.22 27.51-9.55z"/><path fill="#ffc000" stroke="#00c" stroke-linejoin="round" stroke-miterlimit="10" stroke-width="4.583" d="M1318.5 1637.5h364v123h-364z"/><text fill="#00c" font-family="Kaiti SC,Kaiti SC_MSFontService,sans-serif" font-size="73" font-weight="900" transform="translate(1352.78 1717)">物理块</text><text fill="#00c" font-family="Arial,Arial_MSFontService,sans-serif" font-size="73" font-weight="700" transform="translate(1571.41 1717)">50</text><path fill="#ffc000" fill-rule="evenodd" d="M1822.48 1632.22h377.44v122.14h-377.44Zm377.44 0h379.27v122.14h-379.27Zm379.27 0h379.96v122.14h-379.96Z"/><path fill="none" stroke="#00c" stroke-linejoin="round" stroke-miterlimit="10" stroke-width="6.875" d="M2199.92 1629.92v126.73"/><path fill="none" stroke="#00c" stroke-linejoin="round" stroke-miterlimit="10" stroke-width="4.583" d="M2579.19 1629.92v126.73m-756.71-126.73v126.73m1136.67-126.73v126.73m-1138.96-124.43h1141.25m-1141.25 122.14h1141.25"/><text fill="#00c" font-family="Kaiti SC,Kaiti SC_MSFontService,sans-serif" font-size="73" font-weight="900" transform="translate(2622.04 1712)">物理块</text><text fill="#00c" font-family="Arial,Arial_MSFontService,sans-serif" font-size="73" font-weight="700" transform="translate(2840.67 1712)">15</text><text fill="#00c" font-family="Kaiti SC,Kaiti SC_MSFontService,sans-serif" font-size="73" font-weight="900" transform="translate(2241.86 1712)">物理块</text><text fill="#00c" font-family="Arial,Arial_MSFontService,sans-serif" font-size="73" font-weight="700" transform="translate(2460.48 1712)">15</text><text fill="#00c" font-family="Kaiti SC,Kaiti SC_MSFontService,sans-serif" font-size="73" font-weight="900" transform="translate(1882.75 1712)">物理块</text><text fill="#00c" font-family="Arial,Arial_MSFontService,sans-serif" font-size="73" font-weight="700" transform="translate(2101.38 1712)">8</text><path fill="#ffc000" stroke="#00c" stroke-linejoin="round" stroke-miterlimit="10" stroke-width="4.583" d="M915.5 1635.5h364v122h-364z"/><text fill="#00c" font-family="Kaiti SC,Kaiti SC_MSFontService,sans-serif" font-size="73" font-weight="900" transform="translate(949.53 1715)">物理块</text><text fill="#00c" font-family="Arial,Arial_MSFontService,sans-serif" font-size="73" font-weight="700" transform="translate(1166.78 1715)">18</text><text font-family="Kaiti SC,Kaiti SC_MSFontService,sans-serif" font-size="73" font-weight="900" transform="translate(2666.5 1833)">次级</text><text font-family="Kaiti SC,Kaiti SC_MSFontService,sans-serif" font-size="73" font-weight="900" transform="translate(2666.5 1921)">索引表</text><text font-family="Kaiti SC,Kaiti SC_MSFontService,sans-serif" font-size="73" font-weight="900" transform="translate(737.222 1835)">直接物理块</text></svg>