<svg xmlns="http://www.w3.org/2000/svg" xml:space="preserve" width="2388" height="1026" overflow="hidden"><path fill="none" stroke="#008001" stroke-miterlimit="8" stroke-width="13.75" d="M9 515C9 236.65 234.648 11 513 11s504 225.65 504 504-225.649 504-504 504S9 793.35 9 515ZM9 515h1007.76M513 11v1007.76M157 871.59l712.594-712.594M157 159l712.59 712.59"/><text fill="red" font-family="DengXian,DengXian_MSFontService,sans-serif" font-size="147" font-weight="700" transform="translate(804.054 425)">1</text><text fill="red" font-family="DengXian,DengXian_MSFontService,sans-serif" font-size="147" font-weight="700" transform="translate(592.383 231)">2</text><text fill="red" font-family="DengXian,DengXian_MSFontService,sans-serif" font-size="147" font-weight="700" transform="translate(342.54 247)">3</text><text fill="red" font-family="DengXian,DengXian_MSFontService,sans-serif" font-size="147" font-weight="700" transform="translate(166.5 442)">4</text><text fill="red" font-family="DengXian,DengXian_MSFontService,sans-serif" font-size="147" font-weight="700" transform="translate(161.119 694)">5</text><text fill="red" font-family="DengXian,DengXian_MSFontService,sans-serif" font-size="147" font-weight="700" transform="translate(352.874 832)">6</text><text fill="red" font-family="DengXian,DengXian_MSFontService,sans-serif" font-size="147" font-weight="700" transform="translate(590.466 846)">7</text><text fill="red" font-family="DengXian,DengXian_MSFontService,sans-serif" font-size="147" font-weight="700" transform="translate(783.567 697)">8</text><path fill="none" stroke="#008001" stroke-miterlimit="8" stroke-width="13.75" d="M1373 515c0-278.35 225.65-504 504-504s504 225.65 504 504-225.65 504-504 504-504-225.65-504-504ZM1373 515h1007.76M1877 11v1007.76M1521 871.59l712.594-712.594M1521 159l712.59 712.59"/><text fill="red" font-family="DengXian,DengXian_MSFontService,sans-serif" font-size="147" font-weight="700" transform="translate(2168.11 425)">1</text><text fill="red" font-family="DengXian,DengXian_MSFontService,sans-serif" font-size="147" font-weight="700" transform="translate(1956.44 231)">4</text><text fill="red" font-family="DengXian,DengXian_MSFontService,sans-serif" font-size="147" font-weight="700" transform="translate(1706.6 247)">7</text><text fill="red" font-family="DengXian,DengXian_MSFontService,sans-serif" font-size="147" font-weight="700" transform="translate(1530.56 442)">2</text><text fill="red" font-family="DengXian,DengXian_MSFontService,sans-serif" font-size="147" font-weight="700" transform="translate(1525.18 694)">5</text><text fill="red" font-family="DengXian,DengXian_MSFontService,sans-serif" font-size="147" font-weight="700" transform="translate(1716.93 832)">8</text><text fill="red" font-family="DengXian,DengXian_MSFontService,sans-serif" font-size="147" font-weight="700" transform="translate(1954.52 846)">3</text><text fill="red" font-family="DengXian,DengXian_MSFontService,sans-serif" font-size="147" font-weight="700" transform="translate(2147.62 697)">6</text></svg>