<svg xmlns="http://www.w3.org/2000/svg" xml:space="preserve" width="2635" height="1709" overflow="hidden"><path fill="#eddff0" fill-rule="evenodd" d="M402.844 94H15v121.808h387.844z"/><text fill="red" font-family="Arial,Arial_MSFontService,sans-serif" font-size="73" font-weight="700" transform="translate(47.79 173)">i</text><text fill="red" font-family="Kaiti SC,Kaiti SC_MSFontService,sans-serif" font-size="73" font-weight="900" transform="translate(65.436 173)">节点</text><text fill="red" font-family="Arial,Arial_MSFontService,sans-serif" font-size="73" font-weight="700" transform="translate(210.269 173)">(FCB)</text><text fill="#00f" font-family="Arial,Arial_MSFontService,sans-serif" font-size="55" font-weight="400" transform="translate(1869.59 107)">•</text><text fill="#00f" font-family="Arial,Arial_MSFontService,sans-serif" font-size="55" font-weight="400" transform="translate(1909.58 107)">•</text><text fill="#00f" font-family="Arial,Arial_MSFontService,sans-serif" font-size="55" font-weight="400" transform="translate(1949.57 107)">•</text><path fill="none" stroke="#909" stroke-linejoin="round" stroke-miterlimit="10" stroke-width="10.313" d="M1321 512h292.91M1321 570.273h292.91M1321 628.591h292.91M1321 686.909h292.91m-292.91-.092h292.93V454H1321z"/><text fill="#00f" font-family="Kaiti SC,Kaiti SC_MSFontService,sans-serif" font-size="64" font-weight="900" transform="translate(1311.71 428)">一级索引表</text><text fill="#00f" font-family="Kaiti SC,Kaiti SC_MSFontService,sans-serif" font-size="73" font-weight="900" transform="translate(297.6 511)">直接</text><text fill="#00f" font-family="Kaiti SC,Kaiti SC_MSFontService,sans-serif" font-size="73" font-weight="900" transform="translate(297.6 599)">盘块</text><path fill="none" stroke="#909" stroke-linejoin="round" stroke-miterlimit="10" stroke-width="3.437" d="m563.5 825.362-19.942-10.81-7.994-12.382-6.174-16.027-3.98-18.917-1.41-21.053V595.167l-1.41-21.057-3.98-18.926-6.175-16.037-7.993-12.393-19.942-10.823 10.505-2.828 17.43-20.37 6.175-16.035 3.98-18.93 1.41-21.073V285.736l1.41-21.073 3.98-18.93 6.174-16.035 7.994-12.386 9.437-7.983L563.5 206.5"/><path fill="none" stroke="#909" stroke-linejoin="round" stroke-miterlimit="10" stroke-width="10.313" d="M1051 127.849h292.93V46H1051z"/><text fill="#00f" font-family="Kaiti SC,Kaiti SC_MSFontService,sans-serif" font-size="73" font-weight="900" transform="translate(1079.24 104)">数据块</text><path fill="#909" fill-rule="evenodd" d="M1844.59 659.631h-21.3l-.2 10.231zm6.27-2.982-27.22-14.314-.21 10.327-258.29-5.051-.11 5.051-.03 1.831 258.29 5.051h21.49zm0-235.813L1820.84 414l2.46 10.042-247.8 60.84 1.65 6.652 247.79-60.793 2.46 10.006 20.97-17.801z"/><path fill="none" stroke="#909" stroke-linejoin="round" stroke-miterlimit="10" stroke-width="10.313" d="M1155 925h292.91M1155 1041.59h292.91M1155 1099.91h292.91m-292.91-.09h292.93V867H1155z"/><text fill="#00f" font-family="Kaiti SC,Kaiti SC_MSFontService,sans-serif" font-size="64" font-weight="900" transform="translate(1115.13 844)">二级索引表</text><path fill="none" stroke="#909" stroke-linejoin="round" stroke-miterlimit="10" stroke-width="10.313" d="M804 1338h292.91M804 1454.61h292.91M804 1512.92h292.91m-292.91-.1h292.93V1279H804z"/><text fill="#00f" font-family="Kaiti SC,Kaiti SC_MSFontService,sans-serif" font-size="64" font-weight="900" transform="translate(760.929 1251)">三级索引表</text><path fill="none" stroke="#909" stroke-linejoin="round" stroke-miterlimit="10" stroke-width="10.313" d="M1636 925h292.91M1636 1041.59h292.91M1636 1099.91h292.91m-292.91-.09h292.93V867H1636z"/><path fill="#909" fill-rule="evenodd" d="m1636.29 866.64-.42-.14-28.78-9.506 1.47 10.166L1388 899.05l1.01 6.77 220.54-31.85 1.49 10.18zm615.66-58.194L2221.89 802l2.55 9.961-341.23 87.179 1.69 6.63 341.25-87.18 2.57 9.97 20.48-17.737z"/><text fill="#00f" font-family="Arial,Arial_MSFontService,sans-serif" font-size="55" font-weight="400" transform="translate(1486.7 987)">•</text><text fill="#00f" font-family="Arial,Arial_MSFontService,sans-serif" font-size="55" font-weight="400" transform="translate(1526.69 987)">•</text><text fill="#00f" font-family="Arial,Arial_MSFontService,sans-serif" font-size="55" font-weight="400" transform="translate(1566.68 987)">•</text><text fill="#00f" font-family="Arial,Arial_MSFontService,sans-serif" font-size="55" font-weight="400" transform="translate(2049.9 951)">•</text><text fill="#00f" font-family="Arial,Arial_MSFontService,sans-serif" font-size="55" font-weight="400" transform="translate(2089.89 951)">•</text><text fill="#00f" font-family="Arial,Arial_MSFontService,sans-serif" font-size="55" font-weight="400" transform="translate(2129.88 951)">•</text><path fill="none" stroke="#909" stroke-linejoin="round" stroke-miterlimit="10" stroke-width="10.313" d="M1344 1284h291.95M1344 1400.62h291.95m-291.95 58.3h291.95m-291.95-.1h291.93V1226H1344z"/><path fill="#909" fill-rule="evenodd" d="m1316.7 1230.85-247.7 81.49 2.15 6.55 247.67-81.51zm23.23-1.43h-18.87l2.1 6.53-4.34 1.43 3.2 9.85z"/><path fill="#909" fill-rule="evenodd" d="m1321.06 1229.42-4.36 1.43 2.12 6.53 4.34-1.43z"/><path fill="#909" fill-rule="evenodd" d="m1313.5 1221 3.2 9.85 4.36-1.43h18.87l3.93-3.91z"/><path fill="none" stroke="#909" stroke-linejoin="round" stroke-miterlimit="10" stroke-width="10.313" d="M1858 1230h292.95M1858 1346.63h292.95M1858 1404.94h292.95m-292.95-.12h292.93V1172H1858z"/><path fill="#909" fill-rule="evenodd" d="m1056.37 1076.69-2.75-16.95-5.18-14.2-7.2-14.2-8.71-13.28-9.72-11.91-10.27-9.62-16.41-10.54-19.07-6.41-21.32-3.21-15.217-.91-15.679-.46-32.136.92.146 5.49.037 1.38 32.045-.92 15.495.46 14.759.91 13.94 1.84 18.8 5.04 15.67 8.24 14.26 12.83 9.22 10.99 8.34 12.83 6.83 13.28 4.81 13.28 2.41 15.12.02.46-4.54 16.94-10.81 13.29-16.6 12.37-6.78 3.66-7.39 4.12-7.93 3.67-8.48 3.66-8.98 3.21-9.54 3.66-10.04 3.21-10.496 3.2-10.957 2.75-5.776 1.83-6.189.92-6.647 1.38-7.106 1.37-7.381.92-41.305 4.58-90.404 6.87-8.664.91-39.472 4.58-13.524 2.75-16.962 4.12-12.882 5.96-3.622 1.84-3.3 2.29-3.026 2.74-2.751 2.29-2.475 2.75-2.201 2.75-1.971 2.74-1.65 3.21-1.467 2.75-1.238 3.21-1.696 5.95-1.009 5.96-.229 5.95.335 5.5 3.928 17.41 6.235 13.28 11.645 10.53 17.649 8.25 13.57 4.58 13.937 3.66 13.661 2.75 6.358 1.38 5.882.91 5.318.92 4.676.45 4.218.46h7.885l3.667-.46 3.439-.91 3.575-.92h.321l.752-.45 5.345 8.7 10.751-16.95 5.524-8.7-30.624 2.29 5.437 8.86-2.319.76-6.097.91h-7.06l-3.943-.46-4.538-.45-5.227-.92-5.776-.92-6.235-1.37-6.509-.92-6.739-1.83-13.662-3.21-6.647-2.29-6.418-2.29-6.006-2.29-5.455-2.74-4.814-2.29-4.126-2.75-1.742-1.83-1.421-1.38-7.931-14.65-3.576-15.12-.366-5.04.183-5.5 4.493-15.57 1.421-2.29 1.65-2.75 1.834-2.29 2.155-2.29 2.383-2.29 2.613-1.83 2.934-2.29 3.255-1.84 3.576-1.82 3.851-1.84 4.309-1.37 4.951-1.84 5.41-1.37 5.914-1.38 6.372-.91 6.785-1.38 14.807-1.83 7.794-1.37 8.16-.46 16.962-1.83 72.525-5.5 17.925-1.83 8.756-.46 32.916-3.66 7.564-1.38 7.197-.91 19.209-4.13 21.779-6.41 19.89-6.87 9.26-3.21 16.87-7.78 14.72-8.25 12.47-8.7 13.98-14.2 7.02-13.28 1.59-11.91zm129.28 437.87-2.91-2.56-20.15-17.78-2.65 9.97-108.57-28.83-1.79 6.65 108.59 28.81-2.64 9.97zm563.23-50.45-2.9-2.56-20.16-17.78-2.65 9.96-108.56-28.82-1.79 6.64 108.59 28.83-2.65 9.95zm112.64-292.6-30.53-3.71 3.47 9.7-225.67 80.44 2.33 6.47 225.65-80.46 3.48 9.73 17.01-17.73zm179.3-77.37-25.54-17.13-1.3 10.19-129.49-16.65-.87 6.83 129.48 16.65-1.3 10.24 27.7-9.67z"/><path fill="none" stroke="#909" stroke-linejoin="round" stroke-miterlimit="10" stroke-width="10.313" d="M1851 371h293v82h-293z"/><text fill="#00f" font-family="Kaiti SC,Kaiti SC_MSFontService,sans-serif" font-size="73" font-weight="900" transform="translate(1882.52 433)">数据块</text><path fill="none" stroke="#909" stroke-linejoin="round" stroke-miterlimit="10" stroke-width="10.313" d="M1851 623h293v82h-293z"/><text fill="#00f" font-family="Kaiti SC,Kaiti SC_MSFontService,sans-serif" font-size="73" font-weight="900" transform="translate(1889.16 685)">数据块</text><path fill="none" stroke="#909" stroke-linejoin="round" stroke-miterlimit="10" stroke-width="10.313" d="M2252 781h293v82h-293z"/><text fill="#00f" font-family="Kaiti SC,Kaiti SC_MSFontService,sans-serif" font-size="73" font-weight="900" transform="translate(2285.3 843)">数据块</text><path fill="none" stroke="#909" stroke-linejoin="round" stroke-miterlimit="10" stroke-width="10.313" d="M2337 1128h292v82h-292z"/><text fill="#00f" font-family="Kaiti SC,Kaiti SC_MSFontService,sans-serif" font-size="73" font-weight="900" transform="translate(2362.44 1190)">数据块</text><path fill="#909" fill-rule="evenodd" d="M2309.18 1163.19 2105 1204.16l1.33 6.79 204.2-40.92zm26.27-.9h-21.76l1.33 6.84-4.49.9 2.01 10.19z"/><path fill="#909" fill-rule="evenodd" d="m2313.69 1162.29-4.51.9 1.35 6.84 4.49-.9z"/><path fill="#909" fill-rule="evenodd" d="m2307.17 1153 2.01 10.19 4.51-.9h21.76l1.41-1.11z"/><text fill="#00f" font-family="Arial,Arial_MSFontService,sans-serif" font-size="55" font-weight="400" transform="translate(1135.71 1382)">•</text><text fill="#00f" font-family="Arial,Arial_MSFontService,sans-serif" font-size="55" font-weight="400" transform="translate(1175.7 1382)">•</text><text fill="#00f" font-family="Arial,Arial_MSFontService,sans-serif" font-size="55" font-weight="400" transform="translate(1215.69 1382)">•</text><text fill="#00f" font-family="Arial,Arial_MSFontService,sans-serif" font-size="55" font-weight="400" transform="translate(1676.36 1346)">•</text><text fill="#00f" font-family="Arial,Arial_MSFontService,sans-serif" font-size="55" font-weight="400" transform="translate(1716.35 1346)">•</text><text fill="#00f" font-family="Arial,Arial_MSFontService,sans-serif" font-size="55" font-weight="400" transform="translate(1756.34 1346)">•</text><text fill="#00f" font-family="Arial,Arial_MSFontService,sans-serif" font-size="55" font-weight="400" transform="translate(2213.34 1310)">•</text><text fill="#00f" font-family="Arial,Arial_MSFontService,sans-serif" font-size="55" font-weight="400" transform="translate(2253.33 1310)">•</text><text fill="#00f" font-family="Arial,Arial_MSFontService,sans-serif" font-size="55" font-weight="400" transform="translate(2293.32 1310)">•</text><text fill="#00f" font-family="Arial,Arial_MSFontService,sans-serif" font-size="55" font-weight="400" transform="translate(1934.86 556)">•</text><text fill="#00f" font-family="Arial,Arial_MSFontService,sans-serif" font-size="55" font-weight="400" transform="translate(1974.85 556)">•</text><text fill="#00f" font-family="Arial,Arial_MSFontService,sans-serif" font-size="55" font-weight="400" transform="translate(2014.84 556)">•</text><path fill="#909" fill-rule="evenodd" d="m1050.81 84.812-29.74 7.925 6.83 7.71-150.596 133.156 4.536 5.177 150.63-133.188 6.84 7.714 6.41-15.896zm90.02 781.518-29.96-6.73 2.47 9.99-213.494 52.81 1.649 6.69L1115 876.27l2.47 9.99 20.84-17.78zm180.15-412.609-29.14 9.757 7.3 7.284L898.242 872.88l4.902 4.86L1304 475.613l7.32 7.289 5.09-15.392zm212.95-368.863-28.03 12.598 8 6.528-48.92 59.896-9.44 13.056-8.75 14.339-4.3 7.513-4.4 7.604-9.12 15.163-10.08 14.66-11.5 13.468-13.42 11.773-15.95 9.528-18.73 7.422-21.21 5.863-22.69 4.398-24.64 3.253-26.07 2.29-41.19 2.199-57.5 1.695-15.03.092-13.12-.092-15.62-.321h-.78l-33.66-1.191-33.12-1.741-103.5-7.604-35.141-2.978-.587 6.689 70.138 5.955 68.63 4.81 33.22 1.741 33.8 1.191h1.16l28.53.366h12.97l45.63-1.237 28.23-1.145 13.79-.733 26.89-1.924 17.56-1.786 8.05-.962 24.24-3.848 22.45-5.223 20.57-6.78 18.28-8.749 15.67-11.453 13.19-13.422 11.23-14.751 9.8-15.392 8.98-15.392 4.31-7.513 4.31-7.193 4.35-6.963 4.44-6.459 4.58-6.047 9.35-11.407 8.93-10.994 30.51-37.326 7.98 6.496 3.23-14.384zm8.43 1025.912-2.9-2.56-20.14-17.78-2.64 9.96-108.51-28.83-1.79 6.64 108.53 28.83-2.65 9.97z"/><path fill="#909" fill-rule="evenodd" d="m2103.84 68-30.52 3.665 5.71 8.64-1.13.751-11.72 10.216-10.72 14.109-6.88 15.392-3.53 16.125-1.78 13.972-1.7 20.432-.78 10.719-1.6 21.668-2.24 21.119-3.53 19.515-5.27 16.721-5.45 10.582-1.7 3.344-1.46 3.252-1.29 3.115-2.06 5.727-1.74 5.176-1.6 4.627-8.43 13.193-13.52 8.155-13.38 4.672-18.37 4.627-15.44 3.069-18.37 3.024-21.12 2.244-12.9.55h-2.06l-9.42.138-27.17-.55-29.59-1.42-39.12-2.52-61.45-3.985-18.05-.962-36.79-1.42-18.69-.413-18.79-.091-18.92.229-20.55.595h.63l-18.06.871-19.01 1.374-19.38 1.97h.09l-18.46 2.336-18.7 2.978-18.55 3.527-18.45 4.306-17.89 4.902-17.77 5.635-17.37 6.459-17.04 7.284-16.77 7.971-16.77 8.566-16.76 9.162-16.77 9.666-16.73 10.261-16.76 10.766-16.73 11.223-16.67 11.773-16.77 12.186-16.73 12.644-16.72 13.055-16.72 13.468-16.68 13.835-16.72 14.201-16.73 14.522-16.72 14.934-16.67 15.163-16.68 15.484-16.72 15.759-16.68 15.942-16.68 16.216-16.72 16.446-33.4 33.396-33.35 34.037-33.356 34.449L856 822.492l4.948 4.764 66.754-69.723 33.358-34.449 33.3-33.991 33.36-33.35 33.31-32.617 16.67-15.896 16.68-15.713 16.63-15.438 16.63-15.163 16.67-14.842 16.64-14.472 16.68-14.159 16.63-13.789 16.63-13.377 16.68-13.01 16.63-12.552 16.63-12.14 16.63-11.681 16.58-11.178 16.64-10.674 16.63-10.169 16.63-9.62 16.58-9.025 16.59-8.475 16.58-7.925 16.73-7.146 17.18-6.322 17.41-5.543 17.77-4.856 18.05-4.169 18.28-3.527 18.22-2.886h-.07l18.97-2.428 18.73-1.878 18.79-1.329 18.87-.962 18.84-.55 39.74-.041 16.33.362 36.66 1.42 17.96.962 100.47 6.505 16.05.825h.15l13.58.595 17.13.504h20.01l14.95-.687 16.68-1.557 14.84-2.199 13.18-2.382 3.62-.688 14.59-3.16 17.13-4.765 16.13-6.871 12.14-9.895 8.11-16.675 1.79-5.268 2.01-5.543 1.19-2.84 1.38-3.024 1.56-3.069 1.78-3.253 1.93-3.573 7.47-21.76 3.71-20.248 2.33-21.576 1.61-21.852.78-10.719 1.64-20.248 1.75-13.652 3.39-15.163 6.32-14.063 9.76-12.781 10.81-9.346.7-.467 5.67 8.576 9.72-16.858zm159.02 1345.51-2.11-1.74-21.67-17.77-2.28 10.05-130.81-29.77-1.51 6.7 130.8 29.77-2.29 10.06z"/><text fill="#00f" font-family="Kaiti SC,Kaiti SC_MSFontService,sans-serif" font-size="64" font-weight="900" transform="translate(1303.78 1207)">二级索引表</text><text fill="#00f" font-family="Kaiti SC,Kaiti SC_MSFontService,sans-serif" font-size="64" font-weight="900" transform="translate(1819.77 1162)">一级索引表</text><text fill="#00f" font-family="Kaiti SC,Kaiti SC_MSFontService,sans-serif" font-size="64" font-weight="900" transform="translate(1607.15 841)">一级索引表</text><path fill="none" stroke="#909" stroke-linejoin="round" stroke-miterlimit="10" stroke-width="10.313" d="M567.054 197.098h366.437"/><path fill="none" stroke="#909" stroke-linejoin="round" stroke-miterlimit="10" stroke-width="3.438" d="M567.054 250.952h366.437m-366.437 53.854h366.437M567.054 358.66h366.437m-366.437 53.854h366.437m-366.437 53.625h366.437m-366.437 53.855h366.437m-366.437 53.854h366.437m-366.437 53.854h366.437m-366.437 53.854h366.437M567.054 735.41h366.437m-366.437 53.854h366.437m-366.437 53.625h366.437M567.054 896.74h366.437M567.054 950.6h366.437"/><path fill="none" stroke="#909" stroke-linejoin="round" stroke-miterlimit="10" stroke-width="10.313" d="M567.054 1004.45h366.437M572.21 86.525V1127.17M928.335 86.525V1127.17M567.054 91.681h366.437M567.054 1122.01h366.437"/><text fill="#00f" font-family="Arial,Arial_MSFontService,sans-serif" font-size="48" font-weight="400" transform="translate(716.585 186)">•</text><text fill="#00f" font-family="Arial,Arial_MSFontService,sans-serif" font-size="48" font-weight="400" transform="translate(751.189 186)">•</text><text fill="#00f" font-family="Arial,Arial_MSFontService,sans-serif" font-size="48" font-weight="400" transform="translate(785.564 186)">•</text><text fill="#00f" font-family="Kaiti SC,Kaiti SC_MSFontService,sans-serif" font-size="48" font-weight="900" transform="translate(632.023 235)">物理块指针</text><text fill="#00f" font-family="Arial,Arial_MSFontService,sans-serif" font-size="48" font-weight="700" transform="translate(871.502 235)">1</text><text fill="#00f" font-family="Kaiti SC,Kaiti SC_MSFontService,sans-serif" font-size="48" font-weight="900" transform="translate(635.231 290)">物理块指针</text><text fill="#00f" font-family="Arial,Arial_MSFontService,sans-serif" font-size="48" font-weight="700" transform="translate(874.71 290)">2</text><text fill="#00f" font-family="Kaiti SC,Kaiti SC_MSFontService,sans-serif" font-size="48" font-weight="900" transform="translate(635.231 342)">物理块指针</text><text fill="#00f" font-family="Arial,Arial_MSFontService,sans-serif" font-size="48" font-weight="700" transform="translate(874.71 342)">3</text><text fill="#00f" font-family="Kaiti SC,Kaiti SC_MSFontService,sans-serif" font-size="48" font-weight="900" transform="translate(635.231 396)">物理块指针</text><text fill="#00f" font-family="Arial,Arial_MSFontService,sans-serif" font-size="48" font-weight="700" transform="translate(874.71 396)">4</text><text fill="#00f" font-family="Kaiti SC,Kaiti SC_MSFontService,sans-serif" font-size="48" font-weight="900" transform="translate(635.231 450)">物理块指针</text><text fill="#00f" font-family="Arial,Arial_MSFontService,sans-serif" font-size="48" font-weight="700" transform="translate(874.71 450)">5</text><text fill="#00f" font-family="Kaiti SC,Kaiti SC_MSFontService,sans-serif" font-size="48" font-weight="900" transform="translate(635.231 503)">物理块指针</text><text fill="#00f" font-family="Arial,Arial_MSFontService,sans-serif" font-size="48" font-weight="700" transform="translate(874.71 503)">6</text><text fill="#00f" font-family="Kaiti SC,Kaiti SC_MSFontService,sans-serif" font-size="48" font-weight="900" transform="translate(635.231 560)">物理块指针</text><text fill="#00f" font-family="Arial,Arial_MSFontService,sans-serif" font-size="48" font-weight="700" transform="translate(874.71 560)">7</text><text fill="#00f" font-family="Kaiti SC,Kaiti SC_MSFontService,sans-serif" font-size="48" font-weight="900" transform="translate(632.939 614)">物理块指针</text><text fill="#00f" font-family="Arial,Arial_MSFontService,sans-serif" font-size="48" font-weight="700" transform="translate(872.419 614)">8</text><text fill="#00f" font-family="Kaiti SC,Kaiti SC_MSFontService,sans-serif" font-size="48" font-weight="900" transform="translate(633.856 666)">物理块指针</text><text fill="#00f" font-family="Arial,Arial_MSFontService,sans-serif" font-size="48" font-weight="700" transform="translate(873.335 666)">9</text><text fill="#00f" font-family="Kaiti SC,Kaiti SC_MSFontService,sans-serif" font-size="48" font-weight="900" transform="translate(619.304 719)">物理块指针</text><text fill="#00f" font-family="Arial,Arial_MSFontService,sans-serif" font-size="48" font-weight="700" transform="translate(858.783 719)">10</text><text fill="#00f" font-family="Kaiti SC,Kaiti SC_MSFontService,sans-serif" font-size="50" font-weight="900" transform="translate(606.929 773)">物理块指针</text><text fill="#00f" font-family="Arial,Arial_MSFontService,sans-serif" font-size="50" font-weight="700" transform="translate(857.866 773)">11</text><text fill="#00f" font-family="Kaiti SC,Kaiti SC_MSFontService,sans-serif" font-size="50" font-weight="900" transform="translate(606.929 827)">物理块指针</text><text fill="#00f" font-family="Arial,Arial_MSFontService,sans-serif" font-size="50" font-weight="700" transform="translate(857.866 827)">12</text><text fill="#00f" font-family="Kaiti SC,Kaiti SC_MSFontService,sans-serif" font-size="50" font-weight="900" transform="translate(604.408 881)">物理块指针</text><text fill="#00f" font-family="Arial,Arial_MSFontService,sans-serif" font-size="50" font-weight="700" transform="translate(854.2 881)">13</text><text fill="#00f" font-family="Kaiti SC,Kaiti SC_MSFontService,sans-serif" font-size="50" font-weight="900" transform="translate(601.2 934)">物理块指针</text><text fill="#00f" font-family="Arial,Arial_MSFontService,sans-serif" font-size="50" font-weight="700" transform="translate(852.137 934)">14</text><text fill="#00f" font-family="Kaiti SC,Kaiti SC_MSFontService,sans-serif" font-size="50" font-weight="900" transform="translate(602.116 986)">物理块指针</text><text fill="#00f" font-family="Arial,Arial_MSFontService,sans-serif" font-size="50" font-weight="700" transform="translate(851.908 986)">15</text><text fill="#00f" font-family="Arial,Arial_MSFontService,sans-serif" font-size="50" font-weight="400" transform="translate(692.752 1063)">•</text><text fill="#00f" font-family="Arial,Arial_MSFontService,sans-serif" font-size="50" font-weight="400" transform="translate(728.846 1063)">•</text><text fill="#00f" font-family="Arial,Arial_MSFontService,sans-serif" font-size="50" font-weight="400" transform="translate(764.71 1063)">•</text><path fill="none" stroke="#909" stroke-linejoin="round" stroke-miterlimit="10" stroke-width="10.313" d="M1537 34h293v82h-293z"/><text fill="#00f" font-family="Kaiti SC,Kaiti SC_MSFontService,sans-serif" font-size="73" font-weight="900" transform="translate(1570.16 92)">数据块</text><path fill="none" stroke="#909" stroke-linejoin="round" stroke-miterlimit="10" stroke-width="10.313" d="M2107 34h293v82h-293z"/><text fill="#00f" font-family="Kaiti SC,Kaiti SC_MSFontService,sans-serif" font-size="73" font-weight="900" transform="translate(2140.33 92)">数据块</text><path fill="none" stroke="#909" stroke-linejoin="round" stroke-miterlimit="10" stroke-width="10.313" d="M804 1396h293v58H804z"/><text fill="#00f" font-family="Arial,Arial_MSFontService,sans-serif" font-size="55" font-weight="400" transform="translate(876.887 1443)">•</text><text fill="#00f" font-family="Arial,Arial_MSFontService,sans-serif" font-size="55" font-weight="400" transform="translate(916.877 1443)">•</text><text fill="#00f" font-family="Arial,Arial_MSFontService,sans-serif" font-size="55" font-weight="400" transform="translate(956.87 1443)">•</text><path fill="none" stroke="#909" stroke-linejoin="round" stroke-miterlimit="10" stroke-width="10.313" d="M1344 1342h292v59h-292z"/><text fill="#00f" font-family="Arial,Arial_MSFontService,sans-serif" font-size="55" font-weight="400" transform="translate(1435.96 1389)">•</text><text fill="#00f" font-family="Arial,Arial_MSFontService,sans-serif" font-size="55" font-weight="400" transform="translate(1475.95 1389)">•</text><text fill="#00f" font-family="Arial,Arial_MSFontService,sans-serif" font-size="55" font-weight="400" transform="translate(1515.94 1389)">•</text><path fill="none" stroke="#909" stroke-linejoin="round" stroke-miterlimit="10" stroke-width="10.313" d="M1858 1288h293v59h-293z"/><text fill="#00f" font-family="Arial,Arial_MSFontService,sans-serif" font-size="55" font-weight="400" transform="translate(1942.7 1335)">•</text><text fill="#00f" font-family="Arial,Arial_MSFontService,sans-serif" font-size="55" font-weight="400" transform="translate(1982.68 1335)">•</text><text fill="#00f" font-family="Arial,Arial_MSFontService,sans-serif" font-size="55" font-weight="400" transform="translate(2022.67 1335)">•</text><text fill="#00f" font-family="Arial,Arial_MSFontService,sans-serif" font-size="55" font-weight="400" transform="translate(1413.55 622)">•</text><text fill="#00f" font-family="Arial,Arial_MSFontService,sans-serif" font-size="55" font-weight="400" transform="translate(1453.54 622)">•</text><text fill="#00f" font-family="Arial,Arial_MSFontService,sans-serif" font-size="55" font-weight="400" transform="translate(1493.53 622)">•</text><path fill="none" stroke="#909" stroke-linejoin="round" stroke-miterlimit="10" stroke-width="10.313" d="M1155 983h293v59h-293z"/><text fill="#00f" font-family="Arial,Arial_MSFontService,sans-serif" font-size="55" font-weight="400" transform="translate(1232.46 1026)">•</text><text fill="#00f" font-family="Arial,Arial_MSFontService,sans-serif" font-size="55" font-weight="400" transform="translate(1272.45 1026)">•</text><text fill="#00f" font-family="Arial,Arial_MSFontService,sans-serif" font-size="55" font-weight="400" transform="translate(1312.44 1026)">•</text><path fill="none" stroke="#909" stroke-linejoin="round" stroke-miterlimit="10" stroke-width="10.313" d="M1636 983h293v59h-293z"/><text fill="#00f" font-family="Arial,Arial_MSFontService,sans-serif" font-size="55" font-weight="400" transform="translate(1721.23 1026)">•</text><text fill="#00f" font-family="Arial,Arial_MSFontService,sans-serif" font-size="55" font-weight="400" transform="translate(1761.22 1026)">•</text><text fill="#00f" font-family="Arial,Arial_MSFontService,sans-serif" font-size="55" font-weight="400" transform="translate(1801.21 1026)">•</text><path fill="none" stroke="#6f2f9f" stroke-linejoin="round" stroke-miterlimit="10" stroke-width="4.125" d="m554.954 1009.82-14.988-.51-12.237-1.37-8.25-2.04-3.025-2.48v-71.13l-3.018-2.49-8.234-2.03-12.222-1.38-14.98-.5 14.98-.5 12.222-1.37 8.234-2.03 3.018-2.5v-71.136l3.025-2.477 8.25-2.02 12.237-1.359 14.988-.498"/><text fill="#00f" font-family="Kaiti SC,Kaiti SC_MSFontService,sans-serif" font-size="73" font-weight="900" transform="translate(311.02 918)">间接</text><text fill="#00f" font-family="Kaiti SC,Kaiti SC_MSFontService,sans-serif" font-size="73" font-weight="900" transform="translate(311.02 1006)">盘块</text><path fill="#864395" fill-rule="evenodd" d="M484.974 149.596H403v10.313h89.983l2.289-2.292v-2.842h-10.298z"/><path fill="#864395" fill-rule="evenodd" d="M757.946 6H487.308l-2.334 2.337v146.438l5.172-5.179h5.126V16.313h-5.126l5.126-5.134h264.962V8.337z"/><path fill="#864395" fill-rule="evenodd" d="M495.272 149.596h-5.126l-5.172 5.179h10.298zm241.665-99.871-4.897 2.888-.824 3.162 1.419 2.475 22.473 38.546 5.959-10.221h-11.131V67.51l-8.422-14.485-1.419-2.475z"/><path fill="#864395" fill-rule="evenodd" d="m749.957 67.51-.021 19.065h10.298v-2.613h-9.566l4.434-7.626z"/><path fill="#864395" fill-rule="evenodd" d="m773.279 49.725-3.159.825-1.464 2.475-8.422 14.485v19.065h.833l16.514-28.325L779 55.775l-.824-3.162-2.472-1.421zm-18.177 26.611-4.434 7.626h8.88z"/><path fill="#864395" fill-rule="evenodd" d="m760.234 67.51-5.132 8.826 4.446 7.626h.686zm-10.298-56.331.021 56.331 5.145 8.826 5.132-8.826V16.313h-5.126zm-254.664 0-5.126 5.134h5.126zm254.664 0H495.272v5.134h254.664z"/><path fill="#864395" fill-rule="evenodd" d="M760.234 11.179h-10.298l5.172 5.134h5.126z"/><path fill="none" stroke="#864395" stroke-linejoin="round" stroke-miterlimit="10" stroke-width="6.875" d="m347.495 1010.5-27.023-.73-23.471-2.02-18.509-3.07-16.497-8.39V622.187l-4.359-4.489-12.137-3.902-18.507-3.078-23.469-2.02-27.023-.725 27.023-.726 23.469-2.017 18.507-3.071 12.137-3.888 4.359-4.466V220.668l4.359-4.484 12.138-3.89 18.509-3.065 23.471-2.008 27.023-.721"/><text fill="red" font-family="Kaiti SC,Kaiti SC_MSFontService,sans-serif" font-size="73" font-weight="900" transform="translate(76.592 493)">主</text><text fill="red" font-family="Kaiti SC,Kaiti SC_MSFontService,sans-serif" font-size="73" font-weight="900" transform="translate(76.592 587)">索</text><text fill="red" font-family="Kaiti SC,Kaiti SC_MSFontService,sans-serif" font-size="73" font-weight="900" transform="translate(76.592 681)">引</text><text fill="red" font-family="Kaiti SC,Kaiti SC_MSFontService,sans-serif" font-size="73" font-weight="900" transform="translate(76.592 775)">表</text><path fill="#fdefd6" stroke="#852a49" stroke-linejoin="round" stroke-miterlimit="10" stroke-width="6.875" d="M820.5 1566.5h1716v104h-1716z"/><text fill="#c00000" font-family="Lantinghei SC,Lantinghei SC_MSFontService,sans-serif" font-size="73" font-weight="200" transform="translate(1330.56 1645)">12+256+256</text><text fill="#c00000" font-family="Lantinghei SC,Lantinghei SC_MSFontService,sans-serif" font-size="48" font-weight="200" transform="translate(1692.07 1626)">2</text><text fill="#c00000" font-family="Lantinghei SC,Lantinghei SC_MSFontService,sans-serif" font-size="73" font-weight="200" transform="translate(1713.04 1645)">+256</text><text fill="#c00000" font-family="Lantinghei SC,Lantinghei SC_MSFontService,sans-serif" font-size="48" font-weight="200" transform="translate(1862.22 1626)">3</text><text fill="#c00000" font-family="Lantinghei SC,Lantinghei SC_MSFontService,sans-serif" font-size="73" font-weight="200" transform="translate(1883.19 1645)">个块</text><text font-family="SimHei,SimHei_MSFontService,sans-serif" font-size="110" font-weight="700" transform="translate(109.109 1427)">UNIX</text><text font-family="SimHei,SimHei_MSFontService,sans-serif" font-size="110" font-weight="700" transform="translate(331.4 1427)">三级</text><text font-family="SimHei,SimHei_MSFontService,sans-serif" font-size="110" font-weight="700" transform="translate(109.109 1559)">索引结构</text></svg>