<svg xmlns="http://www.w3.org/2000/svg" xml:space="preserve" width="2333" height="673" overflow="hidden"><text font-family="DengXian,DengXian_MSFontService,sans-serif" font-size="110" font-weight="700" transform="translate(847.1 138)">管道</text><text font-family="DengXian,DengXian_MSFontService,sans-serif" font-size="110" font-weight="700" transform="translate(1067.1 138)">PIPE</text><path fill="#f2cefe" fill-rule="evenodd" d="M1740.75 315c-12.84 0-23.25 41.638-23.25 93s10.41 93 23.25 93H611.25c-12.841 0-23.25-41.637-23.25-93s10.409-93 23.25-93Z"/><path fill="#f7e2fe" fill-rule="evenodd" d="M1740.75 315c12.84 0 23.25 41.638 23.25 93s-10.41 93-23.25 93-23.25-41.637-23.25-93 10.41-93 23.25-93"/><path fill="none" stroke="#172c51" stroke-miterlimit="8" stroke-width="10.313" d="M1740.75 501c-12.84 0-23.25-41.637-23.25-93s10.41-93 23.25-93 23.25 41.638 23.25 93-10.41 93-23.25 93H611.25c-12.841 0-23.25-41.637-23.25-93s10.409-93 23.25-93h1129.5"/><path fill="#a2e19e" fill-rule="evenodd" stroke="#172c51" stroke-miterlimit="8" stroke-width="4.583" d="M5.5 362h363v-46.5l93 93-93 93V455H5.5Z"/><text font-family="DengXian,DengXian_MSFontService,sans-serif" font-size="83" font-weight="700" transform="translate(168.369 435)">写</text><text font-family="DengXian,DengXian_MSFontService,sans-serif" font-size="83" font-weight="700" transform="translate(127.247 601)">进程</text><text font-family="DengXian,DengXian_MSFontService,sans-serif" font-size="83" font-weight="700" transform="translate(292.247 601)">1</text><path fill="#a2e19e" fill-rule="evenodd" stroke="#172c51" stroke-miterlimit="8" stroke-width="4.583" d="M1870.5 362h362v-46.5l93 93-93 93V455h-362Z"/><text font-family="DengXian,DengXian_MSFontService,sans-serif" font-size="83" font-weight="700" transform="translate(2032.85 435)">读</text><text font-family="DengXian,DengXian_MSFontService,sans-serif" font-size="83" font-weight="700" transform="translate(1990.57 594)">进程</text><text font-family="DengXian,DengXian_MSFontService,sans-serif" font-size="83" font-weight="700" transform="translate(2155.57 594)">2</text></svg>