<svg xmlns="http://www.w3.org/2000/svg" xml:space="preserve" width="2328" height="1701" overflow="hidden"><path fill="#f5e1ec" fill-rule="evenodd" d="M606.817 526H9v1052.91h597.817z"/><path fill="none" stroke="#852a49" stroke-linejoin="round" stroke-miterlimit="10" stroke-width="4.583" d="M9.5 1579.41h597.817V526.5H9.5z"/><text font-family="Hiragino Sans GB W6,Hiragino Sans GB W6_MSFontService,sans-serif" font-size="83" font-weight="600" transform="translate(94.315 501)">发送进程</text><text font-family="Arial,Arial_MSFontService,sans-serif" font-size="83" font-weight="700" transform="translate(423.399 501)">S</text><text fill="purple" font-family="Trebuchet MS,Trebuchet MS_MSFontService,sans-serif" font-size="64" font-weight="700" transform="translate(42.286 739)">send(destination,</text><text fill="purple" font-family="Trebuchet MS,Trebuchet MS_MSFontService,sans-serif" font-size="64" font-weight="700" transform="translate(256.786 816)">message)</text><text fill="purple" font-family="Trebuchet MS,Trebuchet MS_MSFontService,sans-serif" font-size="64" font-weight="700" transform="translate(42.056 1044)">message: </text><text fill="purple" font-family="Trebuchet MS,Trebuchet MS_MSFontService,sans-serif" font-size="64" font-weight="700" transform="translate(120.202 1121)">text,</text><text fill="purple" font-family="Trebuchet MS,Trebuchet MS_MSFontService,sans-serif" font-size="64" font-weight="700" transform="translate(284.629 1121)">size</text><path fill="#f5e1ec" fill-rule="evenodd" d="M2322 526h-650v1052.91h650z"/><path fill="none" stroke="#852a49" stroke-linejoin="round" stroke-miterlimit="10" stroke-width="4.583" d="M1672.5 1579.41h650V526.5h-650z"/><text font-family="Hiragino Sans GB W6,Hiragino Sans GB W6_MSFontService,sans-serif" font-size="83" font-weight="600" transform="translate(1804.81 501)">接收进程</text><text font-family="Arial,Arial_MSFontService,sans-serif" font-size="83" font-weight="700" transform="translate(2134.81 501)">R</text><text fill="purple" font-family="Trebuchet MS,Trebuchet MS_MSFontService,sans-serif" font-size="73" font-weight="700" transform="translate(1711.9 748)">receive(source,</text><text fill="purple" font-family="Trebuchet MS,Trebuchet MS_MSFontService,sans-serif" font-size="73" font-weight="700" transform="translate(1956.19 836)">message)</text><text fill="purple" font-family="Trebuchet MS,Trebuchet MS_MSFontService,sans-serif" font-size="73" font-weight="700" transform="translate(1705.71 1053)">message:</text><text fill="purple" font-family="Trebuchet MS,Trebuchet MS_MSFontService,sans-serif" font-size="73" font-weight="700" transform="translate(1794.91 1141)">text,</text><text fill="purple" font-family="Trebuchet MS,Trebuchet MS_MSFontService,sans-serif" font-size="73" font-weight="700" transform="translate(1984.31 1141)">size</text><path fill="#f1d6df" fill-rule="evenodd" d="M1490.82 332H763v1363.86h727.82z"/><path fill="none" stroke="#852a49" stroke-dasharray="30.9375 10.3125 10.3125 10.3125" stroke-linejoin="round" stroke-miterlimit="10" stroke-width="10.313" d="M763 1695.86h727.82V332H763z"/><path fill="#e4e4ff" fill-rule="evenodd" d="M1231 742H971v329.93h260z"/><path fill="none" stroke="#852a49" stroke-linejoin="round" stroke-miterlimit="10" stroke-width="4.583" d="M971.5 1072.43h260V742.5h-260z"/><text fill="#5c1f34" font-family="Trebuchet MS,Trebuchet MS_MSFontService,sans-serif" font-size="83" font-weight="400" transform="translate(1040.44 936)">……</text><path fill="#892d4e" fill-rule="evenodd" d="M1231 1027.03H971v6.88h260zm0-36.7H971v6.87h260zm0-41.245H971v6.873h260zm0-53.892H971v6.874h260zm0-41.243H971v6.874h260zm0-36.707H971v6.874h260zm0-41.243H971v6.874h260z"/><text font-family="Hiragino Sans GB W6,Hiragino Sans GB W6_MSFontService,sans-serif" font-size="64" font-weight="600" transform="translate(946.58 1639)">操作系统空间</text><text fill="#6f2f9f" font-family="Hiragino Sans GB W6,Hiragino Sans GB W6_MSFontService,sans-serif" font-size="64" font-weight="600" transform="translate(914.36 1152)">一组消息缓冲区</text><path fill="#5c1f34" fill-rule="evenodd" d="m915.13 856.877-18.54 6.322-1.42 2.918 1.84 5.379 2.93 1.413 36.14-12.307h-2.22z"/><path fill="#5c1f34" fill-rule="evenodd" d="m924.8 853.574-9.67 3.303 18.73 3.725.24-1.185h-2.67z"/><path fill="#5c1f34" fill-rule="evenodd" d="m909.34 826.233-3.26.183-1.88 2.142-1.88 2.097.19 3.236 2.11 1.914 12.54 11.044 18.72 3.725-2.02 10.028h2.22l8.83-3.009-33.42-29.491z"/><path fill="#5c1f34" fill-rule="evenodd" d="m933.17 850.711-8.37 2.863 6.63 5.843zm2.68 0h-2.68l-1.74 8.706h2.67zM556.016 775 554 785.073l361.13 71.804 9.67-3.303-7.64-6.725z"/><path fill="#5c1f34" fill-rule="evenodd" d="m917.16 846.849 7.64 6.725 8.37-2.863h2.68l.03-.137zM1259.46 903l-5.46 8.743 34.99 21.788 5.46-8.743zm61.27 38.13-5.46 8.743 8.76 5.447 5.46-8.743zm35.04 21.835-5.46 8.695 34.99 21.84 5.46-8.75zm61.27 38.125-5.46 8.75 8.76 5.45 5.46-8.75zm35.03 21.79-5.45 8.75 35.03 21.79 5.46-8.75zm61.27 38.13-5.45 8.75 8.76 5.44 5.45-8.69zm35.04 21.84-5.46 8.74 35.04 21.79 5.46-8.74zm61.32 38.13-5.46 8.74 8.71 5.45 5.46-8.74zm34.99 21.79-5.46 8.74 35.04 21.79 5.46-8.74zm61.32 38.17-5.46 8.75 8.76 5.44 5.46-8.74zm18.62 35.34-2.39 2.24-.09 2.84-.05 2.84 2.21 2.38 47.51 1.37-.54-1h-10.84l-16.22-10.08z"/><path fill="#5c1f34" fill-rule="evenodd" d="m1744.22 1216.87 16.22 10.08 1.23-1.97h-3.11l-4.11-7.81z"/><path fill="#5c1f34" fill-rule="evenodd" d="m1746.55 1185.06-2.52 1.28-2.53 1.33-.96 3.16 1.33 2.47 7.81 14.83 16.22 10.07-5.46 8.75h10.84l-21.61-40.93z"/><path fill="#5c1f34" fill-rule="evenodd" d="m1754.45 1217.17 4.11 7.81 4.73-7.55z"/><path fill="#5c1f34" fill-rule="evenodd" d="m1749.68 1208.13 4.77 9.04 8.84.26-4.73 7.55h3.11l4.23-6.78z"/><path fill="#5c1f34" fill-rule="evenodd" d="m1741 1202.73-5.46 8.74 8.68 5.4 10.23.3-4.77-9.04z"/><path fill="#fdefd6" fill-rule="evenodd" d="M971 698H581v78.814h390z"/><path fill="#f1c4ae" stroke="#852a49" stroke-linejoin="round" stroke-miterlimit="10" stroke-width="4.583" d="M1750.5 1248.5h468v175h-468z"/><text fill="#00c" font-family="Hiragino Sans GB W6,Hiragino Sans GB W6_MSFontService,sans-serif" font-size="55" font-weight="600" transform="translate(1801.09 1319)">接收进程的</text><text fill="#00c" font-family="Arial,Arial_MSFontService,sans-serif" font-size="55" font-weight="700" transform="translate(2076.09 1319)">PCB</text><text fill="#00c" font-family="Hiragino Sans GB W6,Hiragino Sans GB W6_MSFontService,sans-serif" font-size="55" font-weight="600" transform="translate(1790.78 1386)">中消息队列指针</text><text fill="#c00000" font-family="Hiragino Sans GB W6,Hiragino Sans GB W6_MSFontService,sans-serif" font-size="64" font-weight="600" transform="translate(614.743 758)">①陷入内核</text><path fill="#fdefd6" d="M555 889h390v79H555z"/><text fill="#c00000" font-family="Hiragino Sans GB W6,Hiragino Sans GB W6_MSFontService,sans-serif" font-size="64" font-weight="600" transform="translate(588.481 949)">②复制消息</text><path fill="#fdefd6" fill-rule="evenodd" d="M1724.91 1157H1291v77.82h433.91z"/><text fill="#c00000" font-family="Hiragino Sans GB W6,Hiragino Sans GB W6_MSFontService,sans-serif" font-size="64" font-weight="600" transform="translate(1346.34 1217)">③消息入队</text><path fill="#5c1f34" fill-rule="evenodd" d="m1652.3 1010.79-18.97 5.1-1.61 2.83 1.47 5.5 2.85 1.64 2.75-.77 34.7-9.34h-2.74z"/><path fill="#5c1f34" fill-rule="evenodd" d="m1662.21 1008.12-9.91 2.67 18.45 4.96.37-1.37h-2.71z"/><path fill="#5c1f34" fill-rule="evenodd" d="M1648.53 979.7h-3.26l-2.02 1.96-2.02 2.02-.05 3.25 2.02 2.01 11.83 11.94 18.38 4.94-2.66 9.93h2.74l8.51-2.29-31.45-31.75z"/><path fill="#5c1f34" fill-rule="evenodd" d="m1670.75 1005.82-8.54 2.3 6.2 6.26z"/><path fill="#5c1f34" fill-rule="evenodd" d="M1673.41 1005.82h-2.66l-2.34 8.56h2.71zM1257.66 894l-2.66 9.928 397.3 106.862 9.91-2.67-7.18-7.24z"/><path fill="#5c1f34" fill-rule="evenodd" d="m1655.03 1000.88 7.18 7.24 8.54-2.3h2.66z"/><path fill="#fdefd6" fill-rule="evenodd" d="M1898.91 877H1465v77.817h433.91z"/><text fill="#c00000" font-family="Hiragino Sans GB W6,Hiragino Sans GB W6_MSFontService,sans-serif" font-size="64" font-weight="600" transform="translate(1520.46 937)">④复制消息</text><path fill="#ccebff" fill-rule="evenodd" d="M2249 7h-780v381.986h780z"/><path fill="none" stroke="#852a49" stroke-linejoin="round" stroke-miterlimit="10" stroke-width="6.875" d="M1470 388.852h779.5V7.5H1470zm-64.93-309.86L1088.5 731.395"/><text fill="#00c" font-family="Hiragino Sans GB W6,Hiragino Sans GB W6_MSFontService,sans-serif" font-size="55" font-weight="600" transform="translate(1502.31 84)">消息缓冲区结构：</text><text fill="#00c" font-family="Hiragino Sans GB W6,Hiragino Sans GB W6_MSFontService,sans-serif" font-size="55" font-weight="600" transform="translate(1565.56 150)">消息头（</text><text fill="#00c" font-family="Hiragino Sans GB W6,Hiragino Sans GB W6_MSFontService,sans-serif" font-size="55" font-weight="600" transform="translate(1785.56 150)">消息类型、接收</text><text fill="#00c" font-family="Hiragino Sans GB W6,Hiragino Sans GB W6_MSFontService,sans-serif" font-size="55" font-weight="600" transform="translate(1502.31 214)">进程</text><text fill="#00c" font-family="Arial,Arial_MSFontService,sans-serif" font-size="55" font-weight="700" transform="translate(1612.31 214)">ID</text><text fill="#00c" font-family="Hiragino Sans GB W6,Hiragino Sans GB W6_MSFontService,sans-serif" font-size="55" font-weight="600" transform="translate(1660.43 214)">、发送进程</text><text fill="#00c" font-family="Arial,Arial_MSFontService,sans-serif" font-size="55" font-weight="700" transform="translate(1934.29 214)">ID</text><text fill="#00c" font-family="Hiragino Sans GB W6,Hiragino Sans GB W6_MSFontService,sans-serif" font-size="55" font-weight="600" transform="translate(1982.41 214)">、消息长</text><text fill="#00c" font-family="Hiragino Sans GB W6,Hiragino Sans GB W6_MSFontService,sans-serif" font-size="55" font-weight="600" transform="translate(1502.31 282)">度、控制信息</text><text fill="#00c" font-family="Hiragino Sans GB W6,Hiragino Sans GB W6_MSFontService,sans-serif" font-size="55" font-weight="600" transform="translate(1832.31 282)">）</text><text fill="#00c" font-family="Hiragino Sans GB W6,Hiragino Sans GB W6_MSFontService,sans-serif" font-size="55" font-weight="600" transform="translate(1565.56 348)">消息体（消息内容</text><text fill="#00c" font-family="Hiragino Sans GB W6,Hiragino Sans GB W6_MSFontService,sans-serif" font-size="55" font-weight="600" transform="translate(2005.56 348)">）</text><text font-family="SimHei,SimHei_MSFontService,sans-serif" font-size="128" font-weight="400" transform="translate(184.705 187)">消息传递</text></svg>