<svg xmlns="http://www.w3.org/2000/svg" xml:space="preserve" width="1842" height="1769" overflow="hidden"><text font-family="DengXian,DengXian_MSFontService,sans-serif" font-size="110" font-weight="700" transform="translate(695.1 138)">共享内存</text><text fill="red" font-family="DengXian,DengXian_MSFontService,sans-serif" font-size="83" font-weight="700" transform="translate(130.826 340)">进程</text><text fill="red" font-family="DengXian,DengXian_MSFontService,sans-serif" font-size="83" font-weight="700" transform="translate(295.826 340)">1</text><text fill="red" font-family="DengXian,DengXian_MSFontService,sans-serif" font-size="83" font-weight="700" transform="translate(71.242 439)">地址空间</text><path fill="#dee7c5" stroke="#172c51" stroke-miterlimit="8" stroke-width="10.313" d="M9 480h454v1281H9z"/><path fill="none" stroke="#4472c4" stroke-miterlimit="8" stroke-width="6.875" d="M9.5 1311.5h454.221M9.5 1116.5h454.221"/><text fill="red" font-family="DengXian,DengXian_MSFontService,sans-serif" font-size="83" font-weight="700" transform="translate(1501.94 340)">进程</text><text fill="red" font-family="DengXian,DengXian_MSFontService,sans-serif" font-size="83" font-weight="700" transform="translate(1666.94 340)">2</text><text fill="red" font-family="DengXian,DengXian_MSFontService,sans-serif" font-size="83" font-weight="700" transform="translate(1442.36 439)">地址空间</text><path fill="#dee7c5" stroke="#172c51" stroke-miterlimit="8" stroke-width="10.313" d="M1380 480h454v1281h-454z"/><path fill="none" stroke="#4472c4" stroke-miterlimit="8" stroke-width="6.875" d="M1380.5 961.5h454.22M1380.5 759.5l454.22.001"/><path fill="#f2cefe" stroke="#172c51" stroke-miterlimit="8" stroke-width="4.583" d="M691.5 903.5h454v734h-454z"/><path fill="#a2e19e" stroke="#172c51" stroke-miterlimit="8" stroke-width="4.583" d="M691.5 1225.5h454v171h-454z"/><text font-family="DengXian,DengXian_MSFontService,sans-serif" font-size="83" font-weight="700" transform="translate(753.01 1338)">共享内存</text><path fill="none" stroke="#4472c4" stroke-dasharray="55 20.625 6.875 20.625" stroke-miterlimit="8" stroke-width="6.875" d="m463.5 1311.5 235.13 81.2M463.5 1121.5l227.54 104.67M1145.5 1225.71l235.132-466.206M1145.5 1396.32l235.132-434.823"/><text fill="red" font-family="DengXian,DengXian_MSFontService,sans-serif" font-size="83" font-weight="700" transform="translate(752.57 813)">物理内存</text></svg>