<svg xmlns="http://www.w3.org/2000/svg" xml:space="preserve" width="4446" height="2250" overflow="hidden"><path fill="none" stroke="#4472c4" stroke-miterlimit="8" stroke-width="13.75" d="M2031 4v2236.12"/><text font-family="DengXian,DengXian_MSFontService,sans-serif" font-size="128" font-weight="700" transform="translate(645.631 378)">程序分段</text><path fill="#fff" d="M2555 247h985v259h-985z"/><text font-family="DengXian,DengXian_MSFontService,sans-serif" font-size="128" font-weight="700" transform="translate(2598.18 419)">逻辑段到物理段</text><path fill="#eddff0" fill-rule="evenodd" d="M1465.03 619.931h324.96v165h-324.96ZM1465.03 784.931h324.96v98.309h-324.96ZM1465.03 883.24h324.96v169.59h-324.96Z"/><path fill="none" stroke="#864395" stroke-linejoin="round" stroke-miterlimit="10" stroke-width="10.313" d="M1459.87 784.931h335.27M1459.87 883.24h335.27M1465.03 614.775v443.205M1789.99 614.775v443.205M1459.87 619.931h335.27M1459.87 1052.83h335.27"/><text font-family="Arial,Arial_MSFontService,sans-serif" font-size="64" font-weight="400" transform="translate(1546.15 856)">12345</text><path fill="#ccebff" fill-rule="evenodd" d="M572.862 636H101v1134h471.862z"/><path fill="none" stroke="#00c" stroke-linejoin="round" stroke-miterlimit="10" stroke-width="10.313" d="M101 1770h471.862V636H101z"/><path fill="#00c" fill-rule="evenodd" d="M572.853 1579.68H101V1590h471.853zM572.853 1455.84H101v10.32h471.853zM572.853 1249.44H101v10.32h471.853zM572.853 1125.6H101v10.32h471.853zM572.853 939.84H101v10.32h471.853zM572.853 816H101v10.32h471.853z"/><path fill="#eddff0" fill-rule="evenodd" d="M1794.89 1368H1470v433h324.89z"/><path fill="none" stroke="#864395" stroke-linejoin="round" stroke-miterlimit="10" stroke-width="10.313" d="M1470 1801h324.89v-433H1470z"/><text font-family="Kaiti SC,Kaiti SC_MSFontService,sans-serif" font-size="64" font-weight="900" transform="translate(1472.66 1319)">工作区段</text><text font-family="Arial,Arial_MSFontService,sans-serif" font-size="64" font-weight="700" transform="translate(1729.32 1319)">B</text><text font-family="Arial,Arial_MSFontService,sans-serif" font-size="64" font-weight="700" transform="translate(1415.37 1385)">0</text><text font-family="Arial,Arial_MSFontService,sans-serif" font-size="64" font-weight="700" transform="translate(1416.47 1812)">S</text><text font-family="Kaiti SC,Kaiti SC_MSFontService,sans-serif" font-size="64" font-weight="900" transform="translate(163.676 591)">主程序段</text><text font-family="Arial,Arial_MSFontService,sans-serif" font-size="64" font-weight="700" transform="translate(432.26 591)">M</text><path fill="#eddff0" fill-rule="evenodd" d="M1171.89 625H847v433h324.89z"/><path fill="none" stroke="#864395" stroke-linejoin="round" stroke-miterlimit="10" stroke-width="10.313" d="M847 1058h324.89V625H847z"/><path fill="#864395" fill-rule="evenodd" d="M1171.86 887.73H847V898h324.86zM1171.86 785H847v10.273h324.86z"/><text font-family="Arial,Arial_MSFontService,sans-serif" font-size="64" font-weight="700" transform="translate(788.917 864)">E</text><text font-family="Arial,Arial_MSFontService,sans-serif" font-size="64" font-weight="700" transform="translate(787.358 1065)">P</text><text font-family="Kaiti SC,Kaiti SC_MSFontService,sans-serif" font-size="64" font-weight="900" transform="translate(854.733 573)">子程序</text><text fill="#ff0" font-family="Arial,Arial_MSFontService,sans-serif" font-size="73" font-weight="400" transform="translate(1008.05 570)">. </text><text font-family="Kaiti SC,Kaiti SC_MSFontService,sans-serif" font-size="64" font-weight="900" transform="translate(1047.46 573)">段</text><text font-family="Arial,Arial_MSFontService,sans-serif" font-size="64" font-weight="700" transform="translate(1111.63 573)">X</text><text font-family="Arial,Arial_MSFontService,sans-serif" font-size="64" font-weight="700" transform="translate(788.275 641)">0</text><text font-family="Arial,Arial_MSFontService,sans-serif" font-size="64" font-weight="700" transform="translate(44.766 652)">0</text><text font-family="Arial,Arial_MSFontService,sans-serif" font-size="64" font-weight="700" transform="translate(43.667 1779)">K</text><text font-family="Arial,Arial_MSFontService,sans-serif" font-size="64" font-weight="700" transform="translate(156.907 890)">CALL</text><text font-family="Arial,Arial_MSFontService,sans-serif" font-size="64" font-weight="700" transform="translate(323.557 890)">X</text><text font-family="Kaiti SC,Kaiti SC_MSFontService,sans-serif" font-size="64" font-weight="900" transform="translate(365.38 890)">，</text><text font-family="Arial,Arial_MSFontService,sans-serif" font-size="64" font-weight="700" transform="translate(428.401 890)">E</text><text font-family="Arial,Arial_MSFontService,sans-serif" font-size="64" font-weight="700" transform="translate(156.907 1199)">CALL</text><text font-family="Arial,Arial_MSFontService,sans-serif" font-size="64" font-weight="700" transform="translate(322.388 1199)">Y</text><text font-family="Kaiti SC,Kaiti SC_MSFontService,sans-serif" font-size="64" font-weight="900" transform="translate(364.211 1199)">，</text><text font-family="Arial,Arial_MSFontService,sans-serif" font-size="64" font-weight="700" transform="translate(427.232 1199)">F</text><path fill="#eddff0" fill-rule="evenodd" d="M1171.89 1368H847v433h324.89z"/><path fill="none" stroke="#864395" stroke-linejoin="round" stroke-miterlimit="10" stroke-width="10.313" d="M847 1801h324.89v-433H847z"/><path fill="#864395" fill-rule="evenodd" d="M1171.86 1630.64H847V1641h324.86zM1171.86 1527H847v10.36h324.86z"/><text font-family="Arial,Arial_MSFontService,sans-serif" font-size="64" font-weight="700" transform="translate(788.275 1380)">0</text><text font-family="Arial,Arial_MSFontService,sans-serif" font-size="64" font-weight="700" transform="translate(156.678 1529)">CALL</text><text font-family="Arial,Arial_MSFontService,sans-serif" font-size="64" font-weight="700" transform="translate(306.736 1529)">A</text><text font-family="Kaiti SC,Kaiti SC_MSFontService,sans-serif" font-size="64" font-weight="900" transform="translate(352.684 1529)">，</text><text font-family="Arial,Arial_MSFontService,sans-serif" font-size="64" font-weight="700" transform="translate(416.392 1529)">116</text><text font-family="Arial,Arial_MSFontService,sans-serif" font-size="64" font-weight="700" transform="translate(785.625 1607)">F</text><text font-family="Arial,Arial_MSFontService,sans-serif" font-size="64" font-weight="700" transform="translate(791.208 1816)">L</text><text font-family="Kaiti SC,Kaiti SC_MSFontService,sans-serif" font-size="64" font-weight="900" transform="translate(865.366 1334)">子程序段</text><text font-family="Arial,Arial_MSFontService,sans-serif" font-size="64" font-weight="700" transform="translate(1120.2 1334)">Y</text><text font-family="Arial,Arial_MSFontService,sans-serif" font-size="64" font-weight="700" transform="translate(1415.37 638)">0</text><text font-family="Arial,Arial_MSFontService,sans-serif" font-size="64" font-weight="700" transform="translate(1358.07 864)">116</text><text font-family="Arial,Arial_MSFontService,sans-serif" font-size="64" font-weight="700" transform="translate(1410.42 1065)">N</text><text font-family="Kaiti SC,Kaiti SC_MSFontService,sans-serif" font-size="64" font-weight="900" transform="translate(1533.94 586)">数组</text><text font-family="Arial,Arial_MSFontService,sans-serif" font-size="64" font-weight="700" transform="translate(1675.1 586)">A</text><path fill="#b83c68" fill-rule="evenodd" d="m755.506 845.223-2.967-.917L722.438 835l1.66 10.141-231.026 37.909 1.697 10.17 230.994-37.897 1.674 10.209zM1325 845.223l-33.57 8.527 6.74 7.812-647.89 558.818-156.704-233.2-8.576 5.78 157.401 234.22-96.035 82.83 6.742 7.81 95.09-82.02 86.903 129.31-8.581 5.75 30.133 17.07-2.381-18.53-2.022-15.79-8.572 5.75L656.073 1429 1304.9 869.36l6.75 7.817 7.93-18.98z"/><path fill="#eddff0" stroke="#864395" stroke-linejoin="round" stroke-miterlimit="10" stroke-width="13.75" d="M2383 1647h292v177h-292z"/><text font-family="Arial,Arial_MSFontService,sans-serif" font-size="64" font-weight="700" transform="translate(2506.93 1755)">B</text><text font-family="Kaiti SC,Kaiti SC_MSFontService,sans-serif" font-size="64" font-weight="900" transform="translate(2077.54 631)">逻辑段号</text><text font-family="Arial,Arial_MSFontService,sans-serif" font-size="64" font-weight="700" transform="translate(2328.52 741)">0</text><text font-family="Arial,Arial_MSFontService,sans-serif" font-size="64" font-weight="700" transform="translate(2211.42 810)">0</text><text font-family="Arial,Arial_MSFontService,sans-serif" font-size="64" font-weight="700" transform="translate(2333.06 887)">K</text><text font-family="Arial,Arial_MSFontService,sans-serif" font-size="64" font-weight="700" transform="translate(2328.52 974)">0</text><text font-family="Arial,Arial_MSFontService,sans-serif" font-size="64" font-weight="700" transform="translate(2211.65 1042)">1</text><text font-family="Arial,Arial_MSFontService,sans-serif" font-size="64" font-weight="700" transform="translate(2324.35 1119)">P</text><text font-family="Arial,Arial_MSFontService,sans-serif" font-size="64" font-weight="700" transform="translate(2328.52 1206)">0</text><text font-family="Arial,Arial_MSFontService,sans-serif" font-size="64" font-weight="700" transform="translate(2211.65 1275)">2</text><text font-family="Arial,Arial_MSFontService,sans-serif" font-size="64" font-weight="700" transform="translate(2333.33 1348)">L</text><text font-family="Arial,Arial_MSFontService,sans-serif" font-size="64" font-weight="700" transform="translate(2328.52 1440)">0</text><text font-family="Arial,Arial_MSFontService,sans-serif" font-size="64" font-weight="700" transform="translate(2211.42 1509)">3</text><text font-family="Arial,Arial_MSFontService,sans-serif" font-size="64" font-weight="700" transform="translate(2322.52 1582)">N</text><text font-family="Arial,Arial_MSFontService,sans-serif" font-size="64" font-weight="700" transform="translate(2328.52 1674)">0</text><text font-family="Arial,Arial_MSFontService,sans-serif" font-size="64" font-weight="700" transform="translate(2211.65 1743)">4</text><text font-family="Arial,Arial_MSFontService,sans-serif" font-size="64" font-weight="700" transform="translate(2335.58 1820)">S</text><path fill="#eddff0" stroke="#864395" stroke-linejoin="round" stroke-miterlimit="10" stroke-width="13.75" d="M2386 1413h292v177h-292z"/><text font-family="Arial,Arial_MSFontService,sans-serif" font-size="64" font-weight="700" transform="translate(2510.24 1521)">A</text><path fill="#eddff0" stroke="#864395" stroke-linejoin="round" stroke-miterlimit="10" stroke-width="13.75" d="M2386 1180h292v176h-292z"/><text font-family="Arial,Arial_MSFontService,sans-serif" font-size="64" font-weight="700" transform="translate(2511.95 1288)">Y</text><path fill="#eddff0" stroke="#864395" stroke-linejoin="round" stroke-miterlimit="10" stroke-width="13.75" d="M2386 945h292v177h-292z"/><text font-family="Arial,Arial_MSFontService,sans-serif" font-size="64" font-weight="700" transform="translate(2512.07 1053)">X</text><path fill="#eddff0" stroke="#864395" stroke-linejoin="round" stroke-miterlimit="10" stroke-width="13.75" d="M2388 713h292v177h-292z"/><text font-family="Arial,Arial_MSFontService,sans-serif" font-size="64" font-weight="700" transform="translate(2507.32 821)">M</text><text font-family="Kaiti SC,Kaiti SC_MSFontService,sans-serif" font-size="73" font-weight="900" transform="translate(2260.03 1927)">进程的地址空间</text><text font-family="Arial,Arial_MSFontService,sans-serif" font-size="64" font-weight="700" transform="translate(3718.41 460)">1000</text><text font-family="Arial,Arial_MSFontService,sans-serif" font-size="64" font-weight="700" transform="translate(3718.41 824)">3200</text><text font-family="Arial,Arial_MSFontService,sans-serif" font-size="64" font-weight="700" transform="translate(3718.41 1160)">5000</text><text font-family="Arial,Arial_MSFontService,sans-serif" font-size="64" font-weight="700" transform="translate(3718.41 1377)">6000</text><text font-family="Arial,Arial_MSFontService,sans-serif" font-size="64" font-weight="700" transform="translate(3718.41 1675)">8000</text><text font-family="Arial,Arial_MSFontService,sans-serif" font-size="64" font-weight="700" transform="translate(4363.47 642)">P</text><text font-family="Arial,Arial_MSFontService,sans-serif" font-size="64" font-weight="700" transform="translate(4363.24 902)">K</text><text font-family="Arial,Arial_MSFontService,sans-serif" font-size="64" font-weight="700" transform="translate(4365.53 1171)">S</text><text font-family="Arial,Arial_MSFontService,sans-serif" font-size="64" font-weight="700" transform="translate(4367.18 1435)">L</text><text font-family="Arial,Arial_MSFontService,sans-serif" font-size="64" font-weight="700" transform="translate(4359.39 1711)">N</text><text font-family="Kaiti SC,Kaiti SC_MSFontService,sans-serif" font-size="73" font-weight="900" transform="translate(3965.36 1959)">物理内存</text><text font-family="Kaiti SC,Kaiti SC_MSFontService,sans-serif" font-size="64" font-weight="900" transform="translate(2978.75 872)">长</text><text font-family="Kaiti SC,Kaiti SC_MSFontService,sans-serif" font-size="64" font-weight="900" transform="translate(3042.92 872)">度</text><text font-family="Kaiti SC,Kaiti SC_MSFontService,sans-serif" font-size="64" font-weight="900" transform="translate(3221.67 872)">段地</text><text font-family="Kaiti SC,Kaiti SC_MSFontService,sans-serif" font-size="64" font-weight="900" transform="translate(3350 872)">址</text><text font-family="Arial,Arial_MSFontService,sans-serif" font-size="64" font-weight="700" transform="translate(2861.19 995)">0</text><text font-family="Arial,Arial_MSFontService,sans-serif" font-size="64" font-weight="700" transform="translate(2860.96 1114)">1</text><text font-family="Arial,Arial_MSFontService,sans-serif" font-size="64" font-weight="700" transform="translate(2860.96 1232)">2</text><text font-family="Arial,Arial_MSFontService,sans-serif" font-size="64" font-weight="700" transform="translate(2860.96 1350)">3</text><text font-family="Arial,Arial_MSFontService,sans-serif" font-size="64" font-weight="700" transform="translate(2860.96 1468)">4</text><path fill="#f8e1d6" fill-rule="evenodd" d="M2914.1 916.1h255.29v117.1H2914.1ZM3169.39 916.1h351.77v117.1h-351.77ZM2914.1 1033.2h255.29v117.56H2914.1ZM3169.39 1033.2h351.77v117.56h-351.77ZM2914.1 1150.76h255.29v117.11H2914.1ZM3169.39 1150.76h351.77v117.11h-351.77ZM2914.1 1267.87h255.29v117.56H2914.1ZM3169.39 1267.87h351.77v117.56h-351.77ZM2914.1 1385.43h255.29v117.1H2914.1ZM3169.39 1385.43h351.77v117.1h-351.77Z"/><path fill="none" stroke="#b14d1d" stroke-linejoin="round" stroke-miterlimit="10" stroke-width="10.313" d="M3169.39 910.94v596.75M2908.95 1033.2h617.37M2908.95 1150.76h617.37M2908.95 1267.87h617.37M2908.95 1385.43h617.37M2914.1 910.94v596.75M3521.16 910.94v596.75M2908.95 916.1h617.37M2908.95 1502.53h617.37"/><text font-family="Arial,Arial_MSFontService,sans-serif" font-size="64" font-weight="700" transform="translate(3263.12 994)">3200</text><text font-family="Arial,Arial_MSFontService,sans-serif" font-size="64" font-weight="700" transform="translate(3047.25 994)">K</text><text font-family="Arial,Arial_MSFontService,sans-serif" font-size="64" font-weight="700" transform="translate(3263.12 1111)">1500</text><text font-family="Arial,Arial_MSFontService,sans-serif" font-size="64" font-weight="700" transform="translate(3038.77 1111)">P</text><text font-family="Arial,Arial_MSFontService,sans-serif" font-size="64" font-weight="700" transform="translate(3259.23 1229)">6000</text><text font-family="Arial,Arial_MSFontService,sans-serif" font-size="64" font-weight="700" transform="translate(3051.72 1229)">L</text><text font-family="Arial,Arial_MSFontService,sans-serif" font-size="64" font-weight="700" transform="translate(3259.69 1346)">8000</text><text font-family="Arial,Arial_MSFontService,sans-serif" font-size="64" font-weight="700" transform="translate(3046.1 1346)">N</text><text font-family="Arial,Arial_MSFontService,sans-serif" font-size="64" font-weight="700" transform="translate(3260.83 1464)">5000</text><text font-family="Arial,Arial_MSFontService,sans-serif" font-size="64" font-weight="700" transform="translate(3049.54 1464)">S</text><text font-family="Kaiti SC,Kaiti SC_MSFontService,sans-serif" font-size="73" font-weight="900" transform="translate(3091.73 1615)">段表</text><path fill="#b83c68" fill-rule="evenodd" d="m3685 805.636-3.54-2.062-27.07-15.768-.96-.596-1.28.367-.56.962-.59 1.009.32 1.237 21.93 12.789h-50.2l-.92.916V978.3h-33.26V564.443h84.38l3.54-2.058-25.47 14.847-.32 1.237.59 1.009.56.962 1.28.367.96-.596 27.07-15.768 3.54-2.058-3.54-2.067-27.07-15.768-.96-.55-1.28.321-.56.963-.59 1.008.32 1.238 21.92 12.788h-84.37v2.067l-2.07 2.058 2.06-2.058.01-2.067h-3.22l-.91.917V978.3H3526v4.13h58.74v113.4H3526v4.12h61.95l.92-.91V982.43h36.48l.91-.92V807.699h46.99l-20.92 12.193-1.01.55-.32 1.287.59.959.56 1.012 1.28.321.96-.554 27.07-15.768z"/><text font-family="Arial,Arial_MSFontService,sans-serif" font-size="64" font-weight="700" transform="translate(3718.41 581)">1500</text><path fill="#b83c68" fill-rule="evenodd" d="m3685 1655.55-3.54-2.07-27.07-15.75-.96-.57-1.28.33-.56.99-.59.98.32 1.26 1.01.58 20.93 12.18h-65.72v-321.99l-.92-.91h-30.24v-113.36h61.31v141.71l.96.91h34.6l3.54-2.05-25.47 14.83-.32 1.24.59 1.01.56.96 1.28.32.96-.55 27.07-15.76 3.54-2.05-3.54-2.07-27.07-15.76-.96-.54-1.28.32-.56.96-.59 1.01.32 1.23 21.92 12.78h-31.42v-141.67l-.92-.96h-64.52v-69.66h96.87l3.54-2.06-25.47 14.84-.32 1.23.59 1.01.56.96 1.28.32.96-.55 27.07-15.75 3.54-2.06-3.54-2.06-27.07-15.76-.96-.55-1.28.32-.56.96-.59 1.01.32 1.24 21.92 12.78h-100.07l-.92.91v72.87H3526v4.13h46.25v113.36H3526v4.12h46.25v113.31H3526v4.12h49.47l.91-.96V1334.7h27.03v321.98l.92.93h68.93l-20.93 12.19-1.01.57-.32 1.26.59.99.56.98 1.28.33.96-.57 27.07-15.75z"/><path fill="#ccebff" fill-rule="evenodd" d="M4331.9 438H3881v122.886h450.9z"/><path fill="none" stroke="#00c" stroke-linejoin="round" stroke-miterlimit="10" stroke-width="10.312" d="M3881 560.886h450.9V438H3881z"/><path fill="#ccebff" fill-rule="evenodd" d="M4331.9 558H3881v122.886h450.9z"/><path fill="none" stroke="#00c" stroke-linejoin="round" stroke-miterlimit="10" stroke-width="10.312" d="M3881 680.886h450.9V558H3881z"/><path fill="#ccebff" fill-rule="evenodd" d="M4331.9 680H3881v122.886h450.9z"/><path fill="none" stroke="#00c" stroke-linejoin="round" stroke-miterlimit="10" stroke-width="10.312" d="M3881 802.886h450.9V680H3881z"/><path fill="#ccebff" fill-rule="evenodd" d="M4331.9 802H3881v179.96h450.9z"/><path fill="none" stroke="#00c" stroke-linejoin="round" stroke-miterlimit="10" stroke-width="10.313" d="M3881 981.96h450.9V802H3881z"/><path fill="#ccebff" stroke="#00c" stroke-linejoin="round" stroke-miterlimit="10" stroke-width="10.313" d="M3881 315h451v123h-451z"/><text font-family="Kaiti SC,Kaiti SC_MSFontService,sans-serif" font-size="64" font-weight="900" transform="translate(3977.28 391)">操作系统</text><path fill="#ccebff" fill-rule="evenodd" d="M4331.9 977H3881v122.89h450.9z"/><path fill="none" stroke="#00c" stroke-linejoin="round" stroke-miterlimit="10" stroke-width="10.312" d="M3881 1099.89h450.9V977H3881z"/><path fill="#ccebff" fill-rule="evenodd" d="M4331.9 1096H3881v122.89h450.9z"/><path fill="none" stroke="#00c" stroke-linejoin="round" stroke-miterlimit="10" stroke-width="10.312" d="M3881 1218.89h450.9V1096H3881z"/><path fill="#ccebff" fill-rule="evenodd" d="M4331.9 1215H3881v122.89h450.9z"/><path fill="none" stroke="#00c" stroke-linejoin="round" stroke-miterlimit="10" stroke-width="10.312" d="M3881 1337.89h450.9V1215H3881z"/><path fill="#ccebff" fill-rule="evenodd" d="M4331.9 1339H3881v197.78h450.9z"/><path fill="none" stroke="#00c" stroke-linejoin="round" stroke-miterlimit="10" stroke-width="10.313" d="M3881 1536.78h450.9V1339H3881z"/><path fill="#ccebff" fill-rule="evenodd" d="M4331.9 1534H3881v98.79h450.9z"/><path fill="none" stroke="#00c" stroke-linejoin="round" stroke-miterlimit="10" stroke-width="10.313" d="M3881 1632.79h450.9V1534H3881z"/><path fill="#ccebff" fill-rule="evenodd" d="M4331.9 1631H3881v122.89h450.9z"/><path fill="none" stroke="#00c" stroke-linejoin="round" stroke-miterlimit="10" stroke-width="10.312" d="M3881 1753.89h450.9V1631H3881z"/><path fill="#ccebff" fill-rule="evenodd" d="M4331.9 1751H3881v122.89h450.9z"/><path fill="none" stroke="#00c" stroke-linejoin="round" stroke-miterlimit="10" stroke-width="10.312" d="M3881 1873.89h450.9V1751H3881z"/><path fill="#b83c68" fill-rule="evenodd" d="m2795.01 960.68-1.19.55-.37 1.1-.41 1.06.6 1.2 34.22 12.23-.31-1.8h-3.89l-4.9-5.84z"/><path fill="#b83c68" fill-rule="evenodd" d="m2818.76 969.18 4.9 5.84 1.14-.96h-1.59l-.61-3.5z"/><path fill="#b83c68" fill-rule="evenodd" d="m2820.52 939.99-1.1.23-1.14.18-.73 1.06.18 1.15 4.16 23.88 4.92 5.87-3.15 2.66h3.89l-5.76-33.14-.18-1.11z"/><path fill="#b83c68" fill-rule="evenodd" d="m2822.6 970.56.61 3.5 2.74-2.3z"/><path fill="#b83c68" fill-rule="evenodd" d="m2821.89 966.49.71 4.07 3.35 1.2-2.74 2.3h1.59l2.01-1.7z"/><path fill="#b83c68" fill-rule="evenodd" d="m2682.15 800-3.15 2.666 139.76 166.514 3.84 1.38-.71-4.07zM2816.29 1092.08l-23.96 3.46-1.1.14-.78 1.06.14 1.15.18 1.14 1.06.79 1.09-.19 32.4-4.68h-1.98z"/><path fill="#b83c68" fill-rule="evenodd" d="m2820.31 1091.5-4.02.58 7.05 2.87.25-.65h-1.12z"/><path fill="#b83c68" fill-rule="evenodd" d="m2804.31 1065.45-.91.69-.87.69-.19 1.33.69.87 14.8 19.25 7.01 2.85-1.5 3.82h1.98l2.54-.37-21.58-28.07-.69-.92z"/><path fill="#b83c68" fill-rule="evenodd" d="m2823.79 1090.99-3.48.51 2.16 2.8zM2824.51 1090.99h-.72l-1.32 3.31h1.12l1.25-3.17zM2679.55 1032l-1.55 3.81 138.29 56.27 4.02-.58-2.48-3.22z"/><path fill="#b83c68" fill-rule="evenodd" d="m2817.83 1088.28 2.48 3.22 3.48-.51h.72zM2816.19 1213.29 2678 1266.13l1.46 3.87 138.15-52.82 2.58-3.22z"/><path fill="#b83c68" fill-rule="evenodd" d="M2825.08 1210.58h-1.79l1.46 3.87-7.14 2.73-15.17 18.94-.74.87.14 1.29 1.78 1.43 1.29-.14.73-.87 22.18-27.66z"/><path fill="#b83c68" fill-rule="evenodd" d="m2820.19 1213.96-2.58 3.22 6.9-2.64h-.85z"/><path fill="#b83c68" fill-rule="evenodd" d="m2822.42 1211.18-2.23 2.78 3.47.58z"/><path fill="#b83c68" fill-rule="evenodd" d="M2823.52 1211.18h-1.1l1.2 3.27.04.09h.85l.24-.09z"/><path fill="#b83c68" fill-rule="evenodd" d="m2823.29 1210.58-7.1 2.71 4 .67 2.23-2.78h1.1z"/><path fill="#b83c68" fill-rule="evenodd" d="m2791.87 1205-1.05.74-.37 2.26.78 1.1 24.96 4.19 7.1-2.71h1.79zM2827.49 1329l-34.55 11.73-.59 1.19.36 1.05.37 1.1 1.19.6 24.01-8.18-141.71 163.28 3.12 2.7 141.64-163.2-4.47 23.67-.18 1.15.73 1.05 2.24.46 1.06-.73.23-1.15 6.22-32.98zM2829 1482.68l-1.29-31.1-.03-.78-.04-.87-.04-1.05-.11-2.66-30.97 19.29-.32 1.23.59 1.01.6.96 1.28.28 21.56-13.41L2673 1733.89l3.62 1.93 147.2-278.26 1.05 25.12.01.19.96.87 2.29-.09z"/></svg>