<svg xmlns="http://www.w3.org/2000/svg" xml:space="preserve" width="2306" height="1984" overflow="hidden"><path fill="#f2cefe" stroke="#172c51" stroke-miterlimit="8" stroke-width="4.583" d="M4.5 400.5h888v287H4.5z"/><text font-family="DengXian,DengXian_MSFontService,sans-serif" font-size="83" font-weight="700" transform="translate(401.22 571)">P1</text><path fill="#f2cefe" stroke="#172c51" stroke-miterlimit="8" stroke-width="4.583" d="M4.5 1795.5h888v166H4.5z"/><text font-family="DengXian,DengXian_MSFontService,sans-serif" font-size="83" font-weight="700" transform="translate(394.63 1905)">OS</text><text font-family="DengXian,DengXian_MSFontService,sans-serif" font-size="83" font-weight="400" transform="translate(305.79 342)">刚开始运行</text><text font-family="DengXian,DengXian_MSFontService,sans-serif" font-size="83" font-weight="400" transform="translate(1648.1 342)">一段时间后</text><text font-family="DengXian,DengXian_MSFontService,sans-serif" font-size="165" font-weight="700" transform="translate(816.38 207)">可变分区</text><path fill="#f2cefe" stroke="#172c51" stroke-miterlimit="8" stroke-width="4.583" d="M4.5 687.5h888v427H4.5z"/><text font-family="DengXian,DengXian_MSFontService,sans-serif" font-size="83" font-weight="700" transform="translate(401.22 928)">P2</text><path fill="#f2cefe" stroke="#172c51" stroke-miterlimit="8" stroke-width="4.583" d="M4.5 1110.5h888v208H4.5z"/><text font-family="DengXian,DengXian_MSFontService,sans-serif" font-size="83" font-weight="700" transform="translate(401.22 1242)">P3</text><path fill="#f2cefe" stroke="#172c51" stroke-miterlimit="8" stroke-width="4.583" d="M4.5 1318.5h888v477H4.5z"/><text font-family="DengXian,DengXian_MSFontService,sans-serif" font-size="83" font-weight="700" transform="translate(401.22 1584)">P4</text><path fill="#f2cefe" stroke="#172c51" stroke-miterlimit="8" stroke-width="4.583" d="M1414.5 687.5h887v167h-887z"/><text font-family="DengXian,DengXian_MSFontService,sans-serif" font-size="83" font-weight="700" transform="translate(1810.64 798)">P5</text><path fill="#f2cefe" stroke="#172c51" stroke-miterlimit="8" stroke-width="4.583" d="M1414.5 1114.5h887v207h-887z"/><text font-family="DengXian,DengXian_MSFontService,sans-serif" font-size="83" font-weight="700" transform="translate(1810.64 1245)">P3</text><path fill="#f2cefe" stroke="#172c51" stroke-miterlimit="8" stroke-width="4.583" d="M1414.5 1475.5h887v269h-887z"/><text font-family="DengXian,DengXian_MSFontService,sans-serif" font-size="83" font-weight="700" transform="translate(1810.32 1637)">P7</text><path fill="#f2cefe" stroke="#172c51" stroke-miterlimit="8" stroke-width="4.583" d="M1414.5 400.5h888v287h-888z"/><text font-family="DengXian,DengXian_MSFontService,sans-serif" font-size="83" font-weight="700" transform="translate(1811.29 571)">P1</text><path fill="#f2cefe" stroke="#172c51" stroke-miterlimit="8" stroke-width="4.583" d="M1414.5 1798.5h887v167h-887z"/><text font-family="DengXian,DengXian_MSFontService,sans-serif" font-size="83" font-weight="700" transform="translate(1804.05 1909)">OS</text><path fill="#fff" stroke="#172c51" stroke-miterlimit="8" stroke-width="4.583" d="M1413.5 854.5h888v106h-888z"/><text font-family="DengXian,DengXian_MSFontService,sans-serif" font-size="83" font-weight="700" transform="translate(1691.98 934)">空闲碎片</text><path fill="#f2cefe" stroke="#172c51" stroke-miterlimit="8" stroke-width="4.583" d="M1414.5 961.5h887v153h-887z"/><text font-family="DengXian,DengXian_MSFontService,sans-serif" font-size="83" font-weight="700" transform="translate(1810.64 1065)">P6</text><path fill="#fff" stroke="#172c51" stroke-miterlimit="8" stroke-width="4.583" d="M1413.5 1318.5h888v157h-888z"/><text font-family="DengXian,DengXian_MSFontService,sans-serif" font-size="83" font-weight="700" transform="translate(1691.98 1424)">空闲碎片</text><path fill="#4472c4" fill-rule="evenodd" stroke="#172c51" stroke-miterlimit="8" stroke-width="4.583" d="M988.5 1118.25H1177v-67.75l135.5 135.5-135.5 135.5v-67.75H988.5Z"/><path fill="#fff" stroke="#172c51" stroke-miterlimit="8" stroke-width="4.583" d="M1413.5 1746.5h887v86h-887z"/><text font-family="DengXian,DengXian_MSFontService,sans-serif" font-size="83" font-weight="700" transform="translate(1691.66 1817)">空闲碎片</text></svg>