<svg xmlns="http://www.w3.org/2000/svg" xml:space="preserve" width="3341" height="2373" overflow="hidden"><path fill="#f2cefe" stroke="#172c51" stroke-miterlimit="8" stroke-width="4.583" d="M696.5 711.5h888v287h-888z"/><text font-family="DengXian,DengXian_MSFontService,sans-serif" font-size="83" font-weight="700" transform="translate(1034.78 882)">分区</text><text font-family="DengXian,DengXian_MSFontService,sans-serif" font-size="83" font-weight="700" transform="translate(1199.78 882)">1</text><path fill="#f2cefe" stroke="#172c51" stroke-miterlimit="8" stroke-width="4.583" d="M696.5 2106.5h888v166h-888z"/><text font-family="DengXian,DengXian_MSFontService,sans-serif" font-size="83" font-weight="700" transform="translate(1086.63 2216)">OS</text><text fill="#0070c0" font-family="DengXian,DengXian_MSFontService,sans-serif" font-size="83" font-weight="700" transform="translate(3012.53 736)">0xFFF…</text><text fill="#0070c0" font-family="DengXian,DengXian_MSFontService,sans-serif" font-size="83" font-weight="700" transform="translate(3111.36 2297)">0</text><text font-family="DengXian,DengXian_MSFontService,sans-serif" font-size="83" font-weight="400" transform="translate(997.79 653)">方案</text><text font-family="DengXian,DengXian_MSFontService,sans-serif" font-size="83" font-weight="400" transform="translate(1162.79 653)">1</text><text font-family="DengXian,DengXian_MSFontService,sans-serif" font-size="83" font-weight="400" transform="translate(2409.05 653)">方案</text><text font-family="DengXian,DengXian_MSFontService,sans-serif" font-size="83" font-weight="400" transform="translate(2574.05 653)">2</text><text font-family="DengXian,DengXian_MSFontService,sans-serif" font-size="165" font-weight="700" transform="translate(1304.1 206)">固定分区</text><path fill="#f2cefe" stroke="#172c51" stroke-miterlimit="8" stroke-width="4.583" d="M696.5 998.5h888v427h-888z"/><text font-family="DengXian,DengXian_MSFontService,sans-serif" font-size="83" font-weight="700" transform="translate(1034.78 1239)">分区</text><text font-family="DengXian,DengXian_MSFontService,sans-serif" font-size="83" font-weight="700" transform="translate(1199.78 1239)">2</text><path fill="#f2cefe" stroke="#172c51" stroke-miterlimit="8" stroke-width="4.583" d="M696.5 1421.5h888v208h-888z"/><text font-family="DengXian,DengXian_MSFontService,sans-serif" font-size="83" font-weight="700" transform="translate(1034.78 1553)">分区</text><text font-family="DengXian,DengXian_MSFontService,sans-serif" font-size="83" font-weight="700" transform="translate(1199.78 1553)">3</text><path fill="#f2cefe" stroke="#172c51" stroke-miterlimit="8" stroke-width="4.583" d="M696.5 1629.5h888v477h-888z"/><text font-family="DengXian,DengXian_MSFontService,sans-serif" font-size="83" font-weight="700" transform="translate(1034.78 1895)">分区</text><text font-family="DengXian,DengXian_MSFontService,sans-serif" font-size="83" font-weight="700" transform="translate(1199.78 1895)">4</text><path fill="#f2cefe" stroke="#172c51" stroke-miterlimit="8" stroke-width="4.583" d="M2106.5 998.5h887v427h-887z"/><text font-family="DengXian,DengXian_MSFontService,sans-serif" font-size="83" font-weight="700" transform="translate(2444.21 1239)">分区</text><text font-family="DengXian,DengXian_MSFontService,sans-serif" font-size="83" font-weight="700" transform="translate(2609.21 1239)">2</text><path fill="#f2cefe" stroke="#172c51" stroke-miterlimit="8" stroke-width="4.583" d="M2106.5 1425.5h887v207h-887z"/><text font-family="DengXian,DengXian_MSFontService,sans-serif" font-size="83" font-weight="700" transform="translate(2444.2 1556)">分区</text><text font-family="DengXian,DengXian_MSFontService,sans-serif" font-size="83" font-weight="700" transform="translate(2609.2 1556)">3</text><path fill="#f2cefe" stroke="#172c51" stroke-miterlimit="8" stroke-width="4.583" d="M2106.5 1632.5h887v477h-887z"/><text font-family="DengXian,DengXian_MSFontService,sans-serif" font-size="83" font-weight="700" transform="translate(2444.2 1898)">分区</text><text font-family="DengXian,DengXian_MSFontService,sans-serif" font-size="83" font-weight="700" transform="translate(2609.2 1898)">4</text><path fill="#f2cefe" stroke="#172c51" stroke-miterlimit="8" stroke-width="4.583" d="M2106.5 711.5h888v287h-888z"/><text font-family="DengXian,DengXian_MSFontService,sans-serif" font-size="83" font-weight="700" transform="translate(2444.85 882)">分区</text><text font-family="DengXian,DengXian_MSFontService,sans-serif" font-size="83" font-weight="700" transform="translate(2609.85 882)">1</text><path fill="#f2cefe" stroke="#172c51" stroke-miterlimit="8" stroke-width="4.583" d="M2106.5 2109.5h887v167h-887z"/><text font-family="DengXian,DengXian_MSFontService,sans-serif" font-size="83" font-weight="700" transform="translate(2496.05 2220)">OS</text><path fill="#7f7f7f" stroke="#404040" stroke-miterlimit="8" stroke-width="4.583" d="M491.5 809.5h91v91h-91zM301.5 809.5h91v91h-91z"/><path fill="none" stroke="#7f7f7f" stroke-miterlimit="8" stroke-width="6.875" d="M582.5 854.5h113.94M392.5 854.5h99.91"/><path fill="#7f7f7f" stroke="#404040" stroke-miterlimit="8" stroke-width="4.583" d="M491.5 1478.5h91v91h-91z"/><path fill="none" stroke="#7f7f7f" stroke-miterlimit="8" stroke-width="6.875" d="m582.5 1523.5 113.94 2.12"/><path fill="#7f7f7f" stroke="#404040" stroke-miterlimit="8" stroke-width="4.583" d="M491.5 1822.5h91v91h-91zM301.5 1822.5h91v91h-91z"/><path fill="none" stroke="#7f7f7f" stroke-miterlimit="8" stroke-width="6.875" d="M582.5 1867.5h113.94M392.5 1867.5h99.91"/><path fill="#7f7f7f" stroke="#404040" stroke-miterlimit="8" stroke-width="4.583" d="M105.5 1822.5h91v91h-91z"/><path fill="none" stroke="#7f7f7f" stroke-miterlimit="8" stroke-width="6.875" d="M196.5 1867.5h99.91"/><path fill="#7f7f7f" stroke="#404040" stroke-miterlimit="8" stroke-width="4.583" d="M1811.5 1070.5h91v91h-91zM1811.5 1228.5h91v91h-91z"/><path fill="none" stroke="#7f7f7f" stroke-miterlimit="8" stroke-width="6.875" d="M1856.5 1228.82v-67.32"/><path fill="#7f7f7f" stroke="#404040" stroke-miterlimit="8" stroke-width="4.583" d="M1811.5 1387.5h91v91h-91zM1811.5 1545.5h91v91h-91z"/><path fill="none" stroke="#7f7f7f" stroke-miterlimit="8" stroke-width="6.875" d="M1856.5 1545.82v-67.32M1856.5 1387.17v-67.668"/><path fill="#7f7f7f" stroke="#404040" stroke-miterlimit="8" stroke-width="4.583" d="M1813.5 1703.5h91v91h-91zM1813.5 1861.5h91v91h-91z"/><path fill="none" stroke="#7f7f7f" stroke-miterlimit="8" stroke-width="6.875" d="M1858.5 1861.82v-67.32M1858.27 1703.82l-1.77-67.32M2106.99 854.5l-204.491 260.736"/><path fill="none" stroke="#172c51" stroke-dasharray="36.6667 13.75 4.58333 13.75 4.58333 13.75" stroke-miterlimit="8" stroke-width="4.583" d="M1746.5 998.5h206v1036h-206z"/><path fill="none" stroke="#7f7f7f" stroke-miterlimit="8" stroke-width="6.875" d="m2106.35 1211.78-203.85-96.28M2106.58 1528.75 1904.5 1127.5M2106.35 1871.05 1902.5 1115.5"/><path fill="#4472c4" fill-rule="evenodd" stroke="#172c51" stroke-miterlimit="8" stroke-width="4.583" d="m351.498 786.144-36.651-173.177C94.982 597.8-36.623 538.51 20.899 480.538s282.389-92.673 502.254-77.506C743.02 418.199 874.62 477.49 817.1 535.462c-42.46 42.789-179.17 74.5-345.537 80.15Z"/><text fill="#fff" font-family="DengXian,DengXian_MSFontService,sans-serif" font-size="83" font-weight="400" transform="translate(171.213 535)">等待中的进程</text></svg>