<svg xmlns="http://www.w3.org/2000/svg" xml:space="preserve" width="2457" height="1829" overflow="hidden"><path fill="none" stroke="#3d67b1" stroke-miterlimit="8" stroke-width="4.583" d="M883.5 1161.5v74.43h229.51v34.8"/><path fill="none" stroke="#3d67b1" stroke-miterlimit="8" stroke-width="4.583" d="M884.01 1161.5v74.43H654.5v34.8"/><path fill="none" stroke="#34599c" stroke-miterlimit="8" stroke-width="4.583" d="M539.5 813.5v74.43h344.26v34.8"/><path fill="none" stroke="#3d67b1" stroke-miterlimit="8" stroke-width="4.583" d="M195 1161.5v109.23"/><path fill="none" stroke="#34599c" stroke-miterlimit="8" stroke-width="4.583" d="M539.76 813.5v74.43H195.5v34.8"/><path fill="#4472c4" fill-rule="evenodd" stroke="#fff" stroke-miterlimit="8" stroke-width="4.583" d="M351.5 598.4c0-13.199 10.7-23.9 23.9-23.9h328.2c13.2 0 23.9 10.701 23.9 23.9v191.2c0 13.2-10.7 23.9-23.9 23.9H375.4c-13.2 0-23.9-10.7-23.9-23.9Z"/><path fill="#fff" fill-opacity=".902" fill-rule="evenodd" stroke="#4472c4" stroke-miterlimit="8" stroke-width="4.583" d="M393.5 638.4c0-13.199 10.7-23.9 23.9-23.9h328.2c13.2 0 23.9 10.701 23.9 23.9v191.2c0 13.2-10.7 23.9-23.9 23.9H417.4c-13.2 0-23.9-10.7-23.9-23.9Z"/><text font-family="DengXian,DengXian_MSFontService,sans-serif" font-size="60" font-weight="400" transform="translate(561.81 698)">A</text><text font-family="DengXian,DengXian_MSFontService,sans-serif" font-size="60" font-weight="400" transform="translate(548.59 798)">8K</text><path fill="#4472c4" fill-rule="evenodd" stroke="#fff" stroke-miterlimit="8" stroke-width="4.583" d="M7.5 946.4c0-13.2 10.701-23.9 23.9-23.9h328.2c13.2 0 23.9 10.7 23.9 23.9v191.2c0 13.2-10.7 23.9-23.9 23.9H31.4c-13.199 0-23.9-10.7-23.9-23.9Z"/><path fill="#fff" fill-opacity=".902" fill-rule="evenodd" stroke="#4472c4" stroke-miterlimit="8" stroke-width="4.583" d="M49.5 986.3c0-13.14 10.656-23.8 23.8-23.8h327.4c13.14 0 23.8 10.66 23.8 23.8v190.4c0 13.14-10.66 23.8-23.8 23.8H73.3c-13.144 0-23.8-10.66-23.8-23.8Z"/><text font-family="DengXian,DengXian_MSFontService,sans-serif" font-size="60" font-weight="400" transform="translate(219.86 1045)">B</text><text font-family="DengXian,DengXian_MSFontService,sans-serif" font-size="60" font-weight="400" transform="translate(204.32 1145)">8K</text><path fill="#4472c4" fill-rule="evenodd" stroke="#fff" stroke-miterlimit="8" stroke-width="4.583" d="M7.5 1294.3c0-13.14 10.656-23.8 23.8-23.8h328.4c13.14 0 23.8 10.66 23.8 23.8v190.4c0 13.14-10.66 23.8-23.8 23.8H31.3c-13.144 0-23.8-10.66-23.8-23.8Z"/><path fill="#fff" fill-opacity=".902" fill-rule="evenodd" stroke="#4472c4" stroke-miterlimit="8" stroke-width="4.583" d="M49.5 1334.3c0-13.14 10.656-23.8 23.8-23.8h327.4c13.14 0 23.8 10.66 23.8 23.8v190.4c0 13.14-10.66 23.8-23.8 23.8H73.3c-13.144 0-23.8-10.66-23.8-23.8Z"/><text font-family="DengXian,DengXian_MSFontService,sans-serif" font-size="60" font-weight="400" transform="translate(216.01 1393)">D</text><text font-family="DengXian,DengXian_MSFontService,sans-serif" font-size="60" font-weight="400" transform="translate(188.63 1493)">12K</text><path fill="#4472c4" fill-rule="evenodd" stroke="#fff" stroke-miterlimit="8" stroke-width="4.583" d="M696.5 946.4c0-13.2 10.7-23.9 23.9-23.9h327.2c13.2 0 23.9 10.7 23.9 23.9v191.2c0 13.2-10.7 23.9-23.9 23.9H720.4c-13.2 0-23.9-10.7-23.9-23.9Z"/><path fill="#fff" fill-opacity=".902" fill-rule="evenodd" stroke="#4472c4" stroke-miterlimit="8" stroke-width="4.583" d="M737.5 986.3c0-13.14 10.66-23.8 23.8-23.8h328.4c13.14 0 23.8 10.66 23.8 23.8v190.4c0 13.14-10.66 23.8-23.8 23.8H761.3c-13.14 0-23.8-10.66-23.8-23.8Z"/><text font-family="DengXian,DengXian_MSFontService,sans-serif" font-size="60" font-weight="400" transform="translate(906.55 1045)">C</text><text font-family="DengXian,DengXian_MSFontService,sans-serif" font-size="60" font-weight="400" transform="translate(877.15 1145)">10K</text><path fill="#4472c4" fill-rule="evenodd" stroke="#fff" stroke-miterlimit="8" stroke-width="4.583" d="M466.5 1294.3c0-13.14 10.66-23.8 23.8-23.8h328.4c13.14 0 23.8 10.66 23.8 23.8v190.4c0 13.14-10.66 23.8-23.8 23.8H490.3c-13.14 0-23.8-10.66-23.8-23.8Z"/><path fill="#fff" fill-opacity=".902" fill-rule="evenodd" stroke="#4472c4" stroke-miterlimit="8" stroke-width="4.583" d="M508.5 1334.3c0-13.14 10.66-23.8 23.8-23.8h327.4c13.14 0 23.8 10.66 23.8 23.8v190.4c0 13.14-10.66 23.8-23.8 23.8H532.3c-13.14 0-23.8-10.66-23.8-23.8Z"/><text font-family="DengXian,DengXian_MSFontService,sans-serif" font-size="60" font-weight="400" transform="translate(680.53 1393)">E</text><text font-family="DengXian,DengXian_MSFontService,sans-serif" font-size="60" font-weight="400" transform="translate(663.34 1493)">4K</text><path fill="#4472c4" fill-rule="evenodd" stroke="#fff" stroke-miterlimit="8" stroke-width="4.583" d="M925.5 1294.3c0-13.14 10.66-23.8 23.8-23.8h328.4c13.14 0 23.8 10.66 23.8 23.8v190.4c0 13.14-10.66 23.8-23.8 23.8H949.3c-13.14 0-23.8-10.66-23.8-23.8Z"/><path fill="#fff" fill-opacity=".902" fill-rule="evenodd" stroke="#4472c4" stroke-miterlimit="8" stroke-width="4.583" d="M967.5 1334.3c0-13.14 10.66-23.8 23.8-23.8h327.4c13.14 0 23.8 10.66 23.8 23.8v190.4c0 13.14-10.66 23.8-23.8 23.8H991.3c-13.14 0-23.8-10.66-23.8-23.8Z"/><text font-family="DengXian,DengXian_MSFontService,sans-serif" font-size="60" font-weight="400" transform="translate(1140.32 1393)">F</text><text font-family="DengXian,DengXian_MSFontService,sans-serif" font-size="60" font-weight="400" transform="translate(1106.66 1493)">10K</text><path fill="#f2cefe" stroke="#172c51" stroke-miterlimit="8" stroke-width="4.583" d="M1566.5 4.5h887v287h-887zM1566.5 1398.5h887v167h-887zM1566.5 291.5h887v287h-887z"/><text font-family="DengXian,DengXian_MSFontService,sans-serif" font-size="83" font-weight="700" transform="translate(1981.77 413)">A</text><text font-family="DengXian,DengXian_MSFontService,sans-serif" font-size="83" font-weight="700" transform="translate(1878.95 512)">（</text><text font-family="DengXian,DengXian_MSFontService,sans-serif" font-size="83" font-weight="700" transform="translate(1961.45 512)">8K</text><text font-family="DengXian,DengXian_MSFontService,sans-serif" font-size="83" font-weight="700" transform="translate(2057.7 512)">）</text><path fill="#f2cefe" stroke="#172c51" stroke-miterlimit="8" stroke-width="4.583" d="M1566.5 578.5h887v344h-887z"/><text font-family="DengXian,DengXian_MSFontService,sans-serif" font-size="83" font-weight="700" transform="translate(1917.9 728)">B</text><text font-family="DengXian,DengXian_MSFontService,sans-serif" font-size="83" font-weight="700" transform="translate(1967.75 728)">、</text><text font-family="DengXian,DengXian_MSFontService,sans-serif" font-size="83" font-weight="700" transform="translate(2050.25 728)">C</text><text font-family="DengXian,DengXian_MSFontService,sans-serif" font-size="83" font-weight="700" transform="translate(1856.03 827)">（</text><text font-family="DengXian,DengXian_MSFontService,sans-serif" font-size="83" font-weight="700" transform="translate(1938.53 827)">10K</text><text font-family="DengXian,DengXian_MSFontService,sans-serif" font-size="83" font-weight="700" transform="translate(2080.61 827)">）</text><path fill="#f2cefe" stroke="#172c51" stroke-miterlimit="8" stroke-width="4.583" d="M1566.5 922.5h887v476h-887z"/><text font-family="DengXian,DengXian_MSFontService,sans-serif" font-size="83" font-weight="700" transform="translate(1855.46 1138)">D</text><text font-family="DengXian,DengXian_MSFontService,sans-serif" font-size="83" font-weight="700" transform="translate(1914.47 1138)">、</text><text font-family="DengXian,DengXian_MSFontService,sans-serif" font-size="83" font-weight="700" transform="translate(1996.97 1138)">E</text><text font-family="DengXian,DengXian_MSFontService,sans-serif" font-size="83" font-weight="700" transform="translate(2039.94 1138)">、</text><text font-family="DengXian,DengXian_MSFontService,sans-serif" font-size="83" font-weight="700" transform="translate(2122.44 1138)">F</text><text font-family="DengXian,DengXian_MSFontService,sans-serif" font-size="83" font-weight="700" transform="translate(1856.03 1237)">（</text><text font-family="DengXian,DengXian_MSFontService,sans-serif" font-size="83" font-weight="700" transform="translate(1938.53 1237)">12K</text><text font-family="DengXian,DengXian_MSFontService,sans-serif" font-size="83" font-weight="700" transform="translate(2080.61 1237)">）</text><text font-family="DengXian,DengXian_MSFontService,sans-serif" font-size="83" font-weight="400" transform="translate(400.09 1756)">程序为</text><text font-family="DengXian,DengXian_MSFontService,sans-serif" font-size="83" font-weight="400" transform="translate(647.59 1756)">52K</text><text font-family="DengXian,DengXian_MSFontService,sans-serif" font-size="83" font-weight="400" transform="translate(1692.22 1756)">占用物理内存</text><text font-family="DengXian,DengXian_MSFontService,sans-serif" font-size="83" font-weight="400" transform="translate(2187.22 1756)">30K</text></svg>