<svg xmlns="http://www.w3.org/2000/svg" xml:space="preserve" width="3364" height="1847" overflow="hidden"><path fill="#f2cefe" stroke="#000" stroke-miterlimit="8" stroke-width="4.583" d="M103.5 822.5h474v283h-474z"/><text font-family="DengXian,DengXian_MSFontService,sans-serif" font-size="165" font-weight="700" transform="translate(182.152 1019)">CPU</text><path fill="#dee7c5" stroke="#000" stroke-miterlimit="8" stroke-width="4.583" d="M1153.5 34.5h1051v1455h-1051z"/><path fill="red" fill-rule="evenodd" stroke="#000" stroke-miterlimit="8" stroke-width="4.583" d="M1488.5 964c0-112.94 88.65-204.5 198-204.5s198 91.56 198 204.5-88.65 204.5-198 204.5-198-91.56-198-204.5Z"/><text fill="#ff0" font-family="DengXian,DengXian_MSFontService,sans-serif" font-size="248" font-weight="700" transform="translate(1600.1 1046)">+</text><path fill="#f2cefe" stroke="#000" stroke-miterlimit="8" stroke-width="4.583" d="M2747.5 83.5h614v1761h-614z"/><text font-family="DengXian,DengXian_MSFontService,sans-serif" font-size="165" font-weight="700" transform="translate(2889.07 920)">物理</text><text font-family="DengXian,DengXian_MSFontService,sans-serif" font-size="165" font-weight="700" transform="translate(2889.07 1118)">内存</text><path fill="red" stroke="#172c51" stroke-miterlimit="8" stroke-width="4.583" d="M1389.5 241.5h595v246h-595z"/><text fill="#ff0" font-family="DengXian,DengXian_MSFontService,sans-serif" font-size="83" font-weight="700" transform="translate(1438.54 342)">重定位寄存器</text><text fill="#ff0" font-family="DengXian,DengXian_MSFontService,sans-serif" font-size="83" font-weight="700" transform="translate(1527.92 441)">0x12000</text><path fill="red" d="M577.5 954.19h859.42v20.62H577.5Zm849.11-20.63 61.88 30.94-61.88 30.94ZM1696.81 487.5v220.19h-20.62V487.5Zm20.63 209.88-30.94 61.88-30.94-61.88ZM1884.5 974.813h811.395v-20.626H1884.5Zm801.083 20.624 61.875-30.937-61.875-30.938Z"/><text font-family="DengXian,DengXian_MSFontService,sans-serif" font-size="128" font-weight="700" transform="translate(1512.52 163)">MMU</text><text font-family="DengXian,DengXian_MSFontService,sans-serif" font-size="83" font-weight="700" transform="translate(697.98 882)">逻辑地址</text><text font-family="DengXian,DengXian_MSFontService,sans-serif" font-size="83" font-weight="700" transform="translate(782.38 1078)">0x456</text><text font-family="DengXian,DengXian_MSFontService,sans-serif" font-size="83" font-weight="700" transform="translate(2308.47 891)">物理地址</text><text font-family="DengXian,DengXian_MSFontService,sans-serif" font-size="83" font-weight="700" transform="translate(2324.96 1093)">0x12456</text><text font-family="Microsoft YaHei,Microsoft YaHei_MSFontService,sans-serif" font-size="147" font-weight="700" transform="translate(93.122 240)">动态重定位</text></svg>