<svg xmlns="http://www.w3.org/2000/svg" xml:space="preserve" width="2214" height="1682" overflow="hidden"><path fill="none" stroke="#b83c68" stroke-linejoin="round" stroke-miterlimit="10" stroke-width="10.313" d="m711 890.95 3.081-15.78 8.579-13.71 13.082-10.82 16.589-7.093 19.1-2.547 19.122 2.547 16.603 7.093 13.088 10.82 8.582 13.71 3.084 15.78-3.084 15.81-8.582 13.73-13.088 10.82-16.603 7.1-19.122 2.54-19.1-2.54-16.589-7.1-13.082-10.82-8.579-13.73z"/><text fill="#00f" font-family="Arial,Arial_MSFontService,sans-serif" font-size="64" font-weight="700" transform="translate(762.15 910)">+</text><path fill="none" stroke="#b83c68" stroke-linejoin="round" stroke-miterlimit="10" stroke-width="10.313" d="m1413 1078 2.77-15.17 7.73-13.18 11.79-10.39 14.95-6.81 17.21-2.45 17.23 2.45 14.96 6.81 11.8 10.39 7.73 13.18 2.78 15.17-2.78 15.15-7.73 13.16-11.8 10.38-14.96 6.82-17.23 2.44-17.21-2.44-14.95-6.82-11.79-10.38-7.73-13.16z"/><path fill="#ff9" fill-rule="evenodd" d="M545.954 273.211H901.39v92.125H545.954Zm355.436 0h321.98v92.125H901.39Zm321.98 0h478.5v92.125h-478.5Z"/><path fill="none" stroke="#f30" stroke-linejoin="round" stroke-miterlimit="10" stroke-width="6.875" d="M901.39 269.774v99m321.98-99v99m-677.416-99v99m1155.916-99v99M542.517 273.211H1705.31M542.517 365.336H1705.31"/><text fill="#00f" font-family="Kaiti SC,Kaiti SC_MSFontService,sans-serif" font-size="55" font-weight="900" transform="translate(1351.93 332)">页内偏移</text><text fill="#00f" font-family="Kaiti SC,Kaiti SC_MSFontService,sans-serif" font-size="55" font-weight="900" transform="translate(951.58 332)">页表偏移</text><text fill="#00f" font-family="Kaiti SC,Kaiti SC_MSFontService,sans-serif" font-size="55" font-weight="900" transform="translate(584.912 332)">页目录偏移</text><text fill="#00f" font-family="Kaiti SC,Kaiti SC_MSFontService,sans-serif" font-size="64" font-weight="900" transform="translate(42.31 355)">虚拟地</text><text fill="#00f" font-family="Kaiti SC,Kaiti SC_MSFontService,sans-serif" font-size="64" font-weight="900" transform="translate(234.81 355)">址</text><text fill="#00f" font-family="Arial,Arial_MSFontService,sans-serif" font-size="64" font-weight="700" transform="translate(356.268 355)">→</text><text fill="#00f" font-family="Arial,Arial_MSFontService,sans-serif" font-size="55" font-weight="700" transform="translate(1670.2 415)">0</text><text fill="#00f" font-family="Arial,Arial_MSFontService,sans-serif" font-size="55" font-weight="700" transform="translate(1231.21 417)">11</text><text fill="#00f" font-family="Arial,Arial_MSFontService,sans-serif" font-size="55" font-weight="700" transform="translate(897.13 417)">21</text><text fill="#00f" font-family="Arial,Arial_MSFontService,sans-serif" font-size="55" font-weight="700" transform="translate(552.6 417)">31</text><path fill="#ff9" fill-rule="evenodd" d="M1766.29 658.235h359.33v92.125h-359.33Zm0 92.125h359.33v92.125h-359.33Zm0 92.125h359.33v92.125h-359.33Zm0 92.125h359.33v92.12h-359.33Zm0 92.12h359.33v92.13h-359.33Z"/><path fill="#ff9" fill-rule="evenodd" d="M1766.29 1118.86h359.33v336.65h-359.33Z"/><path fill="none" stroke="#f30" stroke-linejoin="round" stroke-miterlimit="10" stroke-width="10.313" d="M1761.13 750.36h369.65m-369.65 92.125h369.65m-369.65 92.125h369.65m-369.65 92.12h369.65m-369.65 92.13h369.65m-364.49-465.782v807.582m359.33-807.582v807.582m-364.49-802.425h369.65m-369.65 797.275h369.65"/><text fill="#00f" font-family="Kaiti SC,Kaiti SC_MSFontService,sans-serif" font-size="55" font-weight="900" transform="translate(1808 1086)">代码或数据</text><text fill="#00f" font-family="Arial,Arial_MSFontService,sans-serif" font-size="64" font-weight="700" transform="translate(1938.68 1232)">.</text><text fill="#00f" font-family="Arial,Arial_MSFontService,sans-serif" font-size="64" font-weight="700" transform="translate(1938.68 1287)">.</text><text fill="#00f" font-family="Arial,Arial_MSFontService,sans-serif" font-size="64" font-weight="700" transform="translate(1938.68 1351)">.</text><text fill="#00f" font-family="Kaiti SC,Kaiti SC_MSFontService,sans-serif" font-size="64" font-weight="900" transform="translate(1810.91 635)">物理内存</text><path fill="#b83c68" fill-rule="evenodd" d="m484.69 615.025-.55-2.108-1.651-.962-1.65-.916-2.109.549-.963 1.604-9.628 16.497v-74.601l-1.513-1.512H9.54L8 555.088v953.242l1.54 1.54h136.809v-6.88H14.877V560.45h446.384v69.239l-9.628-16.497-.963-1.604-2.109-.549-1.65.916-1.605.962-.596 2.108 19.99 34.23 3.984-6.827zM1069.08 369h-6.88v170.6H769.549l-1.559 1.512.046 280.017-.046 12.657v-12.739l-9.628-16.497-.963-1.603-2.109-.596-1.605.962-1.65.962-.551 2.108 19.945 34.23 3.984-6.827 16.006-27.403-.55-2.108-3.302-1.924-2.063.596-.963 1.603-9.628 16.497-.046 12.739V546.474h292.703l1.51-1.558zm418.78 626.5-.53-1.97-.02-.1-1.65-.96-1.6-.96-2.11.55-.97 1.65-9.58 16.54v.06l-3.43 5.87 3.4-5.87-.03-18.8-2.05-622.464h-6.87l2.05 622.464.01 5.64.04 13.1-10.63-18.1-2.11-.55-3.3 1.93-.52 1.97-.03.13.96 1.65 19.12 32.54 3.96-6.83 14.98-25.84z"/><text fill="#00f" font-family="Arial,Arial_MSFontService,sans-serif" font-size="64" font-weight="700" transform="translate(1462.62 1089)">+ </text><text fill="#00f" font-family="Kaiti SC,Kaiti SC_MSFontService,sans-serif" font-size="55" font-weight="900" transform="translate(1525.37 1055)">物理地址</text><path fill="#b83c68" fill-rule="evenodd" d="m926.52 892.39-32.33-19.43-1.65-.96-2.11.55-.96 1.6-.96 1.65.5 2.11 1.65.96 16.37 9.83-74.94-.94-.02 1.1-.04 3.36-.03 2.41 74.95.95-16.61 9.4-1.65.97-.59 2.1.91 1.65.96 1.65 2.11.55 1.65-.91 26.89-15.26zM1771 1078.98l-5.91-3.48-26.6-15.67-1.61-.96-2.1.55-1.93 3.3.55 2.1 1.61.97 16.43 9.67-229.24-.83v6.87l229.24.83 12.74.04h-12.81l-18.1 10.49-.55 2.11.96 1.65.96 1.6 2.06.6 28.43-16.45z"/><path fill="#ff9" fill-rule="evenodd" d="M1333.84 1104H1012v92.92h321.84z"/><path fill="none" stroke="#f30" stroke-linejoin="round" stroke-miterlimit="10" stroke-width="10.313" d="M1012 1196.92h321.84V1104H1012z"/><path fill="#ff9" fill-rule="evenodd" d="M1333.84 1012H1012v91.92h321.84z"/><path fill="none" stroke="#f30" stroke-linejoin="round" stroke-miterlimit="10" stroke-width="10.313" d="M1012 1103.92h321.84V1012H1012z"/><path fill="#ff9" fill-rule="evenodd" d="M1333.84 920H1012v91.92h321.84z"/><path fill="none" stroke="#f30" stroke-linejoin="round" stroke-miterlimit="10" stroke-width="10.313" d="M1012 1011.92h321.84V920H1012z"/><text fill="#00f" font-family="Kaiti SC,Kaiti SC_MSFontService,sans-serif" font-size="64" font-weight="900" transform="translate(1108.1 982)">块号</text><path fill="#ff9" fill-rule="evenodd" d="M1333.84 738H1012v92.917h321.84z"/><path fill="none" stroke="#f30" stroke-linejoin="round" stroke-miterlimit="10" stroke-width="10.313" d="M1012 830.917h321.84V738H1012z"/><path fill="#ff9" fill-rule="evenodd" d="M1333.84 1196H1012v184.84h321.84z"/><path fill="none" stroke="#f30" stroke-linejoin="round" stroke-miterlimit="10" stroke-width="10.313" d="M1012 1380.84h321.84V1196H1012z"/><text fill="#00f" font-family="Arial,Arial_MSFontService,sans-serif" font-size="64" font-weight="700" transform="translate(1164.75 1238)">.</text><text fill="#00f" font-family="Arial,Arial_MSFontService,sans-serif" font-size="64" font-weight="700" transform="translate(1164.75 1292)">.</text><text fill="#00f" font-family="Arial,Arial_MSFontService,sans-serif" font-size="64" font-weight="700" transform="translate(1164.75 1355)">.</text><path fill="#ff9" fill-rule="evenodd" d="M1333.84 829H1012v91.92h321.84z"/><path fill="none" stroke="#f30" stroke-linejoin="round" stroke-miterlimit="10" stroke-width="10.313" d="M1012 920.92h321.84V829H1012z"/><path fill="#ff9" fill-rule="evenodd" d="M1290.84 1067H969v92.92h321.84z"/><path fill="none" stroke="#f30" stroke-linejoin="round" stroke-miterlimit="10" stroke-width="10.313" d="M969 1159.92h321.84V1067H969z"/><path fill="#ff9" fill-rule="evenodd" d="M1290.84 975H969v91.92h321.84z"/><path fill="none" stroke="#f30" stroke-linejoin="round" stroke-miterlimit="10" stroke-width="10.313" d="M969 1066.92h321.84V975H969z"/><path fill="#ff9" fill-rule="evenodd" d="M1290.84 883H969v91.92h321.84z"/><path fill="none" stroke="#f30" stroke-linejoin="round" stroke-miterlimit="10" stroke-width="10.313" d="M969 974.92h321.84V883H969z"/><text fill="#00f" font-family="Kaiti SC,Kaiti SC_MSFontService,sans-serif" font-size="64" font-weight="900" transform="translate(1065.2 945)">块号</text><path fill="#ff9" fill-rule="evenodd" d="M1290.84 701H969v92.917h321.84z"/><path fill="none" stroke="#f30" stroke-linejoin="round" stroke-miterlimit="10" stroke-width="10.313" d="M969 793.917h321.84V701H969z"/><path fill="#ff9" fill-rule="evenodd" d="M1290.84 1160H969v183.84h321.84z"/><path fill="none" stroke="#f30" stroke-linejoin="round" stroke-miterlimit="10" stroke-width="10.313" d="M969 1343.84h321.84V1160H969z"/><text fill="#00f" font-family="Arial,Arial_MSFontService,sans-serif" font-size="64" font-weight="700" transform="translate(1121.85 1201)">.</text><text fill="#00f" font-family="Arial,Arial_MSFontService,sans-serif" font-size="64" font-weight="700" transform="translate(1121.85 1255)">.</text><text fill="#00f" font-family="Arial,Arial_MSFontService,sans-serif" font-size="64" font-weight="700" transform="translate(1121.85 1318)">.</text><path fill="#ff9" fill-rule="evenodd" d="M1290.84 792H969v91.92h321.84z"/><path fill="none" stroke="#f30" stroke-linejoin="round" stroke-miterlimit="10" stroke-width="10.313" d="M969 883.92h321.84V792H969z"/><path fill="#ff9" fill-rule="evenodd" d="M1247.84 1030H926v92.92h321.84z"/><path fill="none" stroke="#f30" stroke-linejoin="round" stroke-miterlimit="10" stroke-width="10.313" d="M926 1122.92h321.84V1030H926z"/><path fill="#ff9" fill-rule="evenodd" d="M1247.84 938H926v91.92h321.84z"/><path fill="none" stroke="#f30" stroke-linejoin="round" stroke-miterlimit="10" stroke-width="10.313" d="M926 1029.92h321.84V938H926z"/><path fill="#ff9" fill-rule="evenodd" d="M1247.84 846H926v91.92h321.84z"/><path fill="none" stroke="#f30" stroke-linejoin="round" stroke-miterlimit="10" stroke-width="10.313" d="M926 937.92h321.84V846H926z"/><text fill="#00f" font-family="Kaiti SC,Kaiti SC_MSFontService,sans-serif" font-size="55" font-weight="900" transform="translate(1004.06 905)">页框号</text><path fill="#ff9" fill-rule="evenodd" d="M1247.84 664H926v92.917h321.84z"/><path fill="none" stroke="#f30" stroke-linejoin="round" stroke-miterlimit="10" stroke-width="10.313" d="M926 756.917h321.84V664H926z"/><path fill="#ff9" fill-rule="evenodd" d="M1247.84 1123H926v183.84h321.84z"/><path fill="none" stroke="#f30" stroke-linejoin="round" stroke-miterlimit="10" stroke-width="10.313" d="M926 1306.84h321.84V1123H926z"/><text fill="#00f" font-family="Arial,Arial_MSFontService,sans-serif" font-size="64" font-weight="700" transform="translate(1078.95 1172)">.</text><text fill="#00f" font-family="Arial,Arial_MSFontService,sans-serif" font-size="64" font-weight="700" transform="translate(1078.95 1227)">.</text><text fill="#00f" font-family="Arial,Arial_MSFontService,sans-serif" font-size="64" font-weight="700" transform="translate(1078.95 1282)">.</text><path fill="#ff9" fill-rule="evenodd" d="M1247.84 755H926v91.92h321.84z"/><path fill="none" stroke="#f30" stroke-linejoin="round" stroke-miterlimit="10" stroke-width="10.313" d="M926 846.92h321.84V755H926z"/><path fill="#b83c68" fill-rule="evenodd" d="M768.535 1061.08H626v6.87h147.908l1.515-1.51v-1.92h-6.888z"/><path fill="#b83c68" fill-rule="evenodd" d="m772.002 954.6-3.421 5.85-.046 104.07 3.444-3.44h3.444V960.45z"/><path fill="#b83c68" fill-rule="evenodd" d="M775.423 1061.08h-3.444l-3.444 3.44h6.888zM771.979 941l-19.011 32.6-.964 1.6.551 2.11 1.653.96 1.607.97 2.113-.55 10.607-18.16v-12.7h7.438z"/><path fill="#b83c68" fill-rule="evenodd" d="M775.973 947.83h-.55l.046 12.7 10.607 18.16 2.067.55 3.306-1.93.551-2.11-.964-1.6zm-.55 0h-6.888v12.62l3.467-5.85-2.962-5.07h6.383z"/><path fill="#b83c68" fill-rule="evenodd" d="M775.423 949.53h-.459l-2.962 5.07 3.421 5.85z"/><path fill="#b83c68" fill-rule="evenodd" d="M774.964 949.53h-5.924l2.962 5.07z"/><path fill="#ff9" fill-rule="evenodd" d="M625.844 1018H304v92.92h321.844z"/><path fill="none" stroke="#f30" stroke-linejoin="round" stroke-miterlimit="10" stroke-width="10.313" d="M304 1110.92h321.844V1018H304z"/><text fill="#00f" font-family="Kaiti SC,Kaiti SC_MSFontService,sans-serif" font-size="64" font-weight="900" transform="translate(968.4 632)">页表</text><text fill="#00f" font-family="Arial,Arial_MSFontService,sans-serif" font-size="64" font-weight="700" transform="translate(1096.73 632)">i</text><text fill="#00f" font-family="Kaiti SC,Kaiti SC_MSFontService,sans-serif" font-size="55" font-weight="900" transform="translate(347.129 1078)">页表</text><text fill="#00f" font-family="Arial,Arial_MSFontService,sans-serif" font-size="55" font-weight="700" transform="translate(457.129 1078)">i</text><text fill="#00f" font-family="Kaiti SC,Kaiti SC_MSFontService,sans-serif" font-size="55" font-weight="900" transform="translate(470.535 1078)">地址</text><path fill="#ff9" fill-rule="evenodd" d="M625.844 926H304v91.92h321.844z"/><path fill="none" stroke="#f30" stroke-linejoin="round" stroke-miterlimit="10" stroke-width="10.313" d="M304 1017.92h321.844V926H304z"/><path fill="#ff9" fill-rule="evenodd" d="M625.844 834H304v91.92h321.844z"/><path fill="none" stroke="#f30" stroke-linejoin="round" stroke-miterlimit="10" stroke-width="10.313" d="M304 925.92h321.844V834H304z"/><path fill="#ff9" fill-rule="evenodd" d="M625.844 741H304v92.917h321.844z"/><path fill="none" stroke="#f30" stroke-linejoin="round" stroke-miterlimit="10" stroke-width="10.313" d="M304 833.917h321.844V741H304z"/><path fill="#ff9" fill-rule="evenodd" d="M625.844 649H304v92.917h321.844z"/><path fill="none" stroke="#f30" stroke-linejoin="round" stroke-miterlimit="10" stroke-width="10.313" d="M304 741.917h321.844V649H304z"/><path fill="#b83c68" fill-rule="evenodd" d="M730.729 369h-6.872v88.811H142.539L141 459.324V1066.7l1.539 1.51h134.348v10.32l20.603-10.32 6.873-3.44-6.873-3.44-20.603-10.31v10.31H147.872V464.688h581.3l1.557-1.558zm757.071 791.18-16-27.41-3.98-6.84-19.93 34.25.55 2.07 1.65.96 1.6.96 2.11-.55 10.59-18.15v86.51h-92.74V890.31l-1.55-1.51h-122.06v6.88h116.74v341.62l1.56 1.56h103.41l1.51-1.56v-91.91l9.67 16.58.91 1.65 2.11.55 3.3-1.92z"/><path fill="#ff9" stroke="#f30" stroke-linejoin="round" stroke-miterlimit="10" stroke-width="10.313" d="M304 1111h322v184H304z"/><text fill="#00f" font-family="Arial,Arial_MSFontService,sans-serif" font-size="64" font-weight="700" transform="translate(457.484 1152)">.</text><text fill="#00f" font-family="Arial,Arial_MSFontService,sans-serif" font-size="64" font-weight="700" transform="translate(457.484 1207)">.</text><text fill="#00f" font-family="Arial,Arial_MSFontService,sans-serif" font-size="64" font-weight="700" transform="translate(457.484 1271)">.</text><text fill="#00f" font-family="Kaiti SC,Kaiti SC_MSFontService,sans-serif" font-size="64" font-weight="900" transform="translate(169.36 1363)">页目录（</text><text fill="#00f" font-family="Kaiti SC,Kaiti SC_MSFontService,sans-serif" font-size="64" font-weight="900" transform="translate(426.026 1363)">每进程一个</text><text fill="#00f" font-family="Kaiti SC,Kaiti SC_MSFontService,sans-serif" font-size="64" font-weight="900" transform="translate(743.422 1363)">）</text><path fill="#ff9" stroke="#b83c68" stroke-linejoin="round" stroke-miterlimit="10" stroke-width="4.583" d="M147.5 1460.5h419v93h-419z"/><text fill="#00f" font-family="Kaiti SC,Kaiti SC_MSFontService,sans-serif" font-size="64" font-weight="900" transform="translate(195.26 1522)">页目录地址</text><text font-family="Kaiti SC,Kaiti SC_MSFontService,sans-serif" font-size="64" font-weight="900" transform="translate(232.5 1612)">寄存器</text><path fill="#eddff0" stroke="#852a49" stroke-linejoin="round" stroke-miterlimit="10" stroke-width="6.875" d="M663.5 1517.5h1546v113h-1546z"/><text font-family="Kaiti SC,Kaiti SC_MSFontService,sans-serif" font-size="83" font-weight="900" transform="translate(769.025 1606)">二级页表可以表示</text><text font-family="Arial,Arial_MSFontService,sans-serif" font-size="83" font-weight="700" transform="translate(1449.65 1606)">4G</text><text font-family="Kaiti SC,Kaiti SC_MSFontService,sans-serif" font-size="83" font-weight="900" transform="translate(1557.82 1606)">的虚拟地址空间</text><text font-family="SimHei,SimHei_MSFontService,sans-serif" font-size="110" font-weight="700" transform="translate(542.134 149)">二级表结构及地址映射</text></svg>