<svg xmlns="http://www.w3.org/2000/svg" xml:space="preserve" width="1873" height="2008" overflow="hidden"><defs><clipPath id="a"><path d="M1085 1526h617v121h-617z"/></clipPath><clipPath id="b"><path d="M1085 1701h617v140h-617z"/></clipPath><clipPath id="c"><path d="M286 1526h617v121H286z"/></clipPath><clipPath id="d"><path d="M286 1701h617v140H286z"/></clipPath></defs><text font-family="DengXian Light,DengXian Light_MSFontService,sans-serif" font-size="183" font-weight="300" transform="translate(110.733 230)">目录文件之间</text><text font-family="DengXian Light,DengXian Light_MSFontService,sans-serif" font-size="183" font-weight="300" transform="translate(1210.73 230)">的关联</text><text font-family="Kaiti SC,Kaiti SC_MSFontService,sans-serif" font-size="46" font-weight="900" transform="translate(717.192 1912)">路径名：</text><text font-family="Arial,Arial_MSFontService,sans-serif" font-size="46" font-weight="700" transform="translate(595.458 1970)">/B/Word/Unit_A/ABC</text><path fill="#e1a7c7" stroke="#000" stroke-linejoin="round" stroke-miterlimit="10" stroke-width="6.875" d="M1342.5 767.5h234v283h-234z"/><text font-family="Kaiti SC,Kaiti SC_MSFontService,sans-serif" font-size="55" font-weight="900" transform="translate(1380.5 925)">目录</text><text font-family="Arial,Arial_MSFontService,sans-serif" font-size="55" font-weight="700" transform="translate(1502.42 925)">A</text><path fill="#e1a7c7" stroke="#000" stroke-linejoin="round" stroke-miterlimit="10" stroke-width="6.875" d="M327.5 770.5h234v282h-234z"/><text font-family="Kaiti SC,Kaiti SC_MSFontService,sans-serif" font-size="55" font-weight="900" transform="translate(367.156 927)">目录</text><text font-family="Arial,Arial_MSFontService,sans-serif" font-size="55" font-weight="700" transform="translate(489.072 927)">C</text><path fill="#e1a7c7" fill-rule="evenodd" d="M1067.9 458H834v333.79h233.9z"/><path fill="none" stroke="#000" stroke-linejoin="round" stroke-miterlimit="10" stroke-width="6.875" d="M834.5 792.29h233.9V458.5H834.5z"/><text font-family="Kaiti SC,Kaiti SC_MSFontService,sans-serif" font-size="55" font-weight="900" transform="translate(865.29 420)">根目录</text><path fill="#e1a7c7" d="M837 461h227v68H837z"/><text font-family="Arial,Arial_MSFontService,sans-serif" font-size="37" font-weight="700" transform="translate(892.561 506)">System</text><path fill="#d9d9d9" fill-rule="evenodd" d="M1063 581H834v55h229z"/><path fill="none" stroke="#000" stroke-linejoin="round" stroke-miterlimit="10" stroke-width="1.146" d="M834.5 636.5h229v-55h-229z"/><path fill="#d9d9d9" fill-rule="evenodd" d="M1063 633H834v55h229z"/><path fill="none" stroke="#000" stroke-linejoin="round" stroke-miterlimit="10" stroke-width="1.146" d="M834.5 688.5h229v-55h-229z"/><text font-family="Arial,Arial_MSFontService,sans-serif" font-size="37" font-weight="700" transform="translate(940.915 615)">B</text><text font-family="Arial,Arial_MSFontService,sans-serif" font-size="37" font-weight="700" transform="translate(940.915 668)">C</text><path fill="none" stroke="#000" stroke-linejoin="round" stroke-miterlimit="10" stroke-width="1.146" d="M834.5 584.5h229v-55h-229z"/><path fill="#d9d9d9" d="M837 530h227v52H837z"/><text font-family="Arial,Arial_MSFontService,sans-serif" font-size="37" font-weight="700" transform="translate(937.936 568)">A</text><text font-family="Arial,Arial_MSFontService,sans-serif" font-size="73" font-weight="700" transform="rotate(90 113.973 827.974)">…</text><path fill="#e1a7c7" fill-rule="evenodd" d="M1072.9 1175.98H839v103.95h233.9zM1072.9 965H839v150.39h233.9z"/><path fill="none" stroke="#000" stroke-linejoin="round" stroke-miterlimit="10" stroke-width="6.875" d="M839.5 1280.43h233.9V965.5H839.5z"/><path fill="none" stroke="#000" stroke-linejoin="round" stroke-miterlimit="10" stroke-width="1.146" d="M841.5 1118.5h229v-55h-229z"/><text font-family="Kaiti SC,Kaiti SC_MSFontService,sans-serif" font-size="46" font-weight="900" transform="translate(893.982 926)">目录</text><text font-family="Arial,Arial_MSFontService,sans-serif" font-size="46" font-weight="700" transform="translate(994.357 926)">B</text><path fill="#d9d9d9" d="M842 1064h227v52H842z"/><text font-family="Arial,Arial_MSFontService,sans-serif" font-size="37" font-weight="700" transform="translate(914.653 1102)">Draw</text><path fill="none" stroke="#000" stroke-linejoin="round" stroke-miterlimit="10" stroke-width="1.146" d="M841.5 1176.34h230.99v-60.84H841.5z"/><path fill="#d9d9d9" d="M842 1117h227v58H842z"/><text font-family="Arial,Arial_MSFontService,sans-serif" font-size="37" font-weight="700" transform="translate(913.278 1157)">Word</text><text font-family="Arial,Arial_MSFontService,sans-serif" font-size="73" font-weight="700" transform="rotate(90 -125.306 1076.694)">…</text><text font-family="Arial,Arial_MSFontService,sans-serif" font-size="73" font-weight="700" transform="rotate(90 -19.806 971.194)">…</text><path fill="#e1a7c7" fill-rule="evenodd" d="M1239.92 1293.16h233.98v120.77h-233.98Z"/><path fill="#d9d9d9" fill-rule="evenodd" d="M1239.92 1413.93h233.98v55h-233.98Z"/><path fill="#e1a7c7" fill-rule="evenodd" d="M1239.92 1468.93h233.98v138.87h-233.98Z"/><path fill="none" stroke="#000" stroke-linejoin="round" stroke-miterlimit="10" stroke-width="1.146" d="M1236.48 1413.93h240.86M1236.48 1468.93h240.86"/><path fill="none" stroke="#000" stroke-linejoin="round" stroke-miterlimit="10" stroke-width="6.875" d="M1239.92 1289.72v321.52M1473.9 1289.72v321.52M1236.48 1293.16h240.86M1236.48 1607.8h240.86"/><g clip-path="url(#a)" transform="translate(36 -233)"><text font-family="Arial,Arial_MSFontService,sans-serif" font-size="73" font-weight="700" transform="rotate(90 -127.05 1493.95)">…</text></g><text font-family="Arial,Arial_MSFontService,sans-serif" font-size="37" font-weight="700" transform="translate(1319.1 1453)">ABC</text><g clip-path="url(#b)" transform="translate(36 -233)"><text font-family="Arial,Arial_MSFontService,sans-serif" font-size="73" font-weight="700" transform="rotate(90 -224.05 1590.95)">…</text></g><text font-family="Kaiti SC,Kaiti SC_MSFontService,sans-serif" font-size="37" font-weight="900" transform="translate(1278.75 1256)">目录</text><text font-family="Arial,Arial_MSFontService,sans-serif" font-size="37" font-weight="700" transform="translate(1358.96 1256)">Draw</text><path fill="#e1a7c7" fill-rule="evenodd" d="M440.354 1293.16h233.979v120.77H440.354Z"/><path fill="#d9d9d9" fill-rule="evenodd" d="M440.354 1413.93h233.979v55H440.354Z"/><path fill="#e1a7c7" fill-rule="evenodd" d="M440.354 1468.93h233.979v138.87H440.354Z"/><path fill="none" stroke="#000" stroke-linejoin="round" stroke-miterlimit="10" stroke-width="1.146" d="M436.916 1413.93H677.77M436.916 1468.93H677.77"/><path fill="none" stroke="#000" stroke-linejoin="round" stroke-miterlimit="10" stroke-width="6.875" d="M440.354 1289.72v321.52M674.333 1289.72v321.52M436.916 1293.16H677.77M436.916 1607.8H677.77"/><g clip-path="url(#c)" transform="translate(36 -233)"><text font-family="Arial,Arial_MSFontService,sans-serif" font-size="73" font-weight="700" transform="rotate(90 -526.832 1094.168)">…</text></g><text font-family="Arial,Arial_MSFontService,sans-serif" font-size="37" font-weight="700" transform="translate(503.374 1453)">Unit_A</text><g clip-path="url(#d)" transform="translate(36 -233)"><text font-family="Arial,Arial_MSFontService,sans-serif" font-size="73" font-weight="700" transform="rotate(90 -623.832 1191.168)">…</text></g><text font-family="Kaiti SC,Kaiti SC_MSFontService,sans-serif" font-size="37" font-weight="900" transform="translate(476.871 1256)">目录</text><text font-family="Arial,Arial_MSFontService,sans-serif" font-size="37" font-weight="700" transform="translate(557.08 1256)">Word</text><text font-family="Kaiti SC,Kaiti SC_MSFontService,sans-serif" font-size="37" font-weight="900" transform="translate(864.053 1539)">目录</text><text font-family="Arial,Arial_MSFontService,sans-serif" font-size="37" font-weight="700" transform="translate(944.261 1539)">Unit_A</text><path fill="#e1a7c7" fill-rule="evenodd" d="M1089.9 1573H856v272.93h233.9z"/><path fill="none" stroke="#000" stroke-linejoin="round" stroke-miterlimit="10" stroke-width="6.875" d="M856.5 1846.43h233.9V1573.5H856.5z"/><path fill="none" stroke="#000" stroke-linejoin="round" stroke-miterlimit="10" stroke-width="1.146" d="M858.5 1725.4h229v-46.9h-229z"/><path fill="#d9d9d9" d="M858 1678h229v47H858z"/><text font-family="Arial,Arial_MSFontService,sans-serif" font-size="37" font-weight="700" transform="translate(935.438 1712)">ABC</text><text font-family="Arial,Arial_MSFontService,sans-serif" font-size="73" font-weight="700" transform="rotate(90 -404.106 1370.894)">…</text><text font-family="Arial,Arial_MSFontService,sans-serif" font-size="73" font-weight="700" transform="rotate(90 -319.606 1286.394)">…</text><path fill="#d9d9d9" stroke="#000" stroke-linejoin="round" stroke-miterlimit="10" stroke-width="5.729" d="M1459 1681h229v149h-229z"/><text font-family="Kaiti SC,Kaiti SC_MSFontService,sans-serif" font-size="46" font-weight="900" transform="translate(1527.49 1740)">文件</text><text font-family="Arial,Arial_MSFontService,sans-serif" font-size="46" font-weight="700" transform="translate(1534.59 1798)">ABC</text><path fill="#d9d9d9" stroke="#000" stroke-linejoin="round" stroke-miterlimit="10" stroke-width="5.729" d="M332 1830h229v150H332z"/><text font-family="Kaiti SC,Kaiti SC_MSFontService,sans-serif" font-size="46" font-weight="900" transform="translate(399.881 1889)">文件</text><text font-family="Arial,Arial_MSFontService,sans-serif" font-size="46" font-weight="700" transform="translate(407.214 1947)">ABC</text><text font-family="Kaiti SC,Kaiti SC_MSFontService,sans-serif" font-size="46" font-weight="900" transform="translate(1494.64 1901)">路径名：</text><text font-family="Arial,Arial_MSFontService,sans-serif" font-size="46" font-weight="700" transform="translate(1450.94 1959)">/B/Draw/ABC</text><path fill-rule="evenodd" d="m1153.71 622.939-1.51-1.557h-84.45v6.87h79.09V833.81H956.064l-1.513 1.51v28.02l-9.674-16.57-.917-1.6-2.109-.6-3.301 1.93-.55 2.1 19.99 34.22 3.974-6.83 15.969-27.39-.55-2.1-1.651-.97-1.604-.96-2.109.6-.963 1.6-9.628 16.49v-22.58H1152.2l1.51-1.56V622.939M1479 733.092l-.55-2.107-1.65-.916-1.61-.962-2.1.55-10.6 18.137v.082l-3.46 5.849 3.42-5.849.04-188.006v-5.313l-1.55-1.557h-397.73v6.87h392.41v187.924l-7.67-13.053-2.01-3.435-.91-1.649-2.11-.55-1.65.962-1.65.916-.55 2.107 19.99 34.218 3.97-6.829zM427.825 731.585l-3.271 1.925-.554 2.109 19.937 34.241 3.976-6.828h-7.408v-12.72l-9.623-16.527-.952-1.604z"/><path fill-rule="evenodd" d="M440.505 750.312v12.72h6.864v-1.742h-6.397l2.963-5.089z"/><path fill-rule="evenodd" d="m460.044 731.585-2.105.596-.951 1.604-9.619 16.527v12.72h.544l15.957-27.413-.554-2.109zM443.935 756.201l-2.963 5.089h5.926z"/><path fill-rule="evenodd" d="m447.369 750.312-3.434 5.889 2.963 5.089h.471z"/><path fill-rule="evenodd" d="M833.844 657H442.038l-1.533 1.559v91.753l3.43 5.889 3.43-5.889.004-86.436h-3.432l3.432-3.438h386.475z"/><path fill-rule="evenodd" d="m447.369 660.438-3.432 3.438h3.432zM833.844 660.438H447.369v3.438h386.475zM841.062 1142.11H559.044l-1.557 1.51v51.71l-9.617-16.55-.962-1.61-2.107-.55-1.603.92-1.648.97-.55 2.11 19.922 34.33 3.979-6.84 15.988-27.49-.549-2.11-1.649-.97-1.649-.92-2.107.55-.915 1.61-9.664 16.63V1149h276.706v-6.89M1379.82 1180.62l-.55-2.11-1.65-.97-1.6-.92-2.11.55-.96 1.61-9.62 16.55v-106.81l-1.56-1.52h-291.72v6.89h286.41v101.52l-9.66-16.63-.92-1.61-2.11-.55-1.64.92-1.65.97-.55 2.11 19.97 34.33 3.97-6.84zM429.842 1791.86l-3.287 1.9-.555 2.1 19.998 34.11 3.986-6.8h-7.428v-12.67l-10.607-18.09z"/><path fill-rule="evenodd" d="M442.556 1810.5v12.67h6.885v-1.72h-6.417l2.974-5.08z"/><path fill-rule="evenodd" d="m462.155 1791.86-2.107.55-10.607 18.09v12.67h.543l16.009-27.31-.556-2.1zM445.998 1816.37l-2.974 5.08h5.949z"/><path fill-rule="evenodd" d="m449.441 1810.5-3.443 5.87 2.975 5.08h.468z"/><path fill-rule="evenodd" d="M856.917 1706H444.098l-1.542 1.53v102.97l3.442 5.87 3.443-5.87v-97.65h-3.443l3.443-3.42h407.476z"/><path fill-rule="evenodd" d="m449.441 1709.43-3.443 3.42h3.443zM856.917 1709.43H449.441v3.42h407.476zM941.951 1462.76l-3.298 1.92-.549 2.11.962 1.6 19.009 32.56 3.947-6.77h-7.383v-12.66l-9.664-16.57-.917-1.64z"/><path fill-rule="evenodd" d="M954.639 1481.52v12.66h6.871v-1.75h-6.413l2.955-5.06zM974.198 1462.76l-2.107.55-10.581 18.13v12.74h.512l15.016-25.79.962-1.6-.55-2.11-1.649-.96z"/><path fill-rule="evenodd" d="m958.052 1487.37-2.955 5.06h5.909z"/><path fill-rule="evenodd" d="m961.51 1481.44-3.458 5.93 2.954 5.06h.504zM954.639 1444.44v37.08l3.413 5.85 3.458-5.93v-33.57h-3.435z"/><path fill-rule="evenodd" d="M959.953 1441H675v6.87h279.639v-3.43h6.871v-1.88z"/><path fill-rule="evenodd" d="M961.51 1444.44h-6.871l3.436 3.43h3.435zM1557.56 1642.77l-1.65.95-1.66.92-.56 2.1 20.09 34.13 3.99-6.8h-7.45v-12.6l-9.72-16.51-.92-1.65z"/><path fill-rule="evenodd" d="M1570.32 1661.47v12.6h6.91v-1.73h-6.45l2.98-5.04zM1589.99 1642.77l-2.12.54-10.64 18.08v12.68h.54l16.05-27.33-.56-2.1-1.66-.92z"/><path fill-rule="evenodd" d="m1573.76 1667.3-2.98 5.04h5.95z"/><path fill-rule="evenodd" d="m1577.23 1661.39-3.47 5.91 2.97 5.04h.5zM1570.32 1454.43v207.04l3.44 5.83 3.47-5.91v-203.54h-3.45z"/><path fill-rule="evenodd" d="M1575.67 1451H1477v6.85h93.32v-3.42h6.91v-1.88z"/><path fill-rule="evenodd" d="M1577.23 1454.43h-6.91l3.46 3.42h3.45z"/></svg>