<svg xmlns="http://www.w3.org/2000/svg" xml:space="preserve" width="2416" height="1118" overflow="hidden"><path fill="red" fill-rule="evenodd" stroke="red" stroke-miterlimit="8" stroke-width="4.583" d="M5.5 251.5c0-75.663 74.992-137 167.5-137s167.5 61.337 167.5 137-74.992 137-167.5 137S5.5 327.163 5.5 251.5Z"/><text fill="#fff" font-family="Microsoft YaHei,Microsoft YaHei_MSFontService,sans-serif" font-size="83" font-weight="700" transform="translate(89.946 280)">创建</text><path fill="red" fill-rule="evenodd" stroke="red" stroke-miterlimit="8" stroke-width="4.583" d="M696.5 251.5c0-75.663 74.99-137 167.5-137s167.5 61.337 167.5 137-74.99 137-167.5 137-167.5-61.337-167.5-137Z"/><text fill="#fff" font-family="Microsoft YaHei,Microsoft YaHei_MSFontService,sans-serif" font-size="83" font-weight="700" transform="translate(780.8 280)">就绪</text><path fill="red" fill-rule="evenodd" stroke="red" stroke-miterlimit="8" stroke-width="4.583" d="M1387.5 251.5c0-75.663 74.99-137 167.5-137s167.5 61.337 167.5 137-74.99 137-167.5 137-167.5-61.337-167.5-137Z"/><text fill="#fff" font-family="Microsoft YaHei,Microsoft YaHei_MSFontService,sans-serif" font-size="83" font-weight="700" transform="translate(1471.65 280)">运行</text><path fill="red" fill-rule="evenodd" stroke="red" stroke-miterlimit="8" stroke-width="4.583" d="M2077.5 251.5c0-75.663 75.22-137 168-137s168 61.337 168 137-75.22 137-168 137-168-61.337-168-137Z"/><text fill="#fff" font-family="Microsoft YaHei,Microsoft YaHei_MSFontService,sans-serif" font-size="83" font-weight="700" transform="translate(2162.51 280)">终止</text><path fill="red" fill-rule="evenodd" stroke="red" stroke-miterlimit="8" stroke-width="4.583" d="M696.5 978.5c0-75.66 74.99-137 167.5-137s167.5 61.34 167.5 137-74.99 137-167.5 137-167.5-61.34-167.5-137Z"/><text fill="#fff" font-family="Microsoft YaHei,Microsoft YaHei_MSFontService,sans-serif" font-size="83" font-weight="700" transform="translate(780.8 1007)">阻塞</text><path fill="red" d="m340.5 241.187 304.058.001v20.625l-304.058-.001Zm293.746-20.624 61.875 30.937-61.875 30.938Z"/><text font-family="Microsoft YaHei,Microsoft YaHei_MSFontService,sans-serif" font-size="83" font-weight="700" transform="translate(425.946 208)">提交</text><path fill="red" d="M982.5 144.188h402.25v20.625l-402.25-.001Zm391.93-20.625 61.88 30.937-61.88 30.938ZM1679.535 263.154l346.853-1.168-.07-20.625-346.853 1.169Zm336.61 19.492 61.77-31.146-61.979-30.729ZM873.813 841.91V440.058h-20.625V841.91Zm20.625-391.539L863.5 388.496l-30.937 61.875Z"/><text font-family="Microsoft YaHei,Microsoft YaHei_MSFontService,sans-serif" font-size="83" font-weight="700" transform="translate(1133.4 106)">调度</text><text font-family="Microsoft YaHei,Microsoft YaHei_MSFontService,sans-serif" font-size="83" font-weight="700" transform="translate(1815.95 208)">释放</text><path fill="red" d="M1436.31 337.188h-402.246v20.625h402.246Zm-391.933-20.625L982.502 347.5l61.875 30.938Z"/><text font-family="Microsoft YaHei,Microsoft YaHei_MSFontService,sans-serif" font-size="83" font-weight="700" transform="translate(1133.4 443)">超时</text><text font-family="Microsoft YaHei,Microsoft YaHei_MSFontService,sans-serif" font-size="83" font-weight="700" transform="translate(696.366 643)">事件发生</text><path fill="red" d="M1547.023 381.66 1057.99 933.318 1073.424 947l489.033-551.66Zm-497.626 530.26-17.894 66.824 64.195-25.779Z"/><text font-family="Microsoft YaHei,Microsoft YaHei_MSFontService,sans-serif" font-size="83" font-weight="700" transform="translate(1183.13 650)">等待事件</text></svg>