<svg width="2416" height="1118" xmlns="http://www.w3.org/2000/svg" xmlns:xlink="http://www.w3.org/1999/xlink" xml:space="preserve" overflow="hidden"><g transform="translate(-297 -192)"><g><path d="M302.5 443.5C302.5 367.837 377.492 306.5 470 306.5 562.508 306.5 637.5 367.837 637.5 443.5 637.5 519.163 562.508 580.5 470 580.5 377.492 580.5 302.5 519.163 302.5 443.5Z" stroke="#FF0000" stroke-width="4.58333" stroke-linecap="butt" stroke-linejoin="miter" stroke-miterlimit="8" stroke-opacity="1" fill="#FF0000" fill-rule="evenodd" fill-opacity="1"/><text fill="#FFFFFF" fill-opacity="1" font-family="Microsoft YaHei,Microsoft YaHei_MSFontService,sans-serif" font-style="normal" font-variant="normal" font-weight="700" font-stretch="normal" font-size="83" text-anchor="start" direction="ltr" writing-mode="lr-tb" unicode-bidi="normal" text-decoration="none" transform="matrix(1 0 0 1 386.946 472)">创建</text><path d="M993.5 443.5C993.5 367.837 1068.49 306.5 1161 306.5 1253.51 306.5 1328.5 367.837 1328.5 443.5 1328.5 519.163 1253.51 580.5 1161 580.5 1068.49 580.5 993.5 519.163 993.5 443.5Z" stroke="#FF0000" stroke-width="4.58333" stroke-linecap="butt" stroke-linejoin="miter" stroke-miterlimit="8" stroke-opacity="1" fill="#FF0000" fill-rule="evenodd" fill-opacity="1"/><text fill="#FFFFFF" fill-opacity="1" font-family="Microsoft YaHei,Microsoft YaHei_MSFontService,sans-serif" font-style="normal" font-variant="normal" font-weight="700" font-stretch="normal" font-size="83" text-anchor="start" direction="ltr" writing-mode="lr-tb" unicode-bidi="normal" text-decoration="none" transform="matrix(1 0 0 1 1077.8 472)">就绪</text><path d="M1684.5 443.5C1684.5 367.837 1759.49 306.5 1852 306.5 1944.51 306.5 2019.5 367.837 2019.5 443.5 2019.5 519.163 1944.51 580.5 1852 580.5 1759.49 580.5 1684.5 519.163 1684.5 443.5Z" stroke="#FF0000" stroke-width="4.58333" stroke-linecap="butt" stroke-linejoin="miter" stroke-miterlimit="8" stroke-opacity="1" fill="#FF0000" fill-rule="evenodd" fill-opacity="1"/><text fill="#FFFFFF" fill-opacity="1" font-family="Microsoft YaHei,Microsoft YaHei_MSFontService,sans-serif" font-style="normal" font-variant="normal" font-weight="700" font-stretch="normal" font-size="83" text-anchor="start" direction="ltr" writing-mode="lr-tb" unicode-bidi="normal" text-decoration="none" transform="matrix(1 0 0 1 1768.65 472)">运行</text><path d="M2374.5 443.5C2374.5 367.837 2449.72 306.5 2542.5 306.5 2635.28 306.5 2710.5 367.837 2710.5 443.5 2710.5 519.163 2635.28 580.5 2542.5 580.5 2449.72 580.5 2374.5 519.163 2374.5 443.5Z" stroke="#FF0000" stroke-width="4.58333" stroke-linecap="butt" stroke-linejoin="miter" stroke-miterlimit="8" stroke-opacity="1" fill="#FF0000" fill-rule="evenodd" fill-opacity="1"/><text fill="#FFFFFF" fill-opacity="1" font-family="Microsoft YaHei,Microsoft YaHei_MSFontService,sans-serif" font-style="normal" font-variant="normal" font-weight="700" font-stretch="normal" font-size="83" text-anchor="start" direction="ltr" writing-mode="lr-tb" unicode-bidi="normal" text-decoration="none" transform="matrix(1 0 0 1 2459.51 472)">终止</text><path d="M993.5 1170.5C993.5 1094.84 1068.49 1033.5 1161 1033.5 1253.51 1033.5 1328.5 1094.84 1328.5 1170.5 1328.5 1246.16 1253.51 1307.5 1161 1307.5 1068.49 1307.5 993.5 1246.16 993.5 1170.5Z" stroke="#FF0000" stroke-width="4.58333" stroke-linecap="butt" stroke-linejoin="miter" stroke-miterlimit="8" stroke-opacity="1" fill="#FF0000" fill-rule="evenodd" fill-opacity="1"/><text fill="#FFFFFF" fill-opacity="1" font-family="Microsoft YaHei,Microsoft YaHei_MSFontService,sans-serif" font-style="normal" font-variant="normal" font-weight="700" font-stretch="normal" font-size="83" text-anchor="start" direction="ltr" writing-mode="lr-tb" unicode-bidi="normal" text-decoration="none" transform="matrix(1 0 0 1 1077.8 1199)">阻塞</text><path d="M637.5 433.187 941.558 433.188 941.558 453.813 637.5 453.812ZM931.246 412.563 993.121 443.5 931.246 474.438Z" fill="#FF0000" fill-rule="nonzero" fill-opacity="1"/><text fill="#000000" fill-opacity="1" font-family="Microsoft YaHei,Microsoft YaHei_MSFontService,sans-serif" font-style="normal" font-variant="normal" font-weight="700" font-stretch="normal" font-size="83" text-anchor="start" direction="ltr" writing-mode="lr-tb" unicode-bidi="normal" text-decoration="none" transform="matrix(1 0 0 1 722.946 400)">提交</text><path d="M1279.5 336.188 1681.75 336.188 1681.75 356.813 1279.5 356.812ZM1671.43 315.563 1733.31 346.5 1671.43 377.438Z" fill="#FF0000" fill-rule="nonzero" fill-opacity="1"/><path d="M0.0347306-10.3124 346.888-9.1443 346.818 11.4806-0.0347306 10.3124ZM336.645-29.8039 398.415 1.3418 336.436 32.0707Z" fill="#FF0000" fill-rule="nonzero" fill-opacity="1" transform="matrix(1 0 0 -1 1976.5 444.842)"/><path d="M10.3125-8.20817e-06 10.3128 401.852-10.3122 401.852-10.3125 8.20817e-06ZM30.9378 391.539 0.000360892 453.414-30.9372 391.539Z" fill="#FF0000" fill-rule="nonzero" fill-opacity="1" transform="matrix(1 0 0 -1 1160.5 1033.91)"/><text fill="#000000" fill-opacity="1" font-family="Microsoft YaHei,Microsoft YaHei_MSFontService,sans-serif" font-style="normal" font-variant="normal" font-weight="700" font-stretch="normal" font-size="83" text-anchor="start" direction="ltr" writing-mode="lr-tb" unicode-bidi="normal" text-decoration="none" transform="matrix(1 0 0 1 1430.4 298)">调度</text><text fill="#000000" fill-opacity="1" font-family="Microsoft YaHei,Microsoft YaHei_MSFontService,sans-serif" font-style="normal" font-variant="normal" font-weight="700" font-stretch="normal" font-size="83" text-anchor="start" direction="ltr" writing-mode="lr-tb" unicode-bidi="normal" text-decoration="none" transform="matrix(1 0 0 1 2112.95 400)">释放</text><path d="M8.20105e-06-10.3125 402.246-10.3122 402.246 10.3128-8.20105e-06 10.3125ZM391.933-30.9372 453.808 0.000360892 391.933 30.9378Z" fill="#FF0000" fill-rule="nonzero" fill-opacity="1" transform="matrix(-1 0 0 1 1733.31 539.5)"/><text fill="#000000" fill-opacity="1" font-family="Microsoft YaHei,Microsoft YaHei_MSFontService,sans-serif" font-style="normal" font-variant="normal" font-weight="700" font-stretch="normal" font-size="83" text-anchor="start" direction="ltr" writing-mode="lr-tb" unicode-bidi="normal" text-decoration="none" transform="matrix(1 0 0 1 1430.4 635)">超时</text><text fill="#000000" fill-opacity="1" font-family="Microsoft YaHei,Microsoft YaHei_MSFontService,sans-serif" font-style="normal" font-variant="normal" font-weight="700" font-stretch="normal" font-size="83" text-anchor="start" direction="ltr" writing-mode="lr-tb" unicode-bidi="normal" text-decoration="none" transform="matrix(1 0 0 1 993.366 835)">事件发生</text><path d="M7.7169-6.84085 496.75 544.819 481.316 558.5-7.7169 6.84085ZM505.343 523.42 523.237 590.244 459.042 564.465Z" fill="#FF0000" fill-rule="nonzero" fill-opacity="1" transform="matrix(-1 0 0 1 1851.74 580.5)"/><text fill="#000000" fill-opacity="1" font-family="Microsoft YaHei,Microsoft YaHei_MSFontService,sans-serif" font-style="normal" font-variant="normal" font-weight="700" font-stretch="normal" font-size="83" text-anchor="start" direction="ltr" writing-mode="lr-tb" unicode-bidi="normal" text-decoration="none" transform="matrix(1 0 0 1 1480.13 842)">等待事件</text></g></g></svg>