<svg xmlns="http://www.w3.org/2000/svg" xml:space="preserve" width="2846" height="1765" overflow="hidden"><path fill="#cdd5e8" stroke="#172c51" stroke-miterlimit="8" stroke-width="4.583" d="M6.5 57.5h1001v668H6.5z"/><text font-family="DengXian,DengXian_MSFontService,sans-serif" font-size="128" font-weight="700" transform="translate(121.412 357)">内核地址空间</text><text font-family="DengXian,DengXian_MSFontService,sans-serif" font-size="128" font-weight="700" transform="translate(216.516 511)">0xFFFF......</text><path fill="#cdd5e8" stroke="#172c51" stroke-miterlimit="8" stroke-width="4.583" d="M6.5 725.5h1001v667H6.5z"/><text font-family="DengXian,DengXian_MSFontService,sans-serif" font-size="128" font-weight="700" transform="translate(121.412 1025)">用户地址空间</text><text font-family="DengXian,DengXian_MSFontService,sans-serif" font-size="128" font-weight="700" transform="translate(203.912 1179)">0x0000......</text><path fill="#4472c4" d="M1009.205 726.771 1586.644 83.72l-3.411-3.062-577.438 643.052Zm589.722-625.862 13.572-49.413-47.674 18.791ZM1008.58 1390.48l568.58 302.69-2.15 4.05-568.59-302.7Zm574.23 282.33 29.69 41.77-51.23-1.31Z"/><path fill="#a2e19e" stroke="#172c51" stroke-miterlimit="8" stroke-width="4.583" d="M1612.5 51.5h874v334h-874z"/><text font-family="DengXian,DengXian_MSFontService,sans-serif" font-size="110" font-weight="700" transform="translate(1994 255)">栈</text><path fill="#cdd5e8" stroke="#172c51" stroke-miterlimit="8" stroke-width="4.583" d="M1612.5 385.5h874v334h-874z"/><text font-family="DengXian,DengXian_MSFontService,sans-serif" font-size="55" font-weight="700" transform="translate(1746.5 570)">共享库、内存映射文件等</text><path fill="#dde6c4" stroke="#172c51" stroke-miterlimit="8" stroke-width="4.583" d="M1612.5 724.5h874v334h-874z"/><text font-family="DengXian,DengXian_MSFontService,sans-serif" font-size="110" font-weight="700" transform="translate(1994 928)">堆</text><path fill="#f2cefe" stroke="#172c51" stroke-miterlimit="8" stroke-width="4.583" d="M1612.5 1053.5h874v333h-874z"/><text font-family="DengXian,DengXian_MSFontService,sans-serif" font-size="110" font-weight="700" transform="translate(1884 1257)">数据段</text><path fill="#e8e9fd" stroke="#172c51" stroke-miterlimit="8" stroke-width="4.583" d="M1612.5 1381.5h874v333h-874z"/><text font-family="DengXian,DengXian_MSFontService,sans-serif" font-size="110" font-weight="700" transform="translate(1884 1585)">代码段</text><path fill="#ed7d31" d="M2660.71 1476.844h-148.925v10.313h148.925Zm-143.768-10.312L2486.004 1482l30.938 15.469Z"/><text font-family="DengXian,DengXian_MSFontService,sans-serif" font-size="83" font-weight="700" transform="translate(2693.47 1508)">PC</text><path fill="#ed7d31" d="M2660.71 379.844h-148.925v10.313h148.925Zm-143.768-10.312L2486.004 385l30.938 15.469Z"/><text font-family="DengXian,DengXian_MSFontService,sans-serif" font-size="83" font-weight="700" transform="translate(2693.47 412)">SP</text></svg>