<svg xmlns="http://www.w3.org/2000/svg" xml:space="preserve" width="2062" height="1407" overflow="hidden"><path fill="#4472c4" stroke="#172c51" stroke-miterlimit="8" stroke-width="10.313" d="M758 188h552v202H758zM758 390h552v202H758zM758 592h552v202H758zM758 794h552v201H758zM758 995h552v202H758zM758 1197h552v202H758z"/><text font-family="DengXian,DengXian_MSFontService,sans-serif" font-size="83" font-weight="400" transform="translate(873 108)">缓冲区</text><text font-family="DengXian,DengXian_MSFontService,sans-serif" font-size="83" font-weight="400" transform="translate(51.574 494)">生产者进程</text><path fill="#f2cefe" stroke="#172c51" stroke-miterlimit="8" stroke-width="4.583" d="M65.5 554.5h370v133h-370z"/><text font-family="DengXian,DengXian_MSFontService,sans-serif" font-size="83" font-weight="400" transform="translate(228.416 648)">1</text><path fill="#f2cefe" stroke="#172c51" stroke-miterlimit="8" stroke-width="4.583" d="M65.5 712.5h370v133h-370z"/><text font-family="DengXian,DengXian_MSFontService,sans-serif" font-size="83" font-weight="400" transform="translate(228.416 806)">2</text><path fill="#f2cefe" stroke="#172c51" stroke-miterlimit="8" stroke-width="4.583" d="M65.5 893.5h370v133h-370z"/><text font-family="DengXian,DengXian_MSFontService,sans-serif" font-size="83" font-weight="400" transform="translate(221.254 987)">…</text><path fill="#4472c4" d="M458.5 790.06H719v6.88H458.5Zm255.91-10.31 27.5 13.75-27.5 13.75Z"/><text font-family="DengXian,DengXian_MSFontService,sans-serif" font-size="83" font-weight="400" transform="translate(544.41 745)">put</text><path fill="#4472c4" d="M1325.5 790.06H1586v6.88h-260.5Zm255.91-10.31 27.5 13.75-27.5 13.75Z"/><text font-family="DengXian,DengXian_MSFontService,sans-serif" font-size="83" font-weight="400" transform="translate(1395.49 736)">get</text><text font-family="DengXian,DengXian_MSFontService,sans-serif" font-size="83" font-weight="400" transform="translate(1599.49 500)">消费者进程</text><path fill="#cdd5e8" stroke="#172c51" stroke-miterlimit="8" stroke-width="4.583" d="M1623.5 562.5h370v133h-370z"/><text font-family="DengXian,DengXian_MSFontService,sans-serif" font-size="83" font-weight="400" transform="translate(1786.3 656)">1</text><path fill="#cdd5e8" stroke="#172c51" stroke-miterlimit="8" stroke-width="4.583" d="M1623.5 720.5h370v133h-370z"/><text font-family="DengXian,DengXian_MSFontService,sans-serif" font-size="83" font-weight="400" transform="translate(1786.3 814)">2</text><path fill="#cdd5e8" stroke="#172c51" stroke-miterlimit="8" stroke-width="4.583" d="M1623.5 901.5h370v133h-370z"/><text font-family="DengXian,DengXian_MSFontService,sans-serif" font-size="83" font-weight="400" transform="translate(1779.14 995)">…</text></svg>