<svg xmlns="http://www.w3.org/2000/svg" xml:space="preserve" width="3892" height="1485" overflow="hidden"><path fill="#4472c4" fill-rule="evenodd" d="M253.803 12.605h477.745v151.549H253.803ZM731.548 12.605h477.742v151.549H731.548Z"/><path fill="#cfd5ea" fill-rule="evenodd" d="M253.803 164.154h477.745v132H253.803ZM731.548 164.154h477.742v132H731.548Z"/><path fill="#e9ebf5" fill-rule="evenodd" d="M253.803 296.154h477.745v132H253.803ZM731.548 296.154h477.742v132H731.548Z"/><path fill="#cfd5ea" fill-rule="evenodd" d="M253.803 428.154h477.745v132H253.803ZM731.548 428.154h477.742v132H731.548Z"/><path fill="none" stroke="#fff" stroke-linejoin="round" stroke-miterlimit="10" stroke-width="4.583" d="M731.548 10.314v552.132"/><path fill="none" stroke="#fff" stroke-linejoin="round" stroke-miterlimit="10" stroke-width="13.75" d="M251.511 164.154h960.079"/><path fill="none" stroke="#fff" stroke-linejoin="round" stroke-miterlimit="10" stroke-width="4.583" d="M251.511 296.154h960.079M251.511 428.154h960.079M253.803 10.314v552.132M1209.29 10.314v552.132M251.511 12.605h960.079M251.511 560.154h960.079"/><text fill="#fff" font-family="DengXian,DengXian_MSFontService,sans-serif" font-size="83" font-weight="700" transform="translate(805.421 106)">运行时间</text><text fill="#fff" font-family="DengXian,DengXian_MSFontService,sans-serif" font-size="83" font-weight="700" transform="translate(410.175 106)">进程</text><text font-family="DengXian,DengXian_MSFontService,sans-serif" font-size="83" font-weight="400" transform="translate(909.978 258)">24s</text><text font-family="DengXian,DengXian_MSFontService,sans-serif" font-size="83" font-weight="400" transform="translate(448.274 258)">P1</text><text font-family="DengXian,DengXian_MSFontService,sans-serif" font-size="83" font-weight="400" transform="translate(931.749 390)">3s</text><text font-family="DengXian,DengXian_MSFontService,sans-serif" font-size="83" font-weight="400" transform="translate(448.274 390)">P2</text><text font-family="DengXian,DengXian_MSFontService,sans-serif" font-size="83" font-weight="400" transform="translate(931.749 522)">3s</text><text font-family="DengXian,DengXian_MSFontService,sans-serif" font-size="83" font-weight="400" transform="translate(448.274 522)">P3</text><path fill="#f2cefe" stroke="#172c51" stroke-miterlimit="8" stroke-width="4.583" d="M625.5 751.5h1169v143h-1169z"/><text font-family="Microsoft YaHei,Microsoft YaHei_MSFontService,sans-serif" font-size="83" font-weight="700" transform="translate(1156.59 852)">P1</text><text font-family="DengXian,DengXian_MSFontService,sans-serif" font-size="83" font-weight="400" transform="translate(602.694 988)">0</text><text font-family="DengXian,DengXian_MSFontService,sans-serif" font-size="83" font-weight="400" transform="translate(1771.28 994)">24</text><path fill="#f2cefe" stroke="#172c51" stroke-miterlimit="8" stroke-width="4.583" d="M1794.5 751.5h233v143h-233z"/><text font-family="Microsoft YaHei,Microsoft YaHei_MSFontService,sans-serif" font-size="83" font-weight="700" transform="translate(1857.35 852)">P2</text><path fill="#f2cefe" stroke="#172c51" stroke-miterlimit="8" stroke-width="4.583" d="M2027.5 751.5h232v143h-232z"/><text font-family="Microsoft YaHei,Microsoft YaHei_MSFontService,sans-serif" font-size="83" font-weight="700" transform="translate(2090.29 852)">P3</text><text font-family="DengXian,DengXian_MSFontService,sans-serif" font-size="83" font-weight="400" transform="translate(1982.24 988)">27</text><text font-family="DengXian,DengXian_MSFontService,sans-serif" font-size="83" font-weight="400" transform="translate(2214.11 988)">30</text><text font-family="DengXian,DengXian_MSFontService,sans-serif" font-size="83" font-weight="400" transform="translate(54.418 849)">FCFS</text><text font-family="DengXian,DengXian_MSFontService,sans-serif" font-size="83" font-weight="400" transform="translate(226.865 849)">调度算法：</text><path fill="#f2cefe" stroke="#172c51" stroke-miterlimit="8" stroke-width="4.583" d="M1082.5 1175.5h1168v144h-1168z"/><text font-family="Microsoft YaHei,Microsoft YaHei_MSFontService,sans-serif" font-size="83" font-weight="700" transform="translate(1613.13 1277)">P1</text><text font-family="DengXian,DengXian_MSFontService,sans-serif" font-size="83" font-weight="400" transform="translate(602.694 1413)">0</text><text font-family="DengXian,DengXian_MSFontService,sans-serif" font-size="83" font-weight="400" transform="translate(813.652 1407)">3</text><path fill="#f2cefe" stroke="#172c51" stroke-miterlimit="8" stroke-width="4.583" d="M625.5 1175.5h233v144h-233z"/><text font-family="Microsoft YaHei,Microsoft YaHei_MSFontService,sans-serif" font-size="83" font-weight="700" transform="translate(688.762 1277)">P2</text><path fill="#f2cefe" stroke="#172c51" stroke-miterlimit="8" stroke-width="4.583" d="M858.5 1175.5h233v144h-233z"/><text font-family="Microsoft YaHei,Microsoft YaHei_MSFontService,sans-serif" font-size="83" font-weight="700" transform="translate(921.703 1277)">P3</text><text font-family="DengXian,DengXian_MSFontService,sans-serif" font-size="83" font-weight="400" transform="translate(1039.21 1407)">6</text><text font-family="DengXian,DengXian_MSFontService,sans-serif" font-size="83" font-weight="400" transform="translate(2214.11 1413)">30</text><path fill="none" stroke="#000" stroke-linejoin="round" stroke-miterlimit="10" stroke-width="3.438" d="M2492.5 1131.5c70.19-6.47 128.03 12.27 199.17 0s152.5 25.33 212.21 0c59.7-25.33 96.63 18.03 173.11 0s116.47 19.04 173.11 0c56.65-19.04 101.85 19.74 199.17 0 97.33-19.74 175.79 40.55 346.23 0 11.16 35.93-8.27 58.44 0 109.51s-4.24 69.54 0 123.49c-70.08 9.34-131.89-6.47-173.11 0s-92.86-11.71-160.09 0c-67.22 11.71-115.71-18.21-186.14 0-70.42 18.21-103.29-12.26-173.11 0-69.83 12.26-118.58-5.33-160.08 0-41.51 5.33-116.8-.68-147.06 0-30.25.68-240.12-2.65-303.41 0-3.73-51.22 4.93-73.82 0-121.16s.56-67.94 0-111.84Z"/><text fill="#0070c0" font-family="DengXian,DengXian_MSFontService,sans-serif" font-size="83" font-weight="400" transform="translate(2525.41 1224)">吞吐量：</text><text fill="#0070c0" font-family="DengXian,DengXian_MSFontService,sans-serif" font-size="83" font-weight="400" transform="translate(2877.75 1224)">3job/30s = 0.1job/s</text><text fill="#0070c0" font-family="DengXian,DengXian_MSFontService,sans-serif" font-size="83" font-weight="400" transform="translate(2525.41 1323)">平均周转时间</text><text fill="#0070c0" font-family="DengXian,DengXian_MSFontService,sans-serif" font-size="83" font-weight="400" transform="translate(3020.41 1323)">(20s+3s+6s)/3 = 13s</text><text font-family="DengXian,DengXian_MSFontService,sans-serif" font-size="83" font-weight="400" transform="translate(54.418 1274)">SJF</text><text font-family="DengXian,DengXian_MSFontService,sans-serif" font-size="83" font-weight="400" transform="translate(164.418 1274)">调度算法：</text><path fill="none" stroke="#000" stroke-linejoin="round" stroke-miterlimit="10" stroke-width="3.438" d="M2492.5 706.5c74.93-6.467 136.68 12.271 212.62 0 75.95-12.271 162.8 25.334 226.54 0s103.16 18.025 184.8 0c81.65-18.025 124.34 19.042 184.81 0s108.73 19.742 212.62 0c103.9-19.742 187.66 40.546 369.61 0 11.92 35.932-8.83 58.442 0 109.51s-4.52 69.54 0 123.49c-74.81 9.34-140.8-6.47-184.8 0-44.01 6.47-99.14-11.71-170.9 0s-123.53-18.21-198.71 0-110.27-12.26-184.81 0-126.58-5.33-170.89 0-124.69-.68-156.99 0c-32.29.68-256.34-2.65-323.9 0-3.99-51.22 5.27-73.816 0-121.16s.59-67.937 0-111.84Z"/><text fill="#0070c0" font-family="DengXian,DengXian_MSFontService,sans-serif" font-size="83" font-weight="400" transform="translate(2525.41 799)">吞吐量：</text><text fill="#0070c0" font-family="DengXian,DengXian_MSFontService,sans-serif" font-size="83" font-weight="400" transform="translate(2877.75 799)">3job/30s = 0.1job/s</text><text fill="#0070c0" font-family="DengXian,DengXian_MSFontService,sans-serif" font-size="83" font-weight="400" transform="translate(2525.41 898)">平均周转时间</text><text fill="#0070c0" font-family="DengXian,DengXian_MSFontService,sans-serif" font-size="83" font-weight="400" transform="translate(3020.41 898)">(24s+27s+30s)/3 = 27s</text></svg>