<svg width="3892" height="1485" xmlns="http://www.w3.org/2000/svg" xmlns:xlink="http://www.w3.org/1999/xlink" xml:space="preserve" overflow="hidden"><g transform="translate(-68 -119)"><g><path d="M321.803 131.605 799.548 131.605 799.548 283.154 321.803 283.154Z" fill="#4472C4" fill-rule="evenodd" fill-opacity="1"/><path d="M799.548 131.605 1277.29 131.605 1277.29 283.154 799.548 283.154Z" fill="#4472C4" fill-rule="evenodd" fill-opacity="1"/><path d="M321.803 283.154 799.548 283.154 799.548 415.154 321.803 415.154Z" fill="#CFD5EA" fill-rule="evenodd" fill-opacity="1"/><path d="M799.548 283.154 1277.29 283.154 1277.29 415.154 799.548 415.154Z" fill="#CFD5EA" fill-rule="evenodd" fill-opacity="1"/><path d="M321.803 415.154 799.548 415.154 799.548 547.154 321.803 547.154Z" fill="#E9EBF5" fill-rule="evenodd" fill-opacity="1"/><path d="M799.548 415.154 1277.29 415.154 1277.29 547.154 799.548 547.154Z" fill="#E9EBF5" fill-rule="evenodd" fill-opacity="1"/><path d="M321.803 547.154 799.548 547.154 799.548 679.154 321.803 679.154Z" fill="#CFD5EA" fill-rule="evenodd" fill-opacity="1"/><path d="M799.548 547.154 1277.29 547.154 1277.29 679.154 799.548 679.154Z" fill="#CFD5EA" fill-rule="evenodd" fill-opacity="1"/><path d="M799.548 129.314 799.548 681.446" stroke="#FFFFFF" stroke-width="4.58333" stroke-linecap="butt" stroke-linejoin="round" stroke-miterlimit="10" stroke-opacity="1" fill="none" fill-rule="evenodd"/><path d="M319.511 283.154 1279.59 283.154" stroke="#FFFFFF" stroke-width="13.75" stroke-linecap="butt" stroke-linejoin="round" stroke-miterlimit="10" stroke-opacity="1" fill="none" fill-rule="evenodd"/><path d="M319.511 415.154 1279.59 415.154" stroke="#FFFFFF" stroke-width="4.58333" stroke-linecap="butt" stroke-linejoin="round" stroke-miterlimit="10" stroke-opacity="1" fill="none" fill-rule="evenodd"/><path d="M319.511 547.154 1279.59 547.154" stroke="#FFFFFF" stroke-width="4.58333" stroke-linecap="butt" stroke-linejoin="round" stroke-miterlimit="10" stroke-opacity="1" fill="none" fill-rule="evenodd"/><path d="M321.803 129.314 321.803 681.446" stroke="#FFFFFF" stroke-width="4.58333" stroke-linecap="butt" stroke-linejoin="round" stroke-miterlimit="10" stroke-opacity="1" fill="none" fill-rule="evenodd"/><path d="M1277.29 129.314 1277.29 681.446" stroke="#FFFFFF" stroke-width="4.58333" stroke-linecap="butt" stroke-linejoin="round" stroke-miterlimit="10" stroke-opacity="1" fill="none" fill-rule="evenodd"/><path d="M319.511 131.605 1279.59 131.605" stroke="#FFFFFF" stroke-width="4.58333" stroke-linecap="butt" stroke-linejoin="round" stroke-miterlimit="10" stroke-opacity="1" fill="none" fill-rule="evenodd"/><path d="M319.511 679.154 1279.59 679.154" stroke="#FFFFFF" stroke-width="4.58333" stroke-linecap="butt" stroke-linejoin="round" stroke-miterlimit="10" stroke-opacity="1" fill="none" fill-rule="evenodd"/><text fill="#FFFFFF" fill-opacity="1" font-family="DengXian,DengXian_MSFontService,sans-serif" font-style="normal" font-variant="normal" font-weight="700" font-stretch="normal" font-size="83" text-anchor="start" direction="ltr" writing-mode="lr-tb" unicode-bidi="normal" text-decoration="none" transform="matrix(1 0 0 1 873.421 225)">运行时间</text><text fill="#FFFFFF" fill-opacity="1" font-family="DengXian,DengXian_MSFontService,sans-serif" font-style="normal" font-variant="normal" font-weight="700" font-stretch="normal" font-size="83" text-anchor="start" direction="ltr" writing-mode="lr-tb" unicode-bidi="normal" text-decoration="none" transform="matrix(1 0 0 1 478.175 225)">进程</text><text fill="#000000" fill-opacity="1" font-family="DengXian,DengXian_MSFontService,sans-serif" font-style="normal" font-variant="normal" font-weight="400" font-stretch="normal" font-size="83" text-anchor="start" direction="ltr" writing-mode="lr-tb" unicode-bidi="normal" text-decoration="none" transform="matrix(1 0 0 1 977.978 377)">24s</text><text fill="#000000" fill-opacity="1" font-family="DengXian,DengXian_MSFontService,sans-serif" font-style="normal" font-variant="normal" font-weight="400" font-stretch="normal" font-size="83" text-anchor="start" direction="ltr" writing-mode="lr-tb" unicode-bidi="normal" text-decoration="none" transform="matrix(1 0 0 1 516.274 377)">P1</text><text fill="#000000" fill-opacity="1" font-family="DengXian,DengXian_MSFontService,sans-serif" font-style="normal" font-variant="normal" font-weight="400" font-stretch="normal" font-size="83" text-anchor="start" direction="ltr" writing-mode="lr-tb" unicode-bidi="normal" text-decoration="none" transform="matrix(1 0 0 1 999.749 509)">3s</text><text fill="#000000" fill-opacity="1" font-family="DengXian,DengXian_MSFontService,sans-serif" font-style="normal" font-variant="normal" font-weight="400" font-stretch="normal" font-size="83" text-anchor="start" direction="ltr" writing-mode="lr-tb" unicode-bidi="normal" text-decoration="none" transform="matrix(1 0 0 1 516.274 509)">P2</text><text fill="#000000" fill-opacity="1" font-family="DengXian,DengXian_MSFontService,sans-serif" font-style="normal" font-variant="normal" font-weight="400" font-stretch="normal" font-size="83" text-anchor="start" direction="ltr" writing-mode="lr-tb" unicode-bidi="normal" text-decoration="none" transform="matrix(1 0 0 1 999.749 641)">3s</text><text fill="#000000" fill-opacity="1" font-family="DengXian,DengXian_MSFontService,sans-serif" font-style="normal" font-variant="normal" font-weight="400" font-stretch="normal" font-size="83" text-anchor="start" direction="ltr" writing-mode="lr-tb" unicode-bidi="normal" text-decoration="none" transform="matrix(1 0 0 1 516.274 641)">P3</text><rect x="693.5" y="870.5" width="1169" height="143" stroke="#172C51" stroke-width="4.58333" stroke-linecap="butt" stroke-linejoin="miter" stroke-miterlimit="8" stroke-opacity="1" fill="#F2CEFE" fill-opacity="1"/><text fill="#000000" fill-opacity="1" font-family="Microsoft YaHei,Microsoft YaHei_MSFontService,sans-serif" font-style="normal" font-variant="normal" font-weight="700" font-stretch="normal" font-size="83" text-anchor="start" direction="ltr" writing-mode="lr-tb" unicode-bidi="normal" text-decoration="none" transform="matrix(1 0 0 1 1224.59 971)">P1</text><text fill="#000000" fill-opacity="1" font-family="DengXian,DengXian_MSFontService,sans-serif" font-style="normal" font-variant="normal" font-weight="400" font-stretch="normal" font-size="83" text-anchor="start" direction="ltr" writing-mode="lr-tb" unicode-bidi="normal" text-decoration="none" transform="matrix(1 0 0 1 670.694 1107)">0</text><text fill="#000000" fill-opacity="1" font-family="DengXian,DengXian_MSFontService,sans-serif" font-style="normal" font-variant="normal" font-weight="400" font-stretch="normal" font-size="83" text-anchor="start" direction="ltr" writing-mode="lr-tb" unicode-bidi="normal" text-decoration="none" transform="matrix(1 0 0 1 1839.28 1113)">24</text><rect x="1862.5" y="870.5" width="233" height="143" stroke="#172C51" stroke-width="4.58333" stroke-linecap="butt" stroke-linejoin="miter" stroke-miterlimit="8" stroke-opacity="1" fill="#F2CEFE" fill-opacity="1"/><text fill="#000000" fill-opacity="1" font-family="Microsoft YaHei,Microsoft YaHei_MSFontService,sans-serif" font-style="normal" font-variant="normal" font-weight="700" font-stretch="normal" font-size="83" text-anchor="start" direction="ltr" writing-mode="lr-tb" unicode-bidi="normal" text-decoration="none" transform="matrix(1 0 0 1 1925.35 971)">P2</text><rect x="2095.5" y="870.5" width="232" height="143" stroke="#172C51" stroke-width="4.58333" stroke-linecap="butt" stroke-linejoin="miter" stroke-miterlimit="8" stroke-opacity="1" fill="#F2CEFE" fill-opacity="1"/><text fill="#000000" fill-opacity="1" font-family="Microsoft YaHei,Microsoft YaHei_MSFontService,sans-serif" font-style="normal" font-variant="normal" font-weight="700" font-stretch="normal" font-size="83" text-anchor="start" direction="ltr" writing-mode="lr-tb" unicode-bidi="normal" text-decoration="none" transform="matrix(1 0 0 1 2158.29 971)">P3</text><text fill="#000000" fill-opacity="1" font-family="DengXian,DengXian_MSFontService,sans-serif" font-style="normal" font-variant="normal" font-weight="400" font-stretch="normal" font-size="83" text-anchor="start" direction="ltr" writing-mode="lr-tb" unicode-bidi="normal" text-decoration="none" transform="matrix(1 0 0 1 2050.24 1107)">27</text><text fill="#000000" fill-opacity="1" font-family="DengXian,DengXian_MSFontService,sans-serif" font-style="normal" font-variant="normal" font-weight="400" font-stretch="normal" font-size="83" text-anchor="start" direction="ltr" writing-mode="lr-tb" unicode-bidi="normal" text-decoration="none" transform="matrix(1 0 0 1 2282.11 1107)">30</text><text fill="#000000" fill-opacity="1" font-family="DengXian,DengXian_MSFontService,sans-serif" font-style="normal" font-variant="normal" font-weight="400" font-stretch="normal" font-size="83" text-anchor="start" direction="ltr" writing-mode="lr-tb" unicode-bidi="normal" text-decoration="none" transform="matrix(1 0 0 1 122.418 968)">FCFS</text><text fill="#000000" fill-opacity="1" font-family="DengXian,DengXian_MSFontService,sans-serif" font-style="normal" font-variant="normal" font-weight="400" font-stretch="normal" font-size="83" text-anchor="start" direction="ltr" writing-mode="lr-tb" unicode-bidi="normal" text-decoration="none" transform="matrix(1 0 0 1 294.865 968)">调度算法：</text><rect x="1150.5" y="1294.5" width="1168" height="144" stroke="#172C51" stroke-width="4.58333" stroke-linecap="butt" stroke-linejoin="miter" stroke-miterlimit="8" stroke-opacity="1" fill="#F2CEFE" fill-opacity="1"/><text fill="#000000" fill-opacity="1" font-family="Microsoft YaHei,Microsoft YaHei_MSFontService,sans-serif" font-style="normal" font-variant="normal" font-weight="700" font-stretch="normal" font-size="83" text-anchor="start" direction="ltr" writing-mode="lr-tb" unicode-bidi="normal" text-decoration="none" transform="matrix(1 0 0 1 1681.13 1396)">P1</text><text fill="#000000" fill-opacity="1" font-family="DengXian,DengXian_MSFontService,sans-serif" font-style="normal" font-variant="normal" font-weight="400" font-stretch="normal" font-size="83" text-anchor="start" direction="ltr" writing-mode="lr-tb" unicode-bidi="normal" text-decoration="none" transform="matrix(1 0 0 1 670.694 1532)">0</text><text fill="#000000" fill-opacity="1" font-family="DengXian,DengXian_MSFontService,sans-serif" font-style="normal" font-variant="normal" font-weight="400" font-stretch="normal" font-size="83" text-anchor="start" direction="ltr" writing-mode="lr-tb" unicode-bidi="normal" text-decoration="none" transform="matrix(1 0 0 1 881.652 1526)">3</text><rect x="693.5" y="1294.5" width="233" height="144" stroke="#172C51" stroke-width="4.58333" stroke-linecap="butt" stroke-linejoin="miter" stroke-miterlimit="8" stroke-opacity="1" fill="#F2CEFE" fill-opacity="1"/><text fill="#000000" fill-opacity="1" font-family="Microsoft YaHei,Microsoft YaHei_MSFontService,sans-serif" font-style="normal" font-variant="normal" font-weight="700" font-stretch="normal" font-size="83" text-anchor="start" direction="ltr" writing-mode="lr-tb" unicode-bidi="normal" text-decoration="none" transform="matrix(1 0 0 1 756.762 1396)">P2</text><rect x="926.5" y="1294.5" width="233" height="144" stroke="#172C51" stroke-width="4.58333" stroke-linecap="butt" stroke-linejoin="miter" stroke-miterlimit="8" stroke-opacity="1" fill="#F2CEFE" fill-opacity="1"/><text fill="#000000" fill-opacity="1" font-family="Microsoft YaHei,Microsoft YaHei_MSFontService,sans-serif" font-style="normal" font-variant="normal" font-weight="700" font-stretch="normal" font-size="83" text-anchor="start" direction="ltr" writing-mode="lr-tb" unicode-bidi="normal" text-decoration="none" transform="matrix(1 0 0 1 989.703 1396)">P3</text><text fill="#000000" fill-opacity="1" font-family="DengXian,DengXian_MSFontService,sans-serif" font-style="normal" font-variant="normal" font-weight="400" font-stretch="normal" font-size="83" text-anchor="start" direction="ltr" writing-mode="lr-tb" unicode-bidi="normal" text-decoration="none" transform="matrix(1 0 0 1 1107.21 1526)">6</text><text fill="#000000" fill-opacity="1" font-family="DengXian,DengXian_MSFontService,sans-serif" font-style="normal" font-variant="normal" font-weight="400" font-stretch="normal" font-size="83" text-anchor="start" direction="ltr" writing-mode="lr-tb" unicode-bidi="normal" text-decoration="none" transform="matrix(1 0 0 1 2282.11 1532)">30</text><path d="M2560.5 1250.5C2630.69 1244.03 2688.53 1262.77 2759.67 1250.5 2830.81 1238.23 2912.17 1275.83 2971.88 1250.5 3031.58 1225.17 3068.51 1268.53 3144.99 1250.5 3221.47 1232.47 3261.46 1269.54 3318.1 1250.5 3374.75 1231.46 3419.95 1270.24 3517.27 1250.5 3614.6 1230.76 3693.06 1291.05 3863.5 1250.5 3874.66 1286.43 3855.23 1308.94 3863.5 1360.01 3871.77 1411.08 3859.26 1429.55 3863.5 1483.5 3793.42 1492.84 3731.61 1477.03 3690.39 1483.5 3649.17 1489.97 3597.53 1471.79 3530.3 1483.5 3463.08 1495.21 3414.59 1465.29 3344.16 1483.5 3273.74 1501.71 3240.87 1471.24 3171.05 1483.5 3101.22 1495.76 3052.47 1478.17 3010.97 1483.5 2969.46 1488.83 2894.17 1482.82 2863.91 1483.5 2833.66 1484.18 2623.79 1480.85 2560.5 1483.5 2556.77 1432.28 2565.43 1409.68 2560.5 1362.34 2555.57 1315 2561.06 1294.4 2560.5 1250.5Z" stroke="#000000" stroke-width="3.4375" stroke-linecap="butt" stroke-linejoin="round" stroke-miterlimit="10" stroke-opacity="1" fill="none" fill-rule="evenodd"/><text fill="#0070C0" fill-opacity="1" font-family="DengXian,DengXian_MSFontService,sans-serif" font-style="normal" font-variant="normal" font-weight="400" font-stretch="normal" font-size="83" text-anchor="start" direction="ltr" writing-mode="lr-tb" unicode-bidi="normal" text-decoration="none" transform="matrix(1 0 0 1 2593.41 1343)">吞吐量：</text><text fill="#0070C0" fill-opacity="1" font-family="DengXian,DengXian_MSFontService,sans-serif" font-style="normal" font-variant="normal" font-weight="400" font-stretch="normal" font-size="83" text-anchor="start" direction="ltr" writing-mode="lr-tb" unicode-bidi="normal" text-decoration="none" transform="matrix(1 0 0 1 2945.75 1343)">3job/30s = 0.1job/s</text><text fill="#0070C0" fill-opacity="1" font-family="DengXian,DengXian_MSFontService,sans-serif" font-style="normal" font-variant="normal" font-weight="400" font-stretch="normal" font-size="83" text-anchor="start" direction="ltr" writing-mode="lr-tb" unicode-bidi="normal" text-decoration="none" transform="matrix(1 0 0 1 2593.41 1442)">平均周转时间</text><text fill="#0070C0" fill-opacity="1" font-family="DengXian,DengXian_MSFontService,sans-serif" font-style="normal" font-variant="normal" font-weight="400" font-stretch="normal" font-size="83" text-anchor="start" direction="ltr" writing-mode="lr-tb" unicode-bidi="normal" text-decoration="none" transform="matrix(1 0 0 1 3088.41 1442)">(20s+3s+6s)/3 = 13s</text><text fill="#000000" fill-opacity="1" font-family="DengXian,DengXian_MSFontService,sans-serif" font-style="normal" font-variant="normal" font-weight="400" font-stretch="normal" font-size="83" text-anchor="start" direction="ltr" writing-mode="lr-tb" unicode-bidi="normal" text-decoration="none" transform="matrix(1 0 0 1 122.418 1393)">SJF</text><text fill="#000000" fill-opacity="1" font-family="DengXian,DengXian_MSFontService,sans-serif" font-style="normal" font-variant="normal" font-weight="400" font-stretch="normal" font-size="83" text-anchor="start" direction="ltr" writing-mode="lr-tb" unicode-bidi="normal" text-decoration="none" transform="matrix(1 0 0 1 232.418 1393)">调度算法：</text><path d="M2560.5 825.5C2635.43 819.033 2697.18 837.771 2773.12 825.5 2849.07 813.229 2935.92 850.834 2999.66 825.5 3063.4 800.166 3102.82 843.525 3184.46 825.5 3266.11 807.475 3308.8 844.542 3369.27 825.5 3429.74 806.457 3478 845.242 3581.89 825.5 3685.79 805.758 3769.55 866.046 3951.5 825.5 3963.42 861.432 3942.67 883.942 3951.5 935.01 3960.33 986.078 3946.98 1004.55 3951.5 1058.5 3876.69 1067.84 3810.7 1052.03 3766.7 1058.5 3722.69 1064.97 3667.56 1046.79 3595.8 1058.5 3524.04 1070.21 3472.27 1040.29 3397.09 1058.5 3321.91 1076.71 3286.82 1046.24 3212.28 1058.5 3137.74 1070.76 3085.7 1053.17 3041.39 1058.5 2997.08 1063.83 2916.7 1057.82 2884.4 1058.5 2852.11 1059.18 2628.06 1055.85 2560.5 1058.5 2556.51 1007.28 2565.77 984.684 2560.5 937.34 2555.23 889.996 2561.09 869.403 2560.5 825.5Z" stroke="#000000" stroke-width="3.4375" stroke-linecap="butt" stroke-linejoin="round" stroke-miterlimit="10" stroke-opacity="1" fill="none" fill-rule="evenodd"/><text fill="#0070C0" fill-opacity="1" font-family="DengXian,DengXian_MSFontService,sans-serif" font-style="normal" font-variant="normal" font-weight="400" font-stretch="normal" font-size="83" text-anchor="start" direction="ltr" writing-mode="lr-tb" unicode-bidi="normal" text-decoration="none" transform="matrix(1 0 0 1 2593.41 918)">吞吐量：</text><text fill="#0070C0" fill-opacity="1" font-family="DengXian,DengXian_MSFontService,sans-serif" font-style="normal" font-variant="normal" font-weight="400" font-stretch="normal" font-size="83" text-anchor="start" direction="ltr" writing-mode="lr-tb" unicode-bidi="normal" text-decoration="none" transform="matrix(1 0 0 1 2945.75 918)">3job/30s = 0.1job/s</text><text fill="#0070C0" fill-opacity="1" font-family="DengXian,DengXian_MSFontService,sans-serif" font-style="normal" font-variant="normal" font-weight="400" font-stretch="normal" font-size="83" text-anchor="start" direction="ltr" writing-mode="lr-tb" unicode-bidi="normal" text-decoration="none" transform="matrix(1 0 0 1 2593.41 1017)">平均周转时间</text><text fill="#0070C0" fill-opacity="1" font-family="DengXian,DengXian_MSFontService,sans-serif" font-style="normal" font-variant="normal" font-weight="400" font-stretch="normal" font-size="83" text-anchor="start" direction="ltr" writing-mode="lr-tb" unicode-bidi="normal" text-decoration="none" transform="matrix(1 0 0 1 3088.41 1017)">(24s+27s+30s)/3 = 27s</text></g></g></svg>