<svg xmlns="http://www.w3.org/2000/svg" xml:space="preserve" width="3662" height="1709" overflow="hidden"><path fill="#4472c4" fill-rule="evenodd" d="M857.024 11.891h436.266v158.513H857.024ZM1293.29 11.891h436.26v158.513h-436.26ZM1729.55 11.891h436.26v158.513h-436.26Z"/><path fill="#cfd5ea" fill-rule="evenodd" d="M857.024 170.404h436.266v132H857.024ZM1293.29 170.404h436.26v132h-436.26ZM1729.55 170.404h436.26v132h-436.26Z"/><path fill="#e9ebf5" fill-rule="evenodd" d="M857.024 302.404h436.266v132H857.024ZM1293.29 302.404h436.26v132h-436.26ZM1729.55 302.404h436.26v132h-436.26Z"/><path fill="#cfd5ea" fill-rule="evenodd" d="M857.024 434.404h436.266v132H857.024ZM1293.29 434.404h436.26v132h-436.26ZM1729.55 434.404h436.26v132h-436.26Z"/><path fill="#e9ebf5" fill-rule="evenodd" d="M857.024 566.404h436.266v132H857.024ZM1293.29 566.404h436.26v132h-436.26ZM1729.55 566.404h436.26v132h-436.26Z"/><path fill="none" stroke="#fff" stroke-linejoin="round" stroke-miterlimit="10" stroke-width="4.583" d="M1293.29 9.599v691.097M1729.55 9.599v691.097"/><path fill="none" stroke="#fff" stroke-linejoin="round" stroke-miterlimit="10" stroke-width="13.75" d="M854.732 170.404H2168.1"/><path fill="none" stroke="#fff" stroke-linejoin="round" stroke-miterlimit="10" stroke-width="4.583" d="M854.732 302.404H2168.1M854.732 434.404H2168.1M854.732 566.404H2168.1M857.024 9.599v691.097M2165.81 9.599v691.097M854.732 11.891H2168.1M854.732 698.404H2168.1"/><text fill="#fff" font-family="DengXian,DengXian_MSFontService,sans-serif" font-size="83" font-weight="700" transform="translate(1762.55 105)">运行时间</text><text fill="#fff" font-family="DengXian,DengXian_MSFontService,sans-serif" font-size="83" font-weight="700" transform="translate(1326.29 105)">到达时刻</text><text fill="#fff" font-family="DengXian,DengXian_MSFontService,sans-serif" font-size="83" font-weight="700" transform="translate(890.024 105)">进程</text><text font-family="DengXian,DengXian_MSFontService,sans-serif" font-size="83" font-weight="400" transform="translate(1762.55 264)">7</text><text font-family="DengXian,DengXian_MSFontService,sans-serif" font-size="83" font-weight="400" transform="translate(1326.29 264)">0</text><text font-family="DengXian,DengXian_MSFontService,sans-serif" font-size="83" font-weight="400" transform="translate(890.024 264)">P1</text><text font-family="DengXian,DengXian_MSFontService,sans-serif" font-size="83" font-weight="400" transform="translate(1762.55 396)">4</text><text font-family="DengXian,DengXian_MSFontService,sans-serif" font-size="83" font-weight="400" transform="translate(1326.29 396)">2</text><text font-family="DengXian,DengXian_MSFontService,sans-serif" font-size="83" font-weight="400" transform="translate(890.024 396)">P2</text><text font-family="DengXian,DengXian_MSFontService,sans-serif" font-size="83" font-weight="400" transform="translate(1762.55 528)">1</text><text font-family="DengXian,DengXian_MSFontService,sans-serif" font-size="83" font-weight="400" transform="translate(1326.29 528)">4</text><text font-family="DengXian,DengXian_MSFontService,sans-serif" font-size="83" font-weight="400" transform="translate(890.024 528)">P3</text><text font-family="DengXian,DengXian_MSFontService,sans-serif" font-size="83" font-weight="400" transform="translate(1762.55 660)">4</text><text font-family="DengXian,DengXian_MSFontService,sans-serif" font-size="83" font-weight="400" transform="translate(1326.29 660)">5</text><text font-family="DengXian,DengXian_MSFontService,sans-serif" font-size="83" font-weight="400" transform="translate(890.024 660)">P4</text><text font-family="DengXian,DengXian_MSFontService,sans-serif" font-size="83" font-weight="700" transform="translate(200.605 932)">SJF</text><text font-family="DengXian,DengXian_MSFontService,sans-serif" font-size="83" font-weight="700" transform="translate(53.664 1031)">（非抢占）</text><text font-family="DengXian,DengXian_MSFontService,sans-serif" font-size="83" font-weight="700" transform="translate(157.636 1423)">SRTN</text><text font-family="DengXian,DengXian_MSFontService,sans-serif" font-size="83" font-weight="700" transform="translate(94.913 1522)">（抢占）</text><path fill="none" stroke="#000" stroke-linejoin="round" stroke-miterlimit="10" stroke-width="3.438" d="M2654.5 841.5c98.02-23.792 130.05 20.124 209.79 0s170.59 7.335 219.78 0 113.81 12.312 189.81 0 124.23 22.629 189.81 0 111.46 4.29 189.81 0c3.4 48.95-10.58 77.81 0 119.34s-.03 80.48 0 114.66c-86.62 24.41-137.34-16.91-209.79 0s-111.36-7.62-169.83 0-100.57-20.81-179.82 0-122.74-9.43-199.8 0-176.89-8.63-239.76 0c-10.74-30.56 8.6-79.97 0-112.32s6.88-63.29 0-121.68Z"/><text fill="#0070c0" font-family="DengXian,DengXian_MSFontService,sans-serif" font-size="83" font-weight="400" transform="translate(2687.4 935)">平均周转时间</text><text fill="#0070c0" font-family="DengXian,DengXian_MSFontService,sans-serif" font-size="83" font-weight="400" transform="translate(3182.4 935)">:</text><text fill="#0070c0" font-family="DengXian,DengXian_MSFontService,sans-serif" font-size="83" font-weight="400" transform="translate(2687.4 1034)">(7+8+12+16)/4 = 10.75(s)</text><path fill="none" stroke="#000" stroke-linejoin="round" stroke-miterlimit="10" stroke-width="3.438" d="M2654.5 1320.5c85.08-2.46 117.49 4.03 182.07 0s150.96 13.95 190.74 0 109.55 2.55 164.73 0 103.06 16.33 164.73 0 121.83 17.23 164.73 0c3.4 48.95-10.58 77.81 0 119.34s-.03 80.48 0 114.66c-90.3 6.23-98.34-19.85-182.07 0s-98.26-7.04-147.39 0-89.45-2.82-156.06 0-119.58-8.98-173.4 0-147.05-.45-208.08 0c-10.74-30.56 8.6-79.97 0-112.32s6.88-63.29 0-121.68Z"/><text fill="#0070c0" font-family="DengXian,DengXian_MSFontService,sans-serif" font-size="83" font-weight="400" transform="translate(2687.4 1414)">平均周转时间</text><text fill="#0070c0" font-family="DengXian,DengXian_MSFontService,sans-serif" font-size="83" font-weight="400" transform="translate(3182.4 1414)">:</text><text fill="#0070c0" font-family="DengXian,DengXian_MSFontService,sans-serif" font-size="83" font-weight="400" transform="translate(2687.4 1513)">(16+5+1+4)/4 = 6.5(s)</text><path fill="#f2cefe" stroke="#172c51" stroke-miterlimit="8" stroke-width="4.583" d="M445.5 887.5h910v143h-910z"/><text font-family="Microsoft YaHei,Microsoft YaHei_MSFontService,sans-serif" font-size="48" font-weight="700" transform="translate(869.172 976)">P1</text><text font-family="DengXian,DengXian_MSFontService,sans-serif" font-size="83" font-weight="400" transform="translate(422.793 1124)">0</text><path fill="#f2cefe" stroke="#172c51" stroke-miterlimit="8" stroke-width="4.583" d="M1355.5 887.5h129v143h-129z"/><text font-family="Microsoft YaHei,Microsoft YaHei_MSFontService,sans-serif" font-size="48" font-weight="700" transform="translate(1388.86 976)">P3</text><path fill="#f2cefe" stroke="#172c51" stroke-miterlimit="8" stroke-width="4.583" d="M1485.5 886.5h520v144h-520z"/><text font-family="Microsoft YaHei,Microsoft YaHei_MSFontService,sans-serif" font-size="48" font-weight="700" transform="translate(1714.3 975)">P2</text><path fill="#f2cefe" stroke="#172c51" stroke-miterlimit="8" stroke-width="4.583" d="M2004.5 885.5h520v143h-520z"/><text font-family="Microsoft YaHei,Microsoft YaHei_MSFontService,sans-serif" font-size="48" font-weight="700" transform="translate(2233.34 974)">P4</text><text font-family="DengXian,DengXian_MSFontService,sans-serif" font-size="83" font-weight="400" transform="translate(1333.62 1124)">7</text><text font-family="DengXian,DengXian_MSFontService,sans-serif" font-size="83" font-weight="400" transform="translate(1455.99 1124)">8</text><text font-family="DengXian,DengXian_MSFontService,sans-serif" font-size="83" font-weight="400" transform="translate(1959.86 1121)">1</text><text font-family="DengXian,DengXian_MSFontService,sans-serif" font-size="83" font-weight="400" transform="translate(2003.41 1121)">2</text><text font-family="DengXian,DengXian_MSFontService,sans-serif" font-size="83" font-weight="400" transform="translate(2469.42 1124)">1</text><text font-family="DengXian,DengXian_MSFontService,sans-serif" font-size="83" font-weight="400" transform="translate(2512.97 1124)">6</text><path fill="#f2cefe" stroke="#172c51" stroke-miterlimit="8" stroke-width="4.583" d="M445.5 1369.5h260v144h-260z"/><text font-family="Microsoft YaHei,Microsoft YaHei_MSFontService,sans-serif" font-size="48" font-weight="700" transform="translate(544.529 1458)">P1</text><text font-family="DengXian,DengXian_MSFontService,sans-serif" font-size="83" font-weight="400" transform="translate(437.531 1633)">0</text><path fill="#f2cefe" stroke="#172c51" stroke-miterlimit="8" stroke-width="4.583" d="M1355.5 1369.5h519v144h-519z"/><text font-family="Microsoft YaHei,Microsoft YaHei_MSFontService,sans-serif" font-size="48" font-weight="700" transform="translate(1583.74 1458)">P4</text><path fill="#f2cefe" stroke="#172c51" stroke-miterlimit="8" stroke-width="4.583" d="M1874.5 1369.5h650v144h-650z"/><text font-family="Microsoft YaHei,Microsoft YaHei_MSFontService,sans-serif" font-size="48" font-weight="700" transform="translate(2168.38 1458)">P1</text><text font-family="DengXian,DengXian_MSFontService,sans-serif" font-size="83" font-weight="400" transform="translate(1348.36 1633)">7</text><text font-family="DengXian,DengXian_MSFontService,sans-serif" font-size="83" font-weight="400" transform="translate(1849.23 1637)">1</text><text font-family="DengXian,DengXian_MSFontService,sans-serif" font-size="83" font-weight="400" transform="translate(1892.77 1637)">1</text><text font-family="DengXian,DengXian_MSFontService,sans-serif" font-size="83" font-weight="400" transform="translate(2484.16 1633)">1</text><text font-family="DengXian,DengXian_MSFontService,sans-serif" font-size="83" font-weight="400" transform="translate(2527.7 1633)">6</text><path fill="#f2cefe" stroke="#172c51" stroke-miterlimit="8" stroke-width="4.583" d="M706.5 1369.5h260v144h-260z"/><text font-family="Microsoft YaHei,Microsoft YaHei_MSFontService,sans-serif" font-size="48" font-weight="700" transform="translate(805.761 1458)">P2</text><path fill="#f2cefe" stroke="#172c51" stroke-miterlimit="8" stroke-width="4.583" d="M970.5 1369.5h130v144h-130z"/><text font-family="Microsoft YaHei,Microsoft YaHei_MSFontService,sans-serif" font-size="48" font-weight="700" transform="translate(1004.01 1458)">P3</text><path fill="#f2cefe" stroke="#172c51" stroke-miterlimit="8" stroke-width="4.583" d="M1095.5 1369.5h260v144h-260z"/><text font-family="Microsoft YaHei,Microsoft YaHei_MSFontService,sans-serif" font-size="48" font-weight="700" transform="translate(1193.97 1458)">P2</text><text font-family="DengXian,DengXian_MSFontService,sans-serif" font-size="83" font-weight="400" transform="translate(668.506 1633)">2</text><text font-family="DengXian,DengXian_MSFontService,sans-serif" font-size="83" font-weight="400" transform="translate(934.799 1633)">4</text><text font-family="DengXian,DengXian_MSFontService,sans-serif" font-size="83" font-weight="400" transform="translate(1072.4 1633)">5</text></svg>