<svg xmlns="http://www.w3.org/2000/svg" xml:space="preserve" width="3831" height="2122" overflow="hidden"><path fill="#f2cefe" stroke="#172c51" stroke-miterlimit="8" stroke-width="4.583" d="M5.5 20.5h831v2027H5.5z"/><text font-family="DengXian,DengXian_MSFontService,sans-serif" font-size="83" font-weight="400" transform="translate(131.838 1011)">进程的地址空间</text><text font-family="DengXian,DengXian_MSFontService,sans-serif" font-size="83" font-weight="400" transform="translate(173.088 1110)">（虚拟内存）</text><path fill="#ed7d31" fill-opacity=".902" fill-rule="evenodd" stroke="#fff" stroke-miterlimit="8" stroke-width="4.583" d="m1947.5 358.5 154.5-338 154.5 338Z"/><text font-family="DengXian,DengXian_MSFontService,sans-serif" font-size="92" font-weight="700" transform="translate(1963.93 210)">寄存器</text><path fill="#ed7d31" fill-opacity=".82" fill-rule="evenodd" stroke="#fff" stroke-miterlimit="8" stroke-width="4.583" d="m1792.5 695.5 154.3-337h310.4l154.3 337Z"/><text font-family="DengXian,DengXian_MSFontService,sans-serif" font-size="92" font-weight="700" transform="translate(1918.1 492)">高速缓存</text><text font-family="DengXian,DengXian_MSFontService,sans-serif" font-size="92" font-weight="700" transform="translate(2053.58 604)">L1</text><path fill="#ed7d31" fill-opacity=".741" fill-rule="evenodd" stroke="#fff" stroke-miterlimit="8" stroke-width="4.583" d="m1637.5 1033.5 154.76-338h618.48l154.76 338Z"/><text font-family="DengXian,DengXian_MSFontService,sans-serif" font-size="124" font-weight="700" transform="translate(1853.93 818)">高速缓存</text><text font-family="DengXian,DengXian_MSFontService,sans-serif" font-size="124" font-weight="700" transform="translate(2036.83 969)">L2</text><path fill="#ed7d31" fill-opacity=".659" fill-rule="evenodd" stroke="#fff" stroke-miterlimit="8" stroke-width="4.583" d="m1483.5 1371.5 154.76-338h927.48l154.76 338Z"/><text font-family="DengXian,DengXian_MSFontService,sans-serif" font-size="124" font-weight="700" transform="translate(1789.34 1232)">高速缓存</text><text font-family="DengXian,DengXian_MSFontService,sans-serif" font-size="124" font-weight="700" transform="translate(2284.34 1232)">L3</text><path fill="#ed7d31" fill-opacity=".58" fill-rule="evenodd" stroke="#fff" stroke-miterlimit="8" stroke-width="4.583" d="m1328.5 1709.5 154.76-338h1237.48l154.76 338Z"/><text font-family="DengXian,DengXian_MSFontService,sans-serif" font-size="124" font-weight="700" transform="translate(1823.43 1570)">内存</text><text font-family="DengXian,DengXian_MSFontService,sans-serif" font-size="124" font-weight="700" transform="translate(2104.94 1570)">RAM</text><path fill="#ed7d31" fill-opacity=".502" fill-rule="evenodd" stroke="#fff" stroke-miterlimit="8" stroke-width="4.583" d="m1173.5 2047.5 154.76-338h1547.48l154.76 338Z"/><text font-family="DengXian,DengXian_MSFontService,sans-serif" font-size="124" font-weight="700" transform="translate(1857.99 1907)">磁盘</text><text font-family="DengXian,DengXian_MSFontService,sans-serif" font-size="124" font-weight="700" transform="translate(2105.49 1907)">Disk</text><path fill="#ae5a21" fill-rule="evenodd" stroke="#fff" stroke-miterlimit="8" stroke-width="4.583" d="m2942.5 85.5 65-65 65 65H3040v940h-65v-940Z"/><text font-family="DengXian,DengXian_MSFontService,sans-serif" font-size="73" font-weight="400" transform="translate(3098.36 395)">容量小</text><text font-family="DengXian,DengXian_MSFontService,sans-serif" font-size="73" font-weight="400" transform="translate(3098.36 520)">速度快</text><text font-family="DengXian,DengXian_MSFontService,sans-serif" font-size="73" font-weight="400" transform="translate(3098.36 644)">成本高</text><path fill="#f7d2c6" fill-rule="evenodd" stroke="#fff" stroke-miterlimit="8" stroke-width="4.583" d="M3034.5 2050.5h32.5v-941h65v941h32.5l-65 65Z"/><text font-family="DengXian,DengXian_MSFontService,sans-serif" font-size="73" font-weight="400" transform="translate(3146.85 1484)">容量大</text><text font-family="DengXian,DengXian_MSFontService,sans-serif" font-size="73" font-weight="400" transform="translate(3146.85 1609)">速度慢</text><text font-family="DengXian,DengXian_MSFontService,sans-serif" font-size="73" font-weight="400" transform="translate(3146.85 1733)">成本低</text><path fill="#7030a0" fill-rule="evenodd" stroke="#172c51" stroke-miterlimit="8" stroke-width="4.583" d="M972.5 897.25H1126V754.5l153.5 285.5-153.5 285.5v-142.75H972.5Z"/><text font-family="DengXian,DengXian_MSFontService,sans-serif" font-size="110" font-weight="700" transform="translate(1070.45 139)">虚拟内存在哪里</text></svg>