<svg xmlns="http://www.w3.org/2000/svg" xml:space="preserve" width="2828" height="1838" overflow="hidden"><path fill="#ed7d31" fill-rule="evenodd" stroke="#172c51" stroke-miterlimit="8" stroke-width="4.583" d="M96.075 3.5h381.85c50.023 0 90.575 47.906 90.575 107s-40.552 107-90.575 107H96.075c-50.023 0-90.575-47.906-90.575-107s40.552-107 90.575-107Z"/><text font-family="Microsoft YaHei,Microsoft YaHei_MSFontService,sans-serif" font-size="73" font-weight="700" transform="translate(100.978 137)">untracked</text><path fill="#92d050" fill-rule="evenodd" stroke="#172c51" stroke-miterlimit="8" stroke-width="4.583" d="M847.08 3.5h381.84c50.03 0 90.58 47.906 90.58 107s-40.55 107-90.58 107H847.08c-50.03 0-90.58-47.906-90.58-107s40.55-107 90.58-107Z"/><text font-family="Microsoft YaHei,Microsoft YaHei_MSFontService,sans-serif" font-size="73" font-weight="700" transform="translate(822.98 137)">unmodified</text><path fill="#ffd966" fill-rule="evenodd" stroke="#172c51" stroke-miterlimit="8" stroke-width="4.583" d="M1598.08 3.5h381.85c50.02 0 90.57 47.906 90.57 107s-40.55 107-90.57 107h-381.85c-50.03 0-90.58-47.906-90.58-107s40.55-107 90.58-107Z"/><text font-family="Microsoft YaHei,Microsoft YaHei_MSFontService,sans-serif" font-size="73" font-weight="700" transform="translate(1621.75 137)">modified</text><path fill="#8faadc" fill-rule="evenodd" stroke="#172c51" stroke-miterlimit="8" stroke-width="4.583" d="M2349.24 3.5h382.52c50.12 0 90.74 47.906 90.74 107s-40.62 107-90.74 107h-382.52c-50.12 0-90.74-47.906-90.74-107s40.62-107 90.74-107Z"/><text font-family="Microsoft YaHei,Microsoft YaHei_MSFontService,sans-serif" font-size="73" font-weight="700" transform="translate(2415.37 137)">staged</text><path fill="none" stroke="#767171" stroke-miterlimit="8" stroke-width="10.313" d="m286 217 4.823 1336.1M1038 217v1336.1M1789 217v1336.1M2540 217v1336.1"/><path fill="#00b050" fill-rule="evenodd" stroke="#172c51" stroke-miterlimit="8" stroke-width="4.583" d="M321.5 488h535v-69.5l139 139-139 139V627h-535Z"/><text font-family="Microsoft YaHei,Microsoft YaHei_MSFontService,sans-serif" font-size="73" font-weight="400" transform="translate(378.575 584)">git</text><text font-family="Microsoft YaHei,Microsoft YaHei_MSFontService,sans-serif" font-size="73" font-weight="400" transform="translate(494.304 584)">add</text><text font-family="Microsoft YaHei,Microsoft YaHei_MSFontService,sans-serif" font-size="73" font-weight="400" transform="translate(650.71 584)">file.txt</text><path fill="#00b050" fill-rule="evenodd" stroke="#172c51" stroke-miterlimit="8" stroke-width="4.583" d="M1088.5 488h536v-69.5l139 139-139 139V627h-536Z"/><text font-family="Microsoft YaHei,Microsoft YaHei_MSFontService,sans-serif" font-size="73" font-weight="400" transform="translate(1190.9 584)">edit the file</text><path fill="#00b050" fill-rule="evenodd" stroke="#172c51" stroke-miterlimit="8" stroke-width="4.583" d="M1864.5 495.75H2360V418.5L2514.5 573 2360 727.5v-77.25h-495.5Z"/><text font-family="Microsoft YaHei,Microsoft YaHei_MSFontService,sans-serif" font-size="73" font-weight="400" transform="translate(1906 599)">git</text><text font-family="Microsoft YaHei,Microsoft YaHei_MSFontService,sans-serif" font-size="73" font-weight="400" transform="translate(2021.73 599)">add</text><text font-family="Microsoft YaHei,Microsoft YaHei_MSFontService,sans-serif" font-size="73" font-weight="400" transform="translate(2178.14 599)">file.txt</text><path fill="#afabab" fill-rule="evenodd" stroke="#172c51" stroke-miterlimit="8" stroke-width="4.583" d="M991.5 1290H455.499v-69.5l-138.999 139 138.999 139V1429H991.5Z"/><text font-family="Microsoft YaHei,Microsoft YaHei_MSFontService,sans-serif" font-size="50" font-weight="400" transform="translate(419.557 1378)">git rm --cached file.txt</text><path fill="#00b050" fill-rule="evenodd" stroke="#172c51" stroke-miterlimit="8" stroke-width="4.583" d="M2490.5 1012h-1246v-69.5l-139 139 139 139V1151h1246Z"/><text font-family="Microsoft YaHei,Microsoft YaHei_MSFontService,sans-serif" font-size="73" font-weight="400" transform="translate(1640.54 1108)">git commit </text><path fill="#c55a11" fill-rule="evenodd" stroke="#172c51" stroke-miterlimit="8" stroke-width="4.583" d="M1739.5 1290h-536.001v-69.5l-138.999 139 138.999 139V1429H1739.5Z"/><text font-family="Microsoft YaHei,Microsoft YaHei_MSFontService,sans-serif" font-size="64" font-weight="400" transform="translate(1173.28 1383)">git restore file.txt</text><path fill="#afabab" fill-rule="evenodd" stroke="#172c51" stroke-miterlimit="8" stroke-width="4.583" d="M2490.5 1290h-536v-69.5l-139 139 139 139V1429h536Z"/><text font-family="Microsoft YaHei,Microsoft YaHei_MSFontService,sans-serif" font-size="50" font-weight="400" transform="translate(1959.6 1348)">git restore –staged</text><text font-family="Microsoft YaHei,Microsoft YaHei_MSFontService,sans-serif" font-size="50" font-weight="400" transform="translate(2113.15 1408)">file.txt</text><path fill="#fff" d="M1152.5 1674.5h663v157h-663z"/><path fill="#70ad47" d="M1150.21 1672.21h667.58v161.58h-667.58Zm4.58 159.29-2.29-2.29h663l-2.29 2.29v-157l2.29 2.29h-663l2.29-2.29Z"/><path fill="#70ad47" d="m1327.08 1675.19 102.56-226.64 4.18 1.89-102.56 226.64Zm77.37-209.12 29.15-20.72 3.69 35.57a2.3 2.3 0 0 1-2.05 2.52c-1.26.13-2.38-.78-2.51-2.04l-3.28-31.67 3.61 1.63-25.96 18.44a2.28 2.28 0 0 1-3.19-.54 2.28 2.28 0 0 1 .54-3.19"/><text fill="red" font-family="Microsoft YaHei,Microsoft YaHei_MSFontService,sans-serif" font-size="50" font-weight="400" transform="translate(1231.32 1771)">！！！会丢弃所有更改</text></svg>