<svg xmlns="http://www.w3.org/2000/svg" xml:space="preserve" width="2842" height="2420" overflow="hidden"><path fill="#4472c4" fill-rule="evenodd" stroke="#172c51" stroke-miterlimit="8" stroke-width="4.583" d="M140.5 1057.17c0-146.724 118.946-265.67 265.672-265.67H2572.83c146.72 0 265.67 118.946 265.67 265.67v1062.66c0 146.72-118.95 265.67-265.67 265.67H406.172c-146.726 0-265.672-118.95-265.672-265.67Z"/><path fill="#4472c4" fill-rule="evenodd" stroke="#fff" stroke-miterlimit="8" stroke-width="4.583" d="M21.5 416.5c0-9.941 8.059-18 18-18h264c9.941 0 18 8.059 18 18v144c0 9.941-8.059 18-18 18h-264c-9.941 0-18-8.059-18-18Z"/><text fill="#fff" font-family="DengXian,DengXian_MSFontService,sans-serif" font-size="87" font-weight="400" transform="translate(61 509)">区块</text><text fill="#fff" font-family="DengXian,DengXian_MSFontService,sans-serif" font-size="87" font-weight="400" transform="translate(235.167 509)">1</text><path fill="#b0bcde" fill-rule="evenodd" d="M351 465.8h32V451l32 37-32 37v-14.8h-32Z"/><path fill="#4472c4" fill-rule="evenodd" stroke="#fff" stroke-miterlimit="8" stroke-width="4.583" d="M441.5 416.5c0-9.941 8.059-18 18-18h264c9.941 0 18 8.059 18 18v144c0 9.941-8.059 18-18 18h-264c-9.941 0-18-8.059-18-18Z"/><text fill="#fff" font-family="DengXian,DengXian_MSFontService,sans-serif" font-size="87" font-weight="400" transform="translate(480.943 509)">区块</text><text fill="#fff" font-family="DengXian,DengXian_MSFontService,sans-serif" font-size="87" font-weight="400" transform="translate(655.109 509)">2</text><path fill="#b0bcde" fill-rule="evenodd" d="M771 465.8h32V451l32 37-32 37v-14.8h-32Z"/><path fill="#4472c4" fill-rule="evenodd" stroke="#fff" stroke-miterlimit="8" stroke-width="4.583" d="M861.5 416.5c0-9.941 8.06-18 18-18h264c9.94 0 18 8.059 18 18v144c0 9.941-8.06 18-18 18h-264c-9.94 0-18-8.059-18-18Z"/><text fill="#fff" font-family="DengXian,DengXian_MSFontService,sans-serif" font-size="87" font-weight="400" transform="translate(900.89 509)">区块</text><text fill="#fff" font-family="DengXian,DengXian_MSFontService,sans-serif" font-size="87" font-weight="400" transform="translate(1075.05 509)">3</text><path fill="#b0bcde" fill-rule="evenodd" d="M1191 465.8h31.5V451l31.5 37-31.5 37v-14.8H1191Z"/><path fill="#4472c4" fill-rule="evenodd" stroke="#fff" stroke-miterlimit="8" stroke-width="4.583" d="M1281.5 416.5c0-9.941 8.06-18 18-18h264c9.94 0 18 8.059 18 18v144c0 9.941-8.06 18-18 18h-264c-9.94 0-18-8.059-18-18Z"/><text fill="#fff" font-family="DengXian,DengXian_MSFontService,sans-serif" font-size="87" font-weight="400" transform="translate(1402.22 509)">...</text><path fill="#b0bcde" fill-rule="evenodd" d="M1611 465.8h31.5V451l31.5 37-31.5 37v-14.8H1611Z"/><path fill="#4472c4" fill-rule="evenodd" stroke="#fff" stroke-miterlimit="8" stroke-width="4.583" d="M1701.5 416.5c0-9.941 8.06-18 18-18h264c9.94 0 18 8.059 18 18v144c0 9.941-8.06 18-18 18h-264c-9.94 0-18-8.059-18-18Z"/><text fill="#fff" font-family="DengXian,DengXian_MSFontService,sans-serif" font-size="87" font-weight="400" transform="translate(1739.75 509)">区块</text><text fill="#fff" font-family="DengXian,DengXian_MSFontService,sans-serif" font-size="87" font-weight="400" transform="translate(1913.92 509)">n</text><path fill="#b0bcde" fill-rule="evenodd" d="M2031 465.8h31.5V451l31.5 37-31.5 37v-14.8H2031Z"/><path fill="#4472c4" fill-rule="evenodd" stroke="#fff" stroke-miterlimit="8" stroke-width="4.583" d="M2121.5 416.5c0-9.941 8.06-18 18-18h264c9.94 0 18 8.059 18 18v144c0 9.941-8.06 18-18 18h-264c-9.94 0-18-8.059-18-18Z"/><text fill="#fff" font-family="DengXian,DengXian_MSFontService,sans-serif" font-size="87" font-weight="400" transform="translate(2242.1 509)">...</text><path fill="#ed7d31" fill-rule="evenodd" d="M325.335 1196.43H1371.53v156.35H325.335Z"/><path fill="#f8d7cd" fill-rule="evenodd" d="M325.335 1352.78h249.456v231H325.335ZM574.791 1352.78h796.739v231H574.791Z"/><path fill="#fcece8" fill-rule="evenodd" d="M325.335 1583.78h249.456v133.37H325.335ZM574.791 1583.78h796.739v133.37H574.791Z"/><path fill="#f8d7cd" fill-rule="evenodd" d="M325.335 1717.15h249.456v133.38H325.335ZM574.791 1717.15h796.739v133.38H574.791Z"/><path fill="#fcece8" fill-rule="evenodd" d="M325.335 1850.53h249.456v133.37H325.335ZM574.791 1850.53h796.739v133.37H574.791Z"/><path fill="#f8d7cd" fill-rule="evenodd" d="M325.335 1983.9h249.456v133.38H325.335ZM574.791 1983.9h796.739v133.38H574.791Z"/><path fill="#fcece8" fill-rule="evenodd" d="M325.335 2117.28h249.456v133.37H325.335ZM574.791 2117.28h796.739v133.37H574.791Z"/><path fill="#f8d7cd" fill-rule="evenodd" d="M325.335 2250.65h249.456v133.38H325.335ZM574.791 2250.65h796.739v133.38H574.791Z"/><path fill="none" stroke="#fff" stroke-linejoin="round" stroke-miterlimit="10" stroke-width="4.583" d="M574.791 1345.9v1040.42"/><path fill="none" stroke="#fff" stroke-linejoin="round" stroke-miterlimit="10" stroke-width="13.75" d="M323.044 1352.78H1373.82"/><path fill="none" stroke="#fff" stroke-linejoin="round" stroke-miterlimit="10" stroke-width="4.583" d="M323.044 1583.78H1373.82M323.044 1717.15H1373.82M323.044 1850.53H1373.82M323.044 1983.9H1373.82M323.044 2117.28H1373.82M323.044 2250.65H1373.82M325.335 1194.14v1192.18M1371.53 1194.14v1192.18M323.044 1196.43H1373.82M323.044 2384.03H1373.82"/><text fill="#fff" font-family="DengXian,DengXian_MSFontService,sans-serif" font-size="83" font-weight="700" transform="translate(724.683 1290)">区块头</text><text font-family="DengXian,DengXian_MSFontService,sans-serif" font-size="83" font-weight="700" transform="translate(890.66 1446)">字段</text><text font-family="DengXian,DengXian_MSFontService,sans-serif" font-size="83" font-weight="700" transform="translate(358.335 1446)">字节</text><text font-family="DengXian,DengXian_MSFontService,sans-serif" font-size="83" font-weight="700" transform="translate(358.335 1545)">长度</text><text font-family="DengXian,DengXian_MSFontService,sans-serif" font-size="83" font-weight="700" transform="translate(609.166 1668)">区块版本号</text><text font-family="DengXian,DengXian_MSFontService,sans-serif" font-size="83" font-weight="700" transform="translate(359.71 1668)">4</text><text font-family="DengXian,DengXian_MSFontService,sans-serif" font-size="83" font-weight="700" transform="translate(609.166 1801)">前一区块头</text><text font-family="DengXian,DengXian_MSFontService,sans-serif" font-size="83" font-weight="700" transform="translate(1021.67 1801)">Hash</text><text font-family="DengXian,DengXian_MSFontService,sans-serif" font-size="83" font-weight="700" transform="translate(359.71 1801)">32</text><text font-family="DengXian,DengXian_MSFontService,sans-serif" font-size="83" font-weight="700" transform="translate(609.166 1935)">Merkle</text><text font-family="DengXian,DengXian_MSFontService,sans-serif" font-size="83" font-weight="700" transform="translate(869.27 1935)">树根</text><text font-family="DengXian,DengXian_MSFontService,sans-serif" font-size="83" font-weight="700" transform="translate(1034.27 1935)">Hash</text><text font-family="DengXian,DengXian_MSFontService,sans-serif" font-size="83" font-weight="700" transform="translate(359.71 1935)">32</text><text font-family="DengXian,DengXian_MSFontService,sans-serif" font-size="83" font-weight="700" transform="translate(609.166 2068)">时间戳</text><text font-family="DengXian,DengXian_MSFontService,sans-serif" font-size="83" font-weight="700" transform="translate(359.71 2068)">4</text><text font-family="DengXian,DengXian_MSFontService,sans-serif" font-size="83" font-weight="700" transform="translate(609.166 2201)">难度目标</text><text font-family="DengXian,DengXian_MSFontService,sans-serif" font-size="83" font-weight="700" transform="translate(359.71 2201)">4</text><text font-family="DengXian,DengXian_MSFontService,sans-serif" font-size="83" font-weight="700" transform="translate(609.166 2335)">Nonce</text><text font-family="DengXian,DengXian_MSFontService,sans-serif" font-size="83" font-weight="700" transform="translate(852.655 2335)">：</text><text font-family="DengXian,DengXian_MSFontService,sans-serif" font-size="83" font-weight="700" transform="translate(935.16 2335)">随机数</text><text font-family="DengXian,DengXian_MSFontService,sans-serif" font-size="83" font-weight="700" transform="translate(359.71 2335)">4</text><path fill="#00b050" fill-rule="evenodd" stroke="#172c51" stroke-miterlimit="8" stroke-width="4.583" d="M1372.5 1394.67c0-109.45 88.72-198.17 198.17-198.17h1042.66c109.45 0 198.17 88.72 198.17 198.17v792.66c0 109.45-88.72 198.17-198.17 198.17H1570.67c-109.45 0-198.17-88.72-198.17-198.17Z"/><text fill="#fff" font-family="DengXian,DengXian_MSFontService,sans-serif" font-size="202" font-weight="700" transform="translate(1889.35 1594)">内容</text><text fill="#fff" font-family="DengXian,DengXian_MSFontService,sans-serif" font-size="147" font-weight="700" transform="translate(1757.01 1785)">交易记录</text><text fill="#fff" font-family="DengXian,DengXian_MSFontService,sans-serif" font-size="147" font-weight="700" transform="translate(2343.67 1785)">1</text><text fill="#fff" font-family="DengXian,DengXian_MSFontService,sans-serif" font-size="147" font-weight="700" transform="translate(1757.01 1961)">交易记录</text><text fill="#fff" font-family="DengXian,DengXian_MSFontService,sans-serif" font-size="147" font-weight="700" transform="translate(2343.67 1961)">2</text><text fill="#fff" font-family="DengXian,DengXian_MSFontService,sans-serif" font-size="147" font-weight="700" transform="translate(2031.43 2137)">…</text><text fill="#fff" font-family="DengXian,DengXian_MSFontService,sans-serif" font-size="147" font-weight="400" transform="translate(1121.24 1026)">一个区块</text><path fill="none" stroke="#4472c4" stroke-miterlimit="8" stroke-width="2.292" d="M1704.19 565 325 790.655M1991 558l683.91 232.684"/><path fill="#ff0" fill-rule="evenodd" d="M1147.23 146.735h448.6v153h-448.6Z"/><text fill="red" font-family="DengXian Light,DengXian Light_MSFontService,sans-serif" font-size="147" font-weight="700" transform="translate(1147.23 261)">区块链</text></svg>