<svg xmlns="http://www.w3.org/2000/svg" xml:space="preserve" width="3827" height="2402" overflow="hidden"><path d="M431.438 380.5v93.93h-6.875V380.5Zm15.573 68.162L428 481.252l-19.011-32.59a3.438 3.438 0 0 1 5.939-3.464l16.041 27.5h-5.938l16.042-27.5a3.436 3.436 0 1 1 5.938 3.464"/><path fill="#4472c4" stroke="#fff" stroke-miterlimit="8" stroke-width="4.583" d="M184.5 89.5h486v291h-486z"/><text fill="#fff" font-family="DengXian,DengXian_MSFontService,sans-serif" font-size="73" font-weight="700" transform="translate(287.417 252)">Random</text><path d="M431.438 783.5v93.93h-6.875V783.5Zm15.573 68.162L428 884.252l-19.011-32.59a3.438 3.438 0 0 1 5.939-3.464l16.041 27.5h-5.938l16.042-27.5a3.436 3.436 0 1 1 5.938 3.464"/><path fill="#c55a11" stroke="#fff" stroke-miterlimit="8" stroke-width="4.583" d="M184.5 492.5h486v292h-486z"/><text fill="#fff" font-family="DengXian,DengXian_MSFontService,sans-serif" font-size="73" font-weight="700" transform="translate(353.898 655)">私钥</text><path d="M431.438 1186.5v93.93h-6.875v-93.93Zm15.573 68.16L428 1287.25l-19.011-32.59a3.436 3.436 0 1 1 5.939-3.46l16.041 27.5h-5.938l16.042-27.5a3.436 3.436 0 1 1 5.938 3.46"/><path fill="#4472c4" stroke="#fff" stroke-miterlimit="8" stroke-width="4.583" d="M184.5 896.5h486v291h-486z"/><text fill="#fff" font-family="DengXian,DengXian_MSFontService,sans-serif" font-size="73" font-weight="700" transform="translate(240.243 1058)">SECP256K1</text><path d="M431.438 1590.5v93.93h-6.875v-93.93Zm15.573 68.16L428 1691.25l-19.011-32.59a3.436 3.436 0 1 1 5.939-3.46l16.041 27.5h-5.938l16.042-27.5a3.436 3.436 0 1 1 5.938 3.46"/><path fill="#548235" stroke="#fff" stroke-miterlimit="8" stroke-width="4.583" d="M184.5 1299.5h486v291h-486z"/><text fill="#fff" font-family="DengXian,DengXian_MSFontService,sans-serif" font-size="73" font-weight="700" transform="translate(353.898 1462)">公钥</text><path d="M431.438 1993.5v93.93h-6.875v-93.93Zm15.573 68.16L428 2094.25l-19.011-32.59a3.436 3.436 0 1 1 5.939-3.46l16.041 27.5h-5.938l16.042-27.5a3.436 3.436 0 1 1 5.938 3.46"/><path fill="#4472c4" stroke="#fff" stroke-miterlimit="8" stroke-width="4.583" d="M184.5 1702.5h486v292h-486z"/><text fill="#fff" font-family="DengXian,DengXian_MSFontService,sans-serif" font-size="73" font-weight="700" transform="translate(294.612 1865)">SHA256</text><path fill="#4472c4" stroke="#fff" stroke-miterlimit="8" stroke-width="4.583" d="M184.5 2106.5h486v291h-486z"/><text fill="#fff" font-family="DengXian,DengXian_MSFontService,sans-serif" font-size="73" font-weight="700" transform="translate(232.038 2269)">RIPEMD160</text><path d="M1761.5 232.563h94.77v6.875h-94.77Zm69-15.574L1863.09 236l-32.59 19.011a3.436 3.436 0 0 1-4.7-1.237 3.444 3.444 0 0 1 1.24-4.701l27.5-16.042v5.938l-27.5-16.041a3.445 3.445 0 0 1-1.24-4.702 3.44 3.44 0 0 1 4.7-1.237"/><path fill="#548235" stroke="#fff" stroke-miterlimit="8" stroke-width="4.583" d="M1272.5 88.5h490v294h-490z"/><text fill="#fff" font-family="DengXian,DengXian_MSFontService,sans-serif" font-size="69" font-weight="400" transform="translate(1379.3 251)">公钥哈希</text><path d="M2363.5 232.563h94.77v6.875h-94.77Zm69-15.574L2465.09 236l-32.59 19.011a3.436 3.436 0 0 1-4.7-1.237 3.444 3.444 0 0 1 1.24-4.701l27.5-16.042v5.938l-27.5-16.041a3.445 3.445 0 0 1-1.24-4.702 3.44 3.44 0 0 1 4.7-1.237"/><path fill="#4472c4" stroke="#fff" stroke-miterlimit="8" stroke-width="4.583" d="M1874.5 88.5h490v294h-490z"/><text fill="#fff" font-family="DengXian,DengXian_MSFontService,sans-serif" font-size="69" font-weight="400" transform="translate(2011.74 193)">Double</text><text fill="#fff" font-family="DengXian,DengXian_MSFontService,sans-serif" font-size="69" font-weight="400" transform="translate(2001.36 310)">SHA256</text><path fill="#00b0f0" stroke="#fff" stroke-miterlimit="8" stroke-width="4.583" d="M2477.5 88.5h489v294h-489z"/><text fill="#fff" font-family="DengXian,DengXian_MSFontService,sans-serif" font-size="69" font-weight="400" transform="translate(2634.5 193)">前</text><text fill="#fff" font-family="DengXian,DengXian_MSFontService,sans-serif" font-size="69" font-weight="400" transform="translate(2703.25 193)">4</text><text fill="#fff" font-family="DengXian,DengXian_MSFontService,sans-serif" font-size="69" font-weight="400" transform="translate(2739.48 193)">个</text><text fill="#fff" font-family="DengXian,DengXian_MSFontService,sans-serif" font-size="69" font-weight="400" transform="translate(2652.6 310)">字节</text><path d="M1492.063 382.5v295.177h529.524l-3.438-3.438v268.823h6.875v-272.26H1495.5l3.438 3.437V382.5Zm515.774 555.978 13.75 27.5 13.75-27.5ZM2712.063 382.5v295.176h47.476l-3.437-3.437v268.822h6.875v-272.26H2715.5l3.438 3.438V382.5Zm33.726 555.978 13.75 27.5 13.75-27.5Z"/><path fill="#595959" stroke="#172c51" stroke-miterlimit="8" stroke-width="4.583" d="M977.5 88.5h296v294h-296z"/><text fill="#fff" font-family="DengXian,DengXian_MSFontService,sans-serif" font-size="83" font-weight="400" transform="translate(1041.53 263)">0x00</text><path fill="#548235" stroke="#172c51" stroke-miterlimit="8" stroke-width="4.583" d="M1686.5 966.5h866v277h-866z"/><text fill="#fff" font-family="DengXian,DengXian_MSFontService,sans-serif" font-size="83" font-weight="400" transform="translate(1954.08 1132)">公钥哈希</text><path fill="#595959" stroke="#172c51" stroke-miterlimit="8" stroke-width="4.583" d="M1271.5 966.5h415v277h-415z"/><text fill="#fff" font-family="DengXian,DengXian_MSFontService,sans-serif" font-size="83" font-weight="400" transform="translate(1395.05 1132)">0x00</text><path fill="#00b0f0" stroke="#172c51" stroke-miterlimit="8" stroke-width="4.583" d="M2551.5 966.5h416v277h-416z"/><text fill="#fff" font-family="DengXian,DengXian_MSFontService,sans-serif" font-size="83" font-weight="400" transform="translate(2676.65 1132)">校验</text><path fill="#4472c4" stroke="#172c51" stroke-miterlimit="8" stroke-width="4.583" d="M1704.5 1506.5h834v230h-834z"/><text fill="#fff" font-family="DengXian,DengXian_MSFontService,sans-serif" font-size="83" font-weight="400" transform="translate(1985.94 1648)">BASE58</text><path fill="#70ad47" stroke="#2b4719" stroke-miterlimit="8" stroke-width="4.583" d="M1697.5 2013.5h845v230h-845z"/><text fill="#fff" font-family="DengXian,DengXian_MSFontService,sans-serif" font-size="83" font-weight="400" transform="translate(1954.08 2155)">钱包地址</text><path d="m2122.94 1243.48 1.36 240.13-6.87.04-1.37-240.13Zm11.65 235.49-13.6 27.57-13.9-27.42ZM2117.563 1736.481l-1.372 254.476 6.875.037 1.371-254.475Zm-11.66 249.837 13.602 27.574 13.898-27.426Z"/><path fill="#595959" stroke="#172c51" stroke-miterlimit="8" stroke-width="4.583" d="M2956.5 88.5h865v286h-865z"/><path d="M847.06 2243.06V2.565h282.17v63.018h-6.87V6.003l3.44 3.437H850.5l3.44-3.438V2243.06ZM1139.55 61l-13.75 27.5-13.75-27.5Z"/><path fill="none" stroke="#000" stroke-miterlimit="8" stroke-width="6.875" d="M668.5 2243.5h181.64"/></svg>