<svg width="2842" height="2420" xmlns="http://www.w3.org/2000/svg" xmlns:xlink="http://www.w3.org/1999/xlink" xml:space="preserve" overflow="hidden"><g transform="translate(-132 -4)"><g><path d="M272.5 1061.17C272.5 914.446 391.446 795.5 538.172 795.5L2704.83 795.5C2851.55 795.5 2970.5 914.446 2970.5 1061.17L2970.5 2123.83C2970.5 2270.55 2851.55 2389.5 2704.83 2389.5L538.172 2389.5C391.446 2389.5 272.5 2270.55 272.5 2123.83Z" stroke="#172C51" stroke-width="4.58333" stroke-linecap="butt" stroke-linejoin="miter" stroke-miterlimit="8" stroke-opacity="1" fill="#4472C4" fill-rule="evenodd" fill-opacity="1"/><path d="M153.5 420.5C153.5 410.559 161.559 402.5 171.5 402.5L435.5 402.5C445.441 402.5 453.5 410.559 453.5 420.5L453.5 564.5C453.5 574.441 445.441 582.5 435.5 582.5L171.5 582.5C161.559 582.5 153.5 574.441 153.5 564.5Z" stroke="#FFFFFF" stroke-width="4.58333" stroke-linecap="butt" stroke-linejoin="miter" stroke-miterlimit="8" stroke-opacity="1" fill="#4472C4" fill-rule="evenodd" fill-opacity="1"/><text fill="#FFFFFF" fill-opacity="1" font-family="DengXian,DengXian_MSFontService,sans-serif" font-style="normal" font-variant="normal" font-weight="400" font-stretch="normal" font-size="87" text-anchor="start" direction="ltr" writing-mode="lr-tb" unicode-bidi="normal" text-decoration="none" transform="matrix(1 0 0 1 193 513)">区块</text><text fill="#FFFFFF" fill-opacity="1" font-family="DengXian,DengXian_MSFontService,sans-serif" font-style="normal" font-variant="normal" font-weight="400" font-stretch="normal" font-size="87" text-anchor="start" direction="ltr" writing-mode="lr-tb" unicode-bidi="normal" text-decoration="none" transform="matrix(1 0 0 1 367.167 513)">1</text><path d="M483 469.8 515 469.8 515 455 547 492 515 529 515 514.2 483 514.2Z" fill="#B0BCDE" fill-rule="evenodd" fill-opacity="1"/><path d="M573.5 420.5C573.5 410.559 581.559 402.5 591.5 402.5L855.5 402.5C865.441 402.5 873.5 410.559 873.5 420.5L873.5 564.5C873.5 574.441 865.441 582.5 855.5 582.5L591.5 582.5C581.559 582.5 573.5 574.441 573.5 564.5Z" stroke="#FFFFFF" stroke-width="4.58333" stroke-linecap="butt" stroke-linejoin="miter" stroke-miterlimit="8" stroke-opacity="1" fill="#4472C4" fill-rule="evenodd" fill-opacity="1"/><text fill="#FFFFFF" fill-opacity="1" font-family="DengXian,DengXian_MSFontService,sans-serif" font-style="normal" font-variant="normal" font-weight="400" font-stretch="normal" font-size="87" text-anchor="start" direction="ltr" writing-mode="lr-tb" unicode-bidi="normal" text-decoration="none" transform="matrix(1 0 0 1 612.943 513)">区块</text><text fill="#FFFFFF" fill-opacity="1" font-family="DengXian,DengXian_MSFontService,sans-serif" font-style="normal" font-variant="normal" font-weight="400" font-stretch="normal" font-size="87" text-anchor="start" direction="ltr" writing-mode="lr-tb" unicode-bidi="normal" text-decoration="none" transform="matrix(1 0 0 1 787.109 513)">2</text><path d="M903 469.8 935 469.8 935 455 967 492 935 529 935 514.2 903 514.2Z" fill="#B0BCDE" fill-rule="evenodd" fill-opacity="1"/><path d="M993.5 420.5C993.5 410.559 1001.56 402.5 1011.5 402.5L1275.5 402.5C1285.44 402.5 1293.5 410.559 1293.5 420.5L1293.5 564.5C1293.5 574.441 1285.44 582.5 1275.5 582.5L1011.5 582.5C1001.56 582.5 993.5 574.441 993.5 564.5Z" stroke="#FFFFFF" stroke-width="4.58333" stroke-linecap="butt" stroke-linejoin="miter" stroke-miterlimit="8" stroke-opacity="1" fill="#4472C4" fill-rule="evenodd" fill-opacity="1"/><text fill="#FFFFFF" fill-opacity="1" font-family="DengXian,DengXian_MSFontService,sans-serif" font-style="normal" font-variant="normal" font-weight="400" font-stretch="normal" font-size="87" text-anchor="start" direction="ltr" writing-mode="lr-tb" unicode-bidi="normal" text-decoration="none" transform="matrix(1 0 0 1 1032.89 513)">区块</text><text fill="#FFFFFF" fill-opacity="1" font-family="DengXian,DengXian_MSFontService,sans-serif" font-style="normal" font-variant="normal" font-weight="400" font-stretch="normal" font-size="87" text-anchor="start" direction="ltr" writing-mode="lr-tb" unicode-bidi="normal" text-decoration="none" transform="matrix(1 0 0 1 1207.05 513)">3</text><path d="M1323 469.8 1354.5 469.8 1354.5 455 1386 492 1354.5 529 1354.5 514.2 1323 514.2Z" fill="#B0BCDE" fill-rule="evenodd" fill-opacity="1"/><path d="M1413.5 420.5C1413.5 410.559 1421.56 402.5 1431.5 402.5L1695.5 402.5C1705.44 402.5 1713.5 410.559 1713.5 420.5L1713.5 564.5C1713.5 574.441 1705.44 582.5 1695.5 582.5L1431.5 582.5C1421.56 582.5 1413.5 574.441 1413.5 564.5Z" stroke="#FFFFFF" stroke-width="4.58333" stroke-linecap="butt" stroke-linejoin="miter" stroke-miterlimit="8" stroke-opacity="1" fill="#4472C4" fill-rule="evenodd" fill-opacity="1"/><text fill="#FFFFFF" fill-opacity="1" font-family="DengXian,DengXian_MSFontService,sans-serif" font-style="normal" font-variant="normal" font-weight="400" font-stretch="normal" font-size="87" text-anchor="start" direction="ltr" writing-mode="lr-tb" unicode-bidi="normal" text-decoration="none" transform="matrix(1 0 0 1 1534.22 513)">...</text><path d="M1743 469.8 1774.5 469.8 1774.5 455 1806 492 1774.5 529 1774.5 514.2 1743 514.2Z" fill="#B0BCDE" fill-rule="evenodd" fill-opacity="1"/><path d="M1833.5 420.5C1833.5 410.559 1841.56 402.5 1851.5 402.5L2115.5 402.5C2125.44 402.5 2133.5 410.559 2133.5 420.5L2133.5 564.5C2133.5 574.441 2125.44 582.5 2115.5 582.5L1851.5 582.5C1841.56 582.5 1833.5 574.441 1833.5 564.5Z" stroke="#FFFFFF" stroke-width="4.58333" stroke-linecap="butt" stroke-linejoin="miter" stroke-miterlimit="8" stroke-opacity="1" fill="#4472C4" fill-rule="evenodd" fill-opacity="1"/><text fill="#FFFFFF" fill-opacity="1" font-family="DengXian,DengXian_MSFontService,sans-serif" font-style="normal" font-variant="normal" font-weight="400" font-stretch="normal" font-size="87" text-anchor="start" direction="ltr" writing-mode="lr-tb" unicode-bidi="normal" text-decoration="none" transform="matrix(1 0 0 1 1871.75 513)">区块</text><text fill="#FFFFFF" fill-opacity="1" font-family="DengXian,DengXian_MSFontService,sans-serif" font-style="normal" font-variant="normal" font-weight="400" font-stretch="normal" font-size="87" text-anchor="start" direction="ltr" writing-mode="lr-tb" unicode-bidi="normal" text-decoration="none" transform="matrix(1 0 0 1 2045.92 513)">n</text><path d="M2163 469.8 2194.5 469.8 2194.5 455 2226 492 2194.5 529 2194.5 514.2 2163 514.2Z" fill="#B0BCDE" fill-rule="evenodd" fill-opacity="1"/><path d="M2253.5 420.5C2253.5 410.559 2261.56 402.5 2271.5 402.5L2535.5 402.5C2545.44 402.5 2553.5 410.559 2553.5 420.5L2553.5 564.5C2553.5 574.441 2545.44 582.5 2535.5 582.5L2271.5 582.5C2261.56 582.5 2253.5 574.441 2253.5 564.5Z" stroke="#FFFFFF" stroke-width="4.58333" stroke-linecap="butt" stroke-linejoin="miter" stroke-miterlimit="8" stroke-opacity="1" fill="#4472C4" fill-rule="evenodd" fill-opacity="1"/><text fill="#FFFFFF" fill-opacity="1" font-family="DengXian,DengXian_MSFontService,sans-serif" font-style="normal" font-variant="normal" font-weight="400" font-stretch="normal" font-size="87" text-anchor="start" direction="ltr" writing-mode="lr-tb" unicode-bidi="normal" text-decoration="none" transform="matrix(1 0 0 1 2374.1 513)">...</text><path d="M457.335 1200.43 1503.53 1200.43 1503.53 1356.78 457.335 1356.78Z" fill="#ED7D31" fill-rule="evenodd" fill-opacity="1"/><path d="M457.335 1356.78 706.791 1356.78 706.791 1587.78 457.335 1587.78Z" fill="#F8D7CD" fill-rule="evenodd" fill-opacity="1"/><path d="M706.791 1356.78 1503.53 1356.78 1503.53 1587.78 706.791 1587.78Z" fill="#F8D7CD" fill-rule="evenodd" fill-opacity="1"/><path d="M457.335 1587.78 706.791 1587.78 706.791 1721.15 457.335 1721.15Z" fill="#FCECE8" fill-rule="evenodd" fill-opacity="1"/><path d="M706.791 1587.78 1503.53 1587.78 1503.53 1721.15 706.791 1721.15Z" fill="#FCECE8" fill-rule="evenodd" fill-opacity="1"/><path d="M457.335 1721.15 706.791 1721.15 706.791 1854.53 457.335 1854.53Z" fill="#F8D7CD" fill-rule="evenodd" fill-opacity="1"/><path d="M706.791 1721.15 1503.53 1721.15 1503.53 1854.53 706.791 1854.53Z" fill="#F8D7CD" fill-rule="evenodd" fill-opacity="1"/><path d="M457.335 1854.53 706.791 1854.53 706.791 1987.9 457.335 1987.9Z" fill="#FCECE8" fill-rule="evenodd" fill-opacity="1"/><path d="M706.791 1854.53 1503.53 1854.53 1503.53 1987.9 706.791 1987.9Z" fill="#FCECE8" fill-rule="evenodd" fill-opacity="1"/><path d="M457.335 1987.9 706.791 1987.9 706.791 2121.28 457.335 2121.28Z" fill="#F8D7CD" fill-rule="evenodd" fill-opacity="1"/><path d="M706.791 1987.9 1503.53 1987.9 1503.53 2121.28 706.791 2121.28Z" fill="#F8D7CD" fill-rule="evenodd" fill-opacity="1"/><path d="M457.335 2121.28 706.791 2121.28 706.791 2254.65 457.335 2254.65Z" fill="#FCECE8" fill-rule="evenodd" fill-opacity="1"/><path d="M706.791 2121.28 1503.53 2121.28 1503.53 2254.65 706.791 2254.65Z" fill="#FCECE8" fill-rule="evenodd" fill-opacity="1"/><path d="M457.335 2254.65 706.791 2254.65 706.791 2388.03 457.335 2388.03Z" fill="#F8D7CD" fill-rule="evenodd" fill-opacity="1"/><path d="M706.791 2254.65 1503.53 2254.65 1503.53 2388.03 706.791 2388.03Z" fill="#F8D7CD" fill-rule="evenodd" fill-opacity="1"/><path d="M706.791 1349.9 706.791 2390.32" stroke="#FFFFFF" stroke-width="4.58333" stroke-linecap="butt" stroke-linejoin="round" stroke-miterlimit="10" stroke-opacity="1" fill="none" fill-rule="evenodd"/><path d="M455.044 1356.78 1505.82 1356.78" stroke="#FFFFFF" stroke-width="13.75" stroke-linecap="butt" stroke-linejoin="round" stroke-miterlimit="10" stroke-opacity="1" fill="none" fill-rule="evenodd"/><path d="M455.044 1587.78 1505.82 1587.78" stroke="#FFFFFF" stroke-width="4.58333" stroke-linecap="butt" stroke-linejoin="round" stroke-miterlimit="10" stroke-opacity="1" fill="none" fill-rule="evenodd"/><path d="M455.044 1721.15 1505.82 1721.15" stroke="#FFFFFF" stroke-width="4.58333" stroke-linecap="butt" stroke-linejoin="round" stroke-miterlimit="10" stroke-opacity="1" fill="none" fill-rule="evenodd"/><path d="M455.044 1854.53 1505.82 1854.53" stroke="#FFFFFF" stroke-width="4.58333" stroke-linecap="butt" stroke-linejoin="round" stroke-miterlimit="10" stroke-opacity="1" fill="none" fill-rule="evenodd"/><path d="M455.044 1987.9 1505.82 1987.9" stroke="#FFFFFF" stroke-width="4.58333" stroke-linecap="butt" stroke-linejoin="round" stroke-miterlimit="10" stroke-opacity="1" fill="none" fill-rule="evenodd"/><path d="M455.044 2121.28 1505.82 2121.28" stroke="#FFFFFF" stroke-width="4.58333" stroke-linecap="butt" stroke-linejoin="round" stroke-miterlimit="10" stroke-opacity="1" fill="none" fill-rule="evenodd"/><path d="M455.044 2254.65 1505.82 2254.65" stroke="#FFFFFF" stroke-width="4.58333" stroke-linecap="butt" stroke-linejoin="round" stroke-miterlimit="10" stroke-opacity="1" fill="none" fill-rule="evenodd"/><path d="M457.335 1198.14 457.335 2390.32" stroke="#FFFFFF" stroke-width="4.58333" stroke-linecap="butt" stroke-linejoin="round" stroke-miterlimit="10" stroke-opacity="1" fill="none" fill-rule="evenodd"/><path d="M1503.53 1198.14 1503.53 2390.32" stroke="#FFFFFF" stroke-width="4.58333" stroke-linecap="butt" stroke-linejoin="round" stroke-miterlimit="10" stroke-opacity="1" fill="none" fill-rule="evenodd"/><path d="M455.044 1200.43 1505.82 1200.43" stroke="#FFFFFF" stroke-width="4.58333" stroke-linecap="butt" stroke-linejoin="round" stroke-miterlimit="10" stroke-opacity="1" fill="none" fill-rule="evenodd"/><path d="M455.044 2388.03 1505.82 2388.03" stroke="#FFFFFF" stroke-width="4.58333" stroke-linecap="butt" stroke-linejoin="round" stroke-miterlimit="10" stroke-opacity="1" fill="none" fill-rule="evenodd"/><text fill="#FFFFFF" fill-opacity="1" font-family="DengXian,DengXian_MSFontService,sans-serif" font-style="normal" font-variant="normal" font-weight="700" font-stretch="normal" font-size="83" text-anchor="start" direction="ltr" writing-mode="lr-tb" unicode-bidi="normal" text-decoration="none" transform="matrix(1 0 0 1 856.683 1294)">区块头</text><text fill="#000000" fill-opacity="1" font-family="DengXian,DengXian_MSFontService,sans-serif" font-style="normal" font-variant="normal" font-weight="700" font-stretch="normal" font-size="83" text-anchor="start" direction="ltr" writing-mode="lr-tb" unicode-bidi="normal" text-decoration="none" transform="matrix(1 0 0 1 1022.66 1450)">字段</text><g><text fill="#000000" fill-opacity="1" font-family="DengXian,DengXian_MSFontService,sans-serif" font-style="normal" font-variant="normal" font-weight="700" font-stretch="normal" font-size="83" text-anchor="start" direction="ltr" writing-mode="lr-tb" unicode-bidi="normal" text-decoration="none" transform="matrix(1 0 0 1 490.335 1450)">字节</text></g><g><text fill="#000000" fill-opacity="1" font-family="DengXian,DengXian_MSFontService,sans-serif" font-style="normal" font-variant="normal" font-weight="700" font-stretch="normal" font-size="83" text-anchor="start" direction="ltr" writing-mode="lr-tb" unicode-bidi="normal" text-decoration="none" transform="matrix(1 0 0 1 490.335 1549)">长度</text></g><g><text fill="#000000" fill-opacity="1" font-family="DengXian,DengXian_MSFontService,sans-serif" font-style="normal" font-variant="normal" font-weight="700" font-stretch="normal" font-size="83" text-anchor="start" direction="ltr" writing-mode="lr-tb" unicode-bidi="normal" text-decoration="none" transform="matrix(1 0 0 1 741.166 1672)">区块版本号</text></g><g><text fill="#000000" fill-opacity="1" font-family="DengXian,DengXian_MSFontService,sans-serif" font-style="normal" font-variant="normal" font-weight="700" font-stretch="normal" font-size="83" text-anchor="start" direction="ltr" writing-mode="lr-tb" unicode-bidi="normal" text-decoration="none" transform="matrix(1 0 0 1 491.71 1672)">4</text></g><g><text fill="#000000" fill-opacity="1" font-family="DengXian,DengXian_MSFontService,sans-serif" font-style="normal" font-variant="normal" font-weight="700" font-stretch="normal" font-size="83" text-anchor="start" direction="ltr" writing-mode="lr-tb" unicode-bidi="normal" text-decoration="none" transform="matrix(1 0 0 1 741.166 1805)">前一区块头</text></g><text fill="#000000" fill-opacity="1" font-family="DengXian,DengXian_MSFontService,sans-serif" font-style="normal" font-variant="normal" font-weight="700" font-stretch="normal" font-size="83" text-anchor="start" direction="ltr" writing-mode="lr-tb" unicode-bidi="normal" text-decoration="none" transform="matrix(1 0 0 1 1153.67 1805)">Hash</text><g><text fill="#000000" fill-opacity="1" font-family="DengXian,DengXian_MSFontService,sans-serif" font-style="normal" font-variant="normal" font-weight="700" font-stretch="normal" font-size="83" text-anchor="start" direction="ltr" writing-mode="lr-tb" unicode-bidi="normal" text-decoration="none" transform="matrix(1 0 0 1 491.71 1805)">32</text></g><g><text fill="#000000" fill-opacity="1" font-family="DengXian,DengXian_MSFontService,sans-serif" font-style="normal" font-variant="normal" font-weight="700" font-stretch="normal" font-size="83" text-anchor="start" direction="ltr" writing-mode="lr-tb" unicode-bidi="normal" text-decoration="none" transform="matrix(1 0 0 1 741.166 1939)">Merkle</text></g><text fill="#000000" fill-opacity="1" font-family="DengXian,DengXian_MSFontService,sans-serif" font-style="normal" font-variant="normal" font-weight="700" font-stretch="normal" font-size="83" text-anchor="start" direction="ltr" writing-mode="lr-tb" unicode-bidi="normal" text-decoration="none" transform="matrix(1 0 0 1 1001.27 1939)">树根</text><text fill="#000000" fill-opacity="1" font-family="DengXian,DengXian_MSFontService,sans-serif" font-style="normal" font-variant="normal" font-weight="700" font-stretch="normal" font-size="83" text-anchor="start" direction="ltr" writing-mode="lr-tb" unicode-bidi="normal" text-decoration="none" transform="matrix(1 0 0 1 1166.27 1939)">Hash</text><g><text fill="#000000" fill-opacity="1" font-family="DengXian,DengXian_MSFontService,sans-serif" font-style="normal" font-variant="normal" font-weight="700" font-stretch="normal" font-size="83" text-anchor="start" direction="ltr" writing-mode="lr-tb" unicode-bidi="normal" text-decoration="none" transform="matrix(1 0 0 1 491.71 1939)">32</text></g><g><text fill="#000000" fill-opacity="1" font-family="DengXian,DengXian_MSFontService,sans-serif" font-style="normal" font-variant="normal" font-weight="700" font-stretch="normal" font-size="83" text-anchor="start" direction="ltr" writing-mode="lr-tb" unicode-bidi="normal" text-decoration="none" transform="matrix(1 0 0 1 741.166 2072)">时间戳</text></g><g><text fill="#000000" fill-opacity="1" font-family="DengXian,DengXian_MSFontService,sans-serif" font-style="normal" font-variant="normal" font-weight="700" font-stretch="normal" font-size="83" text-anchor="start" direction="ltr" writing-mode="lr-tb" unicode-bidi="normal" text-decoration="none" transform="matrix(1 0 0 1 491.71 2072)">4</text></g><g><text fill="#000000" fill-opacity="1" font-family="DengXian,DengXian_MSFontService,sans-serif" font-style="normal" font-variant="normal" font-weight="700" font-stretch="normal" font-size="83" text-anchor="start" direction="ltr" writing-mode="lr-tb" unicode-bidi="normal" text-decoration="none" transform="matrix(1 0 0 1 741.166 2205)">难度目标</text></g><g><text fill="#000000" fill-opacity="1" font-family="DengXian,DengXian_MSFontService,sans-serif" font-style="normal" font-variant="normal" font-weight="700" font-stretch="normal" font-size="83" text-anchor="start" direction="ltr" writing-mode="lr-tb" unicode-bidi="normal" text-decoration="none" transform="matrix(1 0 0 1 491.71 2205)">4</text></g><g><text fill="#000000" fill-opacity="1" font-family="DengXian,DengXian_MSFontService,sans-serif" font-style="normal" font-variant="normal" font-weight="700" font-stretch="normal" font-size="83" text-anchor="start" direction="ltr" writing-mode="lr-tb" unicode-bidi="normal" text-decoration="none" transform="matrix(1 0 0 1 741.166 2339)">Nonce</text></g><text fill="#000000" fill-opacity="1" font-family="DengXian,DengXian_MSFontService,sans-serif" font-style="normal" font-variant="normal" font-weight="700" font-stretch="normal" font-size="83" text-anchor="start" direction="ltr" writing-mode="lr-tb" unicode-bidi="normal" text-decoration="none" transform="matrix(1 0 0 1 984.655 2339)">：</text><text fill="#000000" fill-opacity="1" font-family="DengXian,DengXian_MSFontService,sans-serif" font-style="normal" font-variant="normal" font-weight="700" font-stretch="normal" font-size="83" text-anchor="start" direction="ltr" writing-mode="lr-tb" unicode-bidi="normal" text-decoration="none" transform="matrix(1 0 0 1 1067.16 2339)">随机数</text><g><text fill="#000000" fill-opacity="1" font-family="DengXian,DengXian_MSFontService,sans-serif" font-style="normal" font-variant="normal" font-weight="700" font-stretch="normal" font-size="83" text-anchor="start" direction="ltr" writing-mode="lr-tb" unicode-bidi="normal" text-decoration="none" transform="matrix(1 0 0 1 491.71 2339)">4</text></g><path d="M1504.5 1398.67C1504.5 1289.22 1593.22 1200.5 1702.67 1200.5L2745.33 1200.5C2854.78 1200.5 2943.5 1289.22 2943.5 1398.67L2943.5 2191.33C2943.5 2300.78 2854.78 2389.5 2745.33 2389.5L1702.67 2389.5C1593.22 2389.5 1504.5 2300.78 1504.5 2191.33Z" stroke="#172C51" stroke-width="4.58333" stroke-linecap="butt" stroke-linejoin="miter" stroke-miterlimit="8" stroke-opacity="1" fill="#00B050" fill-rule="evenodd" fill-opacity="1"/><text fill="#FFFFFF" fill-opacity="1" font-family="DengXian,DengXian_MSFontService,sans-serif" font-style="normal" font-variant="normal" font-weight="700" font-stretch="normal" font-size="202" text-anchor="start" direction="ltr" writing-mode="lr-tb" unicode-bidi="normal" text-decoration="none" transform="matrix(1 0 0 1 2021.35 1598)">内容</text><text fill="#FFFFFF" fill-opacity="1" font-family="DengXian,DengXian_MSFontService,sans-serif" font-style="normal" font-variant="normal" font-weight="700" font-stretch="normal" font-size="147" text-anchor="start" direction="ltr" writing-mode="lr-tb" unicode-bidi="normal" text-decoration="none" transform="matrix(1 0 0 1 1889.01 1789)">交易记录</text><text fill="#FFFFFF" fill-opacity="1" font-family="DengXian,DengXian_MSFontService,sans-serif" font-style="normal" font-variant="normal" font-weight="700" font-stretch="normal" font-size="147" text-anchor="start" direction="ltr" writing-mode="lr-tb" unicode-bidi="normal" text-decoration="none" transform="matrix(1 0 0 1 2475.67 1789)">1</text><text fill="#FFFFFF" fill-opacity="1" font-family="DengXian,DengXian_MSFontService,sans-serif" font-style="normal" font-variant="normal" font-weight="700" font-stretch="normal" font-size="147" text-anchor="start" direction="ltr" writing-mode="lr-tb" unicode-bidi="normal" text-decoration="none" transform="matrix(1 0 0 1 1889.01 1965)">交易记录</text><text fill="#FFFFFF" fill-opacity="1" font-family="DengXian,DengXian_MSFontService,sans-serif" font-style="normal" font-variant="normal" font-weight="700" font-stretch="normal" font-size="147" text-anchor="start" direction="ltr" writing-mode="lr-tb" unicode-bidi="normal" text-decoration="none" transform="matrix(1 0 0 1 2475.67 1965)">2</text><text fill="#FFFFFF" fill-opacity="1" font-family="DengXian,DengXian_MSFontService,sans-serif" font-style="normal" font-variant="normal" font-weight="700" font-stretch="normal" font-size="147" text-anchor="start" direction="ltr" writing-mode="lr-tb" unicode-bidi="normal" text-decoration="none" transform="matrix(1 0 0 1 2163.43 2141)">…</text><text fill="#FFFFFF" fill-opacity="1" font-family="DengXian,DengXian_MSFontService,sans-serif" font-style="normal" font-variant="normal" font-weight="400" font-stretch="normal" font-size="147" text-anchor="start" direction="ltr" writing-mode="lr-tb" unicode-bidi="normal" text-decoration="none" transform="matrix(1 0 0 1 1253.24 1030)">一个区块</text><path d="M0 0 1379.19 225.655" stroke="#4472C4" stroke-width="2.29167" stroke-linecap="butt" stroke-linejoin="miter" stroke-miterlimit="8" stroke-opacity="1" fill="none" fill-rule="evenodd" transform="matrix(-1 0 0 1 1836.19 569)"/><path d="M2123 562 2806.91 794.684" stroke="#4472C4" stroke-width="2.29167" stroke-linecap="butt" stroke-linejoin="miter" stroke-miterlimit="8" stroke-opacity="1" fill="none" fill-rule="evenodd"/><path d="M1279.23 150.735 1727.83 150.735 1727.83 303.735 1279.23 303.735Z" fill="#FFFF00" fill-rule="evenodd" fill-opacity="1"/><text fill="#FF0000" fill-opacity="1" font-family="DengXian Light,DengXian Light_MSFontService,sans-serif" font-style="normal" font-variant="normal" font-weight="700" font-stretch="normal" font-size="147" text-anchor="start" direction="ltr" writing-mode="lr-tb" unicode-bidi="normal" text-decoration="none" transform="matrix(1 0 0 1 1279.23 265)">区块链</text></g></g></svg>