<svg width="3827" height="2402" xmlns="http://www.w3.org/2000/svg" xmlns:xlink="http://www.w3.org/1999/xlink" xml:space="preserve" overflow="hidden"><g transform="translate(-279 -77)"><g><path d="M710.438 457.5 710.438 551.43 703.563 551.43 703.563 457.5ZM726.011 525.662 707 558.252 687.989 525.662C687.033 524.022 687.587 521.917 689.226 520.961 690.866 520.004 692.971 520.558 693.928 522.198L709.969 549.698 704.031 549.698 720.073 522.198C721.029 520.558 723.134 520.004 724.774 520.961 726.414 521.917 726.968 524.022 726.011 525.662Z" fill="#000000" fill-rule="nonzero" fill-opacity="1"/><rect x="463.5" y="166.5" width="486" height="291" stroke="#FFFFFF" stroke-width="4.58333" stroke-linecap="butt" stroke-linejoin="miter" stroke-miterlimit="8" stroke-opacity="1" fill="#4472C4" fill-opacity="1"/><text fill="#FFFFFF" fill-opacity="1" font-family="DengXian,DengXian_MSFontService,sans-serif" font-style="normal" font-variant="normal" font-weight="700" font-stretch="normal" font-size="73" text-anchor="start" direction="ltr" writing-mode="lr-tb" unicode-bidi="normal" text-decoration="none" transform="matrix(1 0 0 1 566.417 329)">Random</text><path d="M710.438 860.5 710.438 954.43 703.563 954.43 703.563 860.5ZM726.011 928.662 707 961.252 687.989 928.662C687.033 927.022 687.587 924.917 689.226 923.961 690.866 923.004 692.971 923.558 693.928 925.198L709.969 952.698 704.031 952.698 720.073 925.198C721.029 923.558 723.134 923.004 724.774 923.961 726.414 924.917 726.968 927.022 726.011 928.662Z" fill="#000000" fill-rule="nonzero" fill-opacity="1"/><rect x="463.5" y="569.5" width="486" height="292" stroke="#FFFFFF" stroke-width="4.58333" stroke-linecap="butt" stroke-linejoin="miter" stroke-miterlimit="8" stroke-opacity="1" fill="#C55A11" fill-opacity="1"/><text fill="#FFFFFF" fill-opacity="1" font-family="DengXian,DengXian_MSFontService,sans-serif" font-style="normal" font-variant="normal" font-weight="700" font-stretch="normal" font-size="73" text-anchor="start" direction="ltr" writing-mode="lr-tb" unicode-bidi="normal" text-decoration="none" transform="matrix(1 0 0 1 632.898 732)">私钥</text><path d="M710.438 1263.5 710.438 1357.43 703.563 1357.43 703.563 1263.5ZM726.011 1331.66 707 1364.25 687.989 1331.66C687.033 1330.02 687.587 1327.92 689.226 1326.96 690.866 1326 692.971 1326.56 693.928 1328.2L709.969 1355.7 704.031 1355.7 720.073 1328.2C721.029 1326.56 723.134 1326 724.774 1326.96 726.414 1327.92 726.968 1330.02 726.011 1331.66Z" fill="#000000" fill-rule="nonzero" fill-opacity="1"/><rect x="463.5" y="973.5" width="486" height="291" stroke="#FFFFFF" stroke-width="4.58333" stroke-linecap="butt" stroke-linejoin="miter" stroke-miterlimit="8" stroke-opacity="1" fill="#4472C4" fill-opacity="1"/><text fill="#FFFFFF" fill-opacity="1" font-family="DengXian,DengXian_MSFontService,sans-serif" font-style="normal" font-variant="normal" font-weight="700" font-stretch="normal" font-size="73" text-anchor="start" direction="ltr" writing-mode="lr-tb" unicode-bidi="normal" text-decoration="none" transform="matrix(1 0 0 1 519.243 1135)">SECP256K1</text><path d="M710.438 1667.5 710.438 1761.43 703.563 1761.43 703.563 1667.5ZM726.011 1735.66 707 1768.25 687.989 1735.66C687.033 1734.02 687.587 1731.92 689.226 1730.96 690.866 1730 692.971 1730.56 693.928 1732.2L709.969 1759.7 704.031 1759.7 720.073 1732.2C721.029 1730.56 723.134 1730 724.774 1730.96 726.414 1731.92 726.968 1734.02 726.011 1735.66Z" fill="#000000" fill-rule="nonzero" fill-opacity="1"/><rect x="463.5" y="1376.5" width="486" height="291" stroke="#FFFFFF" stroke-width="4.58333" stroke-linecap="butt" stroke-linejoin="miter" stroke-miterlimit="8" stroke-opacity="1" fill="#548235" fill-opacity="1"/><text fill="#FFFFFF" fill-opacity="1" font-family="DengXian,DengXian_MSFontService,sans-serif" font-style="normal" font-variant="normal" font-weight="700" font-stretch="normal" font-size="73" text-anchor="start" direction="ltr" writing-mode="lr-tb" unicode-bidi="normal" text-decoration="none" transform="matrix(1 0 0 1 632.898 1539)">公钥</text><path d="M710.438 2070.5 710.438 2164.43 703.563 2164.43 703.563 2070.5ZM726.011 2138.66 707 2171.25 687.989 2138.66C687.033 2137.02 687.587 2134.92 689.226 2133.96 690.866 2133 692.971 2133.56 693.928 2135.2L709.969 2162.7 704.031 2162.7 720.073 2135.2C721.029 2133.56 723.134 2133 724.774 2133.96 726.414 2134.92 726.968 2137.02 726.011 2138.66Z" fill="#000000" fill-rule="nonzero" fill-opacity="1"/><rect x="463.5" y="1779.5" width="486" height="292" stroke="#FFFFFF" stroke-width="4.58333" stroke-linecap="butt" stroke-linejoin="miter" stroke-miterlimit="8" stroke-opacity="1" fill="#4472C4" fill-opacity="1"/><text fill="#FFFFFF" fill-opacity="1" font-family="DengXian,DengXian_MSFontService,sans-serif" font-style="normal" font-variant="normal" font-weight="700" font-stretch="normal" font-size="73" text-anchor="start" direction="ltr" writing-mode="lr-tb" unicode-bidi="normal" text-decoration="none" transform="matrix(1 0 0 1 573.612 1942)">SHA256</text><rect x="463.5" y="2183.5" width="486" height="291" stroke="#FFFFFF" stroke-width="4.58333" stroke-linecap="butt" stroke-linejoin="miter" stroke-miterlimit="8" stroke-opacity="1" fill="#4472C4" fill-opacity="1"/><text fill="#FFFFFF" fill-opacity="1" font-family="DengXian,DengXian_MSFontService,sans-serif" font-style="normal" font-variant="normal" font-weight="700" font-stretch="normal" font-size="73" text-anchor="start" direction="ltr" writing-mode="lr-tb" unicode-bidi="normal" text-decoration="none" transform="matrix(1 0 0 1 511.038 2346)">RIPEMD160</text><path d="M2040.5 309.563 2135.27 309.563 2135.27 316.438 2040.5 316.438ZM2109.5 293.989 2142.09 313 2109.5 332.011C2107.86 332.968 2105.76 332.414 2104.8 330.774 2103.85 329.134 2104.4 327.029 2106.04 326.073L2133.54 310.031 2133.54 315.969 2106.04 299.928C2104.4 298.971 2103.85 296.866 2104.8 295.226 2105.76 293.587 2107.86 293.033 2109.5 293.989Z" fill="#000000" fill-rule="nonzero" fill-opacity="1"/><rect x="1551.5" y="165.5" width="490" height="294" stroke="#FFFFFF" stroke-width="4.58333" stroke-linecap="butt" stroke-linejoin="miter" stroke-miterlimit="8" stroke-opacity="1" fill="#548235" fill-opacity="1"/><text fill="#FFFFFF" fill-opacity="1" font-family="DengXian,DengXian_MSFontService,sans-serif" font-style="normal" font-variant="normal" font-weight="400" font-stretch="normal" font-size="69" text-anchor="start" direction="ltr" writing-mode="lr-tb" unicode-bidi="normal" text-decoration="none" transform="matrix(1 0 0 1 1658.3 328)">公钥哈希</text><path d="M2642.5 309.563 2737.27 309.563 2737.27 316.438 2642.5 316.438ZM2711.5 293.989 2744.09 313 2711.5 332.011C2709.86 332.968 2707.76 332.414 2706.8 330.774 2705.85 329.134 2706.4 327.029 2708.04 326.073L2735.54 310.031 2735.54 315.969 2708.04 299.928C2706.4 298.971 2705.85 296.866 2706.8 295.226 2707.76 293.587 2709.86 293.033 2711.5 293.989Z" fill="#000000" fill-rule="nonzero" fill-opacity="1"/><rect x="2153.5" y="165.5" width="490" height="294" stroke="#FFFFFF" stroke-width="4.58333" stroke-linecap="butt" stroke-linejoin="miter" stroke-miterlimit="8" stroke-opacity="1" fill="#4472C4" fill-opacity="1"/><text fill="#FFFFFF" fill-opacity="1" font-family="DengXian,DengXian_MSFontService,sans-serif" font-style="normal" font-variant="normal" font-weight="400" font-stretch="normal" font-size="69" text-anchor="start" direction="ltr" writing-mode="lr-tb" unicode-bidi="normal" text-decoration="none" transform="matrix(1 0 0 1 2290.74 270)">Double</text><text fill="#FFFFFF" fill-opacity="1" font-family="DengXian,DengXian_MSFontService,sans-serif" font-style="normal" font-variant="normal" font-weight="400" font-stretch="normal" font-size="69" text-anchor="start" direction="ltr" writing-mode="lr-tb" unicode-bidi="normal" text-decoration="none" transform="matrix(1 0 0 1 2280.36 387)">SHA256</text><rect x="2756.5" y="165.5" width="489" height="294" stroke="#FFFFFF" stroke-width="4.58333" stroke-linecap="butt" stroke-linejoin="miter" stroke-miterlimit="8" stroke-opacity="1" fill="#00B0F0" fill-opacity="1"/><text fill="#FFFFFF" fill-opacity="1" font-family="DengXian,DengXian_MSFontService,sans-serif" font-style="normal" font-variant="normal" font-weight="400" font-stretch="normal" font-size="69" text-anchor="start" direction="ltr" writing-mode="lr-tb" unicode-bidi="normal" text-decoration="none" transform="matrix(1 0 0 1 2913.5 270)">前</text><text fill="#FFFFFF" fill-opacity="1" font-family="DengXian,DengXian_MSFontService,sans-serif" font-style="normal" font-variant="normal" font-weight="400" font-stretch="normal" font-size="69" text-anchor="start" direction="ltr" writing-mode="lr-tb" unicode-bidi="normal" text-decoration="none" transform="matrix(1 0 0 1 2982.25 270)">4</text><text fill="#FFFFFF" fill-opacity="1" font-family="DengXian,DengXian_MSFontService,sans-serif" font-style="normal" font-variant="normal" font-weight="400" font-stretch="normal" font-size="69" text-anchor="start" direction="ltr" writing-mode="lr-tb" unicode-bidi="normal" text-decoration="none" transform="matrix(1 0 0 1 3018.48 270)">个</text><text fill="#FFFFFF" fill-opacity="1" font-family="DengXian,DengXian_MSFontService,sans-serif" font-style="normal" font-variant="normal" font-weight="400" font-stretch="normal" font-size="69" text-anchor="start" direction="ltr" writing-mode="lr-tb" unicode-bidi="normal" text-decoration="none" transform="matrix(1 0 0 1 2931.6 387)">字节</text><path d="M0-3.4375 295.177-3.4375 295.177 526.087 291.739 522.649 560.562 522.649 560.562 529.524 288.302 529.524 288.302 0 291.739 3.4375 0 3.4375ZM555.978 512.337 583.478 526.087 555.978 539.837Z" fill="#000000" fill-rule="nonzero" fill-opacity="1" transform="matrix(1.83697e-16 1 1 -1.83697e-16 1774.5 459.5)"/><path d="M0-3.4375 295.176-3.4375 295.176 44.039 291.739 40.6015 560.561 40.6015 560.561 47.4765 288.301 47.4765 288.301 0 291.739 3.4375 0 3.4375ZM555.978 30.289 583.478 44.039 555.978 57.789Z" fill="#000000" fill-rule="nonzero" fill-opacity="1" transform="matrix(1.83697e-16 1 1 -1.83697e-16 2994.5 459.5)"/><rect x="1256.5" y="165.5" width="296" height="294" stroke="#172C51" stroke-width="4.58333" stroke-linecap="butt" stroke-linejoin="miter" stroke-miterlimit="8" stroke-opacity="1" fill="#595959" fill-opacity="1"/><text fill="#FFFFFF" fill-opacity="1" font-family="DengXian,DengXian_MSFontService,sans-serif" font-style="normal" font-variant="normal" font-weight="400" font-stretch="normal" font-size="83" text-anchor="start" direction="ltr" writing-mode="lr-tb" unicode-bidi="normal" text-decoration="none" transform="matrix(1 0 0 1 1320.53 340)">0x00</text><rect x="1965.5" y="1043.5" width="866" height="277" stroke="#172C51" stroke-width="4.58333" stroke-linecap="butt" stroke-linejoin="miter" stroke-miterlimit="8" stroke-opacity="1" fill="#548235" fill-opacity="1"/><text fill="#FFFFFF" fill-opacity="1" font-family="DengXian,DengXian_MSFontService,sans-serif" font-style="normal" font-variant="normal" font-weight="400" font-stretch="normal" font-size="83" text-anchor="start" direction="ltr" writing-mode="lr-tb" unicode-bidi="normal" text-decoration="none" transform="matrix(1 0 0 1 2233.08 1209)">公钥哈希</text><rect x="1550.5" y="1043.5" width="415" height="277" stroke="#172C51" stroke-width="4.58333" stroke-linecap="butt" stroke-linejoin="miter" stroke-miterlimit="8" stroke-opacity="1" fill="#595959" fill-opacity="1"/><text fill="#FFFFFF" fill-opacity="1" font-family="DengXian,DengXian_MSFontService,sans-serif" font-style="normal" font-variant="normal" font-weight="400" font-stretch="normal" font-size="83" text-anchor="start" direction="ltr" writing-mode="lr-tb" unicode-bidi="normal" text-decoration="none" transform="matrix(1 0 0 1 1674.05 1209)">0x00</text><rect x="2830.5" y="1043.5" width="416" height="277" stroke="#172C51" stroke-width="4.58333" stroke-linecap="butt" stroke-linejoin="miter" stroke-miterlimit="8" stroke-opacity="1" fill="#00B0F0" fill-opacity="1"/><text fill="#FFFFFF" fill-opacity="1" font-family="DengXian,DengXian_MSFontService,sans-serif" font-style="normal" font-variant="normal" font-weight="400" font-stretch="normal" font-size="83" text-anchor="start" direction="ltr" writing-mode="lr-tb" unicode-bidi="normal" text-decoration="none" transform="matrix(1 0 0 1 2955.65 1209)">校验</text><rect x="1983.5" y="1583.5" width="834" height="230" stroke="#172C51" stroke-width="4.58333" stroke-linecap="butt" stroke-linejoin="miter" stroke-miterlimit="8" stroke-opacity="1" fill="#4472C4" fill-opacity="1"/><text fill="#FFFFFF" fill-opacity="1" font-family="DengXian,DengXian_MSFontService,sans-serif" font-style="normal" font-variant="normal" font-weight="400" font-stretch="normal" font-size="83" text-anchor="start" direction="ltr" writing-mode="lr-tb" unicode-bidi="normal" text-decoration="none" transform="matrix(1 0 0 1 2264.94 1725)">BASE58</text><rect x="1976.5" y="2090.5" width="845" height="230" stroke="#2B4719" stroke-width="4.58333" stroke-linecap="butt" stroke-linejoin="miter" stroke-miterlimit="8" stroke-opacity="1" fill="#70AD47" fill-opacity="1"/><text fill="#FFFFFF" fill-opacity="1" font-family="DengXian,DengXian_MSFontService,sans-serif" font-style="normal" font-variant="normal" font-weight="400" font-stretch="normal" font-size="83" text-anchor="start" direction="ltr" writing-mode="lr-tb" unicode-bidi="normal" text-decoration="none" transform="matrix(1 0 0 1 2233.08 2232)">钱包地址</text><path d="M2401.94 1320.48 2403.3 1560.61 2396.43 1560.65 2395.06 1320.52ZM2413.59 1555.97 2399.99 1583.54 2386.09 1556.12Z" fill="#000000" fill-rule="nonzero" fill-opacity="1"/><path d="M3.43745-0.0185283 4.8091 254.457-2.0658 254.494-3.43745 0.0185283ZM15.0968 249.818 1.49518 277.392-12.4028 249.966Z" fill="#000000" fill-rule="nonzero" fill-opacity="1" transform="matrix(-1 0 0 1 2400 1813.5)"/><rect x="3235.5" y="165.5" width="865" height="286" stroke="#172C51" stroke-width="4.58333" stroke-linecap="butt" stroke-linejoin="miter" stroke-miterlimit="8" stroke-opacity="1" fill="#595959" fill-opacity="1"/><path d="M1126.06 2320.06 1126.06 79.5646 1408.23 79.5646 1408.23 142.583 1401.36 142.583 1401.36 83.0021 1404.8 86.4396 1129.5 86.4396 1132.94 83.0021 1132.94 2320.06ZM1418.55 138 1404.8 165.5 1391.05 138Z" fill="#000000" fill-rule="nonzero" fill-opacity="1"/><path d="M947.5 2320.5 1129.14 2320.5" stroke="#000000" stroke-width="6.875" stroke-linecap="butt" stroke-linejoin="miter" stroke-miterlimit="8" stroke-opacity="1" fill="none" fill-rule="evenodd"/></g></g></svg>