<svg xmlns="http://www.w3.org/2000/svg" xml:space="preserve" width="2754" height="1851" overflow="hidden"><path fill="#ffc000" fill-rule="evenodd" d="M1645.95 2H5v1844.86h1640.95z"/><path fill="#ffc000" fill-rule="evenodd" stroke="#000" stroke-linejoin="round" stroke-miterlimit="10" stroke-width="3.438" d="M5.5 1847.36h1640.95V2.5H5.5z"/><text fill="#fff" font-family="Microsoft YaHei,Microsoft YaHei_MSFontService,sans-serif" font-size="138" font-weight="700" transform="translate(670.38 317)">证书</text><path fill="#badfe2" stroke="#000" stroke-linejoin="round" stroke-miterlimit="10" stroke-width="3.438" d="M255.5 1476.5h1178v180h-1178z"/><text font-family="Microsoft YaHei,Microsoft YaHei_MSFontService,sans-serif" font-size="138" font-weight="700" transform="translate(624.408 1622)">CA</text><text font-family="Microsoft YaHei,Microsoft YaHei_MSFontService,sans-serif" font-size="138" font-weight="700" transform="translate(819.43 1622)">签名</text><path fill="#d5ecee" stroke="#172c51" stroke-miterlimit="8" stroke-width="4.583" d="M2002.5 750.5h746v343h-746z"/><text fill="#69f" font-family="Microsoft YaHei,Microsoft YaHei_MSFontService,sans-serif" font-size="128" font-weight="400" transform="translate(2246.61 968)">签字</text><path fill="#d5ecee" fill-rule="evenodd" stroke="#172c51" stroke-miterlimit="8" stroke-width="4.583" d="M2341.5 694.5h14v-286h28v286h14l-28 28ZM2401.5 1095.5v305.22c0 135.34-109.72 245.06-245.06 245.06h-378.1v18.72l-122.84-41.33 122.84-41.32v18.72h378.1c110.38 0 199.85-89.48 199.85-199.85V1095.5ZM1669.5 907.25H1941V889.5l35.5 35.5-35.5 35.5v-17.75h-271.5Z"/><path fill="#fff" stroke="#70ad47" stroke-miterlimit="8" stroke-width="4.583" d="M2096.5 122.5h546v285h-546z"/><text font-family="Microsoft YaHei,Microsoft YaHei_MSFontService,sans-serif" font-size="83" font-weight="700" transform="translate(2186.24 294)">CA</text><text font-family="Microsoft YaHei,Microsoft YaHei_MSFontService,sans-serif" font-size="83" font-weight="700" transform="translate(2303.68 294)">的私钥</text><path fill="#69f" fill-rule="evenodd" d="M185.439 406.562H1494.6V656.02H185.439ZM185.439 656.02H1494.6v249.46H185.439ZM185.439 905.48H1494.6v249.46H185.439ZM185.439 1154.94H1494.6v249.46H185.439Z"/><path fill="none" stroke="#4472c4" stroke-linejoin="round" stroke-miterlimit="10" stroke-width="9.167" d="M183.147 656.02H1496.89"/><path fill="none" stroke="#4472c4" stroke-linejoin="round" stroke-miterlimit="10" stroke-width="4.583" d="M183.147 905.48H1496.89M183.147 1154.94H1496.89M185.439 404.27v1002.42M1494.6 404.27v1002.42M183.147 406.562H1496.89M183.147 1404.4H1496.89"/><text font-family="DengXian,DengXian_MSFontService,sans-serif" font-size="128" font-weight="700" transform="translate(455.019 543)">主体身份信息</text><text font-family="DengXian,DengXian_MSFontService,sans-serif" font-size="128" font-weight="700" transform="translate(519.186 793)">主体的公钥</text><text font-family="DengXian,DengXian_MSFontService,sans-serif" font-size="128" font-weight="700" transform="translate(628.9 1042)">CA</text><text font-family="DengXian,DengXian_MSFontService,sans-serif" font-size="128" font-weight="700" transform="translate(794.47 1042)">名称</text><text font-family="DengXian,DengXian_MSFontService,sans-serif" font-size="128" font-weight="700" transform="translate(519.186 1291)">算法和用途</text></svg>