<svg width="2754" height="1851" xmlns="http://www.w3.org/2000/svg" xmlns:xlink="http://www.w3.org/1999/xlink" xml:space="preserve" overflow="hidden"><g transform="translate(-371 -426)"><g><path d="M2016.95 428 376 428 376 2272.86 2016.95 2272.86 2016.95 428Z" fill="#FFC000" fill-rule="evenodd" fill-opacity="1"/><path d="M376.5 2273.36 2017.45 2273.36 2017.45 428.5 376.5 428.5 376.5 2273.36Z" stroke="#000000" stroke-width="3.4375" stroke-linecap="butt" stroke-linejoin="round" stroke-miterlimit="10" stroke-opacity="1" fill="#FFC000" fill-rule="evenodd" fill-opacity="1"/><text fill="#FFFFFF" fill-opacity="1" font-family="Microsoft YaHei,Microsoft YaHei_MSFontService,sans-serif" font-style="normal" font-variant="normal" font-weight="700" font-stretch="normal" font-size="138" text-anchor="start" direction="ltr" writing-mode="lr-tb" unicode-bidi="normal" text-decoration="none" transform="matrix(1 0 0 1 1041.38 743)">证书</text><rect x="626.5" y="1902.5" width="1178" height="180" stroke="#000000" stroke-width="3.4375" stroke-linecap="butt" stroke-linejoin="round" stroke-miterlimit="10" stroke-opacity="1" fill="#BADFE2" fill-opacity="1"/><text fill="#000000" fill-opacity="1" font-family="Microsoft YaHei,Microsoft YaHei_MSFontService,sans-serif" font-style="normal" font-variant="normal" font-weight="700" font-stretch="normal" font-size="138" text-anchor="start" direction="ltr" writing-mode="lr-tb" unicode-bidi="normal" text-decoration="none" transform="matrix(1 0 0 1 995.408 2048)">CA</text><text fill="#000000" fill-opacity="1" font-family="Microsoft YaHei,Microsoft YaHei_MSFontService,sans-serif" font-style="normal" font-variant="normal" font-weight="700" font-stretch="normal" font-size="138" text-anchor="start" direction="ltr" writing-mode="lr-tb" unicode-bidi="normal" text-decoration="none" transform="matrix(1 0 0 1 1190.43 2048)">签名</text><rect x="2373.5" y="1176.5" width="746" height="343" stroke="#172C51" stroke-width="4.58333" stroke-linecap="butt" stroke-linejoin="miter" stroke-miterlimit="8" stroke-opacity="1" fill="#D5ECEE" fill-opacity="1"/><text fill="#6699FF" fill-opacity="1" font-family="Microsoft YaHei,Microsoft YaHei_MSFontService,sans-serif" font-style="normal" font-variant="normal" font-weight="400" font-stretch="normal" font-size="128" text-anchor="start" direction="ltr" writing-mode="lr-tb" unicode-bidi="normal" text-decoration="none" transform="matrix(1 0 0 1 2617.61 1394)">签字</text><path d="M2712.5 1120.5 2726.5 1120.5 2726.5 834.5 2754.5 834.5 2754.5 1120.5 2768.5 1120.5 2740.5 1148.5Z" stroke="#172C51" stroke-width="4.58333" stroke-linecap="butt" stroke-linejoin="miter" stroke-miterlimit="8" stroke-opacity="1" fill="#D5ECEE" fill-rule="evenodd" fill-opacity="1"/><path d="M2772.5 1521.5 2772.5 1826.72C2772.5 1962.06 2662.78 2071.78 2527.44 2071.78L2149.34 2071.78 2149.34 2090.5 2026.5 2049.17 2149.34 2007.85 2149.34 2026.57 2527.44 2026.57C2637.82 2026.57 2727.29 1937.09 2727.29 1826.72L2727.29 1521.5Z" stroke="#172C51" stroke-width="4.58333" stroke-linecap="butt" stroke-linejoin="miter" stroke-miterlimit="8" stroke-opacity="1" fill="#D5ECEE" fill-rule="evenodd" fill-opacity="1"/><path d="M2040.5 1333.25 2312 1333.25 2312 1315.5 2347.5 1351 2312 1386.5 2312 1368.75 2040.5 1368.75Z" stroke="#172C51" stroke-width="4.58333" stroke-linecap="butt" stroke-linejoin="miter" stroke-miterlimit="8" stroke-opacity="1" fill="#D5ECEE" fill-rule="evenodd" fill-opacity="1"/><rect x="2467.5" y="548.5" width="546" height="285" stroke="#70AD47" stroke-width="4.58333" stroke-linecap="butt" stroke-linejoin="miter" stroke-miterlimit="8" stroke-opacity="1" fill="#FFFFFF" fill-opacity="1"/><text fill="#000000" fill-opacity="1" font-family="Microsoft YaHei,Microsoft YaHei_MSFontService,sans-serif" font-style="normal" font-variant="normal" font-weight="700" font-stretch="normal" font-size="83" text-anchor="start" direction="ltr" writing-mode="lr-tb" unicode-bidi="normal" text-decoration="none" transform="matrix(1 0 0 1 2557.24 720)">CA</text><text fill="#000000" fill-opacity="1" font-family="Microsoft YaHei,Microsoft YaHei_MSFontService,sans-serif" font-style="normal" font-variant="normal" font-weight="700" font-stretch="normal" font-size="83" text-anchor="start" direction="ltr" writing-mode="lr-tb" unicode-bidi="normal" text-decoration="none" transform="matrix(1 0 0 1 2674.68 720)">的私钥</text><path d="M556.439 832.562 1865.6 832.562 1865.6 1082.02 556.439 1082.02Z" fill="#6699FF" fill-rule="evenodd" fill-opacity="1"/><path d="M556.439 1082.02 1865.6 1082.02 1865.6 1331.48 556.439 1331.48Z" fill="#6699FF" fill-rule="evenodd" fill-opacity="1"/><path d="M556.439 1331.48 1865.6 1331.48 1865.6 1580.94 556.439 1580.94Z" fill="#6699FF" fill-rule="evenodd" fill-opacity="1"/><path d="M556.439 1580.94 1865.6 1580.94 1865.6 1830.4 556.439 1830.4Z" fill="#6699FF" fill-rule="evenodd" fill-opacity="1"/><path d="M554.147 1082.02 1867.89 1082.02" stroke="#4472C4" stroke-width="9.16667" stroke-linecap="butt" stroke-linejoin="round" stroke-miterlimit="10" stroke-opacity="1" fill="none" fill-rule="evenodd"/><path d="M554.147 1331.48 1867.89 1331.48" stroke="#4472C4" stroke-width="4.58333" stroke-linecap="butt" stroke-linejoin="round" stroke-miterlimit="10" stroke-opacity="1" fill="none" fill-rule="evenodd"/><path d="M554.147 1580.94 1867.89 1580.94" stroke="#4472C4" stroke-width="4.58333" stroke-linecap="butt" stroke-linejoin="round" stroke-miterlimit="10" stroke-opacity="1" fill="none" fill-rule="evenodd"/><path d="M556.439 830.27 556.439 1832.69" stroke="#4472C4" stroke-width="4.58333" stroke-linecap="butt" stroke-linejoin="round" stroke-miterlimit="10" stroke-opacity="1" fill="none" fill-rule="evenodd"/><path d="M1865.6 830.27 1865.6 1832.69" stroke="#4472C4" stroke-width="4.58333" stroke-linecap="butt" stroke-linejoin="round" stroke-miterlimit="10" stroke-opacity="1" fill="none" fill-rule="evenodd"/><path d="M554.147 832.562 1867.89 832.562" stroke="#4472C4" stroke-width="4.58333" stroke-linecap="butt" stroke-linejoin="round" stroke-miterlimit="10" stroke-opacity="1" fill="none" fill-rule="evenodd"/><path d="M554.147 1830.4 1867.89 1830.4" stroke="#4472C4" stroke-width="4.58333" stroke-linecap="butt" stroke-linejoin="round" stroke-miterlimit="10" stroke-opacity="1" fill="none" fill-rule="evenodd"/><text fill="#000000" fill-opacity="1" font-family="DengXian,DengXian_MSFontService,sans-serif" font-style="normal" font-variant="normal" font-weight="700" font-stretch="normal" font-size="128" text-anchor="start" direction="ltr" writing-mode="lr-tb" unicode-bidi="normal" text-decoration="none" transform="matrix(1 0 0 1 826.019 969)">主体身份信息</text><text fill="#000000" fill-opacity="1" font-family="DengXian,DengXian_MSFontService,sans-serif" font-style="normal" font-variant="normal" font-weight="700" font-stretch="normal" font-size="128" text-anchor="start" direction="ltr" writing-mode="lr-tb" unicode-bidi="normal" text-decoration="none" transform="matrix(1 0 0 1 890.186 1219)">主体的公钥</text><text fill="#000000" fill-opacity="1" font-family="DengXian,DengXian_MSFontService,sans-serif" font-style="normal" font-variant="normal" font-weight="700" font-stretch="normal" font-size="128" text-anchor="start" direction="ltr" writing-mode="lr-tb" unicode-bidi="normal" text-decoration="none" transform="matrix(1 0 0 1 999.9 1468)">CA</text><text fill="#000000" fill-opacity="1" font-family="DengXian,DengXian_MSFontService,sans-serif" font-style="normal" font-variant="normal" font-weight="700" font-stretch="normal" font-size="128" text-anchor="start" direction="ltr" writing-mode="lr-tb" unicode-bidi="normal" text-decoration="none" transform="matrix(1 0 0 1 1165.47 1468)">名称</text><text fill="#000000" fill-opacity="1" font-family="DengXian,DengXian_MSFontService,sans-serif" font-style="normal" font-variant="normal" font-weight="700" font-stretch="normal" font-size="128" text-anchor="start" direction="ltr" writing-mode="lr-tb" unicode-bidi="normal" text-decoration="none" transform="matrix(1 0 0 1 890.186 1717)">算法和用途</text></g></g></svg>