<svg width="2090" height="1434" xmlns="http://www.w3.org/2000/svg" xmlns:xlink="http://www.w3.org/1999/xlink" xml:space="preserve" overflow="hidden"><g transform="translate(-861 -605)"><g><text fill="#000000" fill-opacity="1" font-family="Arial,Arial_MSFontService,sans-serif" font-style="normal" font-variant="normal" font-weight="700" font-stretch="normal" font-size="128" text-anchor="start" direction="ltr" writing-mode="lr-tb" unicode-bidi="normal" text-decoration="none" transform="matrix(1 0 0 1 940.821 1903)">Bob</text><text fill="#000000" fill-opacity="1" font-family="Arial,Arial_MSFontService,sans-serif" font-style="normal" font-variant="normal" font-weight="700" font-stretch="normal" font-size="128" text-anchor="start" direction="ltr" writing-mode="lr-tb" unicode-bidi="normal" text-decoration="none" transform="matrix(1 0 0 1 2041.14 1931)">Alice</text><path d="M1031.5 1513 1010.94 1514 991.218 1516.93 972.52 1521.65 955.026 1528.02 938.914 1535.93 924.365 1545.23 911.56 1555.79 900.679 1567.49 891.902 1580.19 885.41 1593.77 881.382 1608.08 880 1623 881.382 1637.92 885.41 1652.23 891.902 1665.81 900.679 1678.51 911.56 1690.21 924.365 1700.77 938.914 1710.07 955.026 1717.98 972.52 1724.35 991.218 1729.07 1010.94 1732 1031.5 1733 1052.06 1732 1071.78 1729.07 1090.48 1724.35 1107.97 1717.98 1124.09 1710.07 1138.63 1700.77 1151.44 1690.21 1162.32 1678.51 1171.1 1665.81 1177.59 1652.23 1181.62 1637.92 1183 1623 1181.62 1608.08 1177.59 1593.77 1171.1 1580.19 1162.32 1567.49 1151.44 1555.79 1138.63 1545.23 1124.09 1535.93 1107.97 1528.02 1090.48 1521.65 1071.78 1516.93 1052.06 1514 1031.5 1513Z" fill="#BADFE2" fill-rule="evenodd" fill-opacity="1"/><path d="M880.5 1623.5 881.882 1608.58 885.91 1594.27 892.402 1580.69 901.179 1567.99 912.06 1556.29 924.865 1545.73 939.414 1536.43 955.525 1528.52 973.02 1522.15 991.718 1517.43 1011.44 1514.5 1032 1513.5 1052.56 1514.5 1072.28 1517.43 1090.98 1522.15 1108.47 1528.52 1124.59 1536.43 1139.13 1545.73 1151.94 1556.29 1162.82 1567.99 1171.6 1580.69 1178.09 1594.27 1182.12 1608.58 1183.5 1623.5 1182.12 1638.42 1178.09 1652.73 1171.6 1666.31 1162.82 1679.01 1151.94 1690.71 1139.13 1701.27 1124.59 1710.57 1108.47 1718.48 1090.98 1724.85 1072.28 1729.57 1052.56 1732.5 1032 1733.5 1011.44 1732.5 991.718 1729.57 973.02 1724.85 955.525 1718.48 939.414 1710.57 924.865 1701.27 912.06 1690.71 901.179 1679.01 892.402 1666.31 885.91 1652.73 881.882 1638.42 880.5 1623.5Z" stroke="#000000" stroke-width="3.4375" stroke-linecap="butt" stroke-linejoin="round" stroke-miterlimit="10" stroke-opacity="1" fill="none" fill-rule="evenodd"/><path d="M2173 908 1760 908 1760 1155 2173 1155 2173 908Z" fill="#BADFE2" fill-rule="evenodd" fill-opacity="1"/><path d="M1760.5 1155.5 2173.5 1155.5 2173.5 908.5 1760.5 908.5 1760.5 1155.5Z" stroke="#000000" stroke-width="3.4375" stroke-linecap="butt" stroke-linejoin="round" stroke-miterlimit="10" stroke-opacity="1" fill="none" fill-rule="evenodd"/><path d="M2035 1490 2012.51 1490.57 1990.66 1492.24 1969.58 1494.95 1949.37 1498.65 1930.13 1503.28 1911.99 1508.79 1895.06 1515.13 1879.44 1522.23 1865.24 1530.04 1852.57 1538.51 1841.55 1547.58 1824.89 1567.3 1816.14 1588.76 1815 1600 1816.14 1611.25 1824.89 1632.72 1841.55 1652.44 1852.57 1661.51 1865.24 1669.98 1879.44 1677.79 1895.06 1684.89 1911.99 1691.22 1930.13 1696.73 1949.37 1701.36 1969.58 1705.06 1990.66 1707.77 2012.51 1709.43 2035 1710 2057.49 1709.43 2079.34 1707.77 2100.42 1705.06 2120.63 1701.36 2139.87 1696.73 2158 1691.22 2174.94 1684.89 2190.56 1677.79 2204.76 1669.98 2217.43 1661.51 2228.45 1652.44 2245.11 1632.72 2253.86 1611.25 2255 1600 2253.86 1588.76 2245.11 1567.3 2228.45 1547.58 2217.43 1538.51 2204.76 1530.04 2190.56 1522.23 2174.94 1515.13 2158 1508.79 2139.87 1503.28 2120.63 1498.65 2100.42 1494.95 2079.34 1492.24 2057.49 1490.57 2035 1490Z" fill="#BADFE2" fill-rule="evenodd" fill-opacity="1"/><path d="M1815.5 1600.5 1819.97 1578.34 1832.79 1557.69 1853.07 1539.01 1865.74 1530.54 1879.94 1522.73 1895.56 1515.63 1912.49 1509.29 1930.63 1503.78 1949.87 1499.15 1970.08 1495.45 1991.16 1492.74 2013.01 1491.07 2035.5 1490.5 2057.99 1491.07 2079.84 1492.74 2100.92 1495.45 2121.13 1499.15 2140.37 1503.78 2158.5 1509.29 2175.44 1515.63 2191.06 1522.73 2205.26 1530.54 2217.93 1539.01 2228.95 1548.08 2245.61 1567.8 2254.36 1589.26 2255.5 1600.5 2254.36 1611.75 2245.61 1633.22 2228.95 1652.94 2217.93 1662.01 2205.26 1670.48 2191.06 1678.29 2175.44 1685.39 2158.5 1691.72 2140.37 1697.23 2121.13 1701.86 2100.92 1705.56 2079.84 1708.27 2057.99 1709.93 2035.5 1710.5 2013.01 1709.93 1991.16 1708.27 1970.08 1705.56 1949.87 1701.86 1930.63 1697.23 1912.49 1691.72 1895.56 1685.39 1879.94 1678.29 1865.74 1670.48 1853.07 1662.01 1842.05 1652.94 1825.39 1633.22 1816.64 1611.75 1815.5 1600.5Z" stroke="#000000" stroke-width="3.4375" stroke-linecap="butt" stroke-linejoin="round" stroke-miterlimit="10" stroke-opacity="1" fill="none" fill-rule="evenodd"/><path d="M1942.25 1444.28 1928.45 1445.41 1952.62 1484.86 1966.22 1451.14 1942.82 1451.14 1942.25 1444.28Z" fill="#000000" fill-rule="evenodd" fill-opacity="1"/><path d="M1956.07 1443.15 1942.25 1444.28 1942.82 1451.14 1956.64 1450 1956.07 1443.15Z" fill="#000000" fill-rule="evenodd" fill-opacity="1"/><path d="M1969.91 1442.01 1956.07 1443.15 1956.64 1450 1942.82 1451.14 1966.22 1451.14 1969.91 1442.01Z" fill="#000000" fill-rule="evenodd" fill-opacity="1"/><path d="M1931.77 1154 1918 1155.1 1942.25 1444.28 1956.07 1443.15 1931.77 1154Z" fill="#000000" fill-rule="evenodd" fill-opacity="1"/><text fill="#000000" fill-opacity="1" font-family="Arial,Arial_MSFontService,sans-serif" font-style="normal" font-variant="normal" font-weight="700" font-stretch="normal" font-size="128" text-anchor="start" direction="ltr" writing-mode="lr-tb" unicode-bidi="normal" text-decoration="none" transform="matrix(1 0 0 1 1848.55 770)">CA</text><path d="M1203.97 1443.72 1183 1484.82 1228.37 1476.93 1223.24 1469.96 1214.72 1469.96 1206.58 1458.86 1212.09 1454.78 1203.97 1443.72Z" fill="#000000" fill-rule="evenodd" fill-opacity="1"/><path d="M1212.09 1454.78 1206.58 1458.86 1214.72 1469.96 1220.25 1465.88 1212.09 1454.78Z" fill="#000000" fill-rule="evenodd" fill-opacity="1"/><path d="M1220.25 1465.88 1214.72 1469.96 1223.24 1469.96 1220.25 1465.88Z" fill="#000000" fill-rule="evenodd" fill-opacity="1"/><path d="M1700.81 1094 1212.09 1454.78 1220.25 1465.88 1708.95 1105.1 1700.81 1094Z" fill="#000000" fill-rule="evenodd" fill-opacity="1"/><path d="M2738.86 1415.3 2731.98 1427.16 2778 1430 2770.58 1418.74 2744.81 1418.74 2738.86 1415.3Z" fill="#000000" fill-rule="evenodd" fill-opacity="1"/><path d="M2745.76 1403.42 2738.86 1415.3 2744.81 1418.74 2751.69 1406.84 2745.76 1403.42Z" fill="#000000" fill-rule="evenodd" fill-opacity="1"/><path d="M2752.65 1391.56 2745.76 1403.42 2751.69 1406.84 2744.81 1418.74 2770.58 1418.74 2752.65 1391.56Z" fill="#000000" fill-rule="evenodd" fill-opacity="1"/><path d="M2258.88 1122 2252 1133.9 2738.86 1415.3 2745.76 1403.42 2258.88 1122Z" fill="#000000" fill-rule="evenodd" fill-opacity="1"/><text fill="#000000" fill-opacity="1" font-family="Arial,Arial_MSFontService,sans-serif" font-style="normal" font-variant="normal" font-weight="700" font-stretch="normal" font-size="128" text-anchor="start" direction="ltr" writing-mode="lr-tb" unicode-bidi="normal" text-decoration="none" transform="matrix(1 0 0 1 2618.87 1678)">……</text></g></g></svg>