<svg xmlns="http://www.w3.org/2000/svg" xml:space="preserve" width="2090" height="1434" overflow="hidden"><text font-family="Arial,Arial_MSFontService,sans-serif" font-size="128" font-weight="700" transform="translate(79.821 1298)">Bob</text><text font-family="Arial,Arial_MSFontService,sans-serif" font-size="128" font-weight="700" transform="translate(1180.14 1326)">Alice</text><path fill="#badfe2" fill-rule="evenodd" d="m170.5 908-20.56 1-19.722 2.93-18.698 4.72-17.494 6.37-16.112 7.91-14.549 9.3-12.805 10.56-10.881 11.7-8.777 12.7-6.492 13.58-4.028 14.31L19 1018l1.382 14.92 4.028 14.31 6.492 13.58 8.777 12.7 10.881 11.7 12.805 10.56 14.549 9.3 16.112 7.91 17.494 6.37 18.698 4.72 19.722 2.93 20.56 1 20.56-1 19.72-2.93 18.7-4.72 17.49-6.37 16.12-7.91 14.54-9.3 12.81-10.56 10.88-11.7 8.78-12.7 6.49-13.58 4.03-14.31L322 1018l-1.38-14.92-4.03-14.31-6.49-13.58-8.78-12.7-10.88-11.7-12.81-10.56-14.54-9.3-16.12-7.91-17.49-6.37-18.7-4.72-19.72-2.93z"/><path fill="none" stroke="#000" stroke-linejoin="round" stroke-miterlimit="10" stroke-width="3.438" d="m19.5 1018.5 1.382-14.92 4.028-14.31 6.492-13.58 8.777-12.7 10.881-11.7 12.805-10.56 14.549-9.3 16.111-7.91 17.495-6.37 18.698-4.72 19.722-2.93 20.56-1 20.56 1 19.72 2.93 18.7 4.72 17.49 6.37 16.12 7.91 14.54 9.3 12.81 10.56 10.88 11.7 8.78 12.7 6.49 13.58 4.03 14.31 1.38 14.92-1.38 14.92-4.03 14.31-6.49 13.58-8.78 12.7-10.88 11.7-12.81 10.56-14.54 9.3-16.12 7.91-17.49 6.37-18.7 4.72-19.72 2.93-20.56 1-20.56-1-19.722-2.93-18.698-4.72-17.495-6.37-16.111-7.91-14.549-9.3-12.805-10.56-10.881-11.7-8.777-12.7-6.492-13.58-4.028-14.31z"/><path fill="#badfe2" fill-rule="evenodd" d="M1312 303H899v247h413z"/><path fill="none" stroke="#000" stroke-linejoin="round" stroke-miterlimit="10" stroke-width="3.438" d="M899.5 550.5h413v-247h-413z"/><path fill="#badfe2" fill-rule="evenodd" d="m1174 885-22.49.57-21.85 1.67-21.08 2.71-20.21 3.7-19.24 4.63-18.14 5.51-16.93 6.34-15.62 7.1-14.2 7.81-12.67 8.47-11.02 9.07-16.66 19.72-8.75 21.46L954 995l1.14 11.25 8.75 21.47 16.66 19.72 11.02 9.07 12.67 8.47 14.2 7.81 15.62 7.1 16.93 6.33 18.14 5.51 19.24 4.63 20.21 3.7 21.08 2.71 21.85 1.66 22.49.57 22.49-.57 21.85-1.66 21.08-2.71 20.21-3.7 19.24-4.63 18.13-5.51 16.94-6.33 15.62-7.1 14.2-7.81 12.67-8.47 11.02-9.07 16.66-19.72 8.75-21.47L1394 995l-1.14-11.24-8.75-21.46-16.66-19.72-11.02-9.07-12.67-8.47-14.2-7.81-15.62-7.1-16.94-6.34-18.13-5.51-19.24-4.63-20.21-3.7-21.08-2.71-21.85-1.67z"/><path fill="none" stroke="#000" stroke-linejoin="round" stroke-miterlimit="10" stroke-width="3.438" d="m954.5 995.5 4.47-22.16 12.82-20.65 20.28-18.68 12.67-8.47 14.2-7.81 15.62-7.1 16.93-6.34 18.14-5.51 19.24-4.63 20.21-3.7 21.08-2.71 21.85-1.67 22.49-.57 22.49.57 21.85 1.67 21.08 2.71 20.21 3.7 19.24 4.63 18.13 5.51 16.94 6.34 15.62 7.1 14.2 7.81 12.67 8.47 11.02 9.07 16.66 19.72 8.75 21.46 1.14 11.24-1.14 11.25-8.75 21.47-16.66 19.72-11.02 9.07-12.67 8.47-14.2 7.81-15.62 7.1-16.94 6.33-18.13 5.51-19.24 4.63-20.21 3.7-21.08 2.71-21.85 1.66-22.49.57-22.49-.57-21.85-1.66-21.08-2.71-20.21-3.7-19.24-4.63-18.14-5.51-16.93-6.33-15.62-7.1-14.2-7.81-12.67-8.47-11.02-9.07-16.66-19.72-8.75-21.47z"/><path fill-rule="evenodd" d="m1081.25 839.28-13.8 1.13 24.17 39.45 13.6-33.72h-23.4z"/><path fill-rule="evenodd" d="m1095.07 838.15-13.82 1.13.57 6.86 13.82-1.14z"/><path fill-rule="evenodd" d="m1108.91 837.01-13.84 1.14.57 6.85-13.82 1.14h23.4zM1070.77 549l-13.77 1.1 24.25 289.18 13.82-1.13z"/><text font-family="Arial,Arial_MSFontService,sans-serif" font-size="128" font-weight="700" transform="translate(987.55 165)">CA</text><path fill-rule="evenodd" d="M342.97 838.72 322 879.82l45.37-7.89-5.13-6.97h-8.52l-8.14-11.1 5.51-4.08z"/><path fill-rule="evenodd" d="m351.09 849.78-5.51 4.08 8.14 11.1 5.53-4.08zM359.25 860.88l-5.53 4.08h8.52zM839.81 489 351.09 849.78l8.16 11.1 488.7-360.78zM1877.86 810.3l-6.88 11.86L1917 825l-7.42-11.26h-25.77z"/><path fill-rule="evenodd" d="m1884.76 798.42-6.9 11.88 5.95 3.44 6.88-11.9z"/><path fill-rule="evenodd" d="m1891.65 786.56-6.89 11.86 5.93 3.42-6.88 11.9h25.77z"/><path fill-rule="evenodd" d="m1397.88 517-6.88 11.9 486.86 281.4 6.9-11.88z"/><text font-family="Arial,Arial_MSFontService,sans-serif" font-size="128" font-weight="700" transform="translate(1757.87 1073)">……</text></svg>