<svg width="1297" height="779" xmlns="http://www.w3.org/2000/svg" xmlns:xlink="http://www.w3.org/1999/xlink" xml:space="preserve" overflow="hidden"><g transform="translate(-183 -678)"><g><rect x="630.5" y="1083.5" width="349" height="218" stroke="#FFFFFF" stroke-width="6.875" stroke-linecap="butt" stroke-linejoin="miter" stroke-miterlimit="8" stroke-opacity="1" fill="#70AD47" fill-opacity="1"/><text fill="#FFFFFF" fill-opacity="1" font-family="Microsoft YaHei,Microsoft YaHei_MSFontService,sans-serif" font-style="normal" font-variant="normal" font-weight="700" font-stretch="normal" font-size="110" text-anchor="start" direction="ltr" writing-mode="lr-tb" unicode-bidi="normal" text-decoration="none" transform="matrix(1 0 0 1 696.325 1232)">DES</text><path d="M808.937 682.5 808.938 1060.03 802.063 1060.03 802.062 682.5ZM819.25 1055.45 805.5 1082.95 791.75 1055.45Z" fill="#548235" fill-rule="nonzero" fill-opacity="1"/><path d="M185.5 1189.06 607.527 1189.06 607.527 1195.94 185.5 1195.94ZM602.944 1178.75 630.444 1192.5 602.944 1206.25Z" fill="#548235" fill-rule="nonzero" fill-opacity="1"/><path d="M0.0525071-3.4371 447.419 3.39713 447.314 10.2713-0.0525071 3.4371ZM442.994-6.98417 470.281 7.18428 442.574 20.5126Z" fill="#548235" fill-rule="nonzero" fill-opacity="1" transform="matrix(1 0 0 -1 979.5 1191.68)"/><text fill="#000000" fill-opacity="1" font-family="DengXian,DengXian_MSFontService,sans-serif" font-style="normal" font-variant="normal" font-weight="400" font-stretch="normal" font-size="83" text-anchor="start" direction="ltr" writing-mode="lr-tb" unicode-bidi="normal" text-decoration="none" transform="matrix(1 0 0 1 824.241 865)">56bits</text><text fill="#000000" fill-opacity="1" font-family="DengXian,DengXian_MSFontService,sans-serif" font-style="normal" font-variant="normal" font-weight="400" font-stretch="normal" font-size="83" text-anchor="start" direction="ltr" writing-mode="lr-tb" unicode-bidi="normal" text-decoration="none" transform="matrix(1 0 0 1 824.241 964)">key</text><text fill="#000000" fill-opacity="1" font-family="DengXian,DengXian_MSFontService,sans-serif" font-style="normal" font-variant="normal" font-weight="400" font-stretch="normal" font-size="83" text-anchor="start" direction="ltr" writing-mode="lr-tb" unicode-bidi="normal" text-decoration="none" transform="matrix(1 0 0 1 262.248 1040)">64bits</text><text fill="#000000" fill-opacity="1" font-family="DengXian,DengXian_MSFontService,sans-serif" font-style="normal" font-variant="normal" font-weight="400" font-stretch="normal" font-size="83" text-anchor="start" direction="ltr" writing-mode="lr-tb" unicode-bidi="normal" text-decoration="none" transform="matrix(1 0 0 1 262.248 1139)">Plaintext</text><text fill="#000000" fill-opacity="1" font-family="DengXian,DengXian_MSFontService,sans-serif" font-style="normal" font-variant="normal" font-weight="400" font-stretch="normal" font-size="83" text-anchor="start" direction="ltr" writing-mode="lr-tb" unicode-bidi="normal" text-decoration="none" transform="matrix(1 0 0 1 1022.82 1285)">64bits</text><text fill="#000000" fill-opacity="1" font-family="DengXian,DengXian_MSFontService,sans-serif" font-style="normal" font-variant="normal" font-weight="400" font-stretch="normal" font-size="83" text-anchor="start" direction="ltr" writing-mode="lr-tb" unicode-bidi="normal" text-decoration="none" transform="matrix(1 0 0 1 1022.82 1384)">Ciphertext</text></g></g></svg>