<svg width="2943" height="2131" xmlns="http://www.w3.org/2000/svg" xmlns:xlink="http://www.w3.org/1999/xlink" xml:space="preserve" overflow="hidden"><g transform="translate(-728 -87)"><g><path d="M2916.5 1400.5 2916.5 1522.11 3291.47 1522.11 3291.47 1578.95" stroke="#3D67B1" stroke-width="4.58333" stroke-linecap="butt" stroke-linejoin="miter" stroke-miterlimit="8" stroke-opacity="1" fill="none" fill-rule="evenodd"/><path d="M2916.47 1400.5 2916.47 1522.11 2541.5 1522.11 2541.5 1578.95" stroke="#3D67B1" stroke-width="4.58333" stroke-linecap="butt" stroke-linejoin="miter" stroke-miterlimit="8" stroke-opacity="1" fill="none" fill-rule="evenodd"/><path d="M2166.5 832.5 2166.5 954.111 2916.45 954.111 2916.45 1010.95" stroke="#34599C" stroke-width="4.58333" stroke-linecap="butt" stroke-linejoin="miter" stroke-miterlimit="8" stroke-opacity="1" fill="none" fill-rule="evenodd"/><path d="M1416.5 1400.5 1416.5 1522.11 1791.47 1522.11 1791.47 1578.95" stroke="#3D67B1" stroke-width="4.58333" stroke-linecap="butt" stroke-linejoin="miter" stroke-miterlimit="8" stroke-opacity="1" fill="none" fill-rule="evenodd"/><path d="M1416.47 1400.5 1416.47 1522.11 1041.5 1522.11 1041.5 1578.95" stroke="#3D67B1" stroke-width="4.58333" stroke-linecap="butt" stroke-linejoin="miter" stroke-miterlimit="8" stroke-opacity="1" fill="none" fill-rule="evenodd"/><path d="M2166.45 832.5 2166.45 954.111 1416.5 954.111 1416.5 1010.95" stroke="#34599C" stroke-width="4.58333" stroke-linecap="butt" stroke-linejoin="miter" stroke-miterlimit="8" stroke-opacity="1" fill="none" fill-rule="evenodd"/><path d="M1859.5 481.5C1859.5 459.961 1876.96 442.5 1898.5 442.5L2434.5 442.5C2456.04 442.5 2473.5 459.961 2473.5 481.5L2473.5 793.5C2473.5 815.039 2456.04 832.5 2434.5 832.5L1898.5 832.5C1876.96 832.5 1859.5 815.039 1859.5 793.5Z" stroke="#FFFFFF" stroke-width="4.58333" stroke-linecap="butt" stroke-linejoin="miter" stroke-miterlimit="8" stroke-opacity="1" fill="#4472C4" fill-rule="evenodd" fill-opacity="1"/><path d="M1927.5 546.5C1927.5 524.961 1944.96 507.5 1966.5 507.5L2502.5 507.5C2524.04 507.5 2541.5 524.961 2541.5 546.5L2541.5 858.499C2541.5 880.038 2524.04 897.499 2502.5 897.499L1966.5 897.499C1944.96 897.499 1927.5 880.038 1927.5 858.499Z" stroke="#4472C4" stroke-width="4.58333" stroke-linecap="butt" stroke-linejoin="miter" stroke-miterlimit="8" stroke-opacity="1" fill="#FFFFFF" fill-rule="evenodd" fill-opacity="0.901961"/><text fill="#000000" fill-opacity="1" font-family="DengXian,DengXian_MSFontService,sans-serif" font-style="normal" font-variant="normal" font-weight="400" font-stretch="normal" font-size="142" text-anchor="start" direction="ltr" writing-mode="lr-tb" unicode-bidi="normal" text-decoration="none" transform="matrix(1 0 0 1 1987.87 736)">H</text><text fill="#000000" fill-opacity="1" font-family="DengXian,DengXian_MSFontService,sans-serif" font-style="normal" font-variant="normal" font-weight="400" font-stretch="normal" font-size="95" text-anchor="start" direction="ltr" writing-mode="lr-tb" unicode-bidi="normal" text-decoration="none" transform="matrix(1 0 0 1 2086.39 771)">ABCDEFG</text><path d="M1109.5 1049.5C1109.5 1027.96 1126.96 1010.5 1148.5 1010.5L1684.5 1010.5C1706.04 1010.5 1723.5 1027.96 1723.5 1049.5L1723.5 1361.5C1723.5 1383.04 1706.04 1400.5 1684.5 1400.5L1148.5 1400.5C1126.96 1400.5 1109.5 1383.04 1109.5 1361.5Z" stroke="#FFFFFF" stroke-width="4.58333" stroke-linecap="butt" stroke-linejoin="miter" stroke-miterlimit="8" stroke-opacity="1" fill="#4472C4" fill-rule="evenodd" fill-opacity="1"/><path d="M1177.5 1114.5C1177.5 1092.96 1194.96 1075.5 1216.5 1075.5L1752.5 1075.5C1774.04 1075.5 1791.5 1092.96 1791.5 1114.5L1791.5 1426.5C1791.5 1448.04 1774.04 1465.5 1752.5 1465.5L1216.5 1465.5C1194.96 1465.5 1177.5 1448.04 1177.5 1426.5Z" stroke="#4472C4" stroke-width="4.58333" stroke-linecap="butt" stroke-linejoin="miter" stroke-miterlimit="8" stroke-opacity="1" fill="#FFFFFF" fill-rule="evenodd" fill-opacity="0.901961"/><text fill="#000000" fill-opacity="1" font-family="DengXian,DengXian_MSFontService,sans-serif" font-style="normal" font-variant="normal" font-weight="400" font-stretch="normal" font-size="142" text-anchor="start" direction="ltr" writing-mode="lr-tb" unicode-bidi="normal" text-decoration="none" transform="matrix(1 0 0 1 1378.29 1304)">H</text><text fill="#000000" fill-opacity="1" font-family="DengXian,DengXian_MSFontService,sans-serif" font-style="normal" font-variant="normal" font-weight="400" font-stretch="normal" font-size="95" text-anchor="start" direction="ltr" writing-mode="lr-tb" unicode-bidi="normal" text-decoration="none" transform="matrix(1 0 0 1 1476.81 1339)">AB</text><path d="M734.5 1617.5C734.5 1595.96 751.961 1578.5 773.5 1578.5L1309.5 1578.5C1331.04 1578.5 1348.5 1595.96 1348.5 1617.5L1348.5 1929.5C1348.5 1951.04 1331.04 1968.5 1309.5 1968.5L773.5 1968.5C751.961 1968.5 734.5 1951.04 734.5 1929.5Z" stroke="#FFFFFF" stroke-width="4.58333" stroke-linecap="butt" stroke-linejoin="miter" stroke-miterlimit="8" stroke-opacity="1" fill="#4472C4" fill-rule="evenodd" fill-opacity="1"/><path d="M802.5 1682.5C802.5 1660.96 819.961 1643.5 841.5 1643.5L1377.5 1643.5C1399.04 1643.5 1416.5 1660.96 1416.5 1682.5L1416.5 1994.5C1416.5 2016.04 1399.04 2033.5 1377.5 2033.5L841.5 2033.5C819.961 2033.5 802.5 2016.04 802.5 1994.5Z" stroke="#4472C4" stroke-width="4.58333" stroke-linecap="butt" stroke-linejoin="miter" stroke-miterlimit="8" stroke-opacity="1" fill="#FFFFFF" fill-rule="evenodd" fill-opacity="0.901961"/><text fill="#000000" fill-opacity="1" font-family="DengXian,DengXian_MSFontService,sans-serif" font-style="normal" font-variant="normal" font-weight="400" font-stretch="normal" font-size="142" text-anchor="start" direction="ltr" writing-mode="lr-tb" unicode-bidi="normal" text-decoration="none" transform="matrix(1 0 0 1 1029.77 1872)">H</text><text fill="#000000" fill-opacity="1" font-family="DengXian,DengXian_MSFontService,sans-serif" font-style="normal" font-variant="normal" font-weight="400" font-stretch="normal" font-size="95" text-anchor="start" direction="ltr" writing-mode="lr-tb" unicode-bidi="normal" text-decoration="none" transform="matrix(1 0 0 1 1128.29 1907)">A</text><path d="M1484.5 1617.5C1484.5 1595.96 1501.96 1578.5 1523.5 1578.5L2059.5 1578.5C2081.04 1578.5 2098.5 1595.96 2098.5 1617.5L2098.5 1929.5C2098.5 1951.04 2081.04 1968.5 2059.5 1968.5L1523.5 1968.5C1501.96 1968.5 1484.5 1951.04 1484.5 1929.5Z" stroke="#FFFFFF" stroke-width="4.58333" stroke-linecap="butt" stroke-linejoin="miter" stroke-miterlimit="8" stroke-opacity="1" fill="#4472C4" fill-rule="evenodd" fill-opacity="1"/><path d="M1552.5 1682.5C1552.5 1660.96 1569.96 1643.5 1591.5 1643.5L2127.5 1643.5C2149.04 1643.5 2166.5 1660.96 2166.5 1682.5L2166.5 1994.5C2166.5 2016.04 2149.04 2033.5 2127.5 2033.5L1591.5 2033.5C1569.96 2033.5 1552.5 2016.04 1552.5 1994.5Z" stroke="#4472C4" stroke-width="4.58333" stroke-linecap="butt" stroke-linejoin="miter" stroke-miterlimit="8" stroke-opacity="1" fill="#FFFFFF" fill-rule="evenodd" fill-opacity="0.901961"/><text fill="#000000" fill-opacity="1" font-family="DengXian,DengXian_MSFontService,sans-serif" font-style="normal" font-variant="normal" font-weight="400" font-stretch="normal" font-size="142" text-anchor="start" direction="ltr" writing-mode="lr-tb" unicode-bidi="normal" text-decoration="none" transform="matrix(1 0 0 1 1783.4 1872)">H</text><text fill="#000000" fill-opacity="1" font-family="DengXian,DengXian_MSFontService,sans-serif" font-style="normal" font-variant="normal" font-weight="400" font-stretch="normal" font-size="95" text-anchor="start" direction="ltr" writing-mode="lr-tb" unicode-bidi="normal" text-decoration="none" transform="matrix(1 0 0 1 1881.92 1907)">B</text><path d="M2609.5 1049.5C2609.5 1027.96 2626.96 1010.5 2648.5 1010.5L3184.5 1010.5C3206.04 1010.5 3223.5 1027.96 3223.5 1049.5L3223.5 1361.5C3223.5 1383.04 3206.04 1400.5 3184.5 1400.5L2648.5 1400.5C2626.96 1400.5 2609.5 1383.04 2609.5 1361.5Z" stroke="#FFFFFF" stroke-width="4.58333" stroke-linecap="butt" stroke-linejoin="miter" stroke-miterlimit="8" stroke-opacity="1" fill="#4472C4" fill-rule="evenodd" fill-opacity="1"/><path d="M2677.5 1114.5C2677.5 1092.96 2694.96 1075.5 2716.5 1075.5L3252.5 1075.5C3274.04 1075.5 3291.5 1092.96 3291.5 1114.5L3291.5 1426.5C3291.5 1448.04 3274.04 1465.5 3252.5 1465.5L2716.5 1465.5C2694.96 1465.5 2677.5 1448.04 2677.5 1426.5Z" stroke="#4472C4" stroke-width="4.58333" stroke-linecap="butt" stroke-linejoin="miter" stroke-miterlimit="8" stroke-opacity="1" fill="#FFFFFF" fill-rule="evenodd" fill-opacity="0.901961"/><text fill="#000000" fill-opacity="1" font-family="DengXian,DengXian_MSFontService,sans-serif" font-style="normal" font-variant="normal" font-weight="400" font-stretch="normal" font-size="142" text-anchor="start" direction="ltr" writing-mode="lr-tb" unicode-bidi="normal" text-decoration="none" transform="matrix(1 0 0 1 2872.86 1304)">H</text><text fill="#000000" fill-opacity="1" font-family="DengXian,DengXian_MSFontService,sans-serif" font-style="normal" font-variant="normal" font-weight="400" font-stretch="normal" font-size="95" text-anchor="start" direction="ltr" writing-mode="lr-tb" unicode-bidi="normal" text-decoration="none" transform="matrix(1 0 0 1 2971.37 1339)">CD</text><path d="M2234.5 1617.5C2234.5 1595.96 2251.96 1578.5 2273.5 1578.5L2809.5 1578.5C2831.04 1578.5 2848.5 1595.96 2848.5 1617.5L2848.5 1929.5C2848.5 1951.04 2831.04 1968.5 2809.5 1968.5L2273.5 1968.5C2251.96 1968.5 2234.5 1951.04 2234.5 1929.5Z" stroke="#FFFFFF" stroke-width="4.58333" stroke-linecap="butt" stroke-linejoin="miter" stroke-miterlimit="8" stroke-opacity="1" fill="#4472C4" fill-rule="evenodd" fill-opacity="1"/><path d="M2302.5 1682.5C2302.5 1660.96 2319.96 1643.5 2341.5 1643.5L2877.5 1643.5C2899.04 1643.5 2916.5 1660.96 2916.5 1682.5L2916.5 1994.5C2916.5 2016.04 2899.04 2033.5 2877.5 2033.5L2341.5 2033.5C2319.96 2033.5 2302.5 2016.04 2302.5 1994.5Z" stroke="#4472C4" stroke-width="4.58333" stroke-linecap="butt" stroke-linejoin="miter" stroke-miterlimit="8" stroke-opacity="1" fill="#FFFFFF" fill-rule="evenodd" fill-opacity="0.901961"/><text fill="#000000" fill-opacity="1" font-family="DengXian,DengXian_MSFontService,sans-serif" font-style="normal" font-variant="normal" font-weight="400" font-stretch="normal" font-size="142" text-anchor="start" direction="ltr" writing-mode="lr-tb" unicode-bidi="normal" text-decoration="none" transform="matrix(1 0 0 1 2530.43 1872)">H</text><text fill="#000000" fill-opacity="1" font-family="DengXian,DengXian_MSFontService,sans-serif" font-style="normal" font-variant="normal" font-weight="400" font-stretch="normal" font-size="95" text-anchor="start" direction="ltr" writing-mode="lr-tb" unicode-bidi="normal" text-decoration="none" transform="matrix(1 0 0 1 2628.95 1907)">C</text><path d="M2984.5 1617.5C2984.5 1595.96 3001.96 1578.5 3023.5 1578.5L3559.5 1578.5C3581.04 1578.5 3598.5 1595.96 3598.5 1617.5L3598.5 1929.5C3598.5 1951.04 3581.04 1968.5 3559.5 1968.5L3023.5 1968.5C3001.96 1968.5 2984.5 1951.04 2984.5 1929.5Z" stroke="#FFFFFF" stroke-width="4.58333" stroke-linecap="butt" stroke-linejoin="miter" stroke-miterlimit="8" stroke-opacity="1" fill="#4472C4" fill-rule="evenodd" fill-opacity="1"/><path d="M3052.5 1682.5C3052.5 1660.96 3069.96 1643.5 3091.5 1643.5L3627.5 1643.5C3649.04 1643.5 3666.5 1660.96 3666.5 1682.5L3666.5 1994.5C3666.5 2016.04 3649.04 2033.5 3627.5 2033.5L3091.5 2033.5C3069.96 2033.5 3052.5 2016.04 3052.5 1994.5Z" stroke="#4472C4" stroke-width="4.58333" stroke-linecap="butt" stroke-linejoin="miter" stroke-miterlimit="8" stroke-opacity="1" fill="#FFFFFF" fill-rule="evenodd" fill-opacity="0.901961"/><text fill="#000000" fill-opacity="1" font-family="DengXian,DengXian_MSFontService,sans-serif" font-style="normal" font-variant="normal" font-weight="400" font-stretch="normal" font-size="142" text-anchor="start" direction="ltr" writing-mode="lr-tb" unicode-bidi="normal" text-decoration="none" transform="matrix(1 0 0 1 3277.2 1872)">H</text><text fill="#000000" fill-opacity="1" font-family="DengXian,DengXian_MSFontService,sans-serif" font-style="normal" font-variant="normal" font-weight="400" font-stretch="normal" font-size="95" text-anchor="start" direction="ltr" writing-mode="lr-tb" unicode-bidi="normal" text-decoration="none" transform="matrix(1 0 0 1 3375.72 1907)">D</text><path d="M1909.53 155.517 2340.94 155.517 2340.94 308.517 1909.53 308.517Z" fill="#FFFF00" fill-rule="evenodd" fill-opacity="1"/><path d="M2340.94 155.517 2490.47 155.517 2490.47 308.517 2340.94 308.517Z" fill="#FFFF00" fill-rule="evenodd" fill-opacity="1"/><text fill="#FF0000" fill-opacity="1" font-family="DengXian Light,DengXian Light_MSFontService,sans-serif" font-style="normal" font-variant="normal" font-weight="700" font-stretch="normal" font-size="147" text-anchor="start" direction="ltr" writing-mode="lr-tb" unicode-bidi="normal" text-decoration="none" transform="matrix(1 0 0 1 1909.53 270)">Merkle</text><text fill="#FF0000" fill-opacity="1" font-family="DengXian Light,DengXian Light_MSFontService,sans-serif" font-style="normal" font-variant="normal" font-weight="700" font-stretch="normal" font-size="147" text-anchor="start" direction="ltr" writing-mode="lr-tb" unicode-bidi="normal" text-decoration="none" transform="matrix(1 0 0 1 2340.94 270)">树</text></g></g></svg>