<svg xmlns="http://www.w3.org/2000/svg" xml:space="preserve" width="2943" height="2131" overflow="hidden"><path fill="none" stroke="#3d67b1" stroke-miterlimit="8" stroke-width="4.583" d="M2188.5 1313.5v121.61h374.97v56.84M2188.47 1313.5v121.61H1813.5v56.84"/><path fill="none" stroke="#34599c" stroke-miterlimit="8" stroke-width="4.583" d="M1438.5 745.5v121.611h749.95v56.839"/><path fill="none" stroke="#3d67b1" stroke-miterlimit="8" stroke-width="4.583" d="M688.5 1313.5v121.61h374.97v56.84M688.47 1313.5v121.61H313.5v56.84"/><path fill="none" stroke="#34599c" stroke-miterlimit="8" stroke-width="4.583" d="M1438.45 745.5v121.611H688.5v56.839"/><path fill="#4472c4" fill-rule="evenodd" stroke="#fff" stroke-miterlimit="8" stroke-width="4.583" d="M1131.5 394.5c0-21.539 17.46-39 39-39h536c21.54 0 39 17.461 39 39v312c0 21.539-17.46 39-39 39h-536c-21.54 0-39-17.461-39-39Z"/><path fill="#fff" fill-opacity=".902" fill-rule="evenodd" stroke="#4472c4" stroke-miterlimit="8" stroke-width="4.583" d="M1199.5 459.5c0-21.539 17.46-39 39-39h536c21.54 0 39 17.461 39 39v311.999c0 21.539-17.46 39-39 39h-536c-21.54 0-39-17.461-39-39Z"/><text font-family="DengXian,DengXian_MSFontService,sans-serif" font-size="142" font-weight="400" transform="translate(1259.87 649)">H</text><text font-family="DengXian,DengXian_MSFontService,sans-serif" font-size="95" font-weight="400" transform="translate(1358.39 684)">ABCDEFG</text><path fill="#4472c4" fill-rule="evenodd" stroke="#fff" stroke-miterlimit="8" stroke-width="4.583" d="M381.5 962.5c0-21.54 17.46-39 39-39h536c21.54 0 39 17.46 39 39v312c0 21.54-17.46 39-39 39h-536c-21.54 0-39-17.46-39-39Z"/><path fill="#fff" fill-opacity=".902" fill-rule="evenodd" stroke="#4472c4" stroke-miterlimit="8" stroke-width="4.583" d="M449.5 1027.5c0-21.54 17.46-39 39-39h536c21.54 0 39 17.46 39 39v312c0 21.54-17.46 39-39 39h-536c-21.54 0-39-17.46-39-39Z"/><text font-family="DengXian,DengXian_MSFontService,sans-serif" font-size="142" font-weight="400" transform="translate(650.29 1217)">H</text><text font-family="DengXian,DengXian_MSFontService,sans-serif" font-size="95" font-weight="400" transform="translate(748.81 1252)">AB</text><path fill="#4472c4" fill-rule="evenodd" stroke="#fff" stroke-miterlimit="8" stroke-width="4.583" d="M6.5 1530.5c0-21.54 17.461-39 39-39h536c21.54 0 39 17.46 39 39v312c0 21.54-17.46 39-39 39h-536c-21.539 0-39-17.46-39-39Z"/><path fill="#fff" fill-opacity=".902" fill-rule="evenodd" stroke="#4472c4" stroke-miterlimit="8" stroke-width="4.583" d="M74.5 1595.5c0-21.54 17.461-39 39-39h536c21.54 0 39 17.46 39 39v312c0 21.54-17.46 39-39 39h-536c-21.539 0-39-17.46-39-39Z"/><text font-family="DengXian,DengXian_MSFontService,sans-serif" font-size="142" font-weight="400" transform="translate(301.77 1785)">H</text><text font-family="DengXian,DengXian_MSFontService,sans-serif" font-size="95" font-weight="400" transform="translate(400.29 1820)">A</text><path fill="#4472c4" fill-rule="evenodd" stroke="#fff" stroke-miterlimit="8" stroke-width="4.583" d="M756.5 1530.5c0-21.54 17.46-39 39-39h536c21.54 0 39 17.46 39 39v312c0 21.54-17.46 39-39 39h-536c-21.54 0-39-17.46-39-39Z"/><path fill="#fff" fill-opacity=".902" fill-rule="evenodd" stroke="#4472c4" stroke-miterlimit="8" stroke-width="4.583" d="M824.5 1595.5c0-21.54 17.46-39 39-39h536c21.54 0 39 17.46 39 39v312c0 21.54-17.46 39-39 39h-536c-21.54 0-39-17.46-39-39Z"/><text font-family="DengXian,DengXian_MSFontService,sans-serif" font-size="142" font-weight="400" transform="translate(1055.4 1785)">H</text><text font-family="DengXian,DengXian_MSFontService,sans-serif" font-size="95" font-weight="400" transform="translate(1153.92 1820)">B</text><path fill="#4472c4" fill-rule="evenodd" stroke="#fff" stroke-miterlimit="8" stroke-width="4.583" d="M1881.5 962.5c0-21.54 17.46-39 39-39h536c21.54 0 39 17.46 39 39v312c0 21.54-17.46 39-39 39h-536c-21.54 0-39-17.46-39-39Z"/><path fill="#fff" fill-opacity=".902" fill-rule="evenodd" stroke="#4472c4" stroke-miterlimit="8" stroke-width="4.583" d="M1949.5 1027.5c0-21.54 17.46-39 39-39h536c21.54 0 39 17.46 39 39v312c0 21.54-17.46 39-39 39h-536c-21.54 0-39-17.46-39-39Z"/><text font-family="DengXian,DengXian_MSFontService,sans-serif" font-size="142" font-weight="400" transform="translate(2144.86 1217)">H</text><text font-family="DengXian,DengXian_MSFontService,sans-serif" font-size="95" font-weight="400" transform="translate(2243.37 1252)">CD</text><path fill="#4472c4" fill-rule="evenodd" stroke="#fff" stroke-miterlimit="8" stroke-width="4.583" d="M1506.5 1530.5c0-21.54 17.46-39 39-39h536c21.54 0 39 17.46 39 39v312c0 21.54-17.46 39-39 39h-536c-21.54 0-39-17.46-39-39Z"/><path fill="#fff" fill-opacity=".902" fill-rule="evenodd" stroke="#4472c4" stroke-miterlimit="8" stroke-width="4.583" d="M1574.5 1595.5c0-21.54 17.46-39 39-39h536c21.54 0 39 17.46 39 39v312c0 21.54-17.46 39-39 39h-536c-21.54 0-39-17.46-39-39Z"/><text font-family="DengXian,DengXian_MSFontService,sans-serif" font-size="142" font-weight="400" transform="translate(1802.43 1785)">H</text><text font-family="DengXian,DengXian_MSFontService,sans-serif" font-size="95" font-weight="400" transform="translate(1900.95 1820)">C</text><path fill="#4472c4" fill-rule="evenodd" stroke="#fff" stroke-miterlimit="8" stroke-width="4.583" d="M2256.5 1530.5c0-21.54 17.46-39 39-39h536c21.54 0 39 17.46 39 39v312c0 21.54-17.46 39-39 39h-536c-21.54 0-39-17.46-39-39Z"/><path fill="#fff" fill-opacity=".902" fill-rule="evenodd" stroke="#4472c4" stroke-miterlimit="8" stroke-width="4.583" d="M2324.5 1595.5c0-21.54 17.46-39 39-39h536c21.54 0 39 17.46 39 39v312c0 21.54-17.46 39-39 39h-536c-21.54 0-39-17.46-39-39Z"/><text font-family="DengXian,DengXian_MSFontService,sans-serif" font-size="142" font-weight="400" transform="translate(2549.2 1785)">H</text><text font-family="DengXian,DengXian_MSFontService,sans-serif" font-size="95" font-weight="400" transform="translate(2647.72 1820)">D</text><path fill="#ff0" fill-rule="evenodd" d="M1181.53 68.517h431.41v153h-431.41ZM1612.94 68.517h149.53v153h-149.53Z"/><text fill="red" font-family="DengXian Light,DengXian Light_MSFontService,sans-serif" font-size="147" font-weight="700" transform="translate(1181.53 183)">Merkle 树</text></svg>