<svg xmlns="http://www.w3.org/2000/svg" xml:space="preserve" width="1975" height="1713" overflow="hidden"><path fill="#fff" stroke="#3d67b1" stroke-miterlimit="8" stroke-width="4.583" d="M7.5 144.5h364v218H7.5z"/><text font-family="DengXian,DengXian_MSFontService,sans-serif" font-size="115" font-weight="700" transform="translate(135.939 280)">M</text><path fill="#fff" stroke="#3d67b1" stroke-miterlimit="8" stroke-width="4.583" d="M407.5 144.5h363v218h-363z"/><text font-family="DengXian,DengXian_MSFontService,sans-serif" font-size="115" font-weight="700" transform="translate(545.196 280)">O</text><path fill="#fff" stroke="#3d67b1" stroke-miterlimit="8" stroke-width="4.583" d="M806.5 144.5h364v218h-364z"/><text font-family="DengXian,DengXian_MSFontService,sans-serif" font-size="115" font-weight="700" transform="translate(944.15 280)">N</text><path fill="#fff" stroke="#3d67b1" stroke-miterlimit="8" stroke-width="4.583" d="M1206.5 144.5h363v218h-363z"/><text font-family="DengXian,DengXian_MSFontService,sans-serif" font-size="115" font-weight="700" transform="translate(1349.23 280)">A</text><path fill="#fff" stroke="#3d67b1" stroke-miterlimit="8" stroke-width="4.583" d="M1606.5 144.5h363v218h-363z"/><text font-family="DengXian,DengXian_MSFontService,sans-serif" font-size="115" font-weight="700" transform="translate(1751.62 280)">R</text><path fill="#fff" stroke="#3d67b1" stroke-miterlimit="8" stroke-width="4.583" d="M7.5 398.5h364v218H7.5z"/><text font-family="DengXian,DengXian_MSFontService,sans-serif" font-size="115" font-weight="700" transform="translate(153.321 534)">C</text><path fill="#fff" stroke="#3d67b1" stroke-miterlimit="8" stroke-width="4.583" d="M407.5 398.5h363v218h-363z"/><text font-family="DengXian,DengXian_MSFontService,sans-serif" font-size="115" font-weight="700" transform="translate(546.365 534)">H</text><path fill="#fff" stroke="#3d67b1" stroke-miterlimit="8" stroke-width="4.583" d="M806.5 398.5h364v218h-364z"/><text font-family="DengXian,DengXian_MSFontService,sans-serif" font-size="115" font-weight="700" transform="translate(955.03 534)">Y</text><path fill="#fff" stroke="#3d67b1" stroke-miterlimit="8" stroke-width="4.583" d="M1206.5 398.5h363v218h-363z"/><text font-family="DengXian,DengXian_MSFontService,sans-serif" font-size="115" font-weight="700" transform="translate(1353.09 534)">B</text><path fill="#fff" stroke="#3d67b1" stroke-miterlimit="8" stroke-width="4.583" d="M1606.5 398.5h363v218h-363z"/><text font-family="DengXian,DengXian_MSFontService,sans-serif" font-size="115" font-weight="700" transform="translate(1746.2 534)">D</text><path fill="#fff" stroke="#3d67b1" stroke-miterlimit="8" stroke-width="4.583" d="M7.5 652.5h364v218H7.5z"/><text font-family="DengXian,DengXian_MSFontService,sans-serif" font-size="115" font-weight="700" transform="translate(159.245 788)">E</text><path fill="#fff" stroke="#3d67b1" stroke-miterlimit="8" stroke-width="4.583" d="M407.5 652.5h363v218h-363z"/><text font-family="DengXian,DengXian_MSFontService,sans-serif" font-size="115" font-weight="700" transform="translate(559.714 788)">F</text><path fill="#fff" stroke="#3d67b1" stroke-miterlimit="8" stroke-width="4.583" d="M806.5 652.5h364v218h-364z"/><text font-family="DengXian,DengXian_MSFontService,sans-serif" font-size="115" font-weight="700" transform="translate(948.15 788)">G</text><path fill="#fff" stroke="#3d67b1" stroke-miterlimit="8" stroke-width="4.583" d="M1206.5 652.5h363v218h-363z"/><text font-family="DengXian,DengXian_MSFontService,sans-serif" font-size="115" font-weight="700" transform="translate(1370.99 788)">I</text><path fill="#fff" stroke="#3d67b1" stroke-miterlimit="8" stroke-width="4.583" d="M1606.5 652.5h363v218h-363z"/><text font-family="DengXian,DengXian_MSFontService,sans-serif" font-size="115" font-weight="700" transform="translate(1752.3 788)">K</text><path fill="#fff" stroke="#3d67b1" stroke-miterlimit="8" stroke-width="4.583" d="M7.5 906.5h364v218H7.5z"/><text font-family="DengXian,DengXian_MSFontService,sans-serif" font-size="115" font-weight="700" transform="translate(160.895 1043)">L</text><path fill="#fff" stroke="#3d67b1" stroke-miterlimit="8" stroke-width="4.583" d="M407.5 906.5h363v218h-363z"/><text font-family="DengXian,DengXian_MSFontService,sans-serif" font-size="115" font-weight="700" transform="translate(555.016 1043)">P</text><path fill="#fff" stroke="#3d67b1" stroke-miterlimit="8" stroke-width="4.583" d="M806.5 906.5h364v218h-364z"/><text font-family="DengXian,DengXian_MSFontService,sans-serif" font-size="115" font-weight="700" transform="translate(944.8 1043)">Q</text><path fill="#fff" stroke="#3d67b1" stroke-miterlimit="8" stroke-width="4.583" d="M1206.5 906.5h363v218h-363z"/><text font-family="DengXian,DengXian_MSFontService,sans-serif" font-size="115" font-weight="700" transform="translate(1356.51 1043)">S</text><path fill="#fff" stroke="#3d67b1" stroke-miterlimit="8" stroke-width="4.583" d="M1606.5 906.5h363v218h-363z"/><text font-family="DengXian,DengXian_MSFontService,sans-serif" font-size="115" font-weight="700" transform="translate(1755.68 1043)">T</text><path fill="#fff" stroke="#3d67b1" stroke-miterlimit="8" stroke-width="4.583" d="M7.5 1161.5h364v218H7.5z"/><text font-family="DengXian,DengXian_MSFontService,sans-serif" font-size="115" font-weight="700" transform="translate(148.612 1297)">U</text><path fill="#fff" stroke="#3d67b1" stroke-miterlimit="8" stroke-width="4.583" d="M407.5 1161.5h363v218h-363z"/><text font-family="DengXian,DengXian_MSFontService,sans-serif" font-size="115" font-weight="700" transform="translate(551.739 1297)">V</text><path fill="#fff" stroke="#3d67b1" stroke-miterlimit="8" stroke-width="4.583" d="M806.5 1161.5h364v218h-364z"/><text font-family="DengXian,DengXian_MSFontService,sans-serif" font-size="115" font-weight="700" transform="translate(932.76 1297)">W</text><path fill="#fff" stroke="#3d67b1" stroke-miterlimit="8" stroke-width="4.583" d="M1206.5 1161.5h363v218h-363z"/><text font-family="DengXian,DengXian_MSFontService,sans-serif" font-size="115" font-weight="700" transform="translate(1352.22 1297)">X</text><path fill="#fff" stroke="#3d67b1" stroke-miterlimit="8" stroke-width="4.583" d="M1606.5 1161.5h363v218h-363z"/><text font-family="DengXian,DengXian_MSFontService,sans-serif" font-size="115" font-weight="700" transform="translate(1753.66 1297)">Z</text><path fill="#ff0" fill-rule="evenodd" d="M466.679 1437.3H988.03v172H466.679ZM988.03 1437.3h168.44v172H988.03ZM1156.47 1437.3h241.2v172h-241.2Z"/><text fill="red" font-family="DengXian Light,DengXian Light_MSFontService,sans-serif" font-size="165" font-weight="700" transform="translate(466.679 1565)">Playfair</text><text fill="red" font-family="DengXian Light,DengXian Light_MSFontService,sans-serif" font-size="165" font-weight="700" transform="translate(988.03 1565)">的</text><text fill="red" font-family="DengXian Light,DengXian Light_MSFontService,sans-serif" font-size="165" font-weight="700" transform="translate(1156.47 1565)">key</text></svg>