<svg xmlns="http://www.w3.org/2000/svg" xml:space="preserve" width="3846" height="1889" overflow="hidden"><path fill="#4472c4" fill-rule="evenodd" stroke="#fff" stroke-miterlimit="8" stroke-width="4.583" d="M48.5 364.502c0-26.511 21.491-48.002 48.001-48.002H3792.5c26.51 0 48 21.491 48 48.002V748.5c0 26.51-21.49 48-48 48H96.501c-26.51 0-48.001-21.49-48.001-48Z"/><text fill="#fff" font-family="Microsoft YaHei,Microsoft YaHei_MSFontService,sans-serif" font-size="101" font-weight="700" transform="translate(92.21 482)">平台安全：</text><text fill="#fff" font-family="Microsoft YaHei,Microsoft YaHei_MSFontService,sans-serif" font-size="101" font-weight="700" transform="translate(433.553 698)">物理安全</text><text fill="#fff" font-family="Microsoft YaHei,Microsoft YaHei_MSFontService,sans-serif" font-size="101" font-weight="700" transform="translate(957.06 698)">网络安全</text><text fill="#fff" font-family="Microsoft YaHei,Microsoft YaHei_MSFontService,sans-serif" font-size="101" font-weight="700" transform="translate(1480.57 698)">系统安全</text><text fill="#fff" font-family="Microsoft YaHei,Microsoft YaHei_MSFontService,sans-serif" font-size="101" font-weight="700" transform="translate(2004.08 698)">数据安全</text><text fill="#fff" font-family="Microsoft YaHei,Microsoft YaHei_MSFontService,sans-serif" font-size="101" font-weight="700" transform="translate(2527.59 698)">边界安全</text><text fill="#fff" font-family="Microsoft YaHei,Microsoft YaHei_MSFontService,sans-serif" font-size="101" font-weight="700" transform="translate(3051.09 698)">用户安全</text><path fill="#c55a11" fill-rule="evenodd" stroke="#fff" stroke-miterlimit="8" stroke-width="4.583" d="M48.5 909.5c0-26.51 21.49-48 48-48h1724c26.51 0 48 21.49 48 48v384c0 26.51-21.49 48-48 48H96.5c-26.51 0-48-21.49-48-48Z"/><text fill="#fff" font-family="Microsoft YaHei,Microsoft YaHei_MSFontService,sans-serif" font-size="69" font-weight="700" transform="translate(82.585 1050)">安全理论：</text><text fill="#fff" font-family="Microsoft YaHei,Microsoft YaHei_MSFontService,sans-serif" font-size="69" font-weight="700" transform="translate(284.801 1198)">身份验证</text><text fill="#fff" font-family="Microsoft YaHei,Microsoft YaHei_MSFontService,sans-serif" font-size="69" font-weight="700" transform="translate(641.751 1198)">访问控制</text><text fill="#fff" font-family="Microsoft YaHei,Microsoft YaHei_MSFontService,sans-serif" font-size="69" font-weight="700" transform="translate(998.7 1198)">审计追踪</text><text fill="#fff" font-family="Microsoft YaHei,Microsoft YaHei_MSFontService,sans-serif" font-size="69" font-weight="700" transform="translate(1355.65 1198)">安全协议</text><path fill="#c55a11" fill-rule="evenodd" stroke="#fff" stroke-miterlimit="8" stroke-width="4.583" d="M48.5 1454.5c0-26.51 21.49-48 48-48h1724c26.51 0 48 21.49 48 48v384c0 26.51-21.49 48-48 48H96.5c-26.51 0-48-21.49-48-48Z"/><text fill="#fff" font-family="Microsoft YaHei,Microsoft YaHei_MSFontService,sans-serif" font-size="69" font-weight="700" transform="translate(854.61 1668)">密码学</text><path fill="#4472c4" fill-rule="evenodd" stroke="#fff" stroke-miterlimit="8" stroke-width="4.583" d="M2020.5 909.5c0-26.51 21.49-48 48-48h1724c26.51 0 48 21.49 48 48v384c0 26.51-21.49 48-48 48h-1724c-26.51 0-48-21.49-48-48Z"/><text fill="#fff" font-family="Microsoft YaHei,Microsoft YaHei_MSFontService,sans-serif" font-size="69" font-weight="700" transform="translate(2055.11 976)">安全技术：</text><text fill="#fff" font-family="Microsoft YaHei,Microsoft YaHei_MSFontService,sans-serif" font-size="69" font-weight="700" transform="translate(2511.15 1124)">防火墙技术</text><text fill="#fff" font-family="Microsoft YaHei,Microsoft YaHei_MSFontService,sans-serif" font-size="69" font-weight="700" transform="translate(2936.85 1124)">漏洞扫描技术</text><text fill="#fff" font-family="Microsoft YaHei,Microsoft YaHei_MSFontService,sans-serif" font-size="69" font-weight="700" transform="translate(2511.15 1271)">入侵检测技术</text><text fill="#fff" font-family="Microsoft YaHei,Microsoft YaHei_MSFontService,sans-serif" font-size="69" font-weight="700" transform="translate(3005.6 1271)">防病毒技术</text><path fill="#ff0" fill-rule="evenodd" d="M1528.78 68.36h897.18v153h-897.18Z"/><text fill="red" font-family="DengXian Light,DengXian Light_MSFontService,sans-serif" font-size="147" font-weight="700" transform="translate(1528.78 182)">信息安全体系</text></svg>