<svg xmlns="http://www.w3.org/2000/svg" xml:space="preserve" width="3704" height="1215" overflow="hidden"><text font-family="DengXian,DengXian_MSFontService,sans-serif" font-size="83" font-weight="400" transform="translate(329.774 1143)">网络层</text><text font-family="DengXian,DengXian_MSFontService,sans-serif" font-size="83" font-weight="400" transform="translate(1637.56 1143)">传输层</text><path fill="#c55a11" fill-rule="evenodd" stroke="#fff" stroke-miterlimit="8" stroke-width="4.583" d="M17.5 652.2c0-15.85 12.863-28.7 28.73-28.7h968.54c15.87 0 28.73 12.85 28.73 28.7v229.6c0 15.85-12.86 28.7-28.73 28.7H46.23c-15.867 0-28.73-12.85-28.73-28.7z"/><text fill="#fff" font-family="Microsoft YaHei,Microsoft YaHei_MSFontService,sans-serif" font-size="119" font-weight="700" transform="translate(282.471 802)">IP/</text><text fill="#fff" font-family="Microsoft YaHei,Microsoft YaHei_MSFontService,sans-serif" font-size="119" font-weight="700" transform="translate(457.211 802)">IPSec</text><path fill="#4472c4" fill-rule="evenodd" stroke="#fff" stroke-miterlimit="8" stroke-width="4.583" d="M17.5 346.2c0-15.85 12.863-28.7 28.73-28.7h968.54c15.87 0 28.73 12.85 28.73 28.7v229.6c0 15.85-12.86 28.7-28.73 28.7H46.23c-15.867 0-28.73-12.85-28.73-28.7z"/><text fill="#fff" font-family="Microsoft YaHei,Microsoft YaHei_MSFontService,sans-serif" font-size="119" font-weight="700" transform="translate(415.995 496)">TCP</text><path fill="#4472c4" fill-rule="evenodd" stroke="#fff" stroke-miterlimit="8" stroke-width="4.583" d="M711.5 40.3c0-15.91 12.836-28.8 28.671-28.8h274.659c15.83 0 28.67 12.89 28.67 28.8v230.4c0 15.91-12.84 28.8-28.67 28.8H740.171c-15.835 0-28.671-12.89-28.671-28.8z"/><text fill="#fff" font-family="Microsoft YaHei,Microsoft YaHei_MSFontService,sans-serif" font-size="87" font-weight="700" transform="translate(757.22 181)">HTTP</text><path fill="#4472c4" fill-rule="evenodd" stroke="#fff" stroke-miterlimit="8" stroke-width="4.583" d="M364.5 40.3c0-15.91 12.875-28.8 28.757-28.8h275.486c15.882 0 28.757 12.89 28.757 28.8v230.4c0 15.91-12.875 28.8-28.757 28.8H393.257c-15.882 0-28.757-12.89-28.757-28.8z"/><text fill="#fff" font-family="Microsoft YaHei,Microsoft YaHei_MSFontService,sans-serif" font-size="87" font-weight="700" transform="translate(449.5 181)">FTP</text><path fill="#4472c4" fill-rule="evenodd" stroke="#fff" stroke-miterlimit="8" stroke-width="4.583" d="M17.5 40.3c0-15.91 12.875-28.8 28.757-28.8h275.485c15.883 0 28.758 12.89 28.758 28.8v230.4c0 15.91-12.875 28.8-28.758 28.8H46.257c-15.882 0-28.757-12.89-28.757-28.8z"/><text fill="#fff" font-family="Microsoft YaHei,Microsoft YaHei_MSFontService,sans-serif" font-size="87" font-weight="700" transform="translate(56.884 181)">SMTP</text><path fill="#4472c4" fill-rule="evenodd" stroke="#fff" stroke-miterlimit="8" stroke-width="4.583" d="M1311.5 717c0-11.87 9.61-21.5 21.47-21.5h983.07c11.85 0 21.46 9.63 21.46 21.5v172c0 11.87-9.61 21.5-21.47 21.5h-983.06c-11.86 0-21.47-9.63-21.47-21.5z"/><text fill="#fff" font-family="Microsoft YaHei,Microsoft YaHei_MSFontService,sans-serif" font-size="92" font-weight="700" transform="translate(1778.6 830)">IP</text><path fill="#4472c4" fill-rule="evenodd" stroke="#fff" stroke-miterlimit="8" stroke-width="4.583" d="M1311.5 489c0-11.87 9.61-21.5 21.47-21.5h983.07c11.85 0 21.46 9.63 21.46 21.5v172c0 11.87-9.61 21.5-21.47 21.5h-983.06c-11.86 0-21.47-9.63-21.47-21.5z"/><text fill="#fff" font-family="Microsoft YaHei,Microsoft YaHei_MSFontService,sans-serif" font-size="92" font-weight="700" transform="translate(1736.27 602)">TCP</text><path fill="#c55a11" fill-rule="evenodd" stroke="#fff" stroke-miterlimit="8" stroke-width="4.583" d="M1311.5 260.9c0-11.82 9.61-21.4 21.47-21.4h983.07c11.85 0 21.46 9.58 21.46 21.4v171.2c0 11.82-9.61 21.4-21.47 21.4h-983.06c-11.86 0-21.47-9.58-21.47-21.4z"/><text fill="#fff" font-family="Microsoft YaHei,Microsoft YaHei_MSFontService,sans-serif" font-size="92" font-weight="700" transform="translate(1640.81 373)">SSL/TLS</text><path fill="#4472c4" fill-rule="evenodd" stroke="#fff" stroke-miterlimit="8" stroke-width="4.583" d="M2000.5 32c0-11.87 9.6-21.5 21.45-21.5h294.1c11.85 0 21.45 9.63 21.45 21.5v172c0 11.87-9.6 21.5-21.45 21.5h-294.1c-11.85 0-21.45-9.63-21.45-21.5z"/><text fill="#fff" font-family="Microsoft YaHei,Microsoft YaHei_MSFontService,sans-serif" font-size="87" font-weight="700" transform="translate(2048.72 144)">HTTP</text><path fill="#4472c4" fill-rule="evenodd" stroke="#fff" stroke-miterlimit="8" stroke-width="4.583" d="M1655.5 32c0-11.87 9.63-21.5 21.51-21.5h294.98c11.88 0 21.51 9.63 21.51 21.5v172c0 11.87-9.63 21.5-21.51 21.5h-294.98c-11.88 0-21.51-9.63-21.51-21.5z"/><text fill="#fff" font-family="Microsoft YaHei,Microsoft YaHei_MSFontService,sans-serif" font-size="87" font-weight="700" transform="translate(1743.39 144)">FTP</text><path fill="#4472c4" fill-rule="evenodd" stroke="#fff" stroke-miterlimit="8" stroke-width="4.583" d="M1311.5 32c0-11.87 9.6-21.5 21.45-21.5h294.1c11.85 0 21.45 9.63 21.45 21.5v172c0 11.87-9.6 21.5-21.45 21.5h-294.1c-11.85 0-21.45-9.63-21.45-21.5z"/><text fill="#fff" font-family="Microsoft YaHei,Microsoft YaHei_MSFontService,sans-serif" font-size="87" font-weight="700" transform="translate(1353.15 144)">SMTP</text><text font-family="DengXian,DengXian_MSFontService,sans-serif" font-size="83" font-weight="400" transform="translate(3032.77 1143)">应用层</text><path fill="#4472c4" fill-rule="evenodd" stroke="#fff" stroke-miterlimit="8" stroke-width="4.583" d="M2674.5 710.9c0-11.82 9.61-21.4 21.47-21.4h983.06c11.86 0 21.47 9.58 21.47 21.4v171.2c0 11.82-9.61 21.4-21.47 21.4h-983.06c-11.86 0-21.47-9.58-21.47-21.4z"/><text fill="#fff" font-family="Microsoft YaHei,Microsoft YaHei_MSFontService,sans-serif" font-size="110" font-weight="700" transform="translate(3132.43 829)">IP</text><path fill="#4472c4" fill-rule="evenodd" stroke="#fff" stroke-miterlimit="8" stroke-width="4.583" d="M2942.5 482c0-11.87 9.62-21.5 21.48-21.5h715.04c11.86 0 21.48 9.63 21.48 21.5v172c0 11.87-9.62 21.5-21.48 21.5h-715.04c-11.86 0-21.48-9.63-21.48-21.5z"/><text fill="#fff" font-family="Microsoft YaHei,Microsoft YaHei_MSFontService,sans-serif" font-size="83" font-weight="700" transform="translate(3241.75 592)">TCP</text><path fill="#4472c4" fill-rule="evenodd" stroke="#fff" stroke-miterlimit="8" stroke-width="4.583" d="M3200.5 253.9c0-11.82 9.61-21.4 21.47-21.4h457.06c11.86 0 21.47 9.58 21.47 21.4v171.2c0 11.82-9.61 21.4-21.47 21.4h-457.06c-11.86 0-21.47-9.58-21.47-21.4z"/><text fill="#fff" font-family="Microsoft YaHei,Microsoft YaHei_MSFontService,sans-serif" font-size="46" font-weight="700" transform="translate(3383.03 353)">SMTP</text><path fill="#c55a11" fill-rule="evenodd" stroke="#fff" stroke-miterlimit="8" stroke-width="4.583" d="M3452.5 25c0-11.87 9.64-21.5 21.52-21.5h204.96c11.88 0 21.52 9.63 21.52 21.5v172c0 11.87-9.64 21.5-21.52 21.5h-204.96c-11.88 0-21.52-9.63-21.52-21.5z"/><text fill="#fff" font-family="Microsoft YaHei,Microsoft YaHei_MSFontService,sans-serif" font-size="46" font-weight="700" transform="translate(3483.51 125)">S/MIME</text><path fill="#c55a11" fill-rule="evenodd" stroke="#fff" stroke-miterlimit="8" stroke-width="4.583" d="M3200.5 25c0-11.87 9.6-21.5 21.44-21.5h204.12c11.84 0 21.44 9.63 21.44 21.5v172c0 11.87-9.6 21.5-21.44 21.5h-204.12c-11.84 0-21.44-9.63-21.44-21.5z"/><text fill="#fff" font-family="Microsoft YaHei,Microsoft YaHei_MSFontService,sans-serif" font-size="46" font-weight="700" transform="translate(3275.67 125)">PGP</text><path fill="#4472c4" fill-rule="evenodd" stroke="#fff" stroke-miterlimit="8" stroke-width="4.583" d="M2942.5 253.9c0-11.82 9.6-21.4 21.44-21.4h204.12c11.84 0 21.44 9.58 21.44 21.4v171.2c0 11.82-9.6 21.4-21.44 21.4h-204.12c-11.84 0-21.44-9.58-21.44-21.4z"/><text fill="#fff" font-family="Microsoft YaHei,Microsoft YaHei_MSFontService,sans-serif" font-size="46" font-weight="700" transform="translate(3003.06 353)">HTTP</text><path fill="#c55a11" fill-rule="evenodd" stroke="#fff" stroke-miterlimit="8" stroke-width="4.583" d="M2942.5 25c0-11.87 9.6-21.5 21.44-21.5h204.12c11.84 0 21.44 9.63 21.44 21.5v172c0 11.87-9.6 21.5-21.44 21.5h-204.12c-11.84 0-21.44-9.63-21.44-21.5z"/><text fill="#fff" font-family="Microsoft YaHei,Microsoft YaHei_MSFontService,sans-serif" font-size="46" font-weight="700" transform="translate(3024.54 125)">SET</text><path fill="#4472c4" fill-rule="evenodd" stroke="#fff" stroke-miterlimit="8" stroke-width="4.583" d="M2674.5 482c0-11.87 9.6-21.5 21.44-21.5h204.12c11.84 0 21.44 9.63 21.44 21.5v172c0 11.87-9.6 21.5-21.44 21.5h-204.12c-11.84 0-21.44-9.63-21.44-21.5z"/><text fill="#fff" font-family="Microsoft YaHei,Microsoft YaHei_MSFontService,sans-serif" font-size="46" font-weight="700" transform="translate(2746.7 582)">UDP</text><path fill="#c55a11" fill-rule="evenodd" stroke="#fff" stroke-miterlimit="8" stroke-width="4.583" d="M2674.5 253.9c0-11.82 9.6-21.4 21.44-21.4h204.12c11.84 0 21.44 9.58 21.44 21.4v171.2c0 11.82-9.6 21.4-21.44 21.4h-204.12c-11.84 0-21.44-9.58-21.44-21.4z"/><text fill="#fff" font-family="Microsoft YaHei,Microsoft YaHei_MSFontService,sans-serif" font-size="41" font-weight="700" transform="translate(2704.01 352)">Kerberos</text></svg>