<svg width="3704" height="1215" xmlns="http://www.w3.org/2000/svg" xmlns:xlink="http://www.w3.org/1999/xlink" xml:space="preserve" overflow="hidden"><g transform="translate(-123 -1292)"><g><text fill="#000000" fill-opacity="1" font-family="DengXian,DengXian_MSFontService,sans-serif" font-style="normal" font-variant="normal" font-weight="400" font-stretch="normal" font-size="83" text-anchor="start" direction="ltr" writing-mode="lr-tb" unicode-bidi="normal" text-decoration="none" transform="matrix(1 0 0 1 452.774 2435)">网络层</text><text fill="#000000" fill-opacity="1" font-family="DengXian,DengXian_MSFontService,sans-serif" font-style="normal" font-variant="normal" font-weight="400" font-stretch="normal" font-size="83" text-anchor="start" direction="ltr" writing-mode="lr-tb" unicode-bidi="normal" text-decoration="none" transform="matrix(1 0 0 1 1760.56 2435)">传输层</text><path d="M140.5 1944.2C140.5 1928.35 153.363 1915.5 169.23 1915.5L1137.77 1915.5C1153.64 1915.5 1166.5 1928.35 1166.5 1944.2L1166.5 2173.8C1166.5 2189.65 1153.64 2202.5 1137.77 2202.5L169.23 2202.5C153.363 2202.5 140.5 2189.65 140.5 2173.8L140.5 1944.2Z" stroke="#FFFFFF" stroke-width="4.58333" stroke-linecap="butt" stroke-linejoin="miter" stroke-miterlimit="8" stroke-opacity="1" fill="#C55A11" fill-rule="evenodd" fill-opacity="1"/><text fill="#FFFFFF" fill-opacity="1" font-family="Microsoft YaHei,Microsoft YaHei_MSFontService,sans-serif" font-style="normal" font-variant="normal" font-weight="700" font-stretch="normal" font-size="119" text-anchor="start" direction="ltr" writing-mode="lr-tb" unicode-bidi="normal" text-decoration="none" transform="matrix(1 0 0 1 405.471 2094)">IP/</text><text fill="#FFFFFF" fill-opacity="1" font-family="Microsoft YaHei,Microsoft YaHei_MSFontService,sans-serif" font-style="normal" font-variant="normal" font-weight="700" font-stretch="normal" font-size="119" text-anchor="start" direction="ltr" writing-mode="lr-tb" unicode-bidi="normal" text-decoration="none" transform="matrix(1 0 0 1 580.211 2094)">IPSec</text><path d="M140.5 1638.2C140.5 1622.35 153.363 1609.5 169.23 1609.5L1137.77 1609.5C1153.64 1609.5 1166.5 1622.35 1166.5 1638.2L1166.5 1867.8C1166.5 1883.65 1153.64 1896.5 1137.77 1896.5L169.23 1896.5C153.363 1896.5 140.5 1883.65 140.5 1867.8L140.5 1638.2Z" stroke="#FFFFFF" stroke-width="4.58333" stroke-linecap="butt" stroke-linejoin="miter" stroke-miterlimit="8" stroke-opacity="1" fill="#4472C4" fill-rule="evenodd" fill-opacity="1"/><text fill="#FFFFFF" fill-opacity="1" font-family="Microsoft YaHei,Microsoft YaHei_MSFontService,sans-serif" font-style="normal" font-variant="normal" font-weight="700" font-stretch="normal" font-size="119" text-anchor="start" direction="ltr" writing-mode="lr-tb" unicode-bidi="normal" text-decoration="none" transform="matrix(1 0 0 1 538.995 1788)">TCP</text><path d="M834.5 1332.3C834.5 1316.39 847.336 1303.5 863.171 1303.5L1137.83 1303.5C1153.66 1303.5 1166.5 1316.39 1166.5 1332.3L1166.5 1562.7C1166.5 1578.61 1153.66 1591.5 1137.83 1591.5L863.171 1591.5C847.336 1591.5 834.5 1578.61 834.5 1562.7L834.5 1332.3Z" stroke="#FFFFFF" stroke-width="4.58333" stroke-linecap="butt" stroke-linejoin="miter" stroke-miterlimit="8" stroke-opacity="1" fill="#4472C4" fill-rule="evenodd" fill-opacity="1"/><text fill="#FFFFFF" fill-opacity="1" font-family="Microsoft YaHei,Microsoft YaHei_MSFontService,sans-serif" font-style="normal" font-variant="normal" font-weight="700" font-stretch="normal" font-size="87" text-anchor="start" direction="ltr" writing-mode="lr-tb" unicode-bidi="normal" text-decoration="none" transform="matrix(1 0 0 1 880.22 1473)">HTTP</text><path d="M487.5 1332.3C487.5 1316.39 500.375 1303.5 516.257 1303.5L791.743 1303.5C807.625 1303.5 820.5 1316.39 820.5 1332.3L820.5 1562.7C820.5 1578.61 807.625 1591.5 791.743 1591.5L516.257 1591.5C500.375 1591.5 487.5 1578.61 487.5 1562.7L487.5 1332.3Z" stroke="#FFFFFF" stroke-width="4.58333" stroke-linecap="butt" stroke-linejoin="miter" stroke-miterlimit="8" stroke-opacity="1" fill="#4472C4" fill-rule="evenodd" fill-opacity="1"/><text fill="#FFFFFF" fill-opacity="1" font-family="Microsoft YaHei,Microsoft YaHei_MSFontService,sans-serif" font-style="normal" font-variant="normal" font-weight="700" font-stretch="normal" font-size="87" text-anchor="start" direction="ltr" writing-mode="lr-tb" unicode-bidi="normal" text-decoration="none" transform="matrix(1 0 0 1 572.5 1473)">FTP</text><path d="M140.5 1332.3C140.5 1316.39 153.375 1303.5 169.257 1303.5L444.742 1303.5C460.625 1303.5 473.5 1316.39 473.5 1332.3L473.5 1562.7C473.5 1578.61 460.625 1591.5 444.742 1591.5L169.257 1591.5C153.375 1591.5 140.5 1578.61 140.5 1562.7L140.5 1332.3Z" stroke="#FFFFFF" stroke-width="4.58333" stroke-linecap="butt" stroke-linejoin="miter" stroke-miterlimit="8" stroke-opacity="1" fill="#4472C4" fill-rule="evenodd" fill-opacity="1"/><text fill="#FFFFFF" fill-opacity="1" font-family="Microsoft YaHei,Microsoft YaHei_MSFontService,sans-serif" font-style="normal" font-variant="normal" font-weight="700" font-stretch="normal" font-size="87" text-anchor="start" direction="ltr" writing-mode="lr-tb" unicode-bidi="normal" text-decoration="none" transform="matrix(1 0 0 1 179.884 1473)">SMTP</text><path d="M1434.5 2009C1434.5 1997.13 1444.11 1987.5 1455.97 1987.5L2439.04 1987.5C2450.89 1987.5 2460.5 1997.13 2460.5 2009 2460.5 2066.33 2460.5 2123.67 2460.5 2181 2460.5 2192.87 2450.89 2202.5 2439.03 2202.5L1455.97 2202.5C1444.11 2202.5 1434.5 2192.87 1434.5 2181L1434.5 2009Z" stroke="#FFFFFF" stroke-width="4.58333" stroke-linecap="butt" stroke-linejoin="miter" stroke-miterlimit="8" stroke-opacity="1" fill="#4472C4" fill-rule="evenodd" fill-opacity="1"/><text fill="#FFFFFF" fill-opacity="1" font-family="Microsoft YaHei,Microsoft YaHei_MSFontService,sans-serif" font-style="normal" font-variant="normal" font-weight="700" font-stretch="normal" font-size="92" text-anchor="start" direction="ltr" writing-mode="lr-tb" unicode-bidi="normal" text-decoration="none" transform="matrix(1 0 0 1 1901.6 2122)">IP</text><path d="M1434.5 1781C1434.5 1769.13 1444.11 1759.5 1455.97 1759.5L2439.04 1759.5C2450.89 1759.5 2460.5 1769.13 2460.5 1781 2460.5 1838.33 2460.5 1895.67 2460.5 1953 2460.5 1964.87 2450.89 1974.5 2439.03 1974.5L1455.97 1974.5C1444.11 1974.5 1434.5 1964.87 1434.5 1953L1434.5 1781Z" stroke="#FFFFFF" stroke-width="4.58333" stroke-linecap="butt" stroke-linejoin="miter" stroke-miterlimit="8" stroke-opacity="1" fill="#4472C4" fill-rule="evenodd" fill-opacity="1"/><text fill="#FFFFFF" fill-opacity="1" font-family="Microsoft YaHei,Microsoft YaHei_MSFontService,sans-serif" font-style="normal" font-variant="normal" font-weight="700" font-stretch="normal" font-size="92" text-anchor="start" direction="ltr" writing-mode="lr-tb" unicode-bidi="normal" text-decoration="none" transform="matrix(1 0 0 1 1859.27 1894)">TCP</text><path d="M1434.5 1552.9C1434.5 1541.08 1444.11 1531.5 1455.97 1531.5L2439.04 1531.5C2450.89 1531.5 2460.5 1541.08 2460.5 1552.9 2460.5 1609.97 2460.5 1667.03 2460.5 1724.1 2460.5 1735.92 2450.89 1745.5 2439.03 1745.5L1455.97 1745.5C1444.11 1745.5 1434.5 1735.92 1434.5 1724.1L1434.5 1552.9Z" stroke="#FFFFFF" stroke-width="4.58333" stroke-linecap="butt" stroke-linejoin="miter" stroke-miterlimit="8" stroke-opacity="1" fill="#C55A11" fill-rule="evenodd" fill-opacity="1"/><text fill="#FFFFFF" fill-opacity="1" font-family="Microsoft YaHei,Microsoft YaHei_MSFontService,sans-serif" font-style="normal" font-variant="normal" font-weight="700" font-stretch="normal" font-size="92" text-anchor="start" direction="ltr" writing-mode="lr-tb" unicode-bidi="normal" text-decoration="none" transform="matrix(1 0 0 1 1763.81 1665)">SSL/TLS</text><path d="M2123.5 1324C2123.5 1312.13 2133.1 1302.5 2144.95 1302.5L2439.05 1302.5C2450.9 1302.5 2460.5 1312.13 2460.5 1324 2460.5 1381.33 2460.5 1438.67 2460.5 1496 2460.5 1507.87 2450.9 1517.5 2439.05 1517.5L2144.95 1517.5C2133.1 1517.5 2123.5 1507.87 2123.5 1496L2123.5 1324Z" stroke="#FFFFFF" stroke-width="4.58333" stroke-linecap="butt" stroke-linejoin="miter" stroke-miterlimit="8" stroke-opacity="1" fill="#4472C4" fill-rule="evenodd" fill-opacity="1"/><text fill="#FFFFFF" fill-opacity="1" font-family="Microsoft YaHei,Microsoft YaHei_MSFontService,sans-serif" font-style="normal" font-variant="normal" font-weight="700" font-stretch="normal" font-size="87" text-anchor="start" direction="ltr" writing-mode="lr-tb" unicode-bidi="normal" text-decoration="none" transform="matrix(1 0 0 1 2171.72 1436)">HTTP</text><path d="M1778.5 1324C1778.5 1312.13 1788.13 1302.5 1800.01 1302.5L2094.99 1302.5C2106.87 1302.5 2116.5 1312.13 2116.5 1324 2116.5 1381.33 2116.5 1438.67 2116.5 1496 2116.5 1507.87 2106.87 1517.5 2094.99 1517.5L1800.01 1517.5C1788.13 1517.5 1778.5 1507.87 1778.5 1496L1778.5 1324Z" stroke="#FFFFFF" stroke-width="4.58333" stroke-linecap="butt" stroke-linejoin="miter" stroke-miterlimit="8" stroke-opacity="1" fill="#4472C4" fill-rule="evenodd" fill-opacity="1"/><text fill="#FFFFFF" fill-opacity="1" font-family="Microsoft YaHei,Microsoft YaHei_MSFontService,sans-serif" font-style="normal" font-variant="normal" font-weight="700" font-stretch="normal" font-size="87" text-anchor="start" direction="ltr" writing-mode="lr-tb" unicode-bidi="normal" text-decoration="none" transform="matrix(1 0 0 1 1866.39 1436)">FTP</text><path d="M1434.5 1324C1434.5 1312.13 1444.1 1302.5 1455.95 1302.5L1750.05 1302.5C1761.9 1302.5 1771.5 1312.13 1771.5 1324 1771.5 1381.33 1771.5 1438.67 1771.5 1496 1771.5 1507.87 1761.9 1517.5 1750.05 1517.5L1455.95 1517.5C1444.1 1517.5 1434.5 1507.87 1434.5 1496L1434.5 1324Z" stroke="#FFFFFF" stroke-width="4.58333" stroke-linecap="butt" stroke-linejoin="miter" stroke-miterlimit="8" stroke-opacity="1" fill="#4472C4" fill-rule="evenodd" fill-opacity="1"/><text fill="#FFFFFF" fill-opacity="1" font-family="Microsoft YaHei,Microsoft YaHei_MSFontService,sans-serif" font-style="normal" font-variant="normal" font-weight="700" font-stretch="normal" font-size="87" text-anchor="start" direction="ltr" writing-mode="lr-tb" unicode-bidi="normal" text-decoration="none" transform="matrix(1 0 0 1 1476.15 1436)">SMTP</text><text fill="#000000" fill-opacity="1" font-family="DengXian,DengXian_MSFontService,sans-serif" font-style="normal" font-variant="normal" font-weight="400" font-stretch="normal" font-size="83" text-anchor="start" direction="ltr" writing-mode="lr-tb" unicode-bidi="normal" text-decoration="none" transform="matrix(1 0 0 1 3155.77 2435)">应用层</text><path d="M2797.5 2002.9C2797.5 1991.08 2807.11 1981.5 2818.97 1981.5L3802.03 1981.5C3813.89 1981.5 3823.5 1991.08 3823.5 2002.9 3823.5 2059.97 3823.5 2117.03 3823.5 2174.1 3823.5 2185.92 3813.89 2195.5 3802.03 2195.5L2818.97 2195.5C2807.11 2195.5 2797.5 2185.92 2797.5 2174.1L2797.5 2002.9Z" stroke="#FFFFFF" stroke-width="4.58333" stroke-linecap="butt" stroke-linejoin="miter" stroke-miterlimit="8" stroke-opacity="1" fill="#4472C4" fill-rule="evenodd" fill-opacity="1"/><text fill="#FFFFFF" fill-opacity="1" font-family="Microsoft YaHei,Microsoft YaHei_MSFontService,sans-serif" font-style="normal" font-variant="normal" font-weight="700" font-stretch="normal" font-size="110" text-anchor="start" direction="ltr" writing-mode="lr-tb" unicode-bidi="normal" text-decoration="none" transform="matrix(1 0 0 1 3255.43 2121)">IP</text><path d="M3065.5 1774C3065.5 1762.13 3075.12 1752.5 3086.98 1752.5L3802.02 1752.5C3813.88 1752.5 3823.5 1762.13 3823.5 1774 3823.5 1831.33 3823.5 1888.67 3823.5 1946 3823.5 1957.87 3813.88 1967.5 3802.02 1967.5L3086.98 1967.5C3075.12 1967.5 3065.5 1957.87 3065.5 1946L3065.5 1774Z" stroke="#FFFFFF" stroke-width="4.58333" stroke-linecap="butt" stroke-linejoin="miter" stroke-miterlimit="8" stroke-opacity="1" fill="#4472C4" fill-rule="evenodd" fill-opacity="1"/><text fill="#FFFFFF" fill-opacity="1" font-family="Microsoft YaHei,Microsoft YaHei_MSFontService,sans-serif" font-style="normal" font-variant="normal" font-weight="700" font-stretch="normal" font-size="83" text-anchor="start" direction="ltr" writing-mode="lr-tb" unicode-bidi="normal" text-decoration="none" transform="matrix(1 0 0 1 3364.75 1884)">TCP</text><path d="M3323.5 1545.9C3323.5 1534.08 3333.11 1524.5 3344.97 1524.5L3802.03 1524.5C3813.89 1524.5 3823.5 1534.08 3823.5 1545.9 3823.5 1602.97 3823.5 1660.03 3823.5 1717.1 3823.5 1728.92 3813.89 1738.5 3802.03 1738.5L3344.97 1738.5C3333.11 1738.5 3323.5 1728.92 3323.5 1717.1L3323.5 1545.9Z" stroke="#FFFFFF" stroke-width="4.58333" stroke-linecap="butt" stroke-linejoin="miter" stroke-miterlimit="8" stroke-opacity="1" fill="#4472C4" fill-rule="evenodd" fill-opacity="1"/><text fill="#FFFFFF" fill-opacity="1" font-family="Microsoft YaHei,Microsoft YaHei_MSFontService,sans-serif" font-style="normal" font-variant="normal" font-weight="700" font-stretch="normal" font-size="46" text-anchor="start" direction="ltr" writing-mode="lr-tb" unicode-bidi="normal" text-decoration="none" transform="matrix(1 0 0 1 3506.03 1645)">SMTP</text><path d="M3575.5 1317C3575.5 1305.13 3585.14 1295.5 3597.02 1295.5L3801.98 1295.5C3813.86 1295.5 3823.5 1305.13 3823.5 1317 3823.5 1374.33 3823.5 1431.67 3823.5 1489 3823.5 1500.87 3813.86 1510.5 3801.98 1510.5L3597.02 1510.5C3585.14 1510.5 3575.5 1500.87 3575.5 1489L3575.5 1317Z" stroke="#FFFFFF" stroke-width="4.58333" stroke-linecap="butt" stroke-linejoin="miter" stroke-miterlimit="8" stroke-opacity="1" fill="#C55A11" fill-rule="evenodd" fill-opacity="1"/><text fill="#FFFFFF" fill-opacity="1" font-family="Microsoft YaHei,Microsoft YaHei_MSFontService,sans-serif" font-style="normal" font-variant="normal" font-weight="700" font-stretch="normal" font-size="46" text-anchor="start" direction="ltr" writing-mode="lr-tb" unicode-bidi="normal" text-decoration="none" transform="matrix(1 0 0 1 3606.51 1417)">S/MIME</text><path d="M3323.5 1317C3323.5 1305.13 3333.1 1295.5 3344.94 1295.5L3549.06 1295.5C3560.9 1295.5 3570.5 1305.13 3570.5 1317 3570.5 1374.33 3570.5 1431.67 3570.5 1489 3570.5 1500.87 3560.9 1510.5 3549.06 1510.5L3344.94 1510.5C3333.1 1510.5 3323.5 1500.87 3323.5 1489L3323.5 1317Z" stroke="#FFFFFF" stroke-width="4.58333" stroke-linecap="butt" stroke-linejoin="miter" stroke-miterlimit="8" stroke-opacity="1" fill="#C55A11" fill-rule="evenodd" fill-opacity="1"/><text fill="#FFFFFF" fill-opacity="1" font-family="Microsoft YaHei,Microsoft YaHei_MSFontService,sans-serif" font-style="normal" font-variant="normal" font-weight="700" font-stretch="normal" font-size="46" text-anchor="start" direction="ltr" writing-mode="lr-tb" unicode-bidi="normal" text-decoration="none" transform="matrix(1 0 0 1 3398.67 1417)">PGP</text><path d="M3065.5 1545.9C3065.5 1534.08 3075.1 1524.5 3086.94 1524.5L3291.06 1524.5C3302.9 1524.5 3312.5 1534.08 3312.5 1545.9 3312.5 1602.97 3312.5 1660.03 3312.5 1717.1 3312.5 1728.92 3302.9 1738.5 3291.06 1738.5L3086.94 1738.5C3075.1 1738.5 3065.5 1728.92 3065.5 1717.1L3065.5 1545.9Z" stroke="#FFFFFF" stroke-width="4.58333" stroke-linecap="butt" stroke-linejoin="miter" stroke-miterlimit="8" stroke-opacity="1" fill="#4472C4" fill-rule="evenodd" fill-opacity="1"/><text fill="#FFFFFF" fill-opacity="1" font-family="Microsoft YaHei,Microsoft YaHei_MSFontService,sans-serif" font-style="normal" font-variant="normal" font-weight="700" font-stretch="normal" font-size="46" text-anchor="start" direction="ltr" writing-mode="lr-tb" unicode-bidi="normal" text-decoration="none" transform="matrix(1 0 0 1 3126.06 1645)">HTTP</text><path d="M3065.5 1317C3065.5 1305.13 3075.1 1295.5 3086.94 1295.5L3291.06 1295.5C3302.9 1295.5 3312.5 1305.13 3312.5 1317 3312.5 1374.33 3312.5 1431.67 3312.5 1489 3312.5 1500.87 3302.9 1510.5 3291.06 1510.5L3086.94 1510.5C3075.1 1510.5 3065.5 1500.87 3065.5 1489L3065.5 1317Z" stroke="#FFFFFF" stroke-width="4.58333" stroke-linecap="butt" stroke-linejoin="miter" stroke-miterlimit="8" stroke-opacity="1" fill="#C55A11" fill-rule="evenodd" fill-opacity="1"/><text fill="#FFFFFF" fill-opacity="1" font-family="Microsoft YaHei,Microsoft YaHei_MSFontService,sans-serif" font-style="normal" font-variant="normal" font-weight="700" font-stretch="normal" font-size="46" text-anchor="start" direction="ltr" writing-mode="lr-tb" unicode-bidi="normal" text-decoration="none" transform="matrix(1 0 0 1 3147.54 1417)">SET</text><path d="M2797.5 1774C2797.5 1762.13 2807.1 1752.5 2818.94 1752.5L3023.06 1752.5C3034.9 1752.5 3044.5 1762.13 3044.5 1774 3044.5 1831.33 3044.5 1888.67 3044.5 1946 3044.5 1957.87 3034.9 1967.5 3023.06 1967.5L2818.94 1967.5C2807.1 1967.5 2797.5 1957.87 2797.5 1946L2797.5 1774Z" stroke="#FFFFFF" stroke-width="4.58333" stroke-linecap="butt" stroke-linejoin="miter" stroke-miterlimit="8" stroke-opacity="1" fill="#4472C4" fill-rule="evenodd" fill-opacity="1"/><text fill="#FFFFFF" fill-opacity="1" font-family="Microsoft YaHei,Microsoft YaHei_MSFontService,sans-serif" font-style="normal" font-variant="normal" font-weight="700" font-stretch="normal" font-size="46" text-anchor="start" direction="ltr" writing-mode="lr-tb" unicode-bidi="normal" text-decoration="none" transform="matrix(1 0 0 1 2869.7 1874)">UDP</text><path d="M2797.5 1545.9C2797.5 1534.08 2807.1 1524.5 2818.94 1524.5L3023.06 1524.5C3034.9 1524.5 3044.5 1534.08 3044.5 1545.9 3044.5 1602.97 3044.5 1660.03 3044.5 1717.1 3044.5 1728.92 3034.9 1738.5 3023.06 1738.5L2818.94 1738.5C2807.1 1738.5 2797.5 1728.92 2797.5 1717.1L2797.5 1545.9Z" stroke="#FFFFFF" stroke-width="4.58333" stroke-linecap="butt" stroke-linejoin="miter" stroke-miterlimit="8" stroke-opacity="1" fill="#C55A11" fill-rule="evenodd" fill-opacity="1"/><text fill="#FFFFFF" fill-opacity="1" font-family="Microsoft YaHei,Microsoft YaHei_MSFontService,sans-serif" font-style="normal" font-variant="normal" font-weight="700" font-stretch="normal" font-size="41" text-anchor="start" direction="ltr" writing-mode="lr-tb" unicode-bidi="normal" text-decoration="none" transform="matrix(1 0 0 1 2827.01 1644)">Kerberos</text></g></g></svg>