<svg xmlns="http://www.w3.org/2000/svg" xml:space="preserve" width="2933" height="1265" overflow="hidden"><path fill="#fff" fill-rule="evenodd" d="M2930.96 1264V1H4v1263z"/><path fill="#eaeaea" fill-rule="evenodd" d="M1437 258.875V31h-405v227.875z"/><path fill="none" stroke="#f06" stroke-linejoin="round" stroke-miterlimit="10" stroke-width="4.583" d="M1032.5 31.5v227.875h405V31.5zM1034.5 143.5h397.92M1168.5 31.5v109.959M1306.5 34.5v109M1129.5 141.5v117.917M1233.5 141.5v117.917M1338.5 141.5v117.917"/><text font-family="Times New Roman,Times New Roman_MSFontService,sans-serif" font-size="75" font-weight="700" transform="translate(1059.57 112)">13</text><path fill="#eaeaea" fill-rule="evenodd" d="M1007 642.92V415H602v227.92z"/><path fill="none" stroke="#f06" stroke-linejoin="round" stroke-miterlimit="10" stroke-width="4.583" d="M602.5 415.5v227.92h405V415.5zM605.5 527.5h396.92M739.5 415.5v110M877.5 418.5v108.96M700.5 525.5v117.92M804.5 525.5v117.92M908.5 525.5v117.92"/><path fill="#eaeaea" fill-rule="evenodd" d="M2169 642.92V415h-406v227.92z"/><path fill="none" stroke="#f06" stroke-linejoin="round" stroke-miterlimit="10" stroke-width="4.583" d="M1763.5 415.5v227.92h405V415.5zM1766.5 527.5h396.96M1900.5 415.5v110M2038.5 418.5v108.96M1861.5 525.5v117.92M1965.5 525.5v117.92M2069.5 525.5v117.92"/><path fill="#eaeaea" fill-rule="evenodd" d="M464 1142.88V916H59v226.88z"/><path fill="none" stroke="#f06" stroke-linejoin="round" stroke-miterlimit="10" stroke-width="4.583" d="M59.5 916.5v226.88h405V916.5zM62.5 1028.5h396.92M196.5 916.5v108.96M334.5 918.5v110M157.5 1025.5v117.92M261.5 1025.5v117.92M365.5 1025.5v117.92"/><path fill="#eaeaea" fill-rule="evenodd" d="M951 1142.88V916H545v226.88z"/><path fill="none" stroke="#f06" stroke-linejoin="round" stroke-miterlimit="10" stroke-width="4.583" d="M545.5 916.5v226.88h406V916.5zM548.5 1028.5h396.92M682.5 916.5v108.96M820.5 918.5v110M643.5 1025.5v117.92M747.5 1025.5v117.92M851.5 1025.5v117.92"/><path fill="#eaeaea" fill-rule="evenodd" d="M1437 1142.88V916h-405v226.88z"/><path fill="none" stroke="#f06" stroke-linejoin="round" stroke-miterlimit="10" stroke-width="4.583" d="M1032.5 916.5v226.88h405V916.5zM1034.5 1028.5h397.92M1168.5 916.5v108.96M1306.5 918.5v110M1129.5 1025.5v117.92M1233.5 1025.5v117.92M1338.5 1025.5v117.92"/><path fill="#eaeaea" fill-rule="evenodd" d="M1923 1142.88V916h-405v226.88z"/><path fill="none" stroke="#f06" stroke-linejoin="round" stroke-miterlimit="10" stroke-width="4.583" d="M1518.5 916.5v226.88h405V916.5zM1521.5 1028.5h396.92M1655.5 916.5v108.96M1793.5 918.5v110M1616.5 1025.5v117.92M1719.5 1025.5v117.92M1824.5 1025.5v117.92"/><path fill="#eaeaea" fill-rule="evenodd" d="M2409 1142.88V916h-405v226.88z"/><path fill="none" stroke="#f06" stroke-linejoin="round" stroke-miterlimit="10" stroke-width="4.583" d="M2004.5 916.5v226.88h405V916.5zM2007.5 1028.5h396.92M2141.5 916.5v108.96M2279.5 918.5v110M2102.5 1025.5v117.92M2206.5 1025.5v117.92M2310.5 1025.5v117.92"/><path fill="#eaeaea" fill-rule="evenodd" d="M2896 1142.88V916h-405v226.88z"/><path fill="none" stroke="#f06" stroke-linejoin="round" stroke-miterlimit="10" stroke-width="4.583" d="M2491.5 916.5v226.88h405V916.5zM2494.5 1028.5h396.92M2628.5 916.5v108.96M2766.5 918.5v110M2589.5 1025.5v117.92M2693.5 1025.5v117.92M2797.5 1025.5v117.92"/><text font-family="Times New Roman,Times New Roman_MSFontService,sans-serif" font-size="75" font-weight="700" transform="translate(653.35 493)">7</text><text font-family="Times New Roman,Times New Roman_MSFontService,sans-serif" font-size="75" font-weight="700" transform="translate(116.706 991)">2</text><text font-family="Times New Roman,Times New Roman_MSFontService,sans-serif" font-size="75" font-weight="700" transform="translate(241.143 991)">3</text><text font-family="Times New Roman,Times New Roman_MSFontService,sans-serif" font-size="75" font-weight="700" transform="translate(380.94 991)">5</text><text font-family="Times New Roman,Times New Roman_MSFontService,sans-serif" font-size="75" font-weight="700" transform="translate(590.51 991)">7</text><text font-family="Times New Roman,Times New Roman_MSFontService,sans-serif" font-size="75" font-weight="700" transform="translate(696.39 991)">11</text><text font-family="Times New Roman,Times New Roman_MSFontService,sans-serif" font-size="75" font-weight="700" transform="translate(1058.08 997)">13</text><text font-family="Times New Roman,Times New Roman_MSFontService,sans-serif" font-size="75" font-weight="700" transform="translate(1195.12 997)">17</text><text font-family="Times New Roman,Times New Roman_MSFontService,sans-serif" font-size="75" font-weight="700" transform="translate(1328.95 997)">19</text><text font-family="Times New Roman,Times New Roman_MSFontService,sans-serif" font-size="75" font-weight="700" transform="translate(1548.59 993)">23</text><text font-family="Times New Roman,Times New Roman_MSFontService,sans-serif" font-size="75" font-weight="700" transform="translate(1685.63 993)">29</text><text font-family="Times New Roman,Times New Roman_MSFontService,sans-serif" font-size="75" font-weight="700" transform="translate(2043.59 995)">31</text><text font-family="Times New Roman,Times New Roman_MSFontService,sans-serif" font-size="75" font-weight="700" transform="translate(2180.63 995)">37</text><text font-family="Times New Roman,Times New Roman_MSFontService,sans-serif" font-size="75" font-weight="700" transform="translate(2314.47 995)">41</text><text font-family="Times New Roman,Times New Roman_MSFontService,sans-serif" font-size="75" font-weight="700" transform="translate(2522.55 995)">43</text><text font-family="Times New Roman,Times New Roman_MSFontService,sans-serif" font-size="75" font-weight="700" transform="translate(2659.82 995)">47</text><text font-family="Times New Roman,Times New Roman_MSFontService,sans-serif" font-size="75" font-weight="700" transform="translate(1792.23 491)">23</text><text font-family="Times New Roman,Times New Roman_MSFontService,sans-serif" font-size="75" font-weight="700" transform="translate(1929.27 491)">31</text><text font-family="Times New Roman,Times New Roman_MSFontService,sans-serif" font-size="75" font-weight="700" transform="translate(2063.1 491)">43</text><path fill="#f06" fill-rule="evenodd" d="m658.21 589.85-.25-1-1-.75-1.25.25-420.418 310.33-6.572-8.76L216 914.85l15.214-2.75 12.471-2.24-6.568-8.75L657.71 590.85zM743.51 598.82l-.25-1-1-.74h-1l-.75.99-74.79 288.14-.03.12-1 3.84 1-3.84v-.12l-10.72-2.77 5.98 27.17 3.74-4.3 14.47-16.64-10.46-2.69zM1072.98 218.745l-.25-1.247-1-.498-1.24.249L783.43 399.94l-5.75-9.23-14.47 23.93 15.96-1.58 11.73-1.16-5.75-9.2 287.08-182.959zM1786.79 601.81l-.99-.75-1.25.25-538.31 295.82-5.16-9.45-15.96 22.93 15.96-.57.75-.03 11.22-.4-5.31-9.74 538.31-295.81.74-1zM1819.72 412.15l-20.45-18.94-3.03 10.35-617.26-181.326h-1.25l-.74.997v1.246l.99.747 617.4 181.296-3.1 10.61 8.98-1.63zM1919.49 598.57l-.5-1.24-1.25-.25-1 .5-273.56 293.83-8.02-7.47-7.74 26.67 12.47-4.67 13.47-5.05-7.98-7.43 273.61-293.89zM2111.28 891.67l-10.48 2.83v5.89l-1.24-.25 1.17.23.07.02v-5.89l-.07.02-83.23-300.68-.75-.75-1.25-.25-.74.75-.25 1.24 83.18 300.51-10.35 2.81 14.46 16.21 3.99 4.47zM2584.91 910.61l-13.22-24.43-6.23 8.96-428.49-297.81-1.25-.25-1 .5-.25 1.24.75 1 428.5 297.83-6.24 8.97 11.72 1.7.25.04z"/><path fill="none" stroke="#f06" stroke-dasharray="13.75 10.3125" stroke-linejoin="round" stroke-miterlimit="10" stroke-width="3.438" d="M59.5 760.5h2846.88"/><text font-family="Lantinghei SC,Lantinghei SC_MSFontService,sans-serif" font-size="58" font-weight="900" transform="translate(2638.01 712)">非叶结点</text><text font-family="Lantinghei SC,Lantinghei SC_MSFontService,sans-serif" font-size="58" font-weight="900" transform="translate(2637.09 832)">叶子结点</text><path fill="#f06" fill-rule="evenodd" d="M121.938 1192.97h-10.973v-94.73l-.249-1-1.247-.5-.998.5-.498 1v94.73H97l10.973 21.99 1.496 3 1.496-3zM213.459 1192.97h-10.973v-94.73l-.499-1-.997-.5-1.247.5-.249 1v94.73h-10.973l10.973 21.99 1.496 3 1.496-3zM317.45 1192.97h-10.97v-94.73l-.5-1-1-.5-1.25.5-.5 1v94.73h-10.72l10.72 21.49 1.75 3.5 1.5-3zM545.38 1089.5l-24.94-12.5v10.75h-98.75l-1 .5-.5 1.25.5 1 1 .5h98.75v10.99l5.74-2.87zM604.23 1192.97h-10.97v-94.73l-.5-1-1-.5-1.24.5-.5 1v94.73h-10.73l10.73 21.49 1.74 3.5 1.5-3zM695.5 1192.97h-10.97v-94.73l-.25-1-1.25-.5-.99.5-.5 1v94.73h-10.97l10.97 21.99 1.49 3 1.5-3zM1027.42 1093.49l-24.94-12.49v11h-98.5l-1.25.5-.49.99.49 1.25 1.25.5h98.5v10.75l5.74-2.87zM1094.5 1192.97h-10.97v-94.73l-.25-1-1.24-.5-1 .5-.5 1v94.73h-10.97l10.97 21.99 1.5 3 1.49-3zM1190.26 1192.97h-10.97v-94.73l-.5-1-.99-.5-1.25.5-.5 1v94.73h-10.72l10.72 21.49 1.75 3.5 1.49-3zM1290.02 1192.97h-10.98v-94.73l-.5-1-.99-.5-1.25.5-.5 1v94.73h-10.72l10.72 21.49 1.75 3.5 1.49-3zM1517.95 1093.49l-24.94-12.49v11h-98.76l-.99.5-.5.99.5 1.25.99.5h98.76v10.75l5.73-2.87zM1576.8 1192.97h-10.97v-94.73l-.5-1-1-.5-1.25.5-.5 1v94.73h-10.72l10.72 21.49 1.75 3.5 1.5-3zM1668.07 1192.97h-10.97v-94.73l-.25-1-1.25-.5-1 .5-.5 1v94.73h-10.97l10.97 21.99 1.5 3 1.5-3zM1999.99 1093.49l-24.94-12.49v11h-98.51l-1.24.5-.5.99.5 1.25 1.24.5h98.51v10.75l5.74-2.87zM2071.31 1192.97h-10.98v-94.73l-.5-1-.99-.5-1.25.5-.25 1v94.73h-10.97l10.97 21.99 1.5 3 1.49-3zM2162.83 1192.97h-10.97v-94.73l-.5-1-1-.5-1.24.5-.5 1v94.73h-10.73l10.73 21.49 1.74 3.5 1.5-3zM2266.57 1192.97h-10.97v-94.73l-.25-1-1.25-.5-1 .5-.5 1v94.73h-10.97l10.97 21.99 1.5 3 1.5-3zM2494.75 1093.49l-24.94-12.49v11h-98.75l-1 .5-.5.99.5 1.25 1 .5h98.75v10.75l5.73-2.87zM2553.35 1188.97h-10.97v-94.98l-.25-.99-1.25-.5-1 .5-.49.99v94.98h-10.98l10.98 21.99 1.49 3 1.5-3zM2644.87 1188.97h-10.97v-94.98l-.5-.99-1-.5-1.24.5-.25.99v94.98h-10.98l10.98 21.99 1.49 3 1.5-3z"/></svg>