<svg xmlns="http://www.w3.org/2000/svg" xml:space="preserve" width="2026" height="2150" overflow="hidden"><path fill="none" stroke="#000" stroke-linejoin="round" stroke-miterlimit="10" stroke-width="4.583" d="M1219.16 3.004v163.398M1618.62 3.004v163.398M819.7 3.004v163.398M2018.08 3.004v163.398M817.41 5.296h1202.96M817.41 164.111h1202.96"/><text font-family="DengXian,DengXian_MSFontService,sans-serif" font-size="83" font-weight="400" transform="translate(1774.8 112)">60</text><text font-family="DengXian,DengXian_MSFontService,sans-serif" font-size="83" font-weight="400" transform="translate(1375.35 112)">40</text><text font-family="DengXian,DengXian_MSFontService,sans-serif" font-size="83" font-weight="400" transform="translate(975.89 112)">20</text><path fill="none" stroke="#000" stroke-linejoin="round" stroke-miterlimit="10" stroke-width="4.583" d="M1119.29 658.072V821.47m299.6-163.398V821.47m299.59-163.398V821.47M819.7 658.072V821.47m1198.38-163.398V821.47M817.41 660.364h1202.96M817.41 819.179h1202.96"/><text font-family="DengXian,DengXian_MSFontService,sans-serif" font-size="83" font-weight="400" transform="translate(1824.74 767)">70</text><text font-family="DengXian,DengXian_MSFontService,sans-serif" font-size="83" font-weight="400" transform="translate(1525.14 767)">60</text><text font-family="DengXian,DengXian_MSFontService,sans-serif" font-size="83" font-weight="400" transform="translate(1225.55 767)">40</text><text font-family="DengXian,DengXian_MSFontService,sans-serif" font-size="83" font-weight="400" transform="translate(925.96 767)">20</text><path fill="#fff" d="M820 1404h1198v674H820z"/><path fill="none" stroke="#344153" stroke-miterlimit="8" stroke-width="4.583" d="M1419.5 1684.5v56.91h327.9v56.91m-328-113.82v56.91h-327.9v56.91"/><path fill="#fff" stroke="#3d4b5f" stroke-miterlimit="8" stroke-width="4.583" d="M1148.5 1413.5h542v271h-542z"/><text fill="#44546a" font-family="DengXian,DengXian_MSFontService,sans-serif" font-size="165" font-weight="400" transform="translate(1331.97 1588)">60</text><path fill="#fff" stroke="#3d4b5f" stroke-miterlimit="8" stroke-width="4.583" d="M820.5 1798.5h542v271h-542z"/><text fill="#44546a" font-family="DengXian,DengXian_MSFontService,sans-serif" font-size="165" font-weight="400" transform="translate(834.64 1973)">20</text><text fill="#44546a" font-family="DengXian,DengXian_MSFontService,sans-serif" font-size="165" font-weight="400" transform="translate(1008.48 1973)">｜</text><text fill="#44546a" font-family="DengXian,DengXian_MSFontService,sans-serif" font-size="165" font-weight="400" transform="translate(1173.48 1973)">40</text><path fill="#fff" stroke="#3d4b5f" stroke-miterlimit="8" stroke-width="4.583" d="M1476.5 1798.5h542v271h-542z"/><text fill="#44546a" font-family="DengXian,DengXian_MSFontService,sans-serif" font-size="165" font-weight="400" transform="translate(1659.87 1973)">70</text><path fill="none" stroke="#fff" stroke-linejoin="round" stroke-miterlimit="10" stroke-width="3.438" d="M820.5 1404.5h1198v674h-1198z"/><text font-family="DengXian,DengXian_MSFontService,sans-serif" font-size="83" font-weight="400" transform="translate(136.41 767)">插入一个新节点</text><text font-family="DengXian,DengXian_MSFontService,sans-serif" font-size="83" font-weight="400" transform="translate(53.1 1920)">超出容量，提高一阶</text><path fill="#fff" fill-rule="evenodd" stroke="#172c51" stroke-miterlimit="8" stroke-width="4.583" d="M1327.5 511h34.25V280.5h68.5V511h34.25l-68.5 68.5Zm0 682h34.25V962.5h68.5V1193h34.25l-68.5 68.5Z"/></svg>