<svg xmlns="http://www.w3.org/2000/svg" xml:space="preserve" width="2937" height="2045" overflow="hidden"><path fill="none" stroke="#34599c" stroke-miterlimit="8" stroke-width="4.583" d="M891.5 1167.5h55.163v735.79h55.162"/><path fill="none" stroke="#34599c" stroke-miterlimit="8" stroke-width="4.583" d="M891.5 1167.5h55.163v525.56h55.162"/><path fill="none" stroke="#34599c" stroke-miterlimit="8" stroke-width="4.583" d="M891.5 1167.5h55.163v315.34h55.162"/><path fill="none" stroke="#3d67b1" stroke-miterlimit="8" stroke-width="4.583" d="M1553.5 1272.5h55.16v315.34h55.17"/><path fill="none" stroke="#3d67b1" stroke-miterlimit="8" stroke-width="4.583" d="M1553.5 1272.5h55.16v105.11h55.17"/><path fill="none" stroke="#3d67b1" stroke-miterlimit="8" stroke-width="4.583" d="M1553.5 1272.61h55.16V1167.5h55.17"/><path fill="none" stroke="#3d67b1" stroke-miterlimit="8" stroke-width="4.583" d="M1553.5 1272.84h55.16V957.5h55.17"/><path fill="none" stroke="#34599c" stroke-miterlimit="8" stroke-width="4.583" d="M891.5 1167.5h55.163v105.11h55.162"/><path fill="none" stroke="#3d67b1" stroke-miterlimit="8" stroke-width="4.583" d="M1553.5 431.5h55.16v315.337h55.17"/><path fill="none" stroke="#3d67b1" stroke-miterlimit="8" stroke-width="4.583" d="M1553.5 431.5h55.16v105.112h55.17"/><path fill="none" stroke="#3d67b1" stroke-miterlimit="8" stroke-width="4.583" d="M1553.5 431.612h55.16V326.5h55.17"/><path fill="none" stroke="#3d67b1" stroke-miterlimit="8" stroke-width="4.583" d="M1553.5 431.837h55.16V116.5h55.17"/><path fill="none" stroke="#34599c" stroke-miterlimit="8" stroke-width="4.583" d="M891.5 1167.29h55.163V431.5h55.162"/><path fill="#4472c4" stroke="#fff" stroke-miterlimit="8" stroke-width="4.583" d="M723.5 725.5h168v885h-168z"/><text fill="#fff" font-family="DengXian,DengXian_MSFontService,sans-serif" font-size="124" font-weight="700" transform="rotate(-90 1125.893 289.107)">芯片制造</text><path fill="#c00000" stroke="#fff" stroke-miterlimit="8" stroke-width="4.583" d="M1002.5 347.5h551v169h-551z"/><text fill="#fff" font-family="DengXian,DengXian_MSFontService,sans-serif" font-size="105" font-weight="700" transform="translate(1172.118 456)">设计</text><path fill="#c00000" stroke="#fff" stroke-miterlimit="8" stroke-width="4.583" d="M1664.5 32.5h551v168h-551z"/><text fill="#fff" font-family="DengXian,DengXian_MSFontService,sans-serif" font-size="105" font-weight="700" transform="translate(1893.31 141)">IP</text><path fill="#c00000" stroke="#fff" stroke-miterlimit="8" stroke-width="4.583" d="M1664.5 242.5h551v168h-551z"/><text fill="#fff" font-family="DengXian,DengXian_MSFontService,sans-serif" font-size="105" font-weight="700" transform="translate(1834.07 351)">工具</text><path fill="#c00000" stroke="#fff" stroke-miterlimit="8" stroke-width="4.583" d="M1664.5 453.5h551v168h-551z"/><text fill="#fff" font-family="DengXian,DengXian_MSFontService,sans-serif" font-size="105" font-weight="700" transform="translate(1728.66 562)">标准单元</text><path fill="#c00000" stroke="#fff" stroke-miterlimit="8" stroke-width="4.583" d="M1664.5 663.5h551v168h-551z"/><text fill="#fff" font-family="DengXian,DengXian_MSFontService,sans-serif" font-size="105" font-weight="700" transform="translate(1834.07 772)">模型</text><path fill="#c00000" stroke="#fff" stroke-miterlimit="8" stroke-width="4.583" d="M1002.5 1188.5h551v168h-551z"/><text fill="#fff" font-family="DengXian,DengXian_MSFontService,sans-serif" font-size="105" font-weight="700" transform="translate(1172.118 1297)">制造</text><path fill="#bf9000" stroke="#fff" stroke-miterlimit="8" stroke-width="4.583" d="M1664.5 873.5h551v168h-551z"/><text fill="#fff" font-family="DengXian,DengXian_MSFontService,sans-serif" font-size="105" font-weight="700" transform="translate(1834.07 982)">掩模</text><path fill="#bf9000" stroke="#fff" stroke-miterlimit="8" stroke-width="4.583" d="M1664.5 1083.5h551v168h-551z"/><text fill="#fff" font-family="DengXian,DengXian_MSFontService,sans-serif" font-size="105" font-weight="700" transform="translate(1728.66 1192)">晶圆制造</text><path fill="#c00000" stroke="#fff" stroke-miterlimit="8" stroke-width="4.583" d="M1664.5 1293.5h551v169h-551z"/><text fill="#fff" font-family="DengXian,DengXian_MSFontService,sans-serif" font-size="105" font-weight="700" transform="translate(1728.66 1402)">晶圆针测</text><path fill="#c00000" stroke="#fff" stroke-miterlimit="8" stroke-width="4.583" d="M1664.5 1504.5h551v168h-551z"/><text fill="#fff" font-family="DengXian,DengXian_MSFontService,sans-serif" font-size="105" font-weight="700" transform="translate(1675.95 1613)">切片和封装</text><path fill="#385723" stroke="#fff" stroke-miterlimit="8" stroke-width="4.583" d="M1002.5 1399.5h551v168h-551z"/><text fill="#fff" font-family="DengXian,DengXian_MSFontService,sans-serif" font-size="105" font-weight="700" transform="translate(1172.118 1508)">封装</text><path fill="#385723" stroke="#fff" stroke-miterlimit="8" stroke-width="4.583" d="M1002.5 1609.5h551v168h-551z"/><text fill="#fff" font-family="DengXian,DengXian_MSFontService,sans-serif" font-size="105" font-weight="700" transform="translate(1172.118 1718)">测试</text><path fill="#385723" stroke="#fff" stroke-miterlimit="8" stroke-width="4.583" d="M1002.5 1819.5h551v168h-551z"/><text fill="#fff" font-family="DengXian,DengXian_MSFontService,sans-serif" font-size="105" font-weight="700" transform="translate(1013.993 1928)">使用和监控</text></svg>