<svg xmlns="http://www.w3.org/2000/svg" xml:space="preserve" width="2943" height="2324" overflow="hidden"><path fill="#ff0" fill-rule="evenodd" d="M1050.91 76.6h842.18v172h-842.18Z"/><text fill="red" font-family="DengXian Light,DengXian Light_MSFontService,sans-serif" font-size="165" font-weight="700" transform="translate(1050.91 205)">物联网架构</text><path fill="#ffc000" stroke="#fff" stroke-miterlimit="8" stroke-width="4.583" d="M5.5 1916.5h2934v351H5.5z"/><text fill="#fff" font-family="DengXian,DengXian_MSFontService,sans-serif" font-size="78" font-weight="400" transform="translate(1355.12 2029)">感知层</text><path fill="#ffe8cb" fill-opacity=".902" stroke="#ffe8cb" stroke-miterlimit="8" stroke-opacity=".902" stroke-width="4.583" d="M6.5 2098.5h586v162H6.5z"/><text font-family="DengXian,DengXian_MSFontService,sans-serif" font-size="110" font-weight="400" transform="translate(133.953 2205)">传感器</text><path fill="#fef4cc" fill-opacity=".902" stroke="#fef4cc" stroke-miterlimit="8" stroke-opacity=".902" stroke-width="4.583" d="M592.5 2098.5h587v162h-587z"/><text font-family="DengXian,DengXian_MSFontService,sans-serif" font-size="110" font-weight="400" transform="translate(720.48 2205)">执行器</text><path fill="#fcfdcc" fill-opacity=".902" stroke="#fcfdcc" stroke-miterlimit="8" stroke-opacity=".902" stroke-width="4.583" d="M1179.5 2098.5h586v162h-586z"/><text font-family="DengXian,DengXian_MSFontService,sans-serif" font-size="110" font-weight="400" transform="translate(1362.66 2205)">RFID</text><path fill="#f0fccc" fill-opacity=".902" stroke="#f0fccc" stroke-miterlimit="8" stroke-opacity=".902" stroke-width="4.583" d="M1765.5 2098.5h587v162h-587z"/><text font-family="DengXian,DengXian_MSFontService,sans-serif" font-size="110" font-weight="400" transform="translate(1962.69 2205)">GPS</text><path fill="#e4fbcd" fill-opacity=".902" stroke="#e4fbcd" stroke-miterlimit="8" stroke-opacity=".902" stroke-width="4.583" d="M2352.5 2098.5h586v162h-586z"/><text font-family="DengXian,DengXian_MSFontService,sans-serif" font-size="110" font-weight="400" transform="translate(2608.88 2205)">...</text><path fill="#67ef21" fill-rule="evenodd" stroke="#fff" stroke-miterlimit="8" stroke-width="4.583" d="M2939.5 1732.37H1540v54.13h67.5l-135 135-135-135h67.5v-54.13H5.5V1381.5h2934Z"/><text fill="#fff" font-family="DengXian,DengXian_MSFontService,sans-serif" font-size="78" font-weight="400" transform="translate(1355.12 1494)">网络层</text><path fill="#d9facd" fill-opacity=".902" stroke="#d9facd" stroke-miterlimit="8" stroke-opacity=".902" stroke-width="4.583" d="M7.5 1571.5h977v161H7.5z"/><text font-family="DengXian,DengXian_MSFontService,sans-serif" font-size="110" font-weight="400" transform="translate(330.18 1678)">互联网</text><path fill="#d0f8ce" fill-opacity=".902" stroke="#d0f8ce" stroke-miterlimit="8" stroke-opacity=".902" stroke-width="4.583" d="M984.5 1571.5h976v161h-976z"/><text font-family="DengXian,DengXian_MSFontService,sans-serif" font-size="110" font-weight="400" transform="translate(1252 1678)">专用网络</text><path fill="#cef7d6" fill-opacity=".902" stroke="#cef7d6" stroke-miterlimit="8" stroke-opacity=".902" stroke-width="4.583" d="M1960.5 1571.5h977v161h-977z"/><text font-family="DengXian,DengXian_MSFontService,sans-serif" font-size="110" font-weight="400" transform="translate(2283.82 1678)">物联网</text><path fill="#3fe19b" fill-rule="evenodd" stroke="#fff" stroke-miterlimit="8" stroke-width="4.583" d="M2939.5 1198.37H1540v54.13h67.5l-135 135-135-135h67.5v-54.13H5.5V847.5h2934Z"/><text fill="#fff" font-family="DengXian,DengXian_MSFontService,sans-serif" font-size="78" font-weight="400" transform="translate(1277.21 960)">应用中间件</text><path fill="#cff6df" fill-opacity=".902" stroke="#cff6df" stroke-miterlimit="8" stroke-opacity=".902" stroke-width="4.583" d="M5.5 1036.5h734v162H5.5z"/><text font-family="DengXian,DengXian_MSFontService,sans-serif" font-size="110" font-weight="400" transform="translate(152 1143)">信息处理</text><path fill="#cff5e8" fill-opacity=".902" stroke="#cff5e8" stroke-miterlimit="8" stroke-opacity=".902" stroke-width="4.583" d="M739.5 1036.5h733v162h-733z"/><text font-family="DengXian,DengXian_MSFontService,sans-serif" font-size="110" font-weight="400" transform="translate(940.33 1143)">云计算</text><path fill="#d0f3ef" fill-opacity=".902" stroke="#d0f3ef" stroke-miterlimit="8" stroke-opacity=".902" stroke-width="4.583" d="M1472.5 1036.5h733v162h-733z"/><text font-family="DengXian,DengXian_MSFontService,sans-serif" font-size="110" font-weight="400" transform="translate(1618.67 1143)">解析服务</text><path fill="#d0eef2" fill-opacity=".902" stroke="#d0eef2" stroke-miterlimit="8" stroke-opacity=".902" stroke-width="4.583" d="M2205.5 1036.5h734v162h-734z"/><text font-family="DengXian,DengXian_MSFontService,sans-serif" font-size="110" font-weight="400" transform="translate(2352 1143)">网络管理</text><path fill="#5b9bd5" fill-rule="evenodd" stroke="#fff" stroke-miterlimit="8" stroke-width="4.583" d="M2939.5 663.727H1539.88v54.021h67.37L1472.5 852.5l-134.75-134.752h67.37v-54.021H5.5V313.5h2934Z"/><text fill="#fff" font-family="DengXian,DengXian_MSFontService,sans-serif" font-size="78" font-weight="400" transform="translate(1355.12 426)">应用层</text><path fill="#d1e6f1" fill-opacity=".902" stroke="#d1e6f1" stroke-miterlimit="8" stroke-opacity=".902" stroke-width="4.583" d="M5.5 502.5h1467v161H5.5z"/><text font-family="DengXian,DengXian_MSFontService,sans-serif" font-size="110" font-weight="400" transform="translate(518.67 609)">各种应用</text><path fill="#d2deef" fill-opacity=".902" stroke="#d2deef" stroke-miterlimit="8" stroke-opacity=".902" stroke-width="4.583" d="M1472.5 502.5h1467v161h-1467z"/><text font-family="DengXian,DengXian_MSFontService,sans-serif" font-size="110" font-weight="400" transform="translate(1985.22 609)">Web</text><text font-family="DengXian,DengXian_MSFontService,sans-serif" font-size="110" font-weight="400" transform="translate(2205.45 609)">服务</text></svg>