<svg xmlns="http://www.w3.org/2000/svg" xml:space="preserve" width="2956" height="1169" overflow="hidden"><path fill="#4472c4" fill-opacity=".2" fill-rule="evenodd" d="M3.35 315.099h188.805v106.705H3.35Zm188.805 0H463.92v106.705H192.155Zm271.765 0H755.1v106.705H463.92Zm291.18 0h178.58v106.705H755.1ZM933.68 315.099h365.07v106.705H933.68ZM3.35 528.509h188.805v106.705H3.35Zm188.805 0H463.92v106.705H192.155Zm271.765 0H755.1v106.705H463.92Zm291.18 0h178.58v106.705H755.1ZM933.68 528.509h365.07v106.705H933.68Z"/><path fill="none" stroke="#4472c4" stroke-linejoin="round" stroke-miterlimit="10" stroke-width="4.583" d="M3.35 315.099h1295.4M3.35 173.634h1295.4M3.35 741.919h1295.4"/><text font-family="DengXian,DengXian_MSFontService,sans-serif" font-size="50" font-weight="700" transform="translate(966.68 237)">telephone</text><text font-family="DengXian,DengXian_MSFontService,sans-serif" font-size="50" font-weight="700" transform="translate(788.1 237)">class</text><text font-family="DengXian,DengXian_MSFontService,sans-serif" font-size="50" font-weight="700" transform="translate(496.92 237)">Fname</text><text font-family="DengXian,DengXian_MSFontService,sans-serif" font-size="50" font-weight="700" transform="translate(225.155 237)">Iname</text><text font-family="DengXian,DengXian_MSFontService,sans-serif" font-size="50" font-weight="700" transform="translate(36.35 237)">sid</text><text font-family="DengXian,DengXian_MSFontService,sans-serif" font-size="50" font-weight="400" transform="translate(966.68 379)">555-1234</text><text font-family="DengXian,DengXian_MSFontService,sans-serif" font-size="50" font-weight="400" transform="translate(788.1 379)">2</text><text font-family="DengXian,DengXian_MSFontService,sans-serif" font-size="50" font-weight="400" transform="translate(496.92 379)">Allan</text><text font-family="DengXian,DengXian_MSFontService,sans-serif" font-size="50" font-weight="400" transform="translate(225.155 379)">Jones</text><text font-family="DengXian,DengXian_MSFontService,sans-serif" font-size="50" font-weight="400" transform="translate(36.35 379)">1</text><text font-family="DengXian,DengXian_MSFontService,sans-serif" font-size="50" font-weight="400" transform="translate(966.68 485)">555-4321</text><text font-family="DengXian,DengXian_MSFontService,sans-serif" font-size="50" font-weight="400" transform="translate(788.1 485)">3</text><text font-family="DengXian,DengXian_MSFontService,sans-serif" font-size="50" font-weight="400" transform="translate(496.92 485)">John</text><text font-family="DengXian,DengXian_MSFontService,sans-serif" font-size="50" font-weight="400" transform="translate(225.155 485)">Smith</text><text font-family="DengXian,DengXian_MSFontService,sans-serif" font-size="50" font-weight="400" transform="translate(36.35 485)">2</text><text font-family="DengXian,DengXian_MSFontService,sans-serif" font-size="50" font-weight="400" transform="translate(966.68 592)">555-1122</text><text font-family="DengXian,DengXian_MSFontService,sans-serif" font-size="50" font-weight="400" transform="translate(788.1 592)">2</text><text font-family="DengXian,DengXian_MSFontService,sans-serif" font-size="50" font-weight="400" transform="translate(496.92 592)">Harry</text><text font-family="DengXian,DengXian_MSFontService,sans-serif" font-size="50" font-weight="400" transform="translate(225.155 592)">Brown</text><text font-family="DengXian,DengXian_MSFontService,sans-serif" font-size="50" font-weight="400" transform="translate(36.35 592)">3</text><text font-family="DengXian,DengXian_MSFontService,sans-serif" font-size="50" font-weight="400" transform="translate(966.68 699)">555-3344</text><text font-family="DengXian,DengXian_MSFontService,sans-serif" font-size="50" font-weight="400" transform="translate(788.1 699)">3</text><text font-family="DengXian,DengXian_MSFontService,sans-serif" font-size="50" font-weight="400" transform="translate(496.92 699)">Edward</text><text font-family="DengXian,DengXian_MSFontService,sans-serif" font-size="50" font-weight="400" transform="translate(225.155 699)">White</text><text font-family="DengXian,DengXian_MSFontService,sans-serif" font-size="50" font-weight="400" transform="translate(36.35 699)">5</text><path fill="#fff" d="M3 38h440v119H3z"/><text font-family="DengXian,DengXian_MSFontService,sans-serif" font-size="83" font-weight="400" transform="translate(68.489 125)">Students</text><text fill="#ff0065" font-family="Kaiti SC,Kaiti SC_MSFontService,sans-serif" font-size="92" font-weight="900" transform="translate(195.929 873)">符合第一范式</text><text fill="#ff0065" font-family="Times New Roman,Times New Roman_MSFontService,sans-serif" font-size="92" font-weight="700" transform="translate(740.43 873)">(</text><text fill="#ff0065" font-family="Arial,Arial_MSFontService,sans-serif" font-size="92" font-weight="700" transform="translate(770.33 873)">Table</text><text fill="#ff0065" font-family="Times New Roman,Times New Roman_MSFontService,sans-serif" font-size="92" font-weight="700" transform="translate(1000.72 873)">)</text><path fill="#4472c4" fill-opacity=".2" fill-rule="evenodd" d="M1719.81 190.203h271.76v141.465h-271.76Zm271.76 0h291.18v141.465h-291.18ZM1531 438.373h188.81v106.705H1531Zm188.81 0h271.76v106.705h-271.76Zm271.76 0h291.18v106.705h-291.18Zm291.18 0h178.59v106.705h-178.59Zm178.59 0h365.06v106.705h-365.06ZM1531 651.783h188.81v187H1531Zm188.81 0h271.76v187h-271.76Zm271.76 0h291.18v187h-291.18Zm291.18 0h178.59v187h-178.59Zm178.59 0h365.06v93.5h-365.06Z"/><path fill="none" stroke="#4472c4" stroke-linejoin="round" stroke-miterlimit="10" stroke-width="4.583" d="M1719.81 187.911v146.048m562.94-146.048v146.048m-565.24-143.756h567.53M1531 331.668h191.1m558.36 0h545.94M1531 48.738h1295.4M1531 838.783h1295.4"/><text font-family="DengXian,DengXian_MSFontService,sans-serif" font-size="50" font-weight="700" transform="translate(2528.14 112)">telephone</text><text font-family="DengXian,DengXian_MSFontService,sans-serif" font-size="50" font-weight="700" transform="translate(2318.76 112)">class</text><text font-family="DengXian,DengXian_MSFontService,sans-serif" font-size="50" font-weight="700" transform="translate(1937.68 112)">name</text><text font-family="DengXian,DengXian_MSFontService,sans-serif" font-size="50" font-weight="700" transform="translate(1592.75 112)">sid</text><text font-family="DengXian,DengXian_MSFontService,sans-serif" font-size="50" font-weight="400" transform="translate(2064.68 254)">Fname</text><text font-family="DengXian,DengXian_MSFontService,sans-serif" font-size="50" font-weight="400" transform="translate(1788.94 254)">Iname</text><text font-family="DengXian,DengXian_MSFontService,sans-serif" font-size="50" font-weight="400" transform="translate(2494.33 395)">555-1234</text><text font-family="DengXian,DengXian_MSFontService,sans-serif" font-size="50" font-weight="400" transform="translate(2315.75 395)">2</text><text font-family="DengXian,DengXian_MSFontService,sans-serif" font-size="50" font-weight="400" transform="translate(2024.57 395)">Allan</text><text font-family="DengXian,DengXian_MSFontService,sans-serif" font-size="50" font-weight="400" transform="translate(1752.81 395)">Jones</text><text font-family="DengXian,DengXian_MSFontService,sans-serif" font-size="50" font-weight="400" transform="translate(1564 395)">1</text><text font-family="DengXian,DengXian_MSFontService,sans-serif" font-size="50" font-weight="400" transform="translate(2494.33 502)">555-4321</text><text font-family="DengXian,DengXian_MSFontService,sans-serif" font-size="50" font-weight="400" transform="translate(2315.75 502)">3</text><text font-family="DengXian,DengXian_MSFontService,sans-serif" font-size="50" font-weight="400" transform="translate(2024.57 502)">John</text><text font-family="DengXian,DengXian_MSFontService,sans-serif" font-size="50" font-weight="400" transform="translate(1752.81 502)">Smith</text><text font-family="DengXian,DengXian_MSFontService,sans-serif" font-size="50" font-weight="400" transform="translate(1564 502)">2</text><text font-family="DengXian,DengXian_MSFontService,sans-serif" font-size="50" font-weight="400" transform="translate(2494.33 609)">555-1122</text><text font-family="DengXian,DengXian_MSFontService,sans-serif" font-size="50" font-weight="400" transform="translate(2315.75 609)">2</text><text font-family="DengXian,DengXian_MSFontService,sans-serif" font-size="50" font-weight="400" transform="translate(2024.57 609)">Harry</text><text font-family="DengXian,DengXian_MSFontService,sans-serif" font-size="50" font-weight="400" transform="translate(1752.81 609)">Brown</text><text font-family="DengXian,DengXian_MSFontService,sans-serif" font-size="50" font-weight="400" transform="translate(1564 609)">3</text><text font-family="DengXian,DengXian_MSFontService,sans-serif" font-size="50" font-weight="400" transform="translate(2494.33 715)">555-3344</text><text font-family="DengXian,DengXian_MSFontService,sans-serif" font-size="50" font-weight="400" transform="translate(2315.75 715)">3</text><text font-family="DengXian,DengXian_MSFontService,sans-serif" font-size="50" font-weight="400" transform="translate(2024.57 715)">Edward</text><text font-family="DengXian,DengXian_MSFontService,sans-serif" font-size="50" font-weight="400" transform="translate(1752.81 715)">White</text><text font-family="DengXian,DengXian_MSFontService,sans-serif" font-size="50" font-weight="400" transform="translate(1564 715)">5</text><text font-family="DengXian,DengXian_MSFontService,sans-serif" font-size="50" font-weight="400" transform="translate(2494.33 809)">555-3456</text><text fill="#ff0065" font-family="Kaiti SC,Kaiti SC_MSFontService,sans-serif" font-size="92" font-weight="900" transform="translate(1861.88 982)">不符合第一范式</text><text fill="#ff0065" font-family="Times New Roman,Times New Roman_MSFontService,sans-serif" font-size="92" font-weight="700" transform="translate(1945.09 1092)">(</text><text fill="#ff0065" font-family="Arial,Arial_MSFontService,sans-serif" font-size="92" font-weight="700" transform="translate(1975.45 1092)">Not</text><text fill="#ff0065" font-family="Arial,Arial_MSFontService,sans-serif" font-size="92" font-weight="700" transform="translate(2152.03 1092)">Table</text><text fill="#ff0065" font-family="Times New Roman,Times New Roman_MSFontService,sans-serif" font-size="92" font-weight="700" transform="translate(2382.41 1092)">)</text><path fill="none" stroke="red" stroke-dasharray="30.9375 10.3125" stroke-linecap="square" stroke-miterlimit="8" stroke-width="10.313" d="M1709 173c0-90.022 131.18-163 293-163s293 72.978 293 163-131.18 163-293 163-293-72.978-293-163Zm653 569.5c0-53.296 131.18-96.5 293-96.5s293 43.204 293 96.5-131.18 96.5-293 96.5-293-43.205-293-96.5Z"/></svg>