<svg xmlns="http://www.w3.org/2000/svg" xml:space="preserve" width="1430" height="1169" overflow="hidden"><path fill="#4472c4" fill-opacity=".2" fill-rule="evenodd" d="M194.07 186.002h271.76v141.465H194.07ZM465.83 186.002h291.18v141.465H465.83ZM5.26 434.172h188.81v106.705H5.26ZM194.07 434.172h271.76v106.705H194.07ZM465.83 434.172h291.18v106.705H465.83ZM757.01 434.172H935.6v106.705H757.01ZM935.6 434.172h365.07v106.705H935.6ZM5.26 647.58h188.81v187H5.26ZM194.07 647.58h271.76v187H194.07ZM465.83 647.58h291.18v187H465.83ZM757.01 647.58H935.6v187H757.01ZM935.6 647.58h365.07v93.5H935.6Z"/><path fill="none" stroke="#4472c4" stroke-linejoin="round" stroke-miterlimit="10" stroke-width="4.583" d="M194.07 183.711v146.048M757.01 183.711v146.048M191.78 186.002H759.3M5.26 327.467h191.1M754.72 327.467h545.95M5.26 44.537h1295.41M5.26 834.58h1295.41"/><text font-family="DengXian,DengXian_MSFontService,sans-serif" font-size="50" font-weight="700" transform="translate(1002.4 108)">telephone</text><text font-family="DengXian,DengXian_MSFontService,sans-serif" font-size="50" font-weight="700" transform="translate(793.02 108)">class</text><text font-family="DengXian,DengXian_MSFontService,sans-serif" font-size="50" font-weight="700" transform="translate(411.95 108)">name</text><text font-family="DengXian,DengXian_MSFontService,sans-serif" font-size="50" font-weight="700" transform="translate(67.01 108)">sid</text><text font-family="DengXian,DengXian_MSFontService,sans-serif" font-size="50" font-weight="400" transform="translate(538.95 250)">Fname</text><text font-family="DengXian,DengXian_MSFontService,sans-serif" font-size="50" font-weight="400" transform="translate(263.21 250)">Iname</text><text font-family="DengXian,DengXian_MSFontService,sans-serif" font-size="50" font-weight="400" transform="translate(968.6 391)">555-1234</text><text font-family="DengXian,DengXian_MSFontService,sans-serif" font-size="50" font-weight="400" transform="translate(790.01 391)">2</text><text font-family="DengXian,DengXian_MSFontService,sans-serif" font-size="50" font-weight="400" transform="translate(498.83 391)">Allan</text><text font-family="DengXian,DengXian_MSFontService,sans-serif" font-size="50" font-weight="400" transform="translate(227.07 391)">Jones</text><text font-family="DengXian,DengXian_MSFontService,sans-serif" font-size="50" font-weight="400" transform="translate(38.26 391)">1</text><text font-family="DengXian,DengXian_MSFontService,sans-serif" font-size="50" font-weight="400" transform="translate(968.6 498)">555-4321</text><text font-family="DengXian,DengXian_MSFontService,sans-serif" font-size="50" font-weight="400" transform="translate(790.01 498)">3</text><text font-family="DengXian,DengXian_MSFontService,sans-serif" font-size="50" font-weight="400" transform="translate(498.83 498)">John</text><text font-family="DengXian,DengXian_MSFontService,sans-serif" font-size="50" font-weight="400" transform="translate(227.07 498)">Smith</text><text font-family="DengXian,DengXian_MSFontService,sans-serif" font-size="50" font-weight="400" transform="translate(38.26 498)">2</text><text font-family="DengXian,DengXian_MSFontService,sans-serif" font-size="50" font-weight="400" transform="translate(968.6 604)">555-1122</text><text font-family="DengXian,DengXian_MSFontService,sans-serif" font-size="50" font-weight="400" transform="translate(790.01 604)">2</text><text font-family="DengXian,DengXian_MSFontService,sans-serif" font-size="50" font-weight="400" transform="translate(498.83 604)">Harry</text><text font-family="DengXian,DengXian_MSFontService,sans-serif" font-size="50" font-weight="400" transform="translate(227.07 604)">Brown</text><text font-family="DengXian,DengXian_MSFontService,sans-serif" font-size="50" font-weight="400" transform="translate(38.26 604)">3</text><text font-family="DengXian,DengXian_MSFontService,sans-serif" font-size="50" font-weight="400" transform="translate(968.6 711)">555-3344</text><text font-family="DengXian,DengXian_MSFontService,sans-serif" font-size="50" font-weight="400" transform="translate(790.01 711)">3</text><text font-family="DengXian,DengXian_MSFontService,sans-serif" font-size="50" font-weight="400" transform="translate(498.83 711)">Edward</text><text font-family="DengXian,DengXian_MSFontService,sans-serif" font-size="50" font-weight="400" transform="translate(227.07 711)">White</text><text font-family="DengXian,DengXian_MSFontService,sans-serif" font-size="50" font-weight="400" transform="translate(38.26 711)">5</text><text font-family="DengXian,DengXian_MSFontService,sans-serif" font-size="50" font-weight="400" transform="translate(968.6 805)">555-3456</text><text fill="#ff0065" font-family="Kaiti SC,Kaiti SC_MSFontService,sans-serif" font-size="92" font-weight="900" transform="translate(336.14 978)">不符合第一范式</text><text fill="#ff0065" font-family="Times New Roman,Times New Roman_MSFontService,sans-serif" font-size="92" font-weight="700" transform="translate(419.35 1088)">(</text><text fill="#ff0065" font-family="Arial,Arial_MSFontService,sans-serif" font-size="92" font-weight="700" transform="translate(449.72 1088)">Not</text><text fill="#ff0065" font-family="Arial,Arial_MSFontService,sans-serif" font-size="92" font-weight="700" transform="translate(626.29 1088)">Table</text><text fill="#ff0065" font-family="Times New Roman,Times New Roman_MSFontService,sans-serif" font-size="92" font-weight="700" transform="translate(856.67 1088)">)</text><path fill="none" stroke="red" stroke-dasharray="30.9375 10.3125" stroke-linecap="square" stroke-miterlimit="8" stroke-width="10.313" d="M183 169C183 78.978 314.4 6 476.5 6S770 78.978 770 169 638.6 332 476.5 332 183 259.022 183 169ZM836 738.5c0-53.3 131.18-96.5 293-96.5s293 43.2 293 96.5-131.18 96.5-293 96.5-293-43.2-293-96.5Z"/></svg>