<svg xmlns="http://www.w3.org/2000/svg" xml:space="preserve" width="2498" height="1819" overflow="hidden"><path fill="#fff" fill-rule="evenodd" d="M7.5 334.125c0 26.303 85.29 47.626 190.5 47.626s190.5-21.323 190.5-47.626V823.88c0 26.3-85.29 47.62-190.5 47.62S7.5 850.18 7.5 823.88Z"/><path fill="#fff" fill-rule="evenodd" d="M7.5 334.125C7.5 307.823 92.79 286.5 198 286.5s190.5 21.323 190.5 47.625c0 26.303-85.29 47.626-190.5 47.626S7.5 360.428 7.5 334.125"/><path fill="none" stroke="#042433" stroke-miterlimit="8" stroke-width="6.875" d="M388.5 334.125c0 26.303-85.29 47.626-190.5 47.626S7.5 360.428 7.5 334.125 92.79 286.5 198 286.5s190.5 21.323 190.5 47.625V823.88c0 26.3-85.29 47.62-190.5 47.62S7.5 850.18 7.5 823.88V334.125"/><path fill="#156082" stroke="#042433" stroke-miterlimit="8" stroke-width="6.875" d="M86.5 484.5h225v123h-225z"/><text fill="#fff" font-family="DengXian,DengXian_MSFontService,sans-serif" font-size="83" font-weight="400" transform="translate(174.824 573)">R</text><path fill="#156082" stroke="#042433" stroke-miterlimit="8" stroke-width="6.875" d="M86.5 682.5h225v123h-225z"/><text fill="#fff" font-family="DengXian,DengXian_MSFontService,sans-serif" font-size="83" font-weight="400" transform="translate(177.402 771)">S</text><path fill="#fff" stroke="#042433" stroke-miterlimit="8" stroke-width="6.875" d="M494.5 456.5h341v245h-341z"/><text font-family="DengXian,DengXian_MSFontService,sans-serif" font-size="83" font-weight="400" transform="translate(581.88 556)">输入</text><text font-family="DengXian,DengXian_MSFontService,sans-serif" font-size="83" font-weight="400" transform="translate(540.63 655)">缓冲区</text><path fill="#156082" d="m388.5 575.062 82.77.001v6.875l-82.77-.001Zm78.18-10.312 27.5 13.75-27.5 13.75Z"/><path fill="#4ea72e" fill-rule="evenodd" stroke="#1c440d" stroke-miterlimit="8" stroke-width="6.875" d="M1024.5 497.334c0-22.552 18.28-40.834 40.83-40.834h259.34c22.55 0 40.83 18.282 40.83 40.834v163.332c0 22.552-18.28 40.834-40.83 40.834h-259.34c-22.55 0-40.83-18.282-40.83-40.834Z"/><text fill="#fff" font-family="DengXian,DengXian_MSFontService,sans-serif" font-size="83" font-weight="400" transform="translate(1111.82 556)">是否</text><text fill="#fff" font-family="DengXian,DengXian_MSFontService,sans-serif" font-size="83" font-weight="400" transform="translate(1070.57 655)">重复？</text><path fill="#fff" stroke="#042433" stroke-miterlimit="8" stroke-width="6.875" d="M1512.5 456.5h341v245h-341z"/><text font-family="DengXian,DengXian_MSFontService,sans-serif" font-size="83" font-weight="400" transform="translate(1600 556)">输出</text><text font-family="DengXian,DengXian_MSFontService,sans-serif" font-size="83" font-weight="400" transform="translate(1558.75 655)">缓冲区</text><path fill="#fff" fill-rule="evenodd" d="M2000.5 334.125c0 26.303 85.29 47.626 190.5 47.626s190.5-21.323 190.5-47.626V823.88c0 26.3-85.29 47.62-190.5 47.62s-190.5-21.32-190.5-47.62Z"/><path fill="#fff" fill-rule="evenodd" d="M2000.5 334.125c0-26.302 85.29-47.625 190.5-47.625s190.5 21.323 190.5 47.625c0 26.303-85.29 47.626-190.5 47.626s-190.5-21.323-190.5-47.626"/><path fill="none" stroke="#042433" stroke-miterlimit="8" stroke-width="6.875" d="M2381.5 334.125c0 26.303-85.29 47.626-190.5 47.626s-190.5-21.323-190.5-47.626S2085.79 286.5 2191 286.5s190.5 21.323 190.5 47.625V823.88c0 26.3-85.29 47.62-190.5 47.62s-190.5-21.32-190.5-47.62V334.125"/><path fill="#156082" stroke="#042433" stroke-miterlimit="8" stroke-width="6.875" d="M2085.5 499.5h235v183h-235z"/><text fill="#fff" font-family="DengXian,DengXian_MSFontService,sans-serif" font-size="83" font-weight="400" transform="translate(2120.17 618)">结果</text><path fill="#156082" d="M835.5 581.938h165.658v-6.876H835.5Zm161.074 10.312 27.5-13.75-27.5-13.75Zm368.926-17.188 123.9.001v6.875l-123.9-.001Zm119.31-10.312 27.5 13.75-27.5 13.75Zm368.69 10.312 123.9.001v6.875l-123.9-.001Zm119.31-10.312 27.5 13.75-27.5 13.75Z"/><text font-family="SimHei,SimHei_MSFontService,sans-serif" font-size="110" font-weight="400" transform="translate(893.47 150)">Distinct</text><text font-family="SimHei,SimHei_MSFontService,sans-serif" font-size="110" font-weight="400" transform="translate(1333.47 150)">操作</text><path fill="#156082" d="m1198.05 724.4 1.56 326.59-6.88.03-1.56-326.588Zm-17.17 4.665 13.62-27.565 13.88 27.434Zm29.02 317.285-13.62 27.57-13.88-27.43Z"/><path fill="#fff" stroke="#4ea72e" stroke-miterlimit="8" stroke-width="6.875" d="M534.5 1073.5h265v132h-265zm265 0h265v132h-265zm265 0h265v132h-265zm265 0h265v132h-265z"/><path fill="#fff" stroke="#4ea72e" stroke-miterlimit="8" stroke-width="6.875" d="M1590.5 1073.5h265v132h-265z"/><text font-family="DengXian,DengXian_MSFontService,sans-serif" font-size="83" font-weight="400" transform="translate(1056.64 1299)">保存已处理过的数据</text><text font-family="DengXian,DengXian_MSFontService,sans-serif" font-size="83" font-weight="400" transform="translate(266.84 1299)">M</text><text font-family="DengXian,DengXian_MSFontService,sans-serif" font-size="83" font-weight="400" transform="translate(338.455 1299)">-</text><text font-family="DengXian,DengXian_MSFontService,sans-serif" font-size="83" font-weight="400" transform="translate(379.705 1299)">2</text><text font-family="DengXian,DengXian_MSFontService,sans-serif" font-size="83" font-weight="400" transform="translate(423.25 1299)">个内存页</text><path fill="none" stroke="#156082" stroke-miterlimit="8" stroke-width="6.875" d="M2091.5 1729.5c-45.29 0-82-6.12-82-13.67v-535.06c0-7.55-36.71-13.67-82-13.67 45.29 0 82-6.12 82-13.66V988.17c0-7.55 36.71-13.67 82-13.67"/><path fill="#e97132" stroke="#fff" stroke-miterlimit="8" stroke-width="6.875" d="M2162.5 992.5h325v195h-325z"/><text fill="#fff" font-family="DengXian,DengXian_MSFontService,sans-serif" font-size="60" font-weight="400" transform="translate(2240.13 1068)">Sorted</text><text fill="#fff" font-family="DengXian,DengXian_MSFontService,sans-serif" font-size="60" font-weight="400" transform="translate(2256.5 1140)">Array</text><path fill="#196b24" stroke="#fff" stroke-miterlimit="8" stroke-width="6.875" d="M2162.5 1220.5h325v195h-325z"/><text fill="#fff" font-family="DengXian,DengXian_MSFontService,sans-serif" font-size="60" font-weight="400" transform="translate(2250.04 1332)">B+</text><text fill="#fff" font-family="DengXian,DengXian_MSFontService,sans-serif" font-size="60" font-weight="400" transform="translate(2339.37 1332)">树</text><path fill="#0f9ed5" stroke="#fff" stroke-miterlimit="8" stroke-width="6.875" d="M2162.5 1447.5h325v195h-325z"/><text fill="#fff" font-family="DengXian,DengXian_MSFontService,sans-serif" font-size="60" font-weight="400" transform="translate(2192.67 1560)">Hash</text><text fill="#fff" font-family="DengXian,DengXian_MSFontService,sans-serif" font-size="60" font-weight="400" transform="translate(2337.16 1560)">结构</text></svg>