<svg width="2800" height="1591" xmlns="http://www.w3.org/2000/svg" xmlns:xlink="http://www.w3.org/1999/xlink" xml:space="preserve" overflow="hidden"><g transform="translate(-110 -100)"><g><path d="M169.409 308.437 492.911 308.437 492.911 479.203 169.409 479.203Z" fill="#FFFFFF" fill-rule="evenodd" fill-opacity="1"/><path d="M169.409 820.734 492.911 820.734 492.911 991.5 169.409 991.5Z" fill="#000000" fill-rule="evenodd" fill-opacity="1"/><path d="M169.409 1333.03 492.911 1333.03 492.911 1503.8 169.409 1503.8Z" fill="#000000" fill-rule="evenodd" fill-opacity="1"/><path d="M168.264 479.203 494.057 479.203" stroke="#4472C4" stroke-width="2.29167" stroke-linecap="butt" stroke-linejoin="miter" stroke-miterlimit="8" stroke-opacity="1" fill="none" fill-rule="evenodd"/><path d="M168.264 649.969 494.057 649.969" stroke="#4472C4" stroke-width="2.29167" stroke-linecap="butt" stroke-linejoin="miter" stroke-miterlimit="8" stroke-opacity="1" fill="none" fill-rule="evenodd"/><path d="M168.264 820.734 494.057 820.734" stroke="#4472C4" stroke-width="2.29167" stroke-linecap="butt" stroke-linejoin="miter" stroke-miterlimit="8" stroke-opacity="1" fill="none" fill-rule="evenodd"/><path d="M168.264 991.5 494.057 991.5" stroke="#4472C4" stroke-width="2.29167" stroke-linecap="butt" stroke-linejoin="miter" stroke-miterlimit="8" stroke-opacity="1" fill="none" fill-rule="evenodd"/><path d="M168.264 1162.27 494.057 1162.27" stroke="#4472C4" stroke-width="2.29167" stroke-linecap="butt" stroke-linejoin="miter" stroke-miterlimit="8" stroke-opacity="1" fill="none" fill-rule="evenodd"/><path d="M168.264 1333.03 494.057 1333.03" stroke="#4472C4" stroke-width="2.29167" stroke-linecap="butt" stroke-linejoin="miter" stroke-miterlimit="8" stroke-opacity="1" fill="none" fill-rule="evenodd"/><path d="M168.264 1503.8 494.057 1503.8" stroke="#4472C4" stroke-width="2.29167" stroke-linecap="butt" stroke-linejoin="miter" stroke-miterlimit="8" stroke-opacity="1" fill="none" fill-rule="evenodd"/><path d="M169.409 307.292 169.409 1675.71" stroke="#4472C4" stroke-width="2.29167" stroke-linecap="butt" stroke-linejoin="miter" stroke-miterlimit="8" stroke-opacity="1" fill="none" fill-rule="evenodd"/><path d="M492.911 307.292 492.911 1675.71" stroke="#4472C4" stroke-width="2.29167" stroke-linecap="butt" stroke-linejoin="miter" stroke-miterlimit="8" stroke-opacity="1" fill="none" fill-rule="evenodd"/><path d="M168.264 308.437 494.057 308.437" stroke="#4472C4" stroke-width="2.29167" stroke-linecap="butt" stroke-linejoin="miter" stroke-miterlimit="8" stroke-opacity="1" fill="none" fill-rule="evenodd"/><path d="M168.264 1674.56 494.057 1674.56" stroke="#4472C4" stroke-width="2.29167" stroke-linecap="butt" stroke-linejoin="miter" stroke-miterlimit="8" stroke-opacity="1" fill="none" fill-rule="evenodd"/><g><text fill="#000000" fill-opacity="1" font-family="DengXian,DengXian_MSFontService,sans-serif" font-style="normal" font-variant="normal" font-weight="400" font-stretch="normal" font-size="83" text-anchor="start" direction="ltr" writing-mode="lr-tb" unicode-bidi="normal" text-decoration="none" transform="matrix(1 0 0 1 202.409 402)">记录</text></g><text fill="#000000" fill-opacity="1" font-family="DengXian,DengXian_MSFontService,sans-serif" font-style="normal" font-variant="normal" font-weight="400" font-stretch="normal" font-size="83" text-anchor="start" direction="ltr" writing-mode="lr-tb" unicode-bidi="normal" text-decoration="none" transform="matrix(1 0 0 1 367.409 402)">1</text><g><text fill="#000000" fill-opacity="1" font-family="DengXian,DengXian_MSFontService,sans-serif" font-style="normal" font-variant="normal" font-weight="400" font-stretch="normal" font-size="83" text-anchor="start" direction="ltr" writing-mode="lr-tb" unicode-bidi="normal" text-decoration="none" transform="matrix(1 0 0 1 202.409 573)">记录</text></g><text fill="#000000" fill-opacity="1" font-family="DengXian,DengXian_MSFontService,sans-serif" font-style="normal" font-variant="normal" font-weight="400" font-stretch="normal" font-size="83" text-anchor="start" direction="ltr" writing-mode="lr-tb" unicode-bidi="normal" text-decoration="none" transform="matrix(1 0 0 1 367.409 573)">4</text><g><text fill="#000000" fill-opacity="1" font-family="DengXian,DengXian_MSFontService,sans-serif" font-style="normal" font-variant="normal" font-weight="400" font-stretch="normal" font-size="83" text-anchor="start" direction="ltr" writing-mode="lr-tb" unicode-bidi="normal" text-decoration="none" transform="matrix(1 0 0 1 202.409 743)">记录</text></g><text fill="#000000" fill-opacity="1" font-family="DengXian,DengXian_MSFontService,sans-serif" font-style="normal" font-variant="normal" font-weight="400" font-stretch="normal" font-size="83" text-anchor="start" direction="ltr" writing-mode="lr-tb" unicode-bidi="normal" text-decoration="none" transform="matrix(1 0 0 1 367.409 743)">2</text><g><text fill="#FFFFFF" fill-opacity="1" font-family="DengXian,DengXian_MSFontService,sans-serif" font-style="normal" font-variant="normal" font-weight="400" font-stretch="normal" font-size="83" text-anchor="start" direction="ltr" writing-mode="lr-tb" unicode-bidi="normal" text-decoration="none" transform="matrix(1 0 0 1 202.409 914)">被删除</text></g><g><text fill="#000000" fill-opacity="1" font-family="DengXian,DengXian_MSFontService,sans-serif" font-style="normal" font-variant="normal" font-weight="400" font-stretch="normal" font-size="83" text-anchor="start" direction="ltr" writing-mode="lr-tb" unicode-bidi="normal" text-decoration="none" transform="matrix(1 0 0 1 202.409 1085)">记录</text></g><text fill="#000000" fill-opacity="1" font-family="DengXian,DengXian_MSFontService,sans-serif" font-style="normal" font-variant="normal" font-weight="400" font-stretch="normal" font-size="83" text-anchor="start" direction="ltr" writing-mode="lr-tb" unicode-bidi="normal" text-decoration="none" transform="matrix(1 0 0 1 367.409 1085)">7</text><g><text fill="#000000" fill-opacity="1" font-family="DengXian,DengXian_MSFontService,sans-serif" font-style="normal" font-variant="normal" font-weight="400" font-stretch="normal" font-size="83" text-anchor="start" direction="ltr" writing-mode="lr-tb" unicode-bidi="normal" text-decoration="none" transform="matrix(1 0 0 1 202.409 1256)">记录</text></g><text fill="#000000" fill-opacity="1" font-family="DengXian,DengXian_MSFontService,sans-serif" font-style="normal" font-variant="normal" font-weight="400" font-stretch="normal" font-size="83" text-anchor="start" direction="ltr" writing-mode="lr-tb" unicode-bidi="normal" text-decoration="none" transform="matrix(1 0 0 1 367.409 1256)">5</text><g><text fill="#FFFFFF" fill-opacity="1" font-family="DengXian,DengXian_MSFontService,sans-serif" font-style="normal" font-variant="normal" font-weight="400" font-stretch="normal" font-size="83" text-anchor="start" direction="ltr" writing-mode="lr-tb" unicode-bidi="normal" text-decoration="none" transform="matrix(1 0 0 1 202.409 1427)">被删除</text></g><g><text fill="#000000" fill-opacity="1" font-family="DengXian,DengXian_MSFontService,sans-serif" font-style="normal" font-variant="normal" font-weight="400" font-stretch="normal" font-size="83" text-anchor="start" direction="ltr" writing-mode="lr-tb" unicode-bidi="normal" text-decoration="none" transform="matrix(1 0 0 1 202.409 1597)">记录</text></g><text fill="#000000" fill-opacity="1" font-family="DengXian,DengXian_MSFontService,sans-serif" font-style="normal" font-variant="normal" font-weight="400" font-stretch="normal" font-size="83" text-anchor="start" direction="ltr" writing-mode="lr-tb" unicode-bidi="normal" text-decoration="none" transform="matrix(1 0 0 1 367.409 1597)">6</text><path d="M733.333 308.436 1056.84 308.436 1056.84 460.228 733.333 460.228Z" fill="#FFFFFF" fill-rule="evenodd" fill-opacity="1"/><path d="M732.188 460.228 1057.98 460.228" stroke="#4472C4" stroke-width="2.29167" stroke-linecap="butt" stroke-linejoin="miter" stroke-miterlimit="8" stroke-opacity="1" fill="none" fill-rule="evenodd"/><path d="M732.188 612.02 1057.98 612.02" stroke="#4472C4" stroke-width="2.29167" stroke-linecap="butt" stroke-linejoin="miter" stroke-miterlimit="8" stroke-opacity="1" fill="none" fill-rule="evenodd"/><path d="M732.188 763.811 1057.98 763.811" stroke="#4472C4" stroke-width="2.29167" stroke-linecap="butt" stroke-linejoin="miter" stroke-miterlimit="8" stroke-opacity="1" fill="none" fill-rule="evenodd"/><path d="M732.188 915.603 1057.98 915.603" stroke="#4472C4" stroke-width="2.29167" stroke-linecap="butt" stroke-linejoin="miter" stroke-miterlimit="8" stroke-opacity="1" fill="none" fill-rule="evenodd"/><path d="M732.188 1067.39 1057.98 1067.39" stroke="#4472C4" stroke-width="2.29167" stroke-linecap="butt" stroke-linejoin="miter" stroke-miterlimit="8" stroke-opacity="1" fill="none" fill-rule="evenodd"/><path d="M732.188 1219.19 1057.98 1219.19" stroke="#4472C4" stroke-width="2.29167" stroke-linecap="butt" stroke-linejoin="miter" stroke-miterlimit="8" stroke-opacity="1" fill="none" fill-rule="evenodd"/><path d="M732.188 1370.98 1057.98 1370.98" stroke="#4472C4" stroke-width="2.29167" stroke-linecap="butt" stroke-linejoin="miter" stroke-miterlimit="8" stroke-opacity="1" fill="none" fill-rule="evenodd"/><path d="M732.188 1522.77 1057.98 1522.77" stroke="#4472C4" stroke-width="2.29167" stroke-linecap="butt" stroke-linejoin="miter" stroke-miterlimit="8" stroke-opacity="1" fill="none" fill-rule="evenodd"/><path d="M733.333 307.29 733.333 1675.71" stroke="#4472C4" stroke-width="2.29167" stroke-linecap="butt" stroke-linejoin="miter" stroke-miterlimit="8" stroke-opacity="1" fill="none" fill-rule="evenodd"/><path d="M1056.84 307.29 1056.84 1675.71" stroke="#4472C4" stroke-width="2.29167" stroke-linecap="butt" stroke-linejoin="miter" stroke-miterlimit="8" stroke-opacity="1" fill="none" fill-rule="evenodd"/><path d="M732.188 308.436 1057.98 308.436" stroke="#4472C4" stroke-width="2.29167" stroke-linecap="butt" stroke-linejoin="miter" stroke-miterlimit="8" stroke-opacity="1" fill="none" fill-rule="evenodd"/><path d="M732.188 1674.56 1057.98 1674.56" stroke="#4472C4" stroke-width="2.29167" stroke-linecap="butt" stroke-linejoin="miter" stroke-miterlimit="8" stroke-opacity="1" fill="none" fill-rule="evenodd"/><g><text fill="#000000" fill-opacity="1" font-family="DengXian,DengXian_MSFontService,sans-serif" font-style="normal" font-variant="normal" font-weight="400" font-stretch="normal" font-size="83" text-anchor="start" direction="ltr" writing-mode="lr-tb" unicode-bidi="normal" text-decoration="none" transform="matrix(1 0 0 1 766.333 402)">记录</text></g><text fill="#000000" fill-opacity="1" font-family="DengXian,DengXian_MSFontService,sans-serif" font-style="normal" font-variant="normal" font-weight="400" font-stretch="normal" font-size="83" text-anchor="start" direction="ltr" writing-mode="lr-tb" unicode-bidi="normal" text-decoration="none" transform="matrix(1 0 0 1 931.333 402)">1</text><g><text fill="#000000" fill-opacity="1" font-family="DengXian,DengXian_MSFontService,sans-serif" font-style="normal" font-variant="normal" font-weight="400" font-stretch="normal" font-size="83" text-anchor="start" direction="ltr" writing-mode="lr-tb" unicode-bidi="normal" text-decoration="none" transform="matrix(1 0 0 1 766.333 554)">记录</text></g><text fill="#000000" fill-opacity="1" font-family="DengXian,DengXian_MSFontService,sans-serif" font-style="normal" font-variant="normal" font-weight="400" font-stretch="normal" font-size="83" text-anchor="start" direction="ltr" writing-mode="lr-tb" unicode-bidi="normal" text-decoration="none" transform="matrix(1 0 0 1 931.333 554)">2</text><g><text fill="#000000" fill-opacity="1" font-family="DengXian,DengXian_MSFontService,sans-serif" font-style="normal" font-variant="normal" font-weight="400" font-stretch="normal" font-size="83" text-anchor="start" direction="ltr" writing-mode="lr-tb" unicode-bidi="normal" text-decoration="none" transform="matrix(1 0 0 1 766.333 706)">记录</text></g><text fill="#000000" fill-opacity="1" font-family="DengXian,DengXian_MSFontService,sans-serif" font-style="normal" font-variant="normal" font-weight="400" font-stretch="normal" font-size="83" text-anchor="start" direction="ltr" writing-mode="lr-tb" unicode-bidi="normal" text-decoration="none" transform="matrix(1 0 0 1 931.333 706)">4</text><g><text fill="#000000" fill-opacity="1" font-family="DengXian,DengXian_MSFontService,sans-serif" font-style="normal" font-variant="normal" font-weight="400" font-stretch="normal" font-size="83" text-anchor="start" direction="ltr" writing-mode="lr-tb" unicode-bidi="normal" text-decoration="none" transform="matrix(1 0 0 1 766.333 857)">记录</text></g><text fill="#000000" fill-opacity="1" font-family="DengXian,DengXian_MSFontService,sans-serif" font-style="normal" font-variant="normal" font-weight="400" font-stretch="normal" font-size="83" text-anchor="start" direction="ltr" writing-mode="lr-tb" unicode-bidi="normal" text-decoration="none" transform="matrix(1 0 0 1 931.333 857)">5</text><g><text fill="#000000" fill-opacity="1" font-family="DengXian,DengXian_MSFontService,sans-serif" font-style="normal" font-variant="normal" font-weight="400" font-stretch="normal" font-size="83" text-anchor="start" direction="ltr" writing-mode="lr-tb" unicode-bidi="normal" text-decoration="none" transform="matrix(1 0 0 1 766.333 1009)">记录</text></g><text fill="#000000" fill-opacity="1" font-family="DengXian,DengXian_MSFontService,sans-serif" font-style="normal" font-variant="normal" font-weight="400" font-stretch="normal" font-size="83" text-anchor="start" direction="ltr" writing-mode="lr-tb" unicode-bidi="normal" text-decoration="none" transform="matrix(1 0 0 1 931.333 1009)">6</text><g><text fill="#000000" fill-opacity="1" font-family="DengXian,DengXian_MSFontService,sans-serif" font-style="normal" font-variant="normal" font-weight="400" font-stretch="normal" font-size="83" text-anchor="start" direction="ltr" writing-mode="lr-tb" unicode-bidi="normal" text-decoration="none" transform="matrix(1 0 0 1 766.333 1161)">记录</text></g><text fill="#000000" fill-opacity="1" font-family="DengXian,DengXian_MSFontService,sans-serif" font-style="normal" font-variant="normal" font-weight="400" font-stretch="normal" font-size="83" text-anchor="start" direction="ltr" writing-mode="lr-tb" unicode-bidi="normal" text-decoration="none" transform="matrix(1 0 0 1 931.333 1161)">7</text><path d="M1413.39 308.436 1736.89 308.436 1736.89 460.228 1413.39 460.228Z" fill="#FFFFFF" fill-rule="evenodd" fill-opacity="1"/><path d="M1412.25 460.228 1738.04 460.228" stroke="#4472C4" stroke-width="2.29167" stroke-linecap="butt" stroke-linejoin="miter" stroke-miterlimit="8" stroke-opacity="1" fill="none" fill-rule="evenodd"/><path d="M1412.25 612.02 1738.04 612.02" stroke="#4472C4" stroke-width="2.29167" stroke-linecap="butt" stroke-linejoin="miter" stroke-miterlimit="8" stroke-opacity="1" fill="none" fill-rule="evenodd"/><path d="M1412.25 763.811 1738.04 763.811" stroke="#4472C4" stroke-width="2.29167" stroke-linecap="butt" stroke-linejoin="miter" stroke-miterlimit="8" stroke-opacity="1" fill="none" fill-rule="evenodd"/><path d="M1412.25 915.603 1738.04 915.603" stroke="#4472C4" stroke-width="2.29167" stroke-linecap="butt" stroke-linejoin="miter" stroke-miterlimit="8" stroke-opacity="1" fill="none" fill-rule="evenodd"/><path d="M1412.25 1067.39 1738.04 1067.39" stroke="#4472C4" stroke-width="2.29167" stroke-linecap="butt" stroke-linejoin="miter" stroke-miterlimit="8" stroke-opacity="1" fill="none" fill-rule="evenodd"/><path d="M1412.25 1219.19 1738.04 1219.19" stroke="#4472C4" stroke-width="2.29167" stroke-linecap="butt" stroke-linejoin="miter" stroke-miterlimit="8" stroke-opacity="1" fill="none" fill-rule="evenodd"/><path d="M1412.25 1370.98 1738.04 1370.98" stroke="#4472C4" stroke-width="2.29167" stroke-linecap="butt" stroke-linejoin="miter" stroke-miterlimit="8" stroke-opacity="1" fill="none" fill-rule="evenodd"/><path d="M1412.25 1522.77 1738.04 1522.77" stroke="#4472C4" stroke-width="2.29167" stroke-linecap="butt" stroke-linejoin="miter" stroke-miterlimit="8" stroke-opacity="1" fill="none" fill-rule="evenodd"/><path d="M1413.39 307.29 1413.39 1675.71" stroke="#4472C4" stroke-width="2.29167" stroke-linecap="butt" stroke-linejoin="miter" stroke-miterlimit="8" stroke-opacity="1" fill="none" fill-rule="evenodd"/><path d="M1736.89 307.29 1736.89 1675.71" stroke="#4472C4" stroke-width="2.29167" stroke-linecap="butt" stroke-linejoin="miter" stroke-miterlimit="8" stroke-opacity="1" fill="none" fill-rule="evenodd"/><path d="M1412.25 308.436 1738.04 308.436" stroke="#4472C4" stroke-width="2.29167" stroke-linecap="butt" stroke-linejoin="miter" stroke-miterlimit="8" stroke-opacity="1" fill="none" fill-rule="evenodd"/><path d="M1412.25 1674.56 1738.04 1674.56" stroke="#4472C4" stroke-width="2.29167" stroke-linecap="butt" stroke-linejoin="miter" stroke-miterlimit="8" stroke-opacity="1" fill="none" fill-rule="evenodd"/><g><text fill="#000000" fill-opacity="1" font-family="DengXian,DengXian_MSFontService,sans-serif" font-style="normal" font-variant="normal" font-weight="400" font-stretch="normal" font-size="83" text-anchor="start" direction="ltr" writing-mode="lr-tb" unicode-bidi="normal" text-decoration="none" transform="matrix(1 0 0 1 1446.39 402)">Hash 1</text></g><g><text fill="#000000" fill-opacity="1" font-family="DengXian,DengXian_MSFontService,sans-serif" font-style="normal" font-variant="normal" font-weight="400" font-stretch="normal" font-size="83" text-anchor="start" direction="ltr" writing-mode="lr-tb" unicode-bidi="normal" text-decoration="none" transform="matrix(1 0 0 1 1446.39 554)">Hash 2</text></g><g><text fill="#000000" fill-opacity="1" font-family="DengXian,DengXian_MSFontService,sans-serif" font-style="normal" font-variant="normal" font-weight="400" font-stretch="normal" font-size="83" text-anchor="start" direction="ltr" writing-mode="lr-tb" unicode-bidi="normal" text-decoration="none" transform="matrix(1 0 0 1 1446.39 706)">Hash 3</text></g><g><text fill="#000000" fill-opacity="1" font-family="DengXian,DengXian_MSFontService,sans-serif" font-style="normal" font-variant="normal" font-weight="400" font-stretch="normal" font-size="83" text-anchor="start" direction="ltr" writing-mode="lr-tb" unicode-bidi="normal" text-decoration="none" transform="matrix(1 0 0 1 1446.39 857)">Hash 4</text></g><g><text fill="#000000" fill-opacity="1" font-family="DengXian,DengXian_MSFontService,sans-serif" font-style="normal" font-variant="normal" font-weight="400" font-stretch="normal" font-size="83" text-anchor="start" direction="ltr" writing-mode="lr-tb" unicode-bidi="normal" text-decoration="none" transform="matrix(1 0 0 1 1446.39 1009)">Hash 5</text></g><g><text fill="#000000" fill-opacity="1" font-family="DengXian,DengXian_MSFontService,sans-serif" font-style="normal" font-variant="normal" font-weight="400" font-stretch="normal" font-size="83" text-anchor="start" direction="ltr" writing-mode="lr-tb" unicode-bidi="normal" text-decoration="none" transform="matrix(1 0 0 1 1446.39 1161)">Hash 6</text></g><g><text fill="#000000" fill-opacity="1" font-family="DengXian,DengXian_MSFontService,sans-serif" font-style="normal" font-variant="normal" font-weight="400" font-stretch="normal" font-size="83" text-anchor="start" direction="ltr" writing-mode="lr-tb" unicode-bidi="normal" text-decoration="none" transform="matrix(1 0 0 1 1446.39 1313)">…</text></g><g><text fill="#000000" fill-opacity="1" font-family="DengXian,DengXian_MSFontService,sans-serif" font-style="normal" font-variant="normal" font-weight="400" font-stretch="normal" font-size="83" text-anchor="start" direction="ltr" writing-mode="lr-tb" unicode-bidi="normal" text-decoration="none" transform="matrix(1 0 0 1 1446.39 1464)">…</text></g><g><text fill="#000000" fill-opacity="1" font-family="DengXian,DengXian_MSFontService,sans-serif" font-style="normal" font-variant="normal" font-weight="400" font-stretch="normal" font-size="83" text-anchor="start" direction="ltr" writing-mode="lr-tb" unicode-bidi="normal" text-decoration="none" transform="matrix(1 0 0 1 1446.39 1616)">Hash n</text></g><path d="M1922.5 704.667C1922.5 609.582 2142.33 532.5 2413.5 532.5 2684.67 532.5 2904.5 609.582 2904.5 704.667L2904.5 1393.33C2904.5 1488.42 2684.67 1565.5 2413.5 1565.5 2142.33 1565.5 1922.5 1488.42 1922.5 1393.33Z" fill="#FFFFFF" fill-rule="evenodd" fill-opacity="1"/><path d="M2904.5 704.667C2904.5 799.752 2684.67 876.833 2413.5 876.833 2142.33 876.833 1922.5 799.752 1922.5 704.667" stroke="#70AD47" stroke-width="4.58333" stroke-linecap="butt" stroke-linejoin="miter" stroke-miterlimit="8" stroke-opacity="1" fill="none" fill-rule="evenodd"/><path d="M1922.5 704.667C1922.5 609.582 2142.33 532.5 2413.5 532.5 2684.67 532.5 2904.5 609.582 2904.5 704.667L2904.5 1393.33C2904.5 1488.42 2684.67 1565.5 2413.5 1565.5 2142.33 1565.5 1922.5 1488.42 1922.5 1393.33Z" stroke="#70AD47" stroke-width="4.58333" stroke-linecap="butt" stroke-linejoin="miter" stroke-miterlimit="8" stroke-opacity="1" fill="none" fill-rule="evenodd"/><rect x="1998.5" y="885.5" width="250" height="109" stroke="#172C51" stroke-width="4.58333" stroke-linecap="butt" stroke-linejoin="miter" stroke-miterlimit="8" stroke-opacity="1" fill="#4472C4" fill-opacity="1"/><rect x="2288.5" y="885.5" width="250" height="109" stroke="#172C51" stroke-width="4.58333" stroke-linecap="butt" stroke-linejoin="miter" stroke-miterlimit="8" stroke-opacity="1" fill="#4472C4" fill-opacity="1"/><rect x="2578.5" y="883.5" width="250" height="108" stroke="#172C51" stroke-width="4.58333" stroke-linecap="butt" stroke-linejoin="miter" stroke-miterlimit="8" stroke-opacity="1" fill="#4472C4" fill-opacity="1"/><rect x="2003.5" y="1020.5" width="250" height="108" stroke="#172C51" stroke-width="4.58333" stroke-linecap="butt" stroke-linejoin="miter" stroke-miterlimit="8" stroke-opacity="1" fill="#4472C4" fill-opacity="1"/><rect x="2293.5" y="1020.5" width="250" height="108" stroke="#172C51" stroke-width="4.58333" stroke-linecap="butt" stroke-linejoin="miter" stroke-miterlimit="8" stroke-opacity="1" fill="#4472C4" fill-opacity="1"/><rect x="2583.5" y="1017.5" width="250" height="109" stroke="#172C51" stroke-width="4.58333" stroke-linecap="butt" stroke-linejoin="miter" stroke-miterlimit="8" stroke-opacity="1" fill="#4472C4" fill-opacity="1"/><rect x="2003.5" y="1290.5" width="250" height="109" stroke="#172C51" stroke-width="4.58333" stroke-linecap="butt" stroke-linejoin="miter" stroke-miterlimit="8" stroke-opacity="1" fill="#4472C4" fill-opacity="1"/><rect x="2293.5" y="1290.5" width="250" height="109" stroke="#172C51" stroke-width="4.58333" stroke-linecap="butt" stroke-linejoin="miter" stroke-miterlimit="8" stroke-opacity="1" fill="#4472C4" fill-opacity="1"/><rect x="2583.5" y="1288.5" width="250" height="109" stroke="#172C51" stroke-width="4.58333" stroke-linecap="butt" stroke-linejoin="miter" stroke-miterlimit="8" stroke-opacity="1" fill="#4472C4" fill-opacity="1"/><path d="M0.0245675-1.14557 11.5451-0.898504 23.0665-0.166226 34.5415 1.03499 45.9477 2.68944 57.2627 4.78142 68.4643 7.29527 79.53 10.2154 90.4474 13.5291 111.689 21.2565 132.039 30.3632 151.311 40.7218 169.314 52.2026 177.801 58.337 185.898 64.7011 193.591 71.286 200.857 78.0763 207.674 85.0571 214.02 92.2131 219.871 99.5292 225.205 106.991 229.999 114.582 234.231 122.288 237.876 130.095 240.912 137.986 243.314 145.947 245.06 153.96 246.124 162.011 246.482 170.031 246.838 178.001 246.829 177.902 247.881 185.856 247.865 185.763 249.59 193.686 249.568 193.599 251.945 201.475 251.917 201.395 254.924 209.209 254.892 209.136 258.505 216.872 258.471 216.806 262.668 224.449 262.632 224.388 267.39 231.922 267.353 231.868 272.65 239.277 272.613 239.228 278.427 246.497 278.389 246.453 284.697 253.566 284.66 253.526 291.439 260.468 291.402 260.432 298.631 267.187 298.593 267.154 306.249 273.707 306.212 273.676 314.272 280.011 314.235 279.984 322.677 286.085 322.622 286.048 340.561 297.487 340.487 297.444 359.684 307.763 359.61 307.726 379.885 316.799 379.808 316.768 400.982 324.471 400.923 324.451 411.791 327.75 411.75 327.738 422.775 330.648 422.733 330.638 433.893 333.142 433.85 333.133 445.122 335.217 445.078 335.21 456.44 336.858 456.371 336.85 467.886 337.817 467.694 340.101 456.145 339.131 444.727 337.475 433.412 335.383 422.211 332.869 411.145 329.949 400.228 326.635 378.986 318.908 358.636 309.801 339.365 299.443 321.361 287.962 312.874 281.827 304.777 275.463 297.084 268.878 289.818 262.088 283.001 255.107 276.655 247.951 270.804 240.635 265.47 233.174 260.676 225.582 256.444 217.876 252.799 210.069 249.763 202.178 247.361 194.218 245.615 186.204 244.551 178.153 244.193 170.133 243.837 162.163 243.846 162.262 242.794 154.308 242.81 154.402 241.085 146.478 241.107 146.565 238.73 138.689 238.758 138.769 235.752 130.955 235.783 131.028 232.17 123.292 232.204 123.359 228.008 115.716 228.043 115.776 223.285 108.242 223.322 108.297 218.025 100.887 218.062 100.936 212.248 93.6671 212.286 93.7117 205.978 86.5981 206.015 86.6385 199.236 79.6962 199.273 79.7328 192.044 72.9774 192.082 73.0107 184.426 66.4577 184.463 66.4881 176.403 60.1531 176.44 60.1808 167.998 54.0794 168.053 54.1169 150.114 42.677 150.188 42.7202 130.991 32.4014 131.065 32.4381 110.79 23.3651 110.867 23.396 89.6931 15.6933 89.7521 15.7129 78.8845 12.4143 78.925 12.4258 67.9002 9.51653 67.9417 9.52665 56.7821 7.02223 56.8247 7.03094 45.5529 4.94695 45.5967 4.95418 34.235 3.30619 34.2802 3.31183 22.8511 2.11542 22.8978 2.11934 11.4238 1.39008 11.4719 1.39212-0.0245675 1.14557ZM463.936 324.987 490.675 340.164 462.49 352.449Z" fill="#4472C4" fill-rule="nonzero" fill-opacity="1" transform="matrix(1.83697e-16 1 1 -1.83697e-16 1737 392)"/><path d="M0.0269019-1.14552 16.4968-0.75873 32.9601 0.387124 49.3574 2.2668 65.6566 4.85573 81.8258 8.12937 97.8328 12.0632 113.646 16.6327 129.232 21.8134 144.561 27.5809 159.599 33.9108 174.316 40.7788 188.678 48.1603 202.654 56.0312 216.211 64.3671 229.319 73.1438 241.944 82.3371 254.055 91.9226 265.619 101.876 276.605 112.174 286.98 122.792 296.713 133.705 305.77 144.891 314.12 156.324 321.731 167.981 328.569 179.838 334.602 191.871 339.797 204.055 344.122 216.367 347.549 228.8 349.958 243.391 347.697 243.764 345.298 229.233 345.324 229.351 341.924 217.014 341.947 217.089 337.648 204.85 337.675 204.92 332.508 192.802 332.537 192.866 326.535 180.895 326.567 180.954 319.761 169.153 319.794 169.207 312.218 157.602 312.252 157.651 303.936 146.265 303.971 146.311 294.949 135.169 294.984 135.21 285.287 124.337 285.323 124.375 274.984 113.794 275.019 113.829 264.07 103.565 264.106 103.597 252.578 93.6749 252.614 93.7049 240.54 84.1483 240.576 84.1761 227.988 75.0097 228.025 75.0355 214.955 66.2837 214.992 66.3077 201.472 57.9949 201.51 58.0172 187.572 50.1678 187.611 50.1885 173.287 42.827 173.327 42.8462 158.65 35.9968 158.69 36.0145 143.692 29.7017 143.733 29.718 128.446 23.9661 128.488 23.9811 112.944 18.8145 112.988 18.828 97.2188 14.2712 97.2635 14.2831 81.3018 10.3605 81.3479 10.3708 65.2256 7.10663 65.2732 7.11523 49.0224 4.534 49.0717 4.54073 32.7245 2.66679 32.7754 2.67148 16.364 1.52924 16.4167 1.53169-0.0269019 1.14552ZM362.104 237.763 350.91 266.399 334.718 240.263Z" fill="#4472C4" fill-rule="nonzero" fill-opacity="1" transform="matrix(1.83697e-16 1 1 -1.83697e-16 1737 994)"/><path d="M0.017419-1.1457 25.4339-0.759273 50.8175 0.384491 76.1008 2.26086 101.235 4.84539 126.169 8.11364 150.855 12.0412 175.243 16.6037 199.283 21.7767 222.926 27.536 246.123 33.857 268.823 40.7155 290.978 48.0873 312.538 55.948 333.453 64.2734 353.674 73.0392 373.152 82.2214 391.837 91.7958 409.68 101.738 426.631 112.025 442.642 122.632 457.661 133.536 471.641 144.713 484.531 156.139 496.282 167.792 506.844 179.648 516.167 191.686 524.199 203.881 530.89 216.211 536.197 228.678 539.963 243.42 537.743 243.988 533.998 229.33 534.054 229.495 528.802 217.158 528.849 217.256 522.208 205.016 522.258 205.1 514.277 192.983 514.328 193.054 505.056 181.083 505.107 181.143 494.595 169.343 494.644 169.394 482.94 157.789 482.987 157.833 470.143 146.447 470.187 146.484 456.251 135.342 456.293 135.375 441.315 124.501 441.355 124.529 425.385 113.948 425.423 113.972 408.509 103.708 408.546 103.73 390.739 93.8073 390.774 93.8262 372.124 84.2695 372.158 84.2862 352.713 75.1198 352.746 75.1346 332.557 66.3828 332.589 66.3961 311.706 58.0834 311.737 58.0953 290.208 50.2459 290.239 50.2566 268.115 42.895 268.145 42.9047 245.475 36.0553 245.505 36.0639 222.339 29.7511 222.369 29.7588 198.756 24.007 198.786 24.0139 174.776 18.8473 174.806 18.8534 150.449 14.2967 150.48 14.302 125.825 10.3793 125.856 10.3838 100.953 7.11969 100.984 7.1234 75.8826 4.54217 75.915 4.54504 50.6644 2.6711 50.6977 2.67309 25.3479 1.53084 25.382 1.53187-0.017419 1.1457ZM551.834 237.258 542.031 266.399 524.6 241.072Z" fill="#4472C4" fill-rule="nonzero" fill-opacity="1" transform="matrix(1.83697e-16 1 1 -1.83697e-16 1737 532)"/><text fill="#000000" fill-opacity="1" font-family="DengXian,DengXian_MSFontService,sans-serif" font-style="normal" font-variant="normal" font-weight="400" font-stretch="normal" font-size="83" text-anchor="start" direction="ltr" writing-mode="lr-tb" unicode-bidi="normal" text-decoration="none" transform="matrix(1 0 0 1 164.227 206)">无序记录</text><text fill="#000000" fill-opacity="1" font-family="DengXian,DengXian_MSFontService,sans-serif" font-style="normal" font-variant="normal" font-weight="400" font-stretch="normal" font-size="83" text-anchor="start" direction="ltr" writing-mode="lr-tb" unicode-bidi="normal" text-decoration="none" transform="matrix(1 0 0 1 728.151 206)">有序记录</text><text fill="#000000" fill-opacity="1" font-family="DengXian,DengXian_MSFontService,sans-serif" font-style="normal" font-variant="normal" font-weight="400" font-stretch="normal" font-size="83" text-anchor="start" direction="ltr" writing-mode="lr-tb" unicode-bidi="normal" text-decoration="none" transform="matrix(1 0 0 1 1710.19 206)">散列文件</text></g></g></svg>