<svg xmlns="http://www.w3.org/2000/svg" xml:space="preserve" width="3085" height="1668" overflow="hidden"><path fill="#f06" fill-rule="evenodd" d="M2268.5 328.854h158.59v110.917H2268.5Z"/><path fill="#ff9" fill-rule="evenodd" d="M2427.09 328.854h647.85v110.917h-647.85Z"/><path fill="#f06" fill-rule="evenodd" d="M2268.5 439.771h158.59v112.291H2268.5Z"/><path fill="#ff9" fill-rule="evenodd" d="M2427.09 439.771h647.85v112.291h-647.85Z"/><path fill="#f06" fill-rule="evenodd" d="M2268.5 552.062h158.59v112.063H2268.5Z"/><path fill="#ff9" fill-rule="evenodd" d="M2427.09 552.062h647.85v112.063h-647.85Z"/><path fill="#f06" fill-rule="evenodd" d="M2268.5 664.125h158.59V775.96H2268.5Z"/><path fill="#ff9" fill-rule="evenodd" d="M2427.09 664.125h647.85V775.96h-647.85Z"/><path fill="#f06" fill-rule="evenodd" d="M2268.5 775.96h158.59v111.83H2268.5Z"/><path fill="#ff9" fill-rule="evenodd" d="M2427.09 775.96h647.85v111.83h-647.85Z"/><path fill="#f06" fill-rule="evenodd" d="M2268.5 887.79h158.59v111.83H2268.5Z"/><path fill="#ff9" fill-rule="evenodd" d="M2427.09 887.79h647.85v111.83h-647.85Z"/><path fill="#f06" fill-rule="evenodd" d="M2268.5 999.62h158.59v112.07H2268.5Z"/><path fill="#ff9" fill-rule="evenodd" d="M2427.09 999.62h647.85v112.07h-647.85Z"/><path fill="#f06" fill-rule="evenodd" d="M2268.5 1111.69h158.59v111.37H2268.5Z"/><path fill="#ff9" fill-rule="evenodd" d="M2427.09 1111.69h647.85v111.37h-647.85Z"/><path fill="#f06" fill-rule="evenodd" d="M2268.5 1223.06h158.59v111.61H2268.5Z"/><path fill="#ff9" fill-rule="evenodd" d="M2427.09 1223.06h647.85v111.61h-647.85Z"/><path fill="#f06" fill-rule="evenodd" d="M2268.5 1334.67h158.59v110.91H2268.5Z"/><path fill="#ff9" fill-rule="evenodd" d="M2427.09 1334.67h647.85v110.91h-647.85Z"/><path fill="none" stroke="#33c" stroke-linejoin="round" stroke-miterlimit="10" stroke-width="3.438" d="M2427.09 327.136V1447.3"/><path fill="none" stroke="#33c" stroke-linejoin="round" stroke-miterlimit="10" stroke-width="6.875" d="M2266.79 439.771h160.3"/><path fill="none" stroke="#f06" stroke-linejoin="round" stroke-miterlimit="10" stroke-width="6.875" d="M2427.09 439.771h649.57"/><path fill="none" stroke="#33c" stroke-linejoin="round" stroke-miterlimit="10" stroke-width="6.875" d="M2266.79 552.062h160.3"/><path fill="none" stroke="#f06" stroke-linejoin="round" stroke-miterlimit="10" stroke-width="6.875" d="M2427.09 552.062h649.57"/><path fill="none" stroke="#33c" stroke-linejoin="round" stroke-miterlimit="10" stroke-width="4.583" d="M2266.79 664.125h158.58"/><path fill="none" stroke="#f06" stroke-linejoin="round" stroke-miterlimit="10" stroke-width="6.875" d="M2425.37 664.125h651.29"/><path fill="none" stroke="#33c" stroke-linejoin="round" stroke-miterlimit="10" stroke-width="6.875" d="M2266.79 775.96h160.3"/><path fill="none" stroke="#f06" stroke-linejoin="round" stroke-miterlimit="10" stroke-width="6.875" d="M2427.09 775.96h649.57"/><path fill="none" stroke="#33c" stroke-linejoin="round" stroke-miterlimit="10" stroke-width="4.583" d="M2266.79 887.79h158.58"/><path fill="none" stroke="#f06" stroke-linejoin="round" stroke-miterlimit="10" stroke-width="6.875" d="M2425.37 887.79h651.29"/><path fill="none" stroke="#33c" stroke-linejoin="round" stroke-miterlimit="10" stroke-width="6.875" d="M2266.79 999.62h160.3"/><path fill="none" stroke="#f06" stroke-linejoin="round" stroke-miterlimit="10" stroke-width="6.875" d="M2427.09 999.62h649.57"/><path fill="none" stroke="#33c" stroke-linejoin="round" stroke-miterlimit="10" stroke-width="4.583" d="M2266.79 1111.69h158.58"/><path fill="none" stroke="#f06" stroke-linejoin="round" stroke-miterlimit="10" stroke-width="6.875" d="M2425.37 1111.69h651.29"/><path fill="none" stroke="#33c" stroke-linejoin="round" stroke-miterlimit="10" stroke-width="4.583" d="M2266.79 1223.06h160.3"/><path fill="none" stroke="#f06" stroke-linejoin="round" stroke-miterlimit="10" stroke-width="4.583" d="M2427.09 1223.06h649.57"/><path fill="none" stroke="#33c" stroke-linejoin="round" stroke-miterlimit="10" stroke-width="6.875" d="M2266.79 1334.67h160.3"/><path fill="none" stroke="#f06" stroke-linejoin="round" stroke-miterlimit="10" stroke-width="6.875" d="M2427.09 1334.67h649.57"/><path fill="none" stroke="#33c" stroke-linejoin="round" stroke-miterlimit="10" stroke-width="3.438" d="M2268.5 327.136V1447.3"/><path fill="none" stroke="#f06" stroke-linejoin="round" stroke-miterlimit="10" stroke-width="3.438" d="M3074.94 327.136V1447.3"/><path fill="none" stroke="#33c" stroke-linejoin="round" stroke-miterlimit="10" stroke-width="3.438" d="M2266.79 328.854h160.3"/><path fill="none" stroke="#f06" stroke-linejoin="round" stroke-miterlimit="10" stroke-width="3.438" d="M2427.09 328.854h649.57"/><path fill="none" stroke="#33c" stroke-linejoin="round" stroke-miterlimit="10" stroke-width="3.438" d="M2266.79 1445.58h160.3"/><path fill="none" stroke="#f06" stroke-linejoin="round" stroke-miterlimit="10" stroke-width="3.438" d="M2427.09 1445.58h649.57"/><text font-family="Lantinghei SC,Lantinghei SC_MSFontService,sans-serif" font-size="73" font-weight="900" transform="translate(2531.82 412)">(</text><text font-family="Lantinghei SC,Lantinghei SC_MSFontService,sans-serif" font-size="73" font-weight="900" transform="translate(2560.46 412)">系</text><text font-family="Lantinghei SC,Lantinghei SC_MSFontService,sans-serif" font-size="73" font-weight="900" transform="translate(2632.65 412)">1</text><text font-family="Lantinghei SC,Lantinghei SC_MSFontService,sans-serif" font-size="73" font-weight="900" transform="translate(2674.7 412)">的</text><text font-family="Lantinghei SC,Lantinghei SC_MSFontService,sans-serif" font-size="73" font-weight="900" transform="translate(2746.43 412)">)</text><text font-family="Lantinghei SC,Lantinghei SC_MSFontService,sans-serif" font-size="73" font-weight="900" transform="translate(2775.19 412)">记录</text><text font-family="Lantinghei SC,Lantinghei SC_MSFontService,sans-serif" font-size="73" font-weight="900" transform="translate(2514.51 524)">1</text><text font-family="Lantinghei SC,Lantinghei SC_MSFontService,sans-serif" font-size="73" font-weight="900" transform="translate(2557.03 524)">的教师</text><text font-family="Lantinghei SC,Lantinghei SC_MSFontService,sans-serif" font-size="73" font-weight="900" transform="translate(2775.65 524)">1</text><text font-family="Lantinghei SC,Lantinghei SC_MSFontService,sans-serif" font-size="73" font-weight="900" transform="translate(2818.16 524)">的</text><text font-family="Lantinghei SC,Lantinghei SC_MSFontService,sans-serif" font-size="73" font-weight="900" transform="translate(2890.58 524)">)</text><text font-family="Lantinghei SC,Lantinghei SC_MSFontService,sans-serif" font-size="73" font-weight="900" transform="translate(2920.03 524)">记录</text><text font-family="Lantinghei SC,Lantinghei SC_MSFontService,sans-serif" font-size="73" font-weight="900" transform="translate(2326.25 524)">(</text><text font-family="Lantinghei SC,Lantinghei SC_MSFontService,sans-serif" font-size="73" font-weight="900" transform="translate(2354.21 524)">系</text><text font-family="Lantinghei SC,Lantinghei SC_MSFontService,sans-serif" font-size="73" font-weight="900" transform="translate(2520.01 634)">1</text><text font-family="Lantinghei SC,Lantinghei SC_MSFontService,sans-serif" font-size="73" font-weight="900" transform="translate(2561.61 634)">的教师</text><text font-family="Lantinghei SC,Lantinghei SC_MSFontService,sans-serif" font-size="73" font-weight="900" transform="translate(2775.42 634)">2</text><text font-family="Lantinghei SC,Lantinghei SC_MSFontService,sans-serif" font-size="73" font-weight="900" transform="translate(2825.95 634)">的</text><text font-family="Lantinghei SC,Lantinghei SC_MSFontService,sans-serif" font-size="73" font-weight="900" transform="translate(2897.22 634)">)</text><text font-family="Lantinghei SC,Lantinghei SC_MSFontService,sans-serif" font-size="73" font-weight="900" transform="translate(2925.53 634)">记录</text><text font-family="Lantinghei SC,Lantinghei SC_MSFontService,sans-serif" font-size="73" font-weight="900" transform="translate(2326.25 634)">(</text><text font-family="Lantinghei SC,Lantinghei SC_MSFontService,sans-serif" font-size="73" font-weight="900" transform="translate(2354.21 634)">系</text><text font-family="Lantinghei SC,Lantinghei SC_MSFontService,sans-serif" font-size="73" font-weight="900" transform="translate(2513.48 748)">1</text><text font-family="Lantinghei SC,Lantinghei SC_MSFontService,sans-serif" font-size="73" font-weight="900" transform="translate(2555.08 748)">的教师</text><text font-family="Lantinghei SC,Lantinghei SC_MSFontService,sans-serif" font-size="73" font-weight="900" transform="translate(2768.89 748)">3</text><text font-family="Lantinghei SC,Lantinghei SC_MSFontService,sans-serif" font-size="73" font-weight="900" transform="translate(2821.14 748)">的</text><text font-family="Lantinghei SC,Lantinghei SC_MSFontService,sans-serif" font-size="73" font-weight="900" transform="translate(2892.41 748)">)</text><text font-family="Lantinghei SC,Lantinghei SC_MSFontService,sans-serif" font-size="73" font-weight="900" transform="translate(2920.71 748)">记录</text><text font-family="Lantinghei SC,Lantinghei SC_MSFontService,sans-serif" font-size="73" font-weight="900" transform="translate(2323.05 748)">(</text><text font-family="Lantinghei SC,Lantinghei SC_MSFontService,sans-serif" font-size="73" font-weight="900" transform="translate(2351 748)">系</text><text font-family="Lantinghei SC,Lantinghei SC_MSFontService,sans-serif" font-size="73" font-weight="900" transform="translate(2532.5 860)">(</text><text font-family="Lantinghei SC,Lantinghei SC_MSFontService,sans-serif" font-size="73" font-weight="900" transform="translate(2560.23 860)">系</text><text font-family="Lantinghei SC,Lantinghei SC_MSFontService,sans-serif" font-size="73" font-weight="900" transform="translate(2631.5 860)">2</text><text font-family="Lantinghei SC,Lantinghei SC_MSFontService,sans-serif" font-size="73" font-weight="900" transform="translate(2681.58 860)">的</text><text font-family="Lantinghei SC,Lantinghei SC_MSFontService,sans-serif" font-size="73" font-weight="900" transform="translate(2752.62 860)">)</text><text font-family="Lantinghei SC,Lantinghei SC_MSFontService,sans-serif" font-size="73" font-weight="900" transform="translate(2780.69 860)">记录</text><text font-family="Lantinghei SC,Lantinghei SC_MSFontService,sans-serif" font-size="73" font-weight="900" transform="translate(2514.74 969)">2</text><text font-family="Lantinghei SC,Lantinghei SC_MSFontService,sans-serif" font-size="73" font-weight="900" transform="translate(2564.82 969)">的教师</text><text font-family="Lantinghei SC,Lantinghei SC_MSFontService,sans-serif" font-size="73" font-weight="900" transform="translate(2776.57 969)">5</text><text font-family="Lantinghei SC,Lantinghei SC_MSFontService,sans-serif" font-size="73" font-weight="900" transform="translate(2827.79 969)">的</text><text font-family="Lantinghei SC,Lantinghei SC_MSFontService,sans-serif" font-size="73" font-weight="900" transform="translate(2898.83 969)">)</text><text font-family="Lantinghei SC,Lantinghei SC_MSFontService,sans-serif" font-size="73" font-weight="900" transform="translate(2926.9 969)">记录</text><text font-family="Lantinghei SC,Lantinghei SC_MSFontService,sans-serif" font-size="73" font-weight="900" transform="translate(2327.17 969)">(</text><text font-family="Lantinghei SC,Lantinghei SC_MSFontService,sans-serif" font-size="73" font-weight="900" transform="translate(2355.13 969)">系</text><text font-family="Lantinghei SC,Lantinghei SC_MSFontService,sans-serif" font-size="73" font-weight="900" transform="translate(2510.28 1084)">2</text><text font-family="Lantinghei SC,Lantinghei SC_MSFontService,sans-serif" font-size="73" font-weight="900" transform="translate(2560.35 1084)">的教师</text><text font-family="Lantinghei SC,Lantinghei SC_MSFontService,sans-serif" font-size="73" font-weight="900" transform="translate(2772.1 1084)">8</text><text font-family="Lantinghei SC,Lantinghei SC_MSFontService,sans-serif" font-size="73" font-weight="900" transform="translate(2823.66 1084)">的</text><text font-family="Lantinghei SC,Lantinghei SC_MSFontService,sans-serif" font-size="73" font-weight="900" transform="translate(2894.7 1084)">)</text><text font-family="Lantinghei SC,Lantinghei SC_MSFontService,sans-serif" font-size="73" font-weight="900" transform="translate(2922.78 1084)">记录</text><text font-family="Lantinghei SC,Lantinghei SC_MSFontService,sans-serif" font-size="73" font-weight="900" transform="translate(2326.25 1084)">(</text><text font-family="Lantinghei SC,Lantinghei SC_MSFontService,sans-serif" font-size="73" font-weight="900" transform="translate(2354.21 1084)">系</text><text font-family="Lantinghei SC,Lantinghei SC_MSFontService,sans-serif" font-size="73" font-weight="900" transform="translate(2532.5 1195)">(</text><text font-family="Lantinghei SC,Lantinghei SC_MSFontService,sans-serif" font-size="73" font-weight="900" transform="translate(2560.23 1195)">系</text><text font-family="Lantinghei SC,Lantinghei SC_MSFontService,sans-serif" font-size="73" font-weight="900" transform="translate(2631.5 1195)">4</text><text font-family="Lantinghei SC,Lantinghei SC_MSFontService,sans-serif" font-size="73" font-weight="900" transform="translate(2683.64 1195)">的</text><text font-family="Lantinghei SC,Lantinghei SC_MSFontService,sans-serif" font-size="73" font-weight="900" transform="translate(2754.68 1195)">)</text><text font-family="Lantinghei SC,Lantinghei SC_MSFontService,sans-serif" font-size="73" font-weight="900" transform="translate(2782.75 1195)">记录</text><text font-family="Lantinghei SC,Lantinghei SC_MSFontService,sans-serif" font-size="73" font-weight="900" transform="translate(2518.18 1304)">4</text><text font-family="Lantinghei SC,Lantinghei SC_MSFontService,sans-serif" font-size="73" font-weight="900" transform="translate(2569.86 1304)">的教师</text><text font-family="Lantinghei SC,Lantinghei SC_MSFontService,sans-serif" font-size="73" font-weight="900" transform="translate(2779.55 1304)">6</text><text font-family="Lantinghei SC,Lantinghei SC_MSFontService,sans-serif" font-size="73" font-weight="900" transform="translate(2830.08 1304)">的</text><text font-family="Lantinghei SC,Lantinghei SC_MSFontService,sans-serif" font-size="73" font-weight="900" transform="translate(2900.43 1304)">)</text><text font-family="Lantinghei SC,Lantinghei SC_MSFontService,sans-serif" font-size="73" font-weight="900" transform="translate(2927.82 1304)">记录</text><text font-family="Lantinghei SC,Lantinghei SC_MSFontService,sans-serif" font-size="73" font-weight="900" transform="translate(2327.17 1304)">(</text><text font-family="Lantinghei SC,Lantinghei SC_MSFontService,sans-serif" font-size="73" font-weight="900" transform="translate(2355.13 1304)">系</text><text font-family="Lantinghei SC,Lantinghei SC_MSFontService,sans-serif" font-size="73" font-weight="900" transform="translate(2514.63 1419)">4</text><text font-family="Lantinghei SC,Lantinghei SC_MSFontService,sans-serif" font-size="73" font-weight="900" transform="translate(2566.31 1419)">的教师</text><text font-family="Lantinghei SC,Lantinghei SC_MSFontService,sans-serif" font-size="73" font-weight="900" transform="translate(2775.99 1419)">9</text><text font-family="Lantinghei SC,Lantinghei SC_MSFontService,sans-serif" font-size="73" font-weight="900" transform="translate(2825.95 1419)">的</text><text font-family="Lantinghei SC,Lantinghei SC_MSFontService,sans-serif" font-size="73" font-weight="900" transform="translate(2896.31 1419)">)</text><text font-family="Lantinghei SC,Lantinghei SC_MSFontService,sans-serif" font-size="73" font-weight="900" transform="translate(2923.69 1419)">记录</text><text font-family="Lantinghei SC,Lantinghei SC_MSFontService,sans-serif" font-size="73" font-weight="900" transform="translate(2323.05 1419)">(</text><text font-family="Lantinghei SC,Lantinghei SC_MSFontService,sans-serif" font-size="73" font-weight="900" transform="translate(2351 1419)">系</text><text font-family="Lantinghei SC,Lantinghei SC_MSFontService,sans-serif" font-size="92" font-weight="900" transform="translate(1308.83 1094)">系</text><path fill="none" stroke="#000" stroke-linejoin="round" stroke-miterlimit="10" stroke-width="3.438" d="M1579.98 1161.76v470.14m418-470.14v470.14m-704-338.94h926.98m-926.98-129.48h926.98"/><text font-family="Lantinghei SC,Lantinghei SC_MSFontService,sans-serif" font-size="73" font-weight="900" transform="translate(2112.9 1245)">….</text><text font-family="Lantinghei SC,Lantinghei SC_MSFontService,sans-serif" font-size="73" font-weight="900" transform="translate(1680.58 1245)">系名</text><text font-family="Lantinghei SC,Lantinghei SC_MSFontService,sans-serif" font-size="73" font-weight="900" transform="translate(1329.96 1245)">系编号</text><text font-family="Lantinghei SC,Lantinghei SC_MSFontService,sans-serif" font-size="73" font-weight="900" transform="translate(2128.49 1418)">….</text><text font-family="Lantinghei SC,Lantinghei SC_MSFontService,sans-serif" font-size="73" font-weight="900" transform="translate(1644.6 1418)">计算机</text><text font-family="Lantinghei SC,Lantinghei SC_MSFontService,sans-serif" font-size="73" font-weight="900" transform="translate(1329.96 1418)">系</text><text font-family="Lantinghei SC,Lantinghei SC_MSFontService,sans-serif" font-size="73" font-weight="900" transform="translate(1403.29 1418)">1</text><text font-family="Lantinghei SC,Lantinghei SC_MSFontService,sans-serif" font-size="73" font-weight="900" transform="translate(2114.74 1506)">….</text><text font-family="Lantinghei SC,Lantinghei SC_MSFontService,sans-serif" font-size="73" font-weight="900" transform="translate(1644.6 1506)">自动控制</text><text font-family="Lantinghei SC,Lantinghei SC_MSFontService,sans-serif" font-size="73" font-weight="900" transform="translate(1329.96 1506)">系</text><text font-family="Lantinghei SC,Lantinghei SC_MSFontService,sans-serif" font-size="73" font-weight="900" transform="translate(1398.25 1506)">2</text><text font-family="Lantinghei SC,Lantinghei SC_MSFontService,sans-serif" font-size="73" font-weight="900" transform="translate(2120.47 1598)">….</text><text font-family="Lantinghei SC,Lantinghei SC_MSFontService,sans-serif" font-size="73" font-weight="900" transform="translate(1644.83 1598)">化学</text><text font-family="Lantinghei SC,Lantinghei SC_MSFontService,sans-serif" font-size="73" font-weight="900" transform="translate(1329.96 1598)">系</text><text font-family="Lantinghei SC,Lantinghei SC_MSFontService,sans-serif" font-size="73" font-weight="900" transform="translate(1396.87 1598)">4</text><text font-family="Lantinghei SC,Lantinghei SC_MSFontService,sans-serif" font-size="73" font-weight="900" transform="translate(47.4 558)">教师号</text><path fill="none" stroke="#000" stroke-linejoin="round" stroke-miterlimit="10" stroke-width="3.438" d="M319.5 477.5h419v129h-419z"/><text font-family="Lantinghei SC,Lantinghei SC_MSFontService,sans-serif" font-size="73" font-weight="900" transform="translate(397.753 558)">教师名</text><text font-family="Lantinghei SC,Lantinghei SC_MSFontService,sans-serif" font-size="73" font-weight="900" transform="translate(813.99 558)">系编</text><text font-family="Lantinghei SC,Lantinghei SC_MSFontService,sans-serif" font-size="73" font-weight="900" transform="translate(959.74 558)">号</text><text font-family="Lantinghei SC,Lantinghei SC_MSFontService,sans-serif" font-size="73" font-weight="900" transform="translate(1121.07 558)">….</text><text font-family="Lantinghei SC,Lantinghei SC_MSFontService,sans-serif" font-size="73" font-weight="900" transform="translate(47.4 735)">教师</text><text font-family="Lantinghei SC,Lantinghei SC_MSFontService,sans-serif" font-size="73" font-weight="900" transform="translate(193.609 735)">1</text><text font-family="Lantinghei SC,Lantinghei SC_MSFontService,sans-serif" font-size="73" font-weight="900" transform="translate(47.4 823)">教师</text><text font-family="Lantinghei SC,Lantinghei SC_MSFontService,sans-serif" font-size="73" font-weight="900" transform="translate(187.65 823)">5</text><text font-family="Lantinghei SC,Lantinghei SC_MSFontService,sans-serif" font-size="73" font-weight="900" transform="translate(47.4 911)">教师</text><text font-family="Lantinghei SC,Lantinghei SC_MSFontService,sans-serif" font-size="73" font-weight="900" transform="translate(187.65 911)">8</text><text font-family="Lantinghei SC,Lantinghei SC_MSFontService,sans-serif" font-size="73" font-weight="900" transform="translate(47.4 999)">教师</text><text font-family="Lantinghei SC,Lantinghei SC_MSFontService,sans-serif" font-size="73" font-weight="900" transform="translate(188.109 999)">2</text><text font-family="Lantinghei SC,Lantinghei SC_MSFontService,sans-serif" font-size="73" font-weight="900" transform="translate(47.4 1087)">教师</text><text font-family="Lantinghei SC,Lantinghei SC_MSFontService,sans-serif" font-size="73" font-weight="900" transform="translate(188.109 1087)">9</text><text font-family="Lantinghei SC,Lantinghei SC_MSFontService,sans-serif" font-size="73" font-weight="900" transform="translate(47.4 1175)">教师</text><text font-family="Lantinghei SC,Lantinghei SC_MSFontService,sans-serif" font-size="73" font-weight="900" transform="translate(187.65 1175)">3</text><text font-family="Lantinghei SC,Lantinghei SC_MSFontService,sans-serif" font-size="73" font-weight="900" transform="translate(47.4 1263)">教师</text><text font-family="Lantinghei SC,Lantinghei SC_MSFontService,sans-serif" font-size="73" font-weight="900" transform="translate(187.65 1263)">6</text><text font-family="Lantinghei SC,Lantinghei SC_MSFontService,sans-serif" font-size="73" font-weight="900" transform="translate(413.755 735)">张三</text><text font-family="Lantinghei SC,Lantinghei SC_MSFontService,sans-serif" font-size="73" font-weight="900" transform="translate(413.755 823)">李一</text><text font-family="Lantinghei SC,Lantinghei SC_MSFontService,sans-serif" font-size="73" font-weight="900" transform="translate(413.755 911)">王一</text><text font-family="Lantinghei SC,Lantinghei SC_MSFontService,sans-serif" font-size="73" font-weight="900" transform="translate(413.755 999)">张四</text><text font-family="Lantinghei SC,Lantinghei SC_MSFontService,sans-serif" font-size="73" font-weight="900" transform="translate(413.755 1087)">李二</text><text font-family="Lantinghei SC,Lantinghei SC_MSFontService,sans-serif" font-size="73" font-weight="900" transform="translate(413.755 1175)">王二</text><text font-family="Lantinghei SC,Lantinghei SC_MSFontService,sans-serif" font-size="73" font-weight="900" transform="translate(413.755 1263)">王三</text><text font-family="Lantinghei SC,Lantinghei SC_MSFontService,sans-serif" font-size="73" font-weight="900" transform="translate(843.22 735)">系</text><text font-family="Lantinghei SC,Lantinghei SC_MSFontService,sans-serif" font-size="73" font-weight="900" transform="translate(916.56 735)">1</text><text font-family="Lantinghei SC,Lantinghei SC_MSFontService,sans-serif" font-size="73" font-weight="900" transform="translate(1114.33 735)">….</text><text font-family="Lantinghei SC,Lantinghei SC_MSFontService,sans-serif" font-size="73" font-weight="900" transform="translate(843.22 823)">系</text><text font-family="Lantinghei SC,Lantinghei SC_MSFontService,sans-serif" font-size="73" font-weight="900" transform="translate(916.56 823)">2</text><text font-family="Lantinghei SC,Lantinghei SC_MSFontService,sans-serif" font-size="73" font-weight="900" transform="translate(1114.33 823)">….</text><text font-family="Lantinghei SC,Lantinghei SC_MSFontService,sans-serif" font-size="73" font-weight="900" transform="translate(843.22 911)">系</text><text font-family="Lantinghei SC,Lantinghei SC_MSFontService,sans-serif" font-size="73" font-weight="900" transform="translate(916.56 911)">2</text><text font-family="Lantinghei SC,Lantinghei SC_MSFontService,sans-serif" font-size="73" font-weight="900" transform="translate(1114.33 911)">….</text><text font-family="Lantinghei SC,Lantinghei SC_MSFontService,sans-serif" font-size="73" font-weight="900" transform="translate(843.22 999)">系</text><text font-family="Lantinghei SC,Lantinghei SC_MSFontService,sans-serif" font-size="73" font-weight="900" transform="translate(916.56 999)">1</text><text font-family="Lantinghei SC,Lantinghei SC_MSFontService,sans-serif" font-size="73" font-weight="900" transform="translate(1114.33 999)">….</text><text font-family="Lantinghei SC,Lantinghei SC_MSFontService,sans-serif" font-size="73" font-weight="900" transform="translate(843.22 1087)">系</text><text font-family="Lantinghei SC,Lantinghei SC_MSFontService,sans-serif" font-size="73" font-weight="900" transform="translate(916.56 1087)">4</text><text font-family="Lantinghei SC,Lantinghei SC_MSFontService,sans-serif" font-size="73" font-weight="900" transform="translate(1114.33 1087)">….</text><text font-family="Lantinghei SC,Lantinghei SC_MSFontService,sans-serif" font-size="73" font-weight="900" transform="translate(843.22 1175)">系</text><text font-family="Lantinghei SC,Lantinghei SC_MSFontService,sans-serif" font-size="73" font-weight="900" transform="translate(916.56 1175)">1</text><text font-family="Lantinghei SC,Lantinghei SC_MSFontService,sans-serif" font-size="73" font-weight="900" transform="translate(1114.33 1175)">….</text><text font-family="Lantinghei SC,Lantinghei SC_MSFontService,sans-serif" font-size="73" font-weight="900" transform="translate(843.22 1263)">系</text><text font-family="Lantinghei SC,Lantinghei SC_MSFontService,sans-serif" font-size="73" font-weight="900" transform="translate(916.56 1263)">4</text><text font-family="Lantinghei SC,Lantinghei SC_MSFontService,sans-serif" font-size="73" font-weight="900" transform="translate(1114.33 1263)">….</text><path fill="none" stroke="#000" stroke-linejoin="round" stroke-miterlimit="10" stroke-width="3.438" d="M80.5 477.5h1232.86M95.5 606.5h1231.82M319.5 472.5v796.91m419-795.91v796.91"/><path fill="#33c" fill-rule="evenodd" d="m2212.82 527.621-68.78-34.26v48.009l-6.09.064 5.82-.064h.27v-48.009l-14.03-6.989.09 27.637-12.74.128-14.31.284-17.28.522-19.64.89-18.51 1.132-18.53 1.407-18.55 1.672-18.54 1.921-18.53 2.168-18.52 2.397-18.48 2.621-18.45 2.838-18.4 3.038-18.34 3.231-18.27 3.415-18.2 3.588-18.11 3.749-18.01 3.91-14.3 3.575-18.33 4.665-17.75 5.207-17.25 5.766-16.83 6.347-16.5 6.935-16.25 7.553-16.07 8.181-15.99 8.827-15.97 9.492-16.05 10.175-23.93 15.949.91 1.38-1.74 1.37-18.2 14.382-16.66 4.616-17.61.132-17.13-3.455-14.86-6.05-7.15-4.125-3.85-2.2-3.3-2.475-3.85-2.75-291.06-227.418-12.65-8.8-17.16-8.612-18.33-5.688-9.08-1.649-3.93-.528-.1-.013v20.537l-.68.201.58-.174.1-.027v-20.537l-.1-.014-1.37-.27-1.38.275-1.1.275-3.77 1.063-8.06-20.038-45.94 51.699 45.12 3.772 23.93 2.002-7.23-17.975 1.45.101 3.85.55 20.67 6.59 15.92 8.534 6.88 5.225 290.78 227.144 8.26 6.05 4.12 2.478 4.4 2.75 13.21 6.32 13.48 4.4 17.1 3.43 17.54.24 17.18-3.12 6.54-2.72-1.15 8.27 1.59 18.23 5.21 17.73 8.34 16.51 8.25 11.83 12.61 13.3 13.04 12.84 13.45 12.41 13.79 12.02 14.12 11.69 14.39 11.4 14.62 11.14 14.82 10.93 14.97 10.77 15.09 10.65 45.51 31.68 15.13 10.61 15.03 10.71 14.9 10.86 14.73 11.04 14.52 11.27 14.26 11.55 13.96 11.87 13.63 12.24 13.25 12.64 3.3 2.75 13.47 15.01 8.27 13.59 3.02 6.87.42 1-19.13-2.65 18.99 55.98 3.3 9.74 39.06-57.19-21.18-2.95-.17-.02.17-3.91v-1.37l-.28-1.1-.27-.69v16.36l-19.53-.52 15.95.42 1.65.05 1.65.04.28.01v-16.36l-.28-.69-1.65-4.4-8.91-17.54-13.43-17.6-15.35-14.08-290.78-227.15-3.57-2.75-3.03-2.75-6.05-6.05-5.5-6.05-2.21-3.3-2.47-3.3-3.85-6.59-6.77-14.91-3.48-16.28.68-16.43 5.72-15.358.92-1.659 2.38 3.584 23.93-15.675 15.03-9.643 15.09-9.029 15.21-8.419 15.37-7.819 15.57-7.223 15.82-6.637 16.11-6.054 16.44-5.482 16.84-4.917 17.25-4.35 6.88-1.925 24.56-5.481 17.78-3.676 17.86-3.511 17.93-3.336 18-3.154 18.05-2.961 18.1-2.763 18.13-2.553 18.17-2.338 18.17-2.108 18.2-1.879 18.19-1.631 18.18-1.384 18.17-1.123 18.14-.853 17.28-.55 13.76-.289 13.2-.142h.18l.1 27.358 13.75-6.875z"/><text font-family="DengXian,DengXian_MSFontService,sans-serif" font-size="110" font-weight="700" transform="translate(1326.98 136)">聚簇文件</text><text font-family="DengXian,DengXian_MSFontService,sans-serif" font-size="92" font-weight="700" transform="translate(64.251 401)">教师</text></svg>