<svg xmlns="http://www.w3.org/2000/svg" xml:space="preserve" width="2933" height="2085" overflow="hidden"><path fill="#fff" fill-rule="evenodd" d="M2927.95 1547.95V883H5v664.95z"/><path fill="none" stroke="#000" stroke-linejoin="round" stroke-miterlimit="10" stroke-width="3.438" d="M5.5 883.5v664.95h2922.95V883.5z"/><path fill="#ddd" fill-rule="evenodd" d="M926.86 1381.91V960H197v421.91z"/><path fill="none" stroke="#000" stroke-linejoin="round" stroke-miterlimit="10" stroke-width="3.438" d="M197.5 960.5v421.91h729.86V960.5z"/><path fill="#ddd" fill-rule="evenodd" d="M1859.86 1380.91V960H1130v420.91z"/><path fill="none" stroke="#000" stroke-linejoin="round" stroke-miterlimit="10" stroke-width="3.438" d="M1130.5 959.5v421.95h729.86V959.5z"/><path fill="#ddd" fill-rule="evenodd" d="M2792.86 1380.91V960H2064v420.91z"/><path fill="none" stroke="#000" stroke-linejoin="round" stroke-miterlimit="10" stroke-width="3.438" d="M2064.5 959.5v421.95h728.86V959.5z"/><text font-family="Hiragino Sans GB W3,Hiragino Sans GB W3_MSFontService,sans-serif" font-size="34" font-weight="300" transform="translate(194.11 1076)">•</text><text font-family="Lantinghei SC,Lantinghei SC_MSFontService,sans-serif" font-size="83" font-weight="900" transform="translate(233.069 1076)">属性值</text><text font-family="Lantinghei SC,Lantinghei SC_MSFontService,sans-serif" font-size="83" font-weight="900" transform="translate(474.381 1076)">57</text><text font-family="Lantinghei SC,Lantinghei SC_MSFontService,sans-serif" font-size="83" font-weight="900" transform="translate(588.048 1076)">的记录</text><text font-family="Lantinghei SC,Lantinghei SC_MSFontService,sans-serif" font-size="83" font-weight="900" transform="translate(829.36 1076)">1</text><text font-family="Hiragino Sans GB W3,Hiragino Sans GB W3_MSFontService,sans-serif" font-size="34" font-weight="300" transform="translate(197.41 1273)">•</text><text font-family="Lantinghei SC,Lantinghei SC_MSFontService,sans-serif" font-size="83" font-weight="900" transform="translate(236.369 1273)">属性值</text><text font-family="Lantinghei SC,Lantinghei SC_MSFontService,sans-serif" font-size="83" font-weight="900" transform="translate(472.869 1273)">57</text><text font-family="Lantinghei SC,Lantinghei SC_MSFontService,sans-serif" font-size="83" font-weight="900" transform="translate(584.244 1273)">的记录</text><text font-family="Lantinghei SC,Lantinghei SC_MSFontService,sans-serif" font-size="83" font-weight="900" transform="translate(820.744 1273)">2</text><text font-family="Hiragino Sans GB W3,Hiragino Sans GB W3_MSFontService,sans-serif" font-size="34" font-weight="300" transform="translate(1155.24 1082)">•</text><text font-family="Lantinghei SC,Lantinghei SC_MSFontService,sans-serif" font-size="83" font-weight="900" transform="translate(1194.19 1082)">属性值</text><text font-family="Lantinghei SC,Lantinghei SC_MSFontService,sans-serif" font-size="83" font-weight="900" transform="translate(1430.69 1082)">57</text><text font-family="Lantinghei SC,Lantinghei SC_MSFontService,sans-serif" font-size="83" font-weight="900" transform="translate(1542.07 1082)">的记录</text><text font-family="Lantinghei SC,Lantinghei SC_MSFontService,sans-serif" font-size="83" font-weight="900" transform="translate(1778.57 1082)">3</text><text font-family="Hiragino Sans GB W3,Hiragino Sans GB W3_MSFontService,sans-serif" font-size="34" font-weight="300" transform="translate(1155.24 1268)">•</text><text font-family="Lantinghei SC,Lantinghei SC_MSFontService,sans-serif" font-size="83" font-weight="900" transform="translate(1194.19 1268)">属性值</text><text font-family="Lantinghei SC,Lantinghei SC_MSFontService,sans-serif" font-size="83" font-weight="900" transform="translate(1433.44 1268)">78</text><text font-family="Lantinghei SC,Lantinghei SC_MSFontService,sans-serif" font-size="83" font-weight="900" transform="translate(1546.19 1268)">的记录</text><text font-family="Hiragino Sans GB W3,Hiragino Sans GB W3_MSFontService,sans-serif" font-size="34" font-weight="300" transform="translate(2067.41 1084)">•</text><text font-family="Lantinghei SC,Lantinghei SC_MSFontService,sans-serif" font-size="83" font-weight="900" transform="translate(2106.37 1084)">属性值</text><text font-family="Lantinghei SC,Lantinghei SC_MSFontService,sans-serif" font-size="83" font-weight="900" transform="translate(2345.62 1084)">100</text><text font-family="Lantinghei SC,Lantinghei SC_MSFontService,sans-serif" font-size="83" font-weight="900" transform="translate(2509.02 1084)">的记录</text><text font-family="Hiragino Sans GB W3,Hiragino Sans GB W3_MSFontService,sans-serif" font-size="34" font-weight="300" transform="translate(2060.54 1261)">•</text><text font-family="Lantinghei SC,Lantinghei SC_MSFontService,sans-serif" font-size="83" font-weight="900" transform="translate(2099.5 1261)">属性值</text><text font-family="Lantinghei SC,Lantinghei SC_MSFontService,sans-serif" font-size="83" font-weight="900" transform="translate(2338.75 1261)">106</text><text font-family="Lantinghei SC,Lantinghei SC_MSFontService,sans-serif" font-size="83" font-weight="900" transform="translate(2501.57 1261)">的记录</text><path fill="#fff" fill-rule="evenodd" d="M2836.86 863.91V15H105v848.91z"/><path fill="none" stroke="#000" stroke-linejoin="round" stroke-miterlimit="10" stroke-width="3.438" d="M105.5 15.5v848.91h2730.82V15.5z"/><path fill="#eaeaea" fill-rule="evenodd" d="M1325 451V69H585v382z"/><path fill="none" stroke="#f06" stroke-linejoin="round" stroke-miterlimit="10" stroke-width="4.583" d="M585.5 69.5v381.954h740V69.5zM590.5 257.5h724.86M763.5 253.5v198M953.5 253.5v198M1143.5 253.5v198"/><path fill="#eaeaea" stroke="#f06" stroke-linejoin="round" stroke-miterlimit="10" stroke-width="4.583" d="M585.5 69.5h250v188h-250z"/><text font-family="Lantinghei SC,Lantinghei SC_MSFontService,sans-serif" font-size="110" font-weight="900" transform="translate(639.154 186)">57</text><text font-family="Lantinghei SC,Lantinghei SC_MSFontService,sans-serif" font-size="73" font-weight="900" transform="translate(253.19 625)">指向属性值</text><text font-family="Lantinghei SC,Lantinghei SC_MSFontService,sans-serif" font-size="73" font-weight="900" transform="translate(253.19 713)">为</text><text font-family="Lantinghei SC,Lantinghei SC_MSFontService,sans-serif" font-size="73" font-weight="900" transform="translate(321.71 713)">57</text><text font-family="Lantinghei SC,Lantinghei SC_MSFontService,sans-serif" font-size="73" font-weight="900" transform="translate(418.533 713)">的</text><text fill="#c00" font-family="Lantinghei SC,Lantinghei SC_MSFontService,sans-serif" font-size="73" font-weight="900" transform="translate(486.642 713)">主</text><text fill="#c00" font-family="Lantinghei SC,Lantinghei SC_MSFontService,sans-serif" font-size="73" font-weight="900" transform="translate(253.19 801)">文件记录</text><text font-family="Lantinghei SC,Lantinghei SC_MSFontService,sans-serif" font-size="73" font-weight="900" transform="translate(1138.42 623)">指向属性值</text><text font-family="Lantinghei SC,Lantinghei SC_MSFontService,sans-serif" font-size="73" font-weight="900" transform="translate(1138.42 711)">为</text><text font-family="Lantinghei SC,Lantinghei SC_MSFontService,sans-serif" font-size="73" font-weight="900" transform="translate(1206.94 711)">78</text><text font-family="Lantinghei SC,Lantinghei SC_MSFontService,sans-serif" font-size="73" font-weight="900" transform="translate(1304.33 711)">的</text><text fill="#c00" font-family="Lantinghei SC,Lantinghei SC_MSFontService,sans-serif" font-size="73" font-weight="900" transform="translate(1372.44 711)">主</text><text fill="#c00" font-family="Lantinghei SC,Lantinghei SC_MSFontService,sans-serif" font-size="73" font-weight="900" transform="translate(1138.42 799)">文件记录</text><text font-family="Lantinghei SC,Lantinghei SC_MSFontService,sans-serif" font-size="73" font-weight="900" transform="translate(1468.42 88)">指向按顺</text><text font-family="Lantinghei SC,Lantinghei SC_MSFontService,sans-serif" font-size="73" font-weight="900" transform="translate(1468.42 176)">序的</text><text fill="#c00" font-family="Lantinghei SC,Lantinghei SC_MSFontService,sans-serif" font-size="73" font-weight="900" transform="translate(1615.08 176)">下一</text><text fill="#c00" font-family="Lantinghei SC,Lantinghei SC_MSFontService,sans-serif" font-size="73" font-weight="900" transform="translate(1468.42 264)">个叶结点</text><path fill="#eaeaea" fill-rule="evenodd" d="M2638 454.954V73h-740v381.954z"/><path fill="none" stroke="#f06" stroke-linejoin="round" stroke-miterlimit="10" stroke-width="4.583" d="M1898.5 73.5v381.954h740V73.5zM1903.5 262.5h724.86M2076.5 257.5v197.817M2266.5 257.5v197.817M2456.5 257.5v197.817"/><path fill="#eaeaea" stroke="#f06" stroke-linejoin="round" stroke-miterlimit="10" stroke-width="4.583" d="M1898.5 73.5h250v189h-250z"/><text font-family="Lantinghei SC,Lantinghei SC_MSFontService,sans-serif" font-size="83" font-weight="900" transform="translate(1943.34 194)">100</text><text fill="#33c" font-family="Lantinghei SC,Lantinghei SC_MSFontService,sans-serif" font-size="92" font-weight="900" transform="translate(153.365 118)">索引</text><text fill="#33c" font-family="Lantinghei SC,Lantinghei SC_MSFontService,sans-serif" font-size="92" font-weight="900" transform="translate(153.365 228)">文件</text><text fill="#33c" font-family="Lantinghei SC,Lantinghei SC_MSFontService,sans-serif" font-size="92" font-weight="900" transform="translate(2566.49 1474)">主文件</text><path fill="#c00" fill-rule="evenodd" d="m212.172 1019.83-10.172-.45 10.172 22.94v-22.49"/><path fill="#c00" fill-rule="evenodd" d="m693.305 358.574-3.575-9.625-468.76 174.346-2.199.55-1.375 1.925v386.64l-4.99 107.43v5.05l-.234-.01.234.02v17.95l3.616 8.16 17.045-30.25-10.475-.47 1.952-40.07 3.3-67.81V531.692zM1181.86 1208.58l-9.7 3.47-62.88-174.52.27.76V553.545l-.55-1.375-1.1-.825L881.91 322l-7.42 7.15 224.62 227.671v483.189l.27.55v.55l1.37 3.79 8.53 23.56.27.76 52.95 146.3-9.78 3.51 21.17 20.24 3.85 3.68zM1901.08 361.599l-30.79-15.4v10.45h-618.6v10.175h618.6v10.45l5.22-2.663zM2103.43 1058.98l-11.27-32.72-7.27 7.36-106.83-105.26 1.65 1.62V365.174h-10.44V933.31l.55 1.38 1.1 1.1 7.14 7.02 1.65 1.62 98.07 96.39-7.34 7.44 18.15 5.9zM2752.82 361.049l-30.79-15.4v10.45H2538.1v10.175h183.93v10.45l5.22-2.659zM2921.9 1006.18l-21.99-26.67-4.22 9.44-731.23-323.758 3.03 1.338V377.274h-10.17v294.518l1.1 1.925 1.92.825 4.12 1.824 3.03 1.338 724.03 320.576-4.26 9.55 12.65-.6.55-.03z"/><path fill="#eaeaea" stroke="#f06" stroke-linejoin="round" stroke-miterlimit="10" stroke-width="4.583" d="M2148.5 73.5h252v189h-252z"/><text font-family="Lantinghei SC,Lantinghei SC_MSFontService,sans-serif" font-size="83" font-weight="900" transform="translate(2185.02 190)">120</text><path fill="#eaeaea" stroke="#f06" stroke-linejoin="round" stroke-miterlimit="10" stroke-width="4.583" d="M835.5 69.5h252v188h-252z"/><text font-family="Lantinghei SC,Lantinghei SC_MSFontService,sans-serif" font-size="110" font-weight="900" transform="translate(888.4 182)">78</text><text font-family="SimHei,SimHei_MSFontService,sans-serif" font-size="147" font-weight="400" transform="translate(572.235 1794)">B+</text><text font-family="SimHei,SimHei_MSFontService,sans-serif" font-size="147" font-weight="400" transform="translate(718.902 1794)">树用于非主键、稠密索引</text><text font-family="SimHei,SimHei_MSFontService,sans-serif" font-size="147" font-weight="400" transform="translate(572.235 1970)">索引不重复</text></svg>