<svg xmlns="http://www.w3.org/2000/svg" xml:space="preserve" width="2933" height="1939" overflow="hidden"><path fill="#fff" fill-rule="evenodd" d="M2927.95 1547.95V883H5v664.95z"/><path fill="none" stroke="#000" stroke-linejoin="round" stroke-miterlimit="10" stroke-width="3.438" d="M5.5 883.5v664.95h2922.95V883.5z"/><path fill="#ddd" fill-rule="evenodd" d="M926.86 1381.91V960H197v421.91z"/><path fill="none" stroke="#000" stroke-linejoin="round" stroke-miterlimit="10" stroke-width="3.438" d="M197.5 960.5v421.91h729.86V960.5z"/><path fill="#ddd" fill-rule="evenodd" d="M1859.86 1380.91V959H1130v421.91z"/><path fill="none" stroke="#000" stroke-linejoin="round" stroke-miterlimit="10" stroke-width="3.438" d="M1130.5 959.5v421.95h729.86V959.5z"/><path fill="#ddd" fill-rule="evenodd" d="M2793.86 1380.91V959H2064v421.91z"/><path fill="none" stroke="#000" stroke-linejoin="round" stroke-miterlimit="10" stroke-width="3.438" d="M2064.5 959.5v421.95h729.86V959.5z"/><text font-family="Hiragino Sans GB W3,Hiragino Sans GB W3_MSFontService,sans-serif" font-size="34" font-weight="300" transform="translate(260.469 1075)">•</text><text font-family="Lantinghei SC,Lantinghei SC_MSFontService,sans-serif" font-size="83" font-weight="900" transform="translate(299.427 1075)">键值</text><text font-family="Lantinghei SC,Lantinghei SC_MSFontService,sans-serif" font-size="83" font-weight="900" transform="translate(458.927 1075)">57</text><text font-family="Lantinghei SC,Lantinghei SC_MSFontService,sans-serif" font-size="83" font-weight="900" transform="translate(571.677 1075)">的记录</text><text font-family="Hiragino Sans GB W3,Hiragino Sans GB W3_MSFontService,sans-serif" font-size="34" font-weight="300" transform="translate(263.906 1270)">•</text><text font-family="Lantinghei SC,Lantinghei SC_MSFontService,sans-serif" font-size="83" font-weight="900" transform="translate(302.865 1270)">键值</text><text font-family="Lantinghei SC,Lantinghei SC_MSFontService,sans-serif" font-size="83" font-weight="900" transform="translate(463.74 1270)">81</text><text font-family="Lantinghei SC,Lantinghei SC_MSFontService,sans-serif" font-size="83" font-weight="900" transform="translate(569.271 1270)">的记录</text><text font-family="Hiragino Sans GB W3,Hiragino Sans GB W3_MSFontService,sans-serif" font-size="34" font-weight="300" transform="translate(1219.13 1082)">•</text><text font-family="Lantinghei SC,Lantinghei SC_MSFontService,sans-serif" font-size="83" font-weight="900" transform="translate(1258.09 1082)">键值</text><text font-family="Lantinghei SC,Lantinghei SC_MSFontService,sans-serif" font-size="83" font-weight="900" transform="translate(1417.59 1082)">150</text><text font-family="Lantinghei SC,Lantinghei SC_MSFontService,sans-serif" font-size="83" font-weight="900" transform="translate(1580.41 1082)">的记录</text><text font-family="Hiragino Sans GB W3,Hiragino Sans GB W3_MSFontService,sans-serif" font-size="34" font-weight="300" transform="translate(1219.13 1268)">•</text><text font-family="Lantinghei SC,Lantinghei SC_MSFontService,sans-serif" font-size="83" font-weight="900" transform="translate(1258.09 1268)">键值</text><text font-family="Lantinghei SC,Lantinghei SC_MSFontService,sans-serif" font-size="83" font-weight="900" transform="translate(1415.75 1268)">95</text><text font-family="Lantinghei SC,Lantinghei SC_MSFontService,sans-serif" font-size="83" font-weight="900" transform="translate(1529.99 1268)">的记录</text><text font-family="Hiragino Sans GB W3,Hiragino Sans GB W3_MSFontService,sans-serif" font-size="34" font-weight="300" transform="translate(2101.66 1083)">•</text><text font-family="Lantinghei SC,Lantinghei SC_MSFontService,sans-serif" font-size="83" font-weight="900" transform="translate(2147.49 1083)">键值</text><text font-family="Lantinghei SC,Lantinghei SC_MSFontService,sans-serif" font-size="83" font-weight="900" transform="translate(2306.99 1083)">100</text><text font-family="Lantinghei SC,Lantinghei SC_MSFontService,sans-serif" font-size="83" font-weight="900" transform="translate(2470.39 1083)">的记录</text><text font-family="Hiragino Sans GB W3,Hiragino Sans GB W3_MSFontService,sans-serif" font-size="34" font-weight="300" transform="translate(2101.89 1260)">•</text><text font-family="Lantinghei SC,Lantinghei SC_MSFontService,sans-serif" font-size="83" font-weight="900" transform="translate(2140.84 1260)">键值</text><text font-family="Lantinghei SC,Lantinghei SC_MSFontService,sans-serif" font-size="83" font-weight="900" transform="translate(2300.34 1260)">106</text><text font-family="Lantinghei SC,Lantinghei SC_MSFontService,sans-serif" font-size="83" font-weight="900" transform="translate(2463.17 1260)">的记录</text><path fill="#fff" fill-rule="evenodd" d="M2743.91 863.908V14H267v849.908z"/><path fill="none" stroke="#000" stroke-linejoin="round" stroke-miterlimit="10" stroke-width="3.437" d="M267.5 14.5v849.908h2476.91V14.5z"/><path fill="#eaeaea" fill-rule="evenodd" d="M1325 451V68H585v383z"/><path fill="none" stroke="#f06" stroke-linejoin="round" stroke-miterlimit="10" stroke-width="4.583" d="M585.5 68.5v381.954h740V68.5zM763.5 252.5v198.001M953.5 252.5v198.001M1143.5 252.5v198.001"/><path fill="#eaeaea" stroke="#f06" stroke-linejoin="round" stroke-miterlimit="10" stroke-width="4.583" d="M585.5 68.5h250v189h-250z"/><text font-family="Lantinghei SC,Lantinghei SC_MSFontService,sans-serif" font-size="110" font-weight="900" transform="translate(639.238 186)">57</text><path fill="#eaeaea" stroke="#f06" stroke-linejoin="round" stroke-miterlimit="10" stroke-width="4.583" d="M835.5 68.5h252v189h-252z"/><text font-family="Lantinghei SC,Lantinghei SC_MSFontService,sans-serif" font-size="110" font-weight="900" transform="translate(901.083 183)">81</text><path fill="#eaeaea" stroke="#f06" stroke-linejoin="round" stroke-miterlimit="10" stroke-width="4.583" d="M1087.5 68.5h238v189h-238z"/><text font-family="Lantinghei SC,Lantinghei SC_MSFontService,sans-serif" font-size="110" font-weight="900" transform="translate(1148.68 183)">95</text><text font-family="Lantinghei SC,Lantinghei SC_MSFontService,sans-serif" font-size="73" font-weight="900" transform="translate(758.447 623)">指向键值为</text><text font-family="Lantinghei SC,Lantinghei SC_MSFontService,sans-serif" font-size="73" font-weight="900" transform="translate(758.447 711)">81</text><text font-family="Lantinghei SC,Lantinghei SC_MSFontService,sans-serif" font-size="73" font-weight="900" transform="translate(850.687 711)">的</text><text fill="#c00" font-family="Lantinghei SC,Lantinghei SC_MSFontService,sans-serif" font-size="73" font-weight="900" transform="translate(920.81 711)">主文</text><text fill="#c00" font-family="Lantinghei SC,Lantinghei SC_MSFontService,sans-serif" font-size="73" font-weight="900" transform="translate(758.447 799)">件记录</text><text font-family="Lantinghei SC,Lantinghei SC_MSFontService,sans-serif" font-size="73" font-weight="900" transform="translate(1227.05 630)">指向键值为</text><text font-family="Lantinghei SC,Lantinghei SC_MSFontService,sans-serif" font-size="73" font-weight="900" transform="translate(1227.05 718)">95</text><text font-family="Lantinghei SC,Lantinghei SC_MSFontService,sans-serif" font-size="73" font-weight="900" transform="translate(1322.95 718)">的</text><text fill="#c00" font-family="Lantinghei SC,Lantinghei SC_MSFontService,sans-serif" font-size="73" font-weight="900" transform="translate(1389.41 718)">主文</text><text fill="#c00" font-family="Lantinghei SC,Lantinghei SC_MSFontService,sans-serif" font-size="73" font-weight="900" transform="translate(1227.05 806)">件记录</text><text font-family="Lantinghei SC,Lantinghei SC_MSFontService,sans-serif" font-size="73" font-weight="900" transform="translate(1468.5 88)">指向按顺</text><text font-family="Lantinghei SC,Lantinghei SC_MSFontService,sans-serif" font-size="73" font-weight="900" transform="translate(1468.5 176)">序的</text><text fill="#c00" font-family="Lantinghei SC,Lantinghei SC_MSFontService,sans-serif" font-size="73" font-weight="900" transform="translate(1615.16 176)">下一</text><text fill="#c00" font-family="Lantinghei SC,Lantinghei SC_MSFontService,sans-serif" font-size="73" font-weight="900" transform="translate(1468.5 264)">个叶结点</text><text font-family="Lantinghei SC,Lantinghei SC_MSFontService,sans-serif" font-size="73" font-weight="900" transform="translate(297.823 625)">指向键值为</text><text font-family="Lantinghei SC,Lantinghei SC_MSFontService,sans-serif" font-size="73" font-weight="900" transform="translate(297.823 713)">57</text><text font-family="Lantinghei SC,Lantinghei SC_MSFontService,sans-serif" font-size="73" font-weight="900" transform="translate(386.854 713)">的</text><text fill="#c00" font-family="Lantinghei SC,Lantinghei SC_MSFontService,sans-serif" font-size="73" font-weight="900" transform="translate(460.188 713)">主文</text><text fill="#c00" font-family="Lantinghei SC,Lantinghei SC_MSFontService,sans-serif" font-size="73" font-weight="900" transform="translate(297.823 801)">件记录</text><path fill="#eaeaea" fill-rule="evenodd" d="M2638 454.954V73h-740v381.954z"/><path fill="none" stroke="#f06" stroke-linejoin="round" stroke-miterlimit="10" stroke-width="4.583" d="M1898.5 73.5v381.954h740V73.5zM2076.5 257.5v197.817M2267.5 257.5v197.817M2457.5 257.5v197.817"/><path fill="#eaeaea" stroke="#f06" stroke-linejoin="round" stroke-miterlimit="10" stroke-width="4.583" d="M1898.5 73.5h250v188h-250z"/><text font-family="Lantinghei SC,Lantinghei SC_MSFontService,sans-serif" font-size="83" font-weight="900" transform="translate(1943.42 194)">100</text><path fill="#eaeaea" stroke="#f06" stroke-linejoin="round" stroke-miterlimit="10" stroke-width="4.583" d="M2148.5 73.5h252v188h-252z"/><text font-family="Lantinghei SC,Lantinghei SC_MSFontService,sans-serif" font-size="83" font-weight="900" transform="translate(2205.04 191)">106</text><path fill="#eaeaea" stroke="#f06" stroke-linejoin="round" stroke-miterlimit="10" stroke-width="4.583" d="M2400.5 73.5h238v188h-238z"/><text font-family="Lantinghei SC,Lantinghei SC_MSFontService,sans-serif" font-size="83" font-weight="900" transform="translate(2452.63 191)">150</text><text fill="#33c" font-family="Lantinghei SC,Lantinghei SC_MSFontService,sans-serif" font-size="92" font-weight="900" transform="translate(2317.42 778)">索引文件</text><text fill="#33c" font-family="Lantinghei SC,Lantinghei SC_MSFontService,sans-serif" font-size="92" font-weight="900" transform="translate(2566.57 1474)">主文件</text><path fill="#c00" fill-rule="evenodd" d="m272.899 1042.39-9.899-.44 9.899 22.33v-21.89M693.346 365.605l-4.125-9.627-408.347 178.233-1.925.825-1.375 1.925v395.247l-4.459 110.192v5.33h-.216l.216.01v17.02l3.909 8.82 16.774-30.25-10.243-.46 1.444-35.74 3.024-74.922V542.517zM883.908 343.326 875.659 337 713.145 540.812l-.825 1.1-.55 1.1V965.98l-411.46 264.9-5.687-8.77-17.599 29.71 18.974-2.13 15.399-1.72-5.56-8.57L711.77 978.32l2.475-1.595 5.499-3.534 1.375-.917.275-.183.825-1.651V546.033zM1254.3 1239.06l-10.1 2.59-44.9-176.81V572.952l-.27-1.099-.55-.824L1036.25 338l-8.25 5.771 161.13 231.838v491.701l.82 3.23 44.36 173.65-9.98 2.57 21.17 24.51 1.37 1.59zM1901.56 361.358l-30.79-15.389v10.442H1252.1v10.168h618.67v10.442l5.22-2.661zM2126.76 1057.7l-14.02-31.61-6.54 7.91-127.92-105.734 1.93 1.589V372.35h-10.45v561.412l.82 1.374 1.1 1.099 6.6 5.455 1.93 1.589 119.4 98.701-6.39 7.75 17.05 4.05z"/><path fill="#c00" fill-rule="evenodd" d="M2194.95 353.938h-10.17v788.112l-61.77 81.88-8.35-6.3-6.05 34.07 11.27-5.63 19.53-9.76-8.11-6.12 53.48-70.88.82-1.1 8.25-10.93.82-.82.28-1.1z"/><path fill="#33c" fill-rule="evenodd" d="m1252.01 1049.26-4.29-9.31-21.72 26.95 21.17.67v-16.07z"/><path fill="#33c" fill-rule="evenodd" d="m1256.33 1058.65-4.32-9.39-4.84 2.24 4.39 9.35z"/><path fill="#33c" fill-rule="evenodd" d="m1260.64 1068-4.31-9.35-4.77 2.2-4.39-9.35v16.07z"/><path fill="#33c" fill-rule="evenodd" d="M2351.4 541.375 1252.01 1049.26l4.32 9.39 1092.32-504.624v-7.976z"/><path fill="#33c" fill-rule="evenodd" d="M2358.82 547.975V353h-10.17v189.645l2.75-1.27v11.382l4.39-2.032 1.93-1.1z"/><path fill="#33c" fill-rule="evenodd" d="M2351.4 552.757v-11.382l-2.75 4.675v7.976z"/><text font-family="SimHei,SimHei_MSFontService,sans-serif" font-size="147" font-weight="400" transform="translate(720.742 1825)">B+</text><text font-family="SimHei,SimHei_MSFontService,sans-serif" font-size="147" font-weight="400" transform="translate(867.409 1825)">树用于主键、稠密索引</text></svg>