<svg xmlns="http://www.w3.org/2000/svg" xml:space="preserve" width="2933" height="1851" overflow="hidden"><path fill="#fff" fill-rule="evenodd" d="M2927.95 1547.95V883H5v664.95z"/><path fill="none" stroke="#000" stroke-linejoin="round" stroke-miterlimit="10" stroke-width="3.438" d="M5.5 883.5v664.95h2922.95V883.5z"/><path fill="#ddd" stroke="#000" stroke-linejoin="round" stroke-miterlimit="10" stroke-width="3.438" d="M197.5 960.5h729v422h-729z"/><text font-family="Hiragino Sans GB W3,Hiragino Sans GB W3_MSFontService,sans-serif" font-size="78" font-weight="300" transform="translate(216.633 1075)">•</text><text font-family="Lantinghei SC,Lantinghei SC_MSFontService,sans-serif" font-size="83" font-weight="900" transform="translate(299.133 1075)">键值</text><text font-family="Lantinghei SC,Lantinghei SC_MSFontService,sans-serif" font-size="83" font-weight="900" transform="translate(458.633 1075)">57</text><text font-family="Lantinghei SC,Lantinghei SC_MSFontService,sans-serif" font-size="83" font-weight="900" transform="translate(571.383 1075)">的记录</text><text font-family="Hiragino Sans GB W3,Hiragino Sans GB W3_MSFontService,sans-serif" font-size="78" font-weight="300" transform="translate(220.071 1270)">•</text><text font-family="Lantinghei SC,Lantinghei SC_MSFontService,sans-serif" font-size="83" font-weight="900" transform="translate(302.571 1270)">键值</text><text font-family="Lantinghei SC,Lantinghei SC_MSFontService,sans-serif" font-size="83" font-weight="900" transform="translate(463.446 1270)">81</text><text font-family="Lantinghei SC,Lantinghei SC_MSFontService,sans-serif" font-size="83" font-weight="900" transform="translate(568.977 1270)">的记录</text><path fill="#ddd" stroke="#000" stroke-linejoin="round" stroke-miterlimit="10" stroke-width="3.438" d="M1130.5 959.5h729v422h-729z"/><text font-family="Hiragino Sans GB W3,Hiragino Sans GB W3_MSFontService,sans-serif" font-size="78" font-weight="300" transform="translate(1175.15 1082)">•</text><text font-family="Lantinghei SC,Lantinghei SC_MSFontService,sans-serif" font-size="83" font-weight="900" transform="translate(1257.65 1082)">键值</text><text font-family="Lantinghei SC,Lantinghei SC_MSFontService,sans-serif" font-size="83" font-weight="900" transform="translate(1415.31 1082)">95</text><text font-family="Lantinghei SC,Lantinghei SC_MSFontService,sans-serif" font-size="83" font-weight="900" transform="translate(1529.55 1082)">的记录</text><text font-family="Hiragino Sans GB W3,Hiragino Sans GB W3_MSFontService,sans-serif" font-size="78" font-weight="300" transform="translate(1175.15 1268)">•</text><text font-family="Lantinghei SC,Lantinghei SC_MSFontService,sans-serif" font-size="83" font-weight="900" transform="translate(1257.65 1268)">键值</text><text font-family="Lantinghei SC,Lantinghei SC_MSFontService,sans-serif" font-size="83" font-weight="900" transform="translate(1415.31 1268)">98</text><text font-family="Lantinghei SC,Lantinghei SC_MSFontService,sans-serif" font-size="83" font-weight="900" transform="translate(1529.55 1268)">的记录</text><path fill="#ddd" stroke="#000" stroke-linejoin="round" stroke-miterlimit="10" stroke-width="3.438" d="M2064.5 959.5h729v422h-729z"/><text font-family="Hiragino Sans GB W3,Hiragino Sans GB W3_MSFontService,sans-serif" font-size="71" font-weight="300" transform="translate(2064.81 1083)">•</text><text font-family="Lantinghei SC,Lantinghei SC_MSFontService,sans-serif" font-size="83" font-weight="900" transform="translate(2147.31 1083)">键值</text><text font-family="Lantinghei SC,Lantinghei SC_MSFontService,sans-serif" font-size="83" font-weight="900" transform="translate(2306.81 1083)">100</text><text font-family="Lantinghei SC,Lantinghei SC_MSFontService,sans-serif" font-size="83" font-weight="900" transform="translate(2470.21 1083)">的记录</text><text font-family="Hiragino Sans GB W3,Hiragino Sans GB W3_MSFontService,sans-serif" font-size="71" font-weight="300" transform="translate(2064.81 1260)">•</text><text font-family="Lantinghei SC,Lantinghei SC_MSFontService,sans-serif" font-size="83" font-weight="900" transform="translate(2140.44 1260)">键值</text><text font-family="Lantinghei SC,Lantinghei SC_MSFontService,sans-serif" font-size="83" font-weight="900" transform="translate(2299.94 1260)">106</text><text font-family="Lantinghei SC,Lantinghei SC_MSFontService,sans-serif" font-size="83" font-weight="900" transform="translate(2462.76 1260)">的记录</text><path fill="#fff" fill-rule="evenodd" d="M2836.86 863.908V14H105v849.908z"/><path fill="none" stroke="#000" stroke-linejoin="round" stroke-miterlimit="10" stroke-width="3.438" d="M105.5 14.5v849.908h2730.82V14.5z"/><path fill="#eaeaea" fill-rule="evenodd" d="M1324 451V68H585v383z"/><path fill="none" stroke="#f06" stroke-linejoin="round" stroke-miterlimit="10" stroke-width="4.583" d="M585.5 68.5v381.954h739V68.5zm4 189h725.86m-551.86-5v198m190-198v198m190-198v198"/><path fill="#eaeaea" stroke="#f06" stroke-linejoin="round" stroke-miterlimit="10" stroke-width="4.583" d="M585.5 68.5h249v189h-249z"/><text font-family="Lantinghei SC,Lantinghei SC_MSFontService,sans-serif" font-size="110" font-weight="900" transform="translate(638.988 186)">57</text><path fill="#eaeaea" stroke="#f06" stroke-linejoin="round" stroke-miterlimit="10" stroke-width="4.583" d="M834.5 68.5h253v189h-253z"/><text font-family="Lantinghei SC,Lantinghei SC_MSFontService,sans-serif" font-size="110" font-weight="900" transform="translate(900.833 183)">95</text><text font-family="Lantinghei SC,Lantinghei SC_MSFontService,sans-serif" font-size="73" font-weight="900" transform="translate(297.573 625)">指向键值为</text><text font-family="Lantinghei SC,Lantinghei SC_MSFontService,sans-serif" font-size="73" font-weight="900" transform="translate(297.573 713)">57</text><text font-family="Lantinghei SC,Lantinghei SC_MSFontService,sans-serif" font-size="73" font-weight="900" transform="translate(392.104 713)">的</text><text fill="#c00" font-family="Lantinghei SC,Lantinghei SC_MSFontService,sans-serif" font-size="73" font-weight="900" transform="translate(459.25 713)">主文</text><text fill="#c00" font-family="Lantinghei SC,Lantinghei SC_MSFontService,sans-serif" font-size="73" font-weight="900" transform="translate(297.573 801)">件数据块</text><text font-family="Lantinghei SC,Lantinghei SC_MSFontService,sans-serif" font-size="73" font-weight="900" transform="translate(758.197 623)">指向键值为</text><text font-family="Lantinghei SC,Lantinghei SC_MSFontService,sans-serif" font-size="73" font-weight="900" transform="translate(758.197 711)">95</text><text font-family="Lantinghei SC,Lantinghei SC_MSFontService,sans-serif" font-size="73" font-weight="900" transform="translate(854.103 711)">的</text><text fill="#c00" font-family="Lantinghei SC,Lantinghei SC_MSFontService,sans-serif" font-size="73" font-weight="900" transform="translate(920.56 711)">主文</text><text fill="#c00" font-family="Lantinghei SC,Lantinghei SC_MSFontService,sans-serif" font-size="73" font-weight="900" transform="translate(758.197 799)">件数据块</text><text font-family="Lantinghei SC,Lantinghei SC_MSFontService,sans-serif" font-size="73" font-weight="900" transform="translate(1468.25 88)">指向按顺</text><text font-family="Lantinghei SC,Lantinghei SC_MSFontService,sans-serif" font-size="73" font-weight="900" transform="translate(1468.25 176)">序的</text><text fill="#c00" font-family="Lantinghei SC,Lantinghei SC_MSFontService,sans-serif" font-size="73" font-weight="900" transform="translate(1614.91 176)">下一</text><text fill="#c00" font-family="Lantinghei SC,Lantinghei SC_MSFontService,sans-serif" font-size="73" font-weight="900" transform="translate(1468.25 264)">个叶结点</text><path fill="#eaeaea" fill-rule="evenodd" d="M2638 454.954V73h-740v381.954z"/><path fill="none" stroke="#f06" stroke-linejoin="round" stroke-miterlimit="10" stroke-width="4.583" d="M1898.5 73.5v381.954h740V73.5zm4 188h725.86m-551.86-4v197.817m190-197.817v197.817m190-197.817v197.817"/><path fill="#eaeaea" stroke="#f06" stroke-linejoin="round" stroke-miterlimit="10" stroke-width="4.583" d="M1898.5 73.5h250v188h-250z"/><text font-family="Lantinghei SC,Lantinghei SC_MSFontService,sans-serif" font-size="83" font-weight="900" transform="translate(1943.17 194)">100</text><text fill="#33c" font-family="Lantinghei SC,Lantinghei SC_MSFontService,sans-serif" font-size="92" font-weight="900" transform="translate(153.198 117)">索引</text><text fill="#33c" font-family="Lantinghei SC,Lantinghei SC_MSFontService,sans-serif" font-size="92" font-weight="900" transform="translate(153.198 227)">文件</text><text fill="#33c" font-family="Lantinghei SC,Lantinghei SC_MSFontService,sans-serif" font-size="92" font-weight="900" transform="translate(2566.33 1474)">主文件</text><path fill="#c00" fill-rule="evenodd" d="M273.174 919.85 263 919.31l10.174 22.95zm20.898 1.11-9.624-.51-.853-.05-10.174-.54v5.23h-.247l.247.01v17.72l3.603 8.13z"/><path fill="#c00" fill-rule="evenodd" d="m693.06 357.992-3.575-9.631-408.337 149.41-2.2.826-1.374 1.926v331.839l-4.153 87.498 9.927.53.247.01.853-16.92 3.575-71.118V506.095zm553.25 584.978-4.68-34.39-8.47 5.83-74.84-109.839.82 1.206V483.188l-1.1-1.651-1.65-1.1L872.343 328l-4.675 9.08 281.302 151.23v320.388l.27.826.55.825 1.93 2.82 6.6 9.686.82 1.21 65.55 96.185-8.63 5.94 20.07 11.13zm654.71-581.951-30.8-15.409v10.456h-618.69v10.181h618.69v10.456l5.23-2.665zm225.2 582.511-16.49-30.27-5.83 8.38-126.99-88.178 2.2 1.527V364.596h-10.45v474.645l.83 1.651 1.37 1.1 6.05 4.191 2.2 1.523 118.91 82.394-5.89 8.47 15.95 2.32zm626.67-583.062-30.8-15.408v10.456h-183.96v10.18h183.96v10.456l5.22-2.66zM2922 944.63l-22.55-26.14-4.04 9.53-730.97-304.502 3.03 1.256V353.039h-10.18v277.358l1.1 1.926 1.93.825 4.12 1.715 3.03 1.262 723.87 301.545-3.99 9.43 12.92-.92z"/><path fill="#eaeaea" stroke="#f06" stroke-linejoin="round" stroke-miterlimit="10" stroke-width="4.583" d="M2148.5 73.5h252v188h-252z"/><text font-family="Lantinghei SC,Lantinghei SC_MSFontService,sans-serif" font-size="83" font-weight="900" transform="translate(2184.85 190)">120</text><text font-family="SimHei,SimHei_MSFontService,sans-serif" font-size="147" font-weight="400" transform="translate(655.813 1735)">B+</text><text font-family="SimHei,SimHei_MSFontService,sans-serif" font-size="147" font-weight="400" transform="translate(802.479 1735)">树用于主键、稠密索引</text></svg>