<svg xmlns="http://www.w3.org/2000/svg" xml:space="preserve" width="2933" height="2054" overflow="hidden"><path fill="#fff" fill-rule="evenodd" d="M2927.95 1548.95V883H5v665.95z"/><path fill="none" stroke="#000" stroke-linejoin="round" stroke-miterlimit="10" stroke-width="3.438" d="M5.5 883.5v665.95h2922.95V883.5z"/><path fill="#ddd" fill-rule="evenodd" d="M925.86 1381.91V960H197v421.91z"/><path fill="none" stroke="#000" stroke-linejoin="round" stroke-miterlimit="10" stroke-width="3.438" d="M197.5 960.5v421.91h728.86V960.5z"/><path fill="#ddd" fill-rule="evenodd" d="M1858.86 1380.91V960H1130v420.91z"/><path fill="none" stroke="#000" stroke-linejoin="round" stroke-miterlimit="10" stroke-width="3.438" d="M1130.5 959.5v421.95h728.86V959.5z"/><path fill="#ddd" fill-rule="evenodd" d="M2792.86 1380.91V960H2064v420.91z"/><path fill="none" stroke="#000" stroke-linejoin="round" stroke-miterlimit="10" stroke-width="3.438" d="M2064.5 959.5v421.95h728.86V959.5z"/><text font-family="Hiragino Sans GB W3,Hiragino Sans GB W3_MSFontService,sans-serif" font-size="34" font-weight="300" transform="translate(193.944 1076)">•</text><text font-family="Lantinghei SC,Lantinghei SC_MSFontService,sans-serif" font-size="83" font-weight="900" transform="translate(232.902 1076)">属性值</text><text font-family="Lantinghei SC,Lantinghei SC_MSFontService,sans-serif" font-size="83" font-weight="900" transform="translate(474.215 1076)">57</text><text font-family="Lantinghei SC,Lantinghei SC_MSFontService,sans-serif" font-size="83" font-weight="900" transform="translate(587.881 1076)">的记录</text><text font-family="Lantinghei SC,Lantinghei SC_MSFontService,sans-serif" font-size="83" font-weight="900" transform="translate(829.194 1076)">1</text><text font-family="Hiragino Sans GB W3,Hiragino Sans GB W3_MSFontService,sans-serif" font-size="34" font-weight="300" transform="translate(197.244 1273)">•</text><text font-family="Lantinghei SC,Lantinghei SC_MSFontService,sans-serif" font-size="83" font-weight="900" transform="translate(236.202 1273)">属性值</text><text font-family="Lantinghei SC,Lantinghei SC_MSFontService,sans-serif" font-size="83" font-weight="900" transform="translate(472.702 1273)">57</text><text font-family="Lantinghei SC,Lantinghei SC_MSFontService,sans-serif" font-size="83" font-weight="900" transform="translate(584.077 1273)">的记录</text><text font-family="Lantinghei SC,Lantinghei SC_MSFontService,sans-serif" font-size="83" font-weight="900" transform="translate(820.577 1273)">2</text><text font-family="Hiragino Sans GB W3,Hiragino Sans GB W3_MSFontService,sans-serif" font-size="34" font-weight="300" transform="translate(1155.07 1082)">•</text><text font-family="Lantinghei SC,Lantinghei SC_MSFontService,sans-serif" font-size="83" font-weight="900" transform="translate(1194.03 1082)">属性值</text><text font-family="Lantinghei SC,Lantinghei SC_MSFontService,sans-serif" font-size="83" font-weight="900" transform="translate(1433.28 1082)">89</text><text font-family="Lantinghei SC,Lantinghei SC_MSFontService,sans-serif" font-size="83" font-weight="900" transform="translate(1548.89 1082)">的记录</text><text font-family="Hiragino Sans GB W3,Hiragino Sans GB W3_MSFontService,sans-serif" font-size="34" font-weight="300" transform="translate(1155.07 1268)">•</text><text font-family="Lantinghei SC,Lantinghei SC_MSFontService,sans-serif" font-size="83" font-weight="900" transform="translate(1194.03 1268)">属性值</text><text font-family="Lantinghei SC,Lantinghei SC_MSFontService,sans-serif" font-size="83" font-weight="900" transform="translate(1433.28 1268)">78</text><text font-family="Lantinghei SC,Lantinghei SC_MSFontService,sans-serif" font-size="83" font-weight="900" transform="translate(1546.03 1268)">的记录</text><text font-family="Hiragino Sans GB W3,Hiragino Sans GB W3_MSFontService,sans-serif" font-size="34" font-weight="300" transform="translate(2067.25 1084)">•</text><text font-family="Lantinghei SC,Lantinghei SC_MSFontService,sans-serif" font-size="83" font-weight="900" transform="translate(2106.2 1084)">属性值</text><text font-family="Lantinghei SC,Lantinghei SC_MSFontService,sans-serif" font-size="83" font-weight="900" transform="translate(2345.45 1084)">100</text><text font-family="Lantinghei SC,Lantinghei SC_MSFontService,sans-serif" font-size="83" font-weight="900" transform="translate(2508.85 1084)">的记录</text><text font-family="Hiragino Sans GB W3,Hiragino Sans GB W3_MSFontService,sans-serif" font-size="34" font-weight="300" transform="translate(2060.93 1261)">•</text><text font-family="Lantinghei SC,Lantinghei SC_MSFontService,sans-serif" font-size="83" font-weight="900" transform="translate(2099.89 1261)">属性值</text><text font-family="Lantinghei SC,Lantinghei SC_MSFontService,sans-serif" font-size="83" font-weight="900" transform="translate(2336.39 1261)">57</text><text font-family="Lantinghei SC,Lantinghei SC_MSFontService,sans-serif" font-size="83" font-weight="900" transform="translate(2447.76 1261)">的记录</text><text font-family="Lantinghei SC,Lantinghei SC_MSFontService,sans-serif" font-size="83" font-weight="900" transform="translate(2684.26 1261)">3</text><path fill="#fff" fill-rule="evenodd" d="M2836.86 863.908V15H105v848.908z"/><path fill="none" stroke="#000" stroke-linejoin="round" stroke-miterlimit="10" stroke-width="3.438" d="M105.5 15.5v848.908h2730.82V15.5z"/><path fill="#eaeaea" fill-rule="evenodd" d="M1324 451V69H585v382z"/><path fill="none" stroke="#f06" stroke-linejoin="round" stroke-miterlimit="10" stroke-width="4.583" d="M585.5 69.5v381.954h739V69.5zm178 184v198m190-198v198m190-198v198"/><path fill="#eaeaea" stroke="#f06" stroke-linejoin="round" stroke-miterlimit="10" stroke-width="4.583" d="M585.5 69.5h249v188h-249z"/><text font-family="Lantinghei SC,Lantinghei SC_MSFontService,sans-serif" font-size="110" font-weight="900" transform="translate(638.988 186)">57</text><text font-family="Lantinghei SC,Lantinghei SC_MSFontService,sans-serif" font-size="73" font-weight="900" transform="translate(253.023 625)">指向属性值</text><text font-family="Lantinghei SC,Lantinghei SC_MSFontService,sans-serif" font-size="73" font-weight="900" transform="translate(253.023 713)">为</text><text font-family="Lantinghei SC,Lantinghei SC_MSFontService,sans-serif" font-size="73" font-weight="900" transform="translate(321.544 713)">57</text><text font-family="Lantinghei SC,Lantinghei SC_MSFontService,sans-serif" font-size="73" font-weight="900" transform="translate(418.367 713)">的</text><text fill="#c00" font-family="Lantinghei SC,Lantinghei SC_MSFontService,sans-serif" font-size="73" font-weight="900" transform="translate(486.475 713)">主</text><text fill="#c00" font-family="Lantinghei SC,Lantinghei SC_MSFontService,sans-serif" font-size="73" font-weight="900" transform="translate(253.023 801)">文件记录</text><text font-family="Lantinghei SC,Lantinghei SC_MSFontService,sans-serif" font-size="73" font-weight="900" transform="translate(1483.1 614)">指向属性值</text><text font-family="Lantinghei SC,Lantinghei SC_MSFontService,sans-serif" font-size="73" font-weight="900" transform="translate(1483.1 702)">为</text><text font-family="Lantinghei SC,Lantinghei SC_MSFontService,sans-serif" font-size="73" font-weight="900" transform="translate(1551.62 702)">78</text><text font-family="Lantinghei SC,Lantinghei SC_MSFontService,sans-serif" font-size="73" font-weight="900" transform="translate(1649.01 702)">的</text><text fill="#c00" font-family="Lantinghei SC,Lantinghei SC_MSFontService,sans-serif" font-size="73" font-weight="900" transform="translate(1717.12 702)">主</text><text fill="#c00" font-family="Lantinghei SC,Lantinghei SC_MSFontService,sans-serif" font-size="73" font-weight="900" transform="translate(1483.1 790)">文件记录</text><text font-family="Lantinghei SC,Lantinghei SC_MSFontService,sans-serif" font-size="73" font-weight="900" transform="translate(1468.25 88)">指向按顺</text><text font-family="Lantinghei SC,Lantinghei SC_MSFontService,sans-serif" font-size="73" font-weight="900" transform="translate(1468.25 176)">序的</text><text fill="#c00" font-family="Lantinghei SC,Lantinghei SC_MSFontService,sans-serif" font-size="73" font-weight="900" transform="translate(1614.92 176)">下一</text><text fill="#c00" font-family="Lantinghei SC,Lantinghei SC_MSFontService,sans-serif" font-size="73" font-weight="900" transform="translate(1468.25 264)">个叶结点</text><path fill="#eaeaea" fill-rule="evenodd" d="M2638 454.954V73h-740v381.954z"/><path fill="none" stroke="#f06" stroke-linejoin="round" stroke-miterlimit="10" stroke-width="4.583" d="M1898.5 73.5v381.954h740V73.5zm178 184v198.816m190-198.816v198.816m190-198.816v198.816"/><path fill="#eaeaea" stroke="#f06" stroke-linejoin="round" stroke-miterlimit="10" stroke-width="4.583" d="M1898.5 73.5h250v189h-250z"/><text font-family="Lantinghei SC,Lantinghei SC_MSFontService,sans-serif" font-size="83" font-weight="900" transform="translate(1968.61 194)">78</text><text fill="#33c" font-family="Lantinghei SC,Lantinghei SC_MSFontService,sans-serif" font-size="92" font-weight="900" transform="translate(153.198 118)">索引</text><text fill="#33c" font-family="Lantinghei SC,Lantinghei SC_MSFontService,sans-serif" font-size="92" font-weight="900" transform="translate(153.198 228)">文件</text><text fill="#33c" font-family="Lantinghei SC,Lantinghei SC_MSFontService,sans-serif" font-size="92" font-weight="900" transform="translate(2566.33 1474)">主文件</text><path fill="#c00" fill-rule="evenodd" d="m212.173 1019.5-10.173-.45 10.173 22.94zm481.148-661.154-3.575-9.623-468.775 174.318-2.2.55-1.374 1.925v386.579l-4.991 107.415v5.05l-.233-.01.233.01v17.96l3.616 8.15 17.046-30.24-10.475-.47 1.952-40.06 3.3-67.805V531.436zm169.364-12.372h-10.173v426.918L235.378 1213.98l-5.884-8.24-16.221 30.52 17.871-2.89 16.221-2.61-6.039-8.45 611.186-436.578 2.199-1.571 6.049-4.317 1.1-1.1.825-1.374zm1038.445 15.397-30.79-15.397v10.448h-618.61v10.173h618.61v10.448l5.23-2.663zm200.17 882.309-24.75-24.19-3.18 9.72-1044.62-334.437 3.57 1.141V338h-10.17v563.922l1.38 1.924 2.2.55 3.02.967 3.57 1.146 1037.83 332.541-3.22 9.86 11.27-1.72zm651.6-882.859-30.79-15.397v10.448h-183.94v10.173h183.94v10.448l5.22-2.658z"/><path fill="#33c" fill-rule="evenodd" d="m1225.95 1214.44-5.63-8.45-17.32 29.96 18.69-2.39v-16.3z"/><path fill="#33c" fill-rule="evenodd" d="m1231.57 1222.88-5.62-8.44-4.26 2.82 5.5 8.52z"/><path fill="#33c" fill-rule="evenodd" d="m1237.36 1231.56-5.79-8.68-4.38 2.9-5.5-8.52v16.3z"/><path fill="#33c" fill-rule="evenodd" d="m1974.89 717.266-748.94 497.174 5.62 8.44 741.12-491.531v-9.685z"/><path fill="#33c" fill-rule="evenodd" d="M1982.86 723.313V369h-10.17v349.725l2.2-1.459v12.624l5.77-3.828 1.38-1.1z"/><path fill="#33c" fill-rule="evenodd" d="M1974.89 729.89v-12.624l-2.2 4.398v9.685z"/><path fill="#c00" fill-rule="evenodd" d="m1192.25 1045.33-2.93-9.81-25.32 23.66 23.39 3.96v-16.34z"/><path fill="#c00" fill-rule="evenodd" d="m1195.2 1055.17-2.95-9.84-4.86 1.47 2.76 9.9z"/><path fill="#c00" fill-rule="evenodd" d="m1198.13 1064.95-2.93-9.78-5.05 1.53-2.76-9.9v16.34zm978.13-317.449-984.01 297.829 2.95 9.84 977.48-295.767v-6.951z"/><path fill="#c00" fill-rule="evenodd" d="M2182.86 754.928V361h-10.18v387.583l3.58-1.082v10.819l3.02-.916 2.21-.55z"/><path fill="#c00" fill-rule="evenodd" d="M2176.26 758.32v-10.819l-3.58 4.951v6.951z"/><path fill="#eaeaea" stroke="#f06" stroke-linejoin="round" stroke-miterlimit="10" stroke-width="4.583" d="M2148.5 73.5h252v189h-252z"/><text font-family="Lantinghei SC,Lantinghei SC_MSFontService,sans-serif" font-size="83" font-weight="900" transform="translate(2210.52 190)">89</text><path fill="#eaeaea" stroke="#f06" stroke-linejoin="round" stroke-miterlimit="10" stroke-width="4.583" d="M834.5 69.5h253v188h-253z"/><text font-family="Lantinghei SC,Lantinghei SC_MSFontService,sans-serif" font-size="110" font-weight="900" transform="translate(888.229 182)">57</text><path fill="#eaeaea" stroke="#f06" stroke-linejoin="round" stroke-miterlimit="10" stroke-width="4.583" d="M1087.5 69.5h237v188h-237z"/><text font-family="Lantinghei SC,Lantinghei SC_MSFontService,sans-serif" font-size="110" font-weight="900" transform="translate(1122.53 186)">57</text><path fill="#eaeaea" stroke="#f06" stroke-linejoin="round" stroke-miterlimit="10" stroke-width="4.583" d="M2400.5 73.5h238v189h-238z"/><text font-family="Lantinghei SC,Lantinghei SC_MSFontService,sans-serif" font-size="83" font-weight="900" transform="translate(2439.09 191)">100</text><path fill="#c00" fill-rule="evenodd" d="m2097.85 1020.5-6.94-7.81-12.91 32.22 15.93-4.32v-16.61z"/><path fill="#c00" fill-rule="evenodd" d="m2104.72 1028.21-6.87-7.71-3.92 3.48 6.86 7.71z"/><path fill="#c00" fill-rule="evenodd" d="m2111.5 1035.82-6.78-7.61-3.93 3.48-6.86-7.71v16.61zm229.63-231.29-243.28 215.97 6.87 7.71 236.33-209.809v-11.654z"/><path fill="#c00" fill-rule="evenodd" d="m2342.97 802.892-1.84 1.638-.08 2.217z"/><path fill="#c00" fill-rule="evenodd" d="M2342.97 816.695v-13.803l-1.92 3.855v11.654z"/><path fill="#c00" fill-rule="evenodd" d="M2366.86 353.275 2356.7 353l-15.57 451.53 1.84-1.638v13.803l6.87-6.094.82-.826.83-1.377v-1.376z"/><text font-family="SimHei,SimHei_MSFontService,sans-serif" font-size="147" font-weight="400" transform="translate(605.802 1763)">B+</text><text font-family="SimHei,SimHei_MSFontService,sans-serif" font-size="147" font-weight="400" transform="translate(752.469 1763)">树用于非主键、稠密索引</text><text font-family="SimHei,SimHei_MSFontService,sans-serif" font-size="147" font-weight="400" transform="translate(605.802 1939)">索引重复</text></svg>