<svg xmlns="http://www.w3.org/2000/svg" xml:space="preserve" width="2800" height="1591" overflow="hidden"><path fill="#fff" fill-rule="evenodd" d="M59.409 208.437h323.502v170.766H59.409Z"/><path fill-rule="evenodd" d="M59.409 720.734h323.502V891.5H59.409Zm0 512.296h323.502v170.77H59.409Z"/><path fill="none" stroke="#4472c4" stroke-miterlimit="8" stroke-width="2.292" d="M58.264 379.203h325.793M58.264 549.969h325.793M58.264 720.734h325.793M58.264 891.5h325.793M58.264 1062.27h325.793M58.264 1233.03h325.793M58.264 1403.8h325.793M59.409 207.292V1575.71M382.911 207.292V1575.71M58.264 208.437h325.793M58.264 1574.56h325.793"/><text font-family="DengXian,DengXian_MSFontService,sans-serif" font-size="83" font-weight="400" transform="translate(92.409 302)">记录</text><text font-family="DengXian,DengXian_MSFontService,sans-serif" font-size="83" font-weight="400" transform="translate(257.409 302)">1</text><text font-family="DengXian,DengXian_MSFontService,sans-serif" font-size="83" font-weight="400" transform="translate(92.409 473)">记录</text><text font-family="DengXian,DengXian_MSFontService,sans-serif" font-size="83" font-weight="400" transform="translate(257.409 473)">4</text><text font-family="DengXian,DengXian_MSFontService,sans-serif" font-size="83" font-weight="400" transform="translate(92.409 643)">记录</text><text font-family="DengXian,DengXian_MSFontService,sans-serif" font-size="83" font-weight="400" transform="translate(257.409 643)">2</text><text fill="#fff" font-family="DengXian,DengXian_MSFontService,sans-serif" font-size="83" font-weight="400" transform="translate(92.409 814)">被删除</text><text font-family="DengXian,DengXian_MSFontService,sans-serif" font-size="83" font-weight="400" transform="translate(92.409 985)">记录</text><text font-family="DengXian,DengXian_MSFontService,sans-serif" font-size="83" font-weight="400" transform="translate(257.409 985)">7</text><text font-family="DengXian,DengXian_MSFontService,sans-serif" font-size="83" font-weight="400" transform="translate(92.409 1156)">记录</text><text font-family="DengXian,DengXian_MSFontService,sans-serif" font-size="83" font-weight="400" transform="translate(257.409 1156)">5</text><text fill="#fff" font-family="DengXian,DengXian_MSFontService,sans-serif" font-size="83" font-weight="400" transform="translate(92.409 1327)">被删除</text><text font-family="DengXian,DengXian_MSFontService,sans-serif" font-size="83" font-weight="400" transform="translate(92.409 1497)">记录</text><text font-family="DengXian,DengXian_MSFontService,sans-serif" font-size="83" font-weight="400" transform="translate(257.409 1497)">6</text><path fill="#fff" fill-rule="evenodd" d="M623.333 208.436H946.84v151.792H623.333Z"/><path fill="none" stroke="#4472c4" stroke-miterlimit="8" stroke-width="2.292" d="M622.188 360.228H947.98M622.188 512.02H947.98M622.188 663.811H947.98M622.188 815.603H947.98M622.188 967.39H947.98m-325.792 151.8H947.98m-325.792 151.79H947.98m-325.792 151.79H947.98M623.333 207.29v1368.42M946.84 207.29v1368.42M622.188 208.436H947.98M622.188 1574.56H947.98"/><text font-family="DengXian,DengXian_MSFontService,sans-serif" font-size="83" font-weight="400" transform="translate(656.333 302)">记录</text><text font-family="DengXian,DengXian_MSFontService,sans-serif" font-size="83" font-weight="400" transform="translate(821.333 302)">1</text><text font-family="DengXian,DengXian_MSFontService,sans-serif" font-size="83" font-weight="400" transform="translate(656.333 454)">记录</text><text font-family="DengXian,DengXian_MSFontService,sans-serif" font-size="83" font-weight="400" transform="translate(821.333 454)">2</text><text font-family="DengXian,DengXian_MSFontService,sans-serif" font-size="83" font-weight="400" transform="translate(656.333 606)">记录</text><text font-family="DengXian,DengXian_MSFontService,sans-serif" font-size="83" font-weight="400" transform="translate(821.333 606)">4</text><text font-family="DengXian,DengXian_MSFontService,sans-serif" font-size="83" font-weight="400" transform="translate(656.333 757)">记录</text><text font-family="DengXian,DengXian_MSFontService,sans-serif" font-size="83" font-weight="400" transform="translate(821.333 757)">5</text><text font-family="DengXian,DengXian_MSFontService,sans-serif" font-size="83" font-weight="400" transform="translate(656.333 909)">记录</text><text font-family="DengXian,DengXian_MSFontService,sans-serif" font-size="83" font-weight="400" transform="translate(821.333 909)">6</text><text font-family="DengXian,DengXian_MSFontService,sans-serif" font-size="83" font-weight="400" transform="translate(656.333 1061)">记录</text><text font-family="DengXian,DengXian_MSFontService,sans-serif" font-size="83" font-weight="400" transform="translate(821.333 1061)">7</text><path fill="#fff" fill-rule="evenodd" d="M1303.39 208.436h323.5v151.792h-323.5Z"/><path fill="none" stroke="#4472c4" stroke-miterlimit="8" stroke-width="2.292" d="M1302.25 360.228h325.79M1302.25 512.02h325.79m-325.79 151.791h325.79m-325.79 151.792h325.79M1302.25 967.39h325.79m-325.79 151.8h325.79m-325.79 151.79h325.79m-325.79 151.79h325.79M1303.39 207.29v1368.42m323.5-1368.42v1368.42M1302.25 208.436h325.79M1302.25 1574.56h325.79"/><text font-family="DengXian,DengXian_MSFontService,sans-serif" font-size="83" font-weight="400" transform="translate(1336.39 302)">Hash 1</text><text font-family="DengXian,DengXian_MSFontService,sans-serif" font-size="83" font-weight="400" transform="translate(1336.39 454)">Hash 2</text><text font-family="DengXian,DengXian_MSFontService,sans-serif" font-size="83" font-weight="400" transform="translate(1336.39 606)">Hash 3</text><text font-family="DengXian,DengXian_MSFontService,sans-serif" font-size="83" font-weight="400" transform="translate(1336.39 757)">Hash 4</text><text font-family="DengXian,DengXian_MSFontService,sans-serif" font-size="83" font-weight="400" transform="translate(1336.39 909)">Hash 5</text><text font-family="DengXian,DengXian_MSFontService,sans-serif" font-size="83" font-weight="400" transform="translate(1336.39 1061)">Hash 6</text><text font-family="DengXian,DengXian_MSFontService,sans-serif" font-size="83" font-weight="400" transform="translate(1336.39 1213)">…</text><text font-family="DengXian,DengXian_MSFontService,sans-serif" font-size="83" font-weight="400" transform="translate(1336.39 1364)">…</text><text font-family="DengXian,DengXian_MSFontService,sans-serif" font-size="83" font-weight="400" transform="translate(1336.39 1516)">Hash n</text><path fill="#fff" fill-rule="evenodd" d="M1812.5 604.667c0-95.085 219.83-172.167 491-172.167s491 77.082 491 172.167v688.663c0 95.09-219.83 172.17-491 172.17s-491-77.08-491-172.17Z"/><path fill="none" stroke="#70ad47" stroke-miterlimit="8" stroke-width="4.583" d="M2794.5 604.667c0 95.085-219.83 172.166-491 172.166s-491-77.081-491-172.166"/><path fill="none" stroke="#70ad47" stroke-miterlimit="8" stroke-width="4.583" d="M1812.5 604.667c0-95.085 219.83-172.167 491-172.167s491 77.082 491 172.167v688.663c0 95.09-219.83 172.17-491 172.17s-491-77.08-491-172.17Z"/><path fill="#4472c4" stroke="#172c51" stroke-miterlimit="8" stroke-width="4.583" d="M1888.5 785.5h250v109h-250zm290 0h250v109h-250zm290-2h250v108h-250zm-575 137h250v108h-250zm290 0h250v108h-250zm290-3h250v109h-250zm-580 273h250v109h-250zm290 0h250v109h-250zm290-2h250v109h-250z"/><path fill="#4472c4" d="m1625.854 292.025.247 11.52.733 11.522 1.201 11.474 1.654 11.407 2.092 11.315 2.514 11.201 2.92 11.066 3.314 10.917 7.727 21.242 9.107 20.35 10.359 19.272 11.48 18.003 6.135 8.487 6.364 8.097 6.585 7.693 6.79 7.266 6.981 6.817 7.156 6.346 7.316 5.851 7.462 5.334 7.591 4.794 7.706 4.232 7.807 3.645 7.891 3.036 7.961 2.402 8.013 1.746 8.051 1.064 8.02.358 7.97.356-.099-.009 7.954 1.052-.093-.016 7.923 1.725-.087-.022 7.876 2.377-.08-.028 7.814 3.007-.073-.032 7.736 3.613-.066-.034 7.643 4.197-.061-.036 7.534 4.758-.054-.037 7.409 5.297-.049-.037 7.269 5.814-.044-.038 7.113 6.308-.04-.037 6.942 6.779-.036-.037 6.755 7.229-.033-.038 6.553 7.656-.031-.037 6.335 8.06-.027-.037 6.101 8.442-.037-.055 11.439 17.939-.043-.074 10.319 19.197-.037-.074 9.073 20.275-.031-.077 7.703 21.174-.02-.059 3.299 10.868-.012-.041 2.91 11.025-.01-.042 2.504 11.16-.009-.043 2.084 11.272-.007-.044 1.648 11.362-.008-.069.967 11.515 2.284-.192-.97-11.549-1.656-11.418-2.092-11.315-2.514-11.201-2.92-11.066-3.314-10.917-7.727-21.242-9.107-20.35-10.358-19.271-11.481-18.004-6.135-8.487-6.364-8.097-6.585-7.693-6.79-7.266-6.981-6.817-7.156-6.346-7.316-5.851-7.461-5.334-7.592-4.794-7.706-4.232-7.807-3.645-7.891-3.036-7.96-2.402-8.014-1.746-8.051-1.064-8.02-.358-7.97-.356.099.009-7.954-1.052.094.016-7.924-1.725.087.022-7.876-2.377.08.028-7.814-3.006.073.031-7.736-3.613.067.034-7.643-4.196.06.035-7.534-4.758.055.037-7.41-5.297.049.037-7.269-5.814.045.038-7.114-6.308.04.037-6.942-6.779.037.037-6.756-7.229.034.038-6.553-7.656.03.037-6.335-8.06.028.037-6.102-8.442.038.055-11.44-17.939.043.074-10.319-19.197.037.074-9.073-20.275.031.077-7.703-21.174.02.06-3.299-10.868.012.04-2.91-11.025.01.042-2.504-11.16.009.043-2.084-11.272.007.044-1.648-11.362.006.045-1.197-11.429.004.047-.729-11.474.002.048-.246-11.497Zm326.133 463.911 15.177 26.739 12.285-28.185Zm-326.133 138.091.387 16.47 1.146 16.463 1.88 16.397 2.589 16.3 3.273 16.169 3.934 16.007 4.57 15.813 5.18 15.586 5.768 15.329 6.33 15.038 6.868 14.717 7.381 14.362 7.871 13.976 8.336 13.557 8.777 13.108 9.193 12.625 9.586 12.111 9.953 11.564 10.298 10.986 10.618 10.375 10.913 9.733 11.186 9.057 11.433 8.35 11.657 7.611 11.857 6.838 12.033 6.033 12.184 5.195 12.312 4.325 12.433 3.427 14.591 2.409.373-2.261-14.531-2.399.118.026-12.337-3.4.075.023-12.239-4.299.07.027-12.118-5.167.064.029-11.971-6.002.059.032-11.801-6.806.054.033-11.605-7.576.049.034-11.386-8.316.046.035-11.142-9.022.041.035-10.873-9.697.038.036-10.581-10.339.035.035-10.264-10.949.032.036-9.922-11.528.03.036-9.557-12.074.028.036-9.166-12.588.025.037-8.751-13.07.024.037-8.313-13.52.022.038-7.85-13.938.022.039-7.362-14.324.02.04-6.85-14.677.017.04-6.312-14.998.016.041-5.752-15.287.015.042-5.167-15.544.014.044-4.557-15.77.012.046-3.922-15.962.01.046-3.264-16.122.008.047-2.581-16.25.007.049-1.874-16.347.004.05-1.142-16.411.003.053-.386-16.444Zm238.909 362.077 28.636-11.194-26.136-16.192Zm-238.909-824.087.387 25.417 1.143 25.383 1.877 25.284 2.584 25.134 3.269 24.934 3.927 24.686 4.563 24.388 5.173 24.04 5.759 23.643 6.321 23.197 6.859 22.7 7.371 22.155 7.861 21.56 8.325 20.915 8.766 20.221 9.182 19.478 9.575 18.685 9.942 17.843 10.287 16.951 10.607 16.011 10.904 15.019 11.177 13.98 11.426 12.89 11.653 11.751 11.856 10.562 12.038 9.323 12.195 8.032 12.33 6.691 12.467 5.307 14.742 3.766.568-2.22-14.658-3.745.165.056-12.337-5.252.098.047-12.24-6.641.084.05-12.117-7.981.071.051-11.971-9.272.06.051-11.8-10.512.051.049-11.605-11.704.044.047-11.386-12.844.037.044-11.142-13.936.033.042-10.874-14.978.028.04-10.581-15.97.024.038-10.264-16.914.022.037-9.923-17.807.02.035-9.557-18.65.016.034-9.166-19.445.015.033-8.752-20.189.013.032-8.313-20.883.012.031-7.85-21.529.012.031-7.362-22.124.01.03-6.85-22.67.009.03-6.313-23.166.008.03-5.752-23.613.007.03-5.167-24.01.006.03-4.556-24.357.005.031-3.923-24.655.005.031-3.264-24.903.003.031-2.58-25.101.002.032-1.874-25.25.002.033-1.142-25.35v.034l-.385-25.4Zm238.404 551.817 29.141-9.803-25.327-17.431Z"/><text font-family="DengXian,DengXian_MSFontService,sans-serif" font-size="83" font-weight="400" transform="translate(54.227 106)">无序记录</text><text font-family="DengXian,DengXian_MSFontService,sans-serif" font-size="83" font-weight="400" transform="translate(618.151 106)">有序记录</text><text font-family="DengXian,DengXian_MSFontService,sans-serif" font-size="83" font-weight="400" transform="translate(1600.19 106)">散列文件</text></svg>