<svg xmlns="http://www.w3.org/2000/svg" xml:space="preserve" width="2498" height="1796" overflow="hidden"><path fill="#fff" fill-rule="evenodd" d="M7.5 311.125c0 26.303 85.29 47.626 190.5 47.626s190.5-21.323 190.5-47.626V800.88c0 26.3-85.29 47.62-190.5 47.62S7.5 827.18 7.5 800.88Z"/><path fill="#fff" fill-rule="evenodd" d="M7.5 311.125C7.5 284.823 92.79 263.5 198 263.5s190.5 21.323 190.5 47.625c0 26.303-85.29 47.626-190.5 47.626S7.5 337.428 7.5 311.125"/><path fill="none" stroke="#042433" stroke-miterlimit="8" stroke-width="6.875" d="M388.5 311.125c0 26.303-85.29 47.626-190.5 47.626S7.5 337.428 7.5 311.125 92.79 263.5 198 263.5s190.5 21.323 190.5 47.625V800.88c0 26.3-85.29 47.62-190.5 47.62S7.5 827.18 7.5 800.88V311.125"/><path fill="#156082" stroke="#042433" stroke-miterlimit="8" stroke-width="6.875" d="M86.5 461.5h225v123h-225z"/><text fill="#fff" font-family="DengXian,DengXian_MSFontService,sans-serif" font-size="83" font-weight="400" transform="translate(174.824 550)">R</text><path fill="#156082" stroke="#042433" stroke-miterlimit="8" stroke-width="6.875" d="M86.5 659.5h225v123h-225z"/><text fill="#fff" font-family="DengXian,DengXian_MSFontService,sans-serif" font-size="83" font-weight="400" transform="translate(177.402 748)">S</text><path fill="#fff" stroke="#042433" stroke-miterlimit="8" stroke-width="6.875" d="M494.5 433.5h341v245h-341z"/><text font-family="DengXian,DengXian_MSFontService,sans-serif" font-size="83" font-weight="400" transform="translate(581.88 533)">输入</text><text font-family="DengXian,DengXian_MSFontService,sans-serif" font-size="83" font-weight="400" transform="translate(540.63 632)">缓冲区</text><path fill="#156082" d="m388.5 552.062 82.77.001v6.875l-82.77-.001Zm78.18-10.312 27.5 13.75-27.5 13.75Z"/><path fill="#4ea72e" fill-rule="evenodd" stroke="#1c440d" stroke-miterlimit="8" stroke-width="6.875" d="M1024.5 474.334c0-22.552 18.28-40.834 40.83-40.834h259.34c22.55 0 40.83 18.282 40.83 40.834v163.332c0 22.552-18.28 40.834-40.83 40.834h-259.34c-22.55 0-40.83-18.282-40.83-40.834Z"/><text fill="#fff" font-family="DengXian,DengXian_MSFontService,sans-serif" font-size="83" font-weight="400" transform="translate(1111.82 583)">分组</text><path fill="#fff" stroke="#042433" stroke-miterlimit="8" stroke-width="6.875" d="M1512.5 433.5h341v245h-341z"/><text font-family="DengXian,DengXian_MSFontService,sans-serif" font-size="83" font-weight="400" transform="translate(1600 533)">输出</text><text font-family="DengXian,DengXian_MSFontService,sans-serif" font-size="83" font-weight="400" transform="translate(1558.75 632)">缓冲区</text><path fill="#fff" fill-rule="evenodd" d="M2000.5 311.125c0 26.303 85.29 47.626 190.5 47.626s190.5-21.323 190.5-47.626V800.88c0 26.3-85.29 47.62-190.5 47.62s-190.5-21.32-190.5-47.62Z"/><path fill="#fff" fill-rule="evenodd" d="M2000.5 311.125c0-26.302 85.29-47.625 190.5-47.625s190.5 21.323 190.5 47.625c0 26.303-85.29 47.626-190.5 47.626s-190.5-21.323-190.5-47.626"/><path fill="none" stroke="#042433" stroke-miterlimit="8" stroke-width="6.875" d="M2381.5 311.125c0 26.303-85.29 47.626-190.5 47.626s-190.5-21.323-190.5-47.626S2085.79 263.5 2191 263.5s190.5 21.323 190.5 47.625V800.88c0 26.3-85.29 47.62-190.5 47.62s-190.5-21.32-190.5-47.62V311.125"/><path fill="#156082" stroke="#042433" stroke-miterlimit="8" stroke-width="6.875" d="M2085.5 476.5h235v183h-235z"/><text fill="#fff" font-family="DengXian,DengXian_MSFontService,sans-serif" font-size="83" font-weight="400" transform="translate(2120.17 595)">结果</text><path fill="#156082" d="M835.5 558.938h165.658v-6.876H835.5Zm161.074 10.312 27.5-13.75-27.5-13.75ZM1365.5 552.062l123.9.001v6.875l-123.9-.001Zm119.31-10.312 27.5 13.75-27.5 13.75ZM1853.5 552.062l123.9.001v6.875l-123.9-.001Zm119.31-10.312 27.5 13.75-27.5 13.75Z"/><text font-family="SimHei,SimHei_MSFontService,sans-serif" font-size="110" font-weight="400" transform="translate(971.85 148)">Group</text><text font-family="SimHei,SimHei_MSFontService,sans-serif" font-size="110" font-weight="400" transform="translate(1301.85 148)">By</text><path fill="#156082" d="m1198.05 701.4 1.56 326.59-6.88.03-1.56-326.588Zm-17.17 4.665 13.62-27.565 13.88 27.434Zm29.02 317.285-13.62 27.57-13.88-27.43Z"/><path fill="#fff" stroke="#4ea72e" stroke-miterlimit="8" stroke-width="6.875" d="M534.5 1050.5h265v132h-265zM799.5 1050.5h265v132h-265zM1064.5 1050.5h265v132h-265zM1329.5 1050.5h265v132h-265z"/><path fill="#fff" stroke="#4ea72e" stroke-miterlimit="8" stroke-width="6.875" d="M1590.5 1050.5h265v132h-265z"/><text font-family="DengXian,DengXian_MSFontService,sans-serif" font-size="83" font-weight="400" transform="translate(1058.22 1272)">保存分组和聚集信息</text><text font-family="DengXian,DengXian_MSFontService,sans-serif" font-size="83" font-weight="400" transform="translate(266.84 1276)">M</text><text font-family="DengXian,DengXian_MSFontService,sans-serif" font-size="83" font-weight="400" transform="translate(338.455 1276)">-</text><text font-family="DengXian,DengXian_MSFontService,sans-serif" font-size="83" font-weight="400" transform="translate(379.705 1276)">2</text><text font-family="DengXian,DengXian_MSFontService,sans-serif" font-size="83" font-weight="400" transform="translate(423.25 1276)">个内存页</text><path fill="none" stroke="#156082" stroke-miterlimit="8" stroke-width="6.875" d="M2091.5 1706.5c-45.29 0-82-6.12-82-13.67v-535.06c0-7.55-36.71-13.67-82-13.67 45.29 0 82-6.12 82-13.66V965.17c0-7.55 36.71-13.67 82-13.67"/><path fill="#e97132" stroke="#fff" stroke-miterlimit="8" stroke-width="6.875" d="M2162.5 969.5h325v195h-325z"/><text fill="#fff" font-family="DengXian,DengXian_MSFontService,sans-serif" font-size="60" font-weight="400" transform="translate(2240.13 1045)">Sorted</text><text fill="#fff" font-family="DengXian,DengXian_MSFontService,sans-serif" font-size="60" font-weight="400" transform="translate(2256.5 1117)">Array</text><path fill="#196b24" stroke="#fff" stroke-miterlimit="8" stroke-width="6.875" d="M2162.5 1197.5h325v195h-325z"/><text fill="#fff" font-family="DengXian,DengXian_MSFontService,sans-serif" font-size="60" font-weight="400" transform="translate(2250.04 1309)">B+</text><text fill="#fff" font-family="DengXian,DengXian_MSFontService,sans-serif" font-size="60" font-weight="400" transform="translate(2339.37 1309)">树</text><path fill="#0f9ed5" stroke="#fff" stroke-miterlimit="8" stroke-width="6.875" d="M2162.5 1424.5h325v195h-325z"/><text fill="#fff" font-family="DengXian,DengXian_MSFontService,sans-serif" font-size="60" font-weight="400" transform="translate(2192.67 1537)">Hash</text><text fill="#fff" font-family="DengXian,DengXian_MSFontService,sans-serif" font-size="60" font-weight="400" transform="translate(2337.16 1537)">结构</text></svg>