<svg xmlns="http://www.w3.org/2000/svg" xml:space="preserve" width="3126" height="729" overflow="hidden"><path fill="#fff" fill-rule="evenodd" d="M5.5 188.13c0 26.3 85.29 47.62 190.5 47.62s190.5-21.32 190.5-47.62v489.75c0 26.3-85.29 47.62-190.5 47.62S5.5 704.18 5.5 677.88Z"/><path fill="#fff" fill-rule="evenodd" d="M5.5 188.13c0-26.31 85.29-47.63 190.5-47.63s190.5 21.32 190.5 47.63c0 26.3-85.29 47.62-190.5 47.62S5.5 214.43 5.5 188.13"/><path fill="none" stroke="#042433" stroke-miterlimit="8" stroke-width="6.875" d="M386.5 188.13c0 26.3-85.29 47.62-190.5 47.62S5.5 214.43 5.5 188.13c0-26.31 85.29-47.63 190.5-47.63s190.5 21.32 190.5 47.63v489.75c0 26.3-85.29 47.62-190.5 47.62S5.5 704.18 5.5 677.88V188.13"/><path fill="#156082" stroke="#042433" stroke-miterlimit="8" stroke-width="6.875" d="M84.5 338.5h224v123h-224z"/><text fill="#fff" font-family="DengXian,DengXian_MSFontService,sans-serif" font-size="83" font-weight="400" transform="translate(172.424 427)">R</text><path fill="#156082" stroke="#042433" stroke-miterlimit="8" stroke-width="6.875" d="M84.5 536.5h224v123h-224z"/><text fill="#fff" font-family="DengXian,DengXian_MSFontService,sans-serif" font-size="83" font-weight="400" transform="translate(175.002 625)">S</text><path fill="#fff" stroke="#042433" stroke-miterlimit="8" stroke-width="6.875" d="M491.5 310.5h342v245h-342z"/><text font-family="DengXian,DengXian_MSFontService,sans-serif" font-size="83" font-weight="400" transform="translate(579.48 410)">输入</text><text font-family="DengXian,DengXian_MSFontService,sans-serif" font-size="83" font-weight="400" transform="translate(538.23 509)">缓冲区</text><path fill="#156082" d="M386.5 429.06h82.77v6.88H386.5Zm78.18-10.31 27.5 13.75-27.5 13.75Z"/><path fill="#4ea72e" fill-rule="evenodd" stroke="#1c440d" stroke-miterlimit="8" stroke-width="6.875" d="M936.5 351.33c0-22.55 18.28-40.83 40.83-40.83h259.34c22.55 0 40.83 18.28 40.83 40.83v163.34c0 22.55-18.28 40.83-40.83 40.83H977.33c-22.55 0-40.83-18.28-40.83-40.83Z"/><text fill="#fff" font-family="DengXian,DengXian_MSFontService,sans-serif" font-size="83" font-weight="400" transform="translate(1065.48 410)">积</text><text fill="#fff" font-family="DengXian,DengXian_MSFontService,sans-serif" font-size="83" font-weight="400" transform="translate(1024.23 509)">操作</text><path fill="#4ea72e" fill-rule="evenodd" stroke="#1c440d" stroke-miterlimit="8" stroke-width="6.875" d="M1359.5 346.67c0-23.84 19.33-43.17 43.17-43.17h255.66c23.84 0 43.17 19.33 43.17 43.17v172.66c0 23.84-19.33 43.17-43.17 43.17h-255.66c-23.84 0-43.17-19.33-43.17-43.17Z"/><text fill="#fff" font-family="DengXian,DengXian_MSFontService,sans-serif" font-size="83" font-weight="400" transform="translate(1447.41 410)">选择</text><text fill="#fff" font-family="DengXian,DengXian_MSFontService,sans-serif" font-size="83" font-weight="400" transform="translate(1447.41 509)">操作</text><path fill="#4ea72e" fill-rule="evenodd" stroke="#1c440d" stroke-miterlimit="8" stroke-width="6.875" d="M1806.5 344.83c0-23.93 19.4-43.33 43.33-43.33h255.34c23.93 0 43.33 19.4 43.33 43.33v173.34c0 23.93-19.4 43.33-43.33 43.33h-255.34c-23.93 0-43.33-19.4-43.33-43.33Z"/><text fill="#fff" font-family="DengXian,DengXian_MSFontService,sans-serif" font-size="83" font-weight="400" transform="translate(1894.46 409)">投影</text><text fill="#fff" font-family="DengXian,DengXian_MSFontService,sans-serif" font-size="83" font-weight="400" transform="translate(1894.46 508)">操作</text><path fill="#fff" stroke="#042433" stroke-miterlimit="8" stroke-width="6.875" d="M2253.5 316.5h342v245h-342z"/><text font-family="DengXian,DengXian_MSFontService,sans-serif" font-size="83" font-weight="400" transform="translate(2341.51 416)">输出</text><text font-family="DengXian,DengXian_MSFontService,sans-serif" font-size="83" font-weight="400" transform="translate(2300.26 515)">缓冲区</text><path fill="#fff" fill-rule="evenodd" d="M2742.5 188c0 26.23 85.07 47.5 190 47.5s190-21.27 190-47.5v490c0 26.23-85.07 47.5-190 47.5s-190-21.27-190-47.5Z"/><path fill="#fff" fill-rule="evenodd" d="M2742.5 188c0-26.23 85.07-47.5 190-47.5s190 21.27 190 47.5-85.07 47.5-190 47.5-190-21.27-190-47.5"/><path fill="none" stroke="#042433" stroke-miterlimit="8" stroke-width="6.875" d="M3122.5 188c0 26.23-85.07 47.5-190 47.5s-190-21.27-190-47.5 85.07-47.5 190-47.5 190 21.27 190 47.5v490c0 26.23-85.07 47.5-190 47.5s-190-21.27-190-47.5V188"/><path fill="#156082" stroke="#042433" stroke-miterlimit="8" stroke-width="6.875" d="M2814.5 370.5h235v182h-235z"/><text fill="#fff" font-family="DengXian,DengXian_MSFontService,sans-serif" font-size="83" font-weight="400" transform="translate(2849.41 488)">结果</text><path fill="#156082" d="M833.5 435.938h80.467v-6.876H833.5Zm75.884 10.312 27.5-13.75-27.5-13.75Zm368.116-10.312h58.896v-6.876H1277.5Zm54.313 10.312 27.5-13.75-27.5-13.75Zm369.727-10.073 82.767-.97-.08-6.875-82.767.97Zm78.305 9.395 27.337-14.071-27.66-13.427Zm368.885-17.502 82.82 5.66-.47 6.86-82.81-5.66Zm78.95-4.94 26.5 15.59-28.37 11.84Zm367.96 18.785 123.916-5.047-.279-6.87-123.917 5.047Zm119.757 5.443 26.917-14.858-28.037-12.62Z"/><text font-family="SimHei,SimHei_MSFontService,sans-serif" font-size="110" font-weight="400" transform="translate(1091.17 150)">迭代器</text><text font-family="SimHei,SimHei_MSFontService,sans-serif" font-size="110" font-weight="400" transform="translate(1421.17 150)">-</text><text font-family="SimHei,SimHei_MSFontService,sans-serif" font-size="110" font-weight="400" transform="translate(1476.17 150)">流水线策略</text></svg>