<svg xmlns="http://www.w3.org/2000/svg" xml:space="preserve" width="2493" height="1760" overflow="hidden"><path fill="#fff" fill-rule="evenodd" d="M2.5 267c0 24.576 79.693 44.499 178 44.499s178-19.923 178-44.499v1444c0 24.58-79.693 44.5-178 44.5s-178-19.92-178-44.5Z"/><path fill="#fff" fill-rule="evenodd" d="M2.5 267c0-24.577 79.693-44.5 178-44.5s178 19.923 178 44.5c0 24.576-79.693 44.499-178 44.499S2.5 291.576 2.5 267"/><path fill="none" stroke="#172c51" stroke-miterlimit="8" stroke-width="4.583" d="M358.5 267c0 24.576-79.693 44.499-178 44.499S2.5 291.576 2.5 267s79.693-44.5 178-44.5 178 19.923 178 44.5v1444c0 24.58-79.693 44.5-178 44.5s-178-19.92-178-44.5V267"/><path fill="#4472c4" stroke="#172c51" stroke-miterlimit="8" stroke-width="4.583" d="M77.5 459.5h225v123h-225z"/><text fill="#fff" font-family="DengXian,DengXian_MSFontService,sans-serif" font-size="83" font-weight="400" transform="translate(165.672 548)">R</text><path fill="#4472c4" stroke="#172c51" stroke-miterlimit="8" stroke-width="4.583" d="M60.5 1009.5h224v123h-224z"/><text fill="#fff" font-family="DengXian,DengXian_MSFontService,sans-serif" font-size="83" font-weight="400" transform="translate(150.589 1098)">S</text><path fill="#fff" stroke="#172c51" stroke-miterlimit="8" stroke-width="4.583" d="M489.5 392.5h341v245h-341z"/><text font-family="DengXian,DengXian_MSFontService,sans-serif" font-size="83" font-weight="400" transform="translate(576.88 492)">输入</text><text font-family="DengXian,DengXian_MSFontService,sans-serif" font-size="83" font-weight="400" transform="translate(535.63 591)">缓冲区</text><path fill="#4472c4" d="m302.577 523.115 164.142-5.55-.155-4.58-164.141 5.55Zm159.949 6.057 27.019-14.672-27.949-12.813Z"/><path fill="#70ad47" fill-rule="evenodd" stroke="#2b4719" stroke-miterlimit="8" stroke-width="4.583" d="M961.5 433.334c0-22.552 18.28-40.834 40.83-40.834h379.34c22.55 0 40.83 18.282 40.83 40.834v163.332c0 22.552-18.28 40.834-40.83 40.834h-379.34c-22.55 0-40.83-18.282-40.83-40.834Z"/><text fill="#fff" font-family="DengXian,DengXian_MSFontService,sans-serif" font-size="83" font-weight="400" transform="translate(1026.18 492)">是否符合</text><text fill="#fff" font-family="DengXian,DengXian_MSFontService,sans-serif" font-size="83" font-weight="400" transform="translate(1023.05 591)">JOIN</text><text fill="#fff" font-family="DengXian,DengXian_MSFontService,sans-serif" font-size="83" font-weight="400" transform="translate(1194.35 591)">条件</text><path fill="#fff" stroke="#172c51" stroke-miterlimit="8" stroke-width="4.583" d="M1507.5 392.5h341v245h-341z"/><text font-family="DengXian,DengXian_MSFontService,sans-serif" font-size="83" font-weight="400" transform="translate(1595 492)">输出</text><text font-family="DengXian,DengXian_MSFontService,sans-serif" font-size="83" font-weight="400" transform="translate(1553.75 591)">缓冲区</text><path fill="#fff" fill-rule="evenodd" d="M1995.5 270.125c0 26.303 85.29 47.626 190.5 47.626s190.5-21.323 190.5-47.626V759.88c0 26.3-85.29 47.62-190.5 47.62s-190.5-21.32-190.5-47.62Z"/><path fill="#fff" fill-rule="evenodd" d="M1995.5 270.125c0-26.302 85.29-47.625 190.5-47.625s190.5 21.323 190.5 47.625c0 26.303-85.29 47.626-190.5 47.626s-190.5-21.323-190.5-47.626"/><path fill="none" stroke="#172c51" stroke-miterlimit="8" stroke-width="4.583" d="M2376.5 270.125c0 26.303-85.29 47.626-190.5 47.626s-190.5-21.323-190.5-47.626S2080.79 222.5 2186 222.5s190.5 21.323 190.5 47.625V759.88c0 26.3-85.29 47.62-190.5 47.62s-190.5-21.32-190.5-47.62V270.125"/><path fill="#4472c4" stroke="#172c51" stroke-miterlimit="8" stroke-width="4.583" d="M2080.5 435.5h235v183h-235z"/><text fill="#fff" font-family="DengXian,DengXian_MSFontService,sans-serif" font-size="83" font-weight="400" transform="translate(2115.17 554)">结果</text><path fill="#4472c4" d="M830.5 516.792h107.788v-4.584H830.5Zm103.205 11.458 27.5-13.75-27.5-13.75ZM1422.5 512.208h62.27v4.584h-62.27Zm57.69-11.458 27.5 13.75-27.5 13.75ZM1848.5 512.208h123.9v4.584h-123.9Zm119.31-11.458 27.5 13.75-27.5 13.75Z"/><text font-family="SimHei,SimHei_MSFontService,sans-serif" font-size="110" font-weight="400" transform="translate(1091.61 149)">JOIN</text><path fill="#4472c4" d="m1189.302 660.416-.084 326.587 4.583.001.085-326.587Zm16.04 4.588L1191.6 637.5l-13.757 27.496Zm-27.582 317.412 13.743 27.504 13.757-27.496Z"/><path fill="#fff" stroke="#70ad47" stroke-miterlimit="8" stroke-width="4.583" d="M529.5 1009.5h265v132h-265zM794.5 1009.5h265v132h-265zM1059.5 1009.5h265v132h-265zM1324.5 1009.5h265v132h-265z"/><path fill="#fff" stroke="#70ad47" stroke-miterlimit="8" stroke-width="4.583" d="M1585.5 1009.5h265v132h-265z"/><text font-family="DengXian,DengXian_MSFontService,sans-serif" font-size="83" font-weight="400" transform="translate(1466.41 1280)">S</text><text font-family="DengXian,DengXian_MSFontService,sans-serif" font-size="83" font-weight="400" transform="translate(1508.81 1280)">数据块</text><text font-family="DengXian,DengXian_MSFontService,sans-serif" font-size="83" font-weight="400" transform="translate(517 1271)">M</text><text font-family="DengXian,DengXian_MSFontService,sans-serif" font-size="83" font-weight="400" transform="translate(588.61 1271)">-</text><text font-family="DengXian,DengXian_MSFontService,sans-serif" font-size="83" font-weight="400" transform="translate(629.86 1271)">2</text><text font-family="DengXian,DengXian_MSFontService,sans-serif" font-size="83" font-weight="400" transform="translate(673.41 1271)">个内存页</text><path fill="none" stroke="#4472c4" stroke-miterlimit="8" stroke-width="4.583" d="M2086.5 1665.5c-45.29 0-82-6.12-82-13.67v-535.06c0-7.55-36.71-13.67-82-13.67 45.29 0 82-6.12 82-13.66V924.17c0-7.55 36.71-13.67 82-13.67"/><path fill="#ed7d31" stroke="#fff" stroke-miterlimit="8" stroke-width="4.583" d="M2157.5 928.5h325v195h-325z"/><text fill="#fff" font-family="DengXian,DengXian_MSFontService,sans-serif" font-size="60" font-weight="400" transform="translate(2235.13 1004)">Sorted</text><text fill="#fff" font-family="DengXian,DengXian_MSFontService,sans-serif" font-size="60" font-weight="400" transform="translate(2251.5 1076)">Array</text><path fill="#a5a5a5" stroke="#fff" stroke-miterlimit="8" stroke-width="4.583" d="M2157.5 1156.5h325v195h-325z"/><text fill="#fff" font-family="DengXian,DengXian_MSFontService,sans-serif" font-size="60" font-weight="400" transform="translate(2245.04 1268)">B+</text><text fill="#fff" font-family="DengXian,DengXian_MSFontService,sans-serif" font-size="60" font-weight="400" transform="translate(2334.37 1268)">树</text><path fill="#ffc000" stroke="#fff" stroke-miterlimit="8" stroke-width="4.583" d="M2157.5 1383.5h325v195h-325z"/><text fill="#fff" font-family="DengXian,DengXian_MSFontService,sans-serif" font-size="60" font-weight="400" transform="translate(2187.67 1496)">Hash</text><text fill="#fff" font-family="DengXian,DengXian_MSFontService,sans-serif" font-size="60" font-weight="400" transform="translate(2332.16 1496)">结构</text></svg>