<svg xmlns="http://www.w3.org/2000/svg" xml:space="preserve" width="1343" height="1330" overflow="hidden"><path fill-rule="evenodd" d="m270.862 997.64-52.85-317.148-.499-.998-.997-.249h-93.02l-.997.498-.499.998.499 1.247.997.25h91.524v-1.247l1.496 1.247v7.732l52.619 315.76v-.5z"/><path fill-rule="evenodd" d="m216.516 682.238-1.496-1.247.207 1.247z"/><path fill-rule="evenodd" d="m215.227 682.238-.207-1.247v1.247zM216.516 689.97v-7.732h-1.289zM272.128 1005.23l-1.266-7.59-1.727 7.59zM272.128 1005.98v-.75h-2.993v.5l.499 1 .998.25.997-.25z"/><path fill-rule="evenodd" d="m436.439 997.75-89.995-319.503-.748-.748-.998-.499-.748.499-.499.748-72.589 319.393 1.266 7.59v.75l71.323-313.818v-13.167h2.993v10.624L433.728 999.5l.499.99.997.25v-2.99z"/><path fill-rule="evenodd" d="M346.444 678.995h-2.993l1.656 5.88z"/><path fill-rule="evenodd" d="m345.107 684.875-1.656-5.88v13.167zM346.444 689.619v-10.624l-1.337 5.88zM436.72 998.75l-.281-1h-1.215z"/><path fill-rule="evenodd" d="M436.72 1000.74v-1.99l-1.496-1v2.99z"/><path fill-rule="evenodd" d="M606.8 1000.74v-2.99l-1.5 2-.6-2H436.439l.281 1v1.99zM823.26 678.995l-.25-1.247-1.24-.748H510.04l-1.25.748-.25 1.497 1.5 4.956v-3.959l1.5-1.995.6 1.995h307.91l.22-1.746 1.5 1.746v10.623z"/><path fill-rule="evenodd" d="m512.14 680.242-.6-1.995-1.5 1.995zM608.3 998.75l-96.16-318.508h-2.1v3.959L604.7 997.75h2.1v2.99l1.25-.49z"/><path fill-rule="evenodd" d="M606.8 997.75h-2.1l.6 2zM821.77 690.865v-10.623h-1.72L779.62 999l.5 1.25 1.25.49v-2.99h1.71z"/><path fill-rule="evenodd" d="M783.08 997.75h-1.71l1.49 1.75z"/><path fill-rule="evenodd" d="M932.64 997.75H783.08l-.22 1.75-1.49-1.75v2.99h151.12V999zM821.77 680.242l-1.5-1.746-.22 1.746z"/><path fill-rule="evenodd" d="M933.99 997.75h-1.35l-.15 1.25z"/><path fill-rule="evenodd" d="M933.99 1000.74v-2.99l-1.5 1.25v1.74z"/><path fill-rule="evenodd" d="m1144.47 682.986-.5-.998-1-.748-170.08-4.203-1.49-.037-1 .499-.5.997-37.26 319.254h1.35v2.99l1-.25.5-.99 35.91-307.924v-11.334l1.49-1.496v1.533l168.14 4.155.2-1.697 1.74 1.745v11.324z"/><path fill-rule="evenodd" d="m972.89 678.746-1.49 1.496 1.31.033z"/><path fill-rule="evenodd" d="m972.71 680.275-1.31-.033v11.334zM972.89 680.279v-1.533l-.18 1.529zM1142.97 695.806v-11.324l-1.74-.043-.2-.005-37.21 318.806.5 1.25 1.24.49v-3.24h1.7z"/><path fill-rule="evenodd" d="M1107.26 1001.74h-1.7l1.5 1.75z"/><path fill-rule="evenodd" d="m1229.76 1003.49-.5-1.25-1.25-.5h-120.75l-.2 1.75-1.5-1.75v3.24h122.45l1.25-.49zM1142.97 684.482l-1.74-1.745-.2 1.697z"/><path fill-rule="evenodd" d="m1248.96 1003.49-24.94-12.47v10.72h3.99l1.25.5.5 1.25v9.6z"/><path fill-rule="evenodd" d="M1229.76 1013.09v-9.6l-.5 1-1.25.49h-3.99v10.98z"/><path fill="none" stroke="#c00" stroke-dasharray="30.9375 10.3125" stroke-linecap="square" stroke-linejoin="round" stroke-miterlimit="10" stroke-width="10.313" d="m681.59 475-12.72.48-12.55 1.425-12.35 2.345-12.15 3.242-11.93 4.115-11.69 4.963-11.44 5.788-11.17 6.59-10.87 7.366-10.57 8.12-10.25 8.849-9.91 9.554-9.56 10.236-9.18 10.894-8.8 11.527-8.39 12.137-7.98 12.723-7.53 13.285-7.079 13.822-6.609 14.337-6.12 14.828-5.617 15.293-5.096 15.737-4.559 16.154-4.005 16.549-3.434 16.921-2.847 17.266-2.243 17.59-1.623 17.889-.986 18.164-.332 18.415.332 18.391.986 18.143 1.623 17.868 2.243 17.571 2.847 17.249 3.434 16.904 4.005 16.534 4.559 16.136 5.096 15.73 5.617 15.28 6.12 14.82 6.609 14.32 7.079 13.82 7.53 13.28 7.98 12.71 8.39 12.13 8.8 11.52 9.18 10.89 9.56 10.24 9.91 9.55 10.25 8.84 10.57 8.12 10.87 7.37 11.17 6.58 11.44 5.79 11.69 4.96 11.93 4.12 12.15 3.24 12.35 2.34 12.55 1.43 12.72.48 12.71-.48 12.55-1.43 12.35-2.34 12.15-3.24 11.92-4.12 11.68-4.96 11.43-5.79 11.16-6.58 10.86-7.37 10.56-8.12 10.24-8.84 9.9-9.55 9.54-10.24 9.18-10.89 8.78-11.52 8.38-12.13 7.96-12.71 7.52-13.28 7.07-13.82 6.6-14.32 6.11-14.82 5.6-15.28 5.09-15.73 4.55-16.136 4-16.534 3.42-16.904 2.84-17.249 2.24-17.571 1.62-17.868.99-18.143.33-18.391-.33-18.415-.99-18.164-1.62-17.889-2.24-17.59-2.84-17.266-3.42-16.921-4-16.549-4.55-16.154-5.09-15.737-5.6-15.293-6.11-14.828-6.6-14.337-7.07-13.822-7.52-13.285-7.96-12.723-8.38-12.137-8.78-11.527-9.18-10.894-9.54-10.236-9.9-9.554-10.24-8.849-10.56-8.12-10.86-7.366-11.16-6.59-11.43-5.788-11.68-4.963-11.92-4.115-12.15-3.242-12.35-2.345-12.55-1.425z"/><path fill="none" stroke="#c00" stroke-dasharray="10.3125 10.3125" stroke-linejoin="round" stroke-miterlimit="10" stroke-width="10.313" d="m1193.75 502.042-6.27-1.73-6.73-.312-7.15 1.068-15.46 6.122-16.81 11.178-17.92 15.926-9.3 9.646-9.48 10.717-9.65 11.749-9.77 12.743-9.87 13.697-9.94 14.613-9.98 15.491-9.99 16.329-9.97 17.129-9.92 17.891-9.84 18.613-9.73 19.298-9.59 19.942-9.43 20.549-9.22 21.118-9 21.646-8.6 21.803-8.08 21.58-7.54 21.309-6.99 20.99-6.45 20.622-5.89 20.208-5.34 19.743-4.76 19.23-4.2 18.67-3.62 18.07-3.03 17.4-2.45 16.71-1.85 15.95-1.25 15.15-.65 14.3-.03 13.4.58 12.46 3.05 21.89 5.58 17.53 8.16 12.79 10.8 7.66 13 2.04 7.15-1.07 15.46-6.12 16.81-11.18 17.92-15.92 9.29-9.65 9.49-10.72 9.65-11.74 9.77-12.75 9.87-13.69 9.94-14.62 9.98-15.49 9.99-16.33 9.97-17.13 9.92-17.89 9.84-18.61 9.73-19.298 9.59-19.943 9.42-20.549 9.23-21.117 8.99-21.647 8.61-21.804 8.08-21.583 7.54-21.314 6.99-20.996 6.45-20.631 5.89-20.216 5.34-19.753 4.76-19.241 4.2-18.682 3.62-18.073 3.03-17.417 2.45-16.711 1.85-15.958 1.25-15.156.65-14.306.03-13.407-.58-12.459-3.05-21.882-5.58-17.513-8.16-12.754z"/><path fill="none" stroke="#000" stroke-linejoin="round" stroke-miterlimit="10" stroke-width="3.438" d="M691.83 456.5 53.5 656.5h1276.92z"/><path fill="none" stroke="#000" stroke-linejoin="round" stroke-miterlimit="10" stroke-width="3.437" d="M700.58 1197.42 61.5 1025.5h1277.92z"/><text fill="#33c" font-family="Arial,Arial_MSFontService,sans-serif" font-size="133" font-weight="700" transform="translate(175.838 511)">R</text><text fill="#c00" font-family="Arial,Arial_MSFontService,sans-serif" font-size="100" font-weight="700" transform="translate(322.619 506)">a</text><text font-family="Arial,Arial_MSFontService,sans-serif" font-size="116" font-weight="700" transform="translate(145.359 642)">1</text><text font-family="Arial,Arial_MSFontService,sans-serif" font-size="116" font-weight="700" transform="translate(306.692 642)">3</text><text font-family="Arial,Arial_MSFontService,sans-serif" font-size="116" font-weight="700" transform="translate(468.484 642)">4</text><text font-family="Arial,Arial_MSFontService,sans-serif" font-size="116" font-weight="700" transform="translate(630.05 642)">4</text><text font-family="Arial,Arial_MSFontService,sans-serif" font-size="116" font-weight="700" transform="translate(791.84 642)">4</text><text font-family="Arial,Arial_MSFontService,sans-serif" font-size="116" font-weight="700" transform="translate(953.4 642)">5</text><text font-family="Arial,Arial_MSFontService,sans-serif" font-size="116" font-weight="700" transform="translate(1115.19 642)">6</text><text font-family="Lantinghei SC,Lantinghei SC_MSFontService,sans-serif" font-size="58" font-weight="900" transform="translate(39.254 742)">B+Tree</text><text font-family="Lantinghei SC,Lantinghei SC_MSFontService,sans-serif" font-size="58" font-weight="900" transform="translate(263.127 742)">索引</text><text font-family="Lantinghei SC,Lantinghei SC_MSFontService,sans-serif" font-size="58" font-weight="900" transform="translate(42.847 975)">B+Tree</text><text font-family="Lantinghei SC,Lantinghei SC_MSFontService,sans-serif" font-size="58" font-weight="900" transform="translate(266.72 975)">索引</text><text font-family="Arial,Arial_MSFontService,sans-serif" font-size="116" font-weight="700" transform="translate(247.263 1117)">2</text><text font-family="Arial,Arial_MSFontService,sans-serif" font-size="116" font-weight="700" transform="translate(408.597 1117)">2</text><text font-family="Arial,Arial_MSFontService,sans-serif" font-size="116" font-weight="700" transform="translate(570.39 1117)">4</text><text font-family="Arial,Arial_MSFontService,sans-serif" font-size="116" font-weight="700" transform="translate(731.95 1117)">4</text><text font-family="Arial,Arial_MSFontService,sans-serif" font-size="116" font-weight="700" transform="translate(893.51 1117)">6</text><text font-family="Arial,Arial_MSFontService,sans-serif" font-size="116" font-weight="700" transform="translate(1055.08 1117)">7</text><text fill="#33c" font-family="Arial,Arial_MSFontService,sans-serif" font-size="133" font-weight="700" transform="translate(174.159 1219)">S</text><text fill="#c00" font-family="Arial,Arial_MSFontService,sans-serif" font-size="100" font-weight="700" transform="translate(319.222 1228)">b</text><text font-family="SimHei,SimHei_MSFontService,sans-serif" font-size="110" font-weight="400" transform="translate(571.58 150)">JOIN</text><text font-family="SimHei,SimHei_MSFontService,sans-serif" font-size="110" font-weight="400" transform="translate(379.077 282)">Zig</text><text font-family="SimHei,SimHei_MSFontService,sans-serif" font-size="110" font-weight="400" transform="translate(544.08 282)">-</text><text font-family="SimHei,SimHei_MSFontService,sans-serif" font-size="110" font-weight="400" transform="translate(599.08 282)">Zag</text><text font-family="SimHei,SimHei_MSFontService,sans-serif" font-size="110" font-weight="400" transform="translate(764.08 282)">算法</text></svg>