<svg xmlns="http://www.w3.org/2000/svg" xml:space="preserve" width="2883" height="1916" overflow="hidden"><path fill="none" stroke="#000" stroke-dasharray="27.4989 9.16631" stroke-linecap="square" stroke-linejoin="round" stroke-miterlimit="10" stroke-width="9.166" d="m1026.5 919.5 1669.92.8"/><text font-family="Lantinghei SC,Lantinghei SC_MSFontService,sans-serif" font-size="67" font-weight="900" transform="translate(1012.46 1051)">子集合关系</text><text font-family="Lantinghei SC,Lantinghei SC_MSFontService,sans-serif" font-size="67" font-weight="900" transform="translate(1663.76 1111)">子集合</text><text font-family="Lantinghei SC,Lantinghei SC_MSFontService,sans-serif" font-size="67" font-weight="900" transform="translate(1853.78 1111)">R</text><text font-family="Lantinghei SC,Lantinghei SC_MSFontService,sans-serif" font-size="46" font-weight="900" transform="translate(1908.78 1124)">i</text><text font-family="Lantinghei SC,Lantinghei SC_MSFontService,sans-serif" font-size="67" font-weight="900" transform="translate(1941.74 1111)">(&lt;=M</text><text font-family="Lantinghei SC,Lantinghei SC_MSFontService,sans-serif" font-size="67" font-weight="900" transform="translate(2129.08 1111)">块</text><text font-family="Lantinghei SC,Lantinghei SC_MSFontService,sans-serif" font-size="67" font-weight="900" transform="translate(2194.49 1111)">)</text><text font-family="Lantinghei SC,Lantinghei SC_MSFontService,sans-serif" font-size="67" font-weight="900" transform="translate(1780.86 1191)">的散列结构</text><path fill="#f6bf69" fill-rule="evenodd" d="M1730.92 1355.92V1276H1656v79.92z"/><path fill="none" stroke="#000" stroke-linejoin="round" stroke-miterlimit="10" stroke-width="4.583" d="M1656.5 1356.42v-79.92h74.92v79.92z"/><path fill="#f6bf69" fill-rule="evenodd" d="M1836 1359.92V1279h-75v80.92z"/><path fill="none" stroke="#000" stroke-linejoin="round" stroke-miterlimit="10" stroke-width="4.583" d="M1761.5 1360.42v-80.92h75v80.92z"/><path fill="#f6bf69" fill-rule="evenodd" d="M2182.92 1359.92V1279H2108v80.92z"/><path fill="none" stroke="#000" stroke-linejoin="round" stroke-miterlimit="10" stroke-width="4.583" d="M2108.5 1360.42v-80.92h74.92v80.92z"/><path fill="#f6bf69" fill-rule="evenodd" d="m1938 1322.85-6.48-9.85-5.52 9.85 5.52 9.06z"/><path fill="none" stroke="#000" stroke-linejoin="round" stroke-miterlimit="10" stroke-width="4.583" d="m1938.5 1323.35-6.48-9.85-5.52 9.85 5.52 9.06 6.48-9.06"/><path fill="#f6bf69" fill-rule="evenodd" d="m1980.92 1322.85-6.21-9.85-5.71 9.85 5.71 9.06z"/><path fill="none" stroke="#000" stroke-linejoin="round" stroke-miterlimit="10" stroke-width="4.583" d="m1981.42 1323.35-6.21-9.85-5.71 9.85 5.71 9.06 6.21-9.06"/><path fill="#f6bf69" fill-rule="evenodd" d="m2028 1322.85-7.02-9.85-5.98 9.85 5.98 9.06z"/><path fill="none" stroke="#000" stroke-linejoin="round" stroke-miterlimit="10" stroke-width="4.583" d="m2028.5 1323.35-7.02-9.85-5.98 9.85 5.98 9.06 7.02-9.06"/><path fill="none" stroke="#000" stroke-linejoin="round" stroke-miterlimit="10" stroke-width="4.583" d="M1641.5 1723.38V1251.5h572.96v471.88z"/><path fill="none" stroke="#000" stroke-linejoin="round" stroke-miterlimit="10" stroke-width="4.583" d="M1547.5 1750.5v-724h792.88v724z"/><text font-family="Lantinghei SC,Lantinghei SC_MSFontService,sans-serif" font-size="75" font-weight="900" transform="translate(1875.78 1824)">内存</text><text font-family="Lantinghei SC,Lantinghei SC_MSFontService,sans-serif" font-size="75" font-weight="900" transform="translate(1107.47 1843)">磁盘</text><text font-family="Lantinghei SC,Lantinghei SC_MSFontService,sans-serif" font-size="75" font-weight="900" transform="translate(2434.87 1182)">结果</text><text font-family="Lantinghei SC,Lantinghei SC_MSFontService,sans-serif" font-size="67" font-weight="900" transform="translate(1374.49 1249)">散列</text><text font-family="Lantinghei SC,Lantinghei SC_MSFontService,sans-serif" font-size="67" font-weight="900" transform="translate(1374.49 1329)">计算</text><text fill="#3365fb" font-family="Lantinghei SC,Lantinghei SC_MSFontService,sans-serif" font-size="75" font-weight="900" transform="translate(1392.13 1448)">h</text><text fill="#3365fb" font-family="Lantinghei SC,Lantinghei SC_MSFontService,sans-serif" font-size="50" font-weight="900" transform="translate(1445.51 1464)">r</text><path fill="none" stroke="#000" stroke-linejoin="round" stroke-miterlimit="10" stroke-width="4.583" d="m1164.04 1104.5-25.52.24-24.34.71-22.92 1.14-21.21 1.52-19.25 1.89-17.01 2.21-14.52 2.49-20.47 5.71-7.3 6.43 1.87 3.34 14.15 6.2 26.27 5.29 17.01 2.23 19.25 1.89 21.21 1.54 22.92 1.14 24.34.7 25.52.25 25.46-.25 24.29-.7 22.88-1.14 21.18-1.54 19.22-1.89 17-2.23 14.5-2.52 20.47-5.77 7.29-6.54-1.87-3.29-14.14-6.1-26.25-5.24-17-2.21-19.22-1.89-21.18-1.52-22.88-1.14-24.29-.71zm-174.54 23v597.92m349-597.92v597.92m-2.08 1.08v1.26l-1.6 5.36-12.11 10.05-22.65 8.79-14.75 3.82-16.75 3.35-18.55 2.86-20.15 2.3-21.53 1.71-22.7 1.05-23.67.37-23.67-.37-22.71-1.05-21.52-1.71-20.15-2.3-18.55-2.86-16.76-3.35-14.75-3.82-12.53-4.22-17.59-9.46-4.64-5.16-1.59-5.36"/><path fill-rule="evenodd" d="m1616.91 1375.5-2.64-2H1343v4.25h270.94z"/><path fill-rule="evenodd" d="m1641.88 1375.5-41.45-12.5 13.84 10.5h2.64v9.53z"/><path fill-rule="evenodd" d="M1616.91 1383.03v-5.28h-2.97l-13.51 10.25zm0-5.28v-2.25l-2.97 2.25zm0-2.25v-2h-2.64z"/><path fill="#f6bf69" fill-rule="evenodd" d="M1730.92 1466.92V1386H1656v80.92z"/><path fill="none" stroke="#000" stroke-linejoin="round" stroke-miterlimit="10" stroke-width="4.583" d="M1656.5 1467.42v-80.92h74.92v80.92z"/><path fill="#f6bf69" fill-rule="evenodd" d="M1836 1469.92V1389h-75v80.92z"/><path fill="none" stroke="#000" stroke-linejoin="round" stroke-miterlimit="10" stroke-width="4.583" d="M1761.5 1470.42v-80.92h75v80.92z"/><path fill="#f6bf69" fill-rule="evenodd" d="M2182.92 1469.92V1389H2108v80.92z"/><path fill="none" stroke="#000" stroke-linejoin="round" stroke-miterlimit="10" stroke-width="4.583" d="M2108.5 1470.42v-80.92h74.92v80.92z"/><path fill="#f6bf69" fill-rule="evenodd" d="m1938 1432.59-6.48-9.59-5.52 9.59 5.52 9.32z"/><path fill="none" stroke="#000" stroke-linejoin="round" stroke-miterlimit="10" stroke-width="4.583" d="m1938.5 1433.09-6.48-9.59-5.52 9.59 5.52 9.32 6.48-9.32"/><path fill="#f6bf69" fill-rule="evenodd" d="m1980.92 1432.59-6.21-9.59-5.71 9.59 5.71 9.32z"/><path fill="none" stroke="#000" stroke-linejoin="round" stroke-miterlimit="10" stroke-width="4.583" d="m1981.42 1433.09-6.21-9.59-5.71 9.59 5.71 9.32 6.21-9.32"/><path fill="#f6bf69" fill-rule="evenodd" d="m2028 1432.59-7.02-9.59-5.98 9.59 5.98 9.32z"/><path fill="none" stroke="#000" stroke-linejoin="round" stroke-miterlimit="10" stroke-width="4.583" d="m2028.5 1433.09-7.02-9.59-5.98 9.59 5.98 9.32 7.02-9.32"/><path fill="#f6bf69" fill-rule="evenodd" d="M1730.92 1581.92V1501H1656v80.92z"/><path fill="none" stroke="#000" stroke-linejoin="round" stroke-miterlimit="10" stroke-width="4.583" d="M1656.5 1582.42v-80.92h74.92v80.92z"/><path fill="#f6bf69" fill-rule="evenodd" d="M1836 1584.92V1505h-75v79.92z"/><path fill="none" stroke="#000" stroke-linejoin="round" stroke-miterlimit="10" stroke-width="4.583" d="M1761.5 1585.42v-79.92h75v79.92z"/><path fill="#f6bf69" fill-rule="evenodd" d="M2182.92 1584.92V1505H2108v79.92z"/><path fill="none" stroke="#000" stroke-linejoin="round" stroke-miterlimit="10" stroke-width="4.583" d="M2108.5 1585.42v-79.92h74.92v79.92z"/><path fill="#f6bf69" fill-rule="evenodd" d="m1938 1548.33-6.48-9.33-5.52 9.33 5.52 8.59z"/><path fill="none" stroke="#000" stroke-linejoin="round" stroke-miterlimit="10" stroke-width="4.583" d="m1938.5 1548.83-6.48-9.33-5.52 9.33 5.52 8.59 6.48-8.59"/><path fill="#f6bf69" fill-rule="evenodd" d="m1980.92 1548.33-6.21-9.33-5.71 9.33 5.71 8.59z"/><path fill="none" stroke="#000" stroke-linejoin="round" stroke-miterlimit="10" stroke-width="4.583" d="m1981.42 1548.83-6.21-9.33-5.71 9.33 5.71 8.59 6.21-8.59"/><path fill="#f6bf69" fill-rule="evenodd" d="m2028 1548.33-7.02-9.33-5.98 9.33 5.98 8.59z"/><path fill="none" stroke="#000" stroke-linejoin="round" stroke-miterlimit="10" stroke-width="4.583" d="m2028.5 1548.83-7.02-9.33-5.98 9.33 5.98 8.59 7.02-8.59"/><path fill="#f6bf69" fill-rule="evenodd" d="M1730.92 1681.92V1601H1656v80.92z"/><path fill="none" stroke="#000" stroke-linejoin="round" stroke-miterlimit="10" stroke-width="4.583" d="M1656.5 1682.42v-80.92h74.92v80.92z"/><path fill="#f6bf69" fill-rule="evenodd" d="M1836 1684.92V1604h-75v80.92z"/><path fill="none" stroke="#000" stroke-linejoin="round" stroke-miterlimit="10" stroke-width="4.583" d="M1761.5 1685.42v-80.92h75v80.92z"/><path fill="#f6bf69" fill-rule="evenodd" d="M2182.92 1684.92V1604H2108v80.92z"/><path fill="none" stroke="#000" stroke-linejoin="round" stroke-miterlimit="10" stroke-width="4.583" d="M2108.5 1685.42v-80.92h74.92v80.92z"/><path fill="#f6bf69" fill-rule="evenodd" d="m1938 1647.85-6.48-9.85-5.52 9.85 5.52 9.06z"/><path fill="none" stroke="#000" stroke-linejoin="round" stroke-miterlimit="10" stroke-width="4.583" d="m1938.5 1648.35-6.48-9.85-5.52 9.85 5.52 9.06 6.48-9.06"/><path fill="#f6bf69" fill-rule="evenodd" d="m1980.92 1647.85-6.21-9.85-5.71 9.85 5.71 9.06z"/><path fill="none" stroke="#000" stroke-linejoin="round" stroke-miterlimit="10" stroke-width="4.583" d="m1981.42 1648.35-6.21-9.85-5.71 9.85 5.71 9.06 6.21-9.06"/><path fill="#f6bf69" fill-rule="evenodd" d="m2028 1647.85-7.02-9.85-5.98 9.85 5.98 9.06z"/><path fill="none" stroke="#000" stroke-linejoin="round" stroke-miterlimit="10" stroke-width="4.583" d="m2028.5 1648.35-7.02-9.85-5.98 9.85 5.98 9.06 7.02-9.06m-865.04-128.31-6-10.54-6.96 10.54 6.96 10.29 6-10.29m51 0-6-10.54-6.96 10.54 6.96 10.29 6-10.29"/><path fill="#f6bf69" fill-rule="evenodd" d="M1102.88 1285.88V1198H1021v87.88z"/><path fill="none" stroke="#000" stroke-linejoin="round" stroke-miterlimit="10" stroke-width="4.583" d="M1021.5 1286.38v-87.88h81.88v87.88z"/><path fill="#f6bf69" fill-rule="evenodd" d="M1197 1285.88V1198h-81v87.88z"/><path fill="none" stroke="#000" stroke-linejoin="round" stroke-miterlimit="10" stroke-width="4.583" d="M1116.5 1286.38v-87.88h81v87.88z"/><path fill="#f6bf69" fill-rule="evenodd" d="M1102.88 1438.88V1351H1021v87.88z"/><path fill="none" stroke="#000" stroke-linejoin="round" stroke-miterlimit="10" stroke-width="4.583" d="M1021.5 1439.38v-87.88h81.88v87.88z"/><path fill="#f6bf69" fill-rule="evenodd" d="M1201 1438.88V1351h-82v87.88z"/><path fill="none" stroke="#000" stroke-linejoin="round" stroke-miterlimit="10" stroke-width="4.583" d="M1119.5 1439.38v-87.88h82v87.88zm-3.04 80.66-6.48-10.54-6.48 10.54 6.48 10.29 6.48-10.29"/><path fill="#f6bf69" fill-rule="evenodd" d="M1299 1438.88V1351h-81v87.88z"/><path fill="none" stroke="#000" stroke-linejoin="round" stroke-miterlimit="10" stroke-width="4.583" d="M1217.5 1439.38v-87.88h82v87.88z"/><path fill="#f6bf69" fill-rule="evenodd" d="M1102.88 1711.88V1624H1021v87.88z"/><path fill="none" stroke="#000" stroke-linejoin="round" stroke-miterlimit="10" stroke-width="4.583" d="M1021.5 1712.38v-87.88h81.88v87.88z"/><path fill-rule="evenodd" d="m2395.51 1197.64-.26-3.21-11.62 2.9-15.42 7.54-14.94 9.74-14 10.49-12.59 9.77-11.69 10.22-13.13 11.34-12.42 12.05-11.74 12.71-11.06 13.31-10.4 13.85-9.74 14.33-9.1 14.76-15.44 27.6-6.96 12.72v1.24l.75.75.99.25 1-.75 6.96-12.72 13.93-24.93 14.92-23.94 7.96-11.47 12.01-15.49 8.33-9.54 8.74-9.18 8.98-8.93 11.44-10.48 16.9-14.32 13.15-10.67 14.56-10.87 15.14-9.69 14.92-7.12zm24.45-4.17-25.62-10.47.91 11.43 3.81-.96 1.25.5.74 1v10.07z"/><path fill-rule="evenodd" d="m2401.05 1194.97-.74-1-1.25-.5-3.81.96.26 3.21 4.05-.92 1-.75z"/><path fill-rule="evenodd" d="M2401.05 1205.04v-10.07l-.49 1-1 .75-4.05.92.82 10.3z"/><text font-family="Lantinghei SC,Lantinghei SC_MSFontService,sans-serif" font-size="75" font-weight="900" transform="translate(1684.52 834)">内存</text><text font-family="Lantinghei SC,Lantinghei SC_MSFontService,sans-serif" font-size="75" font-weight="900" transform="translate(2424.9 842)">磁盘</text><text font-family="Lantinghei SC,Lantinghei SC_MSFontService,sans-serif" font-size="75" font-weight="900" transform="translate(1077.8 842)">磁盘</text><text font-family="Lantinghei SC,Lantinghei SC_MSFontService,sans-serif" font-size="67" font-weight="900" transform="translate(998.25 81)">原始关系</text><path fill="none" stroke="#000" stroke-linejoin="round" stroke-miterlimit="10" stroke-width="4.583" d="M2476.46 539.19 2470 528.5l-7.5 10.69 7.5 10.18 6.46-10.18m51 0L2521 528.5l-7.5 10.69 7.5 10.18 6.46-10.18m-98 0-6.48-10.69-6.48 10.69 6.48 10.18 6.48-10.18M1315.5 754.42V6.5h873.96v747.92z"/><path fill="#f6bf69" fill-rule="evenodd" d="M1539.88 524.875V437H1431v87.875z"/><path fill="none" stroke="#000" stroke-linejoin="round" stroke-miterlimit="10" stroke-width="4.583" d="M1431.5 525.375V437.5h108.88v87.875zm586.96-14.847-6.98-10.028-6.98 10.028 6.98 10.8 6.98-10.8m47 0-6.98-10.028-6.98 10.028 6.98 10.8 6.98-10.8m48 3.892-5.23-13.92-5.73 13.92 5.73 14.914 5.23-14.914"/><path fill="#f6bf69" fill-rule="evenodd" d="M2415.88 304.917V217H2334v87.917z"/><path fill="none" stroke="#000" stroke-linejoin="round" stroke-miterlimit="10" stroke-width="4.583" d="M2334.5 305.375V217.5h81.88v87.875z"/><path fill="#f6bf69" fill-rule="evenodd" d="M2510 304.917V217h-81v87.917z"/><path fill="none" stroke="#000" stroke-linejoin="round" stroke-miterlimit="10" stroke-width="4.583" d="M2429.5 305.375V217.5h81v87.875z"/><path fill="#f6bf69" fill-rule="evenodd" d="M2415.88 457.875V370H2334v87.875z"/><path fill="none" stroke="#000" stroke-linejoin="round" stroke-miterlimit="10" stroke-width="4.583" d="M2334.5 458.375V370.5h81.88v87.875z"/><path fill="#f6bf69" fill-rule="evenodd" d="M2513 457.875V370h-81v87.875z"/><path fill="none" stroke="#000" stroke-linejoin="round" stroke-miterlimit="10" stroke-width="4.583" d="M2432.5 458.375V370.5h81v87.875z"/><path fill="#f6bf69" fill-rule="evenodd" d="M2611 457.875V370h-81v87.875z"/><path fill="none" stroke="#000" stroke-linejoin="round" stroke-miterlimit="10" stroke-width="4.583" d="M2530.5 458.375V370.5h81v87.875z"/><text font-family="Lantinghei SC,Lantinghei SC_MSFontService,sans-serif" font-size="58" font-weight="900" transform="translate(2030.14 342)">2</text><path fill="#f6bf69" fill-rule="evenodd" d="M2415.88 730.88V643H2334v87.88z"/><path fill="none" stroke="#000" stroke-linejoin="round" stroke-miterlimit="10" stroke-width="4.583" d="M2334.5 731.38V643.5h81.88v87.88z"/><path fill="#f6bf69" fill-rule="evenodd" d="M2125.88 723v-94H1989v94z"/><path fill="none" stroke="#000" stroke-linejoin="round" stroke-miterlimit="10" stroke-width="4.583" d="M1989.5 722.5v-93h136.88v93z"/><text font-family="Lantinghei SC,Lantinghei SC_MSFontService,sans-serif" font-size="58" font-weight="900" transform="translate(1997.25 72)">输出</text><text font-family="Lantinghei SC,Lantinghei SC_MSFontService,sans-serif" font-size="58" font-weight="900" transform="translate(2030.02 158)">1</text><text font-family="Lantinghei SC,Lantinghei SC_MSFontService,sans-serif" font-size="58" font-weight="900" transform="translate(1417.19 378)">输入</text><text font-family="Lantinghei SC,Lantinghei SC_MSFontService,sans-serif" font-size="58" font-weight="900" transform="translate(1560.65 447)">散列计算</text><text fill="#33c" font-family="Lantinghei SC,Lantinghei SC_MSFontService,sans-serif" font-size="83" font-weight="900" transform="translate(1632.09 536)">h</text><text fill="#33c" font-family="Lantinghei SC,Lantinghei SC_MSFontService,sans-serif" font-size="54" font-weight="900" transform="translate(1691.76 552)">p</text><text font-family="Lantinghei SC,Lantinghei SC_MSFontService,sans-serif" font-size="58" font-weight="900" transform="translate(1998.97 599)">M</text><text font-family="Lantinghei SC,Lantinghei SC_MSFontService,sans-serif" font-size="58" font-weight="900" transform="translate(2055.37 599)">-</text><text font-family="Lantinghei SC,Lantinghei SC_MSFontService,sans-serif" font-size="58" font-weight="900" transform="translate(2086.56 599)">1</text><text font-family="Lantinghei SC,Lantinghei SC_MSFontService,sans-serif" font-size="67" font-weight="900" transform="translate(2314.18 79)">子集合关系</text><text font-family="Lantinghei SC,Lantinghei SC_MSFontService,sans-serif" font-size="75" font-weight="900" transform="translate(2691.96 285)">1</text><text font-family="Lantinghei SC,Lantinghei SC_MSFontService,sans-serif" font-size="75" font-weight="900" transform="translate(2688.98 426)">2</text><text font-family="Lantinghei SC,Lantinghei SC_MSFontService,sans-serif" font-size="75" font-weight="900" transform="translate(2678.51 683)">M</text><text font-family="Lantinghei SC,Lantinghei SC_MSFontService,sans-serif" font-size="75" font-weight="900" transform="translate(2751.13 683)">-</text><text font-family="Lantinghei SC,Lantinghei SC_MSFontService,sans-serif" font-size="75" font-weight="900" transform="translate(2791.67 683)">1</text><path fill="#f6bf69" fill-rule="evenodd" d="M1188.92 302.916V207H1093v95.916z"/><path fill="none" stroke="#000" stroke-linejoin="round" stroke-miterlimit="10" stroke-width="4.583" d="M1093.5 207.5v95.916h95.96V207.5z"/><path fill="#f6bf69" fill-rule="evenodd" d="M1188.92 452.916V357H1093v95.916z"/><path fill="none" stroke="#000" stroke-linejoin="round" stroke-miterlimit="10" stroke-width="4.583" d="M1093.5 357.5v95.916h95.96V357.5z"/><path fill="#f6bf69" fill-rule="evenodd" d="M1188.92 701.92V606H1093v95.92z"/><path fill="none" stroke="#000" stroke-linejoin="round" stroke-miterlimit="10" stroke-width="4.583" d="M1093.5 606.5v95.92h95.96V606.5zm47.79-474-23.82.289-22.59.839-21.06 1.343-19.24 1.804-17.1 2.221-14.67 2.594-20.83 6.129-7.48 7.091 1.92 3.65 14.46 6.702 26.6 5.588 17.1 2.258 19.24 1.839 21.06 1.372 22.59.858 23.82.296 23.83-.296 22.61-.858 21.09-1.372 19.27-1.839 17.14-2.258 14.71-2.632 20.89-6.192 7.5-7.116-1.92-3.644-14.51-6.654-26.67-5.516-17.14-2.221-19.27-1.804-21.09-1.343-22.61-.839zm-148.79 23v575.96m298-575.96v575.96m-2.08 1.04v.99l-1.95 6.14-14.67 11.28-12.11 4.97-14.88 4.42-17.36 3.8-19.52 3.08-21.37 2.3-22.93 1.44-24.17.5-24.17-.5-22.93-1.44-21.38-2.3-19.51-3.08-17.36-3.8-14.88-4.42-12.11-4.97-14.67-11.28-1.95-6.14v-.99m1497.29-600-25.45.243-24.3.706-22.87 1.135-21.18 1.527-19.23 1.885-16.99 2.207-14.51 2.496-20.46 5.712-7.3 6.443 1.87 3.356 14.15 6.205 26.25 5.299 16.99 2.225 19.23 1.896 21.18 1.534 22.87 1.138 24.3.708 25.45.243 25.52-.243 24.35-.708 22.91-1.138 21.21-1.534 19.25-1.896 17.01-2.225 14.52-2.52 20.48-5.785 7.29-6.556-1.86-3.294-14.16-6.113-26.27-5.243-17.01-2.207-19.25-1.885-21.21-1.527-22.91-1.135-24.35-.706zm-174.29 23v582.83m349-582.83v582.83m-2.08 1.17v1.01l-1.6 5.28-12.11 9.86-22.65 8.63-14.75 3.74-16.75 3.29-18.55 2.79-20.15 2.26-21.53 1.67-22.7 1.03-23.67.36-23.67-.36-22.71-1.03-21.52-1.67-20.15-2.26-18.55-2.79-16.76-3.29-14.75-3.74-12.53-4.14-17.59-9.29-4.64-5.06-1.59-5.28"/><path fill-rule="evenodd" d="m1415.19 478.972-41.64-12.472 14.03 10.477H1291v4.24h96.25l-13.7 10.228 16.71-5.006zm573.58-198.807-36.66 22.949 16.77-3.521-155.67 178.132 1.53 1.409.09.35-1.62 1.484L1968.88 659.1l-16.77-3.52 21.95 13.73 14.71 9.22-17.95-39.41 1.24 17.17-154.14-176.091 144.8-40.901-10.61 13.732 13.22-8.365 23.44-14.833-43.39-.749 16.25 6.249-140.72 39.753 151.15-172.682-1.24 17.174 3.24-7.117zm349.14 398.365-41.64-12.47 14.03 10.47h-171.4v4.24h171.07l-13.7 10.23 16.7-5.01zm0-274.391-41.64-12.472 14.03 10.476h-171.4v4.241h171.07l-13.7 10.227 16.7-5.005zm0-149.667L2296.27 242l14.03 10.477h-171.4v4.24h171.07l-13.7 10.228 16.7-5.006z"/><path fill="#f6bf69" fill-rule="evenodd" d="M2125.88 448v-93H1989v93z"/><path fill="none" stroke="#000" stroke-linejoin="round" stroke-miterlimit="10" stroke-width="4.583" d="M1989.5 448.5v-93h136.88v93z"/><path fill="#f6bf69" fill-rule="evenodd" d="M2125.88 274v-94H1989v94z"/><path fill="none" stroke="#000" stroke-linejoin="round" stroke-miterlimit="10" stroke-width="4.583" d="M1989.5 274.5v-94h136.88v94z"/><text font-family="Lantinghei SC,Lantinghei SC_MSFontService,sans-serif" font-size="133" font-weight="900" transform="translate(1064.83 545)">.</text><text font-family="Lantinghei SC,Lantinghei SC_MSFontService,sans-serif" font-size="133" font-weight="900" transform="translate(1141.44 545)">.</text><text font-family="Lantinghei SC,Lantinghei SC_MSFontService,sans-serif" font-size="133" font-weight="900" transform="translate(1218.23 545)">.</text><path fill="#b90000" fill-rule="evenodd" d="M892.96 708.1V440.819l-1.77-15.319-5.02-14.065-7.89-12.406-10.35-10.349-12.4-7.888-14.06-5.027L826.15 374H73.808l-15.317 1.765-14.062 5.027-12.405 7.888-10.346 10.349-7.887 12.406L8.764 425.5 7 440.819V708.1l1.764 15.32 5.027 14.06 7.887 12.41 10.346 10.35 12.405 7.88 14.062 5.03 15.317 1.77H826.15l15.32-1.77 14.06-5.03 12.4-7.88 10.35-10.35 7.89-12.41 5.02-14.06z"/><path fill="#ff6" fill-rule="evenodd" d="M847.83 686.69V462.889l-1.99-14.882-5.62-13.358-8.72-11.307-11.29-8.727-13.35-5.624L791.99 407H107.098l-14.891 1.991-13.394 5.624-11.358 8.728-8.782 11.306-5.665 13.358L51 462.889V686.7l2.008 14.9 5.665 13.4 8.782 11.37 11.358 8.78 13.394 5.67 14.891 2.01H791.99l14.87-2.01 13.35-5.67 11.29-8.78 8.72-11.37 5.62-13.4z"/><path fill="none" stroke="#fff" stroke-linejoin="round" stroke-miterlimit="10" stroke-width="10.313" d="m107.098 407-14.891 1.991-13.394 5.624-11.358 8.728-8.782 11.306-5.665 13.358L51 462.889V686.7l2.008 14.9 5.665 13.4 8.782 11.37 11.358 8.78 13.394 5.67 14.891 2.01H791.99l14.87-2.01 13.35-5.67 11.29-8.78 8.72-11.37 5.62-13.4 1.99-14.91V462.889l-1.99-14.882-5.62-13.358-8.72-11.307-11.29-8.727-13.35-5.624L791.99 407z"/><text fill="#33c" font-family="Lantinghei SC,Lantinghei SC_MSFontService,sans-serif" font-size="67" font-weight="900" transform="translate(158.318 484)">第一趟：散列子表。</text><text fill="#33c" font-family="Lantinghei SC,Lantinghei SC_MSFontService,sans-serif" font-size="67" font-weight="900" transform="translate(62.252 592)">用散列函数</text><text fill="#33c" font-family="Lantinghei SC,Lantinghei SC_MSFontService,sans-serif" font-size="67" font-weight="900" transform="translate(385.15 592)">h</text><text fill="#33c" font-family="Lantinghei SC,Lantinghei SC_MSFontService,sans-serif" font-size="46" font-weight="900" transform="translate(431.37 605)">1</text><text fill="#33c" font-family="Lantinghei SC,Lantinghei SC_MSFontService,sans-serif" font-size="67" font-weight="900" transform="translate(455.25 592)">将原始关系划</text><text fill="#33c" font-family="Lantinghei SC,Lantinghei SC_MSFontService,sans-serif" font-size="67" font-weight="900" transform="translate(94.037 671)">分成</text><text fill="#33c" font-family="Lantinghei SC,Lantinghei SC_MSFontService,sans-serif" font-size="67" font-weight="900" transform="translate(223.2 671)">M</text><text fill="#33c" font-family="Lantinghei SC,Lantinghei SC_MSFontService,sans-serif" font-size="67" font-weight="900" transform="translate(290.3 671)">-</text><text fill="#33c" font-family="Lantinghei SC,Lantinghei SC_MSFontService,sans-serif" font-size="67" font-weight="900" transform="translate(328.75 671)">1</text><text fill="#33c" font-family="Lantinghei SC,Lantinghei SC_MSFontService,sans-serif" font-size="67" font-weight="900" transform="translate(366.47 671)">个子表，并存储</text><path fill="#b90000" fill-rule="evenodd" d="M894 1443.57v-292.31l-1.49-14.74-4.28-13.73-6.77-12.45-8.96-10.85-10.85-8.95-12.44-6.77-13.74-4.28-14.74-1.49H81.273l-14.741 1.49-13.741 4.28-12.445 6.77-10.85 8.95-8.958 10.85-6.767 12.45-4.278 13.73L8 1151.26v292.31l1.493 14.81 4.278 13.77 6.767 12.45 8.958 10.83 10.85 8.93 12.445 6.74 13.741 4.25 14.741 1.48H820.73l14.74-1.48 13.74-4.25 12.44-6.74 10.85-8.93 8.96-10.83 6.77-12.45 4.28-13.77z"/><path fill="#ff6" fill-rule="evenodd" d="M848.83 1419.89v-244.61l-2.18-16.3-6.17-14.65-9.57-12.4-12.36-9.57-14.59-6.17-16.21-2.19H113.333l-16.316 2.19-14.655 6.17-12.411 9.57-9.585 12.4-6.178 14.65-2.188 16.3v244.61l2.188 16.2 6.178 14.57 9.585 12.35 12.411 9.56 14.655 6.16 16.316 2.19H787.75l16.21-2.19 14.59-6.16 12.36-9.56 9.57-12.35 6.17-14.57z"/><path fill="none" stroke="#fff" stroke-linejoin="round" stroke-miterlimit="10" stroke-width="10.313" d="m113.333 1114-16.316 2.19-14.655 6.17-12.411 9.57-9.585 12.4-6.178 14.65-2.188 16.3v244.61l2.188 16.2 6.178 14.57 9.585 12.35 12.411 9.56 14.655 6.16 16.316 2.19H787.75l16.21-2.19 14.59-6.16 12.36-9.56 9.57-12.35 6.17-14.57 2.18-16.2v-244.61l-2.18-16.3-6.17-14.65-9.57-12.4-12.36-9.57-14.59-6.17-16.21-2.19z"/><text fill="#33c" font-family="Lantinghei SC,Lantinghei SC_MSFontService,sans-serif" font-size="67" font-weight="900" transform="translate(110.643 1178)">第二趟：处理每个子表</text><text fill="#33c" font-family="Lantinghei SC,Lantinghei SC_MSFontService,sans-serif" font-size="67" font-weight="900" transform="translate(42.352 1286)">用另一散列函数</text><text fill="#33c" font-family="Lantinghei SC,Lantinghei SC_MSFontService,sans-serif" font-size="67" font-weight="900" transform="translate(494.41 1286)">h</text><text fill="#33c" font-family="Lantinghei SC,Lantinghei SC_MSFontService,sans-serif" font-size="46" font-weight="900" transform="translate(539.76 1299)">2</text><text fill="#33c" font-family="Lantinghei SC,Lantinghei SC_MSFontService,sans-serif" font-size="67" font-weight="900" transform="translate(568.52 1286)">将子表读</text><text fill="#33c" font-family="Lantinghei SC,Lantinghei SC_MSFontService,sans-serif" font-size="67" font-weight="900" transform="translate(42.352 1365)">入内存并建立内存结构</text><text fill="#33c" font-family="Lantinghei SC,Lantinghei SC_MSFontService,sans-serif" font-size="67" font-weight="900" transform="translate(700.52 1365)">，</text><text fill="#33c" font-family="Lantinghei SC,Lantinghei SC_MSFontService,sans-serif" font-size="67" font-weight="900" transform="translate(766.33 1365)">进</text><text fill="#33c" font-family="Lantinghei SC,Lantinghei SC_MSFontService,sans-serif" font-size="67" font-weight="900" transform="translate(42.352 1445)">行不同操作的处理</text><path fill-rule="evenodd" d="M537 1006.69h-37.5V793h-75v213.69H387l75 71.14z"/><path fill="none" stroke="#000" stroke-linejoin="round" stroke-miterlimit="10" stroke-width="3.438" d="M387.5 1007.19H425V793.5h75v213.69h37.5l-75 71.14z"/></svg>