<svg xmlns="http://www.w3.org/2000/svg" xml:space="preserve" width="3543" height="2291" overflow="hidden"><path fill="#ed7d31" fill-rule="evenodd" stroke="#fff" stroke-miterlimit="8" stroke-width="4.583" d="M189.5 243c0-16.293 13.207-29.5 29.5-29.5h1100c16.29 0 29.5 13.207 29.5 29.5v236c0 16.292-13.21 29.5-29.5 29.5H219c-16.293 0-29.5-13.208-29.5-29.5Z"/><text fill="#fff" font-family="DengXian,DengXian_MSFontService,sans-serif" font-size="73" font-weight="700" transform="translate(223.724 333)">基本思想</text><text fill="#fff" font-family="DengXian,DengXian_MSFontService,sans-serif" font-size="73" font-weight="400" transform="translate(515.407 333)">：改变关系代</text><text fill="#fff" font-family="DengXian,DengXian_MSFontService,sans-serif" font-size="73" font-weight="400" transform="translate(950.46 333)">数的操作次</text><text fill="#fff" font-family="DengXian,DengXian_MSFontService,sans-serif" font-size="73" font-weight="400" transform="translate(259.978 423)">序：尽可能早做选择和投影运算</text><path fill="#ed7d31" fill-rule="evenodd" d="M808.4 526v55.5H835L768.5 637 702 581.5h26.6V526Z"/><path fill="#d87a51" fill-rule="evenodd" stroke="#fff" stroke-miterlimit="8" stroke-width="4.583" d="M189.5 685c0-16.292 13.207-29.5 29.5-29.5h1100c16.29 0 29.5 13.208 29.5 29.5v236c0 16.29-13.21 29.5-29.5 29.5H219c-16.293 0-29.5-13.21-29.5-29.5Z"/><text fill="#fff" font-family="DengXian,DengXian_MSFontService,sans-serif" font-size="73" font-weight="400" transform="translate(225.282 775)">关系代数的五种基本操作</text><text fill="#fff" font-family="DengXian,DengXian_MSFontService,sans-serif" font-size="73" font-weight="400" transform="translate(1024.89 775)">中哪两个</text><text fill="#fff" font-family="DengXian,DengXian_MSFontService,sans-serif" font-size="73" font-weight="400" transform="translate(553.219 865)">能够交换次序</text><path fill="#d17b5c" fill-rule="evenodd" d="M808.4 968v55.5H835l-66.5 55.5-66.5-55.5h26.6V968Z"/><path fill="#c48170" fill-rule="evenodd" stroke="#fff" stroke-miterlimit="8" stroke-width="4.583" d="M189.5 1127c0-16.29 13.207-29.5 29.5-29.5h1100c16.29 0 29.5 13.21 29.5 29.5v236c0 16.29-13.21 29.5-29.5 29.5H219c-16.293 0-29.5-13.21-29.5-29.5Z"/><text fill="#fff" font-family="DengXian,DengXian_MSFontService,sans-serif" font-size="73" font-weight="400" transform="translate(333.22 1262)">次序改变前后</text><text fill="#fff" font-family="DengXian,DengXian_MSFontService,sans-serif" font-size="73" font-weight="400" transform="translate(769.37 1262)">的等价性问题</text><path fill="#b98a82" fill-rule="evenodd" d="M808.4 1411v55H835l-66.5 55-66.5-55h26.6v-55Z"/><path fill="#b4908b" fill-rule="evenodd" stroke="#fff" stroke-miterlimit="8" stroke-width="4.583" d="M189.5 1570c0-16.29 13.207-29.5 29.5-29.5h1100c16.29 0 29.5 13.21 29.5 29.5v236c0 16.29-13.21 29.5-29.5 29.5H219c-16.293 0-29.5-13.21-29.5-29.5Z"/><text fill="#fff" font-family="DengXian,DengXian_MSFontService,sans-serif" font-size="73" font-weight="400" transform="translate(223.059 1660)">关系代数表达式的等价</text><text fill="#fff" font-family="DengXian,DengXian_MSFontService,sans-serif" font-size="73" font-weight="400" transform="translate(949.98 1660)">变换定理及</text><text fill="#fff" font-family="DengXian,DengXian_MSFontService,sans-serif" font-size="73" font-weight="400" transform="translate(659.44 1750)">其证明</text><path fill="#a5a5a5" fill-rule="evenodd" d="M808.4 1853v55.5H835l-66.5 55.5-66.5-55.5h26.6V1853Z"/><path fill="#a5a5a5" fill-rule="evenodd" stroke="#fff" stroke-miterlimit="8" stroke-width="4.583" d="M189.5 2012c0-16.29 13.207-29.5 29.5-29.5h1100c16.29 0 29.5 13.21 29.5 29.5v236c0 16.29-13.21 29.5-29.5 29.5H219c-16.293 0-29.5-13.21-29.5-29.5Z"/><text fill="#fff" font-family="DengXian,DengXian_MSFontService,sans-serif" font-size="73" font-weight="400" transform="translate(234.689 2108)">关系代数表达式的优化算</text><text fill="#fff" font-family="DengXian,DengXian_MSFontService,sans-serif" font-size="73" font-weight="400" transform="translate(1034.3 2108)">法</text><text fill="#fff" font-family="Hiragino Sans GB W3,Hiragino Sans GB W3_MSFontService,sans-serif" font-size="73" font-weight="300" transform="translate(1104.1 2108)">? </text><text fill="#fff" font-family="Hiragino Sans GB W3,Hiragino Sans GB W3_MSFontService,sans-serif" font-size="73" font-weight="300" transform="translate(1163.34 2108)">–</text><text fill="#fff" font-family="DengXian,DengXian_MSFontService,sans-serif" font-size="73" font-weight="400" transform="translate(1233.15 2108)">逻</text><text fill="#fff" font-family="DengXian,DengXian_MSFontService,sans-serif" font-size="73" font-weight="400" transform="translate(524.516 2197)">辑查询计划形成</text><text font-family="DengXian,DengXian_MSFontService,sans-serif" font-size="128" font-weight="400" transform="translate(365.853 160)">逻辑查询优化</text><path fill="#ed7d31" fill-rule="evenodd" stroke="#fff" stroke-miterlimit="8" stroke-width="4.583" d="M1931.5 283.4c0-20.379 16.52-36.9 36.9-36.9h844.2c20.38 0 36.9 16.521 36.9 36.9v295.2c0 20.38-16.52 36.9-36.9 36.9h-844.2c-20.38 0-36.9-16.52-36.9-36.9Z"/><text fill="#fff" font-family="DengXian,DengXian_MSFontService,sans-serif" font-size="78" font-weight="400" transform="translate(2004.17 402)">获取数据库的相关信息</text><text fill="#fff" font-family="Hiragino Sans GB W3,Hiragino Sans GB W3_MSFontService,sans-serif" font-size="78" font-weight="300" transform="translate(2211.56 508)">(</text><text fill="#fff" font-family="DengXian,DengXian_MSFontService,sans-serif" font-size="78" font-weight="400" transform="translate(2237.69 508)">定期统计</text><text fill="#fff" font-family="Hiragino Sans GB W3,Hiragino Sans GB W3_MSFontService,sans-serif" font-size="78" font-weight="300" transform="translate(2542.94 508)">)</text><path fill="#ed7d31" fill-rule="evenodd" d="M2439.8 638v69h33.2l-83 69-83-69h33.2v-69Z"/><path fill="#d17b5c" fill-rule="evenodd" stroke="#fff" stroke-miterlimit="8" stroke-width="4.583" d="M1931.5 837.4c0-20.379 16.52-36.9 36.9-36.9h844.2c20.38 0 36.9 16.521 36.9 36.9v295.2c0 20.38-16.52 36.9-36.9 36.9h-844.2c-20.38 0-36.9-16.52-36.9-36.9Z"/><text fill="#fff" font-family="DengXian,DengXian_MSFontService,sans-serif" font-size="78" font-weight="400" transform="translate(2043.81 1002)">选取相应的执行程序</text><path fill="#c48170" fill-rule="evenodd" d="M2439.8 1192v69h33.2l-83 69-83-69h33.2v-69Z"/><path fill="#b98a82" fill-rule="evenodd" stroke="#fff" stroke-miterlimit="8" stroke-width="4.583" d="M1931.5 1390.4c0-20.38 16.52-36.9 36.9-36.9h844.2c20.38 0 36.9 16.52 36.9 36.9v295.2c0 20.38-16.52 36.9-36.9 36.9h-844.2c-20.38 0-36.9-16.52-36.9-36.9Z"/><text fill="#fff" font-family="DengXian,DengXian_MSFontService,sans-serif" font-size="78" font-weight="400" transform="translate(1965.39 1509)">次序改变前后两个表达</text><text fill="#fff" font-family="DengXian,DengXian_MSFontService,sans-serif" font-size="78" font-weight="400" transform="translate(2738.14 1509)">式</text><text fill="#fff" font-family="DengXian,DengXian_MSFontService,sans-serif" font-size="78" font-weight="400" transform="translate(2159.04 1604)">的等价性问题</text><path fill="#a5a5a5" fill-rule="evenodd" d="M2439.8 1746v69h33.2l-83 69-83-69h33.2v-69Z"/><path fill="#a5a5a5" fill-rule="evenodd" stroke="#fff" stroke-miterlimit="8" stroke-width="4.583" d="M1931.5 1944.4c0-20.38 16.52-36.9 36.9-36.9h844.2c20.38 0 36.9 16.52 36.9 36.9v295.2c0 20.38-16.52 36.9-36.9 36.9h-844.2c-20.38 0-36.9-16.52-36.9-36.9Z"/><text fill="#fff" font-family="DengXian,DengXian_MSFontService,sans-serif" font-size="78" font-weight="400" transform="translate(1965.55 2015)">形成查询计划：以基本的</text><text fill="#fff" font-family="DengXian,DengXian_MSFontService,sans-serif" font-size="78" font-weight="400" transform="translate(1965.55 2110)">例行程序为基本，确定这</text><text fill="#fff" font-family="DengXian,DengXian_MSFontService,sans-serif" font-size="78" font-weight="400" transform="translate(2004.63 2205)">些例行程序的执行</text><text fill="#fff" font-family="DengXian,DengXian_MSFontService,sans-serif" font-size="78" font-weight="400" transform="translate(2622.46 2205)">顺序</text><text font-family="DengXian,DengXian_MSFontService,sans-serif" font-size="128" font-weight="400" transform="translate(1987.35 160)">物理查询优化</text><path fill="#ed7d31" fill-rule="evenodd" stroke="#64310f" stroke-miterlimit="8" stroke-width="4.583" d="m2883.5 984 164-164v82h65.75V531.5h426.25v905h-426.25V1066h-65.75v82Z"/><text fill="#fff" font-family="DengXian,DengXian_MSFontService,sans-serif" font-size="83" font-weight="400" transform="translate(3161.27 862)">同一个关</text><text fill="#fff" font-family="DengXian,DengXian_MSFontService,sans-serif" font-size="83" font-weight="400" transform="translate(3161.27 961)">系操作，</text><text fill="#fff" font-family="DengXian,DengXian_MSFontService,sans-serif" font-size="83" font-weight="400" transform="translate(3161.27 1060)">对应多个</text><text fill="#fff" font-family="DengXian,DengXian_MSFontService,sans-serif" font-size="83" font-weight="400" transform="translate(3161.27 1159)">执行程序</text></svg>