<svg width="3543" height="2291" xmlns="http://www.w3.org/2000/svg" xmlns:xlink="http://www.w3.org/1999/xlink" xml:space="preserve" overflow="hidden"><g transform="translate(-430 -87)"><g><path d="M619.5 330C619.5 313.707 632.707 300.5 649 300.5L1749 300.5C1765.29 300.5 1778.5 313.707 1778.5 330L1778.5 566C1778.5 582.292 1765.29 595.5 1749 595.5L649 595.5C632.707 595.5 619.5 582.292 619.5 566Z" stroke="#FFFFFF" stroke-width="4.58333" stroke-linecap="butt" stroke-linejoin="miter" stroke-miterlimit="8" stroke-opacity="1" fill="#ED7D31" fill-rule="evenodd" fill-opacity="1"/><text fill="#FFFFFF" fill-opacity="1" font-family="DengXian,DengXian_MSFontService,sans-serif" font-style="normal" font-variant="normal" font-weight="700" font-stretch="normal" font-size="73" text-anchor="start" direction="ltr" writing-mode="lr-tb" unicode-bidi="normal" text-decoration="none" transform="matrix(1 0 0 1 653.724 420)">基本思想</text><text fill="#FFFFFF" fill-opacity="1" font-family="DengXian,DengXian_MSFontService,sans-serif" font-style="normal" font-variant="normal" font-weight="400" font-stretch="normal" font-size="73" text-anchor="start" direction="ltr" writing-mode="lr-tb" unicode-bidi="normal" text-decoration="none" transform="matrix(1 0 0 1 945.407 420)">：改变关系代</text><text fill="#FFFFFF" fill-opacity="1" font-family="DengXian,DengXian_MSFontService,sans-serif" font-style="normal" font-variant="normal" font-weight="400" font-stretch="normal" font-size="73" text-anchor="start" direction="ltr" writing-mode="lr-tb" unicode-bidi="normal" text-decoration="none" transform="matrix(1 0 0 1 1380.46 420)">数的操作次</text><text fill="#FFFFFF" fill-opacity="1" font-family="DengXian,DengXian_MSFontService,sans-serif" font-style="normal" font-variant="normal" font-weight="400" font-stretch="normal" font-size="73" text-anchor="start" direction="ltr" writing-mode="lr-tb" unicode-bidi="normal" text-decoration="none" transform="matrix(1 0 0 1 689.978 510)">序：尽可能早做选择和投影运算</text><path d="M1238.4 613 1238.4 668.5 1265 668.5 1198.5 724 1132 668.5 1158.6 668.5 1158.6 613Z" fill="#ED7D31" fill-rule="evenodd" fill-opacity="1"/><path d="M619.5 772C619.5 755.708 632.707 742.5 649 742.5L1749 742.5C1765.29 742.5 1778.5 755.708 1778.5 772L1778.5 1008C1778.5 1024.29 1765.29 1037.5 1749 1037.5L649 1037.5C632.707 1037.5 619.5 1024.29 619.5 1008Z" stroke="#FFFFFF" stroke-width="4.58333" stroke-linecap="butt" stroke-linejoin="miter" stroke-miterlimit="8" stroke-opacity="1" fill="#D87A51" fill-rule="evenodd" fill-opacity="1"/><text fill="#FFFFFF" fill-opacity="1" font-family="DengXian,DengXian_MSFontService,sans-serif" font-style="normal" font-variant="normal" font-weight="400" font-stretch="normal" font-size="73" text-anchor="start" direction="ltr" writing-mode="lr-tb" unicode-bidi="normal" text-decoration="none" transform="matrix(1 0 0 1 655.282 862)">关系代数的五种基本操作</text><text fill="#FFFFFF" fill-opacity="1" font-family="DengXian,DengXian_MSFontService,sans-serif" font-style="normal" font-variant="normal" font-weight="400" font-stretch="normal" font-size="73" text-anchor="start" direction="ltr" writing-mode="lr-tb" unicode-bidi="normal" text-decoration="none" transform="matrix(1 0 0 1 1454.89 862)">中哪两个</text><text fill="#FFFFFF" fill-opacity="1" font-family="DengXian,DengXian_MSFontService,sans-serif" font-style="normal" font-variant="normal" font-weight="400" font-stretch="normal" font-size="73" text-anchor="start" direction="ltr" writing-mode="lr-tb" unicode-bidi="normal" text-decoration="none" transform="matrix(1 0 0 1 983.219 952)">能够交换次序</text><path d="M1238.4 1055 1238.4 1110.5 1265 1110.5 1198.5 1166 1132 1110.5 1158.6 1110.5 1158.6 1055Z" fill="#D17B5C" fill-rule="evenodd" fill-opacity="1"/><path d="M619.5 1214C619.5 1197.71 632.707 1184.5 649 1184.5L1749 1184.5C1765.29 1184.5 1778.5 1197.71 1778.5 1214L1778.5 1450C1778.5 1466.29 1765.29 1479.5 1749 1479.5L649 1479.5C632.707 1479.5 619.5 1466.29 619.5 1450Z" stroke="#FFFFFF" stroke-width="4.58333" stroke-linecap="butt" stroke-linejoin="miter" stroke-miterlimit="8" stroke-opacity="1" fill="#C48170" fill-rule="evenodd" fill-opacity="1"/><text fill="#FFFFFF" fill-opacity="1" font-family="DengXian,DengXian_MSFontService,sans-serif" font-style="normal" font-variant="normal" font-weight="400" font-stretch="normal" font-size="73" text-anchor="start" direction="ltr" writing-mode="lr-tb" unicode-bidi="normal" text-decoration="none" transform="matrix(1 0 0 1 763.22 1349)">次序改变前后</text><text fill="#FFFFFF" fill-opacity="1" font-family="DengXian,DengXian_MSFontService,sans-serif" font-style="normal" font-variant="normal" font-weight="400" font-stretch="normal" font-size="73" text-anchor="start" direction="ltr" writing-mode="lr-tb" unicode-bidi="normal" text-decoration="none" transform="matrix(1 0 0 1 1199.37 1349)">的等价性问题</text><path d="M1238.4 1498 1238.4 1553 1265 1553 1198.5 1608 1132 1553 1158.6 1553 1158.6 1498Z" fill="#B98A82" fill-rule="evenodd" fill-opacity="1"/><path d="M619.5 1657C619.5 1640.71 632.707 1627.5 649 1627.5L1749 1627.5C1765.29 1627.5 1778.5 1640.71 1778.5 1657L1778.5 1893C1778.5 1909.29 1765.29 1922.5 1749 1922.5L649 1922.5C632.707 1922.5 619.5 1909.29 619.5 1893Z" stroke="#FFFFFF" stroke-width="4.58333" stroke-linecap="butt" stroke-linejoin="miter" stroke-miterlimit="8" stroke-opacity="1" fill="#B4908B" fill-rule="evenodd" fill-opacity="1"/><text fill="#FFFFFF" fill-opacity="1" font-family="DengXian,DengXian_MSFontService,sans-serif" font-style="normal" font-variant="normal" font-weight="400" font-stretch="normal" font-size="73" text-anchor="start" direction="ltr" writing-mode="lr-tb" unicode-bidi="normal" text-decoration="none" transform="matrix(1 0 0 1 653.059 1747)">关系代数表达式的等价</text><text fill="#FFFFFF" fill-opacity="1" font-family="DengXian,DengXian_MSFontService,sans-serif" font-style="normal" font-variant="normal" font-weight="400" font-stretch="normal" font-size="73" text-anchor="start" direction="ltr" writing-mode="lr-tb" unicode-bidi="normal" text-decoration="none" transform="matrix(1 0 0 1 1379.98 1747)">变换定理及</text><text fill="#FFFFFF" fill-opacity="1" font-family="DengXian,DengXian_MSFontService,sans-serif" font-style="normal" font-variant="normal" font-weight="400" font-stretch="normal" font-size="73" text-anchor="start" direction="ltr" writing-mode="lr-tb" unicode-bidi="normal" text-decoration="none" transform="matrix(1 0 0 1 1089.44 1837)">其证明</text><path d="M1238.4 1940 1238.4 1995.5 1265 1995.5 1198.5 2051 1132 1995.5 1158.6 1995.5 1158.6 1940Z" fill="#A5A5A5" fill-rule="evenodd" fill-opacity="1"/><path d="M619.5 2099C619.5 2082.71 632.707 2069.5 649 2069.5L1749 2069.5C1765.29 2069.5 1778.5 2082.71 1778.5 2099L1778.5 2335C1778.5 2351.29 1765.29 2364.5 1749 2364.5L649 2364.5C632.707 2364.5 619.5 2351.29 619.5 2335Z" stroke="#FFFFFF" stroke-width="4.58333" stroke-linecap="butt" stroke-linejoin="miter" stroke-miterlimit="8" stroke-opacity="1" fill="#A5A5A5" fill-rule="evenodd" fill-opacity="1"/><text fill="#FFFFFF" fill-opacity="1" font-family="DengXian,DengXian_MSFontService,sans-serif" font-style="normal" font-variant="normal" font-weight="400" font-stretch="normal" font-size="73" text-anchor="start" direction="ltr" writing-mode="lr-tb" unicode-bidi="normal" text-decoration="none" transform="matrix(1 0 0 1 664.689 2195)">关系代数表达式的优化算</text><text fill="#FFFFFF" fill-opacity="1" font-family="DengXian,DengXian_MSFontService,sans-serif" font-style="normal" font-variant="normal" font-weight="400" font-stretch="normal" font-size="73" text-anchor="start" direction="ltr" writing-mode="lr-tb" unicode-bidi="normal" text-decoration="none" transform="matrix(1 0 0 1 1464.3 2195)">法</text><text fill="#FFFFFF" fill-opacity="1" font-family="Hiragino Sans GB W3,Hiragino Sans GB W3_MSFontService,sans-serif" font-style="normal" font-variant="normal" font-weight="300" font-stretch="normal" font-size="73" text-anchor="start" direction="ltr" writing-mode="lr-tb" unicode-bidi="normal" text-decoration="none" transform="matrix(1 0 0 1 1534.1 2195)">? </text><text fill="#FFFFFF" fill-opacity="1" font-family="Hiragino Sans GB W3,Hiragino Sans GB W3_MSFontService,sans-serif" font-style="normal" font-variant="normal" font-weight="300" font-stretch="normal" font-size="73" text-anchor="start" direction="ltr" writing-mode="lr-tb" unicode-bidi="normal" text-decoration="none" transform="matrix(1 0 0 1 1593.34 2195)">–</text><text fill="#FFFFFF" fill-opacity="1" font-family="DengXian,DengXian_MSFontService,sans-serif" font-style="normal" font-variant="normal" font-weight="400" font-stretch="normal" font-size="73" text-anchor="start" direction="ltr" writing-mode="lr-tb" unicode-bidi="normal" text-decoration="none" transform="matrix(1 0 0 1 1663.15 2195)">逻</text><text fill="#FFFFFF" fill-opacity="1" font-family="DengXian,DengXian_MSFontService,sans-serif" font-style="normal" font-variant="normal" font-weight="400" font-stretch="normal" font-size="73" text-anchor="start" direction="ltr" writing-mode="lr-tb" unicode-bidi="normal" text-decoration="none" transform="matrix(1 0 0 1 954.516 2284)">辑查询计划形成</text><text fill="#000000" fill-opacity="1" font-family="DengXian,DengXian_MSFontService,sans-serif" font-style="normal" font-variant="normal" font-weight="400" font-stretch="normal" font-size="128" text-anchor="start" direction="ltr" writing-mode="lr-tb" unicode-bidi="normal" text-decoration="none" transform="matrix(1 0 0 1 795.853 247)">逻辑查询优化</text><path d="M2361.5 370.4C2361.5 350.021 2378.02 333.5 2398.4 333.5L3242.6 333.5C3262.98 333.5 3279.5 350.021 3279.5 370.4L3279.5 665.6C3279.5 685.98 3262.98 702.5 3242.6 702.5L2398.4 702.5C2378.02 702.5 2361.5 685.98 2361.5 665.6Z" stroke="#FFFFFF" stroke-width="4.58333" stroke-linecap="butt" stroke-linejoin="miter" stroke-miterlimit="8" stroke-opacity="1" fill="#ED7D31" fill-rule="evenodd" fill-opacity="1"/><text fill="#FFFFFF" fill-opacity="1" font-family="DengXian,DengXian_MSFontService,sans-serif" font-style="normal" font-variant="normal" font-weight="400" font-stretch="normal" font-size="78" text-anchor="start" direction="ltr" writing-mode="lr-tb" unicode-bidi="normal" text-decoration="none" transform="matrix(1 0 0 1 2434.17 489)">获取数据库的相关信息</text><text fill="#FFFFFF" fill-opacity="1" font-family="Hiragino Sans GB W3,Hiragino Sans GB W3_MSFontService,sans-serif" font-style="normal" font-variant="normal" font-weight="300" font-stretch="normal" font-size="78" text-anchor="start" direction="ltr" writing-mode="lr-tb" unicode-bidi="normal" text-decoration="none" transform="matrix(1 0 0 1 2641.56 595)">(</text><text fill="#FFFFFF" fill-opacity="1" font-family="DengXian,DengXian_MSFontService,sans-serif" font-style="normal" font-variant="normal" font-weight="400" font-stretch="normal" font-size="78" text-anchor="start" direction="ltr" writing-mode="lr-tb" unicode-bidi="normal" text-decoration="none" transform="matrix(1 0 0 1 2667.69 595)">定期统计</text><text fill="#FFFFFF" fill-opacity="1" font-family="Hiragino Sans GB W3,Hiragino Sans GB W3_MSFontService,sans-serif" font-style="normal" font-variant="normal" font-weight="300" font-stretch="normal" font-size="78" text-anchor="start" direction="ltr" writing-mode="lr-tb" unicode-bidi="normal" text-decoration="none" transform="matrix(1 0 0 1 2972.94 595)">)</text><path d="M2869.8 725 2869.8 794 2903 794 2820 863 2737 794 2770.2 794 2770.2 725Z" fill="#ED7D31" fill-rule="evenodd" fill-opacity="1"/><path d="M2361.5 924.4C2361.5 904.021 2378.02 887.5 2398.4 887.5L3242.6 887.5C3262.98 887.5 3279.5 904.021 3279.5 924.4L3279.5 1219.6C3279.5 1239.98 3262.98 1256.5 3242.6 1256.5L2398.4 1256.5C2378.02 1256.5 2361.5 1239.98 2361.5 1219.6Z" stroke="#FFFFFF" stroke-width="4.58333" stroke-linecap="butt" stroke-linejoin="miter" stroke-miterlimit="8" stroke-opacity="1" fill="#D17B5C" fill-rule="evenodd" fill-opacity="1"/><text fill="#FFFFFF" fill-opacity="1" font-family="DengXian,DengXian_MSFontService,sans-serif" font-style="normal" font-variant="normal" font-weight="400" font-stretch="normal" font-size="78" text-anchor="start" direction="ltr" writing-mode="lr-tb" unicode-bidi="normal" text-decoration="none" transform="matrix(1 0 0 1 2473.81 1089)">选取相应的执行程序</text><path d="M2869.8 1279 2869.8 1348 2903 1348 2820 1417 2737 1348 2770.2 1348 2770.2 1279Z" fill="#C48170" fill-rule="evenodd" fill-opacity="1"/><path d="M2361.5 1477.4C2361.5 1457.02 2378.02 1440.5 2398.4 1440.5L3242.6 1440.5C3262.98 1440.5 3279.5 1457.02 3279.5 1477.4L3279.5 1772.6C3279.5 1792.98 3262.98 1809.5 3242.6 1809.5L2398.4 1809.5C2378.02 1809.5 2361.5 1792.98 2361.5 1772.6Z" stroke="#FFFFFF" stroke-width="4.58333" stroke-linecap="butt" stroke-linejoin="miter" stroke-miterlimit="8" stroke-opacity="1" fill="#B98A82" fill-rule="evenodd" fill-opacity="1"/><text fill="#FFFFFF" fill-opacity="1" font-family="DengXian,DengXian_MSFontService,sans-serif" font-style="normal" font-variant="normal" font-weight="400" font-stretch="normal" font-size="78" text-anchor="start" direction="ltr" writing-mode="lr-tb" unicode-bidi="normal" text-decoration="none" transform="matrix(1 0 0 1 2395.39 1596)">次序改变前后两个表达</text><text fill="#FFFFFF" fill-opacity="1" font-family="DengXian,DengXian_MSFontService,sans-serif" font-style="normal" font-variant="normal" font-weight="400" font-stretch="normal" font-size="78" text-anchor="start" direction="ltr" writing-mode="lr-tb" unicode-bidi="normal" text-decoration="none" transform="matrix(1 0 0 1 3168.14 1596)">式</text><text fill="#FFFFFF" fill-opacity="1" font-family="DengXian,DengXian_MSFontService,sans-serif" font-style="normal" font-variant="normal" font-weight="400" font-stretch="normal" font-size="78" text-anchor="start" direction="ltr" writing-mode="lr-tb" unicode-bidi="normal" text-decoration="none" transform="matrix(1 0 0 1 2589.04 1691)">的等价性问题</text><path d="M2869.8 1833 2869.8 1902 2903 1902 2820 1971 2737 1902 2770.2 1902 2770.2 1833Z" fill="#A5A5A5" fill-rule="evenodd" fill-opacity="1"/><path d="M2361.5 2031.4C2361.5 2011.02 2378.02 1994.5 2398.4 1994.5L3242.6 1994.5C3262.98 1994.5 3279.5 2011.02 3279.5 2031.4L3279.5 2326.6C3279.5 2346.98 3262.98 2363.5 3242.6 2363.5L2398.4 2363.5C2378.02 2363.5 2361.5 2346.98 2361.5 2326.6Z" stroke="#FFFFFF" stroke-width="4.58333" stroke-linecap="butt" stroke-linejoin="miter" stroke-miterlimit="8" stroke-opacity="1" fill="#A5A5A5" fill-rule="evenodd" fill-opacity="1"/><text fill="#FFFFFF" fill-opacity="1" font-family="DengXian,DengXian_MSFontService,sans-serif" font-style="normal" font-variant="normal" font-weight="400" font-stretch="normal" font-size="78" text-anchor="start" direction="ltr" writing-mode="lr-tb" unicode-bidi="normal" text-decoration="none" transform="matrix(1 0 0 1 2395.55 2102)">形成查询计划：以基本的</text><text fill="#FFFFFF" fill-opacity="1" font-family="DengXian,DengXian_MSFontService,sans-serif" font-style="normal" font-variant="normal" font-weight="400" font-stretch="normal" font-size="78" text-anchor="start" direction="ltr" writing-mode="lr-tb" unicode-bidi="normal" text-decoration="none" transform="matrix(1 0 0 1 2395.55 2197)">例行程序为基本，确定这</text><text fill="#FFFFFF" fill-opacity="1" font-family="DengXian,DengXian_MSFontService,sans-serif" font-style="normal" font-variant="normal" font-weight="400" font-stretch="normal" font-size="78" text-anchor="start" direction="ltr" writing-mode="lr-tb" unicode-bidi="normal" text-decoration="none" transform="matrix(1 0 0 1 2434.63 2292)">些例行程序的执行</text><text fill="#FFFFFF" fill-opacity="1" font-family="DengXian,DengXian_MSFontService,sans-serif" font-style="normal" font-variant="normal" font-weight="400" font-stretch="normal" font-size="78" text-anchor="start" direction="ltr" writing-mode="lr-tb" unicode-bidi="normal" text-decoration="none" transform="matrix(1 0 0 1 3052.46 2292)">顺序</text><text fill="#000000" fill-opacity="1" font-family="DengXian,DengXian_MSFontService,sans-serif" font-style="normal" font-variant="normal" font-weight="400" font-stretch="normal" font-size="128" text-anchor="start" direction="ltr" writing-mode="lr-tb" unicode-bidi="normal" text-decoration="none" transform="matrix(1 0 0 1 2417.35 247)">物理查询优化</text><path d="M3313.5 1071 3477.5 907 3477.5 989 3543.25 989 3543.25 618.5 3969.5 618.5 3969.5 1523.5 3543.25 1523.5 3543.25 1153 3477.5 1153 3477.5 1235Z" stroke="#64310F" stroke-width="4.58333" stroke-linecap="butt" stroke-linejoin="miter" stroke-miterlimit="8" stroke-opacity="1" fill="#ED7D31" fill-rule="evenodd" fill-opacity="1"/><text fill="#FFFFFF" fill-opacity="1" font-family="DengXian,DengXian_MSFontService,sans-serif" font-style="normal" font-variant="normal" font-weight="400" font-stretch="normal" font-size="83" text-anchor="start" direction="ltr" writing-mode="lr-tb" unicode-bidi="normal" text-decoration="none" transform="matrix(1 0 0 1 3591.27 949)">同一个关</text><text fill="#FFFFFF" fill-opacity="1" font-family="DengXian,DengXian_MSFontService,sans-serif" font-style="normal" font-variant="normal" font-weight="400" font-stretch="normal" font-size="83" text-anchor="start" direction="ltr" writing-mode="lr-tb" unicode-bidi="normal" text-decoration="none" transform="matrix(1 0 0 1 3591.27 1048)">系操作，</text><text fill="#FFFFFF" fill-opacity="1" font-family="DengXian,DengXian_MSFontService,sans-serif" font-style="normal" font-variant="normal" font-weight="400" font-stretch="normal" font-size="83" text-anchor="start" direction="ltr" writing-mode="lr-tb" unicode-bidi="normal" text-decoration="none" transform="matrix(1 0 0 1 3591.27 1147)">对应多个</text><text fill="#FFFFFF" fill-opacity="1" font-family="DengXian,DengXian_MSFontService,sans-serif" font-style="normal" font-variant="normal" font-weight="400" font-stretch="normal" font-size="83" text-anchor="start" direction="ltr" writing-mode="lr-tb" unicode-bidi="normal" text-decoration="none" transform="matrix(1 0 0 1 3591.27 1246)">执行程序</text></g></g></svg>