<svg xmlns="http://www.w3.org/2000/svg" xml:space="preserve" width="2745" height="1770" overflow="hidden"><path fill="#0c9" fill-rule="evenodd" d="m1905 334.5-22.31-43.5v21.874H1816v43.5h66.69V378z"/><path fill="none" stroke="#000" stroke-linejoin="round" stroke-miterlimit="10" stroke-width="3.438" d="M1883.19 291.5v21.874h-66.69v43.5h66.69V378.5l22.31-43.5z"/><path fill="#0c9" fill-rule="evenodd" d="m1905 531.5-22.31-43.5v21.626H1816v43.504h66.69V575z"/><path fill="none" stroke="#000" stroke-linejoin="round" stroke-miterlimit="10" stroke-width="3.438" d="M1883.19 488.5v21.626h-66.69v43.504h66.69v21.87l22.31-43.5z"/><path fill="#0c9" fill-rule="evenodd" d="m1905 732.5-22.31-43.5v21.87H1816v43.5h66.69V776z"/><path fill="none" stroke="#000" stroke-linejoin="round" stroke-miterlimit="10" stroke-width="3.438" d="M1883.19 689.5v21.87h-66.69v43.5h66.69v21.63l22.31-43.5z"/><path fill="#0c9" fill-rule="evenodd" d="m1905 925-22.31-44v22.13H1816v44h66.69V969z"/><path fill="none" stroke="#000" stroke-linejoin="round" stroke-miterlimit="10" stroke-width="3.438" d="M1883.19 881.5v22.13h-66.69v44h66.69v21.87l22.31-44z"/><path fill="none" stroke="#000" stroke-linejoin="round" stroke-miterlimit="10" stroke-width="3.987" d="M1857 33v996.98"/><path fill="#0c9" fill-rule="evenodd" d="M1896.96 1503.37v-43.5h-74.97V1438l-24.99 43.5 24.99 43.5v-21.63z"/><path fill="none" stroke="#000" stroke-linejoin="round" stroke-miterlimit="10" stroke-width="3.438" d="M1822.49 1438.5v21.87h74.97v43.5h-74.97v21.63l-24.99-43.5z"/><path fill="none" stroke="#000" stroke-linejoin="round" stroke-miterlimit="10" stroke-width="3.987" d="M1857 1160v407.87M1857 1698v67.9"/><text font-family="Lantinghei SC,Lantinghei SC_MSFontService,sans-serif" font-size="83" font-weight="900" transform="translate(1620.11 144)">磁</text><text font-family="Lantinghei SC,Lantinghei SC_MSFontService,sans-serif" font-size="83" font-weight="900" transform="translate(1702.35 144)">盘</text><text font-family="Lantinghei SC,Lantinghei SC_MSFontService,sans-serif" font-size="83" font-weight="900" transform="translate(1947.82 144)">内</text><text font-family="Lantinghei SC,Lantinghei SC_MSFontService,sans-serif" font-size="83" font-weight="900" transform="translate(2030.06 144)">存</text><path fill="none" stroke="#00b050" stroke-linejoin="round" stroke-miterlimit="10" stroke-width="4.583" d="M637.62 261.313v147.348M1216.16 261.313v147.348M65.313 261.313v147.348M1786.59 261.313v147.348M63.021 263.605H1788.88M63.021 406.37H1788.88"/><text font-family="DengXian,DengXian_MSFontService,sans-serif" font-size="69" font-weight="400" transform="translate(1680.64 362)">05</text><text font-family="DengXian,DengXian_MSFontService,sans-serif" font-size="69" font-weight="400" transform="translate(1569.25 362)">08</text><text font-family="DengXian,DengXian_MSFontService,sans-serif" font-size="69" font-weight="400" transform="translate(1457.87 362)">11</text><text font-family="DengXian,DengXian_MSFontService,sans-serif" font-size="69" font-weight="400" transform="translate(1255.57 362)">28 </text><text font-family="DengXian,DengXian_MSFontService,sans-serif" font-size="69" font-weight="400" transform="translate(1346.67 362)">15</text><text font-family="DengXian,DengXian_MSFontService,sans-serif" font-size="69" font-weight="400" transform="translate(1113.53 361)">32</text><text font-family="DengXian,DengXian_MSFontService,sans-serif" font-size="69" font-weight="400" transform="translate(1002.14 361)">43</text><text font-family="DengXian,DengXian_MSFontService,sans-serif" font-size="69" font-weight="400" transform="translate(890.76 361)">58</text><text font-family="DengXian,DengXian_MSFontService,sans-serif" font-size="69" font-weight="400" transform="translate(779.37 361)">60</text><text font-family="DengXian,DengXian_MSFontService,sans-serif" font-size="69" font-weight="400" transform="translate(669.01 361)">70</text><text font-family="DengXian,DengXian_MSFontService,sans-serif" font-size="69" font-weight="400" transform="translate(537.48 361)">75</text><text font-family="DengXian,DengXian_MSFontService,sans-serif" font-size="69" font-weight="400" transform="translate(426.1 361)">80</text><text font-family="DengXian,DengXian_MSFontService,sans-serif" font-size="69" font-weight="400" transform="translate(314.71 361)">82</text><text font-family="DengXian,DengXian_MSFontService,sans-serif" font-size="69" font-weight="400" transform="translate(203.328 361)">86</text><text font-family="DengXian,DengXian_MSFontService,sans-serif" font-size="69" font-weight="400" transform="translate(92.583 361)">90</text><path fill="none" stroke="#00b050" stroke-linejoin="round" stroke-miterlimit="10" stroke-width="4.583" d="M637.7 664.55v147.34M1216.45 664.55v147.34M64.564 664.55v147.34M1786.67 664.55v147.34M62.272 666.84H1788.96M62.272 809.6H1788.96"/><text font-family="DengXian,DengXian_MSFontService,sans-serif" font-size="69" font-weight="400" transform="translate(1689.66 765)">10</text><text font-family="DengXian,DengXian_MSFontService,sans-serif" font-size="69" font-weight="400" transform="translate(1578.48 765)">13</text><text font-family="DengXian,DengXian_MSFontService,sans-serif" font-size="69" font-weight="400" transform="translate(1467.3 765)">16</text><text font-family="DengXian,DengXian_MSFontService,sans-serif" font-size="69" font-weight="400" transform="translate(1356.12 765)">19</text><text font-family="DengXian,DengXian_MSFontService,sans-serif" font-size="69" font-weight="400" transform="translate(1245.78 765)">29</text><text font-family="DengXian,DengXian_MSFontService,sans-serif" font-size="69" font-weight="400" transform="translate(1113.61 764)">31</text><text font-family="DengXian,DengXian_MSFontService,sans-serif" font-size="69" font-weight="400" transform="translate(1002.23 764)">34</text><text font-family="DengXian,DengXian_MSFontService,sans-serif" font-size="69" font-weight="400" transform="translate(890.84 764)">38</text><text font-family="DengXian,DengXian_MSFontService,sans-serif" font-size="69" font-weight="400" transform="translate(779.45 764)">42</text><text font-family="DengXian,DengXian_MSFontService,sans-serif" font-size="69" font-weight="400" transform="translate(669.09 764)">50</text><text font-family="DengXian,DengXian_MSFontService,sans-serif" font-size="69" font-weight="400" transform="translate(537.57 764)">52</text><text font-family="DengXian,DengXian_MSFontService,sans-serif" font-size="69" font-weight="400" transform="translate(426.18 764)">62</text><text font-family="DengXian,DengXian_MSFontService,sans-serif" font-size="69" font-weight="400" transform="translate(314.8 764)">72</text><text font-family="DengXian,DengXian_MSFontService,sans-serif" font-size="69" font-weight="400" transform="translate(203.411 764)">78</text><text font-family="DengXian,DengXian_MSFontService,sans-serif" font-size="69" font-weight="400" transform="translate(92.752 764)">80</text><path fill="none" stroke="#00b050" stroke-linejoin="round" stroke-miterlimit="10" stroke-width="4.583" d="M637.62 866.04v147.34M1216.36 866.04v147.34M65.313 866.04v147.34M1786.59 866.04v147.34M63.021 868.33H1788.88M63.021 1011.09H1788.88"/><text font-family="DengXian,DengXian_MSFontService,sans-serif" font-size="69" font-weight="400" transform="translate(1689.57 967)">08</text><text font-family="DengXian,DengXian_MSFontService,sans-serif" font-size="69" font-weight="400" transform="translate(1578.4 967)">09</text><text font-family="DengXian,DengXian_MSFontService,sans-serif" font-size="69" font-weight="400" transform="translate(1467.22 967)">15</text><text font-family="DengXian,DengXian_MSFontService,sans-serif" font-size="69" font-weight="400" transform="translate(1356.04 967)">20</text><text font-family="DengXian,DengXian_MSFontService,sans-serif" font-size="69" font-weight="400" transform="translate(1245.7 967)">25</text><text font-family="DengXian,DengXian_MSFontService,sans-serif" font-size="69" font-weight="400" transform="translate(1113.53 967)">35</text><text font-family="DengXian,DengXian_MSFontService,sans-serif" font-size="69" font-weight="400" transform="translate(1002.14 967)">38</text><text font-family="DengXian,DengXian_MSFontService,sans-serif" font-size="69" font-weight="400" transform="translate(890.76 967)">42</text><text font-family="DengXian,DengXian_MSFontService,sans-serif" font-size="69" font-weight="400" transform="translate(779.37 967)">45</text><text font-family="DengXian,DengXian_MSFontService,sans-serif" font-size="69" font-weight="400" transform="translate(669.01 967)">60</text><text font-family="DengXian,DengXian_MSFontService,sans-serif" font-size="69" font-weight="400" transform="translate(537.48 966)">62</text><text font-family="DengXian,DengXian_MSFontService,sans-serif" font-size="69" font-weight="400" transform="translate(426.1 966)">64</text><text font-family="DengXian,DengXian_MSFontService,sans-serif" font-size="69" font-weight="400" transform="translate(314.71 966)">68</text><text font-family="DengXian,DengXian_MSFontService,sans-serif" font-size="69" font-weight="400" transform="translate(203.328 966)">70</text><text font-family="DengXian,DengXian_MSFontService,sans-serif" font-size="69" font-weight="400" transform="translate(92.583 966)">72</text><path fill="#ffffef" d="M1683 1568h324v113h-324z"/><text font-family="Lantinghei SC,Lantinghei SC_MSFontService,sans-serif" font-size="83" font-weight="900" transform="translate(1707.25 1652)">写磁盘</text><path fill="#ffffef" d="M1683 1030h318v113h-318z"/><text font-family="Lantinghei SC,Lantinghei SC_MSFontService,sans-serif" font-size="83" font-weight="900" transform="translate(1718.25 1114)">读磁盘</text><path fill="none" stroke="#00b050" stroke-linejoin="round" stroke-miterlimit="10" stroke-width="4.583" d="M640.19 458.877V606.22M1213.33 458.877V606.22M64.565 458.877V606.22M1786.26 458.877V606.22M62.273 461.169H1788.55M62.273 603.93H1788.55"/><text font-family="DengXian,DengXian_MSFontService,sans-serif" font-size="69" font-weight="400" transform="translate(1689.03 559)">03</text><text font-family="DengXian,DengXian_MSFontService,sans-serif" font-size="69" font-weight="400" transform="translate(1577.86 559)">04</text><text font-family="DengXian,DengXian_MSFontService,sans-serif" font-size="69" font-weight="400" transform="translate(1466.7 559)">06</text><text font-family="DengXian,DengXian_MSFontService,sans-serif" font-size="69" font-weight="400" transform="translate(1355.08 559)">08</text><text font-family="DengXian,DengXian_MSFontService,sans-serif" font-size="69" font-weight="400" transform="translate(1244.95 559)">08</text><text font-family="DengXian,DengXian_MSFontService,sans-serif" font-size="69" font-weight="400" transform="translate(1113.2 559)">09</text><text font-family="DengXian,DengXian_MSFontService,sans-serif" font-size="69" font-weight="400" transform="translate(1002.02 559)">10</text><text font-family="DengXian,DengXian_MSFontService,sans-serif" font-size="69" font-weight="400" transform="translate(890.84 559)">18</text><text font-family="DengXian,DengXian_MSFontService,sans-serif" font-size="69" font-weight="400" transform="translate(779.66 559)">20</text><text font-family="DengXian,DengXian_MSFontService,sans-serif" font-size="69" font-weight="400" transform="translate(669.3 559)">24</text><text font-family="DengXian,DengXian_MSFontService,sans-serif" font-size="69" font-weight="400" transform="translate(537.57 558)">27</text><text font-family="DengXian,DengXian_MSFontService,sans-serif" font-size="69" font-weight="400" transform="translate(426.18 558)">30</text><text font-family="DengXian,DengXian_MSFontService,sans-serif" font-size="69" font-weight="400" transform="translate(314.8 558)">35</text><text font-family="DengXian,DengXian_MSFontService,sans-serif" font-size="69" font-weight="400" transform="translate(203.411 558)">45</text><text font-family="DengXian,DengXian_MSFontService,sans-serif" font-size="69" font-weight="400" transform="translate(92.752 558)">55</text><path fill="none" stroke="#00b050" stroke-linejoin="round" stroke-miterlimit="10" stroke-width="4.583" d="M1928.61 407.928h580M1928.61 467.154h580M1928.61 609.92h580M1928.61 667.9h580M1928.61 810.66h580M1928.61 869.05h580M1930.9 262.872V410.22M1930.9 464.862V612.21M1930.9 665.6v147.35M1930.9 866.76v147.35M2506.32 262.872V410.22M2506.32 464.862V612.21M2506.32 665.6v147.35M2506.32 866.76v147.35M1928.61 265.164h580M1928.61 1011.82h580"/><text font-family="Arial,Arial_MSFontService,sans-serif" font-size="69" font-weight="400" transform="translate(2408.38 365)">05</text><text font-family="Arial,Arial_MSFontService,sans-serif" font-size="69" font-weight="400" transform="translate(2295.03 365)">08</text><text font-family="Arial,Arial_MSFontService,sans-serif" font-size="69" font-weight="400" transform="translate(2185.58 365)">11</text><text font-family="Arial,Arial_MSFontService,sans-serif" font-size="69" font-weight="400" transform="translate(2067.82 365)">15</text><text font-family="Arial,Arial_MSFontService,sans-serif" font-size="69" font-weight="400" transform="translate(1957.48 365)">28</text><text font-family="Arial,Arial_MSFontService,sans-serif" font-size="69" font-weight="400" transform="translate(2407.58 567)">03</text><text font-family="Arial,Arial_MSFontService,sans-serif" font-size="69" font-weight="400" transform="translate(2292.74 567)">04</text><text font-family="Arial,Arial_MSFontService,sans-serif" font-size="69" font-weight="400" transform="translate(2178.18 567)">06</text><text font-family="Arial,Arial_MSFontService,sans-serif" font-size="69" font-weight="400" transform="translate(2065.53 567)">08</text><text font-family="Arial,Arial_MSFontService,sans-serif" font-size="69" font-weight="400" transform="translate(1956.34 567)">08</text><text font-family="Arial,Arial_MSFontService,sans-serif" font-size="69" font-weight="400" transform="translate(2408.15 768)">10</text><text font-family="Arial,Arial_MSFontService,sans-serif" font-size="69" font-weight="400" transform="translate(2295.03 768)">13</text><text font-family="Arial,Arial_MSFontService,sans-serif" font-size="69" font-weight="400" transform="translate(2180.47 768)">16</text><text font-family="Arial,Arial_MSFontService,sans-serif" font-size="69" font-weight="400" transform="translate(2067.82 768)">19</text><text font-family="Arial,Arial_MSFontService,sans-serif" font-size="69" font-weight="400" transform="translate(1957.48 768)">29</text><text font-family="Arial,Arial_MSFontService,sans-serif" font-size="69" font-weight="400" transform="translate(2408.15 969)">08</text><text font-family="Arial,Arial_MSFontService,sans-serif" font-size="69" font-weight="400" transform="translate(2295.03 969)">09</text><text font-family="Arial,Arial_MSFontService,sans-serif" font-size="69" font-weight="400" transform="translate(2180.47 969)">15</text><text font-family="Arial,Arial_MSFontService,sans-serif" font-size="69" font-weight="400" transform="translate(2067.82 969)">20</text><text font-family="Arial,Arial_MSFontService,sans-serif" font-size="69" font-weight="400" transform="translate(1957.48 969)">25</text><text font-family="SimHei,SimHei_MSFontService,sans-serif" font-size="110" font-weight="400" transform="translate(68.689 147)">两阶段多路归并排序</text><text font-family="SimHei,SimHei_MSFontService,sans-serif" font-size="110" font-weight="400" transform="translate(1051.26 147)">TPMMS</text><path fill="#fff" stroke="#70ad47" stroke-miterlimit="8" stroke-width="4.583" d="M2573.5 264.5h156v747h-156z"/><text font-family="DengXian,DengXian_MSFontService,sans-serif" font-size="83" font-weight="400" transform="translate(2607.37 368)">05</text><text font-family="DengXian,DengXian_MSFontService,sans-serif" font-size="83" font-weight="400" transform="translate(2607.37 566)">03</text><text font-family="DengXian,DengXian_MSFontService,sans-serif" font-size="83" font-weight="400" transform="translate(2607.37 764)">10</text><text font-family="DengXian,DengXian_MSFontService,sans-serif" font-size="83" font-weight="400" transform="translate(2607.37 962)">0</text><text font-family="DengXian,DengXian_MSFontService,sans-serif" font-size="83" font-weight="400" transform="translate(2650.92 962)">8</text><path fill="#fff" stroke="#70ad47" stroke-miterlimit="8" stroke-width="4.583" d="M1998.5 1425.5h575v113h-575z"/><text font-family="DengXian,DengXian_MSFontService,sans-serif" font-size="83" font-weight="400" transform="translate(2030.81 1509)">03</text><path fill="#fff" stroke="#70ad47" stroke-miterlimit="8" stroke-width="4.583" d="M1045.5 1424.5h576v113h-576z"/><text font-family="DengXian,DengXian_MSFontService,sans-serif" font-size="73" font-weight="400" transform="translate(1078.24 1505)">03</text><text font-family="DengXian,DengXian_MSFontService,sans-serif" font-size="73" font-weight="400" transform="translate(1175.06 1505)">04</text><text font-family="DengXian,DengXian_MSFontService,sans-serif" font-size="73" font-weight="400" transform="translate(1271.88 1505)">05</text><text font-family="DengXian,DengXian_MSFontService,sans-serif" font-size="73" font-weight="400" transform="translate(1368.7 1505)">06</text><text font-family="DengXian,DengXian_MSFontService,sans-serif" font-size="73" font-weight="400" transform="translate(1465.53 1505)">08</text></svg>