<svg xmlns="http://www.w3.org/2000/svg" xml:space="preserve" width="3598" height="2414" overflow="hidden"><path fill="none" stroke="#000" stroke-linejoin="round" stroke-miterlimit="10" stroke-width="4.583" d="M762.88 208.534V1952.38M1.634 343.793H1524.12M1.634 775.936H1524.12M1.634 1208.08H1524.12M1.634 1540.5H1524.12M3.926 208.534V1952.38M1521.83 208.534V1952.38M1.634 210.826H1524.12M1.634 1950.08H1524.12"/><text font-family="DengXian,DengXian_MSFontService,sans-serif" font-size="83" font-weight="400" transform="translate(1099.1 304)">T2</text><text font-family="DengXian,DengXian_MSFontService,sans-serif" font-size="83" font-weight="400" transform="translate(340.147 304)">T1</text><text font-family="DengXian,DengXian_MSFontService,sans-serif" font-size="83" font-weight="400" transform="translate(36.926 437)">L(A); t = Read(A)</text><text font-family="DengXian,DengXian_MSFontService,sans-serif" font-size="83" font-weight="400" transform="translate(36.926 536)">t = t + 1;</text><text font-family="DengXian,DengXian_MSFontService,sans-serif" font-size="83" font-weight="400" transform="translate(36.926 635)">Write(A, t); U(A);</text><text font-family="DengXian,DengXian_MSFontService,sans-serif" font-size="83" font-weight="400" transform="translate(36.926 734)">L(B);</text><text font-family="DengXian,DengXian_MSFontService,sans-serif" font-size="83" font-weight="400" transform="translate(795.879 869)">L(A); s = READ(A);</text><text font-family="DengXian,DengXian_MSFontService,sans-serif" font-size="83" font-weight="400" transform="translate(795.879 968)">s = s * 2</text><text font-family="DengXian,DengXian_MSFontService,sans-serif" font-size="83" font-weight="400" transform="translate(795.879 1067)">Write(A, s); U(A);</text><text font-family="DengXian,DengXian_MSFontService,sans-serif" font-size="83" font-weight="400" transform="translate(795.879 1166)">L(B);  </text><text fill="red" font-family="DengXian,DengXian_MSFontService,sans-serif" font-size="83" font-weight="700" transform="translate(991.24 1166)">拒绝</text><text font-family="DengXian,DengXian_MSFontService,sans-serif" font-size="83" font-weight="400" transform="translate(36.926 1302)">Read(B, t);</text><text font-family="DengXian,DengXian_MSFontService,sans-serif" font-size="83" font-weight="400" transform="translate(36.926 1401)">t = t +5;</text><text font-family="DengXian,DengXian_MSFontService,sans-serif" font-size="83" font-weight="400" transform="translate(36.926 1500)">Write(B, t); U(B);</text><text font-family="DengXian,DengXian_MSFontService,sans-serif" font-size="83" font-weight="400" transform="translate(795.879 1634)">L(B); s = Read(B);</text><text font-family="DengXian,DengXian_MSFontService,sans-serif" font-size="83" font-weight="400" transform="translate(795.879 1733)">s = s </text><text font-family="DengXian,DengXian_MSFontService,sans-serif" font-size="83" font-weight="400" transform="translate(985.51 1733)">*</text><text font-family="DengXian,DengXian_MSFontService,sans-serif" font-size="83" font-weight="400" transform="translate(1041.66 1733)">2;</text><text font-family="DengXian,DengXian_MSFontService,sans-serif" font-size="83" font-weight="400" transform="translate(795.879 1832)">Write(B); U(B);</text><text font-family="SimHei,SimHei_MSFontService,sans-serif" font-size="128" font-weight="400" transform="translate(114.624 170)">用锁保证冲突可串行性</text><path fill="none" stroke="#000" stroke-linejoin="round" stroke-miterlimit="10" stroke-width="4.583" d="M2694.54 208.535V2004.27M1933.29 342.826h1522.49m-1522.49 405.15h1522.49M1933.29 1671.98h1522.49M1935.58 208.535V2004.27M3453.49 208.535V2004.27M1933.29 210.826h1522.49M1933.29 2001.98h1522.49"/><text font-family="DengXian,DengXian_MSFontService,sans-serif" font-size="83" font-weight="400" transform="translate(3030.76 304)">T2</text><text font-family="DengXian,DengXian_MSFontService,sans-serif" font-size="83" font-weight="400" transform="translate(2271.8 304)">T1</text><text font-family="DengXian,DengXian_MSFontService,sans-serif" font-size="83" font-weight="400" transform="translate(1968.58 436)">L(A); t = Read(A)</text><text font-family="DengXian,DengXian_MSFontService,sans-serif" font-size="83" font-weight="400" transform="translate(1968.58 535)">t = t + 1;</text><text font-family="DengXian,DengXian_MSFontService,sans-serif" font-size="83" font-weight="400" transform="translate(1968.58 634)">Write(A, t); U(A);</text><text font-family="DengXian,DengXian_MSFontService,sans-serif" font-size="83" font-weight="400" transform="translate(2727.54 841)">L(A); s = READ(A);</text><text font-family="DengXian,DengXian_MSFontService,sans-serif" font-size="83" font-weight="400" transform="translate(2727.54 940)">s = s * 2</text><text font-family="DengXian,DengXian_MSFontService,sans-serif" font-size="83" font-weight="400" transform="translate(2727.54 1039)">Write(A, s); U(A);</text><text font-family="DengXian,DengXian_MSFontService,sans-serif" font-size="83" font-weight="400" transform="translate(2727.54 1138)">L(B); </text><text font-family="DengXian,DengXian_MSFontService,sans-serif" font-size="83" font-weight="400" transform="translate(2727.54 1336)">L(B); s = Read(B);</text><text font-family="DengXian,DengXian_MSFontService,sans-serif" font-size="83" font-weight="400" transform="translate(2727.54 1435)">s = s </text><text font-family="DengXian,DengXian_MSFontService,sans-serif" font-size="83" font-weight="400" transform="translate(2917.17 1435)">*</text><text font-family="DengXian,DengXian_MSFontService,sans-serif" font-size="83" font-weight="400" transform="translate(2973.32 1435)">2;</text><text font-family="DengXian,DengXian_MSFontService,sans-serif" font-size="83" font-weight="400" transform="translate(2727.54 1534)">Write(B); U(B);</text><text font-family="DengXian,DengXian_MSFontService,sans-serif" font-size="83" font-weight="400" transform="translate(1968.58 1765)">L(B);</text><text font-family="DengXian,DengXian_MSFontService,sans-serif" font-size="83" font-weight="400" transform="translate(2141.6 1765)">Read(B, t);</text><text font-family="DengXian,DengXian_MSFontService,sans-serif" font-size="83" font-weight="400" transform="translate(1968.58 1864)">t = t +5;</text><text font-family="DengXian,DengXian_MSFontService,sans-serif" font-size="83" font-weight="400" transform="translate(1968.58 1963)">Write(B, t); U(B);</text><text font-family="SimHei,SimHei_MSFontService,sans-serif" font-size="128" font-weight="400" transform="translate(1851.9 170)">用锁无法保证的冲突可串行性</text><path fill="#70ad47" fill-rule="evenodd" stroke="#2b4719" stroke-miterlimit="8" stroke-width="4.583" d="M367.5 2167.5c0-61.86 50.144-112 112-112s112 50.14 112 112-50.144 112-112 112-112-50.14-112-112Z"/><text fill="#fff" font-family="DengXian,DengXian_MSFontService,sans-serif" font-size="83" font-weight="400" transform="translate(435.87 2194)">T1</text><path fill="#70ad47" fill-rule="evenodd" stroke="#2b4719" stroke-miterlimit="8" stroke-width="4.583" d="M763.5 2167.5c0-61.86 50.144-112 112-112 61.86 0 112 50.14 112 112s-50.14 112-112 112c-61.856 0-112-50.14-112-112Z"/><text fill="#fff" font-family="DengXian,DengXian_MSFontService,sans-serif" font-size="83" font-weight="400" transform="translate(831.916 2194)">T2</text><path fill="#548235" d="m591 2160.12 137.088.01v13.75H591Zm130.213-13.74 41.25 20.62-41.25 20.63Z"/><path fill="#70ad47" fill-rule="evenodd" stroke="#2b4719" stroke-miterlimit="8" stroke-width="4.583" d="M2298.5 2212.5c0-61.86 50.37-112 112.5-112s112.5 50.14 112.5 112-50.37 112-112.5 112-112.5-50.14-112.5-112Z"/><text fill="#fff" font-family="DengXian,DengXian_MSFontService,sans-serif" font-size="83" font-weight="400" transform="translate(2367.53 2239)">T1</text><path fill="#70ad47" fill-rule="evenodd" stroke="#2b4719" stroke-miterlimit="8" stroke-width="4.583" d="M2695.5 2212.5c0-61.86 50.14-112 112-112s112 50.14 112 112-50.14 112-112 112-112-50.14-112-112Z"/><text fill="#fff" font-family="DengXian,DengXian_MSFontService,sans-serif" font-size="83" font-weight="400" transform="translate(2763.57 2239)">T2</text><path fill="#548235" d="m2523 2205.12 137.09.01v13.75H2523Zm130.21-13.74 41.25 20.62-41.25 20.63Zm82.89 98.05-.7 11.22-2.13 11.5-3.42 11.26-4.59 10.93-5.68 10.53-6.67 10.05-7.56 9.49-8.38 8.85-9.1 8.15-9.75 7.35-10.31 6.47-10.79 5.51-11.2 4.46-11.53 3.31-11.76 2.06-11.9.71-11.88-.68-11.74-1.98-11.51-3.17-11.18-4.27-10.79-5.29-10.3-6.21-9.75-7.06-9.11-7.83-8.38-8.51-7.58-9.13-6.68-9.67-5.96-10.61-2.16-8.16 13.3-3.52 1.93 7.32-.65-1.61 5.37 9.57-.34-.55 6.33 9.16-.37-.48 7.2 8.67-.39-.43 7.98 8.1-.42-.39 8.67 7.45-.44-.35 9.28 6.72-.49-.32 9.81 5.91-.53-.28 10.24 5.01-.57-.24 10.58 4.04-.62-.21 10.84 2.99-.68-.15 11.01 1.85-.74-.08 11.1.64h-.8l11.11-.67-.78.1 11.02-1.93-.71.16 10.85-3.11-.65.22 10.59-4.21-.59.26 10.24-5.23-.53.31 9.8-6.16-.48.33 9.28-7-.44.37 8.67-7.76-.41.4 7.98-8.44-.38.44 7.19-9.03-.35.48 6.33-9.53-.32.53 5.37-9.95-.29.6 4.33-10.3-.24.67 3.2-10.55-.18.74 1.98-10.72-.1.82.68-10.8Zm-254.21 49.15 10.11-45 29.93 35.09Z"/></svg>