<svg xmlns="http://www.w3.org/2000/svg" xml:space="preserve" width="3172" height="555" overflow="hidden"><path fill="#fff" fill-rule="evenodd" stroke="#172c51" stroke-miterlimit="8" stroke-width="4.583" d="M5.5 160.5c0-68.483 55.517-124 124-124s124 55.517 124 124-55.517 124-124 124-124-55.517-124-124Z"/><text font-family="DengXian,DengXian_MSFontService,sans-serif" font-size="128" font-weight="700" transform="translate(93.693 203)">1</text><path fill="#fff" fill-rule="evenodd" stroke="#172c51" stroke-miterlimit="8" stroke-width="4.583" d="M505.5 160.5c0-68.483 55.52-124 124-124s124 55.517 124 124-55.52 124-124 124-124-55.517-124-124Z"/><text font-family="DengXian,DengXian_MSFontService,sans-serif" font-size="128" font-weight="700" transform="translate(593.64 203)">2</text><path fill="#fff" fill-rule="evenodd" stroke="#172c51" stroke-miterlimit="8" stroke-width="4.583" d="M1005.5 160.5c0-68.483 55.52-124 124-124s124 55.517 124 124-55.52 124-124 124-124-55.517-124-124Z"/><text font-family="DengXian,DengXian_MSFontService,sans-serif" font-size="128" font-weight="700" transform="translate(1093.58 203)">3</text><path d="M253 165.156h225.735v-10.313H253Zm220.579 10.312L504.517 160l-30.938-15.47ZM753 165.156h225.735v-10.313H753Zm220.579 10.312L1004.517 160l-30.938-15.47Z"/><text font-family="DengXian,DengXian_MSFontService,sans-serif" font-size="92" font-weight="400" transform="translate(349.36 118)">B</text><text font-family="DengXian,DengXian_MSFontService,sans-serif" font-size="92" font-weight="400" transform="translate(850.85 118)">A</text><path fill="#fff" fill-rule="evenodd" stroke="#172c51" stroke-miterlimit="8" stroke-width="4.583" d="M1918.5 160.5c0-68.483 55.52-124 124-124s124 55.517 124 124-55.52 124-124 124-124-55.517-124-124Z"/><text font-family="DengXian,DengXian_MSFontService,sans-serif" font-size="128" font-weight="700" transform="translate(2006.33 203)">1</text><path fill="#fff" fill-rule="evenodd" stroke="#172c51" stroke-miterlimit="8" stroke-width="4.583" d="M2418.5 160.5c0-68.483 55.52-124 124-124s124 55.517 124 124-55.52 124-124 124-124-55.517-124-124Z"/><text font-family="DengXian,DengXian_MSFontService,sans-serif" font-size="128" font-weight="700" transform="translate(2506.28 203)">2</text><path fill="#fff" fill-rule="evenodd" stroke="#172c51" stroke-miterlimit="8" stroke-width="4.583" d="M2918.5 160.5c0-68.483 55.52-124 124-124s124 55.517 124 124-55.52 124-124 124-124-55.517-124-124Z"/><text font-family="DengXian,DengXian_MSFontService,sans-serif" font-size="128" font-weight="700" transform="translate(3006.22 203)">3</text><path d="M2166 165.156h225.735v-10.313H2166Zm220.579 10.312L2417.517 160l-30.938-15.47ZM2666 165.156h225.735v-10.313H2666Zm220.579 10.312L2917.517 160l-30.938-15.47Z"/><text font-family="DengXian,DengXian_MSFontService,sans-serif" font-size="92" font-weight="400" transform="translate(2262 118)">B</text><text font-family="DengXian,DengXian_MSFontService,sans-serif" font-size="92" font-weight="400" transform="translate(2763.49 118)">A</text><path d="m2459.43 248.217-.24 5.783-.75 5.972-1.22 5.926-1.67 5.867-2.11 5.796-2.53 5.714-2.91 5.623-3.34 5.581-7.62 10.645-8.97 10.197-10.17 9.614-11.24 8.956-12.19 8.221-13.02 7.406-13.75 6.506-14.36 5.524-14.85 4.453-15.22 3.295-15.5 2.045-15.63.702-15.64-.702-15.49-2.045-15.23-3.295-14.84-4.453-14.36-5.523-13.75-6.507-13.03-7.406-12.18-8.221-11.24-8.956-10.17-9.614-8.98-10.197-7.61-10.645-3.34-5.581-3.06-5.903-2.53-8.342 9.88-2.987 2.38 7.885-.36-.883 2.78 5.342-.15-.267 3.14 5.266-.23-.358 7.34 10.26-.32-.406 8.65 9.824-.33-.339 9.84 9.302-.33-.285 10.9 8.692-.33-.243 11.86 7.997-.34-.208 12.69 7.212-.34-.178 13.4 6.342-.36-.152 14 5.384-.38-.127 14.47 4.339-.39-.1 14.83 3.207-.42-.072 15.06 1.988-.44-.039 15.18.682h-.46l15.18-.682-.44.039 15.06-1.988-.42.072 14.83-3.207-.39.1 14.46-4.339-.37.127 14-5.384-.36.152 13.4-6.342-.34.178 12.69-7.212-.34.207 11.86-7.996-.33.243 10.9-8.693-.33.286 9.84-9.302-.33.339 8.65-9.824-.32.406 7.34-10.26-.23.357 3.14-5.266-.15.268 2.78-5.342-.14.293 2.38-5.407-.13.32 1.99-5.462-.11.347 1.57-5.505-.09.375 1.14-5.538-.07.4.7-5.56-.04.422.24-5.57Zm-337.77 33.352L2130 248l21.85 26.813Z"/><text font-family="DengXian,DengXian_MSFontService,sans-serif" font-size="92" font-weight="400" transform="translate(2265.76 475)">B</text></svg>