<svg xmlns="http://www.w3.org/2000/svg" xml:space="preserve" width="3543" height="2414" overflow="hidden"><path fill="none" stroke="#000" stroke-linejoin="round" stroke-miterlimit="10" stroke-width="4.583" d="M728.672 208.535V1939.73M45.125 342.826H1412.22m-1367.095 429H1412.22M45.125 1200.83H1412.22m-1367.095 330H1412.22M47.416 208.535V1939.73M1409.93 208.535V1939.73M45.125 210.826H1412.22M45.125 1937.43H1412.22"/><text font-family="DengXian,DengXian_MSFontService,sans-serif" font-size="83" font-weight="400" transform="translate(1026.04 304)">T2</text><text font-family="DengXian,DengXian_MSFontService,sans-serif" font-size="83" font-weight="400" transform="translate(344.789 304)">T1</text><text font-family="DengXian,DengXian_MSFontService,sans-serif" font-size="83" font-weight="400" transform="translate(80.416 436)">L(A); t = Read(A)</text><text font-family="DengXian,DengXian_MSFontService,sans-serif" font-size="83" font-weight="400" transform="translate(80.416 535)">t = t + 1;</text><text font-family="DengXian,DengXian_MSFontService,sans-serif" font-size="83" font-weight="400" transform="translate(80.416 634)">Write(A, t); U(A);</text><text font-family="DengXian,DengXian_MSFontService,sans-serif" font-size="83" font-weight="400" transform="translate(80.416 733)">L(B);</text><text font-family="DengXian,DengXian_MSFontService,sans-serif" font-size="83" font-weight="400" transform="translate(761.672 865)">L(A); s = READ(A);</text><text font-family="DengXian,DengXian_MSFontService,sans-serif" font-size="83" font-weight="400" transform="translate(761.672 964)">s = s * 2</text><text font-family="DengXian,DengXian_MSFontService,sans-serif" font-size="83" font-weight="400" transform="translate(761.672 1063)">Write(A, s); U(A);</text><text font-family="DengXian,DengXian_MSFontService,sans-serif" font-size="83" font-weight="400" transform="translate(761.672 1162)">L(B);  </text><text fill="red" font-family="DengXian,DengXian_MSFontService,sans-serif" font-size="83" font-weight="700" transform="translate(957.04 1162)">拒绝</text><text font-family="DengXian,DengXian_MSFontService,sans-serif" font-size="83" font-weight="400" transform="translate(80.416 1294)">Read(B, t);</text><text font-family="DengXian,DengXian_MSFontService,sans-serif" font-size="83" font-weight="400" transform="translate(80.416 1393)">t = t +5;</text><text font-family="DengXian,DengXian_MSFontService,sans-serif" font-size="83" font-weight="400" transform="translate(80.416 1492)">Write(B, t); U(B);</text><text font-family="DengXian,DengXian_MSFontService,sans-serif" font-size="83" font-weight="400" transform="translate(761.672 1624)">L(B); s = Read(B);</text><text font-family="DengXian,DengXian_MSFontService,sans-serif" font-size="83" font-weight="400" transform="translate(761.672 1723)">s = s </text><text font-family="DengXian,DengXian_MSFontService,sans-serif" font-size="83" font-weight="400" transform="translate(951.31 1723)">*</text><text font-family="DengXian,DengXian_MSFontService,sans-serif" font-size="83" font-weight="400" transform="translate(1007.45 1723)">2;</text><text font-family="DengXian,DengXian_MSFontService,sans-serif" font-size="83" font-weight="400" transform="translate(761.672 1822)">Write(B); U(B);</text><text font-family="SimHei,SimHei_MSFontService,sans-serif" font-size="128" font-weight="400" transform="translate(80.416 170)">用锁保证冲突可串行性</text><path fill="none" stroke="#000" stroke-linejoin="round" stroke-miterlimit="10" stroke-width="4.583" d="M2635.34 208.534V2020.03M1951.79 342.826h1367.1m-1367.1 420.909h1367.1m-1367.1 923.995h1367.1M1954.08 208.534V2020.03M3316.59 208.534V2020.03M1951.79 210.826h1367.1M1951.79 2017.73h1367.1"/><text font-family="DengXian,DengXian_MSFontService,sans-serif" font-size="83" font-weight="400" transform="translate(2932.71 304)">T2</text><text font-family="DengXian,DengXian_MSFontService,sans-serif" font-size="83" font-weight="400" transform="translate(2251.46 304)">T1</text><text font-family="DengXian,DengXian_MSFontService,sans-serif" font-size="83" font-weight="400" transform="translate(1987.08 436)">L(A); t = Read(A)</text><text font-family="DengXian,DengXian_MSFontService,sans-serif" font-size="83" font-weight="400" transform="translate(1987.08 535)">t = t + 1;</text><text font-family="DengXian,DengXian_MSFontService,sans-serif" font-size="83" font-weight="400" transform="translate(1987.08 634)">Write(A, t); U(A);</text><text font-family="DengXian,DengXian_MSFontService,sans-serif" font-size="83" font-weight="400" transform="translate(2668.34 857)">L(A); s = READ(A);</text><text font-family="DengXian,DengXian_MSFontService,sans-serif" font-size="83" font-weight="400" transform="translate(2668.34 956)">s = s * 2</text><text font-family="DengXian,DengXian_MSFontService,sans-serif" font-size="83" font-weight="400" transform="translate(2668.34 1055)">Write(A, s); U(A);</text><text font-family="DengXian,DengXian_MSFontService,sans-serif" font-size="83" font-weight="400" transform="translate(2668.34 1154)">L(B); </text><text font-family="DengXian,DengXian_MSFontService,sans-serif" font-size="83" font-weight="400" transform="translate(2668.34 1352)">L(B); s = Read(B);</text><text font-family="DengXian,DengXian_MSFontService,sans-serif" font-size="83" font-weight="400" transform="translate(2668.34 1451)">s = s </text><text font-family="DengXian,DengXian_MSFontService,sans-serif" font-size="83" font-weight="400" transform="translate(2857.97 1451)">*</text><text font-family="DengXian,DengXian_MSFontService,sans-serif" font-size="83" font-weight="400" transform="translate(2914.12 1451)">2;</text><text font-family="DengXian,DengXian_MSFontService,sans-serif" font-size="83" font-weight="400" transform="translate(2668.34 1550)">Write(B); U(B);</text><text font-family="DengXian,DengXian_MSFontService,sans-serif" font-size="83" font-weight="400" transform="translate(1987.08 1781)">L(B);</text><text font-family="DengXian,DengXian_MSFontService,sans-serif" font-size="83" font-weight="400" transform="translate(2160.1 1781)">Read(B, t);</text><text font-family="DengXian,DengXian_MSFontService,sans-serif" font-size="83" font-weight="400" transform="translate(1987.08 1880)">t = t +5;</text><text font-family="DengXian,DengXian_MSFontService,sans-serif" font-size="83" font-weight="400" transform="translate(1987.08 1979)">Write(B, t); U(B);</text><text font-family="SimHei,SimHei_MSFontService,sans-serif" font-size="128" font-weight="400" transform="translate(1792.7 170)">用锁无法保证的冲突可串行性</text><path fill="#70ad47" fill-rule="evenodd" stroke="#2b4719" stroke-miterlimit="8" stroke-width="4.583" d="M413.5 2167.5c0-61.86 50.144-112 112-112s112 50.14 112 112-50.144 112-112 112-112-50.14-112-112Z"/><text fill="#fff" font-family="DengXian,DengXian_MSFontService,sans-serif" font-size="83" font-weight="400" transform="translate(481.87 2194)">T1</text><path fill="#70ad47" fill-rule="evenodd" stroke="#2b4719" stroke-miterlimit="8" stroke-width="4.583" d="M809.5 2167.5c0-61.86 50.144-112 112-112 61.86 0 112 50.14 112 112s-50.14 112-112 112c-61.856 0-112-50.14-112-112Z"/><text fill="#fff" font-family="DengXian,DengXian_MSFontService,sans-serif" font-size="83" font-weight="400" transform="translate(877.916 2194)">T2</text><path fill="#548235" d="m637 2160.12 137.088.01v13.75H637Zm130.213-13.74 41.25 20.62-41.25 20.63Z"/><path fill="#70ad47" fill-rule="evenodd" stroke="#2b4719" stroke-miterlimit="8" stroke-width="4.583" d="M2344.5 2212.5c0-61.86 50.37-112 112.5-112s112.5 50.14 112.5 112-50.37 112-112.5 112-112.5-50.14-112.5-112Z"/><text fill="#fff" font-family="DengXian,DengXian_MSFontService,sans-serif" font-size="83" font-weight="400" transform="translate(2413.53 2239)">T1</text><path fill="#70ad47" fill-rule="evenodd" stroke="#2b4719" stroke-miterlimit="8" stroke-width="4.583" d="M2741.5 2212.5c0-61.86 50.14-112 112-112s112 50.14 112 112-50.14 112-112 112-112-50.14-112-112Z"/><text fill="#fff" font-family="DengXian,DengXian_MSFontService,sans-serif" font-size="83" font-weight="400" transform="translate(2809.57 2239)">T2</text><path fill="#548235" d="m2569 2205.12 137.09.01v13.75H2569Zm130.21-13.74 41.25 20.62-41.25 20.63Zm82.89 98.05-.7 11.22-2.13 11.5-3.42 11.26-4.59 10.93-5.68 10.53-6.67 10.05-7.56 9.49-8.38 8.85-9.1 8.15-9.75 7.35-10.31 6.47-10.79 5.51-11.2 4.46-11.53 3.31-11.76 2.06-11.9.71-11.88-.68-11.74-1.98-11.51-3.17-11.18-4.27-10.79-5.29-10.3-6.21-9.75-7.06-9.11-7.83-8.38-8.51-7.58-9.13-6.68-9.67-5.96-10.61-2.16-8.16 13.3-3.52 1.93 7.32-.65-1.61 5.37 9.57-.34-.55 6.33 9.16-.37-.48 7.2 8.67-.39-.43 7.98 8.1-.42-.39 8.67 7.45-.44-.35 9.28 6.72-.49-.32 9.81 5.91-.53-.28 10.24 5.01-.57-.24 10.58 4.04-.62-.21 10.84 2.99-.68-.15 11.01 1.85-.74-.08 11.1.64h-.8l11.11-.67-.78.1 11.02-1.93-.71.16 10.85-3.11-.65.22 10.59-4.21-.59.26 10.24-5.23-.53.31 9.8-6.16-.48.33 9.28-7-.44.37 8.67-7.76-.41.4 7.98-8.44-.38.44 7.19-9.03-.35.48 6.33-9.53-.32.53 5.37-9.95-.29.6 4.33-10.3-.24.67 3.2-10.55-.18.74 1.98-10.72-.1.82.68-10.8Zm-254.21 49.15 10.11-45 29.93 35.09Z"/></svg>