<svg xmlns="http://www.w3.org/2000/svg" xml:space="preserve" width="3620" height="2451" overflow="hidden"><path fill="#bdd7ee" fill-rule="evenodd" d="M2006.5 255.5c76.38-4.546 94.2 16.434 183.89 0 89.68-16.434 105.7.162 151.9 0s183.73 26.589 231.86 0c48.12-26.589 126.6 19.772 183.88 0 57.29-19.772 107.2 6.896 183.89 0 76.68-6.897 148.99 25.384 231.85 0 82.86-25.385 89.58 6.475 167.9 0 78.31-6.475 151.79 2.811 263.83 0 5.93 52.685-1.49 141.284 0 240.784s-2.86 105.218 0 153.943-4.46 130.736 0 197.364-20.06 175.089 0 219.069c20.06 43.99-1.87 69.79 0 132.24 1.87 62.44-14.12 120.49 0 197.36 14.12 76.88-17.3 140.64 0 197.37 17.3 56.72-7.19 131.96 0 197.36 7.2 65.4-20.03 131.64 0 219.07s-8.98 113.07 0 219.08c8.98 106-22.49 142.91 0 197.36-39.66 8.73-94.57-12.04-151.91 0-57.33 12.04-117.9-20.16-231.85 0s-122.62-6.99-199.88 0c-77.25 6.99-110.37-.54-167.89 0s-103.39-23.65-199.88 0c-96.48 23.65-119.51-12.04-151.9 0s-100.16-9.47-151.91 0c-51.74 9.47-230.79-32.95-343.78 0-11.9-38.4 8.64-108 0-153.94-8.64-45.95 22.13-180.43 0-240.79-22.13-60.35 13.87-130.6 0-175.65s12.31-94.54 0-132.23c-12.31-37.7 8.73-140.58 0-219.08s9.02-77.79 0-153.94c-9.02-76.16 25.23-165.17 0-219.08-25.23-53.9 4.3-174.319 0-240.779s13.09-98.255 0-175.654c-13.09-77.398 12.76-137.21 0-240.783-12.76-103.574 13.62-160.288 0-219.074"/><path fill="none" stroke="#548235" stroke-miterlimit="8" stroke-width="4.583" d="M2006.5 255.5c51.58-13.462 94.2 12.956 151.91 0 57.7-12.956 120.16 16.355 215.86 0 95.7-16.356 90.74 13.152 151.91 0 61.16-13.152 90.42.496 151.9 0s121.04 11.415 231.86 0c110.81-11.415 105.58 1.842 199.87 0s109.8 11.231 151.91 0c42.1-11.231 250.65 22.198 343.78 0 18.78 100.588-22.79 154.132 0 240.784s-1.96 92.603 0 153.943-13.7 157.412 0 197.364-6.01 72.48 0 132.234-23.83 152.865 0 240.785-18.03 120.22 0 197.36-8.03 162.02 0 240.79c8.03 78.76-17.09 103.81 0 175.65 17.09 71.83-14.92 119.35 0 153.94 14.92 34.6-.12 124.56 0 197.37.13 72.81-12.63 172.37 0 240.78-61.52 26.43-164.55-2.79-231.85 0-67.31 2.79-109.67-4.46-199.88 0s-104.04-4.86-183.88 0c-79.85 4.86-98.62-16.69-183.89 0s-135.59-4.79-183.89 0c-48.29 4.79-108.71-13.09-183.88 0s-122.02-23.09-215.87 0c-93.84 23.09-151.49-17.08-215.86 0-13.56-31.44 7.23-88.95 0-132.23-7.23-43.29 17.2-106.02 0-175.66s9.26-138.9 0-219.07 16.55-163.67 0-240.78c-16.55-77.12 11.06-92.97 0-132.24-11.06-39.26 2.89-68.03 0-132.23s4.65-137.36 0-240.79c-4.65-103.42 6.35-85.69 0-132.229-6.35-46.538.01-112.427 0-197.364s4.66-109.41 0-153.943 12.18-98.7 0-153.944 20.53-189.439 0-260.52Z"/><path fill="#bdd7ee" fill-rule="evenodd" d="M244.5 263.5c76.382-4.546 94.203 16.434 183.885 0s105.7.162 151.905 0 183.73 26.589 231.85 0c48.13-26.589 126.6 19.772 183.89 0s107.2 6.897 183.88 0c76.69-6.896 149 25.385 231.86 0 82.86-25.384 89.58 6.475 167.89 0 78.32-6.475 151.8 2.811 263.84 0 5.93 52.685-1.49 141.284 0 240.784s-2.86 105.218 0 153.943-4.46 130.736 0 197.364-20.06 175.089 0 219.069c20.06 43.99-1.87 69.79 0 132.24 1.87 62.44-14.12 120.49 0 197.36 14.12 76.88-17.3 140.64 0 197.37 17.3 56.72-7.19 131.96 0 197.36s-20.03 131.64 0 219.07-8.98 113.07 0 219.08c8.98 106-22.49 142.91 0 197.36-39.66 8.73-94.57-12.04-151.91 0-57.33 12.04-117.9-20.16-231.85 0s-122.62-6.99-199.88 0c-77.25 6.99-110.37-.54-167.89 0s-103.39-23.65-199.88 0c-96.48 23.65-119.51-12.04-151.9 0-32.386 12.04-100.158-9.47-151.905 0s-230.793-32.95-343.785 0c-11.897-38.4 8.641-108 0-153.94-8.642-45.95 22.125-180.43 0-240.79-22.126-60.35 13.874-130.6 0-175.65s12.31-94.54 0-132.23c-12.311-37.7 8.729-140.58 0-219.08s9.022-77.79 0-153.94c-9.022-76.16 25.229-165.17 0-219.08-25.229-53.9 4.301-174.319 0-240.779s13.093-98.255 0-175.654c-13.093-77.398 12.762-137.209 0-240.783s13.622-160.287 0-219.074"/><path fill="none" stroke="#548235" stroke-miterlimit="8" stroke-width="4.583" d="M244.5 263.5c51.581-13.461 94.202 12.956 151.905 0s120.168 16.356 215.865 0c95.697-16.355 90.736 13.152 151.91 0 61.16-13.152 90.42.496 151.9 0 61.48-.495 121.04 11.415 231.85 0 110.82-11.415 105.59 1.842 199.88 0s109.8 11.231 151.91 0c42.1-11.231 250.65 22.198 343.78 0 18.78 100.589-22.79 154.133 0 240.784s-1.96 92.603 0 153.943-13.7 157.412 0 197.364-6.01 72.48 0 132.234-23.83 152.865 0 240.785-18.03 120.22 0 197.36-8.03 162.02 0 240.79c8.03 78.76-17.09 103.81 0 175.65 17.09 71.83-14.92 119.35 0 153.94 14.92 34.6-.13 124.56 0 197.37s-12.63 172.37 0 240.78c-61.52 26.43-164.55-2.79-231.85 0-67.31 2.79-109.67-4.46-199.88 0s-104.04-4.86-183.88 0c-79.85 4.86-98.62-16.69-183.89 0s-135.59-4.79-183.89 0c-48.29 4.79-108.71-13.09-183.88 0-75.169 13.09-122.017-23.09-215.865 0s-151.49-17.08-215.865 0c-13.558-31.44 7.227-88.95 0-132.23-7.227-43.29 17.2-106.02 0-175.66s9.256-138.9 0-219.07 16.554-163.67 0-240.78c-16.554-77.12 11.06-92.97 0-132.24-11.06-39.26 2.892-68.03 0-132.23s4.654-137.36 0-240.79c-4.654-103.42 6.351-85.69 0-132.23-6.351-46.537.006-112.426 0-197.363s4.66-109.41 0-153.943 12.177-98.7 0-153.944c-12.178-55.243 20.53-189.439 0-260.52Z"/><path fill="#c00000" fill-rule="evenodd" stroke="#172c51" stroke-miterlimit="8" stroke-width="4.583" d="M7.5 2266.65h49.25V249.5h98.5v2017.15h49.25L106 2433.5Z"/><text fill="#fff" font-family="DengXian,DengXian_MSFontService,sans-serif" font-size="83" font-weight="400" transform="translate(64.054 1277)">时</text><text fill="#fff" font-family="DengXian,DengXian_MSFontService,sans-serif" font-size="83" font-weight="400" transform="translate(64.054 1376)">间</text><path fill="#e6f7f3" stroke="#172c51" stroke-miterlimit="8" stroke-width="4.583" d="M1208.5 22.5h1434v160h-1434z"/><text font-family="DengXian,DengXian_MSFontService,sans-serif" font-size="110" font-weight="700" transform="translate(1595 139)">非持久性连接</text><path fill="#fff" stroke="#70ad47" stroke-miterlimit="8" stroke-width="4.583" d="M441.5 435.5h1316v169h-1316z"/><text font-family="DengXian,DengXian_MSFontService,sans-serif" font-size="64" font-weight="400" transform="translate(474.34 503)">用户在浏览器输入</text><text font-family="DengXian,DengXian_MSFontService,sans-serif" font-size="64" font-weight="400" transform="translate(987.67 503)">URL</text><text fill="#0563c1" font-family="DengXian,DengXian_MSFontService,sans-serif" font-size="64" font-weight="400" text-decoration="underline" transform="translate(509.861 580)">www.guofei.site/linux.html</text><path fill="#fff" stroke="#70ad47" stroke-miterlimit="8" stroke-width="4.583" d="M441.5 758.5h1316v169h-1316z"/><text font-family="DengXian,DengXian_MSFontService,sans-serif" font-size="64" font-weight="400" transform="translate(474.341 825)">向 www.guofei.site 的服务器上的 HTTP 服务</text><text font-family="DengXian,DengXian_MSFontService,sans-serif" font-size="64" font-weight="400" transform="translate(474.341 902)">进程（ 80端口）发起 TCP 连接请求</text><path fill="#fff" stroke="#70ad47" stroke-miterlimit="8" stroke-width="4.583" d="M2148.5 934.5h1316v169h-1316z"/><text font-family="DengXian,DengXian_MSFontService,sans-serif" font-size="64" font-weight="400" transform="translate(2180.68 1040)">80 端口等待 TCP 连接请求</text><path fill="#fff" stroke="#70ad47" stroke-miterlimit="8" stroke-width="4.583" d="M441.5 2131.5h1316v169h-1316z"/><text font-family="DengXian,DengXian_MSFontService,sans-serif" font-size="64" font-weight="400" transform="translate(474.341 2237)">重复以上步骤，直到收到所有 jpeg 对象</text><path fill="red" d="m1759.12 837.301 366.87 165.775-4.24 9.398-366.87-165.775Zm366.42 154.255 21.82 26.835-34.56 1.357Z"/><path fill="red" d="m2144.955 1014.444-367.587 194.845 4.83 9.112 367.587-194.845Zm-367.861 183.318-20.09 28.157 34.579-.822Z"/><path fill="#ed7d31" stroke="#64310f" stroke-miterlimit="8" stroke-width="4.583" d="M726.5 214.5h717v121h-717z"/><text fill="#fff" font-family="DengXian,DengXian_MSFontService,sans-serif" font-size="83" font-weight="400" transform="translate(855.41 302)">HTTP</text><text fill="#fff" font-family="DengXian,DengXian_MSFontService,sans-serif" font-size="83" font-weight="400" transform="translate(1066.24 302)">客户端</text><path fill="#ed7d31" stroke="#64310f" stroke-miterlimit="8" stroke-width="4.583" d="M2447.5 204.5h717v120h-717z"/><text fill="#fff" font-family="DengXian,DengXian_MSFontService,sans-serif" font-size="83" font-weight="400" transform="translate(2576.5 292)">HTTP</text><text fill="#fff" font-family="DengXian,DengXian_MSFontService,sans-serif" font-size="83" font-weight="400" transform="translate(2787.34 292)">服务器</text><path fill="#fff" stroke="#70ad47" stroke-miterlimit="8" stroke-width="4.583" d="M441.5 1141.5h1316v169h-1316z"/><text font-family="DengXian,DengXian_MSFontService,sans-serif" font-size="64" font-weight="400" transform="translate(474.34 1209)">把 HTTP 请求消息（包括需要的对象的 URL）</text><text font-family="DengXian,DengXian_MSFontService,sans-serif" font-size="64" font-weight="400" transform="translate(474.34 1286)">通过 Socket 发出</text><path fill="#fff" stroke="#70ad47" stroke-miterlimit="8" stroke-width="4.583" d="M2166.5 1229.5h1316v169h-1316z"/><text font-family="DengXian,DengXian_MSFontService,sans-serif" font-size="64" font-weight="400" transform="translate(2198.79 1296)">收到请求消息，并解析，把需要</text><text font-family="DengXian,DengXian_MSFontService,sans-serif" font-size="64" font-weight="400" transform="translate(3097.12 1296)">的对象用</text><text font-family="DengXian,DengXian_MSFontService,sans-serif" font-size="64" font-weight="400" transform="translate(2198.79 1373)">Socket 发出</text><path fill="red" d="m1758.08 1220.96 383.27 82.13-2.16 10.08-383.27-82.13Zm380.39 70.97 27.01 21.6-33.5 8.65Z"/><path fill="red" d="m2158.984 1301.265-350.471 214.008 14.331 23.471 350.472-214.009Zm-353.068 183.372-48.913 78.2 91.908-7.789Z"/><path fill="#fff" stroke="#70ad47" stroke-miterlimit="8" stroke-width="4.583" d="M441.5 1478.5h1316v169h-1316z"/><text font-family="DengXian,DengXian_MSFontService,sans-serif" font-size="64" font-weight="400" transform="translate(473.669 1584)">接收消息</text><path fill="#fff" stroke="#70ad47" stroke-miterlimit="8" stroke-width="4.583" d="M2166.5 1498.5h1316v169h-1316z"/><text font-family="DengXian,DengXian_MSFontService,sans-serif" font-size="64" font-weight="400" transform="translate(2198.79 1604)">接收完毕后，关闭 TCP 连接</text><path fill="#fff" stroke="#70ad47" stroke-miterlimit="8" stroke-width="4.583" d="M441.5 1816.5h1316v169h-1316z"/><text font-family="DengXian,DengXian_MSFontService,sans-serif" font-size="64" font-weight="400" transform="translate(474.34 1883)">解析 html 文件，发现有 10个 jpeg 对象的超</text><text font-family="DengXian,DengXian_MSFontService,sans-serif" font-size="64" font-weight="400" transform="translate(474.34 1960)">链接</text><path fill="red" d="m1757.25 1557.85 383.4 18.55-.5 10.3-383.4-18.55Zm378.74 8 30.16 16.95-31.65 13.95ZM1104.16 1646.98l.56 142.56-10.31.04-.57-142.56Zm10.86 137.37-15.35 31-15.59-30.88ZM1104.16 1985v120.12h-10.32V1985Zm10.31 114.96L1099 2130.9l-15.47-30.94ZM441.001 2216.74h-83.647V518.854h60.729v2.292H358.5l1.146-1.146v1695.6l-1.146-1.15h82.501ZM413.5 506.25 441 520l-27.5 13.75Z"/></svg>