<svg xmlns="http://www.w3.org/2000/svg" xml:space="preserve" width="3795" height="1471" overflow="hidden"><path fill="none" stroke="red" stroke-miterlimit="8" stroke-width="13.75" d="M659 1207h912.55m499.45 0h912.55"/><path fill="#fff" fill-rule="evenodd" d="M1175.62 1467.5c14.43 0 26.13-46.79 26.13-104.5s-11.7-104.5-26.13-104.5h1221.75c14.43 0 26.13 46.79 26.13 104.5 0 57.72-11.7 104.5-26.13 104.5Z"/><path fill="#fff" fill-rule="evenodd" d="M1175.62 1467.5c-14.42 0-26.12-46.79-26.12-104.5s11.7-104.5 26.12-104.5c14.43 0 26.13 46.79 26.13 104.5s-11.7 104.5-26.13 104.5"/><path fill="none" stroke="#70ad47" stroke-miterlimit="8" stroke-width="4.583" d="M1175.62 1258.5c14.43 0 26.13 46.79 26.13 104.5 0 57.72-11.7 104.5-26.13 104.5-14.42 0-26.12-46.78-26.12-104.5 0-57.71 11.7-104.5 26.12-104.5h1221.75c14.43 0 26.13 46.79 26.13 104.5 0 57.72-11.7 104.5-26.13 104.5H1175.62"/><text font-family="DengXian,DengXian_MSFontService,sans-serif" font-size="83" font-weight="700" transform="translate(1454.9 1390)">unreliable</text><text font-family="DengXian,DengXian_MSFontService,sans-serif" font-size="83" font-weight="700" transform="translate(1850.79 1390)">channel</text><path fill="none" stroke="red" stroke-miterlimit="8" stroke-width="13.75" d="M659 292h912.55m499.45 0h912.55"/><path fill="#fff" stroke="#4472c4" stroke-miterlimit="8" stroke-width="4.583" d="M678.5 540.5h875v357h-875z"/><text font-family="DengXian,DengXian_MSFontService,sans-serif" font-size="83" font-weight="400" transform="translate(1054.93 746)">Rdt</text><path fill="#fff" stroke="#4472c4" stroke-miterlimit="8" stroke-width="4.583" d="M2065.5 540.5h876v357h-876z"/><text font-family="DengXian,DengXian_MSFontService,sans-serif" font-size="83" font-weight="400" transform="translate(2442.13 746)">Rdt</text><path fill="#fff" stroke="#4472c4" stroke-miterlimit="8" stroke-width="4.583" d="M659.5 160.5h876v107h-876z"/><text font-family="DengXian,DengXian_MSFontService,sans-serif" font-size="83" font-weight="400" transform="translate(973.39 241)">应用层</text><path fill="#fff" stroke="#4472c4" stroke-miterlimit="8" stroke-width="4.583" d="M2071.5 153.5h876v107h-876z"/><text font-family="DengXian,DengXian_MSFontService,sans-serif" font-size="83" font-weight="400" transform="translate(2385.43 234)">应用层</text><text font-family="DengXian,DengXian_MSFontService,sans-serif" font-size="83" font-weight="400" transform="translate(990.38 107)">发送方</text><text font-family="DengXian,DengXian_MSFontService,sans-serif" font-size="83" font-weight="400" transform="translate(2385.51 106)">接收方</text><path d="M1331.16 322v165.75h-10.32V322Zm10.31 160.594L1326 513.53l-15.47-30.936Z"/><path fill="#fff" stroke="#000" stroke-miterlimit="8" stroke-width="4.583" d="M1375.5 359.5h208v117h-208z"/><text font-family="DengXian,DengXian_MSFontService,sans-serif" font-size="73" font-weight="400" transform="translate(1409.42 442)">data</text><text fill="red" font-family="DengXian,DengXian_MSFontService,sans-serif" font-size="110" font-weight="400" transform="translate(687.898 453)">rdt_send()</text><path d="M1331.16 969.78v139.97h-10.32V969.78Zm-20.63 5.16L1326 944l15.47 30.94Zm30.94 129.65-15.47 30.94-15.47-30.94Z"/><path fill="#fff" stroke="#000" stroke-miterlimit="8" stroke-width="4.583" d="M1375.5 981.5h281v117h-281z"/><text font-family="DengXian,DengXian_MSFontService,sans-serif" font-size="73" font-weight="400" transform="translate(1411.68 1064)">packet</text><text fill="red" font-family="DengXian,DengXian_MSFontService,sans-serif" font-size="110" font-weight="400" transform="translate(652.604 1075)">udt_send()</text><path d="M2344.16 332.209V513.53h-10.32V332.209Zm-27.66 28.34 22.5-38.573 22.5 38.573c1.44 2.459.6 5.617-1.85 7.052a5.167 5.167 0 0 1-7.06-1.856l-18.04-30.938h8.9l-18.04 30.938c-1.44 2.46-4.6 3.291-7.05 1.856-2.46-1.435-3.3-4.592-1.86-7.052"/><path fill="#fff" stroke="#000" stroke-miterlimit="8" stroke-width="4.583" d="M2049.5 368.5h209v117h-209z"/><text font-family="DengXian,DengXian_MSFontService,sans-serif" font-size="73" font-weight="400" transform="translate(2083.96 450)">data</text><text fill="red" font-family="DengXian,DengXian_MSFontService,sans-serif" font-size="110" font-weight="400" transform="translate(2411.13 451)">deliver_data()</text><path d="M2355.16 995.78v139.97h-10.32V995.78Zm-20.63 5.16L2350 970l15.47 30.94Zm30.94 129.65-15.47 30.94-15.47-30.94Z"/><path fill="#fff" stroke="#000" stroke-miterlimit="8" stroke-width="4.583" d="M1995.5 994.5h281v117h-281z"/><text font-family="DengXian,DengXian_MSFontService,sans-serif" font-size="73" font-weight="400" transform="translate(2032.05 1076)">packet</text><text fill="red" font-family="DengXian,DengXian_MSFontService,sans-serif" font-size="110" font-weight="400" transform="translate(2448.03 1097)">rdt_rcv()</text><path d="m916.38 1232.74.25 129.51-5.16-5.15h211.41v10.31H906.32l-.25-134.65Zm-20.36 5.9L910 1207l16.92 30.17Zm221.7 108.15 30.94 15.47-30.94 15.47Zm1331.061 21.036h268.331l-.111-124.056-10.313.01.107 118.895 5.157-5.161h-263.17Zm5.157-20.625L2423 1362.67l30.938 15.469Zm273.479-98.592-16.108-30.61-14.823 31.253Z"/><path fill="#fff" stroke="#70ad47" stroke-miterlimit="8" stroke-width="4.583" d="M3.5 214.5h453v154H3.5z"/><path fill="none" stroke="#70ad47" stroke-miterlimit="8" stroke-width="4.583" d="m466.289 277.125 198.69 130.876"/><text fill="#0070c0" font-family="DengXian,DengXian_MSFontService,sans-serif" font-size="73" font-weight="400" transform="translate(46.256 315)">应用层调用</text><path fill="#fff" stroke="#70ad47" stroke-miterlimit="8" stroke-width="4.583" d="M3.5 954.5h453v154H3.5z"/><path fill="none" stroke="#70ad47" stroke-miterlimit="8" stroke-width="4.583" d="m466.289 1017.13 161.703 39.74"/><text fill="#0070c0" font-family="DengXian,DengXian_MSFontService,sans-serif" font-size="73" font-weight="400" transform="translate(102.115 1055)">Rdt</text><text fill="#0070c0" font-family="DengXian,DengXian_MSFontService,sans-serif" font-size="73" font-weight="400" transform="translate(210.397 1055)">调用</text><path fill="#fff" stroke="#70ad47" stroke-miterlimit="8" stroke-width="4.583" d="M3247.5 277.5h541v199h-541z"/><path fill="none" stroke="#70ad47" stroke-miterlimit="8" stroke-width="4.583" d="m3238.01 354.063-171.37 83.186"/><text fill="#0070c0" font-family="DengXian,DengXian_MSFontService,sans-serif" font-size="73" font-weight="400" transform="translate(3280.22 356)">Rdt</text><text fill="#0070c0" font-family="DengXian,DengXian_MSFontService,sans-serif" font-size="73" font-weight="400" transform="translate(3388.5 356)">调用，向</text><text fill="#0070c0" font-family="DengXian,DengXian_MSFontService,sans-serif" font-size="73" font-weight="400" transform="translate(3280.22 444)">上层交付数据</text></svg>