<svg xmlns="http://www.w3.org/2000/svg" xml:space="preserve" width="3685" height="1160" overflow="hidden"><path fill="#fff" fill-rule="evenodd" stroke="#000" stroke-miterlimit="8" stroke-width="10.313" d="M126 423.5C126 258.091 260.091 124 425.5 124 590.91 124 725 258.091 725 423.5 725 588.91 590.91 723 425.5 723 260.091 723 126 588.91 126 423.5Z"/><text fill="#0070c0" font-family="DengXian,DengXian_MSFontService,sans-serif" font-size="83" font-weight="400" transform="translate(283.611 352)">Wait</text><text fill="#0070c0" font-family="DengXian,DengXian_MSFontService,sans-serif" font-size="83" font-weight="400" transform="translate(467.517 352)">for</text><text fill="#0070c0" font-family="DengXian,DengXian_MSFontService,sans-serif" font-size="83" font-weight="400" transform="translate(272.153 451)">call</text><text fill="#0070c0" font-family="DengXian,DengXian_MSFontService,sans-serif" font-size="83" font-weight="400" transform="translate(409.653 451)">from</text><text fill="#0070c0" font-family="DengXian,DengXian_MSFontService,sans-serif" font-size="83" font-weight="400" transform="translate(316.84 550)">above</text><path d="m640.144 214.349.263-3.866-.09.667.776-3.858-.16.604 1.272-3.843-.208.53 1.752-3.821-.235.453 2.216-3.79-.246.381 2.663-3.753-.246.32 3.094-3.707-.239.267 3.508-3.655-.228.224 3.906-3.594-.216.188 4.286-3.526-.3.229 9.649-6.818-.361.233 10.973-6.455-.323.175 12.166-6.032-.296.135 13.226-5.549-.275.106 14.153-5.005-.263.085 14.948-4.4-.256.068 15.611-3.736-.255.054 16.141-3.011-.258.041 16.538-2.226-.266.03 16.803-1.38-.278.015 16.936-.474-.403-.004 8.476.427-.502-.05 8.459 1.262-.469-.092 8.426 2.07-.431-.126 8.376 2.853-.391-.151 8.311 3.607-.351-.168 8.228 4.335-.312-.178 8.128 5.036-.277-.184 8.013 5.71-.245-.186 7.879 6.356-.217-.185 7.731 6.977-.192-.183 7.565 7.57-.171-.18 7.383 8.135-.153-.176 7.184 8.675-.137-.173 6.969 9.187-.123-.169 6.738 9.672-.111-.166 6.489 10.13-.101-.163 6.224 10.562-.091-.161 5.942 10.966-.083-.16 5.645 11.344-.076-.159 5.33 11.694-.102-.238 9.649 24.331-.087-.238 4.286 12.583-.052-.16 3.906 12.825-.047-.162 3.508 13.041-.042-.165 3.094 13.23-.036-.168 2.663 13.391-.031-.172 2.217 13.527-.026-.176 1.752 13.634-.02-.181 1.273 13.715-.014-.186.775 13.769-.007-.192.262 13.796v-.194l-.259 13.796.007-.19-.765 13.77.013-.184-1.256 13.715.02-.179-1.731 13.634.025-.174-2.188 13.527.031-.17-2.63 13.392.035-.167-3.054 13.23.04-.163-3.463 13.041.045-.161-3.856 12.826.051-.159-4.232 12.583.086-.236-9.527 24.331.099-.236-5.262 11.693.074-.157-5.572 11.343.081-.159-5.867 10.966.09-.16-6.145 10.561.099-.163-6.407 10.131.11-.166-6.652 9.672.121-.169-6.881 9.187.136-.173-7.094 8.675.152-.177-7.29 8.135.17-.18-7.469 7.569.191-.184-7.632 6.977.216-.187-7.78 6.356.245-.188-7.911 5.71.277-.186-8.026 5.036.313-.182-8.123 4.335.353-.171-8.206 3.608.394-.155-8.27 2.853.436-.129-8.32 2.071.475-.095-8.352 1.263.508-.052-8.369.427.408-.005-16.721-.473.282.016-16.59-1.38.269.03-16.329-2.226.261.042-15.936-3.011.258.056-15.413-3.736.258.069-14.758-4.4.265.087-13.974-5.006.278.109-13.059-5.549.298.138-12.012-6.032.325.178-10.835-6.455 1.104.883-6.072-6.409-7.486 7.092 6.562 6.928 11.608 6.915 12.324 6.189 13.347 5.672 14.246 5.102 15.021 4.479 15.671 3.799 16.196 3.06 16.593 2.262 16.866 1.403 17.066.483 8.828-.451 8.845-1.336 8.775-2.185 8.686-2.996 8.578-3.771 8.457-4.513 8.32-5.221 8.171-5.898 8.011-6.545 7.836-7.163 7.65-7.752 7.45-8.315 7.237-8.85 7.009-9.359 6.767-9.839 6.51-10.295 6.24-10.724 5.952-11.126 5.651-11.501 5.35-11.89 9.619-24.567 4.299-12.782 3.904-12.986 3.507-13.204 3.093-13.395 2.662-13.56 2.217-13.699 1.752-13.811 1.273-13.897.776-13.956.263-13.988-.266-13.99-.786-13.958-1.29-13.899-1.775-13.813-2.245-13.701-2.697-13.562-3.133-13.397-3.552-13.206-3.955-12.987-4.355-12.784-9.743-24.569-5.42-11.89-5.723-11.503-6.029-11.127-6.32-10.724-6.594-10.295-6.854-9.84-7.099-9.358-7.329-8.85-7.545-8.313-7.747-7.752-7.935-7.161-8.111-6.543-8.273-5.896-8.423-5.218-8.559-4.51-8.681-3.768-8.788-2.993-8.878-2.182-8.946-1.335-8.929-.45-17.277.483-17.075 1.402-16.8 2.261-16.397 3.06-15.866 3.797-15.208 4.477-14.423 5.1-13.512 5.67-12.477 6.186-11.318 6.657-9.98 7.052-4.542 3.736-4.129 3.8-3.742 3.898-3.339 4-2.911 4.103-2.46 4.207-1.978 4.312-1.46 4.41-.904 4.497-.285 4.202ZM682.07 670.89l-42.486-33.06 17.272 50.987ZM11.646 2.354l29.168 29.168-7.292 7.292L4.354 9.646ZM62.69 53.398l29.168 29.168-7.292 7.292L55.398 60.69Zm51.044 51.044 29.169 29.168-7.292 7.293-29.169-29.169Zm51.045 51.045 29.168 29.168-7.292 7.292-29.168-29.168Zm37.919 23.334 10.938 32.815-32.815-10.938Z"/><path fill="none" stroke="#000" stroke-miterlimit="8" stroke-width="10.313" d="m1008 302 606.12.001"/><text fill="#0070c0" font-family="DengXian,DengXian_MSFontService,sans-serif" font-size="83" font-weight="400" transform="translate(1038.97 225)">rdt_send(data)</text><text fill="#0070c0" font-family="DengXian,DengXian_MSFontService,sans-serif" font-size="83" font-weight="400" transform="translate(1038.97 471)">packet =  make_pkt(data)</text><text fill="#0070c0" font-family="DengXian,DengXian_MSFontService,sans-serif" font-size="83" font-weight="400" transform="translate(1038.97 570)">udt_send(packet)</text><text fill="red" font-family="Microsoft YaHei,Microsoft YaHei_MSFontService,sans-serif" font-size="110" font-weight="400" transform="translate(455.081 1014)">sender</text><path fill="#fff" fill-rule="evenodd" stroke="#000" stroke-miterlimit="8" stroke-width="10.313" d="M2024 475.5c0-165.409 134.09-299.5 299.5-299.5S2623 310.091 2623 475.5c0 165.41-134.09 299.5-299.5 299.5S2024 640.91 2024 475.5Z"/><text fill="#0070c0" font-family="DengXian,DengXian_MSFontService,sans-serif" font-size="83" font-weight="400" transform="translate(2181.67 404)">Wait</text><text fill="#0070c0" font-family="DengXian,DengXian_MSFontService,sans-serif" font-size="83" font-weight="400" transform="translate(2365.58 404)">for</text><text fill="#0070c0" font-family="DengXian,DengXian_MSFontService,sans-serif" font-size="83" font-weight="400" transform="translate(2170.21 503)">call</text><text fill="#0070c0" font-family="DengXian,DengXian_MSFontService,sans-serif" font-size="83" font-weight="400" transform="translate(2307.71 503)">from</text><text fill="#0070c0" font-family="DengXian,DengXian_MSFontService,sans-serif" font-size="83" font-weight="400" transform="translate(2216.62 602)">below</text><path d="m2538.144 266.349.263-3.866-.09.667.776-3.858-.16.604 1.272-3.843-.208.53 1.752-3.821-.235.453 2.216-3.79-.246.381 2.663-3.753-.246.32 3.094-3.707-.239.267 3.508-3.655-.228.224 3.905-3.594-.215.188 4.286-3.526-.3.229 9.649-6.818-.361.233 10.974-6.455-.324.175 12.166-6.032-.296.135 13.226-5.549-.276.106 14.154-5.005-.263.085 14.948-4.4-.256.068 15.611-3.736-.255.054 16.141-3.011-.258.041 16.538-2.226-.266.03 16.803-1.38-.278.015 16.936-.474-.403-.004 8.476.427-.502-.05 8.459 1.262-.469-.092 8.426 2.07-.431-.126 8.376 2.853-.391-.151 8.311 3.607-.351-.168 8.228 4.335-.312-.178 8.128 5.036-.277-.184 8.013 5.71-.245-.186 7.879 6.356-.217-.185 7.731 6.977-.192-.183 7.565 7.57-.171-.18 7.383 8.135-.153-.176 7.184 8.675-.137-.173 6.969 9.187-.123-.169 6.738 9.672-.111-.166 6.489 10.13-.101-.163 6.224 10.562-.091-.161 5.942 10.966-.083-.16 5.645 11.344-.076-.159 5.33 11.694-.102-.238 9.649 24.331-.087-.238 4.286 12.583-.052-.16 3.906 12.825-.047-.162 3.508 13.041-.042-.165 3.094 13.23-.036-.168 2.663 13.391-.031-.172 2.217 13.527-.026-.176 1.752 13.634-.02-.181 1.273 13.715-.014-.186.775 13.769-.007-.192.262 13.796v-.194l-.259 13.796.007-.19-.765 13.77.013-.184-1.256 13.715.02-.179-1.731 13.634.025-.174-2.188 13.527.031-.17-2.63 13.392.035-.167-3.054 13.23.04-.163-3.463 13.041.045-.161-3.856 12.826.051-.159-4.232 12.583.086-.236-9.527 24.331.099-.236-5.262 11.693.074-.157-5.572 11.343.081-.159-5.867 10.966.09-.16-6.145 10.561.099-.163-6.407 10.131.11-.166-6.652 9.672.121-.169-6.881 9.187.136-.173-7.094 8.675.152-.177-7.29 8.135.17-.18-7.469 7.569.191-.184-7.632 6.977.216-.187-7.78 6.356.245-.188-7.911 5.71.277-.186-8.026 5.036.313-.182-8.123 4.335.353-.171-8.206 3.608.394-.155-8.27 2.853.436-.129-8.32 2.071.475-.095-8.352 1.263.508-.052-8.369.427.408-.005-16.721-.473.282.016-16.59-1.38.269.03-16.329-2.226.261.042-15.936-3.011.258.056-15.413-3.736.258.069-14.758-4.4.265.087-13.974-5.006.278.109-13.059-5.549.298.138-12.012-6.032.325.178-10.835-6.455 1.104.883-6.072-6.409-7.486 7.092 6.562 6.928 11.608 6.915 12.324 6.189 13.347 5.672 14.246 5.102 15.021 4.479 15.671 3.799 16.196 3.06 16.593 2.262 16.866 1.403 17.066.483 8.828-.451 8.845-1.336 8.775-2.185 8.686-2.996 8.578-3.771 8.457-4.513 8.32-5.221 8.171-5.898 8.011-6.545 7.836-7.163 7.65-7.752 7.45-8.315 7.237-8.85 7.009-9.359 6.767-9.839 6.51-10.295 6.24-10.724 5.952-11.126 5.651-11.501 5.35-11.89 9.619-24.567 4.299-12.782 3.904-12.986 3.507-13.204 3.093-13.395 2.662-13.56 2.217-13.699 1.752-13.811 1.273-13.897.776-13.956.263-13.988-.266-13.99-.786-13.958-1.29-13.899-1.775-13.813-2.245-13.701-2.697-13.562-3.133-13.397-3.552-13.206-3.955-12.987-4.355-12.784-9.743-24.569-5.42-11.89-5.723-11.503-6.029-11.127-6.32-10.724-6.594-10.295-6.854-9.84-7.099-9.358-7.329-8.85-7.545-8.313-7.747-7.752-7.935-7.161-8.111-6.543-8.273-5.896-8.423-5.218-8.559-4.51-8.681-3.768-8.788-2.993-8.878-2.182-8.946-1.335-8.929-.45-17.277.483-17.075 1.402-16.8 2.261-16.397 3.06-15.866 3.797-15.208 4.477-14.423 5.1-13.512 5.67-12.477 6.186-11.318 6.657-9.98 7.052-4.542 3.736-4.129 3.8-3.742 3.898-3.339 4-2.911 4.103-2.46 4.207-1.978 4.312-1.46 4.41-.904 4.497-.285 4.202Zm41.925 456.542-42.486-33.06 17.272 50.987ZM1909.65 54.354l29.16 29.168-7.29 7.292-29.17-29.168Zm51.04 51.044 29.17 29.169-7.29 7.292-29.17-29.169Zm51.04 51.045 29.17 29.168-7.29 7.292-29.17-29.168Zm51.05 51.044 29.17 29.168-7.29 7.292-29.17-29.168Zm37.92 23.335 10.94 32.814-32.82-10.938Z"/><path fill="none" stroke="#000" stroke-miterlimit="8" stroke-width="10.313" d="M2906 354h606.12"/><text fill="#0070c0" font-family="DengXian,DengXian_MSFontService,sans-serif" font-size="83" font-weight="400" transform="translate(2937.03 277)">rdt_srcv(packet)</text><text fill="#0070c0" font-family="DengXian,DengXian_MSFontService,sans-serif" font-size="83" font-weight="400" transform="translate(2937.03 522)">extract(packet,data)</text><text fill="#0070c0" font-family="DengXian,DengXian_MSFontService,sans-serif" font-size="83" font-weight="400" transform="translate(2937.03 621)">deliver_data(data)</text><text fill="red" font-family="Microsoft YaHei,Microsoft YaHei_MSFontService,sans-serif" font-size="110" font-weight="400" transform="translate(2353.14 1066)">receiver</text></svg>