<svg xmlns="http://www.w3.org/2000/svg" xml:space="preserve" width="1444" height="1710" overflow="hidden"><path fill="#e6f7f3" stroke="#172c51" stroke-miterlimit="8" stroke-width="4.583" d="M3.5 1498.5h1434v160H3.5z"/><text font-family="DengXian,DengXian_MSFontService,sans-serif" font-size="110" font-weight="700" transform="translate(133.764 1615)">TCP/UDP的 1个segment</text><path fill="#fff" stroke="#70ad47" stroke-miterlimit="8" stroke-width="6.875" d="M107.5 208.5h613v222h-613z"/><text fill="red" font-family="DengXian,DengXian_MSFontService,sans-serif" font-size="83" font-weight="700" transform="translate(224.08 346)">源端口号</text><text fill="red" font-family="DengXian,DengXian_MSFontService,sans-serif" font-size="83" font-weight="700" transform="translate(554.08 346)">#</text><path fill="#fff" stroke="#70ad47" stroke-miterlimit="8" stroke-width="6.875" d="M720.5 208.5h613v222h-613z"/><text fill="red" font-family="DengXian,DengXian_MSFontService,sans-serif" font-size="83" font-weight="700" transform="translate(795.69 346)">目的端口号</text><text fill="red" font-family="DengXian,DengXian_MSFontService,sans-serif" font-size="83" font-weight="700" transform="translate(1208.19 346)">#</text><path fill="#4472c4" d="M861 73.844h446.15v10.313L861 84.156Zm440.99-10.312 30.94 15.469-30.94 15.468Z"/><text font-family="DengXian,DengXian_MSFontService,sans-serif" font-size="83" font-weight="400" transform="translate(611.93 106)">32bits</text><path fill="#4472c4" d="m578.612 73.844-456.866 3.38.076 10.313 456.866-3.38Zm-451.786-6.97L96.004 82.571l31.051 15.24Z"/><path fill="#fff" stroke="#70ad47" stroke-miterlimit="8" stroke-width="6.875" d="M107.5 430.5h1226v312h-1226z"/><text font-family="DengXian,DengXian_MSFontService,sans-serif" font-size="83" font-weight="700" transform="translate(472.36 614)">其它头部信息</text><path fill="#fff" stroke="#70ad47" stroke-miterlimit="8" stroke-width="6.875" d="M107.5 742.5h1226v657h-1226z"/><text font-family="DengXian,DengXian_MSFontService,sans-serif" font-size="83" font-weight="700" transform="translate(392.15 1098)">数据（message）</text></svg>