<svg xmlns="http://www.w3.org/2000/svg" xml:space="preserve" width="3318" height="2479" overflow="hidden"><path fill="#ed7d31" stroke="#fff" stroke-miterlimit="8" stroke-width="4.583" d="M6.5 2270.5h1159v200H6.5z"/><text fill="#fff" font-family="DengXian,DengXian_MSFontService,sans-serif" font-size="83" font-weight="400" transform="translate(354.45 2389)">WSACleanup</text><path fill="#ed7d31" fill-rule="evenodd" stroke="#fff" stroke-miterlimit="8" stroke-width="4.583" d="M1165.5 2165.63h-541v30.87H663l-77 77-77-77h38.5v-30.87H6.5V1965.5h1159Z"/><text fill="#fff" font-family="DengXian,DengXian_MSFontService,sans-serif" font-size="83" font-weight="400" transform="translate(342.25 2084)">closesocket</text><text fill="#fff" font-family="DengXian,DengXian_MSFontService,sans-serif" font-size="83" font-weight="400" transform="translate(746.77 2084)">(s)</text><path fill="#ed7d31" fill-rule="evenodd" stroke="#fff" stroke-miterlimit="8" stroke-width="4.583" d="M1165.5 1860.63h-541v30.87H663l-77 77-77-77h38.5v-30.87H6.5V1660.5h1159Z"/><text fill="#fff" font-family="DengXian,DengXian_MSFontService,sans-serif" font-size="83" font-weight="400" transform="translate(471.46 1780)">recv</text><text fill="#fff" font-family="DengXian,DengXian_MSFontService,sans-serif" font-size="83" font-weight="400" transform="translate(617.56 1780)">(s)</text><path fill="#ed7d31" fill-rule="evenodd" stroke="#fff" stroke-miterlimit="8" stroke-width="4.583" d="M1165.5 1555.98H624.37v30.77h38.38L586 1663.5l-76.75-76.75h38.38v-30.77H6.5V1356.5h1159Z"/><text fill="#fff" font-family="DengXian,DengXian_MSFontService,sans-serif" font-size="83" font-weight="400" transform="translate(460.18 1475)">send(s)</text><path fill="#ed7d31" fill-rule="evenodd" stroke="#fff" stroke-miterlimit="8" stroke-width="4.583" d="M1165.5 1251.63h-541v30.87H663l-77 77-77-77h38.5v-30.87H6.5V1051.5h1159Z"/><text fill="#fff" font-family="DengXian,DengXian_MSFontService,sans-serif" font-size="83" font-weight="400" transform="translate(420.6 1171)">connect()</text><path fill="#ed7d31" fill-rule="evenodd" stroke="#fff" stroke-miterlimit="8" stroke-width="4.583" d="M1165.5 946.979H624.37v30.771h38.38L586 1054.5l-76.75-76.75h38.38v-30.771H6.5V747.5h1159Z"/><text fill="#fff" font-family="DengXian,DengXian_MSFontService,sans-serif" font-size="83" font-weight="400" transform="translate(404.22 866)">s=socket()</text><path fill="#ed7d31" fill-rule="evenodd" stroke="#fff" stroke-miterlimit="8" stroke-width="4.583" d="M1165.5 642.629h-541v30.87H663L586 750.5l-77-77.001h38.5v-30.87H6.5V442.5h1159Z"/><text fill="#fff" font-family="DengXian,DengXian_MSFontService,sans-serif" font-size="83" font-weight="700" transform="translate(346.03 561)">WSAStartup</text><path fill="#ed7d31" stroke="#fff" stroke-miterlimit="8" stroke-width="4.583" d="M1819.5 2315.5h1159v154h-1159z"/><text fill="#fff" font-family="DengXian,DengXian_MSFontService,sans-serif" font-size="64" font-weight="400" transform="translate(2218.92 2407)">WSACleanup</text><path fill="#ed7d31" fill-rule="evenodd" stroke="#fff" stroke-miterlimit="8" stroke-width="4.583" d="M2978.5 2235.5h-549.87v23.75h29.62L2399 2318.5l-59.25-59.25h29.62v-23.75H1819.5v-154h1159Z"/><text fill="#fff" font-family="DengXian,DengXian_MSFontService,sans-serif" font-size="64" font-weight="400" transform="translate(2189.9 2173)">closesocket(</text><text fill="#fff" font-family="DengXian,DengXian_MSFontService,sans-serif" font-size="64" font-weight="700" transform="translate(2523.27 2173)">ns</text><text fill="#fff" font-family="DengXian,DengXian_MSFontService,sans-serif" font-size="64" font-weight="400" transform="translate(2588.38 2173)">)</text><path fill="#ed7d31" fill-rule="evenodd" stroke="#fff" stroke-miterlimit="8" stroke-width="4.583" d="M2978.5 2001.5h-549.87v23.75h29.62L2399 2084.5l-59.25-59.25h29.62v-23.75H1819.5v-154h1159Z"/><text fill="#fff" font-family="DengXian,DengXian_MSFontService,sans-serif" font-size="64" font-weight="400" transform="translate(2281.62 1939)">send(</text><text fill="#fff" font-family="DengXian,DengXian_MSFontService,sans-serif" font-size="64" font-weight="700" transform="translate(2431.56 1939)">ns</text><text fill="#fff" font-family="DengXian,DengXian_MSFontService,sans-serif" font-size="64" font-weight="400" transform="translate(2496.67 1939)">)</text><path fill="#ed7d31" fill-rule="evenodd" stroke="#fff" stroke-miterlimit="8" stroke-width="4.583" d="M2978.5 1767.49h-549.87v23.76h29.62L2399 1850.5l-59.25-59.25h29.62v-23.76H1819.5V1613.5h1159Z"/><text fill="#fff" font-family="DengXian,DengXian_MSFontService,sans-serif" font-size="64" font-weight="400" transform="translate(2290.4 1705)">recv(</text><text fill="#fff" font-family="DengXian,DengXian_MSFontService,sans-serif" font-size="64" font-weight="700" transform="translate(2422.77 1705)">ns</text><text fill="#fff" font-family="DengXian,DengXian_MSFontService,sans-serif" font-size="64" font-weight="400" transform="translate(2487.88 1705)">)</text><path fill="#ed7d31" fill-rule="evenodd" stroke="#fff" stroke-miterlimit="8" stroke-width="4.583" d="M2978.5 1532.85h-550v23.65h29.5l-59 59-59-59h29.5v-23.65h-550V1379.5h1159Z"/><text fill="#fff" font-family="DengXian,DengXian_MSFontService,sans-serif" font-size="64" font-weight="400" transform="translate(2224.44 1471)">ns=accept(s)</text><path fill="#ed7d31" fill-rule="evenodd" stroke="#fff" stroke-miterlimit="8" stroke-width="4.583" d="M2978.5 1298.85h-550v23.65h29.5l-59 59-59-59h29.5v-23.65h-550V1145.5h1159Z"/><text fill="#fff" font-family="DengXian,DengXian_MSFontService,sans-serif" font-size="64" font-weight="400" transform="translate(2295.01 1237)">listen(s)</text><path fill="#ed7d31" fill-rule="evenodd" stroke="#fff" stroke-miterlimit="8" stroke-width="4.583" d="M2978.5 1064.85h-550v23.65h29.5l-59 59-59-59h29.5v-23.65h-550V911.5h1159Z"/><text fill="#fff" font-family="DengXian,DengXian_MSFontService,sans-serif" font-size="64" font-weight="400" transform="translate(2305.07 1002)">bind(s)</text><path fill="#ed7d31" fill-rule="evenodd" stroke="#fff" stroke-miterlimit="8" stroke-width="4.583" d="M2978.5 830.846h-550V854.5h29.5l-59 59-59-59h29.5v-23.654h-550V677.5h1159Z"/><text fill="#fff" font-family="DengXian,DengXian_MSFontService,sans-serif" font-size="64" font-weight="400" transform="translate(2257.61 768)">s=socket()</text><path fill="#ed7d31" fill-rule="evenodd" stroke="#fff" stroke-miterlimit="8" stroke-width="4.583" d="M2978.5 596.846h-550V620.5h29.5l-59 59-59-59h29.5v-23.654h-550V443.5h1159Z"/><text fill="#fff" font-family="DengXian,DengXian_MSFontService,sans-serif" font-size="64" font-weight="700" transform="translate(2212.37 534)">WSAStartup</text><path fill="#e6f7f3" stroke="#172c51" stroke-miterlimit="8" stroke-width="4.583" d="M719.5 23.5h1434v159h-1434z"/><text font-family="Microsoft YaHei,Microsoft YaHei_MSFontService,sans-serif" font-size="110" font-weight="700" transform="translate(771.38 143)">Socket API(TCP)</text><text font-family="Microsoft YaHei,Microsoft YaHei_MSFontService,sans-serif" font-size="110" font-weight="700" transform="translate(1660.82 143)">调用流程</text><path fill="#ed7d31" stroke="#64310f" stroke-miterlimit="8" stroke-width="4.583" d="M227.5 252.5h717v121h-717z"/><text fill="#fff" font-family="Microsoft YaHei,Microsoft YaHei_MSFontService,sans-serif" font-size="83" font-weight="400" transform="translate(461.61 342)">客户端</text><path fill="#ed7d31" stroke="#64310f" stroke-miterlimit="8" stroke-width="4.583" d="M2040.5 243.5h717v121h-717z"/><text fill="#fff" font-family="Microsoft YaHei,Microsoft YaHei_MSFontService,sans-serif" font-size="83" font-weight="400" transform="translate(2274.76 333)">服务器</text><path fill="#4472c4" d="M3307.52 1449.125h-297.149v13.75h297.149Zm-290.274-13.75-41.25 20.625 41.25 20.625Z"/><path fill="none" stroke="#4472c4" stroke-miterlimit="8" stroke-width="13.75" d="M2976 2125h331.52m.48-669v669.06"/><path fill="#4472c4" d="m1181.94 1155.79 608.53 288.01-5.88 12.43-608.53-288.02Zm608.2 272.64 28.46 36.29-46.11 1Zm25.5 95.82-608.6-291.21 5.93-12.4 608.6 291.2Zm-608.33-275.84L1179 1212l46.11-.8Z"/><text font-family="Microsoft YaHei,Microsoft YaHei_MSFontService,sans-serif" font-size="55" font-weight="400" transform="rotate(27.286 -1856.885 3529.868)">连接请求</text><text font-family="Microsoft YaHei,Microsoft YaHei_MSFontService,sans-serif" font-size="55" font-weight="400" transform="rotate(23.629 -2574.278 3866.835)">连接确认</text><path fill="#4472c4" d="m1181.48 1449.59 607.53 234.56-4.95 12.82-607.54-234.56Zm606.07 219.25 31.05 34.1-45.91 4.39Z"/><text font-family="Microsoft YaHei,Microsoft YaHei_MSFontService,sans-serif" font-size="55" font-weight="400" transform="rotate(21.098 -3607.765 4390.834)">request</text><path fill="#4472c4" d="m1817.09 1895.03-606.07-136.76 3.02-13.41 606.08 136.75ZM1214.7 1773.2 1179 1744l44.78-11.04Z"/><text font-family="Microsoft YaHei,Microsoft YaHei_MSFontService,sans-serif" font-size="55" font-weight="400" transform="rotate(15.03 -6315.267 6000.067)">response</text></svg>