<svg xmlns="http://www.w3.org/2000/svg" xml:space="preserve" width="4116" height="2035" overflow="hidden"><path fill="#e6f7f3" stroke="#172c51" stroke-miterlimit="8" stroke-width="4.583" d="M936.5 22.5h1434v160h-1434z"/><text font-family="DengXian,DengXian_MSFontService,sans-serif" font-size="110" font-weight="700" transform="translate(1268.37 139)">端上的网络开发</text><path fill="#ed7d31" fill-rule="evenodd" stroke="#fff" stroke-miterlimit="8" stroke-width="4.583" d="M936.5 350.4c0-14.857 12.04-26.9 26.9-26.9h1380.2c14.86 0 26.9 12.043 26.9 26.9v215.2c0 14.856-12.04 26.9-26.9 26.9H963.4c-14.86 0-26.9-12.044-26.9-26.9Z"/><text fill="#fff" font-family="DengXian,DengXian_MSFontService,sans-serif" font-size="133" font-weight="400" transform="translate(1454 490)">应用层</text><path fill="#ffc000" fill-rule="evenodd" stroke="#fff" stroke-miterlimit="8" stroke-width="4.583" d="M936.5 700.4c0-14.856 12.04-26.9 26.9-26.9h1380.2c14.86 0 26.9 12.044 26.9 26.9v215.2c0 14.86-12.04 26.9-26.9 26.9H963.4c-14.86 0-26.9-12.04-26.9-26.9Z"/><text fill="#fff" font-family="DengXian,DengXian_MSFontService,sans-serif" font-size="133" font-weight="400" transform="translate(1454 839)">传输层</text><path fill="#5b9bd5" fill-rule="evenodd" stroke="#fff" stroke-miterlimit="8" stroke-width="4.583" d="M936.5 1049.4c0-14.86 12.04-26.9 26.9-26.9h1380.2c14.86 0 26.9 12.04 26.9 26.9v215.2c0 14.86-12.04 26.9-26.9 26.9H963.4c-14.86 0-26.9-12.04-26.9-26.9Z"/><text fill="#fff" font-family="DengXian,DengXian_MSFontService,sans-serif" font-size="133" font-weight="400" transform="translate(1454 1188)">网络层</text><path fill="#70ad47" fill-rule="evenodd" stroke="#fff" stroke-miterlimit="8" stroke-width="4.583" d="M936.5 1398.5c0-14.91 12.09-27 27-27h1380c14.91 0 27 12.09 27 27v216c0 14.91-12.09 27-27 27h-1380c-14.91 0-27-12.09-27-27Z"/><text fill="#fff" font-family="DengXian,DengXian_MSFontService,sans-serif" font-size="133" font-weight="400" transform="translate(1321.08 1538)">数据链路层</text><path fill="#70ad47" fill-rule="evenodd" stroke="#fff" stroke-miterlimit="8" stroke-width="4.583" d="M936.5 1748.4c0-14.86 12.04-26.9 26.9-26.9h1380.2c14.86 0 26.9 12.04 26.9 26.9v215.2c0 14.86-12.04 26.9-26.9 26.9H963.4c-14.86 0-26.9-12.04-26.9-26.9Z"/><text fill="#fff" font-family="DengXian,DengXian_MSFontService,sans-serif" font-size="133" font-weight="400" transform="translate(1454 1887)">物理层</text><path fill="#cefdff" stroke="red" stroke-miterlimit="8" stroke-width="4.583" d="M31.5 369.5h540v268h-540z"/><path fill="none" stroke="red" stroke-miterlimit="8" stroke-width="4.583" d="m567.725 473.35 435.715 205.896"/><text font-family="DengXian,DengXian_MSFontService,sans-serif" font-size="83" font-weight="400" transform="translate(101.114 530)">Socket编程</text><path fill="#cefdff" stroke="red" stroke-miterlimit="8" stroke-width="4.583" d="M2594.5 103.5h881v268h-881z"/><path fill="none" stroke="red" stroke-miterlimit="8" stroke-width="4.583" d="m2581.62 211.472-271.98 111.067"/><text font-family="DengXian,DengXian_MSFontService,sans-serif" font-size="83" font-weight="400" transform="translate(2642.69 265)">Web/RPC/中间件编程</text><path fill="#cefdff" stroke="red" stroke-miterlimit="8" stroke-width="4.583" d="M31.5 1100.5h540v268h-540z"/><path fill="none" stroke="red" stroke-miterlimit="8" stroke-width="4.583" d="m567.725 1204.35 435.715 164.66"/><text font-family="DengXian,DengXian_MSFontService,sans-serif" font-size="83" font-weight="400" transform="translate(128.614 1212)">NDIS编程</text><text font-family="DengXian,DengXian_MSFontService,sans-serif" font-size="83" font-weight="400" transform="translate(157.833 1311)">（win）</text><path fill="#cefdff" stroke="red" stroke-miterlimit="8" stroke-width="4.583" d="M31.5 1553.5h540v268h-540z"/><path fill="none" stroke="red" stroke-miterlimit="8" stroke-width="4.583" d="m567.725 1657.35 435.715-16.75"/><text font-family="DengXian,DengXian_MSFontService,sans-serif" font-size="83" font-weight="400" transform="translate(125.75 1665)">网卡编程</text><text font-family="DengXian,DengXian_MSFontService,sans-serif" font-size="83" font-weight="400" transform="translate(53.562 1764)">（硬件相关）</text><path fill="#cefdff" stroke="red" stroke-miterlimit="8" stroke-width="4.583" d="M2594.5 736.5h881v268h-881z"/><path fill="none" stroke="red" stroke-miterlimit="8" stroke-width="4.583" d="M2581.62 844.472 2284.9 1289.51"/><text font-family="DengXian,DengXian_MSFontService,sans-serif" font-size="83" font-weight="400" transform="translate(2591.12 798)">基于LibPcap/WinPcap、</text><text font-family="DengXian,DengXian_MSFontService,sans-serif" font-size="83" font-weight="400" transform="translate(2682.49 897)">Libnet、Libnids、</text><text font-family="DengXian,DengXian_MSFontService,sans-serif" font-size="83" font-weight="400" transform="translate(2777.9 996)">Libicmp编程</text><path fill="#cefdff" stroke="red" stroke-miterlimit="8" stroke-width="4.583" d="M2594.5 1234.5h881v268h-881z"/><path fill="none" stroke="red" stroke-miterlimit="8" stroke-width="4.583" d="m2581.62 1342.47-280.23 36.85"/><text font-family="DengXian,DengXian_MSFontService,sans-serif" font-size="83" font-weight="400" transform="translate(2636.67 1297)">基于Packet Driver编程</text><text font-family="DengXian,DengXian_MSFontService,sans-serif" font-size="83" font-weight="400" transform="translate(2704.55 1396)">（屏蔽网卡细节，</text><text font-family="DengXian,DengXian_MSFontService,sans-serif" font-size="83" font-weight="400" transform="translate(2704.55 1495)">适用于所有网卡）</text><path fill="none" stroke="#4472c4" stroke-dasharray="18.3333 6.875" stroke-miterlimit="8" stroke-width="2.292" d="M728 629h2932.87"/><path fill="none" stroke="#4472c4" stroke-miterlimit="8" stroke-width="2.292" d="M3570 282c50.26 0 91 3.395 91 7.583v311.834c0 4.188-40.74 7.583-91 7.583m0 39c50.26 0 91 3.395 91 7.583V2023.42c0 4.18-40.74 7.58-91 7.58"/><text font-family="DengXian,DengXian_MSFontService,sans-serif" font-size="83" font-weight="400" transform="translate(3731.74 462)">应用进程</text><text font-family="DengXian,DengXian_MSFontService,sans-serif" font-size="83" font-weight="400" transform="translate(3731.74 1328)">操作系统</text><path fill="red" fill-rule="evenodd" stroke="#172c51" stroke-miterlimit="8" stroke-width="4.583" d="m3709.5 629 54.75-54.75v27.375h68.18V519.5h228.07v219h-228.07v-82.125h-68.18v27.375Z"/><text fill="#fff" font-family="DengXian,DengXian_MSFontService,sans-serif" font-size="83" font-weight="400" transform="translate(3886.47 656)">API</text></svg>