<svg xmlns="http://www.w3.org/2000/svg" xml:space="preserve" width="2805" height="1715" overflow="hidden"><path fill="#e6f7f3" stroke="#172c51" stroke-miterlimit="8" stroke-width="4.583" d="M645.5 1499.5h1434v160h-1434z"/><text font-family="DengXian,DengXian_MSFontService,sans-serif" font-size="110" font-weight="700" transform="translate(843.33 1616)">UDP的1个Segment</text><path fill="#fff" stroke="#70ad47" stroke-miterlimit="8" stroke-width="6.875" d="M749.5 209.5h613v223h-613z"/><text fill="red" font-family="DengXian,DengXian_MSFontService,sans-serif" font-size="83" font-weight="700" transform="translate(866.33 348)">源端口号#</text><path fill="#fff" stroke="#70ad47" stroke-miterlimit="8" stroke-width="6.875" d="M1362.5 209.5h613v223h-613z"/><text fill="red" font-family="DengXian,DengXian_MSFontService,sans-serif" font-size="83" font-weight="700" transform="translate(1437.93 348)">目的端口号#</text><path fill="#4472c4" d="M1503 74.844h446.15v10.313L1503 85.156Zm440.99-10.312L1974.93 80l-30.94 15.469Z"/><text font-family="DengXian,DengXian_MSFontService,sans-serif" font-size="83" font-weight="400" transform="translate(1254.18 107)">32bits</text><path fill="#4472c4" d="m1221.612 74.844-456.866 3.38.076 10.313 456.866-3.38Zm-451.786-6.97-30.822 15.697 31.051 15.24Z"/><path fill="#fff" stroke="#70ad47" stroke-miterlimit="8" stroke-width="6.875" d="M749.5 654.5h1226v746h-1226z"/><text font-family="DengXian,DengXian_MSFontService,sans-serif" font-size="83" font-weight="700" transform="translate(1034.4 1055)">数据（message）</text><path fill="#fff" stroke="#70ad47" stroke-miterlimit="8" stroke-width="6.875" d="M749.5 432.5h613v222h-613z"/><text fill="red" font-family="DengXian,DengXian_MSFontService,sans-serif" font-size="83" font-weight="700" transform="translate(934.79 571)">length</text><path fill="#fff" stroke="#70ad47" stroke-miterlimit="8" stroke-width="6.875" d="M1362.5 432.5h613v222h-613z"/><text fill="red" font-family="DengXian,DengXian_MSFontService,sans-serif" font-size="83" font-weight="700" transform="translate(1483.19 571)">checksum</text><path fill="#cefdff" stroke="red" stroke-miterlimit="8" stroke-width="4.583" d="M5.5 320.5h527v223H5.5z"/><path fill="none" stroke="red" stroke-miterlimit="8" stroke-width="4.583" d="m528.82 406.913 365.41 129.259"/><text font-family="DengXian,DengXian_MSFontService,sans-serif" font-size="73" font-weight="700" transform="translate(51.27 412)">整个segment</text><text font-family="DengXian,DengXian_MSFontService,sans-serif" font-size="73" font-weight="700" transform="translate(158.406 500)">的长度</text><path fill="#cefdff" stroke="red" stroke-miterlimit="8" stroke-width="4.583" d="M2136.5 254.5h665v343h-665z"/><path fill="none" stroke="red" stroke-miterlimit="8" stroke-width="4.583" d="m2141.28 413.292-242.46 91.06"/><text font-family="DengXian,DengXian_MSFontService,sans-serif" font-size="73" font-weight="700" transform="translate(2374.79 362)">先置0</text><text font-family="DengXian,DengXian_MSFontService,sans-serif" font-size="73" font-weight="700" transform="translate(2178 450)">计算整个 segment</text><text font-family="DengXian,DengXian_MSFontService,sans-serif" font-size="73" font-weight="700" transform="translate(2321.81 538)">然后填入</text></svg>