<svg xmlns="http://www.w3.org/2000/svg" xml:space="preserve" width="4354" height="2310" overflow="hidden"><text font-family="DengXian,DengXian_MSFontService,sans-serif" font-size="92" font-weight="400" transform="translate(3349.16 344)">{</text><text font-family="DengXian,DengXian_MSFontService,sans-serif" font-size="92" font-weight="400" transform="translate(3399.58 454)">&quot;name&quot;: &quot;Beijing&quot;,</text><text font-family="DengXian,DengXian_MSFontService,sans-serif" font-size="92" font-weight="400" transform="translate(3399.58 564)">&quot;country&quot;: &quot;China&quot;,</text><text font-family="DengXian,DengXian_MSFontService,sans-serif" font-size="92" font-weight="400" transform="translate(3399.58 674)">&quot;pop_m&quot;: 21.9,</text><text font-family="DengXian,DengXian_MSFontService,sans-serif" font-size="92" font-weight="400" transform="translate(3399.58 784)">&quot;coordinates&quot;: {</text><text font-family="DengXian,DengXian_MSFontService,sans-serif" font-size="92" font-weight="400" transform="translate(3450 894)">&quot;latitude&quot;: 39.9042,</text><text font-family="DengXian,DengXian_MSFontService,sans-serif" font-size="92" font-weight="400" transform="translate(3450 1004)">&quot;longitude&quot;: 116.4074</text><text font-family="DengXian,DengXian_MSFontService,sans-serif" font-size="92" font-weight="400" transform="translate(3399.58 1114)">}</text><text font-family="DengXian,DengXian_MSFontService,sans-serif" font-size="92" font-weight="400" transform="translate(3349.16 1224)">}</text><path fill="#196b24" d="M599.5 418.708h120.456v4.584H599.5Zm94.11-15.729L724.504 421l-30.894 18.021a2.291 2.291 0 1 1-2.309-3.959l27.5-16.041v3.959l-27.5-16.042a2.292 2.292 0 0 1 2.309-3.959"/><path fill="#196b24" stroke="#fff" stroke-miterlimit="8" stroke-width="6.875" d="M8.5 243.5h592v355H8.5z"/><text fill="#fff" font-family="DengXian,DengXian_MSFontService,sans-serif" font-size="83" font-weight="400" transform="translate(127.486 440)">{&quot;name&quot;: &quot;</text><path fill="#196b24" d="M1327.5 418.708h120.46v4.584H1327.5Zm94.11-15.729L1452.5 421l-30.89 18.021c-1.09.638-2.5.269-3.13-.824a2.29 2.29 0 0 1 .82-3.135l27.5-16.041v3.959l-27.5-16.042a2.29 2.29 0 0 1-.82-3.134 2.286 2.286 0 0 1 3.13-.825"/><path fill="#00b0f0" stroke="#fff" stroke-miterlimit="8" stroke-width="6.875" d="M736.5 243.5h591v355h-591z"/><text fill="#fff" font-family="DengXian,DengXian_MSFontService,sans-serif" font-size="83" font-weight="400" transform="translate(913.308 440)">Beijing</text><path fill="#196b24" d="M2054.5 418.708h120.46v4.584H2054.5Zm94.11-15.729L2179.5 421l-30.89 18.021c-1.09.638-2.5.269-3.13-.824a2.29 2.29 0 0 1 .82-3.135l27.5-16.041v3.959l-27.5-16.042a2.29 2.29 0 0 1-.82-3.134 2.286 2.286 0 0 1 3.13-.825"/><path fill="#196b24" stroke="#fff" stroke-miterlimit="8" stroke-width="6.875" d="M1463.5 243.5h592v355h-592z"/><text fill="#fff" font-family="DengXian,DengXian_MSFontService,sans-serif" font-size="83" font-weight="400" transform="translate(1524.32 440)">&quot;,</text><text fill="#fff" font-family="DengXian,DengXian_MSFontService,sans-serif" font-size="83" font-weight="400" transform="translate(1594.97 440)">&quot;country&quot;: &quot;</text><path fill="#196b24" d="M2489.29 597.5v70.959H304.5l2.292-2.291v51.787h-4.584v-54.079H2487l-2.3 2.292V597.5ZM322.521 691.61 304.5 722.504l-18.021-30.894a2.291 2.291 0 1 1 3.959-2.309l16.041 27.5h-3.959l16.042-27.5a2.29 2.29 0 1 1 3.959 2.309"/><path fill="#00b0f0" stroke="#fff" stroke-miterlimit="8" stroke-width="6.875" d="M2191.5 243.5h591v355h-591z"/><text fill="#fff" font-family="DengXian,DengXian_MSFontService,sans-serif" font-size="83" font-weight="400" transform="translate(2385.72 440)">China</text><path fill="#196b24" d="M599.5 909.708h120.456v4.584H599.5Zm94.11-15.729L724.504 912l-30.894 18.021a2.29 2.29 0 1 1-2.309-3.959l27.5-16.041v3.959l-27.5-16.042a2.292 2.292 0 0 1 2.309-3.959"/><path fill="#196b24" stroke="#fff" stroke-miterlimit="8" stroke-width="6.875" d="M8.5 734.5h592v355H8.5z"/><text fill="#fff" font-family="DengXian,DengXian_MSFontService,sans-serif" font-size="83" font-weight="400" transform="translate(106.953 931)">&quot;,</text><text fill="#fff" font-family="DengXian,DengXian_MSFontService,sans-serif" font-size="83" font-weight="400" transform="translate(177.605 931)">&quot;</text><text fill="#fff" font-family="DengXian,DengXian_MSFontService,sans-serif" font-size="83" font-weight="400" transform="translate(207.58 931)">pop_m</text><text fill="#fff" font-family="DengXian,DengXian_MSFontService,sans-serif" font-size="83" font-weight="400" transform="translate(453.178 931)">&quot;:</text><path fill="#196b24" d="M1327.5 909.708h120.46v4.584H1327.5Zm94.11-15.729L1452.5 912l-30.89 18.021c-1.09.638-2.5.269-3.13-.825a2.29 2.29 0 0 1 .82-3.134l27.5-16.041v3.959l-27.5-16.042a2.29 2.29 0 0 1-.82-3.134 2.285 2.285 0 0 1 3.13-.825"/><path fill="#00b0f0" stroke="#fff" stroke-miterlimit="8" stroke-width="6.875" d="M736.5 734.5h591v355h-591z"/><text fill="#fff" font-family="DengXian,DengXian_MSFontService,sans-serif" font-size="83" font-weight="400" transform="translate(957.342 931)">21.9</text><path fill="#196b24" d="M2054.5 909.708h120.46v4.584H2054.5Zm94.11-15.729L2179.5 912l-30.89 18.021c-1.09.638-2.5.269-3.13-.825a2.29 2.29 0 0 1 .82-3.134l27.5-16.041v3.959l-27.5-16.042a2.29 2.29 0 0 1-.82-3.134 2.285 2.285 0 0 1 3.13-.825"/><path fill="#196b24" stroke="#fff" stroke-miterlimit="8" stroke-width="6.875" d="M1463.5 734.5h592v355h-592z"/><text fill="#fff" font-family="DengXian,DengXian_MSFontService,sans-serif" font-size="83" font-weight="400" transform="translate(1503.75 880)">,&quot;coordinates&quot;: </text><text fill="#fff" font-family="DengXian,DengXian_MSFontService,sans-serif" font-size="83" font-weight="400" transform="translate(1569.3 981)">{&quot;latitude&quot;:</text><path fill="#196b24" d="M2489.29 1088.5v70.96H304.5l2.292-2.29v51.79h-4.584v-54.08H2487l-2.3 2.29v-68.67Zm-2166.769 94.11L304.5 1213.5l-18.021-30.89a2.285 2.285 0 0 1 .824-3.13 2.29 2.29 0 0 1 3.135.82l16.041 27.5h-3.959l16.042-27.5a2.29 2.29 0 0 1 3.134-.82 2.286 2.286 0 0 1 .825 3.13"/><path fill="#00b0f0" stroke="#fff" stroke-miterlimit="8" stroke-width="6.875" d="M2191.5 734.5h591v355h-591z"/><text fill="#fff" font-family="DengXian,DengXian_MSFontService,sans-serif" font-size="83" font-weight="400" transform="translate(2347.13 931)">39.9042</text><path fill="#196b24" d="M599.5 1400.71h120.456v4.58H599.5Zm94.11-15.73 30.894 18.02-30.894 18.02a2.29 2.29 0 1 1-2.309-3.96l27.5-16.04v3.96l-27.5-16.04a2.29 2.29 0 1 1 2.309-3.96"/><path fill="#196b24" stroke="#fff" stroke-miterlimit="8" stroke-width="6.875" d="M8.5 1225.5h592v355H8.5z"/><text fill="#fff" font-family="DengXian,DengXian_MSFontService,sans-serif" font-size="83" font-weight="400" transform="translate(75.557 1421)">,</text><text fill="#fff" font-family="DengXian,DengXian_MSFontService,sans-serif" font-size="83" font-weight="400" transform="translate(116.234 1421)">&quot;longitude&quot;:</text><path fill="#196b24" d="M1327.5 1400.71h120.46v4.58H1327.5Zm94.11-15.73 30.89 18.02-30.89 18.02c-1.09.64-2.5.27-3.13-.82-.64-1.1-.27-2.5.82-3.14l27.5-16.04v3.96l-27.5-16.04a2.297 2.297 0 0 1-.82-3.14 2.285 2.285 0 0 1 3.13-.82"/><path fill="#00b0f0" stroke="#fff" stroke-miterlimit="8" stroke-width="6.875" d="M736.5 1225.5h591v355h-591z"/><text fill="#fff" font-family="DengXian,DengXian_MSFontService,sans-serif" font-size="83" font-weight="400" transform="translate(870.396 1421)">116.4074</text><path fill="#196b24" stroke="#fff" stroke-miterlimit="8" stroke-width="6.875" d="M1463.5 1225.5h592v355h-592z"/><text fill="#fff" font-family="DengXian,DengXian_MSFontService,sans-serif" font-size="83" font-weight="400" transform="translate(1735.01 1421)">}}</text><path fill="#1a6a24" stroke="#042433" stroke-miterlimit="8" stroke-width="6.875" d="M703.5 1826.5h1400v154h-1400z"/><text fill="#fff" font-family="DengXian,DengXian_MSFontService,sans-serif" font-size="83" font-weight="400" transform="translate(879.068 1930)">这个颜色表示被限制的</text><text fill="#fff" font-family="DengXian,DengXian_MSFontService,sans-serif" font-size="83" font-weight="400" transform="translate(1726.41 1930)">token</text><path fill="#05b0f0" stroke="#042433" stroke-miterlimit="8" stroke-width="6.875" d="M703.5 2064.5h1400v155h-1400z"/><text fill="#fff" font-family="DengXian,DengXian_MSFontService,sans-serif" font-size="83" font-weight="400" transform="translate(837.818 2169)">这个颜色表示模型生成的</text><text fill="#fff" font-family="DengXian,DengXian_MSFontService,sans-serif" font-size="83" font-weight="400" transform="translate(1767.66 2169)">token</text><path fill="none" stroke="#042433" stroke-dasharray="20.625 6.875" stroke-linecap="square" stroke-miterlimit="8" stroke-width="6.875" d="M576.5 1723.5h1654v580h-1654z"/><path fill="#156082" fill-rule="evenodd" stroke="#042433" stroke-miterlimit="8" stroke-width="6.875" d="M2910.5 660.5h167v-323l167 646-167 646v-323h-167Z"/><text font-family="DengXian,DengXian_MSFontService,sans-serif" font-size="83" font-weight="400" transform="translate(1342.71 106)">Structured Output</text></svg>