<svg width="24px" height="24px" viewBox="0 0 24 24" xmlns="http://www.w3.org/2000/svg">
    <g
      id="error"
      stroke="none"
      fill="none"
      fillRule="evenodd"
      transform="translate(3.000000, 3.000000)"
    >
      <path
        d="M9,12 C9.55228475,12 10,12.4477153 10,13 C10,13.5522847 9.55228475,14 9,14 C8.44771525,14 8,13.5522847 8,13 C8,12.4477153 8.44771525,12 9,12 Z"
        className="icon_svg-fill_as_stroke"
        fill="#666666"
        fillRule="nonzero"/>
      <path
        d="M9,9.5 L9,4.5 L9,9.5 Z M9,18 C4.029,18 0,13.971 0,9 C0,4.029 4.029,0 9,0 C13.971,0 18,4.029 18,9 C18,13.971 13.971,18 9,18 Z"
        className="icon_svg-stroke"
        stroke="#666"
        strokeWidth="1.5"
        strokeLinecap="round"/>
    </g>
  </svg>